<?xml version="1.0" encoding="UTF-8"?>
<svg xmlns="http://www.w3.org/2000/svg" xmlns:xlink="http://www.w3.org/1999/xlink" xmlns:ub="http://uniboard.mnemis.com/document" xmlns:xhtml="http://www.w3.org/1999/xhtml" version="1.1" ub:version="4.8.0" ub:uuid="8150039c-fe26-4fb4-9d56-7a547a499009" viewBox="-721 -1074 1443 1993" ub:nominal-size="1343x1738" ub:dark-background="false" ub:crossed-background="true" ub:ruled-background="false" ub:grid-size="55" ub:intermediate-lines="0" pageDpi="158">
    <rect fill="white" x="-721" y="-1074" width="1443" height="1993"/>
    <image xlink:href="images/{bed5618e-ecd7-43f5-ac2e-e18d3ff97e88}.png" x="0" y="0" width="739" height="300" transform="matrix(1, 0, 0, 1, -71.5974, -859.484)" ub:z-value="-999999.000000" ub:background="false" ub:uuid="bed5618e-ecd7-43f5-ac2e-e18d3ff97e88" ub:source="/Users/khale/AppData/Local/OpenBoard/document/OpenBoard Document 2023-04-15 15-00-25.728/images/{bed5618e-ecd7-43f5-ac2e-e18d3ff97e88}.png" ub:layer="-1000"/>
    <g ub:z-value="-999998" ub:fill-on-dark-background="#ffffff" ub:fill-on-light-background="#000000" ub:uuid="50c6abf3-de37-45ce-bae8-6b869ba872fb" ub:layer="-1000">
        <polygon points="-302.93,-750.822 -304.305,-753.494 -304.585,-753.939 -304.88,-754.352 -305.177,-754.706 -305.265,-754.799 -305.328,-754.856 -305.384,-754.891 -305.466,-754.928 -305.585,-754.965 -305.743,-754.995 -305.944,-755.014 -306.185,-755.017 -306.467,-755.001 -306.76,-754.966 -307.545,-754.814 -308.31,-754.623 -309.041,-754.4 -309.735,-754.148 -310.384,-753.87 -311.392,-753.364 -312.881,-752.552 -314.501,-751.607 -315.249,-751.104 -315.965,-750.51 -316.662,-749.813 -317.338,-749.011 -317.996,-748.095 -319.011,-746.535 -320.376,-744.317 -322.087,-741.343 -323.801,-738.152 -325.159,-735.457 -325.754,-734.133 -326.287,-732.802 -326.752,-731.473 -327.15,-730.146 -327.481,-728.822 -327.746,-727.499 -327.944,-726.179 -328.076,-724.859 -328.142,-723.54 -328.142,-722.226 -328.076,-720.945 -327.945,-719.702 -327.749,-718.495 -327.489,-717.322 -327.165,-716.18 -326.804,-715.096 -326.412,-714.084 -325.991,-713.146 -325.543,-712.28 -325.067,-711.487 -324.566,-710.766 -324.039,-710.116 -323.488,-709.534 -322.911,-709.018 -322.293,-708.551 -321.628,-708.108 -320.927,-707.694 -320.191,-707.31 -319.424,-706.958 -318.626,-706.646 -318.289,-706.542 -317.927,-706.452 -317.569,-706.383 -317.212,-706.337 -316.857,-706.312 -316.502,-706.309 -316.148,-706.326 -315.822,-706.361 -315.03,-706.512 -314.267,-706.703 -313.536,-706.926 -312.842,-707.178 -312.183,-707.46 -311.555,-707.772 -310.562,-708.331 -309.929,-708.726 -308.931,-709.413 -308.316,-709.879 -307.773,-710.361 -307.301,-710.863 -306.893,-711.387 -306.547,-711.936 -306.259,-712.511 -306.028,-713.118 -305.853,-713.759 -305.735,-714.437 -305.677,-715.107 -305.733,-717.224 -306.087,-720.102 -306.269,-720.975 -306.513,-721.799 -306.812,-722.548 -307.182,-723.254 -307.342,-723.509 -307.805,-724.131 -308.318,-724.704 -308.9,-725.255 -309.532,-725.768 -310.661,-726.526 -311.85,-727.168 -313.046,-727.669 -313.761,-727.899 -315.377,-728.24 -317.419,-728.465 -319.451,-728.485 -321.497,-728.3 -323.107,-728.008 -324.164,-727.713 -324.741,-727.496 -325.26,-727.251 -325.758,-726.954 -325.758,-726.954 -326.071,-726.819 -326.42,-726.772 -327.338,-727.152 -327.717,-728.069 -327.083,-729.184 -327.083,-729.184 -326.474,-729.544 -325.748,-729.887 -324.941,-730.188 -323.664,-730.542 -321.832,-730.873 -319.555,-731.077 -317.264,-731.054 -314.981,-730.803 -313.139,-730.418 -312.125,-730.094 -310.727,-729.506 -309.321,-728.747 -308.013,-727.871 -307.192,-727.208 -306.459,-726.513 -305.797,-725.773 -305.221,-725.003 -304.915,-724.514 -304.454,-723.629 -304.062,-722.648 -303.752,-721.604 -303.519,-720.472 -303.147,-717.435 -303.082,-715.099 -303.162,-714.109 -303.321,-713.196 -303.561,-712.315 -303.884,-711.469 -304.287,-710.661 -304.771,-709.895 -305.332,-709.174 -305.966,-708.5 -306.669,-707.875 -307.42,-707.304 -308.497,-706.564 -309.248,-706.094 -310.33,-705.486 -311.095,-705.106 -311.888,-704.766 -312.716,-704.465 -313.576,-704.203 -314.473,-703.979 -315.402,-703.801 -315.941,-703.741 -316.451,-703.715 -316.961,-703.72 -317.47,-703.756 -317.978,-703.822 -318.485,-703.918 -318.988,-704.044 -319.515,-704.208 -320.438,-704.57 -321.331,-704.98 -322.186,-705.426 -323.007,-705.911 -323.795,-706.436 -324.56,-707.016 -325.297,-707.675 -325.991,-708.408 -326.641,-709.21 -327.246,-710.08 -327.808,-711.017 -328.328,-712.019 -328.807,-713.086 -329.245,-714.219 -329.645,-715.418 -330.004,-716.688 -330.297,-718.006 -330.516,-719.359 -330.662,-720.744 -330.735,-722.16 -330.735,-723.605 -330.662,-725.053 -330.518,-726.5 -330.301,-727.947 -330.012,-729.391 -329.651,-730.834 -329.219,-732.274 -328.716,-733.712 -328.142,-735.148 -327.492,-736.591 -326.1,-739.352 -324.355,-742.603 -322.608,-745.639 -321.206,-747.917 -320.145,-749.548 -319.385,-750.604 -318.574,-751.566 -317.714,-752.425 -316.805,-753.179 -315.858,-753.818 -314.157,-754.81 -312.603,-755.658 -311.492,-756.216 -310.689,-756.56 -309.861,-756.861 -309.001,-757.123 -308.106,-757.347 -307.196,-757.523 -306.702,-757.584 -306.249,-757.611 -305.807,-757.605 -305.376,-757.563 -304.956,-757.482 -304.546,-757.354 -304.154,-757.175 -303.786,-756.942 -303.477,-756.678 -303.219,-756.408 -302.824,-755.933 -302.427,-755.378 -302.016,-754.715 -300.623,-752.009 -300.623,-752.009 -300.517,-751.726 -300.48,-751.416 -300.86,-750.498 -301.777,-750.118 -302.93,-750.822 -302.93,-750.822 " transform="matrix(1, 0, 0, 1, 0, 0)" fill="#000000" fill-opacity="1.00" fill-rule="winding" ub:uuid="70356f7b-dd49-4abd-9f94-b6097ea96e3e" ub:parent="50c6abf3-de37-45ce-bae8-6b869ba872fb"/>
    </g>
    <g ub:z-value="-999997" ub:fill-on-dark-background="#ffffff" ub:fill-on-light-background="#000000" ub:uuid="4c821283-6c43-4abd-bfa3-caf8d60766fb" ub:layer="-1000">
        <polygon points="-298.31,-792.488 -300.359,-792.476 -301.019,-792.391 -301.895,-792.203 -302.919,-791.915 -304.792,-791.27 -308.238,-789.977 -312.363,-788.426 -314.199,-787.666 -315.272,-787.17 -316.244,-786.676 -317.101,-786.191 -318.466,-785.327 -320.676,-783.797 -323.943,-781.371 -327.301,-778.789 -328.625,-777.725 -329.535,-776.913 -331.145,-775.328 -332.991,-773.355 -335.566,-770.408 -337.139,-768.466 -338.402,-766.762 -339.437,-765.221 -341.162,-762.633 -342.862,-760.041 -343.46,-759.022 -344.333,-757.365 -344.858,-756.248 -346.154,-753.238 -347.705,-749.619 -349.513,-745.191 -350.528,-742.503 -350.959,-741.211 -351.324,-739.948 -351.622,-738.725 -351.85,-737.55 -352.201,-735.147 -352.719,-731.525 -353.021,-729.143 -353.159,-727.39 -353.222,-725.624 -353.214,-724.471 -353.116,-723.169 -352.92,-721.692 -352.425,-719.092 -351.715,-716.144 -350.791,-712.756 -350.197,-710.874 -349.866,-709.975 -349.48,-709.14 -348.917,-708.144 -348.181,-706.999 -346.723,-704.97 -344.464,-702.099 -343.028,-700.384 -341.832,-699.061 -341.178,-698.415 -340.386,-697.75 -339.409,-697.034 -338.259,-696.278 -336.163,-695.046 -333.993,-693.891 -332.056,-692.967 -330.926,-692.492 -329.901,-692.118 -328.836,-691.795 -326.788,-691.289 -324.265,-690.779 -321.32,-690.28 -319.511,-690.045 -317.918,-689.912 -316.554,-689.88 -315.423,-689.942 -314.427,-690.097 -312.455,-690.479 -307.916,-691.468 -302.837,-692.681 -299.831,-693.501 -298.737,-693.844 -297.69,-694.23 -295.736,-695.087 -293.382,-696.258 -290.675,-697.718 -288.25,-699.122 -286.297,-700.365 -285.286,-701.082 -284.438,-701.757 -282.922,-703.083 -280.388,-705.48 -278.175,-707.689 -276.866,-709.099 -275.768,-710.396 -274.886,-711.572 -274.218,-712.621 -273.709,-713.614 -272.819,-715.522 -270.97,-719.779 -269.034,-724.503 -267.94,-727.374 -267.384,-728.997 -266.7,-731.15 -265.843,-734.045 -265.548,-735.189 -265.32,-736.33 -265.157,-737.468 -265.06,-738.606 -265.027,-739.753 -265.027,-742.877 -265.027,-747.586 -265.095,-755.076 -265.535,-759.169 -266.378,-763.249 -269.975,-774.574 -270.965,-776.93 -271.605,-778.177 -272.158,-779.083 -276.621,-784.086 -278.877,-786.231 -279.857,-787.019 -280.795,-787.665 -281.187,-787.896 -281.578,-788.098 -281.918,-788.25 -282.754,-788.545 -284.292,-788.944 -287.655,-789.47 -290.705,-789.669 -294.771,-789.543 -298.068,-789.142 -301.24,-788.474 -304.269,-787.539 -306.297,-786.678 -307.487,-786.041 -308.593,-785.337 -309.638,-784.539 -309.638,-784.539 -310.424,-784.274 -311.341,-784.654 -311.721,-785.571 -311.21,-786.603 -311.21,-786.602 -310.076,-787.465 -308.794,-788.282 -307.391,-789.029 -305.138,-789.984 -301.889,-790.986 -298.49,-791.701 -294.956,-792.13 -290.678,-792.263 -287.364,-792.048 -283.81,-791.493 -282.027,-791.036 -280.995,-790.674 -280.454,-790.436 -279.927,-790.163 -279.369,-789.832 -278.3,-789.094 -277.136,-788.153 -274.731,-785.863 -270.176,-780.757 -269.345,-779.45 -268.601,-777.999 -267.516,-775.4 -263.885,-763.966 -262.972,-759.572 -262.504,-755.191 -262.433,-747.601 -262.433,-742.877 -262.433,-739.732 -262.47,-738.458 -262.58,-737.174 -262.763,-735.891 -263.019,-734.611 -263.348,-733.334 -264.219,-730.392 -264.919,-728.187 -265.505,-726.481 -266.624,-723.542 -268.579,-718.771 -270.448,-714.468 -271.374,-712.485 -271.972,-711.324 -272.757,-710.091 -273.742,-708.776 -274.927,-707.376 -276.316,-705.88 -278.582,-703.618 -281.167,-701.173 -282.763,-699.776 -283.731,-699.006 -284.865,-698.202 -286.907,-696.902 -289.411,-695.453 -292.186,-693.956 -294.631,-692.74 -296.698,-691.833 -297.899,-691.389 -299.122,-691.006 -302.204,-690.165 -307.337,-688.94 -311.92,-687.941 -313.969,-687.544 -315.161,-687.362 -316.52,-687.286 -318.062,-687.322 -319.789,-687.466 -321.715,-687.716 -324.736,-688.228 -327.35,-688.756 -329.504,-689.288 -330.722,-689.657 -331.876,-690.078 -333.132,-690.606 -335.165,-691.576 -337.43,-692.782 -339.615,-694.066 -340.886,-694.901 -341.984,-695.706 -342.921,-696.494 -343.72,-697.283 -344.988,-698.685 -346.484,-700.471 -348.79,-703.402 -350.315,-705.524 -351.136,-706.8 -351.784,-707.948 -352.262,-708.982 -352.658,-710.054 -353.283,-712.037 -354.227,-715.497 -354.96,-718.542 -355.477,-721.259 -355.696,-722.896 -355.806,-724.36 -355.815,-725.672 -355.749,-727.538 -355.601,-729.416 -355.289,-731.876 -354.769,-735.517 -354.411,-737.966 -354.156,-739.281 -353.831,-740.617 -353.435,-741.983 -352.966,-743.389 -351.924,-746.148 -350.099,-750.618 -348.538,-754.262 -347.231,-757.296 -346.65,-758.532 -345.733,-760.273 -345.051,-761.433 -343.326,-764.064 -341.593,-766.663 -340.518,-768.261 -339.187,-770.059 -337.544,-772.086 -334.921,-775.089 -333.006,-777.136 -331.322,-778.794 -330.294,-779.711 -328.895,-780.835 -325.508,-783.441 -322.195,-785.9 -319.909,-787.483 -318.446,-788.409 -317.469,-788.962 -316.402,-789.505 -315.227,-790.047 -313.301,-790.844 -309.15,-792.405 -305.679,-793.707 -303.713,-794.385 -302.524,-794.719 -301.462,-794.947 -300.462,-795.068 -298.326,-795.082 -298.326,-795.082 -298.318,-795.082 -297.401,-794.702 -297.021,-793.785 -297.398,-792.871 -298.31,-792.488 -298.31,-792.488 " transform="matrix(1, 0, 0, 1, 0, 0)" fill="#000000" fill-opacity="1.00" fill-rule="winding" ub:uuid="a8830e94-2953-4e1b-9fc1-e5dc382bae99" ub:parent="4c821283-6c43-4abd-bfa3-caf8d60766fb"/>
    </g>
    <g ub:z-value="-999996" ub:fill-on-dark-background="#ffffff" ub:fill-on-light-background="#000000" ub:uuid="91ae7c0e-2541-4619-9c27-15c5c8bb21c6" ub:layer="-1000">
        <polygon points="598.798,-539.561 598.794,-540.573 598.77,-540.821 598.715,-541.15 598.627,-541.528 598.502,-541.967 598.44,-542.159 598.405,-542.256 598.493,-542.126 598.625,-541.983 598.625,-541.983 598.106,-543.021 598.486,-543.938 599.403,-544.318 600.181,-544.059 600.181,-544.059 600.486,-543.786 600.747,-543.371 600.885,-543.026 600.988,-542.709 601.138,-542.179 601.259,-541.658 601.342,-541.157 601.387,-540.644 601.392,-539.572 601.392,-539.572 601.392,-539.567 601.012,-538.649 600.095,-538.269 599.179,-538.648 598.798,-539.561 598.798,-539.561 " transform="matrix(1, 0, 0, 1, 0, 0)" fill="#000000" fill-opacity="1.00" fill-rule="winding" ub:uuid="a70d04d4-af22-4bd1-9fe2-3b5e3ccba02c" ub:parent="91ae7c0e-2541-4619-9c27-15c5c8bb21c6"/>
        <polygon points="599.595,-541.738 599.509,-541.725 599.51,-541.725 599.317,-541.711 598.399,-542.091 598.02,-543.008 598.337,-543.859 599.124,-544.291 599.124,-544.291 599.211,-544.304 599.21,-544.304 599.403,-544.318 600.32,-543.938 600.7,-543.021 600.382,-542.17 599.596,-541.738 599.595,-541.738 " transform="matrix(1, 0, 0, 1, 0, 0)" fill="#000000" fill-opacity="1.00" fill-rule="winding" ub:uuid="859b69e1-c5b5-4e59-8de7-1b8825b7329f" ub:parent="91ae7c0e-2541-4619-9c27-15c5c8bb21c6"/>
        <polygon points="600.256,-542.113 600.309,-542.198 600.341,-542.25 600.31,-542.168 600.157,-541.529 599.551,-538.241 598.985,-535.642 598.898,-534.992 598.834,-534.257 598.802,-533.492 598.798,-531.351 598.798,-528.771 598.835,-527.568 598.898,-526.847 598.993,-526.152 599.138,-525.377 599.638,-520.953 599.612,-520.429 599.555,-520.125 599.417,-519.747 599.23,-519.465 599.23,-519.465 598.21,-518.97 597.293,-519.349 596.913,-520.267 597.19,-521.068 597.19,-521.068 597.097,-520.907 597.038,-520.754 597.041,-520.779 597.058,-520.687 596.564,-525.057 596.432,-525.735 596.32,-526.561 596.244,-527.432 596.204,-528.745 596.204,-531.353 596.208,-533.526 596.245,-534.422 596.32,-535.278 596.441,-536.15 597.007,-538.748 597.611,-542.023 597.804,-542.836 597.946,-543.247 598.151,-543.637 598.377,-543.902 598.377,-543.902 599.317,-544.305 600.234,-543.925 600.614,-543.008 600.256,-542.113 600.256,-542.113 " transform="matrix(1, 0, 0, 1, 0, 0)" fill="#000000" fill-opacity="1.00" fill-rule="winding" ub:uuid="58544314-5145-42ed-be85-e58a86d8b12b" ub:parent="91ae7c0e-2541-4619-9c27-15c5c8bb21c6"/>
        <polygon points="598.407,-518.985 598.351,-518.976 598.351,-518.976 598.154,-518.961 597.236,-519.341 596.857,-520.258 597.173,-521.107 597.956,-521.54 597.956,-521.54 598.013,-521.549 598.012,-521.549 598.21,-521.564 599.127,-521.184 599.507,-520.267 599.191,-519.418 598.408,-518.985 598.407,-518.985 " transform="matrix(1, 0, 0, 1, 0, 0)" fill="#000000" fill-opacity="1.00" fill-rule="winding" ub:uuid="3ab567a2-cc7a-4609-9ea8-3821dc101a37" ub:parent="91ae7c0e-2541-4619-9c27-15c5c8bb21c6"/>
        <polygon points="597.434,-519.179 597.172,-519.384 596.934,-519.68 596.226,-520.767 595.944,-521.093 595.276,-521.798 595.088,-521.973 594.889,-522.134 594.69,-522.272 594.49,-522.389 594.288,-522.486 594.081,-522.564 593.869,-522.625 593.649,-522.669 593.47,-522.693 592.479,-522.705 590.763,-522.705 589.064,-522.688 588.464,-522.642 587.836,-522.564 587.206,-522.454 586.574,-522.311 585.941,-522.137 585.305,-521.93 584.666,-521.691 584.036,-521.423 583.047,-520.944 582.117,-520.447 581.264,-519.953 580.485,-519.458 580.304,-519.328 580.132,-519.189 579.683,-518.757 579.251,-518.254 578.523,-517.223 578.071,-516.465 577.703,-515.73 577.427,-515.021 577.342,-514.737 577.27,-514.437 577.219,-514.151 577.19,-513.881 577.18,-513.653 577.209,-513.063 577.294,-512.497 577.437,-511.923 577.641,-511.341 577.917,-510.729 578.051,-510.484 578.216,-510.225 578.405,-509.968 578.617,-509.714 578.854,-509.463 579.092,-509.237 579.676,-508.76 581.631,-507.57 582.919,-506.927 583.657,-506.637 584.058,-506.527 584.962,-506.38 587.124,-506.276 589.403,-506.38 590.508,-506.535 591.176,-506.679 591.175,-506.68 591.448,-506.708 592.365,-506.328 592.745,-505.411 592.452,-504.59 591.72,-504.143 591.72,-504.143 590.935,-503.976 589.602,-503.794 587.124,-503.682 584.747,-503.794 583.55,-503.984 582.81,-504.185 581.836,-504.57 580.356,-505.311 578.248,-506.594 577.414,-507.258 577.02,-507.629 576.678,-507.991 576.363,-508.368 576.075,-508.76 575.817,-509.167 575.579,-509.605 575.233,-510.377 574.952,-511.178 574.75,-511.988 574.627,-512.805 574.587,-513.599 574.603,-514.071 574.651,-514.518 574.731,-514.968 574.84,-515.42 574.988,-515.905 575.335,-516.788 575.797,-517.713 576.357,-518.65 577.185,-519.823 577.791,-520.531 578.379,-521.102 578.726,-521.387 579.064,-521.629 579.919,-522.171 580.857,-522.715 581.871,-523.256 582.95,-523.779 583.703,-524.1 584.448,-524.379 585.195,-524.622 585.945,-524.828 586.697,-524.997 587.451,-525.129 588.206,-525.224 588.99,-525.281 590.75,-525.299 592.492,-525.299 593.568,-525.285 594.054,-525.231 594.483,-525.146 594.902,-525.025 595.309,-524.87 595.704,-524.681 596.083,-524.461 596.446,-524.21 596.792,-523.93 597.131,-523.612 597.864,-522.838 598.343,-522.266 599.097,-521.112 599.006,-521.218 598.873,-521.337 598.873,-521.337 599.451,-520.258 599.071,-519.341 598.154,-518.961 597.771,-519.018 597.434,-519.179 597.434,-519.179 " transform="matrix(1, 0, 0, 1, 0, 0)" fill="#000000" fill-opacity="1.00" fill-rule="winding" ub:uuid="e035c744-a0c0-4fc5-a944-bca5e43474f3" ub:parent="91ae7c0e-2541-4619-9c27-15c5c8bb21c6"/>
    </g>
    <g ub:z-value="-999995" ub:fill-on-dark-background="#ffffff" ub:fill-on-light-background="#000000" ub:uuid="a7954b77-0d98-4293-aa15-9e02bd9f3b7a" ub:layer="-1000">
        <polygon points="589.726,-558.157 588.2,-558.15 587.779,-558.097 587.223,-557.98 586.575,-557.795 585.842,-557.54 585.046,-557.221 584.275,-556.867 583.539,-556.483 582.838,-556.069 582.171,-555.625 581.536,-555.147 580.902,-554.608 580.259,-553.998 579.61,-553.316 578.959,-552.567 577.164,-550.349 574.305,-546.878 573.108,-545.303 572.369,-544.235 571.297,-542.533 569.93,-540.114 568.561,-537.547 567.201,-534.849 566.606,-533.525 566.073,-532.194 565.608,-530.865 565.211,-529.54 564.888,-528.23 564.662,-526.906 564.532,-525.547 564.5,-524.151 564.565,-522.713 564.722,-521.238 565.039,-519.084 565.431,-517.088 565.728,-515.869 566.061,-514.707 566.443,-513.589 567.443,-511.253 568.711,-508.927 569.405,-507.889 570.179,-506.89 571.015,-505.957 571.89,-505.111 578.091,-499.944 579.051,-499.265 580.065,-498.663 581.107,-498.158 582.204,-497.739 582.752,-497.571 582.752,-497.571 583.666,-496.332 583.286,-495.415 582.369,-495.035 581.985,-495.093 581.985,-495.093 581.331,-495.297 580.077,-495.777 578.835,-496.379 577.636,-497.091 576.452,-497.934 570.209,-503.135 569.148,-504.156 568.186,-505.229 567.299,-506.375 566.471,-507.619 565.11,-510.118 564.035,-512.625 563.587,-513.928 563.22,-515.205 562.894,-516.545 562.482,-518.648 562.15,-520.903 561.979,-522.516 561.906,-524.121 561.943,-525.7 562.09,-527.246 562.348,-528.758 562.708,-530.224 563.141,-531.666 563.644,-533.104 564.218,-534.54 564.868,-535.983 566.258,-538.741 567.656,-541.362 569.065,-543.855 570.198,-545.655 571.015,-546.835 572.283,-548.503 575.156,-551.992 576.958,-554.218 577.691,-555.061 578.425,-555.832 579.166,-556.536 579.915,-557.172 580.672,-557.742 581.458,-558.266 582.279,-558.751 583.134,-559.197 584.023,-559.604 584.931,-559.968 585.789,-560.267 586.594,-560.497 587.352,-560.656 588.107,-560.742 589.711,-560.751 589.711,-560.751 589.719,-560.751 590.636,-560.372 591.016,-559.454 590.638,-558.54 589.726,-558.157 589.726,-558.157 " transform="matrix(1, 0, 0, 1, 0, 0)" fill="#000000" fill-opacity="1.00" fill-rule="winding" ub:uuid="23d988a6-2267-45fe-b0ed-3367757b7023" ub:parent="a7954b77-0d98-4293-aa15-9e02bd9f3b7a"/>
    </g>
    <g ub:z-value="-999994" ub:fill-on-dark-background="#66c0ff" ub:fill-on-light-background="#004080" ub:uuid="4f5888e2-55a2-4c88-a8c9-508a2f0713ee" ub:layer="-1000">
        <polygon points="-318.119,-694.311 -318.82,-695.013 -317.621,-693.98 -316.963,-693.508 -316.527,-693.234 -316.632,-693.285 -318.412,-694.283 -321.02,-696.089 -323.108,-697.877 -324.966,-699.789 -326.432,-701.57 -327.524,-703.04 -328.585,-704.525 -329.579,-705.991 -330.822,-708.104 -331.902,-710.383 -332.723,-712.565 -333.34,-714.651 -333.798,-716.641 -334.092,-718.245 -334.094,-718.235 -334.423,-721.938 -334.002,-726.121 -332.792,-730.016 -330.879,-733.541 -328.345,-736.613 -325.274,-739.147 -321.748,-741.06 -317.853,-742.269 -313.671,-742.691 -309.936,-742.356 -306.422,-741.39 -303.186,-739.852 -300.288,-737.8 -297.786,-735.295 -295.739,-732.394 -294.207,-729.157 -293.248,-725.642 -293.249,-725.631 -293.102,-724.797 -293.179,-725.127 -293.347,-725.691 -293.649,-726.489 -294.141,-727.524 -294.727,-728.53 -294.606,-728.361 -293.937,-727.425 -293.55,-726.897 -293.945,-727.364 -294.661,-728.101 -295.538,-728.851 -296.867,-729.758 -296.623,-729.649 -295.483,-729.008 -293.94,-728.042 -292.314,-726.878 -290.285,-725.153 -288.893,-723.781 -288.893,-723.781 -286.334,-720.702 -284.402,-717.164 -283.18,-713.25 -282.754,-709.046 -283.175,-704.863 -284.384,-700.968 -286.298,-697.443 -288.832,-694.371 -291.903,-691.837 -295.428,-689.924 -299.324,-688.715 -303.506,-688.293 -307.667,-688.71 -311.544,-689.907 -315.055,-691.801 -318.119,-694.311 -318.119,-694.311 " transform="matrix(1, 0, 0, 1, 0, 0)" fill="#004080" fill-opacity="0.50" stroke="#004080" stroke-width="1" stroke-opacity="0.10" fill-rule="winding" ub:uuid="3e214c7c-0e7c-42bb-8576-5427538914eb" ub:parent="4f5888e2-55a2-4c88-a8c9-508a2f0713ee"/>
        <polygon points="-334.239,-719.179 -334.429,-720.623 -334.582,-722.406 -334.634,-723.978 -334.635,-725.423 -334.634,-728.267 -334.573,-730.496 -334.4,-732.63 -334.097,-734.731 -333.682,-736.652 -332.987,-738.96 -332.255,-740.814 -331.307,-742.777 -330.328,-744.494 -329.332,-746.031 -328.272,-747.506 -327.058,-749.028 -325.701,-750.55 -324.258,-751.993 -323.182,-752.964 -323.182,-752.964 -320.222,-755.169 -316.889,-756.825 -313.249,-757.867 -309.369,-758.229 -305.186,-757.808 -301.291,-756.598 -297.766,-754.685 -294.694,-752.151 -292.16,-749.08 -290.247,-745.555 -289.038,-741.659 -288.616,-737.477 -289.102,-732.994 -290.489,-728.849 -291.874,-726.504 -292.314,-726.878 -293.131,-727.463 -293.131,-727.871 -293.114,-728.522 -293.149,-728.047 -293.225,-727.53 -293.894,-728.009 -294.207,-729.157 -295.739,-732.394 -297.786,-735.295 -300.288,-737.8 -303.186,-739.852 -306.422,-741.39 -309.936,-742.356 -313.671,-742.691 -317.853,-742.269 -321.748,-741.06 -325.274,-739.147 -328.345,-736.613 -330.879,-733.541 -332.792,-730.016 -334.002,-726.121 -334.423,-721.938 -334.136,-718.714 -334.24,-719.17 -334.239,-719.179 -293.54,-726.2 -293.466,-726.444 -293.609,-726.967 -293.945,-727.364 -294.202,-727.628 -294.141,-727.524 -293.649,-726.489 -293.54,-726.2 -334.239,-719.179 -293.13,-724.957 -293.13,-724.918 -293.102,-724.797 -293.13,-724.957 -334.239,-719.179 -293.171,-725.092 -293.189,-725.291 -293.169,-725.176 -293.137,-724.946 -293.171,-725.092 -334.239,-719.179 -293.894,-728.009 -293.614,-726.984 -293.937,-727.425 -294.606,-728.361 -294.727,-728.53 -294.202,-727.628 -294.661,-728.101 -295.538,-728.851 -296.867,-729.758 -296.623,-729.649 -295.483,-729.008 -293.94,-728.042 -293.894,-728.009 -334.239,-719.179 -293.614,-726.984 -293.609,-726.967 -293.55,-726.897 -293.614,-726.984 -334.239,-719.179 " transform="matrix(1, 0, 0, 1, 0, 0)" fill="#004080" fill-opacity="0.50" stroke="#004080" stroke-width="1" stroke-opacity="0.10" fill-rule="winding" ub:uuid="3b530190-821a-47c0-b04d-a53dbcc0c0fc" ub:parent="4f5888e2-55a2-4c88-a8c9-508a2f0713ee"/>
        <polygon points="-322.282,-753.722 -321.214,-754.564 -319.738,-755.624 -318.201,-756.62 -316.485,-757.599 -314.522,-758.547 -312.547,-759.321 -309.975,-760.059 -307.706,-760.456 -305.479,-760.628 -303.342,-760.597 -301.328,-760.394 -299.454,-760.052 -297.726,-759.604 -296.142,-759.077 -294.251,-758.296 -292.503,-757.427 -290.687,-756.377 -288.958,-755.224 -287.826,-754.372 -287.825,-754.373 -284.463,-751.142 -281.895,-747.228 -280.256,-742.765 -279.68,-737.887 -280.101,-733.705 -281.31,-729.81 -283.224,-726.285 -285.758,-723.213 -287.338,-721.91 -288.893,-723.781 -288.893,-723.781 -290.285,-725.153 -291.874,-726.504 -290.489,-728.849 -289.102,-732.994 -288.616,-737.477 -289.038,-741.659 -290.247,-745.555 -292.16,-749.08 -294.694,-752.151 -297.766,-754.685 -301.291,-756.598 -305.186,-757.808 -309.369,-758.229 -313.249,-757.867 -316.889,-756.825 -320.222,-755.169 -322.639,-753.368 -322.283,-753.723 -322.282,-753.722 -293.131,-727.463 -293.225,-727.53 -293.149,-728.047 -293.114,-728.522 -293.131,-727.871 -293.131,-727.463 -322.282,-753.722 -293.466,-726.444 -293.248,-725.642 -293.249,-725.631 -293.189,-725.291 -293.171,-725.092 -293.179,-725.127 -293.347,-725.691 -293.54,-726.2 -293.466,-726.444 -322.282,-753.722 -293.169,-725.176 -293.13,-724.957 -293.13,-724.918 -293.137,-724.946 -293.169,-725.176 -322.282,-753.722 " transform="matrix(1, 0, 0, 1, 0, 0)" fill="#004080" fill-opacity="0.50" stroke="#004080" stroke-width="1" stroke-opacity="0.10" fill-rule="winding" ub:uuid="190e6b18-01bf-47da-997f-7bdea7137345" ub:parent="4f5888e2-55a2-4c88-a8c9-508a2f0713ee"/>
        <polygon points="-286.767,-753.505 -285.671,-752.53 -284.284,-751.141 -283.024,-749.698 -282.131,-748.537 -281.293,-747.315 -280.516,-746.039 -279.808,-744.717 -279.175,-743.357 -278.62,-741.97 -277.954,-739.903 -277.467,-737.952 -276.988,-735.654 -276.544,-733.171 -276.248,-731.006 -276.076,-728.659 -276.079,-726.133 -276.257,-723.909 -276.649,-721.492 -276.936,-720.272 -276.932,-720.267 -278.027,-716.966 -279.634,-713.937 -281.7,-711.232 -282.864,-710.136 -283.18,-713.25 -284.402,-717.164 -286.334,-720.702 -287.338,-721.91 -285.758,-723.213 -283.224,-726.285 -281.31,-729.81 -280.101,-733.705 -279.68,-737.887 -280.256,-742.765 -281.895,-747.228 -284.463,-751.142 -287.421,-753.985 -286.766,-753.506 -286.767,-753.505 " transform="matrix(1, 0, 0, 1, 0, 0)" fill="#004080" fill-opacity="0.50" stroke="#004080" stroke-width="1" stroke-opacity="0.10" fill-rule="winding" ub:uuid="554c4e1d-b606-48d5-843c-27a0b4947325" ub:parent="4f5888e2-55a2-4c88-a8c9-508a2f0713ee"/>
        <polygon points="-277.234,-719.166 -277.583,-718.023 -278.13,-716.459 -278.826,-714.736 -279.701,-712.846 -280.68,-711.011 -281.762,-709.233 -282.903,-707.563 -282.754,-709.046 -282.864,-710.136 -281.7,-711.232 -279.634,-713.937 -278.027,-716.966 -277.091,-719.789 -277.23,-719.161 -277.234,-719.166 -316.387,-692.891 -317.914,-693.365 -321.439,-695.279 -324.51,-697.813 -327.044,-700.884 -328.957,-704.409 -329.338,-705.636 -328.585,-704.525 -327.524,-703.04 -326.432,-701.57 -324.966,-699.789 -323.108,-697.877 -321.02,-696.089 -318.412,-694.283 -317.377,-693.702 -316.387,-692.891 -277.234,-719.166 -318.119,-694.311 -318.82,-695.013 -317.621,-693.98 -316.963,-693.508 -316.527,-693.234 -316.632,-693.285 -317.377,-693.702 -318.119,-694.311 -318.119,-694.311 -277.234,-719.166 " transform="matrix(1, 0, 0, 1, 0, 0)" fill="#004080" fill-opacity="0.50" stroke="#004080" stroke-width="1" stroke-opacity="0.10" fill-rule="winding" ub:uuid="0d40bb12-f853-4516-9207-13a2338c260e" ub:parent="4f5888e2-55a2-4c88-a8c9-508a2f0713ee"/>
        <polygon points="-313.448,-690.934 -314.475,-690.893 -316.819,-690.887 -319.21,-690.888 -321.481,-691.008 -323.832,-691.359 -326.071,-691.918 -328.161,-692.648 -330.081,-693.51 -331.823,-694.467 -333.393,-695.486 -334.802,-696.542 -336.407,-697.929 -337.869,-699.377 -338.914,-700.524 -338.915,-700.524 -341.144,-703.494 -342.82,-706.842 -343.875,-710.503 -344.242,-714.407 -343.82,-718.589 -342.611,-722.485 -340.697,-726.01 -338.163,-729.081 -335.092,-731.615 -334.454,-731.961 -334.573,-730.496 -334.634,-728.267 -334.635,-725.423 -334.634,-723.978 -334.582,-722.406 -334.429,-720.623 -334.239,-719.179 -334.24,-719.17 -334.136,-718.714 -334.094,-718.235 -334.092,-718.245 -333.798,-716.641 -333.34,-714.651 -332.723,-712.565 -331.902,-710.383 -330.822,-708.104 -329.579,-705.991 -329.338,-705.636 -328.957,-704.409 -327.044,-700.884 -324.51,-697.813 -321.439,-695.279 -317.914,-693.365 -316.387,-692.891 -315.055,-691.801 -313.448,-690.934 " transform="matrix(1, 0, 0, 1, 0, 0)" fill="#004080" fill-opacity="0.50" stroke="#004080" stroke-width="1" stroke-opacity="0.10" fill-rule="winding" ub:uuid="cb09947d-04a6-4ef5-ae95-2fc747b99b1d" ub:parent="4f5888e2-55a2-4c88-a8c9-508a2f0713ee"/>
        <polygon points="-339.694,-701.443 -340.645,-702.647 -341.927,-704.48 -343.139,-706.505 -344.299,-708.857 -345.297,-711.48 -346.03,-714.164 -346.496,-716.833 -346.712,-719.39 -346.728,-721.733 -346.621,-723.898 -346.412,-725.988 -346.072,-728.23 -345.65,-730.39 -345.091,-733.179 -344.565,-735.538 -343.973,-737.672 -343.31,-739.68 -342.608,-741.532 -342.043,-742.838 -342.047,-742.842 -338.918,-747.872 -334.524,-751.802 -329.137,-754.359 -326.157,-755.038 -323.031,-755.272 -320.573,-755.024 -321.214,-754.564 -322.282,-753.722 -322.283,-753.723 -322.639,-753.368 -323.182,-752.964 -323.182,-752.964 -324.258,-751.993 -325.701,-750.55 -327.058,-749.028 -328.272,-747.506 -329.332,-746.031 -330.328,-744.494 -331.307,-742.777 -332.255,-740.814 -332.987,-738.96 -333.682,-736.652 -334.097,-734.731 -334.4,-732.63 -334.454,-731.961 -335.092,-731.615 -338.163,-729.081 -340.697,-726.01 -342.611,-722.485 -343.82,-718.589 -344.242,-714.407 -343.875,-710.503 -342.82,-706.842 -341.144,-703.494 -339.329,-701.075 -339.695,-701.442 -339.694,-701.443 " transform="matrix(1, 0, 0, 1, 0, 0)" fill="#004080" fill-opacity="0.50" stroke="#004080" stroke-width="1" stroke-opacity="0.10" fill-rule="winding" ub:uuid="8fd1c028-5866-40a2-984b-f33a0c1664b5" ub:parent="4f5888e2-55a2-4c88-a8c9-508a2f0713ee"/>
        <polygon points="-341.422,-744.133 -340.651,-745.577 -339.328,-747.691 -337.753,-749.787 -336.145,-751.58 -334.772,-752.916 -333.333,-754.202 -331.73,-755.519 -330.086,-756.765 -328.501,-757.853 -326.881,-758.841 -325.05,-759.808 -323.36,-760.56 -321.551,-761.222 -319.796,-761.718 -318.02,-762.08 -315.818,-762.349 -313.558,-762.44 -311.105,-762.342 -309.502,-762.175 -309.5,-762.177 -305.726,-761.4 -303.778,-760.604 -305.479,-760.628 -307.706,-760.456 -309.975,-760.059 -312.547,-759.321 -314.522,-758.547 -316.485,-757.599 -318.201,-756.62 -319.738,-755.624 -320.573,-755.024 -323.031,-755.272 -326.157,-755.038 -329.137,-754.359 -334.524,-751.802 -338.918,-747.872 -341.714,-743.377 -341.425,-744.136 -341.422,-744.133 " transform="matrix(1, 0, 0, 1, 0, 0)" fill="#004080" fill-opacity="0.50" stroke="#004080" stroke-width="1" stroke-opacity="0.10" fill-rule="winding" ub:uuid="965b896a-6059-41f3-8c0a-a9963f76de87" ub:parent="4f5888e2-55a2-4c88-a8c9-508a2f0713ee"/>
        <polygon points="-308.354,-762.015 -306.551,-761.709 -304.517,-761.298 -302.621,-760.832 -300.958,-760.335 -300.914,-760.319 -301.328,-760.394 -303.342,-760.597 -303.778,-760.604 -305.726,-761.4 -308.98,-762.07 -308.35,-762.018 -308.354,-762.015 " transform="matrix(1, 0, 0, 1, 0, 0)" fill="#004080" fill-opacity="0.50" stroke="#004080" stroke-width="1" stroke-opacity="0.10" fill-rule="winding" ub:uuid="8efece8f-c11d-409a-ab76-de31e8af7186" ub:parent="4f5888e2-55a2-4c88-a8c9-508a2f0713ee"/>
        <polygon points="-344.186,-708.627 -344.585,-709.103 -345.69,-710.528 -346.783,-712.078 -347.849,-713.776 -348.814,-715.512 -349.678,-717.278 -350.49,-719.179 -351.244,-721.213 -351.864,-723.153 -352.416,-725.197 -352.861,-727.222 -353.153,-728.914 -353.154,-728.904 -353.446,-732.392 -353.025,-736.575 -351.815,-740.47 -349.902,-743.995 -347.368,-747.067 -344.297,-749.601 -340.772,-751.514 -336.876,-752.723 -334.748,-752.938 -334.772,-752.916 -336.145,-751.58 -337.753,-749.787 -339.328,-747.691 -340.651,-745.577 -341.422,-744.133 -341.425,-744.136 -341.714,-743.377 -342.047,-742.842 -342.043,-742.838 -342.608,-741.532 -343.31,-739.68 -343.973,-737.672 -344.565,-735.538 -345.091,-733.179 -345.65,-730.39 -346.072,-728.23 -346.412,-725.988 -346.621,-723.898 -346.728,-721.733 -346.712,-719.39 -346.496,-716.833 -346.03,-714.164 -345.297,-711.48 -344.299,-708.857 -344.186,-708.627 " transform="matrix(1, 0, 0, 1, 0, 0)" fill="#004080" fill-opacity="0.50" stroke="#004080" stroke-width="1" stroke-opacity="0.10" fill-rule="winding" ub:uuid="b81019f6-34c8-439a-aa83-d0db6758a43c" ub:parent="4f5888e2-55a2-4c88-a8c9-508a2f0713ee"/>
        <polygon points="-353.299,-729.92 -353.467,-731.397 -353.615,-733.518 -353.657,-735.626 -353.557,-737.938 -353.259,-740.427 -352.774,-742.856 -352.117,-745.202 -351.368,-747.3 -350.586,-749.2 -349.686,-751.226 -348.809,-753.041 -347.726,-755.002 -346.483,-756.918 -345.168,-758.673 -343.8,-760.283 -342.392,-761.766 -340.908,-763.175 -339.298,-764.542 -338.094,-765.458 -338.095,-765.459 -335.343,-767.207 -332.32,-768.511 -329.071,-769.327 -325.642,-769.609 -321.46,-769.187 -317.564,-767.978 -314.039,-766.064 -310.968,-763.53 -309.882,-762.215 -311.105,-762.342 -313.558,-762.44 -315.818,-762.349 -318.02,-762.08 -319.796,-761.718 -321.551,-761.222 -323.36,-760.56 -325.05,-759.808 -326.881,-758.841 -328.501,-757.853 -330.086,-756.765 -331.73,-755.519 -333.333,-754.202 -334.748,-752.938 -336.876,-752.723 -340.772,-751.514 -344.297,-749.601 -347.368,-747.067 -349.902,-743.995 -351.815,-740.47 -353.025,-736.575 -353.446,-732.392 -353.2,-729.445 -353.3,-729.911 -353.299,-729.92 " transform="matrix(1, 0, 0, 1, 0, 0)" fill="#004080" fill-opacity="0.50" stroke="#004080" stroke-width="1" stroke-opacity="0.10" fill-rule="winding" ub:uuid="61f47047-1ff0-4546-8827-7dc6bf74d6c9" ub:parent="4f5888e2-55a2-4c88-a8c9-508a2f0713ee"/>
        <polygon points="-336.952,-766.256 -335.628,-767.101 -333.54,-768.248 -331.274,-769.266 -328.838,-770.117 -326.253,-770.762 -323.557,-771.166 -321.206,-771.299 -319.723,-771.303 -317.659,-771.303 -315.487,-771.279 -313.319,-771.151 -311.207,-770.918 -309.332,-770.623 -307.601,-770.274 -305.795,-769.822 -303.969,-769.266 -302.141,-768.6 -300.319,-767.819 -299.072,-767.206 -299.068,-767.209 -294.407,-764.013 -290.784,-759.695 -288.667,-755.005 -288.958,-755.224 -290.687,-756.377 -292.503,-757.427 -294.251,-758.296 -296.142,-759.077 -297.726,-759.604 -299.454,-760.052 -300.914,-760.319 -300.958,-760.335 -302.621,-760.832 -304.517,-761.298 -306.551,-761.709 -308.354,-762.015 -308.35,-762.018 -308.98,-762.07 -309.5,-762.177 -309.502,-762.175 -309.882,-762.215 -310.968,-763.53 -314.039,-766.064 -317.564,-767.978 -321.46,-769.187 -325.642,-769.609 -329.071,-769.327 -332.32,-768.511 -335.343,-767.207 -337.316,-765.954 -336.954,-766.257 -336.952,-766.256 " transform="matrix(1, 0, 0, 1, 0, 0)" fill="#004080" fill-opacity="0.50" stroke="#004080" stroke-width="1" stroke-opacity="0.10" fill-rule="winding" ub:uuid="048ccc77-ad3a-4d3a-b1bf-a47b23e784e9" ub:parent="4f5888e2-55a2-4c88-a8c9-508a2f0713ee"/>
        <polygon points="-297.955,-766.604 -296.74,-765.889 -295.011,-764.736 -293.344,-763.461 -291.752,-762.068 -290.271,-760.587 -288.947,-759.089 -287.769,-757.598 -286.585,-755.932 -285.324,-753.954 -284.178,-751.911 -283.229,-749.933 -284.284,-751.141 -285.671,-752.53 -286.767,-753.505 -286.766,-753.506 -287.421,-753.985 -287.825,-754.373 -287.826,-754.372 -288.667,-755.005 -290.784,-759.695 -294.407,-764.013 -298.561,-766.861 -297.952,-766.607 -297.955,-766.604 " transform="matrix(1, 0, 0, 1, 0, 0)" fill="#004080" fill-opacity="0.50" stroke="#004080" stroke-width="1" stroke-opacity="0.10" fill-rule="winding" ub:uuid="7945b159-3fa2-49f5-b6ea-805b3a4899dd" ub:parent="4f5888e2-55a2-4c88-a8c9-508a2f0713ee"/>
        <polygon points="-336.574,-698.095 -337.082,-698.247 -339.172,-699.021 -341.413,-700.042 -343.797,-701.392 -346.096,-703.006 -348.184,-704.794 -350.042,-706.707 -351.669,-708.7 -352.646,-710.086 -352.647,-710.085 -355.353,-715.594 -356.073,-718.658 -356.321,-721.878 -355.9,-726.06 -354.691,-729.956 -353.517,-732.118 -353.467,-731.397 -353.299,-729.92 -353.3,-729.911 -353.2,-729.445 -353.154,-728.904 -353.153,-728.914 -352.861,-727.222 -352.416,-725.197 -351.864,-723.153 -351.244,-721.213 -350.49,-719.179 -349.678,-717.278 -348.814,-715.512 -347.849,-713.776 -346.783,-712.078 -345.69,-710.528 -344.585,-709.103 -344.186,-708.627 -343.139,-706.505 -341.927,-704.48 -340.645,-702.647 -339.694,-701.443 -339.695,-701.442 -339.329,-701.075 -338.915,-700.524 -338.914,-700.524 -337.869,-699.377 -336.574,-698.095 " transform="matrix(1, 0, 0, 1, 0, 0)" fill="#004080" fill-opacity="0.50" stroke="#004080" stroke-width="1" stroke-opacity="0.10" fill-rule="winding" ub:uuid="22df1d38-361c-4521-98b6-ef895f3cce68" ub:parent="4f5888e2-55a2-4c88-a8c9-508a2f0713ee"/>
        <polygon points="-353.466,-711.373 -354.283,-712.789 -355.311,-714.841 -356.181,-716.884 -356.933,-718.962 -357.592,-721.165 -358.132,-723.48 -358.526,-725.845 -358.766,-728.245 -358.846,-730.697 -358.784,-733.245 -358.605,-735.81 -358.322,-738.367 -357.861,-741.628 -357.32,-745.415 -356.939,-747.617 -356.411,-749.926 -355.764,-752.19 -355.006,-754.404 -354.336,-756.096 -354.34,-756.101 -351.265,-761.363 -346.831,-765.488 -341.333,-768.179 -338.278,-768.895 -335.067,-769.142 -332.195,-768.852 -333.54,-768.248 -335.628,-767.101 -336.952,-766.256 -336.954,-766.257 -337.316,-765.954 -338.095,-765.459 -338.094,-765.458 -339.298,-764.542 -340.908,-763.175 -342.392,-761.766 -343.8,-760.283 -345.168,-758.673 -346.483,-756.918 -347.726,-755.002 -348.809,-753.041 -349.686,-751.226 -350.586,-749.2 -351.368,-747.3 -352.117,-745.202 -352.774,-742.856 -353.259,-740.427 -353.557,-737.938 -353.657,-735.626 -353.615,-733.518 -353.517,-732.118 -354.691,-729.956 -355.9,-726.06 -356.321,-721.878 -356.073,-718.658 -355.353,-715.594 -352.95,-710.701 -353.468,-711.369 -353.466,-711.373 " transform="matrix(1, 0, 0, 1, 0, 0)" fill="#004080" fill-opacity="0.50" stroke="#004080" stroke-width="1" stroke-opacity="0.10" fill-rule="winding" ub:uuid="14d22cbf-7ae4-42db-94c7-37d119fcef78" ub:parent="4f5888e2-55a2-4c88-a8c9-508a2f0713ee"/>
        <polygon points="-353.922,-757.059 -352.948,-759.169 -351.843,-761.314 -350.42,-763.782 -348.917,-766.103 -347.493,-768.149 -345.773,-770.471 -344.26,-772.377 -342.9,-773.944 -341.527,-775.385 -340.044,-776.793 -338.439,-778.156 -336.767,-779.415 -335.082,-780.539 -333.364,-781.554 -331.612,-782.468 -329.812,-783.293 -327.802,-784.086 -325.531,-784.811 -323.914,-785.214 -323.924,-785.216 -319.071,-785.787 -314.888,-785.365 -310.993,-784.156 -307.468,-782.243 -304.396,-779.709 -301.862,-776.637 -299.949,-773.112 -298.74,-769.217 -298.5,-766.835 -298.561,-766.861 -299.068,-767.209 -299.072,-767.206 -300.319,-767.819 -302.141,-768.6 -303.969,-769.266 -305.795,-769.822 -307.601,-770.274 -309.332,-770.623 -311.207,-770.918 -313.319,-771.151 -315.487,-771.279 -317.659,-771.303 -319.723,-771.303 -321.206,-771.299 -323.557,-771.166 -326.253,-770.762 -328.838,-770.117 -331.274,-769.266 -332.195,-768.852 -335.067,-769.142 -338.278,-768.895 -341.333,-768.179 -346.831,-765.488 -351.265,-761.363 -354.127,-756.464 -353.926,-757.063 -353.922,-757.059 " transform="matrix(1, 0, 0, 1, 0, 0)" fill="#004080" fill-opacity="0.50" stroke="#004080" stroke-width="1" stroke-opacity="0.10" fill-rule="winding" ub:uuid="e850ba39-9b8e-49b6-b246-8299c11ee1f1" ub:parent="4f5888e2-55a2-4c88-a8c9-508a2f0713ee"/>
        <polygon points="-322.349,-785.526 -320.678,-785.777 -318.171,-785.978 -315.647,-785.978 -313.139,-785.777 -310.677,-785.384 -308.287,-784.811 -306.001,-784.08 -303.849,-783.224 -301.752,-782.22 -299.641,-781.011 -297.531,-779.566 -295.548,-777.937 -294.246,-776.692 -293.047,-775.493 -291.208,-773.651 -289.381,-771.613 -287.588,-769.187 -286.064,-766.65 -285.189,-764.88 -285.186,-764.886 -283.667,-760.569 -283.134,-755.877 -283.556,-751.695 -283.759,-751.039 -284.178,-751.911 -285.324,-753.954 -286.585,-755.932 -287.769,-757.598 -288.947,-759.089 -290.271,-760.587 -291.752,-762.068 -293.344,-763.461 -295.011,-764.736 -296.74,-765.889 -297.955,-766.604 -297.952,-766.607 -298.5,-766.835 -298.74,-769.217 -299.949,-773.112 -301.862,-776.637 -304.396,-779.709 -307.468,-782.243 -310.993,-784.156 -314.888,-785.365 -319.071,-785.787 -323.303,-785.289 -322.359,-785.528 -322.349,-785.526 " transform="matrix(1, 0, 0, 1, 0, 0)" fill="#004080" fill-opacity="0.50" stroke="#004080" stroke-width="1" stroke-opacity="0.10" fill-rule="winding" ub:uuid="a7c7d4eb-1ae0-49fe-bb95-28f82f9b71fe" ub:parent="4f5888e2-55a2-4c88-a8c9-508a2f0713ee"/>
        <polygon points="-284.483,-763.237 -283.835,-761.487 -283.06,-758.975 -282.414,-756.477 -281.889,-753.955 -281.452,-751.334 -280.981,-748.244 -280.729,-746.389 -281.293,-747.315 -282.131,-748.537 -283.024,-749.698 -283.229,-749.933 -283.759,-751.039 -283.556,-751.695 -283.134,-755.877 -283.667,-760.569 -284.822,-763.853 -284.48,-763.245 -284.483,-763.237 " transform="matrix(1, 0, 0, 1, 0, 0)" fill="#004080" fill-opacity="0.50" stroke="#004080" stroke-width="1" stroke-opacity="0.10" fill-rule="winding" ub:uuid="0243587f-e393-41af-b0de-823466d5921a" ub:parent="4f5888e2-55a2-4c88-a8c9-508a2f0713ee"/>
        <polygon points="-332.317,-694.788 -332.817,-694.897 -334.841,-695.443 -336.65,-696.024 -338.616,-696.762 -340.872,-697.782 -343.194,-699.067 -345.388,-700.529 -347.432,-702.144 -349.253,-703.827 -350.868,-705.503 -352.367,-707.192 -353.752,-708.896 -354.933,-710.497 -355.721,-711.707 -355.722,-711.704 -358.065,-716.901 -358.898,-722.742 -358.556,-726.141 -358.526,-725.845 -358.132,-723.48 -357.592,-721.165 -356.933,-718.962 -356.181,-716.884 -355.311,-714.841 -354.283,-712.789 -353.466,-711.373 -353.468,-711.369 -352.95,-710.701 -352.647,-710.085 -352.646,-710.086 -351.669,-708.7 -350.042,-706.707 -348.184,-704.794 -346.096,-703.006 -343.797,-701.392 -341.413,-700.042 -339.172,-699.021 -337.082,-698.247 -336.574,-698.095 -336.407,-697.929 -334.802,-696.542 -333.393,-695.486 -332.317,-694.788 " transform="matrix(1, 0, 0, 1, 0, 0)" fill="#004080" fill-opacity="0.50" stroke="#004080" stroke-width="1" stroke-opacity="0.10" fill-rule="winding" ub:uuid="f9521e8e-3bdc-4010-9edc-43f4396c9d63" ub:parent="4f5888e2-55a2-4c88-a8c9-508a2f0713ee"/>
        <polygon points="-356.545,-713.143 -357.426,-714.891 -358.517,-717.614 -359.316,-720.303 -359.828,-722.733 -360.151,-724.922 -360.406,-727.45 -360.55,-730.181 -360.563,-732.984 -360.415,-735.588 -360.118,-738.034 -359.658,-740.487 -359.041,-742.882 -358.331,-745.061 -357.466,-747.363 -356.461,-749.728 -356.452,-749.746 -356.939,-747.617 -357.32,-745.415 -357.861,-741.628 -358.322,-738.367 -358.605,-735.81 -358.784,-733.245 -358.846,-730.697 -358.766,-728.245 -358.556,-726.141 -358.898,-722.742 -358.065,-716.901 -356.056,-712.446 -356.547,-713.138 -356.545,-713.143 " transform="matrix(1, 0, 0, 1, 0, 0)" fill="#004080" fill-opacity="0.50" stroke="#004080" stroke-width="1" stroke-opacity="0.10" fill-rule="winding" ub:uuid="4b213732-550e-4b01-b124-8628a4a31795" ub:parent="4f5888e2-55a2-4c88-a8c9-508a2f0713ee"/>
        <polygon points="-281.434,-751.214 -280.373,-747.589 -280.162,-745.378 -280.516,-746.039 -280.729,-746.389 -280.981,-748.244 -281.434,-751.214 " transform="matrix(1, 0, 0, 1, 0, 0)" fill="#004080" fill-opacity="0.50" stroke="#004080" stroke-width="1" stroke-opacity="0.10" fill-rule="winding" ub:uuid="8f13376f-3c02-49a7-a38d-9fc4245db591" ub:parent="4f5888e2-55a2-4c88-a8c9-508a2f0713ee"/>
        <polygon points="-280.913,-749.732 -280.407,-748.03 -279.846,-745.508 -279.699,-744.482 -279.808,-744.717 -280.162,-745.378 -280.373,-747.589 -281.261,-750.625 -280.91,-749.742 -280.913,-749.732 " transform="matrix(1, 0, 0, 1, 0, 0)" fill="#004080" fill-opacity="0.50" stroke="#004080" stroke-width="1" stroke-opacity="0.10" fill-rule="winding" ub:uuid="027f8832-5ed5-425a-a1c5-03b4b82ac333" ub:parent="4f5888e2-55a2-4c88-a8c9-508a2f0713ee"/>
        <polygon points="-316.634,-690.888 -317.149,-690.766 -319.773,-690.376 -322.529,-690.239 -325.286,-690.376 -326.991,-690.607 -326.994,-690.604 -330.626,-691.488 -333.976,-692.977 -336.982,-695.009 -338.951,-696.913 -338.616,-696.762 -336.65,-696.024 -334.841,-695.443 -332.817,-694.897 -332.317,-694.788 -331.823,-694.467 -330.081,-693.51 -328.161,-692.648 -326.071,-691.918 -323.832,-691.359 -321.481,-691.008 -319.21,-690.888 -316.819,-690.887 -316.634,-690.888 " transform="matrix(1, 0, 0, 1, 0, 0)" fill="#004080" fill-opacity="0.50" stroke="#004080" stroke-width="1" stroke-opacity="0.10" fill-rule="winding" ub:uuid="e6bc4042-8401-4ac7-b97f-ef3a54476d1f" ub:parent="4f5888e2-55a2-4c88-a8c9-508a2f0713ee"/>
        <polygon points="-328.708,-690.939 -329.559,-691.141 -331.021,-691.507 -332.84,-691.962 -334.162,-692.332 -335.566,-692.807 -336.953,-693.361 -338.313,-693.995 -339.635,-694.702 -340.911,-695.479 -342.133,-696.318 -343.713,-697.561 -345.418,-699.127 -347.265,-701.162 -348.84,-703.259 -349.116,-703.7 -347.432,-702.144 -345.388,-700.529 -343.194,-699.067 -340.872,-697.782 -338.951,-696.913 -336.982,-695.009 -333.976,-692.977 -330.626,-691.488 -328.025,-690.855 -328.713,-690.935 -328.708,-690.939 " transform="matrix(1, 0, 0, 1, 0, 0)" fill="#004080" fill-opacity="0.50" stroke="#004080" stroke-width="1" stroke-opacity="0.10" fill-rule="winding" ub:uuid="d114937d-ceb7-41b4-a55e-bff646cb5836" ub:parent="4f5888e2-55a2-4c88-a8c9-508a2f0713ee"/>
        <polygon points="-302.373,-782.517 -301.087,-782.486 -299.542,-782.384 -299.541,-782.384 -295.619,-781.726 -291.984,-780.37 -288.708,-778.39 -285.864,-775.859 -283.525,-772.85 -281.764,-769.436 -280.654,-765.689 -280.268,-761.684 -280.689,-757.501 -281.854,-753.748 -281.889,-753.955 -282.414,-756.477 -283.06,-758.975 -283.835,-761.487 -284.483,-763.237 -284.48,-763.245 -284.822,-763.853 -285.186,-764.886 -285.189,-764.88 -286.064,-766.65 -287.588,-769.187 -289.381,-771.613 -291.208,-773.651 -293.047,-775.493 -294.246,-776.692 -295.548,-777.937 -297.531,-779.566 -299.641,-781.011 -301.752,-782.22 -302.373,-782.517 " transform="matrix(1, 0, 0, 1, 0, 0)" fill="#004080" fill-opacity="0.50" stroke="#004080" stroke-width="1" stroke-opacity="0.10" fill-rule="winding" ub:uuid="f7d71400-5305-4360-9983-dd9f2da45ded" ub:parent="4f5888e2-55a2-4c88-a8c9-508a2f0713ee"/>
        <polygon points="-298.517,-782.285 -296.697,-782.059 -294.526,-781.677 -292.29,-781.136 -289.992,-780.401 -287.798,-779.524 -285.717,-778.526 -283.723,-777.409 -281.746,-776.13 -279.778,-774.653 -277.872,-772.983 -276.056,-771.116 -274.45,-769.166 -273.17,-767.401 -271.973,-765.623 -270.586,-763.401 -269.374,-761.276 -268.264,-759.099 -267.305,-756.973 -266.734,-755.544 -266.731,-755.551 -265.666,-751.874 -265.296,-747.952 -265.717,-743.77 -266.926,-739.875 -268.84,-736.349 -271.374,-733.278 -274.445,-730.744 -276.161,-729.813 -276.248,-731.006 -276.544,-733.171 -276.988,-735.654 -277.467,-737.952 -277.954,-739.903 -278.62,-741.97 -279.175,-743.357 -279.699,-744.482 -279.846,-745.508 -280.407,-748.03 -280.913,-749.732 -280.91,-749.742 -281.261,-750.625 -281.434,-751.214 -281.452,-751.334 -281.854,-753.748 -280.689,-757.501 -280.268,-761.684 -280.654,-765.689 -281.764,-769.436 -283.525,-772.85 -285.864,-775.859 -288.708,-778.39 -291.984,-780.37 -295.619,-781.726 -299.204,-782.328 -298.515,-782.287 -298.517,-782.285 " transform="matrix(1, 0, 0, 1, 0, 0)" fill="#004080" fill-opacity="0.50" stroke="#004080" stroke-width="1" stroke-opacity="0.10" fill-rule="winding" ub:uuid="2b11c1ce-239f-49f1-b581-5d4e2046619c" ub:parent="4f5888e2-55a2-4c88-a8c9-508a2f0713ee"/>
        <polygon points="-266.213,-754.055 -265.707,-752.353 -265.146,-749.832 -264.787,-747.323 -264.614,-744.784 -264.595,-742.659 -264.595,-740.149 -264.614,-737.956 -264.856,-735.061 -265.297,-732.577 -266.058,-729.777 -267.002,-727.207 -268.07,-724.867 -269.282,-722.565 -270.502,-720.484 -271.574,-718.834 -272.695,-717.269 -274.048,-715.554 -275.526,-713.84 -276.784,-712.492 -276.784,-712.492 -279.907,-709.764 -282.349,-708.373 -281.762,-709.233 -280.68,-711.011 -279.701,-712.846 -278.826,-714.736 -278.13,-716.459 -277.583,-718.023 -277.234,-719.166 -277.23,-719.161 -277.091,-719.789 -276.932,-720.267 -276.936,-720.272 -276.649,-721.492 -276.257,-723.909 -276.079,-726.133 -276.076,-728.659 -276.161,-729.813 -274.445,-730.744 -271.374,-733.278 -268.84,-736.349 -266.926,-739.875 -265.717,-743.77 -265.296,-747.952 -265.666,-751.874 -266.541,-754.898 -266.21,-754.065 -266.213,-754.055 " transform="matrix(1, 0, 0, 1, 0, 0)" fill="#004080" fill-opacity="0.50" stroke="#004080" stroke-width="1" stroke-opacity="0.10" fill-rule="winding" ub:uuid="b547f604-5ab9-4cde-87b4-f3d370623630" ub:parent="4f5888e2-55a2-4c88-a8c9-508a2f0713ee"/>
        <polygon points="-277.296,-711.965 -278.344,-710.932 -279.862,-709.568 -281.543,-708.224 -282.934,-707.251 -282.903,-707.563 -282.349,-708.373 -279.907,-709.764 -277.055,-712.255 -277.296,-711.965 -277.296,-711.965 " transform="matrix(1, 0, 0, 1, 0, 0)" fill="#004080" fill-opacity="0.50" stroke="#004080" stroke-width="1" stroke-opacity="0.10" fill-rule="winding" ub:uuid="b7f28d34-0074-4b4d-8b30-69d9e1b92473" ub:parent="4f5888e2-55a2-4c88-a8c9-508a2f0713ee"/>
        <polygon points="-312.33,-785.648 -311.077,-785.986 -307.406,-786.31 -303.224,-785.888 -299.328,-784.679 -295.803,-782.766 -294.466,-781.663 -294.526,-781.677 -296.697,-782.059 -298.517,-782.285 -298.515,-782.287 -299.204,-782.328 -299.541,-782.384 -299.542,-782.384 -301.087,-782.486 -302.373,-782.517 -303.849,-783.224 -306.001,-784.08 -308.287,-784.811 -310.677,-785.384 -312.33,-785.648 " transform="matrix(1, 0, 0, 1, 0, 0)" fill="#004080" fill-opacity="0.50" stroke="#004080" stroke-width="1" stroke-opacity="0.10" fill-rule="winding" ub:uuid="dea51521-8f6a-43b3-8a82-c70f735105c7" ub:parent="4f5888e2-55a2-4c88-a8c9-508a2f0713ee"/>
        <polygon points="-313.552,-785.811 -313.516,-785.828 -311.134,-786.761 -308.826,-787.451 -306.699,-787.91 -305.041,-788.146 -303.307,-788.282 -301.506,-788.302 -299.654,-788.192 -297,-787.796 -295.283,-787.396 -293.398,-786.925 -291.651,-786.474 -289.605,-785.813 -288.218,-785.258 -286.858,-784.625 -285.536,-783.917 -284.743,-783.444 -284.741,-783.447 -280.665,-780.195 -277.521,-776.031 -275.497,-771.143 -275.387,-770.303 -276.056,-771.116 -277.872,-772.983 -279.778,-774.653 -281.746,-776.13 -283.723,-777.409 -285.717,-778.526 -287.798,-779.524 -289.992,-780.401 -292.29,-781.136 -294.466,-781.663 -295.803,-782.766 -299.328,-784.679 -303.224,-785.888 -307.406,-786.31 -311.077,-785.986 -312.33,-785.648 -313.139,-785.777 -313.552,-785.811 " transform="matrix(1, 0, 0, 1, 0, 0)" fill="#004080" fill-opacity="0.50" stroke="#004080" stroke-width="1" stroke-opacity="0.10" fill-rule="winding" ub:uuid="a09b6c5d-023d-45b8-baad-704d2d699112" ub:parent="4f5888e2-55a2-4c88-a8c9-508a2f0713ee"/>
        <polygon points="-283.788,-782.826 -283.038,-782.302 -281.457,-781.059 -279.999,-779.735 -278.659,-778.358 -277.373,-776.919 -276.046,-775.303 -274.725,-773.551 -273.518,-771.751 -272.503,-770.033 -271.589,-768.281 -270.774,-766.504 -270.056,-764.709 -269.43,-762.903 -268.836,-760.877 -268.54,-759.64 -269.374,-761.276 -270.586,-763.401 -271.973,-765.623 -273.17,-767.401 -274.45,-769.166 -275.387,-770.303 -275.497,-771.143 -277.521,-776.031 -280.665,-780.195 -284.248,-783.053 -283.786,-782.827 -283.788,-782.826 " transform="matrix(1, 0, 0, 1, 0, 0)" fill="#004080" fill-opacity="0.50" stroke="#004080" stroke-width="1" stroke-opacity="0.10" fill-rule="winding" ub:uuid="bb74107f-845a-46cc-997b-1bfc77d3605d" ub:parent="4f5888e2-55a2-4c88-a8c9-508a2f0713ee"/>
        <polygon points="-284.279,-783.078 -284.12,-783.014 -282.233,-782.139 -280.328,-781.118 -279.13,-780.385 -279.128,-780.387 -275.117,-777.133 -272.025,-772.989 -270.037,-768.137 -269.334,-762.76 -269.348,-762.621 -269.43,-762.903 -270.056,-764.709 -270.774,-766.504 -271.589,-768.281 -272.503,-770.033 -273.518,-771.751 -274.725,-773.551 -276.046,-775.303 -277.373,-776.919 -278.659,-778.358 -279.999,-779.735 -281.457,-781.059 -283.038,-782.302 -283.788,-782.826 -283.786,-782.827 -284.248,-783.053 -284.279,-783.078 " transform="matrix(1, 0, 0, 1, 0, 0)" fill="#004080" fill-opacity="0.50" stroke="#004080" stroke-width="1" stroke-opacity="0.10" fill-rule="winding" ub:uuid="90f07245-b5a5-46a9-9b8a-99a343bf1437" ub:parent="4f5888e2-55a2-4c88-a8c9-508a2f0713ee"/>
        <polygon points="-278.024,-779.647 -276.875,-778.813 -275.245,-777.479 -273.7,-776.034 -272.255,-774.489 -270.921,-772.859 -269.706,-771.159 -268.616,-769.405 -267.678,-767.669 -266.838,-765.926 -265.896,-763.801 -264.929,-761.41 -264.153,-759.108 -263.576,-756.89 -263.143,-754.495 -262.902,-751.972 -262.875,-749.753 -262.963,-747.961 -263.134,-746.247 -263.307,-745.051 -263.305,-745.048 -264.188,-741.417 -264.595,-740.501 -264.595,-742.659 -264.614,-744.784 -264.787,-747.323 -265.146,-749.832 -265.707,-752.353 -266.213,-754.055 -266.21,-754.065 -266.541,-754.898 -266.731,-755.551 -266.734,-755.544 -267.305,-756.973 -268.264,-759.099 -268.54,-759.64 -268.836,-760.877 -269.348,-762.621 -269.334,-762.76 -270.037,-768.137 -272.025,-772.989 -275.117,-777.133 -278.541,-779.911 -278.023,-779.649 -278.024,-779.647 " transform="matrix(1, 0, 0, 1, 0, 0)" fill="#004080" fill-opacity="0.50" stroke="#004080" stroke-width="1" stroke-opacity="0.10" fill-rule="winding" ub:uuid="ead9690a-97ea-41ab-bd60-88c2ca385ac5" ub:parent="4f5888e2-55a2-4c88-a8c9-508a2f0713ee"/>
        <polygon points="-263.481,-744.06 -263.736,-742.822 -264.286,-740.726 -264.598,-739.835 -264.595,-740.149 -264.595,-740.501 -264.188,-741.417 -263.431,-744.531 -263.477,-744.056 -263.481,-744.06 " transform="matrix(1, 0, 0, 1, 0, 0)" fill="#004080" fill-opacity="0.50" stroke="#004080" stroke-width="1" stroke-opacity="0.10" fill-rule="winding" ub:uuid="aff1f565-1de1-4342-b920-539a4a3523b1" ub:parent="4f5888e2-55a2-4c88-a8c9-508a2f0713ee"/>
        <polygon points="-308.229,-787.58 -308.043,-787.696 -305.94,-788.797 -303.726,-789.761 -301.626,-790.5 -299.627,-791.047 -298.052,-791.369 -296.394,-791.605 -294.66,-791.741 -293.58,-791.765 -293.581,-791.765 -293.342,-791.766 -289.159,-791.345 -285.264,-790.135 -281.739,-788.222 -278.667,-785.688 -276.133,-782.617 -274.22,-779.092 -273.058,-775.347 -273.7,-776.034 -275.245,-777.479 -276.875,-778.813 -278.024,-779.647 -278.023,-779.649 -278.541,-779.911 -279.128,-780.387 -279.13,-780.385 -280.328,-781.118 -282.233,-782.139 -284.12,-783.014 -284.279,-783.078 -284.741,-783.447 -284.743,-783.444 -285.536,-783.917 -286.858,-784.625 -288.218,-785.258 -289.605,-785.813 -291.651,-786.474 -293.398,-786.925 -295.283,-787.396 -297,-787.796 -299.654,-788.192 -301.506,-788.302 -303.307,-788.282 -305.041,-788.146 -306.699,-787.91 -308.229,-787.58 " transform="matrix(1, 0, 0, 1, 0, 0)" fill="#004080" fill-opacity="0.50" stroke="#004080" stroke-width="1" stroke-opacity="0.10" fill-rule="winding" ub:uuid="d89abb12-5e61-4f14-a1cf-5e3e33419c35" ub:parent="4f5888e2-55a2-4c88-a8c9-508a2f0713ee"/>
        <polygon points="-292.123,-791.73 -291.007,-791.651 -288.153,-791.212 -279.421,-789.256 -275.738,-788.073 -273.473,-787.055 -271.063,-785.711 -268.624,-784.052 -266.212,-782.083 -264.017,-779.949 -261.813,-777.38 -259.636,-774.322 -257.912,-771.423 -256.725,-769.048 -255.808,-766.745 -255.055,-764.231 -254.526,-761.584 -254.253,-758.851 -254.253,-756.086 -254.4,-754.366 -254.398,-754.364 -255.143,-750.548 -256.551,-747.017 -258.552,-743.84 -261.078,-741.086 -264.06,-738.823 -264.609,-738.546 -264.598,-739.835 -264.286,-740.726 -263.736,-742.822 -263.481,-744.06 -263.477,-744.056 -263.431,-744.531 -263.305,-745.048 -263.307,-745.051 -263.134,-746.247 -262.963,-747.961 -262.875,-749.753 -262.902,-751.972 -263.143,-754.495 -263.576,-756.89 -264.153,-759.108 -264.929,-761.41 -265.896,-763.801 -266.838,-765.926 -267.678,-767.669 -268.616,-769.405 -269.706,-771.159 -270.921,-772.859 -272.255,-774.489 -273.058,-775.347 -274.22,-779.092 -276.133,-782.617 -278.667,-785.688 -281.739,-788.222 -285.264,-790.135 -289.159,-791.345 -293.342,-791.766 -292.122,-791.731 -292.123,-791.73 " transform="matrix(1, 0, 0, 1, 0, 0)" fill="#004080" fill-opacity="0.50" stroke="#004080" stroke-width="1" stroke-opacity="0.10" fill-rule="winding" ub:uuid="712b4e2b-4aad-4130-b13a-9805bfe84334" ub:parent="4f5888e2-55a2-4c88-a8c9-508a2f0713ee"/>
        <polygon points="-254.7,-752.361 -255.055,-750.706 -255.808,-748.192 -257.084,-745.128 -258.891,-741.801 -261.169,-738.408 -263.327,-735.739 -265.05,-733.966 -264.856,-735.061 -264.614,-737.956 -264.609,-738.546 -264.06,-738.823 -261.078,-741.086 -258.552,-743.84 -256.551,-747.017 -255.143,-750.548 -254.602,-753.322 -254.696,-752.357 -254.7,-752.361 " transform="matrix(1, 0, 0, 1, 0, 0)" fill="#004080" fill-opacity="0.50" stroke="#004080" stroke-width="1" stroke-opacity="0.10" fill-rule="winding" ub:uuid="4804193b-3a2f-4e27-be6b-56027188805c" ub:parent="4f5888e2-55a2-4c88-a8c9-508a2f0713ee"/>
        <polygon points="-313.632,-785.817 -312.42,-786.867 -310.092,-788.563 -307.8,-789.954 -305.624,-791.041 -303.271,-791.98 -301.128,-792.637 -298.866,-793.13 -296.982,-793.381 -295.13,-793.49 -293.329,-793.47 -291.595,-793.334 -290.558,-793.196 -290.555,-793.199 -286.898,-792.334 -283.522,-790.856 -281.993,-789.832 -288.153,-791.212 -291.007,-791.651 -292.123,-791.73 -292.122,-791.731 -293.342,-791.766 -293.581,-791.765 -293.58,-791.765 -294.66,-791.741 -296.394,-791.605 -298.052,-791.369 -299.627,-791.047 -301.626,-790.5 -303.726,-789.761 -305.94,-788.797 -308.043,-787.696 -308.229,-787.58 -308.826,-787.451 -311.134,-786.761 -313.516,-785.828 -313.552,-785.811 -313.632,-785.817 " transform="matrix(1, 0, 0, 1, 0, 0)" fill="#004080" fill-opacity="0.50" stroke="#004080" stroke-width="1" stroke-opacity="0.10" fill-rule="winding" ub:uuid="08978062-cf8c-48b0-8d66-fda49fc46e59" ub:parent="4f5888e2-55a2-4c88-a8c9-508a2f0713ee"/>
        <polygon points="-289.339,-792.985 -287.81,-792.639 -284.823,-791.702 -281.522,-790.308 -279.54,-789.283 -281.993,-789.832 -283.522,-790.856 -286.898,-792.334 -289.909,-793.046 -289.335,-792.988 -289.339,-792.985 " transform="matrix(1, 0, 0, 1, 0, 0)" fill="#004080" fill-opacity="0.50" stroke="#004080" stroke-width="1" stroke-opacity="0.10" fill-rule="winding" ub:uuid="0614ed5b-f370-484a-af8e-4b322ae84ea9" ub:parent="4f5888e2-55a2-4c88-a8c9-508a2f0713ee"/>
        <polygon points="-256.3,-747.01 -256.216,-746.39 -255.955,-739.705 -256.319,-733.788 -256.821,-730.261 -256.819,-730.258 -257.705,-726.63 -259.195,-723.284 -261.228,-720.282 -263.741,-717.686 -266.671,-715.558 -269.956,-713.961 -273.533,-712.957 -276.613,-712.675 -275.526,-713.84 -274.048,-715.554 -272.695,-717.269 -271.574,-718.834 -270.502,-720.484 -269.282,-722.565 -268.07,-724.867 -267.002,-727.207 -266.058,-729.777 -265.297,-732.577 -265.05,-733.966 -263.327,-735.739 -261.169,-738.408 -258.891,-741.801 -257.084,-745.128 -256.3,-747.01 " transform="matrix(1, 0, 0, 1, 0, 0)" fill="#004080" fill-opacity="0.50" stroke="#004080" stroke-width="1" stroke-opacity="0.10" fill-rule="winding" ub:uuid="20f1345d-2f96-4c57-9844-4c5cf9f07c71" ub:parent="4f5888e2-55a2-4c88-a8c9-508a2f0713ee"/>
        <polygon points="-257.235,-728.221 -257.947,-725.533 -259.717,-720.91 -262.97,-714.694 -264.782,-711.752 -266.434,-709.529 -268.103,-707.623 -270.99,-704.952 -275.899,-701.226 -278.302,-699.629 -280.39,-698.482 -282.656,-697.465 -285.419,-696.518 -287.45,-696.046 -286.298,-697.443 -284.384,-700.968 -283.175,-704.863 -282.934,-707.251 -281.543,-708.224 -279.862,-709.568 -278.344,-710.932 -277.296,-711.965 -277.296,-711.965 -277.055,-712.255 -276.784,-712.492 -276.784,-712.492 -276.613,-712.675 -273.533,-712.957 -269.956,-713.961 -266.671,-715.558 -263.741,-717.686 -261.228,-720.282 -259.195,-723.284 -257.705,-726.63 -257.14,-728.941 -257.231,-728.216 -257.235,-728.221 " transform="matrix(1, 0, 0, 1, 0, 0)" fill="#004080" fill-opacity="0.50" stroke="#004080" stroke-width="1" stroke-opacity="0.10" fill-rule="winding" ub:uuid="12c7f5e9-d521-403c-a147-29575a96d780" ub:parent="4f5888e2-55a2-4c88-a8c9-508a2f0713ee"/>
        <polygon points="-267.616,-708.179 -268.816,-705.508 -270.696,-702.276 -273.663,-698.122 -275.633,-695.778 -276.981,-694.428 -278.115,-693.427 -279.388,-692.432 -280.816,-691.457 -282.413,-690.527 -284.187,-689.671 -287.489,-688.525 -291.282,-687.577 -293.585,-687.14 -295.189,-686.953 -296.904,-686.859 -297.989,-686.859 -297.989,-686.859 -302.129,-687.321 -305.916,-688.535 -303.506,-688.293 -299.324,-688.715 -295.428,-689.924 -291.903,-691.837 -288.832,-694.371 -287.45,-696.046 -285.419,-696.518 -282.656,-697.465 -280.39,-698.482 -278.302,-699.629 -275.899,-701.226 -270.99,-704.952 -268.103,-707.623 -267.616,-708.179 " transform="matrix(1, 0, 0, 1, 0, 0)" fill="#004080" fill-opacity="0.50" stroke="#004080" stroke-width="1" stroke-opacity="0.10" fill-rule="winding" ub:uuid="ec5abfc9-0ef6-4f83-b69c-e0dc3a3b106b" ub:parent="4f5888e2-55a2-4c88-a8c9-508a2f0713ee"/>
        <polygon points="-299.512,-686.933 -300.676,-687.048 -302.714,-687.389 -304.823,-687.932 -306.739,-688.617 -305.916,-688.535 -302.129,-687.321 -298.114,-686.873 -299.514,-686.932 -299.512,-686.933 -297.734,-686.859 -297.747,-686.858 -297.779,-686.859 -297.734,-686.859 -299.512,-686.933 " transform="matrix(1, 0, 0, 1, 0, 0)" fill="#004080" fill-opacity="0.50" stroke="#004080" stroke-width="1" stroke-opacity="0.10" fill-rule="winding" ub:uuid="81797dea-f5dc-4913-a37e-5f2ec6bc9849" ub:parent="4f5888e2-55a2-4c88-a8c9-508a2f0713ee"/>
    </g>
    <g ub:z-value="-999993" ub:fill-on-dark-background="#66c0ff" ub:fill-on-light-background="#004080" ub:uuid="ce320dfd-3559-4e4a-b69b-208ecb178be4" ub:layer="-1000">
        <polygon points="606.147,-509.997 606.117,-508.592 605.753,-505.573 605.362,-503.828 604.996,-502.526 604.556,-501.165 603.561,-498.756 602.005,-496.027 599.975,-493.421 597.551,-491.114 594.883,-489.237 592.152,-487.841 589.508,-486.895 587.047,-486.323 584.138,-485.993 582.055,-485.964 580.125,-486.063 578.245,-486.272 576.285,-486.619 575.005,-486.926 575,-486.922 571.733,-488.035 568.736,-489.652 566.06,-491.72 563.757,-494.19 561.877,-497.009 560.471,-500.128 559.591,-503.494 559.286,-507.058 559.707,-511.241 560.917,-515.136 562.83,-518.661 565.364,-521.733 568.435,-524.267 571.96,-526.18 575.856,-527.389 580.038,-527.811 585.076,-527.195 585.072,-527.191 584.898,-527.221 584.115,-527.36 583.479,-527.432 582.864,-527.461 582.129,-527.449 579.834,-527.197 577.936,-526.755 575.802,-525.99 573.529,-524.828 571.268,-523.237 569.198,-521.267 567.471,-519.05 566.165,-516.762 565.37,-514.845 565.241,-514.453 565.212,-514.344 564.959,-513.222 564.665,-510.688 564.643,-510.337 564.643,-510.337 565.094,-514.49 566.321,-518.356 568.243,-521.852 570.777,-524.897 573.842,-527.409 577.354,-529.304 581.233,-530.502 585.395,-530.92 589.577,-530.498 593.473,-529.289 596.998,-527.375 600.069,-524.841 602.603,-521.77 604.517,-518.245 605.726,-514.349 606.148,-510.167 606.147,-509.997 606.147,-509.997 " transform="matrix(1, 0, 0, 1, 0, 0)" fill="#004080" fill-opacity="0.50" stroke="#004080" stroke-width="1" stroke-opacity="0.10" fill-rule="winding" ub:uuid="dd7753b6-fc99-4a76-a9f2-c687f2b52bc5" ub:parent="ce320dfd-3559-4e4a-b69b-208ecb178be4"/>
        <polygon points="573.867,-487.245 573.065,-487.503 571.585,-488.06 569.992,-488.787 568.456,-489.625 566.994,-490.562 565.622,-491.584 564.351,-492.673 563.187,-493.811 562.134,-494.981 561.188,-496.168 560.323,-497.392 559.502,-498.713 558.74,-500.125 558.067,-501.582 557.49,-503.07 557.01,-504.574 556.628,-506.08 556.341,-507.576 556.212,-508.479 556.211,-508.47 556.03,-511.222 556.452,-515.404 557.661,-519.3 559.574,-522.825 562.108,-525.896 565.18,-528.43 568.705,-530.344 572.6,-531.553 576.783,-531.975 580.635,-531.618 583.693,-530.749 581.233,-530.502 577.354,-529.304 573.842,-527.409 572.576,-526.371 571.96,-526.18 568.435,-524.267 565.364,-521.733 562.83,-518.661 560.917,-515.136 559.707,-511.241 559.286,-507.058 559.591,-503.494 560.471,-500.128 561.877,-497.009 563.757,-494.19 566.06,-491.72 568.736,-489.652 571.733,-488.035 574.49,-487.096 573.862,-487.241 573.867,-487.245 572.576,-526.371 575.856,-527.389 580.038,-527.811 582.924,-527.458 582.864,-527.461 582.129,-527.449 579.834,-527.197 577.936,-526.755 575.802,-525.99 573.529,-524.828 571.268,-523.237 569.198,-521.267 567.471,-519.05 566.165,-516.762 565.37,-514.845 565.241,-514.453 565.212,-514.344 564.959,-513.222 564.913,-512.828 565.094,-514.49 566.321,-518.356 568.243,-521.852 570.777,-524.897 572.576,-526.371 573.867,-487.245 582.924,-527.458 584.979,-527.207 584.898,-527.221 584.115,-527.36 583.479,-527.432 582.924,-527.458 573.867,-487.245 584.979,-527.207 585.076,-527.195 585.072,-527.191 584.979,-527.207 573.867,-487.245 564.913,-512.828 564.665,-510.688 564.643,-510.337 564.913,-512.828 573.867,-487.245 564.643,-510.337 564.643,-510.337 564.643,-510.337 564.643,-510.337 573.867,-487.245 " transform="matrix(1, 0, 0, 1, 0, 0)" fill="#004080" fill-opacity="0.50" stroke="#004080" stroke-width="1" stroke-opacity="0.10" fill-rule="winding" ub:uuid="c77726ce-6bd5-43e0-9b11-a8d32cc58046" ub:parent="ce320dfd-3559-4e4a-b69b-208ecb178be4"/>
        <polygon points="556.093,-509.61 556.011,-511.03 556.029,-513.258 556.273,-515.841 556.706,-518.236 557.283,-520.454 558.029,-522.677 558.853,-524.718 559.653,-526.477 560.567,-528.258 561.564,-529.965 562.505,-531.388 563.563,-532.822 564.723,-534.243 565.956,-535.614 567.215,-536.894 568.543,-538.133 569.934,-539.315 571.307,-540.374 572.197,-541.003 572.196,-541.004 577.75,-543.766 580.844,-544.501 584.098,-544.755 588.28,-544.333 592.176,-543.124 595.701,-541.21 598.772,-538.676 601.306,-535.605 603.22,-532.08 604.429,-528.184 604.851,-524.002 604.22,-518.906 604.194,-518.839 602.603,-521.77 600.069,-524.841 596.998,-527.375 593.473,-529.289 589.577,-530.498 585.395,-530.92 583.693,-530.749 580.635,-531.618 576.783,-531.975 572.6,-531.553 568.705,-530.344 565.18,-528.43 562.108,-525.896 559.574,-522.825 557.661,-519.3 556.452,-515.404 556.03,-511.222 556.163,-509.195 556.092,-509.603 556.093,-509.61 " transform="matrix(1, 0, 0, 1, 0, 0)" fill="#004080" fill-opacity="0.50" stroke="#004080" stroke-width="1" stroke-opacity="0.10" fill-rule="winding" ub:uuid="4f917451-48d8-4e33-b384-995c75ea0603" ub:parent="ce320dfd-3559-4e4a-b69b-208ecb178be4"/>
        <polygon points="572.994,-541.534 573.94,-542.126 575.37,-542.936 576.879,-543.69 578.466,-544.377 579.967,-544.932 581.77,-545.471 583.404,-545.835 585.012,-546.082 586.58,-546.223 588.097,-546.268 590.104,-546.189 592.281,-545.936 594.69,-545.447 596.938,-544.796 598.821,-544.092 600.513,-543.32 601.779,-542.643 603.073,-541.851 603.833,-541.332 603.834,-541.333 607.475,-538.082 610.266,-534.062 612.054,-529.426 612.685,-524.331 612.263,-520.148 611.054,-516.253 609.14,-512.728 606.606,-509.656 606.131,-509.264 606.147,-509.997 606.147,-509.997 606.148,-510.167 605.726,-514.349 604.517,-518.245 604.194,-518.839 604.22,-518.906 604.851,-524.002 604.429,-528.184 603.22,-532.08 601.306,-535.605 598.772,-538.676 595.701,-541.21 592.176,-543.124 588.28,-544.333 584.098,-544.755 580.844,-544.501 577.75,-543.766 572.576,-541.193 572.992,-541.536 572.994,-541.534 " transform="matrix(1, 0, 0, 1, 0, 0)" fill="#004080" fill-opacity="0.50" stroke="#004080" stroke-width="1" stroke-opacity="0.10" fill-rule="winding" ub:uuid="95eb2ef7-9ac7-479f-83b1-5453bcd4505c" ub:parent="ce320dfd-3559-4e4a-b69b-208ecb178be4"/>
        <polygon points="604.939,-540.501 605.695,-539.877 607.279,-538.379 608.601,-536.907 609.891,-535.234 610.948,-533.652 611.837,-532.144 612.555,-530.785 613.226,-529.359 613.809,-527.908 614.336,-526.323 614.785,-524.596 615.126,-522.722 615.329,-520.707 615.36,-518.57 615.188,-516.344 614.791,-514.074 614.054,-511.502 613.279,-509.527 612.664,-508.221 612.667,-508.217 609.484,-503.469 605.147,-499.773 603.71,-499.117 604.556,-501.165 604.996,-502.526 605.362,-503.828 605.753,-505.573 606.117,-508.592 606.131,-509.264 606.606,-509.656 609.14,-512.728 611.054,-516.253 612.263,-520.148 612.685,-524.331 612.054,-529.426 610.266,-534.062 607.475,-538.082 604.216,-540.992 604.939,-540.502 604.939,-540.501 " transform="matrix(1, 0, 0, 1, 0, 0)" fill="#004080" fill-opacity="0.50" stroke="#004080" stroke-width="1" stroke-opacity="0.10" fill-rule="winding" ub:uuid="5624d16a-b5f4-41e9-b876-ca5197954fe4" ub:parent="ce320dfd-3559-4e4a-b69b-208ecb178be4"/>
        <polygon points="612.008,-506.979 611.352,-505.848 610.356,-504.311 609.218,-502.733 607.719,-500.911 605.861,-498.998 603.774,-497.21 601.904,-495.897 602.005,-496.027 603.561,-498.756 603.71,-499.117 605.147,-499.773 609.484,-503.469 612.294,-507.661 612.011,-506.976 612.008,-506.979 " transform="matrix(1, 0, 0, 1, 0, 0)" fill="#004080" fill-opacity="0.50" stroke="#004080" stroke-width="1" stroke-opacity="0.10" fill-rule="winding" ub:uuid="8e79471c-4333-409d-933f-0640bc8c7159" ub:parent="ce320dfd-3559-4e4a-b69b-208ecb178be4"/>
        <polygon points="561.752,-530.25 562.311,-531.636 563.112,-533.394 564.026,-535.176 565.022,-536.882 565.964,-538.305 567.022,-539.739 568.182,-541.161 569.389,-542.505 570.484,-543.627 571.892,-545.036 572.625,-545.766 574.165,-547.145 575.993,-548.498 577.882,-549.633 578.952,-550.171 578.946,-550.174 583.262,-551.693 587.955,-552.226 592.137,-551.804 596.032,-550.595 599.558,-548.681 602.629,-546.147 605.163,-543.076 607.076,-539.551 607.525,-538.104 607.279,-538.379 605.695,-539.877 604.939,-540.501 604.939,-540.502 604.216,-540.992 603.834,-541.333 603.833,-541.332 603.073,-541.851 601.779,-542.643 600.513,-543.32 598.821,-544.092 596.938,-544.796 594.69,-545.447 592.281,-545.936 590.104,-546.189 588.097,-546.268 586.58,-546.223 585.012,-546.082 583.404,-545.835 581.77,-545.471 579.967,-544.932 578.466,-544.377 576.879,-543.69 575.37,-542.936 573.94,-542.126 572.994,-541.534 572.992,-541.536 572.576,-541.193 572.196,-541.004 572.197,-541.003 571.307,-540.374 569.934,-539.315 568.543,-538.133 567.215,-536.894 565.956,-535.614 564.723,-534.243 563.563,-532.822 562.505,-531.388 561.752,-530.25 " transform="matrix(1, 0, 0, 1, 0, 0)" fill="#004080" fill-opacity="0.50" stroke="#004080" stroke-width="1" stroke-opacity="0.10" fill-rule="winding" ub:uuid="1e440351-e899-41ca-bcb8-efb2d4680ac4" ub:parent="ce320dfd-3559-4e4a-b69b-208ecb178be4"/>
        <polygon points="580.595,-550.877 581.643,-551.256 583.44,-551.779 585.152,-552.143 586.77,-552.375 588.291,-552.5 589.852,-552.536 591.689,-552.46 593.787,-552.203 595.989,-551.729 598.25,-551.008 600.513,-550.022 602.705,-548.774 604.756,-547.293 606.606,-545.628 608.219,-543.843 609.49,-542.133 610.423,-540.644 611.186,-539.232 611.596,-538.367 611.599,-538.373 613.012,-534.193 613.506,-529.67 613.425,-528.864 613.226,-529.359 612.555,-530.785 611.837,-532.144 610.948,-533.652 609.891,-535.234 608.601,-536.907 607.525,-538.104 607.076,-539.551 605.163,-543.076 602.629,-546.147 599.558,-548.681 596.032,-550.595 592.137,-551.804 587.955,-552.226 583.262,-551.693 579.979,-550.537 580.586,-550.88 580.595,-550.877 " transform="matrix(1, 0, 0, 1, 0, 0)" fill="#004080" fill-opacity="0.50" stroke="#004080" stroke-width="1" stroke-opacity="0.10" fill-rule="winding" ub:uuid="505e8495-6846-4a5b-83f6-3e53fc35e22b" ub:parent="ce320dfd-3559-4e4a-b69b-208ecb178be4"/>
        <polygon points="612.1,-537.178 612.435,-536.287 612.915,-534.783 613.297,-533.277 613.584,-531.781 613.781,-530.308 613.912,-528.42 613.916,-527.587 613.809,-527.908 613.425,-528.864 613.506,-529.67 613.012,-534.193 611.851,-537.627 612.103,-537.186 612.1,-537.178 " transform="matrix(1, 0, 0, 1, 0, 0)" fill="#004080" fill-opacity="0.50" stroke="#004080" stroke-width="1" stroke-opacity="0.10" fill-rule="winding" ub:uuid="cb31e132-25ca-42d2-b7ea-3364ddc2ebd5" ub:parent="ce320dfd-3559-4e4a-b69b-208ecb178be4"/>
        <polygon points="556.804,-518.615 556.779,-518.722 556.48,-520.563 556.315,-522.447 556.292,-524.348 556.41,-526.24 556.548,-527.348 556.546,-527.35 557.396,-531.028 558.866,-534.423 560.891,-537.471 563.408,-540.109 566.352,-542.272 569.66,-543.897 571.186,-544.329 570.484,-543.627 569.389,-542.505 568.182,-541.161 567.022,-539.739 565.964,-538.305 565.022,-536.882 564.026,-535.176 563.112,-533.394 562.311,-531.636 561.752,-530.25 561.564,-529.965 560.567,-528.258 559.653,-526.477 558.853,-524.718 558.029,-522.677 557.283,-520.454 556.804,-518.615 " transform="matrix(1, 0, 0, 1, 0, 0)" fill="#004080" fill-opacity="0.50" stroke="#004080" stroke-width="1" stroke-opacity="0.10" fill-rule="winding" ub:uuid="605ae561-417d-4571-bf86-7cba4c68dba5" ub:parent="ce320dfd-3559-4e4a-b69b-208ecb178be4"/>
        <polygon points="556.916,-529.316 557.201,-530.513 557.753,-532.72 558.236,-534.543 559.114,-537.07 560.132,-539.336 561.279,-541.424 562.508,-543.318 563.735,-544.967 564.992,-546.474 566.397,-547.972 567.999,-549.464 569.837,-550.932 571.951,-552.338 573.866,-553.381 575.699,-554.2 577.103,-554.714 578.578,-555.157 580.115,-555.515 581.032,-555.679 581.022,-555.68 584.444,-555.961 588.626,-555.539 592.522,-554.33 596.047,-552.417 597.442,-551.266 595.989,-551.729 593.787,-552.203 591.689,-552.46 589.852,-552.536 588.291,-552.5 586.77,-552.375 585.152,-552.143 583.44,-551.779 581.643,-551.256 580.595,-550.877 580.586,-550.88 579.979,-550.537 578.946,-550.174 578.952,-550.171 577.882,-549.633 575.993,-548.498 574.165,-547.145 572.625,-545.766 571.892,-545.036 571.186,-544.329 569.66,-543.897 566.352,-542.272 563.408,-540.109 560.891,-537.471 558.866,-534.423 557.396,-531.028 556.822,-528.547 556.912,-529.321 556.916,-529.316 " transform="matrix(1, 0, 0, 1, 0, 0)" fill="#004080" fill-opacity="0.50" stroke="#004080" stroke-width="1" stroke-opacity="0.10" fill-rule="winding" ub:uuid="661eda52-5a62-4a99-8722-fd99170fad80" ub:parent="ce320dfd-3559-4e4a-b69b-208ecb178be4"/>
        <polygon points="582.379,-555.858 583.323,-555.941 584.963,-555.996 586.603,-555.941 588.224,-555.779 589.811,-555.515 591.348,-555.157 592.822,-554.714 594.226,-554.2 596.059,-553.381 597.985,-552.331 599.814,-551.128 601.446,-549.857 602.554,-548.86 600.513,-550.022 598.25,-551.008 597.442,-551.266 596.047,-552.417 592.522,-554.33 588.626,-555.539 584.444,-555.961 581.77,-555.742 582.371,-555.859 582.379,-555.858 " transform="matrix(1, 0, 0, 1, 0, 0)" fill="#004080" fill-opacity="0.50" stroke="#004080" stroke-width="1" stroke-opacity="0.10" fill-rule="winding" ub:uuid="d9f93a2f-ec3b-4ffb-a6a7-8f1a949e6cb1" ub:parent="ce320dfd-3559-4e4a-b69b-208ecb178be4"/>
        <polygon points="560.87,-540.679 562.038,-543.539 564.022,-547.338 565.792,-550.156 567.561,-552.466 569.1,-554.133 570.147,-555.123 570.147,-555.123 573.143,-557.424 576.535,-559.155 580.252,-560.247 584.223,-560.626 588.406,-560.204 592.301,-558.995 595.826,-557.082 598.898,-554.548 601.432,-551.476 603.024,-548.544 602.705,-548.774 602.554,-548.86 601.446,-549.857 599.814,-551.128 597.985,-552.331 596.059,-553.381 594.226,-554.2 592.822,-554.714 591.348,-555.157 589.811,-555.515 588.224,-555.779 586.603,-555.941 584.963,-555.996 583.323,-555.941 582.379,-555.858 582.371,-555.859 581.77,-555.742 581.022,-555.68 581.032,-555.679 580.115,-555.515 578.578,-555.157 577.103,-554.714 575.699,-554.2 573.866,-553.381 571.951,-552.338 569.837,-550.932 567.999,-549.464 566.397,-547.972 564.992,-546.474 563.735,-544.967 562.508,-543.318 561.279,-541.424 560.87,-540.679 " transform="matrix(1, 0, 0, 1, 0, 0)" fill="#004080" fill-opacity="0.50" stroke="#004080" stroke-width="1" stroke-opacity="0.10" fill-rule="winding" ub:uuid="e830a63a-e6bb-47b1-9b8f-5059891204bd" ub:parent="ce320dfd-3559-4e4a-b69b-208ecb178be4"/>
        <polygon points="571.402,-556.192 572.21,-556.821 573.622,-557.811 575.193,-558.757 577.289,-559.783 579.806,-560.692 582.776,-561.357 586.152,-561.616 589.775,-561.316 593.384,-560.395 596.699,-558.926 599.524,-557.094 601.983,-554.919 603.515,-553.209 605.014,-551.182 606.278,-549.077 607.794,-545.698 608.584,-543.352 608.219,-543.843 606.606,-545.628 604.756,-547.293 603.024,-548.544 601.432,-551.476 598.898,-554.548 595.826,-557.082 592.301,-558.995 588.406,-560.204 584.223,-560.626 580.252,-560.247 576.535,-559.155 573.143,-557.424 570.907,-555.706 571.401,-556.192 571.402,-556.192 " transform="matrix(1, 0, 0, 1, 0, 0)" fill="#004080" fill-opacity="0.50" stroke="#004080" stroke-width="1" stroke-opacity="0.10" fill-rule="winding" ub:uuid="c2ba379e-744c-494c-bd70-513938cc0768" ub:parent="ce320dfd-3559-4e4a-b69b-208ecb178be4"/>
        <polygon points="563.15,-545.668 563.537,-547.022 564.441,-549.534 565.212,-551.225 565.89,-552.491 566.681,-553.785 567.6,-555.096 568.656,-556.408 570.164,-558.001 571.752,-559.415 573.78,-560.915 575.885,-562.179 578.016,-563.207 579.896,-563.931 582.236,-564.605 584.468,-565.014 586.779,-565.206 589.11,-565.167 590.394,-565.043 590.396,-565.045 594.15,-564.252 597.621,-562.816 600.741,-560.803 603.443,-558.281 605.661,-555.315 607.328,-551.974 608.377,-548.323 608.742,-544.43 608.627,-543.294 608.584,-543.352 607.794,-545.698 606.278,-549.077 605.014,-551.182 603.515,-553.209 601.983,-554.919 599.524,-557.094 596.699,-558.926 593.384,-560.395 589.775,-561.316 586.152,-561.616 582.776,-561.357 579.806,-560.692 577.289,-559.783 575.193,-558.757 573.622,-557.811 572.21,-556.821 571.402,-556.192 571.401,-556.192 570.907,-555.706 570.147,-555.123 570.147,-555.123 569.1,-554.133 567.561,-552.466 565.792,-550.156 564.022,-547.338 563.15,-545.668 " transform="matrix(1, 0, 0, 1, 0, 0)" fill="#004080" fill-opacity="0.50" stroke="#004080" stroke-width="1" stroke-opacity="0.10" fill-rule="winding" ub:uuid="fda63cfc-7ba3-4c32-abe5-a94818a0942a" ub:parent="ce320dfd-3559-4e4a-b69b-208ecb178be4"/>
        <polygon points="592.384,-564.712 593.596,-564.426 594.136,-564.255 591.516,-564.808 592.388,-564.716 592.384,-564.712 594.166,-564.246 595.652,-563.776 597.543,-562.99 599.258,-562.105 600.798,-561.157 602.273,-560.094 603.776,-558.825 605.273,-557.325 606.718,-555.581 608.054,-553.594 609.218,-551.393 610.154,-549.03 610.823,-546.578 611.321,-542.278 611.33,-538.927 611.186,-539.232 610.423,-540.644 609.49,-542.133 608.627,-543.294 608.742,-544.43 608.377,-548.323 607.328,-551.974 605.661,-555.315 603.443,-558.281 600.741,-560.803 597.621,-562.816 594.166,-564.246 592.384,-564.712 " transform="matrix(1, 0, 0, 1, 0, 0)" fill="#004080" fill-opacity="0.50" stroke="#004080" stroke-width="1" stroke-opacity="0.10" fill-rule="winding" ub:uuid="dca781ba-9df2-4cd3-b8c7-5050090e246d" ub:parent="ce320dfd-3559-4e4a-b69b-208ecb178be4"/>
        <polygon points="578.88,-563.539 579.141,-563.751 584.231,-565.979 589.926,-566.77 594.108,-566.348 598.004,-565.139 601.529,-563.225 604.6,-560.691 607.134,-557.62 609.048,-554.095 610.257,-550.199 610.504,-547.747 610.154,-549.03 609.218,-551.393 608.054,-553.594 606.718,-555.581 605.273,-557.325 603.776,-558.825 602.273,-560.094 600.798,-561.157 599.258,-562.105 597.543,-562.99 595.652,-563.776 594.166,-564.246 594.15,-564.252 594.136,-564.255 593.596,-564.426 592.384,-564.712 592.388,-564.716 591.516,-564.808 590.396,-565.045 590.394,-565.043 589.11,-565.167 586.779,-565.206 584.468,-565.014 582.236,-564.605 579.896,-563.931 578.88,-563.539 " transform="matrix(1, 0, 0, 1, 0, 0)" fill="#004080" fill-opacity="0.50" stroke="#004080" stroke-width="1" stroke-opacity="0.10" fill-rule="winding" ub:uuid="7a24db90-4eae-43ac-ae00-123423046aa1" ub:parent="ce320dfd-3559-4e4a-b69b-208ecb178be4"/>
        <polygon points="578.482,-563.386 578.674,-563.544 582.179,-565.442 585.515,-566.565 588.477,-567.097 591.016,-567.237 593.477,-567.106 596.166,-566.653 599.003,-565.799 601.852,-564.495 604.548,-562.762 606.935,-560.691 608.915,-558.425 610.463,-556.111 612.267,-552.203 613.438,-548.69 614.301,-544.817 614.493,-542.506 614.498,-541.209 614.498,-541.209 614.018,-537.087 613.071,-534.17 612.915,-534.783 612.435,-536.287 612.1,-537.178 612.103,-537.186 611.851,-537.627 611.599,-538.373 611.596,-538.367 611.33,-538.927 611.321,-542.278 610.823,-546.578 610.504,-547.747 610.257,-550.199 609.048,-554.095 607.134,-557.62 604.6,-560.691 601.529,-563.225 598.004,-565.139 594.108,-566.348 589.926,-566.77 584.231,-565.979 579.141,-563.751 578.88,-563.539 578.482,-563.386 " transform="matrix(1, 0, 0, 1, 0, 0)" fill="#004080" fill-opacity="0.50" stroke="#004080" stroke-width="1" stroke-opacity="0.10" fill-rule="winding" ub:uuid="cc465166-e91c-4b98-a840-a2e39c4faf96" ub:parent="ce320dfd-3559-4e4a-b69b-208ecb178be4"/>
        <polygon points="614.361,-539.15 614.188,-537.884 614.021,-537.113 614.464,-540.921 614.362,-539.148 614.361,-539.15 614.011,-537.064 613.713,-535.689 613.143,-533.885 613.071,-534.17 614.011,-537.064 614.361,-539.15 614.496,-541.597 614.501,-541.555 614.497,-541.489 614.496,-541.597 614.361,-539.15 " transform="matrix(1, 0, 0, 1, 0, 0)" fill="#004080" fill-opacity="0.50" stroke="#004080" stroke-width="1" stroke-opacity="0.10" fill-rule="winding" ub:uuid="11e2d06f-0235-4cf8-a1b6-3fcba816e3fc" ub:parent="ce320dfd-3559-4e4a-b69b-208ecb178be4"/>
    </g>
    <g ub:z-value="-999992" ub:fill-on-dark-background="#ff4400" ub:fill-on-light-background="#ff0000" ub:uuid="5c4aa7ac-64cd-49e0-8f87-8e0b97e5c153" ub:layer="-1000">
        <polygon points="-618.544,-963.2 -606.39,-964.561 -603.271,-964.699 -600.693,-964.676 -598.362,-964.525 -593.623,-964.094 -586.744,-963.569 -576.95,-962.669 -563.978,-961.113 -549.822,-959.001 -530.562,-955.759 -514.547,-953.18 -509.081,-952.068 -503.961,-950.824 -496.964,-948.942 -465.908,-943.377 -465.903,-943.434 -464.343,-943.38 -462.236,-943.377 -460.171,-943.377 -456.132,-942.561 -452.834,-940.338 -450.61,-937.039 -449.794,-933 -450.61,-928.961 -452.834,-925.663 -456.132,-923.44 -460.171,-922.624 -462.256,-922.624 -464.689,-922.63 -466.89,-922.705 -469.479,-922.935 -500.957,-928.577 -509.127,-930.724 -513.605,-931.815 -518.049,-932.726 -533.94,-935.283 -553.107,-938.51 -566.759,-940.548 -579.175,-942.036 -588.508,-942.891 -595.326,-943.412 -600.099,-943.845 -601.434,-943.937 -602.937,-943.949 -604.315,-943.913 -616.233,-942.577 -616.229,-942.576 -617.389,-942.512 -621.428,-943.327 -624.726,-945.551 -626.949,-948.849 -627.765,-952.888 -627.054,-956.671 -625.1,-959.831 -622.175,-962.098 -618.548,-963.2 -618.544,-963.2 " transform="matrix(1, 0, 0, 1, 0, 0)" fill="#ff0000" fill-opacity="0.50" stroke="#ff0000" stroke-width="1" stroke-opacity="0.10" fill-rule="winding" ub:uuid="e3105f1c-c807-4869-947f-6e734ef2274c" ub:parent="5c4aa7ac-64cd-49e0-8f87-8e0b97e5c153"/>
        <polygon points="-460.16,-943.374 -459.873,-943.37 -460.05,-943.352 -456.132,-942.561 -452.834,-940.338 -450.61,-937.039 -449.794,-933 -450.61,-928.961 -452.834,-925.663 -456.132,-923.44 -460.171,-922.624 -460.065,-922.625 -460.066,-922.625 -458.756,-922.648 -457.021,-922.843 -455.553,-923.15 -454.197,-923.536 -453.358,-923.827 -449.961,-924.908 -450.008,-924.866 -449.47,-924.955 -448.736,-925.035 -446.686,-925.154 -442.721,-925.218 -438.411,-925.154 -434.556,-924.964 -430.97,-924.656 -425.219,-924.114 -411.822,-923.47 -407.006,-923.108 -404.983,-922.837 -393.501,-921.801 -393.502,-921.801 -393.039,-921.77 -392.569,-921.759 -388.53,-922.575 -385.232,-924.799 -383.008,-928.097 -382.193,-932.136 -382.924,-935.969 -384.929,-939.157 -387.927,-941.418 -391.637,-942.471 -391.638,-942.47 -402.983,-943.493 -405.111,-943.774 -410.671,-944.191 -423.941,-944.827 -429.085,-945.323 -433.178,-945.671 -437.762,-945.897 -442.721,-945.971 -447.334,-945.897 -450.265,-945.731 -452.159,-945.533 -453.758,-945.277 -455.811,-944.819 -459.737,-943.575 -460.304,-943.377 -460.171,-943.377 -460.16,-943.374 " transform="matrix(1, 0, 0, 1, 0, 0)" fill="#ff0000" fill-opacity="0.50" stroke="#ff0000" stroke-width="1" stroke-opacity="0.10" fill-rule="winding" ub:uuid="c5193015-bfe6-417a-841b-c9f6396a3e10" ub:parent="5c4aa7ac-64cd-49e0-8f87-8e0b97e5c153"/>
        <polygon points="-392.103,-942.512 -350.372,-942.512 -321.244,-942.512 -320.164,-942.536 -319.15,-942.606 -318.186,-942.719 -317.27,-942.873 -316.373,-943.073 -314.579,-943.546 -311.931,-944.324 -308.346,-945.501 -304.13,-946.989 -300.913,-948.203 -297.919,-949.408 -294.289,-950.967 -289.303,-953.17 -286.362,-954.577 -286.365,-954.578 -284.219,-955.328 -281.889,-955.59 -277.85,-954.775 -274.552,-952.551 -272.328,-949.253 -271.513,-945.214 -271.944,-942.244 -273.154,-939.611 -275.019,-937.438 -277.413,-935.85 -277.416,-935.852 -280.701,-934.284 -285.987,-931.947 -289.932,-930.255 -293.379,-928.866 -297.037,-927.486 -301.641,-925.861 -305.726,-924.521 -308.957,-923.57 -311.392,-922.927 -313.296,-922.505 -315.251,-922.175 -317.228,-921.942 -319.222,-921.805 -321.221,-921.759 -350.372,-921.759 -392.569,-921.759 -388.53,-922.575 -385.232,-924.799 -383.008,-928.097 -382.193,-932.136 -382.924,-935.969 -384.929,-939.157 -387.927,-941.418 -391.637,-942.471 -391.638,-942.47 -392.103,-942.512 " transform="matrix(1, 0, 0, 1, 0, 0)" fill="#ff0000" fill-opacity="0.50" stroke="#ff0000" stroke-width="1" stroke-opacity="0.10" fill-rule="winding" ub:uuid="8eb95cb5-1dce-45e2-855a-8e357306f6e2" ub:parent="5c4aa7ac-64cd-49e0-8f87-8e0b97e5c153"/>
        <polygon points="-286.504,-954.509 -284.055,-955.77 -275.268,-959.913 -273.351,-960.604 -268.796,-962.543 -268.315,-962.836 -266.305,-963.957 -259.767,-967.371 -258.59,-968.049 -258.017,-968.417 -255.998,-969.73 -254.101,-970.672 -253.069,-971.055 -252.013,-971.368 -250.943,-971.61 -249.868,-971.779 -248.482,-971.894 -246.944,-971.911 -244.828,-971.911 -241.94,-971.911 -237.901,-971.096 -234.603,-968.872 -232.379,-965.574 -231.564,-961.535 -232.379,-957.496 -234.603,-954.198 -237.901,-951.974 -241.94,-951.159 -244.828,-951.159 -246.491,-951.159 -245.099,-952.07 -246.243,-951.465 -246.506,-951.367 -246.775,-951.287 -247.04,-951.227 -247.294,-951.187 -247.841,-951.151 -246.863,-951.159 -246.491,-951.159 -246.754,-950.987 -247.98,-950.213 -250.019,-949.05 -256.582,-945.624 -258.282,-944.67 -260.29,-943.614 -265.541,-941.377 -266.719,-941.004 -275.054,-937.071 -277.126,-935.996 -277.124,-935.994 -277.29,-935.932 -275.019,-937.438 -273.154,-939.611 -271.944,-942.244 -271.513,-945.214 -272.328,-949.253 -274.552,-952.551 -277.85,-954.775 -281.889,-955.59 -284.219,-955.328 -286.365,-954.578 -286.362,-954.577 -286.504,-954.509 " transform="matrix(1, 0, 0, 1, 0, 0)" fill="#ff0000" fill-opacity="0.50" stroke="#ff0000" stroke-width="1" stroke-opacity="0.10" fill-rule="winding" ub:uuid="7c3daa98-6b95-4abd-8644-8c1869d07e48" ub:parent="5c4aa7ac-64cd-49e0-8f87-8e0b97e5c153"/>
        <polygon points="-241.94,-971.911 -226.376,-971.911 -217.71,-971.853 -177.989,-977.106 -176.631,-977.473 -173.193,-978.344 -168.4,-979.672 -162.316,-981.298 -155.404,-982.952 -147.835,-984.776 -143.398,-985.79 -140.66,-986.278 -136.943,-986.776 -132.607,-987.159 -122.08,-988.57 -117.319,-989.084 -115.074,-989.194 -112.81,-989.205 -110.3,-989.205 -106.261,-988.39 -102.963,-986.166 -100.739,-982.868 -99.9236,-978.829 -100.739,-974.79 -102.963,-971.492 -106.261,-969.268 -110.3,-968.453 -112.77,-968.453 -114.623,-968.447 -115.421,-968.418 -119.48,-967.981 -130.12,-966.556 -134.708,-966.144 -137.554,-965.759 -139.105,-965.486 -143.056,-964.581 -150.558,-962.773 -157.239,-961.176 -162.958,-959.646 -167.84,-958.294 -171.666,-957.323 -175.151,-956.548 -215.517,-951.217 -226.376,-951.159 -241.94,-951.159 -237.901,-951.974 -234.603,-954.198 -232.379,-957.496 -231.564,-961.535 -232.379,-965.574 -234.603,-968.872 -237.901,-971.096 -241.94,-971.911 -245.418,-951.861 -245.472,-951.872 -245.099,-952.07 -245.418,-951.861 -241.94,-971.911 " transform="matrix(1, 0, 0, 1, 0, 0)" fill="#ff0000" fill-opacity="0.50" stroke="#ff0000" stroke-width="1" stroke-opacity="0.10" fill-rule="winding" ub:uuid="6b9cddec-de7e-46a4-9dc1-1406cc601696" ub:parent="5c4aa7ac-64cd-49e0-8f87-8e0b97e5c153"/>
        <polygon points="-110.267,-989.205 -107.347,-989.195 -105.514,-989.088 -103.691,-988.883 -101.161,-988.468 -98.4576,-987.886 -96.4873,-987.359 -94.6524,-986.763 -92.858,-986.055 -91.0795,-985.194 -89.664,-984.376 -85.8717,-982.351 -79.3551,-979.089 -68.6876,-974.116 -68.1928,-973.937 -66.8097,-973.424 -64.9718,-972.81 -61.6645,-971.828 -57.3293,-970.653 -54.6022,-970.018 -54.6,-970.02 -51.4094,-968.681 -48.8697,-966.41 -47.1914,-963.417 -46.5852,-959.914 -47.4006,-955.875 -49.6243,-952.577 -52.9225,-950.353 -56.9614,-949.538 -59.3229,-949.808 -59.3207,-949.809 -62.4821,-950.55 -67.304,-951.856 -71.1304,-952.993 -73.6505,-953.831 -75.5619,-954.537 -77.3499,-955.258 -88.3255,-960.376 -95.3414,-963.885 -99.5993,-966.157 -100.916,-966.921 -101.144,-967.029 -101.632,-967.22 -102.357,-967.454 -103.223,-967.688 -105.05,-968.083 -106.645,-968.342 -107.312,-968.414 -107.762,-968.446 -110.313,-968.453 -110.3,-968.453 -106.261,-969.268 -102.963,-971.492 -100.739,-974.79 -99.9236,-978.829 -100.739,-982.868 -102.963,-986.166 -106.261,-988.39 -110.3,-989.205 -110.267,-989.205 -110.267,-989.205 " transform="matrix(1, 0, 0, 1, 0, 0)" fill="#ff0000" fill-opacity="0.50" stroke="#ff0000" stroke-width="1" stroke-opacity="0.10" fill-rule="winding" ub:uuid="ab6c4b64-e7c9-44ff-a928-9f57e798745d" ub:parent="5c4aa7ac-64cd-49e0-8f87-8e0b97e5c153"/>
        <polygon points="-54.7569,-970.054 -52.0739,-969.511 -48.2395,-968.865 -44.633,-968.349 -41.3359,-967.969 -38.9728,-967.78 -36.271,-967.653 -32.0045,-967.588 -28.8547,-967.656 -25.8113,-967.858 -22.7941,-968.201 -17.1186,-969.003 -8.63385,-969.886 -4.84264,-970.438 -1.99506,-970.998 1.03083,-971.701 4.86109,-972.674 9.25101,-973.931 15.5702,-975.745 21.8849,-977.56 21.88,-977.562 24.7517,-977.964 28.7907,-977.149 32.0889,-974.925 34.3126,-971.627 35.128,-967.588 34.5647,-964.207 33.0005,-961.292 30.6239,-959.032 27.6235,-957.614 27.6186,-957.616 21.3002,-955.799 14.969,-953.982 10.2883,-952.644 5.95587,-951.542 2.34958,-950.706 -1.41772,-949.97 -6.20423,-949.276 -14.6674,-948.395 -20.1032,-947.623 -23.9603,-947.188 -27.9467,-946.923 -31.9825,-946.835 -36.8472,-946.909 -40.2673,-947.068 -43.4037,-947.319 -47.3008,-947.769 -51.4419,-948.361 -55.8048,-949.097 -59.0132,-949.742 -59.0152,-949.741 -59.1299,-949.785 -56.9614,-949.538 -52.9225,-950.353 -49.6243,-952.577 -47.4006,-955.875 -46.5852,-959.914 -47.1914,-963.417 -48.8697,-966.41 -51.4094,-968.681 -54.6,-970.02 -54.6022,-970.018 -54.7569,-970.054 " transform="matrix(1, 0, 0, 1, 0, 0)" fill="#ff0000" fill-opacity="0.50" stroke="#ff0000" stroke-width="1" stroke-opacity="0.10" fill-rule="winding" ub:uuid="2611c7c5-c158-40c8-b4ca-f55903171e01" ub:parent="5c4aa7ac-64cd-49e0-8f87-8e0b97e5c153"/>
        <polygon points="21.6889,-977.504 23.6459,-978.151 28.6996,-979.985 37.2244,-982.863 44.7513,-985.423 54.2844,-988.837 63.8996,-991.864 64.3875,-992.045 65.5559,-992.529 67.5222,-993.483 70.4914,-994.864 73.1813,-996.025 74.9756,-996.695 76.7009,-997.237 78.4499,-997.686 79.2358,-997.822 110.588,-1006.48 113.644,-1006.94 114.98,-1007.14 116.608,-1007.48 116.602,-1007.48 118.679,-1007.69 122.718,-1006.87 126.016,-1004.65 128.24,-1001.35 129.055,-997.312 128.424,-993.74 126.68,-990.705 124.049,-988.431 120.755,-987.143 120.75,-987.144 118.642,-986.718 116.381,-986.369 115.952,-986.436 84.7094,-977.804 83.0741,-977.456 82.4021,-977.283 81.7062,-977.064 81.0794,-976.834 79.0049,-975.938 76.3968,-974.724 74.1434,-973.637 72.0173,-972.746 70.2224,-972.098 60.901,-969.167 51.6098,-965.836 43.8835,-963.208 35.5036,-960.379 30.5528,-958.581 28.0167,-957.739 28.0212,-957.737 27.8133,-957.704 30.6239,-959.032 33.0005,-961.292 34.5647,-964.207 35.128,-967.588 34.3126,-971.627 32.0889,-974.925 28.7907,-977.149 24.7517,-977.964 21.88,-977.562 21.8849,-977.56 21.6889,-977.504 " transform="matrix(1, 0, 0, 1, 0, 0)" fill="#ff0000" fill-opacity="0.50" stroke="#ff0000" stroke-width="1" stroke-opacity="0.10" fill-rule="winding" ub:uuid="d47d166a-495f-401f-81d2-486079ad4616" ub:parent="5c4aa7ac-64cd-49e0-8f87-8e0b97e5c153"/>
        <polygon points="116.325,-1007.42 118.805,-1008.07 131.7,-1011.75 134.581,-1012.39 137.978,-1013.05 141.277,-1013.55 145.434,-1014.03 154.984,-1015.65 159.746,-1016.25 171.446,-1017.95 174.94,-1018.4 177.163,-1018.56 179.116,-1018.59 189.245,-1019.24 193.639,-1019.46 195.709,-1019.47 202.77,-1019.47 210.397,-1019.47 211.682,-1019.49 212.777,-1019.58 212.774,-1019.58 213.158,-1019.6 213.544,-1019.61 217.583,-1018.79 220.881,-1016.57 223.105,-1013.27 223.92,-1009.23 223.174,-1005.36 221.131,-1002.15 218.08,-999.896 214.314,-998.883 214.31,-998.884 212.604,-998.762 210.474,-998.717 202.77,-998.717 195.719,-998.717 194.39,-998.719 190.484,-998.523 180.275,-997.873 177.982,-997.826 177.231,-997.777 174.361,-997.402 162.619,-995.7 158.172,-995.139 148.561,-993.513 143.967,-992.976 141.533,-992.601 138.73,-992.061 137.219,-991.741 124.415,-988.087 121.3,-987.272 121.305,-987.271 120.972,-987.228 124.049,-988.431 126.68,-990.705 128.424,-993.74 129.055,-997.312 128.24,-1001.35 126.016,-1004.65 122.718,-1006.87 118.679,-1007.69 116.602,-1007.48 116.608,-1007.48 116.325,-1007.42 " transform="matrix(1, 0, 0, 1, 0, 0)" fill="#ff0000" fill-opacity="0.50" stroke="#ff0000" stroke-width="1" stroke-opacity="0.10" fill-rule="winding" ub:uuid="7dbade40-a11f-4632-aa54-6f3e45f951f6" ub:parent="5c4aa7ac-64cd-49e0-8f87-8e0b97e5c153"/>
        <polygon points="212.566,-1019.56 214.728,-1019.8 218.661,-1020.38 221.215,-1020.83 223.195,-1021.27 225.147,-1021.75 237.108,-1023.62 239.939,-1023.77 242.411,-1023.79 245.248,-1023.79 248.256,-1023.79 249.883,-1023.74 251.71,-1023.58 254.2,-1023.22 256.875,-1022.69 259.555,-1022.05 262.251,-1021.31 265.344,-1020.35 274.152,-1017.83 288.614,-1014.23 288.616,-1014.24 291.753,-1012.87 294.246,-1010.6 295.891,-1007.63 296.485,-1004.16 295.669,-1000.13 293.446,-996.827 290.148,-994.604 286.109,-993.788 283.601,-994.093 283.603,-994.095 268.874,-997.761 259.523,-1000.43 256.39,-1001.4 254.417,-1001.94 252.428,-1002.42 250.666,-1002.77 249.188,-1002.98 248.628,-1003.02 248.076,-1003.04 245.248,-1003.04 242.481,-1003.04 240.309,-1003.02 240.028,-1003.07 228.582,-1001.28 227.975,-1001.07 225.208,-1000.47 221.925,-999.884 217.469,-999.231 214.695,-998.919 214.7,-998.919 214.38,-998.901 218.08,-999.896 221.131,-1002.15 223.174,-1005.36 223.92,-1009.23 223.105,-1013.27 220.881,-1016.57 217.583,-1018.79 213.544,-1019.61 213.158,-1019.6 212.774,-1019.58 212.777,-1019.58 212.566,-1019.56 " transform="matrix(1, 0, 0, 1, 0, 0)" fill="#ff0000" fill-opacity="0.50" stroke="#ff0000" stroke-width="1" stroke-opacity="0.10" fill-rule="winding" ub:uuid="83f9d973-e58d-4d03-9905-78e529cb4ebb" ub:parent="5c4aa7ac-64cd-49e0-8f87-8e0b97e5c153"/>
        <polygon points="288.562,-1014.25 288.615,-1014.23 288.614,-1014.23 288.562,-1014.25 288.626,-1014.23 304.968,-1010.34 318.015,-1006.92 321.883,-1005.79 325.346,-1004.68 328.576,-1003.58 332.189,-1002.28 334.802,-1001.39 335.761,-1001.13 338.044,-1000.62 341.76,-999.987 345.245,-999.47 350.898,-998.752 353.628,-998.291 355.879,-997.816 362.653,-996.47 363.305,-996.404 364.899,-996.233 366.106,-996.14 366.697,-996.118 366.698,-996.118 370.585,-995.188 373.744,-992.944 375.866,-989.695 376.642,-985.751 375.826,-981.712 373.602,-978.414 370.304,-976.19 366.265,-975.375 365.833,-975.383 365.833,-975.384 364.764,-975.431 362.962,-975.571 360.924,-975.789 358.844,-976.07 351.774,-977.473 349.745,-977.905 348.039,-978.197 342.46,-978.906 338.474,-979.496 334.132,-980.243 330.915,-980.953 328.554,-981.598 325.313,-982.701 321.705,-983.997 318.848,-984.971 315.808,-985.942 312.621,-986.881 299.96,-990.204 283.707,-994.07 283.705,-994.068 283.663,-994.086 286.109,-993.788 290.148,-994.604 293.446,-996.827 295.669,-1000.13 296.485,-1004.16 295.891,-1007.63 294.246,-1010.6 291.753,-1012.87 288.626,-1014.23 288.562,-1014.25 288.498,-1014.26 288.512,-1014.26 288.511,-1014.26 288.498,-1014.26 288.562,-1014.25 " transform="matrix(1, 0, 0, 1, 0, 0)" fill="#ff0000" fill-opacity="0.50" stroke="#ff0000" stroke-width="1" stroke-opacity="0.10" fill-rule="winding" ub:uuid="a0b86020-d55a-4d81-a0d2-040fa277132b" ub:parent="5c4aa7ac-64cd-49e0-8f87-8e0b97e5c153"/>
        <polygon points="366.47,-996.127 367.679,-996.123 369.741,-996.123 372.893,-996.121 376.737,-996.003 378.559,-995.824 379.626,-995.652 385.389,-995.241 386.171,-995.258 388.938,-995.258 399.566,-995.255 421.459,-994.495 431.152,-994.174 434.421,-993.827 438.528,-993.177 443.687,-992.158 448.9,-991.115 453.077,-990.365 454.152,-990.252 456.887,-990.085 456.887,-990.085 460.7,-989.102 463.791,-986.85 465.864,-983.626 466.621,-979.728 465.806,-975.689 463.582,-972.391 460.284,-970.167 456.245,-969.352 455.922,-969.357 455.603,-969.372 455.603,-969.372 452.475,-969.568 449.815,-969.87 445.017,-970.728 439.637,-971.804 434.835,-972.756 431.548,-973.274 430.149,-973.445 420.749,-973.755 399.078,-974.508 388.938,-974.506 386.171,-974.506 384.185,-974.523 377.843,-974.976 375.875,-975.246 375.76,-975.274 372.548,-975.372 369.741,-975.37 367.653,-975.37 366.233,-975.375 366.233,-975.375 366.23,-975.375 366.265,-975.375 370.304,-976.19 373.602,-978.414 375.826,-981.712 376.642,-985.751 375.866,-989.695 373.744,-992.944 370.585,-995.188 366.698,-996.118 366.697,-996.118 366.47,-996.127 " transform="matrix(1, 0, 0, 1, 0, 0)" fill="#ff0000" fill-opacity="0.50" stroke="#ff0000" stroke-width="1" stroke-opacity="0.10" fill-rule="winding" ub:uuid="49a0cb94-5a96-4362-9521-88696d506ab1" ub:parent="5c4aa7ac-64cd-49e0-8f87-8e0b97e5c153"/>
        <polygon points="456.621,-990.101 459.367,-990.07 464.511,-990.07 471.786,-990.07 481.265,-990.052 486.82,-989.845 490.293,-989.6 493.68,-989.261 497.812,-988.668 507.103,-986.948 522.159,-983.999 522.523,-984.013 527.941,-983.697 532.437,-983.054 537.286,-981.85 549.464,-977.673 601.474,-966.342 609.615,-965.194 632.899,-964.98 634.524,-964.838 634.526,-964.839 638.042,-963.668 640.868,-961.396 642.75,-958.277 643.433,-954.566 642.618,-950.527 640.394,-947.229 637.096,-945.005 633.057,-944.19 632.465,-944.231 632.67,-944.229 631.589,-944.294 631.588,-944.293 632.465,-944.231 608.638,-944.465 597.298,-946.014 544.585,-957.503 530.987,-962.077 528.443,-962.689 526.047,-963.031 521.192,-963.303 518.374,-963.594 503.192,-966.568 494.272,-968.22 491.141,-968.665 488.536,-968.922 485.783,-969.118 480.962,-969.301 471.764,-969.317 464.511,-969.317 459.28,-969.317 456.128,-969.353 456.128,-969.353 456.123,-969.354 456.245,-969.352 460.284,-970.167 463.582,-972.391 465.806,-975.689 466.621,-979.728 465.864,-983.626 463.791,-986.85 460.7,-989.102 456.887,-990.085 456.887,-990.085 456.621,-990.101 " transform="matrix(1, 0, 0, 1, 0, 0)" fill="#ff0000" fill-opacity="0.50" stroke="#ff0000" stroke-width="1" stroke-opacity="0.10" fill-rule="winding" ub:uuid="5119f996-792f-4343-a2ba-7991ff551224" ub:parent="5c4aa7ac-64cd-49e0-8f87-8e0b97e5c153"/>
        <polygon points="635.39,-964.676 636.068,-964.512 637.081,-964.195 638.013,-963.831 639.122,-963.303 640.543,-962.477 642.545,-961.087 648.398,-958.081 647.057,-958.085 647.971,-958.031 648.526,-957.935 648.666,-957.893 648.865,-957.829 649.224,-957.657 648.398,-958.081 650.274,-958.076 650.274,-958.076 654.303,-957.253 657.593,-955.028 659.81,-951.733 660.623,-947.7 659.808,-943.661 657.584,-940.363 654.286,-938.139 650.247,-937.324 650.22,-937.324 650.22,-937.324 646.856,-937.333 645.397,-937.439 644.281,-937.621 642.965,-937.939 641.521,-938.419 639.847,-939.144 632.44,-942.961 630.486,-944.25 632.465,-944.231 633.057,-944.19 637.096,-945.005 640.394,-947.229 642.618,-950.527 643.433,-954.566 642.75,-958.277 640.868,-961.396 638.042,-963.668 634.811,-964.744 635.392,-964.678 635.39,-964.676 632.465,-944.231 632.67,-944.229 631.589,-944.294 631.588,-944.293 632.465,-944.231 635.39,-964.676 " transform="matrix(1, 0, 0, 1, 0, 0)" fill="#ff0000" fill-opacity="0.50" stroke="#ff0000" stroke-width="1" stroke-opacity="0.10" fill-rule="winding" ub:uuid="b1a8aba3-0392-4b22-95a6-9c53b2b07bdc" ub:parent="5c4aa7ac-64cd-49e0-8f87-8e0b97e5c153"/>
    </g>
</svg>
