<?xml version="1.0" encoding="UTF-8"?>
<svg xmlns="http://www.w3.org/2000/svg" xmlns:xlink="http://www.w3.org/1999/xlink" xmlns:ub="http://uniboard.mnemis.com/document" xmlns:xhtml="http://www.w3.org/1999/xhtml" version="1.1" ub:version="4.8.0" ub:uuid="fecd8f16-a22c-432d-b6ba-1d249da4bcca" viewBox="-721 -919 1443 1838" ub:nominal-size="1343x1738" ub:dark-background="false" ub:crossed-background="true" ub:ruled-background="false" ub:grid-size="55" ub:intermediate-lines="0" pageDpi="158">
    <rect fill="white" x="-721" y="-919" width="1443" height="1838"/>
    <image xlink:href="images/{4a80940c-4e73-49ea-b1f1-7e66d5028d1b}.png" x="0" y="0" width="449" height="50" transform="matrix(1.71429, 0, 0, 1.71429, -419.228, -153.321)" ub:z-value="-999995.000000" ub:background="false" ub:uuid="4a80940c-4e73-49ea-b1f1-7e66d5028d1b" ub:source="/Users/khale/AppData/Local/OpenBoard/document/OpenBoard Document 2023-06-24 22-43-15.617/images/{73b19168-1ea8-4e9d-85f0-0fe51c6aa476}.png" ub:layer="-1000"/>
    <g ub:z-value="-999970" ub:fill-on-dark-background="#ffffff" ub:fill-on-light-background="#000000" ub:uuid="449b5479-d940-432b-8268-51a82a136a9f" ub:layer="-1000">
        <polygon points="-85.172,-843.505 -85.172,-842.208 -85.5518,-841.291 -86.469,-840.911 -87.3861,-841.291 -87.766,-842.208 -87.766,-843.505 -87.3861,-844.422 -86.469,-844.802 -85.5518,-844.422 -85.172,-843.505 " transform="matrix(1, 0, 0, 1, 0, 0)" fill="#000000" fill-opacity="1.00" fill-rule="evenodd" ub:uuid="dcd767d3-1dfd-41ec-a0c8-d340eeb46df0" ub:parent="449b5479-d940-432b-8268-51a82a136a9f"/>
    </g>
    <g ub:z-value="-999999" ub:fill-on-dark-background="#ffffff" ub:fill-on-light-background="#000000" ub:uuid="9e9fea4e-85f0-45bf-a557-738224954696" ub:layer="-1000">
        <polygon points="584.963,-825.775 584.924,-812.837 584.847,-811.909 584.734,-811.083 584.587,-810.308 584.232,-808.597 584.161,-808.01 584.114,-807.395 584.098,-806.406 584.098,-804.84 584.106,-803.502 584.12,-803.411 584.145,-803.271 584.179,-803.142 584.221,-803.022 584.272,-802.909 584.333,-802.8 584.403,-802.694 584.486,-802.589 584.577,-802.49 584.669,-802.407 584.766,-802.335 584.877,-802.269 585.007,-802.206 585.157,-802.15 585.329,-802.1 585.525,-802.058 585.746,-802.027 585.962,-802.008 586.572,-802.004 587.154,-802.035 587.698,-802.095 588.2,-802.184 588.656,-802.297 589.398,-802.54 590.692,-802.971 592.508,-803.576 594.058,-804.093 594.233,-804.158 594.396,-804.232 594.552,-804.318 594.704,-804.415 594.853,-804.526 594.999,-804.651 595.142,-804.791 595.283,-804.948 595.401,-805.094 595.689,-805.521 595.917,-805.952 595.985,-806.113 596.054,-806.301 596.109,-806.485 596.151,-806.664 596.18,-806.841 596.196,-806.972 596.204,-807.712 596.204,-809.255 596.188,-810.243 596.146,-810.648 596.073,-811.084 595.971,-811.523 595.834,-811.978 595.492,-813.004 594.973,-814.56 594.558,-815.805 594.541,-815.857 594.541,-815.857 594.491,-816.057 594.474,-816.267 594.854,-817.184 595.771,-817.564 597.002,-816.678 597.002,-816.677 597.019,-816.626 597.434,-815.38 597.953,-813.824 598.303,-812.774 598.477,-812.192 598.617,-811.593 598.717,-810.991 598.779,-810.359 598.798,-809.272 598.798,-807.702 598.788,-806.885 598.752,-806.498 598.695,-806.155 598.616,-805.816 598.515,-805.481 598.394,-805.15 598.237,-804.792 597.912,-804.185 597.517,-803.593 597.263,-803.272 597.015,-802.996 596.752,-802.739 596.474,-802.5 596.181,-802.282 595.875,-802.086 595.556,-801.912 595.225,-801.761 594.891,-801.636 593.328,-801.115 591.512,-800.51 590.212,-800.077 589.389,-799.809 588.738,-799.646 588.064,-799.527 587.363,-799.449 586.631,-799.41 585.883,-799.415 585.459,-799.448 585.075,-799.503 584.7,-799.583 584.336,-799.689 583.985,-799.822 583.647,-799.985 583.327,-800.177 583.026,-800.399 582.754,-800.645 582.517,-800.901 582.305,-801.168 582.117,-801.451 581.952,-801.748 581.813,-802.059 581.7,-802.379 581.613,-802.709 581.552,-803.044 581.513,-803.446 581.504,-804.832 581.504,-806.423 581.522,-807.499 581.58,-808.268 581.681,-809.065 582.044,-810.822 582.174,-811.499 582.269,-812.195 582.33,-812.858 582.369,-825.783 582.369,-825.783 582.75,-826.697 583.666,-827.076 584.583,-826.696 584.963,-825.779 584.963,-825.775 584.963,-825.775 " transform="matrix(1, 0, 0, 1, 0, 0)" fill="#000000" fill-opacity="1.00" fill-rule="winding" ub:uuid="aaecff27-5812-4140-94b3-8f596ccd6ea3" ub:parent="9e9fea4e-85f0-45bf-a557-738224954696"/>
        <polygon points="597.068,-816.267 597.068,-816.164 597.068,-815.333 597.068,-813.159 597.068,-810.251 597.051,-804.282 596.844,-802.212 596.349,-799.244 596.206,-797.176 596.131,-795.051 595.907,-793.404 595.478,-791.327 595.354,-790.071 595.264,-787.883 594.882,-785.32 594.176,-782.351 593.983,-781.725 593.983,-781.725 592.745,-780.815 591.828,-781.195 591.448,-782.112 591.507,-782.499 591.507,-782.499 591.66,-782.98 592.337,-785.822 592.682,-788.136 592.765,-790.236 592.918,-791.747 593.353,-793.856 593.544,-795.252 593.616,-797.313 593.775,-799.568 594.275,-802.574 594.457,-804.352 594.474,-810.256 594.474,-813.159 594.474,-815.333 594.474,-816.164 594.474,-816.267 594.854,-817.184 595.771,-817.564 596.688,-817.184 597.068,-816.267 " transform="matrix(1, 0, 0, 1, 0, 0)" fill="#000000" fill-opacity="1.00" fill-rule="winding" ub:uuid="f54befdd-427a-4160-8a06-633366a09e2a" ub:parent="9e9fea4e-85f0-45bf-a557-738224954696"/>
    </g>
    <g ub:z-value="-999998" ub:fill-on-dark-background="#ffffff" ub:fill-on-light-background="#000000" ub:uuid="926f3905-1427-4d11-b27e-6e7421be29df" ub:layer="-1000">
        <polygon points="589.719,-839.182 589.307,-839.182 589.384,-839.188 589.418,-839.197 589.176,-839.121 588.823,-838.98 588.021,-838.61 587.42,-838.304 586.891,-837.982 586.415,-837.624 586.243,-837.47 586.061,-837.292 585.896,-837.11 585.77,-836.957 585.228,-836.16 583.358,-833.355 580.823,-829.448 579.51,-827.267 578.754,-825.919 577.731,-823.976 576.71,-821.9 575.427,-819.099 574.143,-816.081 572.857,-812.844 571.849,-810.128 571.177,-808.098 570.58,-806.067 570.064,-804.042 569.801,-802.758 569.603,-801.504 569.472,-800.29 569.407,-799.125 569.415,-797.366 569.503,-795.607 569.667,-793.846 569.905,-792.093 570.212,-790.428 570.9,-787.777 571.789,-785.36 572.633,-783.609 573.608,-781.984 574.664,-780.546 578.977,-776.097 578.977,-776.097 579.342,-775.195 578.962,-774.277 578.045,-773.897 577.114,-774.292 577.114,-774.292 572.745,-778.801 571.449,-780.545 570.349,-782.379 569.394,-784.364 568.424,-787.005 567.685,-789.845 567.344,-791.682 567.089,-793.551 566.916,-795.422 566.822,-797.295 566.813,-799.176 566.886,-800.502 567.032,-801.847 567.249,-803.222 567.539,-804.636 568.078,-806.753 568.701,-808.872 569.403,-810.993 570.436,-813.776 571.744,-817.067 573.054,-820.146 574.365,-823.008 575.419,-825.152 576.472,-827.152 577.272,-828.579 578.631,-830.834 581.189,-834.778 583.072,-837.603 583.654,-838.458 583.926,-838.798 584.193,-839.091 584.478,-839.371 584.807,-839.659 585.438,-840.13 586.155,-840.569 586.893,-840.946 587.777,-841.354 588.29,-841.559 588.705,-841.691 588.99,-841.752 589.265,-841.775 589.719,-841.776 590.636,-841.396 591.016,-840.479 590.636,-839.561 589.719,-839.182 " transform="matrix(1, 0, 0, 1, 0, 0)" fill="#000000" fill-opacity="1.00" fill-rule="winding" ub:uuid="09bf70f8-c30b-4d43-abfa-65d05b00e6bf" ub:parent="926f3905-1427-4d11-b27e-6e7421be29df"/>
    </g>
    <g ub:z-value="-999997" ub:fill-on-dark-background="#66c0ff" ub:fill-on-light-background="#004080" ub:uuid="61871ae1-567e-4401-adf5-55dcdddcbefb" ub:layer="-1000">
        <polygon points="563.765,-799.309 562.59,-801.095 561.697,-802.749 561.088,-804.193 560.61,-805.623 560.242,-807.029 559.952,-808.469 559.697,-810.174 559.549,-811.652 559.463,-813.361 559.461,-814.746 559.514,-816.025 559.626,-817.305 559.801,-818.587 560.055,-819.914 560.481,-821.707 561.109,-824.638 561.582,-826.347 562.142,-827.903 562.659,-829.093 562.657,-829.095 564.224,-831.603 566.419,-833.561 569.109,-834.836 572.157,-835.29 576.196,-834.475 579.494,-832.251 581.718,-828.953 582.533,-824.914 582.306,-822.745 581.656,-820.733 581.654,-820.735 581.41,-820.196 581.348,-820.022 581.337,-820.002 580.737,-817.191 580.306,-815.379 580.284,-815.253 580.252,-815.013 580.225,-814.703 580.209,-814.321 580.207,-813.985 580.251,-813.101 580.276,-812.849 580.409,-811.96 580.465,-811.688 580.512,-811.503 580.519,-811.48 580.463,-811.61 580.192,-812.088 581.084,-810.743 581.085,-810.744 582.35,-808.063 582.801,-805.026 581.986,-800.987 579.762,-797.689 576.464,-795.465 572.425,-794.65 569.807,-794.983 567.434,-795.927 565.393,-797.396 563.765,-799.308 563.765,-799.309 " transform="matrix(1, 0, 0, 1, 0, 0)" fill="#004080" fill-opacity="0.50" stroke="#004080" stroke-width="1" stroke-opacity="0.10" fill-rule="winding" ub:uuid="0e8da1eb-89ce-4c66-9c17-55532fdc2889" ub:parent="61871ae1-567e-4401-adf5-55dcdddcbefb"/>
        <polygon points="562.951,-829.701 563.5,-830.753 564.902,-833.277 564.999,-833.496 565.581,-834.846 566.731,-837.268 567.654,-838.867 568.454,-840.067 569.321,-841.224 570.254,-842.331 571.248,-843.384 572.302,-844.379 573.396,-845.301 574.522,-846.151 575.86,-847.071 577.026,-847.8 578.415,-848.581 579.672,-849.206 580.992,-849.76 582.006,-850.106 582.001,-850.108 585.287,-850.639 589.326,-849.823 592.624,-847.6 594.848,-844.301 595.663,-840.262 595.135,-836.984 593.663,-834.136 591.418,-831.89 588.573,-830.417 588.568,-830.419 588.336,-830.35 588.342,-830.351 588.224,-830.293 587.538,-829.906 587.321,-829.77 586.584,-829.264 586.335,-829.076 586.115,-828.891 585.923,-828.71 585.741,-828.518 585.567,-828.311 585.397,-828.084 585.229,-827.831 585.252,-827.908 584.457,-826.223 583.923,-824.98 583.19,-823.469 581.713,-820.805 581.496,-820.385 581.654,-820.735 581.656,-820.733 582.306,-822.745 582.533,-824.914 581.718,-828.953 579.494,-832.251 576.196,-834.475 572.157,-835.29 569.109,-834.836 566.419,-833.561 564.224,-831.603 562.814,-829.347 562.949,-829.703 562.951,-829.701 " transform="matrix(1, 0, 0, 1, 0, 0)" fill="#004080" fill-opacity="0.50" stroke="#004080" stroke-width="1" stroke-opacity="0.10" fill-rule="winding" ub:uuid="8f22a55a-1b68-4d26-9f67-b8da3d3e952e" ub:parent="61871ae1-567e-4401-adf5-55dcdddcbefb"/>
        <polygon points="582.91,-850.363 583.753,-850.558 584.869,-850.74 585.76,-850.825 586.777,-850.855 587.955,-850.794 589.14,-850.625 590.239,-850.373 591.252,-850.056 592.185,-849.692 593.294,-849.164 594.585,-848.422 595.817,-847.576 596.739,-846.85 597.5,-846.172 598.222,-845.45 598.901,-844.689 599.533,-843.894 600.116,-843.07 600.504,-842.46 600.504,-842.461 601.676,-839.863 602.092,-836.942 601.277,-832.903 599.053,-829.605 595.755,-827.381 591.716,-826.566 589.039,-826.914 586.622,-827.9 585.761,-828.539 585.923,-828.71 586.115,-828.891 586.335,-829.076 586.584,-829.264 587.321,-829.77 587.538,-829.906 588.224,-830.293 588.342,-830.351 588.336,-830.35 588.568,-830.419 588.573,-830.417 591.418,-831.89 593.663,-834.136 595.135,-836.984 595.663,-840.262 594.848,-844.301 592.624,-847.6 589.326,-849.823 585.287,-850.639 582.481,-850.185 582.905,-850.364 582.91,-850.363 " transform="matrix(1, 0, 0, 1, 0, 0)" fill="#004080" fill-opacity="0.50" stroke="#004080" stroke-width="1" stroke-opacity="0.10" fill-rule="winding" ub:uuid="2daf69f1-94c2-433d-9af4-664b8f6919e3" ub:parent="61871ae1-567e-4401-adf5-55dcdddcbefb"/>
        <polygon points="600.915,-841.742 601.55,-840.499 602.194,-838.937 602.673,-837.556 603.108,-836.076 603.559,-834.192 603.853,-832.625 604.129,-830.714 604.314,-828.864 604.397,-827.394 604.412,-825.574 604.324,-823.63 604.145,-821.633 603.885,-819.582 603.43,-816.51 602.875,-813.092 602.466,-811.041 601.974,-808.962 601.264,-806.369 600.214,-802.695 600.216,-802.692 598.8,-799.684 596.539,-797.301 593.622,-795.733 590.237,-795.169 586.198,-795.984 582.9,-798.208 581.506,-800.276 581.986,-800.987 582.801,-805.026 582.35,-808.063 581.085,-810.744 581.084,-810.743 580.977,-810.904 581.286,-811.985 581.882,-814.156 582.193,-815.476 582.433,-816.667 582.924,-819.699 583.334,-822.464 583.515,-823.889 583.543,-824.196 583.923,-824.98 584.457,-826.223 585.252,-827.908 585.229,-827.831 585.397,-828.084 585.567,-828.311 585.741,-828.518 585.761,-828.539 586.622,-827.9 589.039,-826.914 591.716,-826.566 595.755,-827.381 599.053,-829.605 601.277,-832.903 602.092,-836.942 601.676,-839.863 600.671,-842.09 600.917,-841.744 600.915,-841.742 " transform="matrix(1, 0, 0, 1, 0, 0)" fill="#004080" fill-opacity="0.50" stroke="#004080" stroke-width="1" stroke-opacity="0.10" fill-rule="winding" ub:uuid="7c22b571-ae7a-4b17-b5c5-7b7e3395d75c" ub:parent="61871ae1-567e-4401-adf5-55dcdddcbefb"/>
        <polygon points="600.195,-802.627 599.275,-799.49 598.676,-797.742 597.872,-795.708 597.163,-794.134 596.104,-792 594.816,-789.425 593.922,-787.734 593.172,-786.478 592.285,-785.14 591.497,-784.051 590.634,-782.968 589.67,-781.888 588.646,-780.863 587.565,-779.899 586.348,-778.936 585.093,-778.084 583.993,-777.452 583.081,-777.008 582.434,-776.735 582.438,-776.734 578.478,-775.951 574.439,-776.767 571.14,-778.99 568.917,-782.288 568.101,-786.327 568.574,-789.434 569.897,-792.164 571.926,-794.375 572.394,-794.654 572.425,-794.65 576.464,-795.465 579.762,-797.689 581.506,-800.276 582.9,-798.208 586.198,-795.984 590.237,-795.169 593.622,-795.733 596.539,-797.301 598.8,-799.684 600.202,-802.662 600.197,-802.624 600.195,-802.627 " transform="matrix(1, 0, 0, 1, 0, 0)" fill="#004080" fill-opacity="0.50" stroke="#004080" stroke-width="1" stroke-opacity="0.10" fill-rule="winding" ub:uuid="1deaeb96-1195-4ab7-ab41-0e17af21afd3" ub:parent="61871ae1-567e-4401-adf5-55dcdddcbefb"/>
        <polygon points="581.796,-776.496 581.113,-776.272 580.064,-775.997 578.979,-775.794 577.87,-775.669 576.748,-775.627 575.626,-775.669 574.517,-775.794 573.433,-775.997 572.383,-776.272 571.375,-776.612 570.415,-777.008 569.504,-777.452 568.403,-778.084 567.08,-778.987 565.696,-780.121 564.442,-781.34 563.305,-782.639 562.281,-784.003 561.547,-785.13 561.546,-785.128 560.323,-787.774 559.887,-790.759 560.702,-794.798 562.926,-798.096 564.114,-798.897 565.393,-797.396 567.434,-795.927 569.807,-794.983 572.394,-794.654 571.926,-794.375 569.897,-792.164 568.574,-789.434 568.101,-786.327 568.917,-782.288 571.14,-778.99 574.439,-776.767 578.478,-775.951 582.149,-776.677 581.8,-776.494 581.796,-776.496 " transform="matrix(1, 0, 0, 1, 0, 0)" fill="#004080" fill-opacity="0.50" stroke="#004080" stroke-width="1" stroke-opacity="0.10" fill-rule="winding" ub:uuid="82a633f3-5936-4af8-8a8e-8387ce9af7f3" ub:parent="61871ae1-567e-4401-adf5-55dcdddcbefb"/>
        <polygon points="561.133,-785.829 560.442,-787.133 559.766,-788.718 559.352,-789.939 559.084,-790.931 558.871,-791.947 558.715,-792.981 558.607,-794.339 558.59,-795.912 558.59,-798.564 558.605,-800.209 558.733,-801.909 558.973,-803.532 559.313,-805.119 559.769,-806.762 560.1,-807.737 560.242,-807.029 560.61,-805.623 561.088,-804.193 561.697,-802.749 562.59,-801.095 563.765,-799.309 563.765,-799.308 564.114,-798.897 562.926,-798.096 560.702,-794.798 559.887,-790.759 560.323,-787.774 561.383,-785.481 561.132,-785.826 561.133,-785.829 581.031,-818.572 582.406,-816.533 582.193,-815.476 581.882,-814.156 581.286,-811.985 580.977,-810.904 580.47,-811.669 580.465,-811.688 580.409,-811.96 580.276,-812.849 580.251,-813.101 580.207,-813.985 580.209,-814.321 580.225,-814.703 580.252,-815.013 580.284,-815.253 580.306,-815.379 580.737,-817.191 581.031,-818.572 561.133,-785.829 580.47,-811.669 580.512,-811.503 580.519,-811.48 580.463,-811.61 580.192,-812.088 580.47,-811.669 561.133,-785.829 " transform="matrix(1, 0, 0, 1, 0, 0)" fill="#004080" fill-opacity="0.50" stroke="#004080" stroke-width="1" stroke-opacity="0.10" fill-rule="winding" ub:uuid="354a12cc-0ef8-4759-86d7-85dd3076b27d" ub:parent="61871ae1-567e-4401-adf5-55dcdddcbefb"/>
        <polygon points="581.031,-818.572 581.337,-820.002 581.348,-820.022 581.41,-820.196 581.496,-820.385 581.713,-820.805 583.19,-823.469 583.543,-824.196 583.515,-823.889 583.334,-822.464 582.924,-819.699 582.433,-816.667 582.406,-816.533 581.031,-818.572 " transform="matrix(1, 0, 0, 1, 0, 0)" fill="#004080" fill-opacity="0.50" stroke="#004080" stroke-width="1" stroke-opacity="0.10" fill-rule="winding" ub:uuid="49359ef8-9328-4d22-a0ee-51f4e42e774e" ub:parent="61871ae1-567e-4401-adf5-55dcdddcbefb"/>
        <polygon points="603.964,-820.207 604.536,-818.835 605.041,-817.482 605.41,-816.341 605.411,-816.346 605.906,-813.172 605.09,-809.133 602.866,-805.835 600.693,-804.369 601.264,-806.369 601.974,-808.962 602.466,-811.041 602.875,-813.092 603.43,-816.51 603.885,-819.582 603.964,-820.207 " transform="matrix(1, 0, 0, 1, 0, 0)" fill="#004080" fill-opacity="0.50" stroke="#004080" stroke-width="1" stroke-opacity="0.10" fill-rule="winding" ub:uuid="c65b322a-2646-4bce-b4fa-1636eac86281" ub:parent="61871ae1-567e-4401-adf5-55dcdddcbefb"/>
        <polygon points="605.54,-815.902 605.881,-814.632 606.294,-812.734 606.559,-811.153 606.805,-809.172 606.96,-807.101 607.012,-805.026 606.962,-802.937 606.814,-800.818 606.574,-798.658 606.24,-796.44 605.809,-794.205 605.286,-791.985 604.681,-789.804 603.902,-787.31 603.244,-785.435 602.476,-783.473 601.406,-780.797 600.459,-778.517 599.952,-777.435 599.953,-777.433 598.366,-775.033 596.192,-773.165 593.556,-771.952 590.583,-771.52 586.544,-772.335 583.246,-774.559 581.904,-776.549 582.149,-776.677 582.438,-776.734 582.434,-776.735 583.081,-777.008 583.993,-777.452 585.093,-778.084 586.348,-778.936 587.565,-779.899 588.646,-780.863 589.67,-781.888 590.634,-782.968 591.497,-784.051 592.285,-785.14 593.172,-786.478 593.922,-787.734 594.816,-789.425 596.104,-792 597.163,-794.134 597.872,-795.708 598.676,-797.742 599.275,-799.49 600.195,-802.627 600.197,-802.624 600.202,-802.662 600.216,-802.692 600.214,-802.695 600.693,-804.369 602.866,-805.835 605.09,-809.133 605.906,-813.172 605.448,-816.111 605.541,-815.907 605.54,-815.902 " transform="matrix(1, 0, 0, 1, 0, 0)" fill="#004080" fill-opacity="0.50" stroke="#004080" stroke-width="1" stroke-opacity="0.10" fill-rule="winding" ub:uuid="ff84c417-da71-4d65-9348-21a1faebeb55" ub:parent="61871ae1-567e-4401-adf5-55dcdddcbefb"/>
        <polygon points="599.765,-777.063 599.308,-776.2 598.765,-775.273 598.275,-774.513 597.662,-773.68 596.924,-772.821 596.154,-772.049 595.362,-771.361 594.561,-770.75 593.519,-770.064 592.145,-769.303 590.604,-768.61 588.963,-767.983 587.4,-767.451 585.871,-767.001 584.523,-766.682 583.142,-766.478 582.023,-766.408 580.899,-766.422 580.167,-766.479 580.166,-766.478 576.447,-767.525 573.44,-769.785 571.429,-772.977 570.695,-776.816 570.71,-776.886 571.375,-776.612 572.383,-776.272 573.433,-775.997 574.517,-775.794 575.626,-775.669 576.748,-775.627 577.87,-775.669 578.979,-775.794 580.064,-775.997 581.113,-776.272 581.796,-776.496 581.8,-776.494 581.904,-776.549 583.246,-774.559 586.544,-772.335 590.583,-771.52 593.556,-771.952 596.192,-773.165 598.366,-775.033 599.848,-777.274 599.767,-777.062 599.765,-777.063 " transform="matrix(1, 0, 0, 1, 0, 0)" fill="#004080" fill-opacity="0.50" stroke="#004080" stroke-width="1" stroke-opacity="0.10" fill-rule="winding" ub:uuid="1c13c59c-420e-421b-97a8-e38e2df719f3" ub:parent="61871ae1-567e-4401-adf5-55dcdddcbefb"/>
        <polygon points="579.407,-766.574 578.691,-766.697 577.629,-766.949 576.606,-767.268 575.332,-767.778 574.041,-768.406 571.889,-769.482 570.493,-770.211 569.054,-771.147 568.097,-771.912 567.232,-772.717 566.453,-773.55 565.753,-774.401 564.974,-775.489 564.058,-776.99 563.243,-778.588 562.594,-780.035 562.025,-781.484 561.531,-782.965 561.203,-784.166 561.202,-784.161 560.933,-786.206 561.133,-785.829 561.132,-785.826 561.383,-785.481 561.546,-785.128 561.547,-785.13 562.281,-784.003 563.305,-782.639 564.442,-781.34 565.696,-780.121 567.08,-778.987 568.403,-778.084 569.504,-777.452 570.415,-777.008 570.71,-776.886 570.695,-776.816 571.429,-772.977 573.44,-769.785 576.447,-767.525 580.001,-766.525 579.406,-766.573 579.407,-766.574 " transform="matrix(1, 0, 0, 1, 0, 0)" fill="#004080" fill-opacity="0.50" stroke="#004080" stroke-width="1" stroke-opacity="0.10" fill-rule="winding" ub:uuid="33e52682-1f78-4962-b654-1824f04cdb2f" ub:parent="61871ae1-567e-4401-adf5-55dcdddcbefb"/>
        <polygon points="561.054,-784.8 560.83,-785.918 560.727,-786.595 560.933,-786.206 561.152,-784.54 561.053,-784.794 561.054,-784.8 " transform="matrix(1, 0, 0, 1, 0, 0)" fill="#004080" fill-opacity="0.50" stroke="#004080" stroke-width="1" stroke-opacity="0.10" fill-rule="winding" ub:uuid="3d48ab4a-4f0f-49be-86f6-8bb978c0bacb" ub:parent="61871ae1-567e-4401-adf5-55dcdddcbefb"/>
        <polygon points="606.682,-810.167 606.767,-809.997 607.419,-808.331 607.982,-806.338 608.453,-803.655 608.723,-800.182 608.695,-792.473 608.193,-787.913 607.573,-784.964 606.906,-782.817 606.098,-780.878 604.729,-778.344 603.075,-775.874 603.075,-775.874 601.448,-773.996 599.418,-772.554 597.066,-771.63 595.435,-771.424 596.154,-772.049 596.924,-772.821 597.662,-773.68 598.275,-774.513 598.765,-775.273 599.308,-776.2 599.765,-777.063 599.767,-777.062 599.848,-777.274 599.953,-777.433 599.952,-777.435 600.459,-778.517 601.406,-780.797 602.476,-783.473 603.244,-785.435 603.902,-787.31 604.681,-789.804 605.286,-791.985 605.809,-794.205 606.24,-796.44 606.574,-798.658 606.814,-800.818 606.962,-802.937 607.012,-805.026 606.96,-807.101 606.805,-809.172 606.682,-810.167 " transform="matrix(1, 0, 0, 1, 0, 0)" fill="#004080" fill-opacity="0.50" stroke="#004080" stroke-width="1" stroke-opacity="0.10" fill-rule="winding" ub:uuid="39e1707a-3df7-442c-ba53-a0b183a27373" ub:parent="61871ae1-567e-4401-adf5-55dcdddcbefb"/>
        <polygon points="602.505,-775.109 601.401,-773.774 599.887,-772.216 598.237,-770.787 596.557,-769.565 595.065,-768.662 593.631,-767.946 592.109,-767.338 590.347,-766.819 588.145,-766.386 585.74,-766.146 583.32,-766.146 580.916,-766.386 580.628,-766.443 580.899,-766.422 582.023,-766.408 583.142,-766.478 584.523,-766.682 585.871,-767.001 587.4,-767.451 588.963,-767.983 590.604,-768.61 592.145,-769.303 593.519,-770.064 594.561,-770.75 595.362,-771.361 595.435,-771.424 597.066,-771.63 599.418,-772.554 601.448,-773.996 602.684,-775.422 602.505,-775.109 602.505,-775.109 " transform="matrix(1, 0, 0, 1, 0, 0)" fill="#004080" fill-opacity="0.50" stroke="#004080" stroke-width="1" stroke-opacity="0.10" fill-rule="winding" ub:uuid="a4d15c6b-6825-4bdf-904c-8bcc21876c38" ub:parent="61871ae1-567e-4401-adf5-55dcdddcbefb"/>
    </g>
    <g ub:z-value="-999992" ub:fill-on-dark-background="#ffffff" ub:fill-on-light-background="#000000" ub:uuid="2e921ae1-7e69-401a-aaed-7a2e2598b944" ub:layer="-1000">
        <polygon points="-418.727,-767.695 -417.704,-769.242 -417.416,-769.764 -417.101,-770.425 -416.782,-771.19 -416.254,-772.653 -413.488,-779.36 -412.82,-781.234 -411.441,-785.372 -410.409,-788.536 -409.547,-791.401 -407.477,-798.142 -407.037,-799.715 -406.793,-800.771 -406.478,-802.471 -406.043,-805.413 -405.521,-808.703 -405.212,-810.278 -404.953,-811.312 -404.66,-812.301 -404.349,-813.201 -403.407,-816.196 -403.383,-816.52 -403.358,-817.309 -403.3,-817.958 -403.202,-818.639 -402.997,-819.667 -402.807,-820.406 -402.681,-820.798 -402.546,-821.149 -402.394,-821.482 -402.22,-821.798 -402.023,-822.097 -401.798,-822.376 -401.542,-822.632 -401.252,-822.859 -400.907,-823.06 -400.45,-823.218 -399.88,-823.246 -399.319,-823.087 -398.875,-822.795 -398.557,-822.45 -398.327,-822.088 -398.151,-821.71 -398.008,-821.31 -397.879,-820.845 -397.443,-818.783 -396.752,-815.844 -396.055,-812.64 -395.886,-811.667 -395.757,-810.629 -395.636,-808.987 -395.604,-807.338 -393.361,-789.445 -393.021,-785.406 -392.935,-782.345 -392.738,-780.584 -392.256,-777.634 -392.143,-776.043 -392.102,-774.69 -391.942,-773.414 -391.733,-772.438 -391.733,-772.438 -391.705,-772.168 -392.084,-771.251 -393.002,-770.871 -393.823,-771.165 -394.27,-771.898 -394.27,-771.898 -394.502,-772.998 -394.688,-774.488 -394.734,-775.911 -394.828,-777.295 -395.306,-780.216 -395.524,-782.19 -395.611,-785.251 -395.937,-789.141 -398.181,-807.038 -398.227,-808.865 -398.34,-810.388 -398.452,-811.287 -398.595,-812.112 -399.282,-815.272 -399.974,-818.213 -400.412,-820.284 -400.481,-820.529 -400.554,-820.734 -400.611,-820.858 -400.632,-820.893 -400.583,-820.842 -400.424,-820.74 -400.166,-820.668 -399.916,-820.679 -399.796,-820.716 -399.788,-820.718 -399.818,-820.694 -399.865,-820.647 -399.925,-820.571 -399.996,-820.464 -400.073,-820.322 -400.154,-820.145 -400.235,-819.934 -400.308,-819.712 -400.465,-819.102 -400.648,-818.184 -400.723,-817.655 -400.769,-817.162 -400.795,-816.343 -400.91,-815.491 -401.879,-812.407 -402.19,-811.509 -402.451,-810.63 -402.677,-809.727 -402.964,-808.267 -403.479,-805.02 -403.918,-802.056 -404.251,-800.255 -404.526,-799.062 -404.994,-797.392 -407.066,-790.644 -407.934,-787.759 -408.977,-784.559 -410.365,-780.396 -411.08,-778.396 -413.848,-771.683 -414.358,-770.267 -414.731,-769.372 -415.108,-768.58 -415.511,-767.857 -416.563,-766.265 -416.563,-766.265 -417.645,-765.683 -418.562,-766.063 -418.942,-766.98 -418.886,-767.36 -418.727,-767.695 -418.727,-767.695 " transform="matrix(1, 0, 0, 1, 0, 0)" fill="#000000" fill-opacity="1.00" fill-rule="winding" ub:uuid="32ebd2ad-9663-4252-961b-2657562369ce" ub:parent="2e921ae1-7e69-401a-aaed-7a2e2598b944"/>
    </g>
    <g ub:z-value="-999991" ub:fill-on-dark-background="#ffffff" ub:fill-on-light-background="#000000" ub:uuid="81df1cef-b963-4a98-ad08-bb081c5ffb84" ub:layer="-1000">
        <polygon points="-409.569,-789.762 -408.495,-790.287 -408.117,-790.425 -407.768,-790.519 -407.128,-790.638 -406.382,-790.717 -405.662,-790.747 -398.869,-791.508 -397.678,-791.604 -396.903,-791.624 -395.509,-791.624 -393.78,-791.624 -391.606,-791.624 -388.341,-791.661 -386.92,-791.821 -385.912,-792.03 -385.913,-792.03 -385.652,-792.056 -384.735,-791.676 -384.355,-790.759 -384.651,-789.934 -385.391,-789.488 -385.391,-789.488 -386.537,-789.256 -388.228,-789.07 -391.587,-789.03 -393.78,-789.03 -395.509,-789.03 -396.882,-789.03 -397.526,-789.014 -398.592,-788.929 -405.391,-788.168 -406.193,-788.129 -406.761,-788.07 -407.228,-787.981 -407.354,-787.946 -407.4,-787.936 -408.428,-787.432 -408.428,-787.432 -408.701,-787.334 -408.998,-787.3 -409.915,-787.68 -410.295,-788.597 -409.569,-789.762 -409.569,-789.762 " transform="matrix(1, 0, 0, 1, 0, 0)" fill="#000000" fill-opacity="1.00" fill-rule="winding" ub:uuid="09ed6c8e-c284-488f-8740-ce0f2b07ec42" ub:parent="81df1cef-b963-4a98-ad08-bb081c5ffb84"/>
    </g>
    <g ub:z-value="-999990" ub:fill-on-dark-background="#ffffff" ub:fill-on-light-background="#000000" ub:uuid="daf65ac2-6d0a-45c3-8b8d-4852e2a5dec9" ub:layer="-1000">
        <polygon points="-361.746,-806.287 -359.307,-806.879 -358.52,-807.018 -357.765,-807.112 -356.996,-807.17 -355.914,-807.188 -354.175,-807.188 -352.427,-807.184 -351.659,-807.145 -350.903,-807.07 -350.149,-806.957 -349.51,-806.827 -345.043,-806.279 -344.67,-806.229 -344.28,-806.154 -343.898,-806.057 -343.525,-805.938 -343.16,-805.797 -342.806,-805.633 -342.462,-805.448 -342.164,-805.263 -342.164,-805.263 -341.553,-804.162 -341.932,-803.244 -342.85,-802.865 -343.212,-802.916 -343.535,-803.061 -343.535,-803.061 -343.765,-803.204 -343.966,-803.313 -344.173,-803.409 -344.388,-803.492 -344.611,-803.563 -344.843,-803.622 -345.085,-803.668 -345.36,-803.704 -349.852,-804.255 -350.596,-804.402 -351.225,-804.496 -351.853,-804.559 -352.468,-804.59 -354.179,-804.594 -355.898,-804.594 -356.892,-804.578 -357.507,-804.531 -358.135,-804.453 -358.731,-804.35 -361.134,-803.766 -361.134,-803.766 -361.44,-803.729 -362.358,-804.109 -362.737,-805.026 -362.455,-805.834 -361.747,-806.287 -361.746,-806.287 " transform="matrix(1, 0, 0, 1, 0, 0)" fill="#000000" fill-opacity="1.00" fill-rule="winding" ub:uuid="a216ecb3-42ce-4443-bab5-babe5b1bfe46" ub:parent="daf65ac2-6d0a-45c3-8b8d-4852e2a5dec9"/>
    </g>
    <g ub:z-value="-999989" ub:fill-on-dark-background="#ffffff" ub:fill-on-light-background="#000000" ub:uuid="75a3b15c-15ab-4e61-8136-1bba5664d13c" ub:layer="-1000">
        <polygon points="-361.444,-791.624 -355.574,-791.641 -354.998,-791.686 -354.369,-791.765 -353.742,-791.875 -351.959,-792.254 -351.068,-792.375 -349.399,-792.482 -348.915,-792.488 -348.916,-792.488 -348.902,-792.488 -347.985,-792.108 -347.605,-791.191 -347.981,-790.278 -348.889,-789.894 -348.889,-789.894 -349.262,-789.892 -350.844,-789.791 -351.475,-789.705 -353.228,-789.332 -353.985,-789.2 -354.74,-789.105 -355.547,-789.047 -361.437,-789.03 -361.437,-789.03 -361.44,-789.03 -362.358,-789.409 -362.737,-790.327 -362.359,-791.242 -361.444,-791.624 -361.444,-791.624 " transform="matrix(1, 0, 0, 1, 0, 0)" fill="#000000" fill-opacity="1.00" fill-rule="winding" ub:uuid="1e73b882-4dc3-4db1-bae7-26edd5d40d5f" ub:parent="75a3b15c-15ab-4e61-8136-1bba5664d13c"/>
    </g>
    <g ub:z-value="-999988" ub:fill-on-dark-background="#ffffff" ub:fill-on-light-background="#000000" ub:uuid="59b29dc2-b623-4cd1-a018-aec545dd6493" ub:layer="-1000">
        <polygon points="-277.563,-839.182 -285.164,-839.164 -285.737,-839.119 -286.366,-839.04 -286.989,-838.931 -288.727,-838.553 -289.51,-838.435 -290.266,-838.359 -291.031,-838.321 -292.476,-838.317 -294.851,-838.317 -296.535,-838.279 -297.312,-838.217 -298.558,-838.055 -299.362,-837.91 -300.547,-837.657 -301.568,-837.408 -302.428,-837.162 -302.886,-837.009 -303.336,-836.828 -303.791,-836.616 -304.25,-836.371 -304.705,-836.099 -305.425,-835.612 -305.836,-835.308 -306.431,-834.822 -306.758,-834.524 -307.063,-834.219 -307.361,-833.892 -307.847,-833.297 -308.15,-832.888 -308.628,-832.177 -308.886,-831.718 -309.123,-831.213 -309.334,-830.671 -309.517,-830.091 -309.673,-829.471 -309.799,-828.841 -309.893,-828.212 -309.956,-827.584 -309.987,-826.966 -309.991,-825.566 -309.991,-823.18 -309.991,-819.294 -309.991,-814.884 -310.01,-813.779 -310.067,-812.955 -310.217,-811.714 -310.43,-810.519 -310.859,-805.212 -310.856,-804.525 -310.856,-803.31 -310.818,-801.622 -310.756,-800.845 -310.594,-799.603 -310.114,-796.679 -310.033,-795.817 -309.996,-795.024 -309.991,-793.614 -309.991,-791.883 -309.991,-789.824 -309.923,-786.398 -309.85,-785.85 -309.741,-785.228 -309.429,-783.821 -309.294,-782.996 -309.201,-782.155 -309.145,-781.27 -309.131,-779.941 -309.168,-779.042 -309.243,-778.186 -309.355,-777.36 -309.483,-776.716 -309.996,-770.762 -310.003,-770.527 -310.039,-770.186 -310.1,-769.85 -310.187,-769.521 -310.3,-769.2 -310.44,-768.89 -310.604,-768.593 -310.793,-768.31 -311.007,-768.039 -311.296,-767.72 -311.252,-767.783 -311.219,-767.876 -311.202,-768.018 -311.219,-768.159 -311.252,-768.252 -311.267,-768.277 -311.236,-768.243 -311.148,-768.166 -310.997,-768.056 -310.806,-767.937 -310.605,-767.829 -310.397,-767.733 -310.182,-767.65 -309.959,-767.579 -309.727,-767.52 -309.485,-767.473 -309.233,-767.44 -309.036,-767.421 -294.915,-767.451 -293.533,-767.61 -292.525,-767.818 -292.526,-767.818 -292.265,-767.845 -291.348,-767.465 -290.968,-766.548 -291.265,-765.722 -292.004,-765.277 -292.005,-765.277 -293.15,-765.044 -294.881,-764.857 -309.035,-764.827 -309.505,-764.86 -309.901,-764.913 -310.29,-764.987 -310.672,-765.084 -311.046,-765.203 -311.41,-765.345 -311.765,-765.509 -312.108,-765.694 -312.444,-765.904 -312.769,-766.14 -313.07,-766.409 -313.342,-766.721 -313.573,-767.092 -313.736,-767.53 -313.796,-768.018 -313.736,-768.505 -313.573,-768.944 -313.312,-769.353 -312.971,-769.734 -312.891,-769.835 -312.82,-769.941 -312.76,-770.05 -312.709,-770.164 -312.666,-770.284 -312.632,-770.413 -312.607,-770.553 -312.591,-770.705 -312.581,-770.98 -312.065,-776.968 -311.916,-777.776 -311.821,-778.472 -311.757,-779.207 -311.725,-779.968 -311.737,-781.19 -311.785,-781.93 -311.864,-782.646 -311.972,-783.308 -312.282,-784.703 -312.415,-785.465 -312.515,-786.3 -312.585,-789.792 -312.585,-791.883 -312.585,-793.611 -312.59,-794.976 -312.621,-795.636 -312.679,-796.296 -313.158,-799.209 -313.334,-800.561 -313.41,-801.513 -313.45,-803.276 -313.45,-804.525 -313.447,-805.394 -313.011,-810.774 -312.783,-812.096 -312.648,-813.216 -312.602,-813.879 -312.585,-814.892 -312.585,-819.294 -312.585,-823.18 -312.585,-825.568 -312.581,-827.013 -312.543,-827.778 -312.467,-828.534 -312.354,-829.288 -312.203,-830.042 -312.013,-830.797 -311.781,-831.531 -311.508,-832.235 -311.192,-832.906 -310.827,-833.553 -310.277,-834.373 -309.888,-834.898 -309.336,-835.573 -308.942,-836.008 -308.547,-836.402 -308.113,-836.797 -307.437,-837.349 -306.914,-837.736 -306.112,-838.278 -305.529,-838.628 -304.951,-838.937 -304.368,-839.209 -303.781,-839.443 -303.183,-839.644 -302.228,-839.917 -301.122,-840.187 -299.868,-840.454 -298.943,-840.62 -297.595,-840.795 -296.643,-840.871 -294.876,-840.911 -292.479,-840.911 -291.078,-840.915 -290.46,-840.946 -289.832,-841.009 -289.232,-841.098 -287.511,-841.472 -286.751,-841.606 -285.996,-841.7 -285.186,-841.758 -277.568,-841.776 -277.568,-841.776 -277.565,-841.776 -276.648,-841.396 -276.268,-840.479 -276.647,-839.562 -277.562,-839.182 -277.563,-839.182 " transform="matrix(1, 0, 0, 1, 0, 0)" fill="#000000" fill-opacity="1.00" fill-rule="winding" ub:uuid="338df215-0f6d-491f-b8ac-3d71386b6285" ub:parent="59b29dc2-b623-4cd1-a018-aec545dd6493"/>
    </g>
    <g ub:z-value="-999987" ub:fill-on-dark-background="#ffffff" ub:fill-on-light-background="#000000" ub:uuid="12bcf93a-51b6-4e27-a72c-7ca9f753ff90" ub:layer="-1000">
        <polygon points="-267.242,-826.696 -266.821,-827.117 -266.848,-827.085 -266.863,-827.062 -266.86,-827.068 -266.846,-827.106 -266.826,-827.174 -266.811,-827.236 -266.77,-827.556 -266.757,-827.933 -266.758,-827.963 -266.757,-827.959 -266.754,-827.954 -266.765,-827.967 -266.81,-828.009 -266.905,-828.074 -267.058,-828.153 -267.272,-828.238 -267.513,-828.313 -268.29,-828.477 -269.086,-828.604 -270.332,-828.741 -271.119,-828.789 -272.355,-828.801 -273.076,-828.769 -273.73,-828.707 -274.3,-828.617 -274.785,-828.503 -275.218,-828.36 -275.733,-828.147 -276.326,-827.867 -277.39,-827.298 -279.019,-826.331 -280.773,-825.24 -281.604,-824.698 -281.794,-824.564 -281.968,-824.426 -282.124,-824.285 -282.264,-824.141 -282.389,-823.996 -282.5,-823.847 -282.598,-823.695 -282.683,-823.539 -282.757,-823.376 -282.815,-823.223 -282.848,-823.103 -282.86,-823.012 -282.86,-822.925 -282.848,-822.834 -282.82,-822.73 -282.772,-822.609 -282.696,-822.469 -282.59,-822.309 -282.448,-822.132 -282.29,-821.961 -281.806,-821.524 -281.606,-821.372 -281.375,-821.213 -281.137,-821.068 -280.894,-820.938 -280.643,-820.821 -280.386,-820.718 -280.182,-820.646 -275.714,-819.54 -274.372,-819.359 -272.395,-819.298 -270.884,-819.395 -269.853,-819.551 -269.197,-819.696 -269.197,-819.696 -268.919,-819.726 -268.001,-819.346 -267.622,-818.429 -267.912,-817.61 -268.64,-817.162 -268.64,-817.162 -269.402,-816.996 -270.628,-816.814 -272.368,-816.704 -274.567,-816.772 -276.27,-817.006 -280.82,-818.132 -281.282,-818.284 -281.673,-818.44 -282.054,-818.618 -282.424,-818.816 -282.784,-819.035 -283.132,-819.274 -283.494,-819.554 -284.082,-820.085 -284.408,-820.433 -284.682,-820.775 -284.921,-821.134 -285.122,-821.512 -285.281,-821.91 -285.392,-822.325 -285.449,-822.753 -285.449,-823.185 -285.392,-823.612 -285.286,-824.012 -285.154,-824.368 -285.003,-824.699 -284.829,-825.018 -284.633,-825.324 -284.415,-825.616 -284.177,-825.894 -283.919,-826.158 -283.643,-826.406 -283.35,-826.639 -283.039,-826.859 -282.158,-827.433 -280.367,-828.547 -278.675,-829.552 -277.508,-830.176 -276.787,-830.518 -276.125,-830.79 -275.486,-831.001 -274.795,-831.164 -274.051,-831.281 -273.252,-831.357 -272.382,-831.395 -271.041,-831.381 -270.099,-831.325 -268.751,-831.177 -267.818,-831.028 -266.909,-830.836 -266.415,-830.687 -265.98,-830.512 -265.571,-830.298 -265.19,-830.034 -264.846,-829.712 -264.554,-829.328 -264.336,-828.89 -264.205,-828.419 -264.163,-827.948 -264.184,-827.357 -264.247,-826.846 -264.31,-826.545 -264.385,-826.285 -264.483,-826.029 -264.61,-825.775 -264.772,-825.528 -264.964,-825.306 -265.407,-824.862 -266.324,-824.482 -267.242,-824.862 -267.622,-825.779 -267.242,-826.696 " transform="matrix(1, 0, 0, 1, 0, 0)" fill="#000000" fill-opacity="1.00" fill-rule="winding" ub:uuid="4c568988-8ac2-4d20-9ba2-2781995f6b72" ub:parent="12bcf93a-51b6-4e27-a72c-7ca9f753ff90"/>
    </g>
    <g ub:z-value="-999986" ub:fill-on-dark-background="#ffffff" ub:fill-on-light-background="#000000" ub:uuid="0a3d7de6-9b1e-463c-abcd-1874846e00e6" ub:layer="-1000">
        <polygon points="-255.452,-823.649 -255.965,-825.228 -256.058,-825.694 -256.09,-826.082 -256.084,-826.47 -256.039,-826.857 -255.956,-827.237 -255.839,-827.609 -255.688,-827.97 -255.489,-828.351 -255.112,-828.935 -254.562,-829.69 -254.178,-830.172 -253.795,-830.612 -253.407,-831.019 -253.129,-831.27 -252.828,-831.493 -252.508,-831.685 -252.17,-831.848 -251.819,-831.981 -251.455,-832.087 -251.081,-832.166 -250.696,-832.222 -250.301,-832.254 -249.887,-832.264 -249.458,-832.247 -249.03,-832.192 -248.613,-832.096 -248.208,-831.952 -247.823,-831.755 -247.466,-831.504 -247.148,-831.202 -246.879,-830.856 -246.664,-830.479 -246.506,-830.09 -246.397,-829.705 -246.327,-829.323 -246.295,-828.935 -246.301,-828.546 -246.346,-828.16 -246.429,-827.779 -246.546,-827.408 -246.697,-827.046 -246.878,-826.696 -247.097,-826.341 -247.509,-825.773 -247.974,-825.228 -248.48,-824.722 -249.082,-824.215 -250.781,-823.102 -253.109,-821.864 -253.894,-821.531 -254.619,-821.289 -255.298,-821.128 -255.684,-821.068 -256.033,-821.034 -256.403,-821.023 -256.827,-821.058 -257.322,-821.204 -257.842,-821.559 -258.218,-822.141 -258.326,-822.752 -258.261,-823.257 -258.117,-823.678 -257.926,-824.063 -257.693,-824.44 -257.438,-824.801 -257.438,-824.801 -256.381,-825.347 -255.463,-824.967 -255.084,-824.049 -255.147,-823.648 -255.222,-823.466 -255.323,-823.298 -255.323,-823.298 -255.535,-823.001 -255.665,-822.791 -255.733,-822.657 -255.745,-822.628 -255.732,-822.752 -255.789,-823.052 -256.008,-823.393 -256.269,-823.575 -256.401,-823.617 -256.358,-823.617 -256.2,-823.623 -256.005,-823.642 -255.829,-823.668 -255.332,-823.783 -254.812,-823.957 -254.282,-824.178 -252.088,-825.343 -250.57,-826.34 -250.239,-826.628 -249.88,-826.987 -249.549,-827.376 -249.235,-827.811 -249.134,-827.975 -249.047,-828.143 -248.982,-828.301 -248.935,-828.448 -248.905,-828.586 -248.889,-828.719 -248.887,-828.849 -248.898,-828.98 -248.923,-829.116 -248.961,-829.25 -249.002,-829.354 -249.038,-829.417 -249.072,-829.461 -249.108,-829.496 -249.158,-829.531 -249.23,-829.567 -249.336,-829.605 -249.481,-829.638 -249.667,-829.661 -249.904,-829.67 -250.164,-829.663 -250.409,-829.643 -250.63,-829.612 -250.826,-829.57 -250.998,-829.52 -251.148,-829.464 -251.278,-829.401 -251.39,-829.334 -251.487,-829.263 -251.572,-829.185 -251.876,-828.867 -252.185,-828.511 -252.492,-828.128 -252.98,-827.456 -253.268,-827.011 -253.337,-826.873 -253.403,-826.716 -253.45,-826.569 -253.48,-826.43 -253.495,-826.298 -253.498,-826.168 -253.487,-826.037 -253.484,-825.984 -252.985,-824.45 -252.985,-824.451 -252.922,-824.049 -253.302,-823.132 -254.219,-822.752 -255.453,-823.648 -255.452,-823.649 " transform="matrix(1, 0, 0, 1, 0, 0)" fill="#000000" fill-opacity="1.00" fill-rule="winding" ub:uuid="c8fa1ee0-b3f9-4f7c-89f5-cac36930b9d0" ub:parent="0a3d7de6-9b1e-463c-abcd-1874846e00e6"/>
    </g>
    <g ub:z-value="-999985" ub:fill-on-dark-background="#ffffff" ub:fill-on-light-background="#000000" ub:uuid="13b406bf-e852-43fd-b0f3-328923549d86" ub:layer="-1000">
        <polygon points="-226.542,-832.264 -228.085,-832.256 -228.221,-832.239 -228.398,-832.214 -228.895,-832.098 -229.414,-831.924 -229.979,-831.687 -230.944,-831.202 -231.85,-830.706 -232.758,-830.165 -236.369,-828.325 -236.471,-828.269 -236.526,-828.231 -236.548,-828.212 -236.545,-828.217 -236.527,-828.246 -236.507,-828.291 -236.496,-828.339 -236.493,-828.373 -236.494,-828.392 -236.496,-828.4 -236.49,-828.386 -236.47,-828.349 -236.428,-828.286 -236.359,-828.203 -236.26,-828.102 -236.129,-827.986 -235.998,-827.881 -235.286,-827.404 -234.636,-826.999 -234.059,-826.668 -233.499,-826.361 -233.12,-826.056 -232.86,-825.744 -232.661,-825.389 -232.532,-825.013 -232.469,-824.634 -232.46,-824.264 -232.496,-823.904 -232.567,-823.553 -232.668,-823.207 -232.795,-822.866 -232.946,-822.536 -233.12,-822.217 -233.316,-821.91 -233.534,-821.618 -233.773,-821.34 -234.03,-821.077 -234.306,-820.828 -234.641,-820.565 -235.477,-820.016 -236.345,-819.539 -237.204,-819.151 -237.776,-818.941 -237.775,-818.94 -237.992,-818.882 -238.222,-818.861 -239.139,-819.241 -239.519,-820.158 -238.669,-821.376 -238.669,-821.376 -238.202,-821.546 -237.505,-821.859 -236.817,-822.237 -236.114,-822.7 -235.982,-822.809 -235.825,-822.95 -235.685,-823.093 -235.56,-823.238 -235.449,-823.387 -235.352,-823.539 -235.266,-823.696 -235.192,-823.858 -235.129,-824.027 -235.083,-824.182 -235.06,-824.299 -235.052,-824.372 -235.052,-824.399 -235.049,-824.383 -235.032,-824.336 -234.998,-824.274 -234.954,-824.222 -234.843,-824.142 -235.329,-824.406 -235.971,-824.775 -236.696,-825.226 -237.48,-825.752 -237.79,-825.993 -238.049,-826.223 -238.287,-826.468 -238.503,-826.73 -238.694,-827.014 -238.856,-827.322 -238.98,-827.654 -239.059,-828.008 -239.087,-828.373 -239.058,-828.744 -238.968,-829.112 -238.819,-829.46 -238.62,-829.774 -238.383,-830.047 -238.119,-830.279 -237.837,-830.474 -237.551,-830.634 -233.967,-832.461 -233.137,-832.958 -232.149,-833.499 -231.083,-834.034 -230.332,-834.35 -229.607,-834.592 -228.928,-834.753 -228.543,-834.814 -228.134,-834.849 -226.556,-834.858 -226.556,-834.858 -226.549,-834.858 -225.632,-834.478 -225.252,-833.561 -225.629,-832.646 -226.542,-832.264 -226.542,-832.264 " transform="matrix(1, 0, 0, 1, 0, 0)" fill="#000000" fill-opacity="1.00" fill-rule="winding" ub:uuid="361ac608-aee8-4a47-83fc-80a348922e57" ub:parent="13b406bf-e852-43fd-b0f3-328923549d86"/>
    </g>
    <g ub:z-value="-999984" ub:fill-on-dark-background="#ffffff" ub:fill-on-light-background="#000000" ub:uuid="97ad9303-6fef-4c4a-b0e1-1da9bedb9eaa" ub:layer="-1000">
        <polygon points="-216.895,-825.991 -215.363,-827.019 -214.977,-827.324 -214.604,-827.669 -214.259,-828.042 -213.944,-828.442 -213.445,-829.181 -212.585,-830.473 -211.734,-831.765 -211.246,-832.583 -210.75,-833.488 -210.068,-834.835 -209.034,-836.903 -208.372,-838.26 -208.107,-838.885 -207.868,-839.524 -207.664,-840.148 -207.399,-841.146 -206.967,-842.873 -206.27,-845.591 -205.824,-847.084 -205.631,-847.645 -205.47,-847.988 -205.316,-848.209 -205.316,-848.209 -204.279,-848.728 -203.362,-848.348 -202.982,-847.431 -203.241,-846.652 -203.241,-846.652 -203.217,-846.701 -203.203,-846.732 -203.347,-846.316 -203.766,-844.912 -204.453,-842.235 -204.886,-840.503 -205.173,-839.426 -205.419,-838.667 -205.699,-837.922 -206.022,-837.163 -206.709,-835.753 -207.75,-833.67 -208.452,-832.285 -208.994,-831.296 -209.543,-830.377 -210.422,-829.04 -211.29,-827.737 -211.837,-826.929 -212.284,-826.36 -212.769,-825.834 -213.295,-825.349 -213.878,-824.893 -215.45,-823.837 -215.449,-823.837 -215.612,-823.744 -215.788,-823.675 -216.172,-823.617 -217.09,-823.997 -217.47,-824.914 -216.896,-825.991 -216.895,-825.991 " transform="matrix(1, 0, 0, 1, 0, 0)" fill="#000000" fill-opacity="1.00" fill-rule="winding" ub:uuid="3bcaecce-9f5d-4e62-9eee-e37b9bb9c789" ub:parent="97ad9303-6fef-4c4a-b0e1-1da9bedb9eaa"/>
        <polygon points="-204.66,-848.67 -204.604,-848.688 -204.604,-848.688 -204.222,-848.745 -203.305,-848.365 -202.925,-847.448 -203.84,-846.208 -203.841,-846.208 -203.897,-846.191 -203.897,-846.191 -204.279,-846.134 -205.196,-846.514 -205.576,-847.431 -204.661,-848.671 -204.66,-848.67 " transform="matrix(1, 0, 0, 1, 0, 0)" fill="#000000" fill-opacity="1.00" fill-rule="winding" ub:uuid="de5833d9-eb53-45f7-b803-327b1bf7f07e" ub:parent="97ad9303-6fef-4c4a-b0e1-1da9bedb9eaa"/>
        <polygon points="-203.266,-848.324 -203.015,-847.976 -202.87,-847.556 -202.813,-847.193 -202.774,-846.513 -202.77,-844.046 -202.77,-840.832 -202.731,-837.748 -202.672,-837.181 -202.577,-836.552 -202.431,-835.807 -201.911,-831.526 -201.924,-830.513 -201.98,-829.685 -202.077,-828.914 -202.216,-828.197 -202.392,-827.568 -202.819,-826.181 -203.341,-824.224 -203.574,-823.486 -203.847,-822.782 -204.163,-822.111 -204.522,-821.474 -204.923,-820.872 -205.367,-820.307 -205.852,-819.782 -206.378,-819.296 -206.94,-818.854 -207.521,-818.463 -208.097,-818.118 -208.675,-817.809 -209.258,-817.537 -209.85,-817.301 -210.659,-817.026 -212.223,-816.505 -213.042,-816.244 -213.464,-816.159 -213.837,-816.125 -214.214,-816.133 -214.589,-816.184 -214.957,-816.282 -215.31,-816.424 -215.641,-816.608 -215.947,-816.829 -216.243,-817.097 -216.531,-817.448 -216.764,-817.878 -216.906,-818.348 -216.951,-818.827 -216.911,-819.291 -216.805,-819.732 -216.646,-820.154 -216.442,-820.563 -216.179,-820.992 -215.643,-821.725 -214.834,-822.735 -214.019,-823.672 -213.199,-824.534 -212.337,-825.355 -211.4,-826.17 -210.437,-826.94 -206.555,-830.29 -205.209,-831.433 -203.402,-832.745 -202.209,-833.798 -198.392,-837.676 -194.927,-842.26 -193.607,-844.445 -192.97,-845.701 -192.744,-846.268 -192.571,-846.846 -192.457,-847.416 -192.401,-847.96 -192.408,-848.874 -192.535,-850.144 -192.793,-851.43 -192.95,-851.967 -193.144,-852.474 -193.229,-852.653 -193.329,-852.84 -193.432,-853.007 -193.535,-853.155 -193.639,-853.284 -193.776,-853.431 -193.776,-853.431 -194.123,-854.314 -193.743,-855.231 -192.826,-855.611 -191.875,-855.196 -191.875,-855.196 -191.676,-854.98 -191.46,-854.711 -191.26,-854.427 -191.077,-854.127 -190.909,-853.813 -190.743,-853.456 -190.489,-852.787 -190.264,-852.009 -189.969,-850.528 -189.819,-849.031 -189.809,-847.87 -189.892,-847.031 -190.054,-846.217 -190.296,-845.411 -190.624,-844.595 -191.353,-843.161 -192.809,-840.763 -196.425,-835.984 -200.39,-831.949 -201.792,-830.711 -203.616,-829.385 -204.864,-828.323 -208.756,-824.964 -209.739,-824.177 -210.592,-823.436 -211.364,-822.7 -212.1,-821.928 -212.841,-821.075 -213.589,-820.14 -214.047,-819.515 -214.174,-819.304 -214.272,-819.107 -214.329,-818.959 -214.353,-818.864 -214.357,-818.827 -214.358,-818.838 -214.37,-818.876 -214.387,-818.909 -214.373,-818.896 -214.314,-818.845 -214.248,-818.797 -214.19,-818.765 -214.137,-818.743 -214.081,-818.728 -214.015,-818.719 -213.933,-818.718 -213.831,-818.727 -213.76,-818.737 -213.032,-818.97 -211.483,-819.486 -210.736,-819.739 -210.289,-819.917 -209.835,-820.13 -209.376,-820.375 -208.913,-820.652 -208.466,-820.952 -208.06,-821.271 -207.686,-821.616 -207.341,-821.99 -207.024,-822.393 -206.733,-822.829 -206.469,-823.299 -206.232,-823.804 -206.021,-824.345 -205.839,-824.921 -205.315,-826.889 -204.877,-828.314 -204.741,-828.791 -204.639,-829.319 -204.562,-829.931 -204.515,-830.626 -204.493,-831.273 -205.002,-835.466 -205.133,-836.104 -205.246,-836.859 -205.324,-837.675 -205.364,-840.817 -205.364,-844.044 -205.368,-846.48 -205.398,-846.977 -205.402,-846.994 -205.335,-846.816 -205.179,-846.572 -205.179,-846.572 -205.519,-847.448 -205.14,-848.365 -204.222,-848.745 -203.266,-848.324 -203.266,-848.324 " transform="matrix(1, 0, 0, 1, 0, 0)" fill="#000000" fill-opacity="1.00" fill-rule="winding" ub:uuid="073f293b-4572-437b-9e4f-df9ecf2e1f07" ub:parent="97ad9303-6fef-4c4a-b0e1-1da9bedb9eaa"/>
    </g>
    <g ub:z-value="-999983" ub:fill-on-dark-background="#ffffff" ub:fill-on-light-background="#000000" ub:uuid="71777908-7386-4948-8252-1967c97c149f" ub:layer="-1000">
        <polygon points="-279.347,-790.274 -279.745,-790.673 -279.452,-790.489 -279.251,-790.437 -279.213,-790.434 -279.3,-790.421 -279.44,-790.388 -280.045,-790.177 -280.852,-789.822 -284.678,-788.054 -285.296,-787.826 -287.621,-786.869 -288.22,-786.575 -289.188,-786.073 -290.068,-785.577 -290.882,-785.076 -291.092,-784.939 -291.209,-784.854 -291.158,-784.914 -291.101,-784.982 -291.101,-784.982 -292.261,-784.265 -293.178,-784.645 -293.558,-785.562 -293.522,-785.865 -293.421,-786.142 -293.421,-786.142 -293.234,-786.47 -292.897,-786.824 -292.574,-787.067 -292.257,-787.276 -291.384,-787.813 -290.422,-788.355 -289.392,-788.89 -288.643,-789.253 -286.264,-790.233 -285.741,-790.42 -281.932,-792.18 -281.009,-792.586 -280.231,-792.859 -279.809,-792.965 -279.42,-793.02 -278.993,-793.018 -278.489,-792.897 -277.98,-792.574 -277.513,-792.108 -277.133,-791.191 -277.513,-790.274 -278.43,-789.894 -279.347,-790.274 " transform="matrix(1, 0, 0, 1, 0, 0)" fill="#000000" fill-opacity="1.00" fill-rule="winding" ub:uuid="f8ea9ff0-2082-4885-8ae6-d5ba7742cbd5" ub:parent="71777908-7386-4948-8252-1967c97c149f"/>
        <polygon points="-290.972,-785.711 -290.959,-785.598 -290.959,-785.599 -290.951,-785.45 -291.331,-784.533 -292.248,-784.153 -293.114,-784.484 -293.536,-785.301 -293.536,-785.301 -293.549,-785.413 -293.549,-785.413 -293.558,-785.562 -293.178,-786.479 -292.261,-786.859 -291.395,-786.527 -290.972,-785.711 -290.972,-785.711 " transform="matrix(1, 0, 0, 1, 0, 0)" fill="#000000" fill-opacity="1.00" fill-rule="winding" ub:uuid="76df0cbf-8241-4fd8-9f90-03163c3a9233" ub:parent="71777908-7386-4948-8252-1967c97c149f"/>
        <polygon points="-291.31,-786.345 -291.438,-786.434 -291.578,-786.507 -291.51,-786.492 -291.334,-786.467 -290.522,-786.435 -288.263,-786.435 -286.364,-786.427 -285.954,-786.39 -285.612,-786.332 -285.273,-786.253 -284.938,-786.153 -284.607,-786.031 -284.249,-785.875 -283.671,-785.566 -283.314,-785.341 -282.971,-785.082 -282.645,-784.77 -282.362,-784.415 -282.13,-784.024 -281.955,-783.603 -281.842,-783.164 -281.787,-782.716 -281.787,-782.265 -281.836,-781.815 -281.935,-781.336 -282.261,-780.251 -282.677,-779.229 -283.043,-778.52 -283.776,-777.394 -284.697,-776.219 -285.263,-775.608 -285.263,-775.608 -286.212,-775.195 -287.13,-775.574 -287.509,-776.492 -287.162,-777.375 -287.162,-777.375 -286.69,-777.88 -285.882,-778.909 -285.266,-779.858 -285.044,-780.292 -284.708,-781.111 -284.437,-782.024 -284.398,-782.219 -284.377,-782.409 -284.377,-782.563 -284.392,-782.686 -284.416,-782.783 -284.45,-782.864 -284.494,-782.939 -284.557,-783.017 -284.646,-783.102 -284.787,-783.206 -284.949,-783.31 -285.409,-783.555 -285.57,-783.623 -285.758,-783.692 -285.941,-783.747 -286.121,-783.789 -286.297,-783.818 -286.406,-783.833 -288.269,-783.841 -290.55,-783.841 -291.501,-783.879 -291.974,-783.94 -292.399,-784.046 -292.877,-784.275 -293.186,-784.554 -293.186,-784.554 -293.545,-785.45 -293.165,-786.367 -292.248,-786.747 -291.31,-786.345 -291.31,-786.345 " transform="matrix(1, 0, 0, 1, 0, 0)" fill="#000000" fill-opacity="1.00" fill-rule="winding" ub:uuid="cd083618-2c36-4f52-a861-40d4ad1207f0" ub:parent="71777908-7386-4948-8252-1967c97c149f"/>
    </g>
    <g ub:z-value="-999982" ub:fill-on-dark-background="#ffffff" ub:fill-on-light-background="#000000" ub:uuid="ba1afca0-7f23-4f40-9690-4cb1d4ea7569" ub:layer="-1000">
        <polygon points="-262.648,-788.448 -261.604,-786.867 -261.265,-786.237 -261.108,-785.88 -260.987,-785.549 -260.886,-785.213 -260.807,-784.874 -260.75,-784.532 -260.714,-784.151 -260.71,-783.522 -260.785,-782.632 -260.95,-781.731 -261.185,-780.894 -261.185,-780.893 -262.433,-779.95 -263.351,-780.33 -263.73,-781.247 -263.682,-781.601 -263.681,-781.601 -263.476,-782.32 -263.356,-782.975 -263.301,-783.642 -263.306,-784.05 -263.321,-784.189 -263.351,-784.365 -263.393,-784.545 -263.448,-784.728 -263.517,-784.916 -263.585,-785.077 -263.799,-785.485 -264.812,-787.017 -264.812,-787.017 -264.903,-787.178 -264.971,-787.353 -265.027,-787.733 -264.648,-788.65 -263.73,-789.03 -262.648,-788.448 -262.648,-788.448 " transform="matrix(1, 0, 0, 1, 0, 0)" fill="#000000" fill-opacity="1.00" fill-rule="winding" ub:uuid="8e56eefd-deb2-4164-add5-84157de4a6ec" ub:parent="ba1afca0-7f23-4f40-9690-4cb1d4ea7569"/>
    </g>
    <g ub:z-value="-999981" ub:fill-on-dark-background="#ffffff" ub:fill-on-light-background="#000000" ub:uuid="46e7aa49-4d86-4fd6-a689-7c9f19b521b5" ub:layer="-1000">
        <polygon points="-258.11,-799.838 -258.11,-800.292 -258.084,-800.579 -258.025,-800.834 -257.934,-801.102 -257.757,-801.499 -257.501,-801.967 -257.034,-802.71 -256.788,-803.046 -256.491,-803.356 -256.018,-803.659 -255.592,-803.766 -255.593,-803.766 -255.395,-803.781 -254.478,-803.401 -254.098,-802.484 -254.414,-801.635 -255.197,-801.202 -255.198,-801.202 -254.996,-801.275 -254.783,-801.404 -254.78,-801.403 -254.863,-801.29 -255.277,-800.632 -255.437,-800.339 -255.536,-800.114 -255.531,-800.122 -255.525,-800.152 -255.516,-800.249 -255.516,-799.838 -255.896,-798.921 -256.813,-798.541 -257.73,-798.921 -258.11,-799.838 " transform="matrix(1, 0, 0, 1, 0, 0)" fill="#000000" fill-opacity="1.00" fill-rule="winding" ub:uuid="43bbf6f6-d063-48d1-8cd6-95f94ecb916a" ub:parent="46e7aa49-4d86-4fd6-a689-7c9f19b521b5"/>
        <polygon points="-254.774,-803.623 -254.383,-803.349 -254.037,-802.838 -253.898,-802.413 -253.83,-802.013 -253.796,-801.589 -253.721,-799.578 -253.527,-798.162 -253.384,-797.522 -253.384,-797.523 -253.354,-797.244 -253.734,-796.327 -254.651,-795.947 -255.47,-796.238 -255.918,-796.965 -255.918,-796.966 -256.087,-797.745 -256.307,-799.372 -256.388,-801.477 -256.406,-801.71 -256.425,-801.829 -256.407,-801.784 -256.217,-801.515 -256.016,-801.345 -256.016,-801.345 -256.692,-802.484 -256.312,-803.401 -255.395,-803.781 -255.069,-803.74 -254.774,-803.623 -254.774,-803.623 " transform="matrix(1, 0, 0, 1, 0, 0)" fill="#000000" fill-opacity="1.00" fill-rule="winding" ub:uuid="8db34645-3ada-4e60-9d16-95477264abd4" ub:parent="46e7aa49-4d86-4fd6-a689-7c9f19b521b5"/>
    </g>
    <g ub:z-value="-999980" ub:fill-on-dark-background="#ffffff" ub:fill-on-light-background="#000000" ub:uuid="ed249e6f-6799-4685-a191-4e7ce498abe9" ub:layer="-1000">
        <polygon points="-245.353,-785.852 -244.319,-784.28 -244.103,-783.871 -243.952,-783.51 -243.834,-783.138 -243.752,-782.758 -243.707,-782.371 -243.701,-781.982 -243.733,-781.595 -243.813,-781.173 -243.993,-780.586 -244.429,-779.279 -244.873,-777.96 -245.112,-777.359 -245.385,-776.776 -245.693,-776.198 -246.041,-775.618 -246.74,-774.563 -247.781,-773.001 -248.245,-772.323 -248.424,-772.098 -248.569,-771.956 -248.569,-771.956 -249.446,-771.615 -250.363,-771.995 -250.743,-772.912 -250.322,-773.868 -250.322,-773.868 -250.363,-773.821 -250.37,-773.812 -249.934,-774.448 -248.9,-775.999 -248.224,-777.019 -247.95,-777.477 -247.705,-777.936 -247.493,-778.391 -247.317,-778.828 -246.888,-780.103 -246.459,-781.39 -246.319,-781.841 -246.304,-781.938 -246.293,-782.069 -246.295,-782.199 -246.311,-782.331 -246.341,-782.47 -246.388,-782.617 -246.453,-782.774 -246.505,-782.884 -247.52,-784.425 -247.52,-784.425 -247.61,-784.586 -247.677,-784.76 -247.734,-785.138 -247.354,-786.056 -246.437,-786.435 -245.353,-785.852 -245.353,-785.852 " transform="matrix(1, 0, 0, 1, 0, 0)" fill="#000000" fill-opacity="1.00" fill-rule="winding" ub:uuid="00c86ccf-ec08-4856-859a-a94329404e20" ub:parent="ed249e6f-6799-4685-a191-4e7ce498abe9"/>
        <polygon points="-250.224,-771.874 -250.241,-771.887 -250.241,-771.887 -250.76,-772.925 -250.38,-773.842 -249.463,-774.222 -248.685,-773.962 -248.685,-773.962 -248.668,-773.949 -248.667,-773.949 -248.149,-772.912 -248.529,-771.995 -249.446,-771.615 -250.224,-771.874 -250.224,-771.874 " transform="matrix(1, 0, 0, 1, 0, 0)" fill="#000000" fill-opacity="1.00" fill-rule="winding" ub:uuid="c57526ee-276a-4b8d-a5c8-e012feaa1307" ub:parent="ed249e6f-6799-4685-a191-4e7ce498abe9"/>
        <polygon points="-250.726,-773.222 -250.655,-773.466 -250.474,-773.895 -249.326,-776.206 -248.274,-778.297 -247.845,-779.04 -247.384,-779.731 -246.883,-780.387 -246.353,-780.993 -244.918,-782.544 -244.565,-782.988 -244.203,-783.482 -243.644,-784.25 -243.357,-784.575 -243.093,-784.832 -242.815,-785.07 -242.523,-785.288 -242.217,-785.485 -241.898,-785.659 -241.567,-785.809 -241.226,-785.937 -240.88,-786.038 -240.529,-786.109 -240.17,-786.145 -239.799,-786.136 -239.421,-786.072 -239.044,-785.943 -238.689,-785.745 -238.377,-785.485 -238.122,-785.182 -237.936,-784.871 -237.804,-784.583 -237.701,-784.303 -237.605,-783.981 -237.483,-783.406 -237.4,-782.732 -237.357,-781.68 -237.401,-780.576 -237.529,-779.556 -237.677,-778.859 -238.048,-777.563 -238.164,-776.925 -238.221,-776.232 -238.222,-776.038 -238.222,-776.038 -238.609,-775.135 -239.519,-774.762 -240.436,-775.142 -240.816,-776.059 -240.816,-776.081 -240.816,-776.081 -240.809,-776.405 -240.736,-777.268 -240.566,-778.187 -240.185,-779.52 -240.091,-779.964 -239.986,-780.786 -239.951,-781.68 -239.987,-782.547 -240.042,-782.98 -240.127,-783.374 -240.162,-783.483 -240.205,-783.601 -240.238,-783.676 -240.242,-783.686 -240.211,-783.651 -240.159,-783.607 -240.098,-783.573 -240.05,-783.556 -240.034,-783.553 -240.062,-783.553 -240.135,-783.545 -240.251,-783.521 -240.406,-783.476 -240.575,-783.412 -240.738,-783.338 -240.894,-783.253 -241.046,-783.155 -241.195,-783.045 -241.34,-782.92 -241.484,-782.78 -241.585,-782.672 -242.107,-781.953 -242.506,-781.409 -242.984,-780.815 -244.436,-779.245 -244.875,-778.744 -245.273,-778.224 -245.642,-777.67 -245.974,-777.098 -247.006,-775.047 -248.141,-772.759 -248.236,-772.53 -248.2,-772.628 -248.2,-772.627 -248.652,-771.913 -249.463,-771.628 -250.38,-772.008 -250.76,-772.925 -250.726,-773.222 -250.726,-773.222 " transform="matrix(1, 0, 0, 1, 0, 0)" fill="#000000" fill-opacity="1.00" fill-rule="winding" ub:uuid="96afe306-a39a-4b8a-b087-5836fda68d72" ub:parent="ed249e6f-6799-4685-a191-4e7ce498abe9"/>
    </g>
    <g ub:z-value="-999978" ub:fill-on-dark-background="#ffffff" ub:fill-on-light-background="#000000" ub:uuid="daa11ab9-5247-4d57-8d71-202d259ee873" ub:layer="-1000">
        <polygon points="-217.323,-782.279 -215.415,-785.939 -215.04,-786.562 -214.094,-788.164 -213.905,-788.618 -213.708,-789.178 -213.537,-789.789 -213.194,-791.16 -212.675,-793.235 -212.071,-795.65 -211.384,-798.505 -210.433,-802.84 -210.244,-803.527 -209.803,-805.086 -209.745,-805.457 -209.702,-805.883 -209.668,-806.778 -209.61,-807.105 -209.61,-807.105 -209.156,-807.808 -208.351,-808.087 -207.434,-807.707 -207.054,-806.79 -207.093,-806.475 -207.093,-806.476 -207.078,-806.63 -207.113,-805.726 -207.174,-805.114 -207.289,-804.447 -207.747,-802.825 -207.904,-802.267 -208.855,-797.929 -209.552,-795.033 -210.158,-792.606 -210.677,-790.531 -211.026,-789.135 -211.235,-788.397 -211.488,-787.677 -211.818,-786.921 -212.809,-785.237 -213.125,-784.719 -215.022,-781.08 -215.022,-781.08 -216.172,-780.383 -217.09,-780.763 -217.47,-781.68 -217.431,-781.994 -217.323,-782.279 -217.323,-782.279 " transform="matrix(1, 0, 0, 1, 0, 0)" fill="#000000" fill-opacity="1.00" fill-rule="winding" ub:uuid="21c4ac56-5eb2-45f0-bf27-999da8fe9aa8" ub:parent="daa11ab9-5247-4d57-8d71-202d259ee873"/>
        <polygon points="-208.995,-807.916 -208.965,-807.934 -208.965,-807.934 -208.66,-808.06 -208.321,-808.105 -207.404,-807.725 -207.024,-806.808 -207.677,-805.681 -207.678,-805.681 -207.708,-805.664 -207.708,-805.664 -208.013,-805.538 -208.351,-805.493 -209.268,-805.873 -209.648,-806.79 -208.995,-807.917 -208.995,-807.916 " transform="matrix(1, 0, 0, 1, 0, 0)" fill="#000000" fill-opacity="1.00" fill-rule="winding" ub:uuid="36bc9c45-b117-4133-ab61-fb082984d6f2" ub:parent="daa11ab9-5247-4d57-8d71-202d259ee873"/>
        <polygon points="-207.283,-807.586 -207.122,-807.336 -206.991,-807.002 -206.849,-806.472 -206.261,-803.802 -206.106,-803.212 -205.84,-802.334 -205.052,-799.262 -204.014,-794.575 -203.863,-793.782 -203.75,-792.956 -203.676,-792.1 -203.639,-791.204 -203.634,-789.1 -203.634,-786.522 -203.634,-783.749 -203.653,-782.681 -203.712,-781.951 -203.81,-781.264 -203.95,-780.604 -204.131,-779.979 -204.35,-779.382 -204.604,-778.797 -204.894,-778.216 -205.22,-777.64 -205.585,-777.064 -206.131,-776.286 -206.521,-775.779 -207.075,-775.128 -207.473,-774.71 -207.881,-774.321 -208.331,-773.93 -209.041,-773.374 -209.838,-772.815 -210.431,-772.458 -210.782,-772.281 -211.108,-772.14 -211.439,-772.018 -211.774,-771.918 -212.113,-771.839 -212.456,-771.782 -212.8,-771.747 -213.157,-771.736 -213.537,-771.757 -213.937,-771.833 -214.349,-771.989 -214.751,-772.256 -215.09,-772.638 -215.31,-773.09 -215.406,-773.545 -215.407,-773.971 -215.346,-774.365 -215.239,-774.746 -215.025,-775.33 -214.771,-775.916 -214.481,-776.497 -214.154,-777.072 -213.789,-777.648 -213.244,-778.426 -212.854,-778.933 -212.3,-779.584 -211.907,-779.997 -211.019,-780.876 -205.644,-787.721 -204.025,-790.733 -202.51,-794.275 -202.281,-795 -202.096,-795.769 -201.974,-796.534 -201.914,-797.257 -201.922,-802.23 -202.043,-803.427 -202.641,-806.42 -202.75,-807.429 -202.804,-808.724 -202.9,-809.355 -203.076,-810.053 -203.142,-810.255 -203.142,-810.255 -203.202,-810.647 -202.822,-811.564 -201.905,-811.944 -200.668,-811.039 -200.669,-811.038 -200.57,-810.722 -200.357,-809.864 -200.219,-808.938 -200.161,-807.604 -200.088,-806.876 -199.485,-803.858 -199.329,-802.289 -199.32,-797.231 -199.398,-796.225 -199.552,-795.26 -199.783,-794.3 -200.107,-793.296 -201.687,-789.609 -203.527,-786.222 -209.004,-779.241 -210.061,-778.174 -210.361,-777.861 -210.844,-777.293 -211.146,-776.9 -211.638,-776.199 -211.93,-775.738 -212.192,-775.276 -212.42,-774.819 -212.616,-774.367 -212.782,-773.913 -212.814,-773.802 -212.822,-773.755 -212.823,-773.791 -212.849,-773.91 -212.932,-774.077 -213.063,-774.225 -213.189,-774.31 -213.254,-774.336 -213.24,-774.334 -213.135,-774.33 -212.973,-774.336 -212.799,-774.353 -212.622,-774.382 -212.443,-774.424 -212.259,-774.479 -212.071,-774.548 -211.879,-774.632 -211.71,-774.715 -211.266,-774.98 -210.585,-775.459 -209.971,-775.94 -209.626,-776.241 -209.307,-776.544 -209.014,-776.852 -208.53,-777.42 -208.229,-777.812 -207.737,-778.513 -207.445,-778.975 -207.183,-779.437 -206.954,-779.894 -206.758,-780.346 -206.596,-780.787 -206.467,-781.233 -206.364,-781.715 -206.29,-782.238 -206.245,-782.789 -206.229,-783.761 -206.229,-786.522 -206.229,-789.098 -206.233,-791.17 -206.265,-791.934 -206.329,-792.669 -206.424,-793.365 -206.549,-794.024 -207.578,-798.668 -208.346,-801.666 -208.6,-802.5 -208.79,-803.224 -209.378,-805.898 -209.479,-806.267 -209.442,-806.176 -209.359,-806.029 -209.359,-806.029 -209.618,-806.808 -209.238,-807.725 -208.321,-808.105 -207.283,-807.586 -207.283,-807.586 " transform="matrix(1, 0, 0, 1, 0, 0)" fill="#000000" fill-opacity="1.00" fill-rule="winding" ub:uuid="018d7dcb-5881-4c41-a384-d5f7c563a54c" ub:parent="daa11ab9-5247-4d57-8d71-202d259ee873"/>
    </g>
    <g ub:z-value="-999977" ub:fill-on-dark-background="#ffffff" ub:fill-on-light-background="#000000" ub:uuid="5ea02f4c-8f48-4e20-b9f9-7713cacefa2c" ub:layer="-1000">
        <polygon points="-123.349,-790.795 -126.093,-790.138 -126.818,-790.015 -127.472,-789.938 -128.037,-789.903 -129.808,-789.748 -130.148,-789.661 -130.603,-789.524 -131.628,-789.183 -132.925,-788.75 -134.481,-788.231 -135.766,-787.803 -135.872,-787.761 -135.936,-787.726 -135.98,-787.692 -136.015,-787.655 -136.049,-787.606 -136.086,-787.533 -136.123,-787.427 -136.157,-787.282 -136.177,-787.138 -136.185,-786.552 -136.154,-785.974 -136.094,-785.43 -136.005,-784.928 -135.883,-784.443 -135.829,-784.27 -135.77,-784.117 -135.702,-783.983 -135.616,-783.849 -135.51,-783.711 -135.38,-783.57 -135.224,-783.425 -135.04,-783.279 -134.827,-783.132 -134.657,-783.023 -132.46,-781.989 -131.208,-781.535 -130.573,-781.378 -129.92,-781.28 -129.206,-781.246 -129.206,-781.246 -128.333,-780.846 -127.974,-779.95 -128.354,-779.033 -129.271,-778.653 -129.336,-778.655 -129.336,-778.655 -130.178,-778.699 -131.082,-778.834 -132.004,-779.066 -133.484,-779.606 -135.792,-780.691 -136.236,-780.954 -136.585,-781.196 -136.912,-781.456 -137.214,-781.735 -137.49,-782.035 -137.738,-782.356 -137.955,-782.696 -138.137,-783.056 -138.278,-783.413 -138.388,-783.767 -138.543,-784.389 -138.662,-785.063 -138.74,-785.764 -138.778,-786.501 -138.768,-787.264 -138.711,-787.733 -138.615,-788.15 -138.47,-788.555 -138.274,-788.94 -138.023,-789.297 -137.72,-789.615 -137.375,-789.884 -136.998,-790.099 -136.611,-790.256 -135.302,-790.692 -133.745,-791.211 -132.448,-791.644 -131.398,-791.993 -130.816,-792.168 -130.118,-792.323 -128.249,-792.488 -127.707,-792.522 -127.185,-792.583 -126.664,-792.668 -123.953,-793.317 -123.953,-793.318 -123.651,-793.353 -122.734,-792.973 -122.354,-792.056 -122.637,-791.247 -123.348,-790.794 -123.349,-790.795 " transform="matrix(1, 0, 0, 1, 0, 0)" fill="#000000" fill-opacity="1.00" fill-rule="winding" ub:uuid="3c74e5fe-a20f-4b05-9be2-def26037bb3f" ub:parent="5ea02f4c-8f48-4e20-b9f9-7713cacefa2c"/>
    </g>
    <g ub:z-value="-999976" ub:fill-on-dark-background="#ffffff" ub:fill-on-light-background="#000000" ub:uuid="993d67ba-60b6-4a56-bb2f-d8639f3ea9bf" ub:layer="-1000">
        <polygon points="-110.68,-782.977 -114.575,-782.977 -114.961,-782.998 -115.353,-783.067 -115.744,-783.198 -116.121,-783.402 -116.461,-783.681 -116.74,-784.021 -116.944,-784.398 -117.075,-784.789 -117.145,-785.181 -117.165,-785.571 -117.146,-785.959 -117.085,-786.344 -116.982,-786.72 -116.839,-787.083 -116.656,-787.427 -116.439,-787.75 -116.191,-788.049 -115.915,-788.325 -115.584,-788.602 -115.012,-788.993 -114.433,-789.341 -113.854,-789.649 -113.271,-789.921 -112.68,-790.158 -111.871,-790.432 -110.308,-790.953 -109.497,-791.214 -109.119,-791.304 -108.776,-791.361 -108.432,-791.396 -108.086,-791.407 -107.741,-791.396 -107.396,-791.361 -107.054,-791.304 -106.68,-791.216 -106.077,-791.017 -105.487,-790.765 -104.933,-790.466 -104.414,-790.12 -103.959,-789.749 -103.699,-789.503 -103.459,-789.237 -103.237,-788.936 -103.044,-788.615 -102.882,-788.278 -102.748,-787.926 -102.643,-787.563 -102.563,-787.188 -102.508,-786.804 -102.475,-786.374 -102.475,-785.632 -102.508,-785.203 -102.563,-784.818 -102.643,-784.443 -102.748,-784.08 -102.882,-783.728 -103.044,-783.391 -103.237,-783.07 -103.459,-782.769 -103.705,-782.498 -103.961,-782.259 -104.23,-782.043 -104.514,-781.844 -104.814,-781.66 -105.159,-781.478 -105.799,-781.199 -106.507,-780.962 -108.186,-780.469 -109.475,-779.953 -110.484,-779.475 -110.906,-779.304 -111.309,-779.17 -111.713,-779.065 -112.118,-778.991 -112.524,-778.949 -112.929,-778.944 -113.331,-778.975 -113.729,-779.044 -114.055,-779.133 -114.055,-779.133 -114.735,-779.592 -115.004,-780.383 -114.624,-781.3 -113.707,-781.68 -113.358,-781.632 -113.359,-781.632 -113.157,-781.574 -113.01,-781.549 -112.85,-781.536 -112.676,-781.539 -112.485,-781.559 -112.276,-781.597 -112.049,-781.656 -111.803,-781.738 -111.56,-781.835 -110.502,-782.335 -109.024,-782.925 -107.262,-783.444 -106.725,-783.622 -106.258,-783.827 -106.101,-783.913 -105.934,-784.015 -105.786,-784.118 -105.657,-784.222 -105.55,-784.32 -105.467,-784.412 -105.395,-784.509 -105.328,-784.621 -105.266,-784.75 -105.209,-784.9 -105.159,-785.073 -105.118,-785.269 -105.086,-785.489 -105.068,-785.7 -105.068,-786.307 -105.086,-786.517 -105.118,-786.738 -105.159,-786.934 -105.209,-787.106 -105.266,-787.256 -105.328,-787.386 -105.395,-787.497 -105.467,-787.594 -105.556,-787.692 -105.651,-787.783 -105.956,-788.034 -106.268,-788.242 -106.613,-788.427 -106.991,-788.59 -107.417,-788.728 -107.562,-788.761 -107.739,-788.79 -107.913,-788.808 -108.086,-788.813 -108.259,-788.808 -108.434,-788.79 -108.61,-788.761 -108.751,-788.73 -109.496,-788.489 -111.046,-787.973 -111.794,-787.72 -112.24,-787.541 -112.694,-787.329 -113.154,-787.084 -113.612,-786.809 -114.052,-786.509 -114.162,-786.413 -114.275,-786.3 -114.364,-786.193 -114.432,-786.092 -114.483,-785.996 -114.521,-785.9 -114.548,-785.801 -114.565,-785.692 -114.571,-785.571 -114.566,-785.468 -114.558,-785.418 -114.56,-785.42 -114.582,-785.46 -114.627,-785.515 -114.682,-785.56 -114.722,-785.583 -114.724,-785.584 -114.675,-785.576 -114.567,-785.571 -110.68,-785.571 -109.763,-785.191 -109.383,-784.274 -109.763,-783.357 -110.68,-782.977 " transform="matrix(1, 0, 0, 1, 0, 0)" fill="#000000" fill-opacity="1.00" fill-rule="winding" ub:uuid="f6b737b7-544f-4727-a31c-71944f6bc610" ub:parent="993d67ba-60b6-4a56-bb2f-d8639f3ea9bf"/>
    </g>
    <g ub:z-value="-999975" ub:fill-on-dark-background="#ffffff" ub:fill-on-light-background="#000000" ub:uuid="83a9cfb1-effb-4b5a-a0d4-2a39f287fc9f" ub:layer="-1000">
        <polygon points="-89.0106,-790.379 -88.5553,-789.923 -88.2498,-789.475 -88.1119,-788.839 -88.22,-788.266 -88.44,-787.861 -88.6863,-787.572 -88.9446,-787.342 -89.253,-787.118 -89.793,-786.794 -92.2989,-785.262 -92.5075,-785.049 -93.0825,-784.515 -93.5588,-784.118 -94.2818,-783.572 -95.0017,-783.063 -95.0209,-783.038 -95.0455,-783.007 -95.0427,-783.014 -95.033,-783.047 -95.0294,-783.08 -95.0295,-783.088 -95.0185,-783.05 -94.9799,-782.963 -94.8929,-782.819 -94.7657,-782.639 -94.6273,-782.466 -94.4864,-782.309 -94.3432,-782.169 -94.1976,-782.044 -94.049,-781.933 -93.8969,-781.836 -93.7403,-781.75 -93.5681,-781.672 -92.3038,-781.144 -91.6986,-780.787 -91.199,-780.418 -90.7594,-780.022 -90.5081,-779.752 -90.2969,-779.485 -90.1082,-779.202 -89.9436,-778.905 -89.8043,-778.595 -89.6911,-778.274 -89.6041,-777.945 -89.543,-777.609 -89.5071,-777.268 -89.4955,-776.913 -89.5153,-776.535 -89.5761,-776.151 -89.6787,-775.774 -89.8223,-775.412 -90.0045,-775.068 -90.2217,-774.745 -90.4701,-774.445 -90.7461,-774.169 -91.1111,-773.869 -93.9607,-771.956 -93.9606,-771.956 -94.123,-771.863 -94.2992,-771.794 -94.6835,-771.736 -95.6007,-772.116 -95.9806,-773.033 -95.4065,-774.11 -95.4064,-774.11 -92.575,-776.01 -92.499,-776.081 -92.3858,-776.194 -92.297,-776.301 -92.2289,-776.402 -92.1776,-776.499 -92.1396,-776.595 -92.1126,-776.694 -92.0956,-776.802 -92.0894,-776.935 -92.095,-777.09 -92.111,-777.242 -92.1364,-777.382 -92.1705,-777.511 -92.2129,-777.631 -92.2638,-777.745 -92.3241,-777.853 -92.3948,-777.96 -92.4776,-778.064 -92.5549,-778.149 -92.8416,-778.41 -93.1375,-778.629 -93.397,-778.791 -94.5798,-779.283 -94.9004,-779.43 -95.2194,-779.604 -95.5256,-779.8 -95.8181,-780.018 -96.0961,-780.257 -96.3593,-780.514 -96.6075,-780.79 -96.8409,-781.083 -97.0683,-781.405 -97.2839,-781.771 -97.4615,-782.177 -97.5802,-782.615 -97.6235,-783.08 -97.5767,-783.555 -97.4372,-784.012 -97.2183,-784.425 -96.9403,-784.783 -96.5704,-785.13 -95.8117,-785.667 -95.1597,-786.159 -94.8059,-786.454 -94.2655,-786.957 -93.7132,-787.436 -91.1433,-789.009 -90.6457,-789.307 -90.5651,-789.368 -90.5206,-789.406 -90.5508,-789.368 -90.6411,-789.197 -90.706,-788.839 -90.6113,-788.402 -90.4356,-788.136 -90.8449,-788.545 -91.2248,-789.462 -90.8449,-790.379 -89.9278,-790.759 -89.0106,-790.379 " transform="matrix(1, 0, 0, 1, 0, 0)" fill="#000000" fill-opacity="1.00" fill-rule="winding" ub:uuid="2a791673-9a8f-4706-ac64-765e4dbe4a94" ub:parent="83a9cfb1-effb-4b5a-a0d4-2a39f287fc9f"/>
    </g>
    <g ub:z-value="-999974" ub:fill-on-dark-background="#ffffff" ub:fill-on-light-background="#000000" ub:uuid="533de006-eba9-42c0-a0a5-19165e3fa10c" ub:layer="-1000">
        <polygon points="-81.1405,-777.567 -79.6045,-778.601 -79.4727,-778.71 -79.3162,-778.85 -79.176,-778.994 -79.0511,-779.139 -78.9404,-779.288 -78.8428,-779.44 -78.7574,-779.596 -78.687,-779.75 -77.7701,-782.044 -77.4393,-782.746 -76.2799,-785.279 -76.1114,-785.734 -75.8621,-786.489 -75.5278,-787.626 -75.1046,-789.255 -74.6794,-791.104 -74.0717,-793.995 -73.627,-795.731 -73.182,-797.304 -73.1241,-797.675 -73.0806,-798.111 -73.0237,-799.184 -72.9089,-799.634 -72.9092,-799.634 -71.7001,-800.461 -70.7829,-800.081 -70.4031,-799.164 -70.4257,-798.921 -70.491,-798.693 -70.4912,-798.694 -70.437,-798.988 -70.4925,-797.934 -70.5528,-797.332 -70.6678,-796.665 -71.1221,-795.057 -71.5421,-793.42 -72.1449,-790.552 -72.5844,-788.64 -73.0259,-786.94 -73.3834,-785.724 -73.6616,-784.88 -73.9081,-784.228 -75.0834,-781.66 -75.3751,-781.047 -76.2827,-778.776 -76.4372,-778.436 -76.6111,-778.117 -76.8076,-777.811 -77.0255,-777.519 -77.2637,-777.241 -77.5213,-776.978 -77.7971,-776.729 -78.1322,-776.466 -79.6918,-775.416 -79.6917,-775.416 -79.8545,-775.322 -80.0309,-775.253 -80.4162,-775.195 -81.3333,-775.574 -81.7132,-776.492 -81.1406,-777.568 -81.1405,-777.567 " transform="matrix(1, 0, 0, 1, 0, 0)" fill="#000000" fill-opacity="1.00" fill-rule="winding" ub:uuid="6f4a8fa8-b752-4307-92d3-fd1515f61e29" ub:parent="533de006-eba9-42c0-a0a5-19165e3fa10c"/>
        <polygon points="-72.4196,-800.243 -72.3806,-800.269 -72.3808,-800.269 -72.2189,-800.361 -72.0436,-800.429 -71.6612,-800.487 -70.744,-800.107 -70.3641,-799.19 -70.9416,-798.11 -70.9417,-798.11 -70.9806,-798.085 -70.9805,-798.084 -71.1424,-797.992 -71.3177,-797.924 -71.7001,-797.867 -72.6172,-798.247 -72.9971,-799.164 -72.4197,-800.243 -72.4196,-800.243 " transform="matrix(1, 0, 0, 1, 0, 0)" fill="#000000" fill-opacity="1.00" fill-rule="winding" ub:uuid="2c46e201-4721-4833-b1b7-336c994012d8" ub:parent="533de006-eba9-42c0-a0a5-19165e3fa10c"/>
        <polygon points="-71.0401,-800.328 -70.6965,-800.081 -70.4371,-799.739 -70.2903,-799.443 -70.1097,-798.961 -69.5871,-797.393 -69.1519,-796.074 -68.9886,-795.464 -68.8686,-794.863 -68.7882,-794.26 -68.7572,-793.773 -68.4105,-791.233 -68.2834,-790.883 -68.0072,-789.982 -67.2586,-786.987 -67.1316,-786.164 -67.056,-785.408 -67.0235,-784.741 -66.6732,-781.321 -66.3828,-779.586 -66.3752,-778.675 -66.4571,-777.856 -66.6063,-777.102 -66.9255,-775.508 -66.9799,-775.03 -67.0104,-774.536 -67.0237,-774.006 -67.0594,-773.64 -67.1165,-773.297 -67.1956,-772.958 -67.2962,-772.623 -67.4175,-772.292 -67.5741,-771.934 -67.8958,-771.333 -68.2842,-770.739 -68.8317,-769.986 -69.2164,-769.505 -69.599,-769.065 -69.9988,-768.646 -70.4464,-768.242 -70.946,-767.872 -71.4829,-767.55 -72.0539,-767.275 -72.6499,-767.049 -73.2509,-766.868 -73.8496,-766.728 -74.4513,-766.628 -75.0553,-766.568 -75.6457,-766.548 -76.0026,-766.56 -76.3405,-766.6 -76.6782,-766.675 -77.0172,-766.798 -77.3526,-766.982 -77.667,-767.239 -77.9317,-767.567 -78.12,-767.943 -78.2238,-768.332 -78.2544,-768.709 -78.2271,-769.075 -78.1479,-769.428 -78.0235,-769.76 -77.8621,-770.068 -77.6708,-770.352 -77.4545,-770.615 -77.2164,-770.859 -76.9576,-771.089 -76.6466,-771.331 -75.6748,-771.984 -70.8179,-775.831 -69.8893,-776.945 -69.2376,-777.877 -68.7062,-778.816 -68.4064,-779.485 -67.5304,-781.743 -65.0175,-787.358 -64.1218,-789.993 -63.7414,-791.58 -63.5924,-792.591 -63.559,-796.198 -63.6125,-796.813 -63.7133,-797.395 -64.7894,-800.738 -64.7896,-800.737 -64.8517,-801.135 -64.4719,-802.052 -63.5547,-802.432 -62.3198,-801.533 -62.32,-801.533 -61.2258,-798.131 -61.0412,-797.156 -60.965,-796.215 -61.0007,-792.481 -61.1977,-791.071 -61.6387,-789.242 -62.6194,-786.369 -65.1477,-780.717 -66.001,-778.514 -66.4016,-777.626 -67.0461,-776.489 -67.8472,-775.346 -69.1235,-773.867 -74.0895,-769.931 -75.167,-769.2 -75.297,-769.096 -75.4273,-768.981 -75.5264,-768.879 -75.5955,-768.796 -75.6377,-768.734 -75.6579,-768.696 -75.6632,-768.683 -75.6617,-768.69 -75.6604,-768.709 -75.665,-768.758 -75.6911,-768.853 -75.7496,-768.97 -75.8327,-769.073 -75.9137,-769.14 -75.9637,-769.168 -75.9655,-769.17 -75.9141,-769.159 -75.811,-769.147 -75.675,-769.142 -75.2278,-769.156 -74.7942,-769.199 -74.3583,-769.272 -73.9193,-769.375 -73.4827,-769.505 -73.0757,-769.659 -72.7128,-769.834 -72.385,-770.031 -72.0891,-770.249 -71.8103,-770.502 -71.5184,-770.81 -71.2092,-771.165 -70.9022,-771.549 -70.4121,-772.222 -70.126,-772.658 -69.8943,-773.094 -69.8261,-773.255 -69.7572,-773.443 -69.7021,-773.626 -69.6602,-773.806 -69.6307,-773.982 -69.6146,-774.135 -69.602,-774.651 -69.5633,-775.264 -69.4794,-775.962 -69.15,-777.611 -69.0225,-778.24 -68.966,-778.805 -68.9585,-779.277 -69.2475,-781.001 -69.6062,-784.499 -69.6428,-785.214 -69.7056,-785.842 -69.7861,-786.403 -70.5161,-789.322 -70.7588,-790.107 -70.9688,-790.804 -71.3312,-793.452 -71.3694,-794.002 -71.4274,-794.437 -71.5148,-794.874 -71.6283,-795.301 -72.0491,-796.576 -72.5641,-798.121 -72.6948,-798.47 -72.6778,-798.432 -72.5308,-798.247 -72.2823,-798.051 -72.2824,-798.051 -72.9582,-799.19 -72.5783,-800.107 -71.6612,-800.487 -71.3353,-800.445 -71.0399,-800.328 -71.0401,-800.328 " transform="matrix(1, 0, 0, 1, 0, 0)" fill="#000000" fill-opacity="1.00" fill-rule="winding" ub:uuid="b4b15cf1-10d3-449a-8130-6d724888ff0a" ub:parent="533de006-eba9-42c0-a0a5-19165e3fa10c"/>
    </g>
    <g ub:z-value="-999973" ub:fill-on-dark-background="#ffffff" ub:fill-on-light-background="#000000" ub:uuid="fcac8de1-cfd6-44aa-88aa-71d6e9d7272f" ub:layer="-1000">
        <polygon points="-139.212,-830.535 -131.612,-830.517 -130.84,-830.458 -130.153,-830.359 -129.493,-830.219 -128.91,-830.051 -128.42,-829.908 -127.96,-829.809 -127.139,-829.705 -126.194,-829.669 -126.194,-829.669 -125.311,-829.273 -124.948,-828.373 -125.328,-827.456 -126.245,-827.076 -126.295,-827.077 -126.295,-827.077 -127.348,-827.119 -128.369,-827.248 -129.05,-827.391 -129.633,-827.56 -130.122,-827.703 -130.603,-827.805 -131.126,-827.879 -131.634,-827.923 -139.218,-827.941 -139.218,-827.941 -140.133,-828.321 -140.512,-829.238 -140.132,-830.155 -139.215,-830.535 -139.212,-830.535 -139.212,-830.535 " transform="matrix(1, 0, 0, 1, 0, 0)" fill="#000000" fill-opacity="1.00" fill-rule="winding" ub:uuid="cf168ba8-811b-4fd9-8aea-7073610112de" ub:parent="fcac8de1-cfd6-44aa-88aa-71d6e9d7272f"/>
    </g>
    <g ub:z-value="-999972" ub:fill-on-dark-background="#ffffff" ub:fill-on-light-background="#000000" ub:uuid="b34007c5-f766-4d35-8251-2944d8f490b8" ub:layer="-1000">
        <polygon points="-101.708,-837.494 -104.089,-836.877 -104.607,-836.693 -105.13,-836.469 -105.617,-836.218 -106.116,-835.911 -107.844,-834.864 -108.553,-834.48 -111.823,-832.837 -111.762,-832.879 -111.522,-833.153 -111.398,-833.419 -111.398,-833.419 -111.852,-832.716 -112.656,-832.437 -113.573,-832.817 -113.953,-833.734 -113.915,-834.049 -113.914,-834.049 -113.747,-834.488 -113.343,-834.935 -112.996,-835.15 -109.729,-836.792 -109.159,-837.1 -107.463,-838.128 -106.889,-838.479 -106.235,-838.816 -105.547,-839.111 -104.785,-839.376 -102.359,-840.005 -102.359,-840.005 -102.033,-840.046 -101.116,-839.666 -100.736,-838.749 -101.013,-837.949 -101.708,-837.493 -101.708,-837.494 " transform="matrix(1, 0, 0, 1, 0, 0)" fill="#000000" fill-opacity="1.00" fill-rule="winding" ub:uuid="bc808d5e-560f-4f12-b466-cb917388c7f0" ub:parent="b34007c5-f766-4d35-8251-2944d8f490b8"/>
        <polygon points="-111.473,-834.266 -111.604,-834.458 -111.798,-834.64 -111.821,-834.655 -111.756,-834.628 -111.217,-834.478 -110.456,-834.323 -109.328,-834.134 -108.694,-834.055 -108.128,-834.008 -107.043,-833.956 -106.621,-833.89 -106.282,-833.811 -105.947,-833.711 -105.616,-833.589 -105.258,-833.433 -104.68,-833.124 -104.315,-832.893 -103.95,-832.606 -103.607,-832.229 -103.337,-831.779 -103.169,-831.273 -103.114,-830.751 -103.162,-830.244 -103.292,-829.766 -103.485,-829.315 -103.769,-828.824 -104.579,-827.754 -105.425,-826.822 -106.026,-826.26 -106.621,-825.784 -108.049,-824.753 -108.744,-824.148 -110.197,-822.699 -110.197,-822.699 -111.113,-822.32 -112.03,-822.7 -112.41,-823.617 -112.028,-824.536 -112.028,-824.536 -110.533,-826.026 -109.637,-826.804 -108.168,-827.866 -107.725,-828.22 -107.289,-828.626 -106.578,-829.407 -105.884,-830.326 -105.805,-830.475 -105.738,-830.629 -105.712,-830.722 -105.708,-830.751 -105.705,-830.73 -105.693,-830.692 -105.682,-830.673 -105.703,-830.694 -105.805,-830.77 -105.959,-830.868 -106.418,-831.113 -106.579,-831.181 -106.767,-831.25 -106.95,-831.305 -107.13,-831.347 -107.227,-831.368 -108.287,-831.419 -108.966,-831.476 -109.715,-831.57 -110.921,-831.771 -111.812,-831.953 -112.519,-832.148 -112.895,-832.294 -113.237,-832.482 -113.63,-832.837 -113.839,-833.202 -113.839,-833.201 -113.924,-833.457 -113.953,-833.734 -113.573,-834.651 -112.656,-835.031 -111.473,-834.267 -111.473,-834.266 " transform="matrix(1, 0, 0, 1, 0, 0)" fill="#000000" fill-opacity="1.00" fill-rule="winding" ub:uuid="a72f0d39-9cfa-415b-8338-a53e7b199ede" ub:parent="b34007c5-f766-4d35-8251-2944d8f490b8"/>
    </g>
    <g ub:z-value="-999971" ub:fill-on-dark-background="#ffffff" ub:fill-on-light-background="#000000" ub:uuid="ea946f63-4328-4410-ae43-1a573ecb3572" ub:layer="-1000">
        <polygon points="-89.5401,-829.765 -90.753,-825.264 -90.9635,-824.638 -91.1977,-824.053 -91.4855,-823.439 -92.0975,-822.358 -92.299,-822.046 -92.2989,-822.045 -93.3865,-821.455 -94.3037,-821.835 -94.6835,-822.752 -94.6285,-823.127 -94.4741,-823.459 -94.474,-823.459 -94.3382,-823.665 -93.7743,-824.66 -93.5779,-825.084 -93.397,-825.536 -93.2531,-825.956 -92.0448,-830.44 -92.045,-830.44 -91.5877,-831.127 -90.7924,-831.399 -89.8753,-831.019 -89.4954,-830.102 -89.5398,-829.765 -89.5401,-829.765 " transform="matrix(1, 0, 0, 1, 0, 0)" fill="#000000" fill-opacity="1.00" fill-rule="winding" ub:uuid="21a4f242-4e40-4286-8ed0-6c4693d66e06" ub:parent="ea946f63-4328-4410-ae43-1a573ecb3572"/>
    </g>
    <g ub:z-value="-999970" ub:fill-on-dark-background="#ffffff" ub:fill-on-light-background="#000000" ub:uuid="449b5479-d940-432b-8268-51a82a136a9f" ub:layer="-1000">
        <polygon points="-86.469,-843.505 -85.5518,-843.125 -85.172,-842.208 -85.5518,-841.291 -86.469,-840.911 -87.3861,-841.291 -87.766,-842.208 -87.3861,-843.125 -86.469,-843.505 " transform="matrix(1, 0, 0, 1, 0, 0)" fill="#000000" fill-opacity="1.00" fill-rule="evenodd" ub:uuid="da92d765-8fa0-4605-a4c4-2cef67fa4efb" ub:parent="449b5479-d940-432b-8268-51a82a136a9f"/>
        <polygon points="-87.766,-842.208 -87.766,-843.505 -87.3861,-844.422 -86.469,-844.802 -85.5518,-844.422 -85.172,-843.505 -85.172,-842.208 -87.766,-842.208 " transform="matrix(1, 0, 0, 1, 0, 0)" fill="#000000" fill-opacity="1.00" fill-rule="evenodd" ub:uuid="0f53d335-1768-4271-a79b-7ed12544bcfa" ub:parent="449b5479-d940-432b-8268-51a82a136a9f"/>
    </g>
    <g ub:z-value="-999969" ub:fill-on-dark-background="#ffffff" ub:fill-on-light-background="#000000" ub:uuid="54adce74-38d1-47bf-b920-ac771cc2fd92" ub:layer="-1000">
        <polygon points="-82.9578,-833.614 -82.5142,-833.17 -82.328,-832.955 -82.1698,-832.727 -82.0174,-832.457 -81.806,-831.989 -81.6029,-831.421 -81.4091,-830.762 -81.1556,-829.707 -81.0218,-829.001 -80.9266,-828.334 -80.8734,-827.752 -80.585,-825.185 -80.4703,-824.853 -80.3241,-824.358 -80.2575,-824.063 -80.2166,-823.795 -80.2,-823.509 -80.2263,-823.179 -80.3464,-822.775 -80.6577,-822.32 -81.18,-821.983 -81.7502,-821.888 -82.0838,-821.94 -82.084,-821.939 -82.7988,-822.391 -83.0837,-823.202 -82.7038,-824.119 -81.7867,-824.499 -81.4893,-824.465 -81.4896,-824.465 -81.6762,-824.481 -82.0908,-824.412 -82.492,-824.154 -82.7169,-823.828 -82.7851,-823.606 -82.7941,-823.509 -82.7948,-823.508 -82.8057,-823.578 -82.8256,-823.672 -82.9561,-824.111 -83.1527,-824.816 -83.4523,-827.472 -83.5029,-828.031 -83.5806,-828.575 -83.6889,-829.149 -83.9196,-830.109 -84.0717,-830.625 -84.2145,-831.026 -84.3489,-831.319 -84.3695,-831.352 -84.3842,-831.374 -84.371,-831.358 -84.7921,-831.779 -85.172,-832.696 -84.7921,-833.614 -83.8749,-833.993 -82.9578,-833.614 " transform="matrix(1, 0, 0, 1, 0, 0)" fill="#000000" fill-opacity="1.00" fill-rule="winding" ub:uuid="a20033e5-a92f-47fa-bb66-8d875fbbd1b3" ub:parent="54adce74-38d1-47bf-b920-ac771cc2fd92"/>
        <polygon points="-82.7428,-822.326 -82.9944,-822.674 -83.1484,-823.233 -83.1386,-823.622 -83.0796,-823.932 -82.9833,-824.253 -82.7567,-824.826 -82.2752,-825.826 -81.3326,-827.711 -80.9349,-828.488 -80.5556,-829.148 -80.1096,-829.865 -79.7592,-830.399 -79.5185,-830.727 -79.2408,-831.037 -78.9284,-831.314 -78.5794,-831.551 -78.1957,-831.739 -77.7852,-831.868 -77.3602,-831.932 -76.9342,-831.932 -76.5174,-831.874 -76.1181,-831.766 -75.7394,-831.617 -75.3791,-831.421 -75.0408,-831.167 -74.7403,-830.847 -74.5003,-830.466 -74.3399,-830.046 -74.264,-829.613 -74.2634,-829.19 -74.3349,-828.733 -74.6194,-827.725 -74.7379,-827.077 -74.7928,-826.41 -74.7881,-826.008 -74.7741,-825.893 -74.7487,-825.753 -74.7147,-825.624 -74.6723,-825.504 -74.6213,-825.39 -74.5611,-825.282 -74.4904,-825.176 -74.4075,-825.071 -74.2767,-824.931 -74.2767,-824.931 -73.931,-824.049 -74.3109,-823.132 -75.228,-822.752 -76.1793,-823.168 -76.1793,-823.168 -76.3771,-823.383 -76.5883,-823.65 -76.7769,-823.933 -76.9415,-824.23 -77.0808,-824.541 -77.194,-824.861 -77.281,-825.191 -77.3421,-825.526 -77.3801,-825.905 -77.384,-826.531 -77.3092,-827.42 -77.1423,-828.329 -76.8474,-829.379 -76.8498,-829.389 -76.8492,-829.398 -76.8425,-829.363 -76.8205,-829.306 -76.7879,-829.254 -76.7642,-829.228 -76.7718,-829.233 -76.8265,-829.262 -76.932,-829.303 -77.0429,-829.334 -77.119,-829.345 -77.1686,-829.345 -77.2019,-829.34 -77.2323,-829.33 -77.2723,-829.311 -77.3297,-829.271 -77.4065,-829.202 -77.5005,-829.097 -77.6143,-828.94 -77.9211,-828.472 -78.3312,-827.814 -78.6523,-827.255 -79.0155,-826.545 -79.9493,-824.677 -80.393,-823.757 -80.5468,-823.362 -80.563,-823.303 -80.5645,-823.301 -80.5633,-823.448 -80.6741,-823.834 -80.8306,-824.079 -80.8306,-824.079 -80.4897,-823.202 -80.8696,-822.285 -81.7867,-821.905 -82.7428,-822.326 -82.7428,-822.326 " transform="matrix(1, 0, 0, 1, 0, 0)" fill="#000000" fill-opacity="1.00" fill-rule="winding" ub:uuid="9ec6bc4a-cae9-45c8-9e45-c453ae012e0e" ub:parent="54adce74-38d1-47bf-b920-ac771cc2fd92"/>
    </g>
    <g ub:z-value="-999967" ub:fill-on-dark-background="#ffffff" ub:fill-on-light-background="#000000" ub:uuid="5e36df11-ce59-4b12-903c-daec4e443256" ub:layer="-1000">
        <polygon points="-60.9177,-831.298 -60.1815,-834.085 -59.9053,-834.881 -59.6024,-835.637 -59.1285,-836.661 -57.2906,-841.094 -56.6951,-842.391 -55.2383,-845.738 -55.1007,-846.163 -54.8412,-846.942 -54.4929,-847.987 -54.2984,-848.534 -54.1054,-848.914 -53.7867,-849.298 -53.4576,-849.518 -53.4579,-849.518 -53.1607,-849.637 -52.8326,-849.679 -51.9154,-849.299 -51.5355,-848.382 -52.2072,-847.245 -52.2075,-847.245 -52.0514,-847.37 -51.9056,-847.539 -51.8855,-847.581 -52.0369,-847.152 -52.3803,-846.121 -52.6397,-845.343 -52.848,-844.731 -54.3224,-841.342 -54.9029,-840.08 -56.74,-835.649 -57.2258,-834.598 -57.4764,-833.97 -57.6843,-833.383 -58.4096,-830.636 -58.4093,-830.636 -58.8658,-829.944 -59.6636,-829.67 -60.5807,-830.05 -60.9606,-830.967 -60.9179,-831.298 -60.9177,-831.298 " transform="matrix(1, 0, 0, 1, 0, 0)" fill="#000000" fill-opacity="1.00" fill-rule="winding" ub:uuid="2d26f3a8-afdf-4eb4-ad8f-0f931d4a6145" ub:parent="5e36df11-ce59-4b12-903c-daec4e443256"/>
        <polygon points="-52.6402,-849.665 -52.5537,-849.652 -52.5535,-849.652 -51.7668,-849.219 -51.449,-848.369 -51.8289,-847.452 -52.7461,-847.072 -52.9387,-847.086 -52.9385,-847.086 -53.025,-847.099 -53.0251,-847.099 -53.8118,-847.531 -54.1296,-848.382 -53.7497,-849.299 -52.8326,-849.679 -52.64,-849.665 -52.6402,-849.665 " transform="matrix(1, 0, 0, 1, 0, 0)" fill="#000000" fill-opacity="1.00" fill-rule="winding" ub:uuid="0454f05d-168d-46e5-a396-f9c0b1ef505e" ub:parent="5e36df11-ce59-4b12-903c-daec4e443256"/>
        <polygon points="-51.9061,-849.357 -51.6632,-849.126 -51.4254,-848.765 -51.2761,-848.432 -51.1511,-848.061 -50.9685,-847.35 -50.8188,-846.639 -50.7055,-845.958 -50.6286,-845.304 -50.5892,-844.671 -50.5844,-843.836 -50.5844,-842.018 -50.5844,-839.268 -50.5844,-835.463 -50.5844,-830.963 -50.6034,-830.224 -50.6615,-829.509 -50.7597,-828.822 -50.8998,-828.162 -51.0779,-827.547 -51.4291,-826.493 -51.9521,-824.924 -52.1765,-824.334 -52.4515,-823.763 -52.7737,-823.226 -53.143,-822.727 -53.5583,-822.268 -54.0173,-821.852 -54.5169,-821.483 -55.0538,-821.161 -55.6247,-820.886 -56.2208,-820.659 -56.8218,-820.479 -57.4204,-820.339 -58.0222,-820.239 -58.6262,-820.179 -59.2168,-820.158 -59.5756,-820.17 -59.9162,-820.206 -60.2519,-820.267 -60.5812,-820.354 -60.9019,-820.467 -61.2121,-820.607 -61.5096,-820.771 -61.7927,-820.96 -62.0598,-821.171 -62.3279,-821.421 -62.6026,-821.749 -62.8394,-822.184 -62.9689,-822.71 -62.9415,-823.266 -62.7693,-823.765 -62.5096,-824.168 -62.2049,-824.49 -61.8702,-824.759 -61.466,-825.017 -60.4564,-825.536 -59.152,-826.187 -56.684,-827.594 -56.2635,-827.877 -55.5854,-828.371 -55.202,-828.678 -54.8464,-828.987 -54.5279,-829.29 -54.2246,-829.609 -53.9238,-829.954 -53.4425,-830.567 -52.9572,-831.259 -52.665,-831.721 -52.4033,-832.183 -52.1822,-832.623 -51.9057,-833.279 -48.6272,-843.312 -46.7355,-850.495 -46.4949,-851.271 -46.3513,-851.933 -46.2777,-852.534 -46.2609,-855.618 -46.2609,-855.618 -45.8786,-856.53 -44.9639,-856.908 -44.0467,-856.528 -43.6668,-855.611 -43.6669,-855.603 -43.6669,-855.603 -43.6846,-852.462 -43.7926,-851.506 -43.9862,-850.611 -44.2299,-849.823 -46.1428,-842.566 -49.4446,-832.459 -49.8166,-831.559 -50.1144,-830.962 -50.4406,-830.386 -50.8056,-829.81 -51.358,-829.023 -51.9143,-828.314 -52.3052,-827.864 -52.6936,-827.456 -53.1015,-827.067 -53.5414,-826.685 -54.0227,-826.3 -54.7714,-825.756 -55.3712,-825.356 -57.9097,-823.91 -59.2859,-823.221 -60.2305,-822.736 -60.3624,-822.648 -60.46,-822.571 -60.4839,-822.547 -60.4491,-822.605 -60.3978,-822.757 -60.3877,-822.968 -60.4308,-823.148 -60.4774,-823.237 -60.458,-823.219 -60.3716,-823.141 -60.2669,-823.058 -60.1609,-822.987 -60.052,-822.927 -59.9385,-822.876 -59.8183,-822.833 -59.6892,-822.799 -59.5494,-822.774 -59.3971,-822.758 -59.2457,-822.752 -58.7987,-822.767 -58.3651,-822.81 -57.9292,-822.883 -57.4902,-822.985 -57.0536,-823.116 -56.6466,-823.27 -56.2837,-823.445 -55.9559,-823.641 -55.66,-823.86 -55.3926,-824.102 -55.1507,-824.369 -54.9321,-824.665 -54.7355,-824.993 -54.5608,-825.356 -54.4047,-825.769 -53.8901,-827.313 -53.5495,-828.334 -53.4164,-828.791 -53.3143,-829.273 -53.2397,-829.796 -53.1939,-830.361 -53.1784,-830.971 -53.1784,-835.463 -53.1784,-839.268 -53.1784,-842.018 -53.1784,-843.831 -53.1822,-844.596 -53.212,-845.069 -53.2735,-845.591 -53.3677,-846.156 -53.4946,-846.76 -53.6493,-847.362 -53.6973,-847.501 -53.7209,-847.557 -53.656,-847.465 -53.5861,-847.381 -53.5861,-847.381 -54.0431,-848.369 -53.6632,-849.286 -52.7461,-849.666 -51.906,-849.357 -51.9061,-849.357 " transform="matrix(1, 0, 0, 1, 0, 0)" fill="#000000" fill-opacity="1.00" fill-rule="winding" ub:uuid="e07273de-4987-4fd9-a53b-09ec5ca760a4" ub:parent="5e36df11-ce59-4b12-903c-daec4e443256"/>
    </g>
</svg>
