<?xml version="1.0" encoding="UTF-8"?>
<svg xmlns="http://www.w3.org/2000/svg" xmlns:xlink="http://www.w3.org/1999/xlink" xmlns:ub="http://uniboard.mnemis.com/document" xmlns:xhtml="http://www.w3.org/1999/xhtml" version="1.1" ub:version="4.8.0" ub:uuid="13b81926-81b5-40d4-881c-ad576ee5cf6b" viewBox="-721 -919 1443 1838" ub:nominal-size="1343x1738" ub:dark-background="false" ub:crossed-background="true" ub:ruled-background="false" ub:grid-size="55" ub:intermediate-lines="0" pageDpi="158">
    <rect fill="white" x="-721" y="-919" width="1443" height="1838"/>
    <image xlink:href="images/{73eae234-70d0-4b24-9142-0f670a297006}.png" x="0" y="0" width="909" height="369" transform="matrix(1, 0, 0, 1, -237.395, -868.198)" ub:z-value="-999999.000000" ub:background="false" ub:uuid="73eae234-70d0-4b24-9142-0f670a297006" ub:source="/Users/khale/AppData/Local/OpenBoard/document/OpenBoard Document 2023-03-26 15-28-59.577/images/{73eae234-70d0-4b24-9142-0f670a297006}.png" ub:layer="-1000"/>
    <g ub:z-value="-999998" ub:fill-on-dark-background="#ffffff" ub:fill-on-light-background="#000000" ub:uuid="180ac5d7-1da6-475b-9647-32a6f1f69c1c" ub:layer="-1000">
        <polygon points="515.645,-406.679 514.447,-404.333 514.218,-403.967 514.016,-403.692 513.786,-403.433 513.498,-403.187 513.093,-402.967 512.519,-402.859 511.883,-402.997 511.4,-403.337 511.107,-403.74 510.948,-404.129 510.866,-404.492 510.827,-404.848 510.816,-405.25 510.855,-406.022 510.967,-406.958 511.145,-408.022 511.366,-409.051 511.627,-410.02 511.929,-410.927 512.224,-411.639 514.102,-417.607 514.817,-419.774 517.816,-429.095 517.968,-429.972 518.226,-431.521 518.572,-433.597 519.007,-436.187 519.698,-439.919 520.015,-441.928 520.075,-442.6 520.107,-443.26 520.111,-444.625 520.111,-446.353 520.111,-448.663 520.103,-450.262 520.102,-450.163 520.101,-450.162 520.076,-450.417 520.456,-451.334 521.373,-451.714 522.201,-451.416 522.645,-450.672 522.645,-450.671 522.696,-450.313 522.705,-448.669 522.705,-446.353 522.705,-444.622 522.701,-443.212 522.663,-442.419 522.584,-441.569 522.253,-439.471 521.561,-435.732 521.131,-433.169 520.785,-431.094 520.524,-429.529 520.296,-428.332 517.285,-418.976 516.574,-416.819 514.691,-410.837 514.363,-410.027 514.112,-409.274 513.888,-408.444 513.694,-407.537 513.534,-406.585 513.439,-405.792 513.409,-405.181 513.415,-405.021 513.428,-404.901 513.433,-404.875 513.395,-404.961 513.257,-405.148 512.956,-405.358 512.519,-405.453 512.161,-405.388 511.99,-405.298 511.952,-405.268 511.99,-405.312 512.073,-405.426 512.148,-405.535 513.336,-407.859 513.335,-407.859 514.49,-408.566 515.408,-408.186 515.788,-407.269 515.751,-406.96 515.646,-406.678 515.645,-406.679 " transform="matrix(1, 0, 0, 1, 0, 0)" fill="#000000" fill-opacity="1.00" fill-rule="winding" ub:uuid="cbaee3b2-4714-4f76-afeb-3f6385aa9586" ub:parent="180ac5d7-1da6-475b-9647-32a6f1f69c1c"/>
        <polygon points="520.456,-449.5 520.413,-449.543 520.033,-450.46 520.413,-451.377 521.33,-451.757 522.247,-451.377 522.291,-451.334 522.67,-450.417 522.291,-449.5 521.373,-449.12 520.456,-449.5 " transform="matrix(1, 0, 0, 1, 0, 0)" fill="#000000" fill-opacity="1.00" fill-rule="winding" ub:uuid="9e1f0f38-c850-41da-890c-96a4419c5f16" ub:parent="180ac5d7-1da6-475b-9647-32a6f1f69c1c"/>
        <polygon points="522.084,-449.405 522.282,-449.607 522.352,-449.707 522.313,-449.619 522.094,-448.997 521.631,-447.406 521.369,-446.327 521.174,-445.318 521.046,-444.39 520.978,-443.466 520.273,-436.638 518.59,-424.819 518.399,-409.457 518.482,-408.491 518.57,-407.94 518.691,-407.428 518.757,-407.217 518.757,-407.217 518.814,-406.837 518.434,-405.919 517.517,-405.54 516.277,-406.456 516.277,-406.457 516.179,-406.781 516.023,-407.445 515.903,-408.208 515.805,-409.473 516.002,-424.998 517.7,-436.967 518.397,-443.723 518.467,-444.667 518.615,-445.745 518.835,-446.881 519.127,-448.084 519.615,-449.762 519.881,-450.523 520.032,-450.867 520.257,-451.227 520.576,-451.516 520.576,-451.516 520.744,-451.618 520.927,-451.693 521.33,-451.757 522.247,-451.377 522.627,-450.46 522.084,-449.405 522.084,-449.405 " transform="matrix(1, 0, 0, 1, 0, 0)" fill="#000000" fill-opacity="1.00" fill-rule="winding" ub:uuid="1e2ee3d4-4ad3-436c-95d3-83c33fb96346" ub:parent="180ac5d7-1da6-475b-9647-32a6f1f69c1c"/>
    </g>
    <g ub:z-value="-999997" ub:fill-on-dark-background="#ffffff" ub:fill-on-light-background="#000000" ub:uuid="af37b1e1-ae01-4774-a8bc-72b0b3b0db42" ub:layer="-1000">
        <polygon points="532.244,-480.4 530.708,-480.906 530.248,-481.012 529.678,-481.102 529.024,-481.164 528.303,-481.196 527.068,-481.183 526.28,-481.136 525.034,-480.999 524.244,-480.873 522.996,-480.61 522.202,-480.404 520.95,-480.016 520.144,-479.725 519.347,-479.401 518.533,-478.994 517.673,-478.484 516.765,-477.869 515.82,-477.152 513.731,-475.413 510.318,-472.517 507.034,-469.642 505.372,-468.081 504.71,-467.412 504.003,-466.609 502.769,-465.035 501.374,-463.069 499.011,-459.499 497.273,-456.753 496.771,-455.906 495.89,-454.207 494.848,-451.958 493.227,-448.139 492.207,-445.46 491.708,-443.963 491.347,-442.683 491.123,-441.626 490.711,-439.153 489.831,-433.873 489.186,-429.468 489.055,-428.185 488.99,-427.143 488.99,-426.306 489.054,-425.276 489.282,-423.216 489.829,-419.588 491.032,-412.722 491.312,-411.472 492.286,-408.648 494.608,-403.534 498.251,-397.361 500.805,-393.81 503.873,-390.322 504.172,-390.022 504.172,-390.022 504.547,-389.11 504.167,-388.193 503.25,-387.813 502.327,-388.199 502.327,-388.199 501.934,-388.599 498.777,-392.193 496.064,-395.966 492.314,-402.322 489.89,-407.654 488.832,-410.71 488.48,-412.253 487.27,-419.161 486.711,-422.866 486.472,-425.034 486.397,-426.218 486.397,-427.231 486.471,-428.403 486.616,-429.818 487.269,-434.276 488.152,-439.579 488.571,-442.087 488.831,-443.313 489.23,-444.73 489.769,-446.347 490.824,-449.115 492.472,-453 493.558,-455.343 494.492,-457.146 495.071,-458.124 496.835,-460.912 499.228,-464.527 500.686,-466.582 501.995,-468.251 502.81,-469.177 503.575,-469.952 505.302,-471.573 508.624,-474.482 512.06,-477.397 514.19,-479.169 515.251,-479.974 516.28,-480.673 517.288,-481.27 518.273,-481.762 519.214,-482.147 520.137,-482.479 521.479,-482.895 522.414,-483.138 523.76,-483.421 524.7,-483.571 526.048,-483.72 526.989,-483.776 528.33,-483.79 529.201,-483.752 530,-483.676 530.743,-483.558 531.46,-483.388 533.054,-482.864 533.054,-482.865 533.946,-481.632 533.566,-480.715 532.649,-480.335 532.244,-480.4 532.244,-480.4 " transform="matrix(1, 0, 0, 1, 0, 0)" fill="#000000" fill-opacity="1.00" fill-rule="winding" ub:uuid="98e00124-f80e-4e3f-a788-2e14b8e3d7cf" ub:parent="af37b1e1-ae01-4774-a8bc-72b0b3b0db42"/>
    </g>
    <g ub:z-value="-999996" ub:fill-on-dark-background="#ffffff" ub:fill-on-light-background="#000000" ub:uuid="e92d12e1-a928-4d29-8fec-62ebd8386706" ub:layer="-1000">
        <polygon points="412.238,-430.768 411.198,-432.35 410.972,-432.778 410.807,-433.163 410.667,-433.563 410.55,-433.976 410.451,-434.437 410.335,-435.294 410.295,-436.236 410.334,-437.191 410.453,-438.118 410.652,-439.016 410.934,-439.88 411.291,-440.696 411.698,-441.451 412.139,-442.161 412.62,-442.835 413.141,-443.472 413.703,-444.072 414.563,-444.892 415.501,-445.706 416.51,-446.514 417.268,-447.073 418.09,-447.581 418.956,-448.014 419.86,-448.368 420.805,-448.643 422.143,-448.921 424.311,-449.355 426.075,-449.698 427.053,-449.816 428.022,-449.855 428.99,-449.816 429.962,-449.699 431.295,-449.439 432.909,-449.088 434.384,-448.737 434.797,-448.622 435.197,-448.487 435.588,-448.33 435.969,-448.153 436.339,-447.955 436.699,-447.736 437.046,-447.497 437.409,-447.217 437.997,-446.685 438.33,-446.331 438.626,-445.973 438.925,-445.563 439.424,-444.756 439.887,-443.829 440.302,-442.81 440.668,-441.71 440.935,-440.637 441.09,-439.643 441.129,-439.109 441.134,-438.62 441.108,-438.142 441.048,-437.674 440.949,-437.202 440.718,-436.414 440.411,-435.589 440.035,-434.743 439.583,-433.859 438.805,-432.528 437.931,-431.183 436.98,-429.844 435.953,-428.51 434.889,-427.22 433.823,-426.008 432.759,-424.876 432.023,-424.145 431.25,-423.446 430.439,-422.782 429.593,-422.157 428.703,-421.564 427.398,-420.788 426.235,-420.166 425.513,-419.824 424.857,-419.554 424.263,-419.35 423.385,-419.08 422.117,-418.728 421.406,-418.545 420.973,-418.459 420.516,-418.423 420.012,-418.477 419.448,-418.707 418.944,-419.196 418.691,-419.812 418.661,-420.364 418.744,-420.833 418.888,-421.261 419.082,-421.69 419.324,-422.122 419.607,-422.532 419.928,-422.911 420.284,-423.256 420.674,-423.565 421.094,-423.835 421.54,-424.066 422.01,-424.26 422.501,-424.416 423.03,-424.541 423.976,-424.692 424.943,-424.769 425.912,-424.769 426.879,-424.692 427.849,-424.537 428.765,-424.308 429.252,-424.147 429.691,-423.974 430.115,-423.777 430.522,-423.558 430.911,-423.316 431.282,-423.051 431.661,-422.739 432.262,-422.146 433.047,-421.217 433.753,-420.193 434.354,-419.121 434.563,-418.671 434.728,-418.247 434.862,-417.816 434.966,-417.381 435.037,-416.941 435.076,-416.499 435.081,-416.056 435.054,-415.614 434.981,-415.112 434.691,-413.977 434.158,-412.461 431.03,-405.493 430.246,-404.13 425.843,-398.237 424.198,-396.423 423.27,-395.582 422.273,-394.845 421.231,-394.218 420.837,-394.012 420.837,-394.012 420.552,-393.904 420.239,-393.866 419.322,-394.246 418.942,-395.163 419.642,-396.315 419.642,-396.315 419.931,-396.463 420.834,-397.003 421.627,-397.59 422.334,-398.227 423.801,-399.837 428.14,-405.644 428.679,-406.59 431.777,-413.491 432.213,-414.742 432.45,-415.682 432.472,-415.872 432.488,-416.121 432.485,-416.37 432.463,-416.62 432.422,-416.872 432.361,-417.128 432.279,-417.39 432.176,-417.657 432.065,-417.899 431.55,-418.824 430.986,-419.642 430.344,-420.399 429.899,-420.835 429.707,-420.99 429.472,-421.158 429.222,-421.313 428.955,-421.457 428.669,-421.589 428.365,-421.71 428.073,-421.808 427.33,-421.995 426.57,-422.116 425.808,-422.177 425.047,-422.177 424.285,-422.116 423.502,-421.99 423.192,-421.916 422.896,-421.822 422.631,-421.713 422.394,-421.59 422.182,-421.454 421.993,-421.304 421.822,-421.139 421.667,-420.956 421.527,-420.752 421.396,-420.518 421.297,-420.298 421.25,-420.165 421.247,-420.157 421.234,-420.321 421.102,-420.635 420.823,-420.907 420.587,-421.007 420.516,-421.018 420.595,-421.025 420.802,-421.068 421.44,-421.232 422.663,-421.572 423.471,-421.82 423.939,-421.98 424.46,-422.194 425.052,-422.475 426.12,-423.045 427.331,-423.766 428.102,-424.28 428.846,-424.83 429.558,-425.412 430.238,-426.027 430.893,-426.679 431.904,-427.753 432.914,-428.901 433.925,-430.127 434.895,-431.387 435.786,-432.642 436.598,-433.891 437.316,-435.119 437.695,-435.862 438.01,-436.572 438.257,-437.234 438.441,-437.864 438.489,-438.101 438.524,-438.377 438.541,-438.677 438.537,-439.001 438.516,-439.315 438.394,-440.119 438.177,-440.983 437.868,-441.914 437.522,-442.763 437.156,-443.496 436.755,-444.143 436.578,-444.381 436.382,-444.619 436.204,-444.81 435.721,-445.247 435.521,-445.399 435.289,-445.558 435.052,-445.702 434.809,-445.833 434.558,-445.949 434.3,-446.052 434.034,-446.142 433.765,-446.217 432.334,-446.558 430.767,-446.899 429.539,-447.14 428.783,-447.23 428.022,-447.261 427.26,-447.23 426.51,-447.141 424.814,-446.81 422.659,-446.379 421.411,-446.121 420.696,-445.912 420.009,-445.643 419.354,-445.315 418.722,-444.924 418.098,-444.463 417.161,-443.714 416.308,-442.972 415.534,-442.235 415.093,-441.763 414.681,-441.259 414.297,-440.722 413.943,-440.152 413.623,-439.559 413.358,-438.956 413.155,-438.333 413.009,-437.674 412.92,-436.976 412.889,-436.236 412.919,-435.518 413.011,-434.853 413.067,-434.605 413.141,-434.344 413.225,-434.103 413.319,-433.883 413.387,-433.741 414.406,-432.193 414.406,-432.193 414.496,-432.032 414.563,-431.859 414.619,-431.48 414.239,-430.563 413.322,-430.183 412.238,-430.768 412.238,-430.768 " transform="matrix(1, 0, 0, 1, 0, 0)" fill="#000000" fill-opacity="1.00" fill-rule="winding" ub:uuid="54c91455-b8f0-4cd3-8549-219326eab487" ub:parent="e92d12e1-a928-4d29-8fec-62ebd8386706"/>
    </g>
    <g ub:z-value="-999995" ub:fill-on-dark-background="#ffffff" ub:fill-on-light-background="#000000" ub:uuid="1be566c2-a379-462f-aa36-dfc1b2ead5e1" ub:layer="-1000">
        <polygon points="411.877,-473.555 411.03,-473.978 411.029,-473.98 410.997,-473.986 410.912,-473.994 410.774,-473.991 410.587,-473.971 410.391,-473.938 409.772,-473.773 409.052,-473.512 407.811,-472.979 406.57,-472.371 405.325,-471.686 404.039,-470.905 402.065,-469.611 399.811,-468.041 398.654,-467.165 397.493,-466.186 396.337,-465.113 394.562,-463.276 391.744,-460.107 388.84,-457.03 388.103,-456.163 387.245,-455.042 385.731,-452.867 383.45,-449.3 381.602,-446.219 380.591,-444.387 379.548,-442.313 378.254,-439.726 376.71,-436.569 375.169,-433.126 374.215,-430.81 373.595,-429.177 372.875,-427.091 372.192,-424.941 371.335,-422.047 370.868,-420.279 370.477,-418.515 370.162,-416.752 369.923,-414.99 369.76,-413.229 369.672,-411.473 369.655,-409.081 369.655,-405.46 369.689,-402.991 369.787,-401.601 370.066,-399.124 370.671,-395.227 371.905,-387.94 372.01,-387.566 372.409,-386.462 372.961,-385.277 374.133,-383.238 376.966,-379.183 378.475,-377.38 379.458,-376.43 381.843,-374.596 390.22,-369.464 390.221,-369.464 390.84,-368.358 390.46,-367.441 389.543,-367.061 389.185,-367.111 388.865,-367.252 388.865,-367.252 380.433,-372.419 377.803,-374.432 376.555,-375.635 374.882,-377.637 371.965,-381.814 370.673,-384.054 370.014,-385.464 369.549,-386.746 369.35,-387.488 368.111,-394.806 367.497,-398.768 367.205,-401.35 367.096,-402.9 367.061,-405.446 367.061,-409.089 367.079,-411.539 367.172,-413.414 367.346,-415.285 367.6,-417.155 367.933,-419.024 368.347,-420.891 368.84,-422.755 369.711,-425.698 370.412,-427.906 371.154,-430.057 371.805,-431.77 372.788,-434.158 374.36,-437.667 375.928,-440.875 377.229,-443.476 378.295,-445.595 379.36,-447.524 381.247,-450.669 383.567,-454.297 385.139,-456.557 386.08,-457.788 386.934,-458.789 389.832,-461.86 392.651,-465.03 394.509,-466.954 395.773,-468.128 397.034,-469.191 398.298,-470.148 400.61,-471.759 402.647,-473.094 404.025,-473.931 405.374,-474.672 406.727,-475.335 408.08,-475.917 408.986,-476.245 409.785,-476.46 410.22,-476.539 410.612,-476.58 411.002,-476.586 411.392,-476.55 411.784,-476.461 412.155,-476.316 413.037,-475.875 413.037,-475.875 413.754,-474.715 413.374,-473.798 412.457,-473.418 412.154,-473.453 411.877,-473.554 411.877,-473.555 " transform="matrix(1, 0, 0, 1, 0, 0)" fill="#000000" fill-opacity="1.00" fill-rule="winding" ub:uuid="5b75a99f-7f9c-4f77-b66f-a4c20dc35227" ub:parent="1be566c2-a379-462f-aa36-dfc1b2ead5e1"/>
    </g>
    <g ub:z-value="-999993" ub:fill-on-dark-background="#66c0ff" ub:fill-on-light-background="#004080" ub:uuid="99fbed98-5e21-4fca-97ee-df54bea2ad30" ub:layer="-1000">
        <polygon points="512.389,-414.793 514.285,-415.754 512.779,-414.764 511.259,-413.187 509.508,-409.543 509.2,-406.826 509.2,-406.825 509.194,-407.161 510.01,-411.2 512.233,-414.498 515.532,-416.722 519.571,-417.537 523.537,-416.752 526.797,-414.607 529.037,-411.417 529.941,-407.497 529.941,-407.495 529.641,-404.51 527.744,-400.581 525.921,-398.702 523.957,-397.392 521.78,-396.286 521.782,-396.285 519.538,-395.455 517.085,-395.163 513.046,-395.979 509.747,-398.202 507.524,-401.501 506.708,-405.54 507.122,-408.449 508.284,-411.039 510.078,-413.193 512.387,-414.794 512.389,-414.793 " transform="matrix(1, 0, 0, 1, 0, 0)" fill="#004080" fill-opacity="0.50" stroke="#004080" stroke-width="1" stroke-opacity="0.10" fill-rule="winding" ub:uuid="ad33d4fc-bf05-4e5c-99c1-6c64a4dbb34e" ub:parent="99fbed98-5e21-4fca-97ee-df54bea2ad30"/>
        <polygon points="512.134,-396.593 509.382,-396.08 502.536,-395.042 499.144,-394.396 498.551,-394.246 496.51,-393.701 488.847,-391.998 486.686,-391.74 485.847,-391.71 485.849,-391.71 485.523,-391.705 481.484,-392.52 478.186,-394.744 475.963,-398.042 475.147,-402.081 475.933,-406.049 478.08,-409.311 481.274,-411.55 485.198,-412.452 485.199,-412.452 485.231,-412.453 484.552,-412.302 485.467,-412.456 485.231,-412.453 491.831,-413.919 493.343,-414.334 495.033,-414.737 499.155,-415.518 506.006,-416.556 509.834,-417.273 511.465,-417.643 512.82,-417.957 514.606,-418.215 516.328,-418.294 518.003,-418.222 519.642,-418.017 521.156,-417.71 522.734,-417.227 524.434,-416.436 526.826,-414.623 528.25,-412.847 528.251,-412.848 528.689,-411.913 526.797,-414.607 523.537,-416.752 519.571,-417.537 515.532,-416.722 513.522,-415.367 512.389,-414.793 512.387,-414.794 510.078,-413.193 508.284,-411.039 507.122,-408.449 506.708,-405.54 507.524,-401.501 509.747,-398.202 512.134,-396.593 529.149,-410.931 529.501,-410.179 529.818,-408.031 529.149,-410.931 512.134,-396.593 529.924,-407.318 529.947,-407.161 529.869,-406.776 529.924,-407.318 512.134,-396.593 529.247,-403.693 529.131,-403.122 528.566,-402.283 529.247,-403.693 512.134,-396.593 513.522,-415.367 514.285,-415.754 512.779,-414.764 511.56,-413.5 512.233,-414.498 513.522,-415.367 512.134,-396.593 511.56,-413.5 511.259,-413.187 511.034,-412.719 511.56,-413.5 512.134,-396.593 511.034,-412.719 509.796,-410.143 510.01,-411.2 511.034,-412.719 512.134,-396.593 509.796,-410.143 509.508,-409.543 509.294,-407.653 509.796,-410.143 512.134,-396.593 509.294,-407.653 509.2,-406.826 509.2,-406.825 509.194,-407.161 509.294,-407.653 512.134,-396.593 " transform="matrix(1, 0, 0, 1, 0, 0)" fill="#004080" fill-opacity="0.50" stroke="#004080" stroke-width="1" stroke-opacity="0.10" fill-rule="winding" ub:uuid="cc59182a-c2b4-459d-8c0c-9f8f91d0999c" ub:parent="99fbed98-5e21-4fca-97ee-df54bea2ad30"/>
        <polygon points="484.876,-391.725 483.61,-391.859 481.569,-392.417 481.566,-392.415 478.855,-393.931 476.726,-396.16 475.334,-398.946 474.836,-402.133 475.651,-406.172 477.875,-409.47 481.173,-411.694 485.212,-412.509 485.363,-412.482 485.231,-412.453 485.199,-412.452 485.198,-412.452 481.274,-411.55 478.08,-409.311 475.933,-406.049 475.147,-402.081 475.963,-398.042 478.186,-394.744 481.484,-392.52 485.523,-391.705 485.197,-391.71 484.876,-391.724 484.876,-391.725 485.231,-412.453 484.552,-412.302 485.467,-412.456 485.231,-412.453 484.876,-391.725 " transform="matrix(1, 0, 0, 1, 0, 0)" fill="#004080" fill-opacity="0.50" stroke="#004080" stroke-width="1" stroke-opacity="0.10" fill-rule="winding" ub:uuid="e9c43c21-471e-4889-974d-f79711c3fafb" ub:parent="99fbed98-5e21-4fca-97ee-df54bea2ad30"/>
        <polygon points="474.836,-402.133 474.836,-402.198 475.651,-406.236 477.875,-409.535 481.173,-411.758 485.212,-412.574 485.508,-412.514 485.363,-412.482 485.212,-412.509 481.173,-411.694 477.875,-409.47 475.651,-406.172 474.836,-402.133 481.35,-392.536 481.173,-392.572 480.625,-392.942 481.35,-392.536 474.836,-402.133 478.31,-394.502 477.875,-394.796 477.504,-395.346 478.31,-394.502 474.836,-402.133 476.072,-397.47 475.651,-398.094 475.577,-398.459 476.072,-397.47 474.836,-402.133 " transform="matrix(1, 0, 0, 1, 0, 0)" fill="#004080" fill-opacity="0.50" stroke="#004080" stroke-width="1" stroke-opacity="0.10" fill-rule="winding" ub:uuid="d5e1d77b-4b1d-49e3-92ec-2555d62b17bd" ub:parent="99fbed98-5e21-4fca-97ee-df54bea2ad30"/>
        <polygon points="478.379,-410.006 479.56,-410.922 481.2,-411.838 482.692,-412.464 485.647,-413.49 490.068,-414.892 497.902,-417.29 506.034,-420.216 515.47,-423.432 521.167,-425.459 520.333,-424.222 520.119,-423.969 519.853,-423.511 519.041,-422.307 518.825,-421.236 518.306,-419.338 518.276,-418.517 518.226,-418.268 518.227,-418.194 518.003,-418.222 516.328,-418.294 514.606,-418.215 512.82,-417.957 511.465,-417.643 509.834,-417.273 506.006,-416.556 499.155,-415.518 495.033,-414.737 493.343,-414.334 491.831,-413.919 485.508,-412.514 485.212,-412.574 481.173,-411.758 478.179,-409.74 478.379,-410.007 478.379,-410.006 474.836,-402.198 475.084,-404.464 475.602,-405.993 474.836,-402.198 478.379,-410.006 475.718,-406.336 475.793,-406.556 476.529,-407.538 475.718,-406.336 478.379,-410.006 518.265,-418.189 518.276,-418.517 518.825,-421.236 519.086,-422.188 519.853,-423.511 520.333,-424.222 520.895,-424.888 521.331,-425.302 521.825,-425.691 521.927,-425.753 521.988,-425.79 521.818,-425.708 521.754,-425.668 521.167,-425.459 521.265,-425.605 524.563,-427.829 528.602,-428.644 532.504,-427.886 535.729,-425.81 537.981,-422.714 538.96,-418.898 538.96,-418.896 538.916,-416.913 538.05,-413.76 536.826,-411.659 535.756,-410.403 534.948,-409.642 534.031,-408.908 532.926,-408.154 531.654,-407.425 530.406,-406.816 529.85,-406.584 529.869,-406.776 529.947,-407.161 529.924,-407.318 529.941,-407.495 529.941,-407.497 529.818,-408.031 529.501,-410.179 529.149,-410.931 529.037,-411.417 528.689,-411.913 528.251,-412.848 528.25,-412.847 526.826,-414.623 524.434,-416.436 522.734,-417.227 521.156,-417.71 519.642,-418.017 518.265,-418.189 478.379,-410.006 " transform="matrix(1, 0, 0, 1, 0, 0)" fill="#004080" fill-opacity="0.50" stroke="#004080" stroke-width="1" stroke-opacity="0.10" fill-rule="winding" ub:uuid="2b4da0c8-d0a3-4493-8563-e4d421f13b52" ub:parent="99fbed98-5e21-4fca-97ee-df54bea2ad30"/>
        <polygon points="475.707,-406.32 472.998,-408.146 470.774,-411.445 469.959,-415.484 470.616,-419.124 472.426,-422.201 475.151,-424.474 478.552,-425.707 478.557,-425.706 480.249,-425.999 482.662,-426.326 490.513,-427.051 508.419,-428.501 509.527,-428.702 512.57,-429.082 516.162,-429.438 519.518,-429.667 521.945,-429.746 524.188,-429.729 526.231,-429.61 527.774,-429.435 529.246,-429.177 530.649,-428.823 532.136,-428.289 533.544,-427.577 535.262,-426.336 535.718,-425.816 532.504,-427.886 528.602,-428.644 524.563,-427.829 521.265,-425.605 521.167,-425.459 515.47,-423.432 506.034,-420.216 497.902,-417.29 490.068,-414.892 485.647,-413.49 482.692,-412.464 481.2,-411.838 479.56,-410.922 478.379,-410.006 478.379,-410.007 478.179,-409.74 477.875,-409.535 476.529,-407.538 475.793,-406.556 475.718,-406.336 475.707,-406.32 535.752,-425.779 537.175,-424.158 537.91,-422.812 535.752,-425.779 475.707,-406.32 537.996,-422.653 538.059,-422.539 538.06,-422.542 538.741,-420.487 538.876,-419.225 537.996,-422.653 475.707,-406.32 538.951,-418.522 538.979,-418.268 538.942,-418.086 538.951,-418.522 475.707,-406.32 518.265,-418.189 518.227,-418.194 518.226,-418.268 518.276,-418.517 518.265,-418.189 475.707,-406.32 521.167,-425.459 520.333,-424.222 520.895,-424.888 521.331,-425.302 521.825,-425.691 521.927,-425.753 521.988,-425.79 521.818,-425.708 521.754,-425.668 521.167,-425.459 475.707,-406.32 520.333,-424.222 520.119,-423.969 519.853,-423.511 520.333,-424.222 475.707,-406.32 519.853,-423.511 519.041,-422.307 518.825,-421.236 519.086,-422.188 519.853,-423.511 475.707,-406.32 518.825,-421.236 518.306,-419.338 518.276,-418.517 518.825,-421.236 475.707,-406.32 " transform="matrix(1, 0, 0, 1, 0, 0)" fill="#004080" fill-opacity="0.50" stroke="#004080" stroke-width="1" stroke-opacity="0.10" fill-rule="winding" ub:uuid="700414f9-6dc6-45c5-9ec9-a76a3269aa0f" ub:parent="99fbed98-5e21-4fca-97ee-df54bea2ad30"/>
        <polygon points="475.16,-404.688 474.68,-404.691 473.146,-404.804 471.925,-404.981 470.901,-405.201 469.808,-405.519 468.636,-405.969 467.388,-406.595 466.085,-407.451 464.413,-408.969 462.332,-412.321 461.619,-417.109 462.561,-420.796 463.889,-423.041 465.108,-424.442 466.187,-425.42 467.406,-426.342 468.78,-427.235 468.778,-427.235 471.427,-428.462 474.416,-428.899 478.455,-428.084 481.331,-426.145 480.249,-425.999 478.822,-425.752 476.055,-425.414 475.938,-425.431 475.476,-425.428 475.211,-425.454 475.637,-425.398 475.934,-425.334 476.37,-425.206 476.758,-425.057 475.151,-424.474 472.426,-422.201 470.616,-419.124 469.959,-415.484 470.774,-411.445 472.998,-408.146 475.707,-406.32 475.651,-406.236 475.602,-405.993 475.16,-404.688 " transform="matrix(1, 0, 0, 1, 0, 0)" fill="#004080" fill-opacity="0.50" stroke="#004080" stroke-width="1" stroke-opacity="0.10" fill-rule="winding" ub:uuid="4a2600a7-9830-49ad-bf5a-3a60cf79c859" ub:parent="99fbed98-5e21-4fca-97ee-df54bea2ad30"/>
        <polygon points="469.009,-427.379 475.328,-431.237 475.652,-431.469 477.14,-432.345 478.978,-433.261 481.686,-434.414 485.536,-435.841 489.395,-437.209 493.588,-438.682 499.459,-441.073 505.164,-443.076 522.558,-450.201 520.459,-447.089 520.248,-446.042 520.177,-445.899 520.002,-444.823 519.644,-443.05 519.769,-441.437 519.769,-441.442 519.679,-442.829 520.002,-444.823 520.248,-446.042 521.399,-448.34 522.732,-449.869 523.809,-450.709 524.539,-451.132 523.627,-450.692 522.686,-450.253 522.558,-450.201 522.683,-450.387 525.981,-452.611 530.02,-453.426 533.7,-452.755 536.8,-450.906 539.073,-448.126 540.272,-444.663 540.271,-444.658 540.431,-442.829 539.864,-439.336 538.435,-436.489 536.755,-434.571 535.195,-433.359 533.842,-432.581 532.445,-431.906 530.61,-431.073 526.862,-429.538 526.231,-429.61 524.188,-429.729 521.945,-429.746 519.518,-429.667 516.162,-429.438 512.57,-429.082 509.527,-428.702 508.419,-428.501 490.513,-427.051 482.662,-426.326 481.331,-426.145 478.455,-428.084 474.416,-428.899 471.427,-428.462 468.894,-427.289 469.007,-427.38 469.009,-427.379 478.822,-425.752 478.557,-425.706 478.552,-425.707 476.758,-425.057 476.37,-425.206 475.934,-425.334 475.637,-425.398 475.211,-425.454 475.476,-425.428 475.938,-425.431 476.055,-425.414 478.822,-425.752 469.009,-427.379 " transform="matrix(1, 0, 0, 1, 0, 0)" fill="#004080" fill-opacity="0.50" stroke="#004080" stroke-width="1" stroke-opacity="0.10" fill-rule="winding" ub:uuid="cde65259-d312-4d49-aae6-e16073c166aa" ub:parent="99fbed98-5e21-4fca-97ee-df54bea2ad30"/>
        <polygon points="485.966,-435.993 484.689,-436.854 482.465,-440.152 481.65,-444.191 482.366,-447.987 484.333,-451.155 487.277,-453.42 490.924,-454.51 490.928,-454.509 494.303,-454.867 498.569,-455.229 502.886,-455.521 507.221,-455.686 513.951,-455.692 521.028,-455.692 524.128,-455.691 526.178,-455.604 528.123,-455.355 529.545,-455.058 530.705,-454.727 531.882,-454.301 533.07,-453.766 534.254,-453.109 535.382,-452.345 536.469,-451.452 537.622,-450.27 538.843,-448.569 539.061,-448.141 536.8,-450.906 533.7,-452.755 530.02,-453.426 525.981,-452.611 522.683,-450.387 522.558,-450.201 505.164,-443.076 499.459,-441.073 493.588,-438.682 489.395,-437.209 485.966,-435.993 539.083,-448.097 539.473,-447.33 539.474,-447.333 540.158,-445.274 540.201,-444.867 539.083,-448.097 485.966,-435.993 522.558,-450.201 520.459,-447.089 520.248,-446.042 521.399,-448.34 522.732,-449.869 523.809,-450.709 524.539,-451.132 523.627,-450.692 522.686,-450.253 522.558,-450.201 485.966,-435.993 520.248,-446.042 520.177,-445.899 520.002,-444.823 520.248,-446.042 485.966,-435.993 520.002,-444.823 519.644,-443.05 519.769,-441.437 519.769,-441.442 519.679,-442.829 520.002,-444.823 485.966,-435.993 " transform="matrix(1, 0, 0, 1, 0, 0)" fill="#004080" fill-opacity="0.50" stroke="#004080" stroke-width="1" stroke-opacity="0.10" fill-rule="winding" ub:uuid="641524fa-65f3-427b-8707-11703d774f69" ub:parent="99fbed98-5e21-4fca-97ee-df54bea2ad30"/>
        <polygon points="479.316,-433.405 473.333,-433.214 470.775,-433.21 469.748,-433.235 468.579,-433.33 467.232,-433.546 465.572,-434.009 463.431,-435.013 460.837,-437.159 458.65,-440.94 458.131,-445.278 458.919,-448.551 459.994,-450.587 461.02,-451.938 462.015,-452.972 462.985,-453.805 463.923,-454.494 465.064,-455.21 466.624,-456.039 468.131,-456.711 468.128,-456.712 470.146,-457.366 472.32,-457.594 476.358,-456.778 479.657,-454.555 479.905,-454.186 472.741,-453.958 470.872,-453.962 470.767,-453.963 470.958,-453.946 471.484,-453.859 472.479,-453.578 474.109,-452.808 476.348,-450.946 478.337,-447.503 478.812,-443.554 478.137,-440.722 477.33,-439.179 476.702,-438.347 476.208,-437.832 475.844,-437.517 475.614,-437.347 475.286,-437.15 475.663,-437.359 476.508,-437.724 476.511,-437.723 479.014,-439.289 480.969,-441.484 481.829,-443.301 482.465,-440.152 484.689,-436.854 485.966,-435.993 485.536,-435.841 481.686,-434.414 479.316,-433.405 482.498,-448.2 481.88,-451.257 479.905,-454.186 491.312,-454.55 490.928,-454.509 490.924,-454.51 487.277,-453.42 484.333,-451.155 482.498,-448.2 479.316,-433.405 " transform="matrix(1, 0, 0, 1, 0, 0)" fill="#004080" fill-opacity="0.50" stroke="#004080" stroke-width="1" stroke-opacity="0.10" fill-rule="winding" ub:uuid="d3500bf5-4e78-4ba0-9bdf-0f52d9436dea" ub:parent="99fbed98-5e21-4fca-97ee-df54bea2ad30"/>
        <polygon points="468.54,-456.881 473.911,-458.981 480.8,-461.776 483.954,-462.907 486.78,-463.77 489.676,-464.516 492.793,-465.353 496.249,-466.315 511.161,-470.916 517.552,-472.745 526.053,-474.881 528.685,-475.487 533.04,-476.645 533.565,-476.848 535.279,-477.5 536.549,-478.039 536.898,-478.208 537.151,-478.351 536.687,-478.058 536.495,-477.927 536.491,-477.924 536.491,-477.924 536.495,-477.927 539.418,-479.506 542.818,-480.076 546.857,-479.26 550.155,-477.037 552.379,-473.738 553.194,-469.7 552.908,-467.268 552.093,-465.043 549.145,-461.475 549.144,-461.475 548.499,-460.995 547.473,-460.348 546.343,-459.729 544.962,-459.068 542.99,-458.233 540.752,-457.38 538.718,-456.684 533.777,-455.369 531.013,-454.73 530.827,-454.683 530.705,-454.727 529.545,-455.058 528.123,-455.355 526.178,-455.604 524.128,-455.691 521.028,-455.692 513.951,-455.692 507.221,-455.686 502.886,-455.521 498.569,-455.229 494.303,-454.867 491.312,-454.55 479.905,-454.186 479.657,-454.555 476.358,-456.778 472.32,-457.594 470.146,-457.366 468.385,-456.796 468.536,-456.883 468.54,-456.881 482.498,-448.2 482.366,-447.987 481.65,-444.191 481.829,-443.301 480.969,-441.484 479.014,-439.289 476.511,-437.723 476.508,-437.724 476.265,-437.619 476.099,-437.554 476.103,-437.553 475.82,-437.499 475.844,-437.517 476.208,-437.832 476.702,-438.347 477.33,-439.179 478.137,-440.722 478.812,-443.554 478.337,-447.503 476.348,-450.946 474.109,-452.808 472.479,-453.578 471.484,-453.859 470.958,-453.946 470.767,-453.963 470.872,-453.962 472.741,-453.958 479.905,-454.186 481.88,-451.257 482.498,-448.2 468.54,-456.881 " transform="matrix(1, 0, 0, 1, 0, 0)" fill="#004080" fill-opacity="0.50" stroke="#004080" stroke-width="1" stroke-opacity="0.10" fill-rule="winding" ub:uuid="ba1d7af9-4a76-4d8a-9ccb-e19cc620cf04" ub:parent="99fbed98-5e21-4fca-97ee-df54bea2ad30"/>
        <polygon points="506.198,-469.385 505.688,-471.909 506.44,-475.795 508.501,-479.013 511.575,-481.267 515.367,-482.262 515.37,-482.262 517.753,-482.419 521.009,-482.497 528.321,-482.497 533.313,-482.497 536.614,-482.487 538.65,-482.389 540.602,-482.177 542.561,-481.818 544.293,-481.349 545.565,-480.897 546.587,-480.451 547.716,-479.854 549.041,-478.962 550.617,-477.506 552.306,-475.032 553.402,-471.251 552.999,-467.064 552.324,-465.673 552.908,-467.268 553.194,-469.7 552.379,-473.738 550.155,-477.037 546.857,-479.26 542.818,-480.076 539.418,-479.506 536.495,-477.927 536.687,-478.058 537.151,-478.351 536.898,-478.208 536.549,-478.039 535.279,-477.5 533.565,-476.848 533.04,-476.645 528.685,-475.487 526.053,-474.881 517.552,-472.745 511.161,-470.916 506.198,-469.385 551.911,-464.822 551.474,-463.922 550.53,-462.758 550.53,-462.758 549.705,-462.153 551.911,-464.822 506.198,-469.385 536.495,-477.927 536.491,-477.924 536.491,-477.924 536.495,-477.927 506.198,-469.385 " transform="matrix(1, 0, 0, 1, 0, 0)" fill="#004080" fill-opacity="0.50" stroke="#004080" stroke-width="1" stroke-opacity="0.10" fill-rule="winding" ub:uuid="f9d27858-caf2-4fc0-8d53-691854be7084" ub:parent="99fbed98-5e21-4fca-97ee-df54bea2ad30"/>
        <polygon points="492.722,-465.334 491.379,-467.385 491.378,-467.383 490.568,-469.602 490.284,-472.026 491.099,-476.064 493.323,-479.363 496.621,-481.586 500.66,-482.402 503.584,-481.984 504.242,-481.687 503.846,-481.673 503.801,-481.686 503.865,-481.698 503.695,-481.716 503.663,-481.726 503.655,-481.721 503.695,-481.716 503.801,-481.686 503.708,-481.668 503.846,-481.673 504.546,-481.472 506.015,-480.793 508.384,-478.83 506.44,-475.795 505.688,-471.909 506.198,-469.385 496.249,-466.315 492.793,-465.353 492.722,-465.334 508.42,-478.887 508.344,-478.998 506.185,-480.81 504.242,-481.687 512.244,-481.969 515.115,-482.242 515.111,-482.242 515.348,-482.261 515.366,-482.262 511.575,-481.267 508.501,-479.013 508.42,-478.887 492.722,-465.334 515.369,-482.262 515.386,-482.263 515.37,-482.262 515.369,-482.262 492.722,-465.334 " transform="matrix(1, 0, 0, 1, 0, 0)" fill="#004080" fill-opacity="0.50" stroke="#004080" stroke-width="1" stroke-opacity="0.10" fill-rule="winding" ub:uuid="e4b4d609-f52e-4922-b9c5-0f91307f802b" ub:parent="99fbed98-5e21-4fca-97ee-df54bea2ad30"/>
        <polygon points="490.324,-472.938 490.829,-475.454 491.067,-475.907 490.284,-472.026 490.294,-472.486 490.323,-472.938 490.324,-472.938 491.33,-476.407 492.463,-478.563 493.921,-480.167 495.076,-481.109 496.293,-481.907 497.712,-482.682 499.298,-483.426 500.893,-484.078 502.629,-484.696 505.003,-485.407 509.324,-486.547 516.887,-488.722 522.078,-490.008 528.166,-491.359 538.043,-493.961 539.798,-494.323 541.359,-494.525 542.757,-494.599 543.635,-494.603 547.674,-493.787 550.972,-491.563 553.196,-488.265 554.011,-484.226 553.196,-480.187 551.005,-476.938 550.617,-477.506 549.041,-478.962 547.716,-479.854 546.587,-480.451 545.565,-480.897 544.293,-481.349 542.561,-481.818 540.602,-482.177 538.65,-482.389 536.614,-482.487 533.313,-482.497 528.321,-482.497 521.009,-482.497 517.753,-482.419 515.386,-482.263 515.369,-482.262 515.367,-482.262 515.366,-482.262 515.348,-482.261 515.111,-482.242 515.115,-482.242 512.244,-481.969 504.242,-481.687 503.584,-481.984 500.66,-482.402 496.621,-481.586 493.323,-479.363 491.33,-476.407 490.324,-472.938 508.42,-478.887 508.384,-478.83 506.015,-480.793 504.546,-481.472 503.846,-481.673 504.242,-481.687 506.185,-480.81 508.344,-478.998 508.42,-478.887 490.324,-472.938 491.226,-467.798 491.099,-467.987 491.026,-468.346 491.226,-467.798 490.324,-472.938 503.846,-481.673 503.801,-481.686 503.708,-481.668 503.846,-481.673 490.324,-472.938 503.801,-481.686 503.865,-481.698 503.695,-481.716 503.801,-481.686 490.324,-472.938 503.695,-481.716 503.663,-481.726 503.655,-481.721 503.695,-481.716 490.324,-472.938 " transform="matrix(1, 0, 0, 1, 0, 0)" fill="#004080" fill-opacity="0.50" stroke="#004080" stroke-width="1" stroke-opacity="0.10" fill-rule="winding" ub:uuid="60d0340f-f495-4e03-a7f8-a1f7cc83ecca" ub:parent="99fbed98-5e21-4fca-97ee-df54bea2ad30"/>
        <polygon points="543.635,-494.603 543.648,-494.603 547.687,-493.787 550.985,-491.563 553.209,-488.265 554.024,-484.226 553.209,-480.187 551.011,-476.928 551.005,-476.938 553.196,-480.187 554.011,-484.226 553.196,-488.265 550.972,-491.563 547.674,-493.787 543.635,-494.603 " transform="matrix(1, 0, 0, 1, 0, 0)" fill="#004080" fill-opacity="0.50" stroke="#004080" stroke-width="1" stroke-opacity="0.10" fill-rule="winding" ub:uuid="f7c1c7a2-d7e6-4f0c-a304-fc81032c3b9b" ub:parent="99fbed98-5e21-4fca-97ee-df54bea2ad30"/>
        <polygon points="479.186,-461.121 477.856,-460.739 472.473,-459.145 472.477,-459.144 469.527,-458.718 465.488,-459.533 462.189,-461.757 459.966,-465.055 459.15,-469.094 459.707,-472.456 461.254,-475.358 463.605,-477.616 466.576,-479.045 466.581,-479.044 472.031,-480.657 475.833,-481.749 478.263,-482.444 480.146,-482.981 482.187,-483.502 488.116,-484.557 496.129,-486.221 503.067,-487.925 513.649,-490.056 515.087,-490.449 516.953,-490.868 521.328,-491.608 528.696,-492.825 532.461,-493.559 535.278,-494.058 537.988,-494.405 540.109,-494.562 542.742,-494.598 541.359,-494.525 539.798,-494.323 538.043,-493.961 528.166,-491.359 522.078,-490.008 516.887,-488.722 509.324,-486.547 505.003,-485.407 502.629,-484.696 500.893,-484.078 499.298,-483.426 497.712,-482.682 496.293,-481.907 495.076,-481.109 493.921,-480.167 492.463,-478.563 491.33,-476.407 491.099,-476.064 491.067,-475.907 490.829,-475.454 490.324,-472.938 490.323,-472.938 490.294,-472.486 490.284,-472.026 490.568,-469.602 491.026,-468.346 491.099,-467.987 491.226,-467.798 491.378,-467.383 491.379,-467.385 492.722,-465.334 489.676,-464.516 486.78,-463.77 483.954,-462.907 480.8,-461.776 479.186,-461.121 542.813,-494.599 543.003,-494.602 543.631,-494.603 542.813,-494.599 479.186,-461.121 543.648,-494.603 547.687,-493.787 550.985,-491.563 553.209,-488.265 554.024,-484.226 553.209,-488.265 550.985,-491.563 547.687,-493.787 543.648,-494.603 479.186,-461.121 553.209,-480.187 479.186,-461.121 " transform="matrix(1, 0, 0, 1, 0, 0)" fill="#004080" fill-opacity="0.50" stroke="#004080" stroke-width="1" stroke-opacity="0.10" fill-rule="winding" ub:uuid="923184af-8de1-461f-bc29-5e0efa0853d7" ub:parent="99fbed98-5e21-4fca-97ee-df54bea2ad30"/>
        <polygon points="472.325,-459.103 461.734,-456.136 459.605,-455.761 458.426,-455.693 457.014,-455.759 454.043,-456.548 454.04,-456.546 451.498,-458.105 449.51,-460.307 448.216,-463.013 447.754,-466.085 448.569,-470.124 450.793,-473.422 454.091,-475.646 457.989,-476.433 458.145,-476.443 458.243,-476.438 461.652,-475.741 461.254,-475.358 459.707,-472.456 459.15,-469.094 459.966,-465.055 462.189,-461.757 465.488,-459.533 469.527,-458.718 472.396,-459.132 472.33,-459.101 472.325,-459.103 461.676,-475.764 459.306,-476.385 458.243,-476.438 458.13,-476.461 457.989,-476.433 457.355,-476.392 456.265,-476.155 466.568,-479.041 463.605,-477.616 461.676,-475.764 472.325,-459.103 466.579,-479.044 466.654,-479.065 466.581,-479.044 466.579,-479.044 472.325,-459.103 466.726,-479.087 466.723,-479.087 466.733,-479.089 466.726,-479.087 472.325,-459.103 " transform="matrix(1, 0, 0, 1, 0, 0)" fill="#004080" fill-opacity="0.50" stroke="#004080" stroke-width="1" stroke-opacity="0.10" fill-rule="winding" ub:uuid="372bdf2d-3204-4cc2-b7da-8178ae17e971" ub:parent="99fbed98-5e21-4fca-97ee-df54bea2ad30"/>
        <polygon points="454.849,-475.929 456.489,-476.342 457.449,-476.487 456.265,-476.155 457.355,-476.392 457.989,-476.433 454.425,-475.713 454.844,-475.93 454.849,-475.929 461.676,-475.764 461.652,-475.741 458.243,-476.438 459.306,-476.385 461.676,-475.764 454.849,-475.929 472.396,-459.132 472.477,-459.144 472.473,-459.145 477.856,-460.739 479.186,-461.121 473.911,-458.981 469.629,-457.307 469.509,-457.281 465.916,-456.647 461.323,-456.064 461.734,-456.136 472.325,-459.103 472.33,-459.101 472.396,-459.132 454.849,-475.929 454.26,-456.49 454.091,-456.524 454.065,-456.542 454.26,-456.49 454.849,-475.929 451.111,-458.533 450.793,-458.748 450.425,-459.293 451.111,-458.533 454.849,-475.929 448.945,-461.488 448.569,-462.046 448.489,-462.442 448.945,-461.488 454.849,-475.929 447.754,-466.085 448.282,-469.364 448.501,-469.787 447.754,-466.085 454.849,-475.929 449.024,-470.799 449.754,-472.211 450.437,-472.895 449.024,-470.799 454.849,-475.929 451.318,-473.776 451.999,-474.457 453.417,-475.192 451.318,-473.776 454.849,-475.929 457.989,-476.433 458.145,-476.443 458.243,-476.438 458.13,-476.461 457.989,-476.433 454.849,-475.929 " transform="matrix(1, 0, 0, 1, 0, 0)" fill="#004080" fill-opacity="0.50" stroke="#004080" stroke-width="1" stroke-opacity="0.10" fill-rule="winding" ub:uuid="c155e9a5-290f-4bc3-86c1-fd8843559f9a" ub:parent="99fbed98-5e21-4fca-97ee-df54bea2ad30"/>
        <polygon points="470.873,-480.314 468.526,-479.835 463.04,-478.619 452.922,-476.37 440.431,-473.594 429.223,-471.007 395.599,-463.6 397.109,-463.767 397.476,-463.841 399.513,-463.641 399.511,-463.64 397.584,-463.82 397.109,-463.767 393.437,-463.026 390.139,-460.802 387.915,-457.504 387.1,-453.465 387.734,-449.885 389.486,-446.845 392.13,-444.571 395.439,-443.289 395.441,-443.29 397.584,-443.067 400.046,-443.33 433.738,-450.752 445.011,-453.353 456.478,-455.902 454.26,-456.49 454.091,-456.524 454.065,-456.542 454.043,-456.548 454.04,-456.546 451.498,-458.105 451.111,-458.533 450.793,-458.748 450.425,-459.293 449.51,-460.307 448.945,-461.488 448.569,-462.046 448.489,-462.442 448.216,-463.013 447.754,-466.085 448.282,-469.364 448.501,-469.787 448.569,-470.124 449.024,-470.799 449.754,-472.211 450.437,-472.895 450.793,-473.422 451.318,-473.776 451.999,-474.457 453.417,-475.192 454.091,-475.646 454.425,-475.713 454.844,-475.93 454.849,-475.929 456.489,-476.342 457.449,-476.487 466.568,-479.041 466.576,-479.045 466.579,-479.044 466.654,-479.065 466.726,-479.087 466.723,-479.087 466.733,-479.089 470.873,-480.314 " transform="matrix(1, 0, 0, 1, 0, 0)" fill="#004080" fill-opacity="0.50" stroke="#004080" stroke-width="1" stroke-opacity="0.10" fill-rule="winding" ub:uuid="1cd25fad-4dc0-4d41-b5c2-8aeb959c3cc5" ub:parent="99fbed98-5e21-4fca-97ee-df54bea2ad30"/>
        <polygon points="387.633,-456.746 387.654,-456.811 387.652,-456.814 387.855,-457.206 387.1,-453.465 387.63,-456.749 387.633,-456.746 388.32,-458.104 389.126,-459.661 389.873,-460.407 388.32,-458.104 387.633,-456.746 390.535,-461.069 391.372,-461.906 393.103,-462.8 390.535,-461.069 387.633,-456.746 393.605,-463.06 394.22,-463.378 395.605,-463.601 397.109,-463.767 393.605,-463.06 387.633,-456.746 398.143,-463.776 398.22,-463.76 397.584,-463.82 397.109,-463.767 397.476,-463.841 398.143,-463.776 387.633,-456.746 394.3,-443.73 393.437,-443.904 392.879,-444.281 394.3,-443.73 387.633,-456.746 390.975,-445.565 390.139,-446.128 389.89,-446.498 390.975,-445.565 387.633,-456.746 388.488,-448.576 387.915,-449.426 387.871,-449.649 388.488,-448.576 387.633,-456.746 " transform="matrix(1, 0, 0, 1, 0, 0)" fill="#004080" fill-opacity="0.50" stroke="#004080" stroke-width="1" stroke-opacity="0.10" fill-rule="winding" ub:uuid="abaafe7f-6ae3-42f5-8297-717b7ca85cd6" ub:parent="99fbed98-5e21-4fca-97ee-df54bea2ad30"/>
        <polygon points="391.467,-461.973 392.73,-462.774 394.249,-463.519 397.454,-464.839 401.247,-466.242 405.001,-467.482 412.298,-469.746 417.978,-471.517 425.287,-473.608 437.252,-477.199 440.152,-477.978 449.211,-480.631 449.635,-480.808 450.826,-481.295 451.082,-481.417 449.971,-480.748 448.887,-479.867 448.887,-479.867 448.887,-479.867 448.887,-479.867 452.145,-482.008 456.107,-482.791 460.146,-481.976 463.444,-479.752 464.056,-478.844 463.04,-478.619 452.922,-476.37 440.431,-473.594 429.223,-471.007 395.599,-463.6 395.605,-463.601 394.22,-463.378 393.605,-463.06 393.437,-463.026 393.103,-462.8 391.416,-461.928 391.466,-461.974 391.467,-461.973 390.535,-461.069 390.281,-460.898 391.186,-461.719 390.535,-461.069 391.467,-461.973 387.157,-453.815 387.431,-456.053 387.582,-456.45 387.157,-453.815 391.467,-461.973 388.074,-457.739 388.308,-458.351 388.882,-459.19 388.32,-458.104 388.074,-457.739 391.467,-461.973 389.377,-459.912 389.678,-460.35 390.082,-460.717 389.873,-460.407 389.377,-459.912 391.467,-461.973 398.143,-463.776 399.513,-463.641 399.511,-463.64 398.22,-463.76 398.143,-463.776 391.467,-461.973 " transform="matrix(1, 0, 0, 1, 0, 0)" fill="#004080" fill-opacity="0.50" stroke="#004080" stroke-width="1" stroke-opacity="0.10" fill-rule="winding" ub:uuid="d6f59129-12e5-474f-b27c-90cd9a9eb542" ub:parent="99fbed98-5e21-4fca-97ee-df54bea2ad30"/>
        <polygon points="449.405,-480.288 451.052,-481.399 451.082,-481.417 451.071,-481.412 452.068,-482.084 456.107,-482.899 460.146,-482.084 463.444,-479.86 464.119,-478.858 464.056,-478.844 463.444,-479.752 460.146,-481.976 456.107,-482.791 452.145,-482.008 448.887,-479.867 449.405,-480.288 448.887,-479.867 448.887,-479.867 448.887,-479.867 448.887,-479.867 449.405,-480.288 " transform="matrix(1, 0, 0, 1, 0, 0)" fill="#004080" fill-opacity="0.50" stroke="#004080" stroke-width="1" stroke-opacity="0.10" fill-rule="winding" ub:uuid="3e0c2e4a-a9b8-4aa8-aecd-6035b0aa65e8" ub:parent="99fbed98-5e21-4fca-97ee-df54bea2ad30"/>
        <polygon points="464.205,-478.877 463.481,-479.822 463.456,-479.842 464.119,-478.858 464.205,-478.877 463.365,-479.913 461.405,-481.446 461.404,-481.445 460.397,-481.914 463.365,-479.913 464.205,-478.877 459.947,-482.124 459.25,-482.449 456.979,-482.957 455.358,-483.067 453.389,-483.03 449.298,-482.712 445.014,-482.251 442.854,-481.941 435.673,-480.803 430.323,-479.913 427.339,-479.299 424.877,-478.677 422.317,-477.947 419.563,-477.156 408.217,-474.333 401.497,-472.616 394.962,-470.699 388.967,-469.124 388.462,-469.049 386.839,-468.803 386.834,-468.804 383.354,-467.614 380.56,-465.341 378.7,-462.235 378.025,-458.545 378.841,-454.506 381.064,-451.208 384.362,-448.984 388.401,-448.169 388.71,-448.192 388.488,-448.576 387.915,-449.426 387.871,-449.649 387.734,-449.885 387.1,-453.465 387.157,-453.815 387.431,-456.053 387.582,-456.45 387.63,-456.749 387.633,-456.746 387.654,-456.811 387.652,-456.814 387.855,-457.206 387.915,-457.504 388.074,-457.739 388.308,-458.351 388.882,-459.19 389.126,-459.661 389.377,-459.912 389.678,-460.35 390.082,-460.717 390.139,-460.802 390.281,-460.898 391.186,-461.719 391.372,-461.906 391.416,-461.928 391.466,-461.974 391.467,-461.973 392.73,-462.774 394.249,-463.519 397.454,-464.839 401.247,-466.242 405.001,-467.482 412.298,-469.746 417.978,-471.517 425.287,-473.608 437.252,-477.199 440.152,-477.978 449.211,-480.631 449.635,-480.808 450.826,-481.295 451.071,-481.412 452.068,-482.084 456.107,-482.899 459.947,-482.124 464.205,-478.877 451.052,-481.399 449.971,-480.748 449.405,-480.288 451.052,-481.399 464.205,-478.877 " transform="matrix(1, 0, 0, 1, 0, 0)" fill="#004080" fill-opacity="0.50" stroke="#004080" stroke-width="1" stroke-opacity="0.10" fill-rule="winding" ub:uuid="969732d7-f998-4e39-a656-cdb05f331f22" ub:parent="99fbed98-5e21-4fca-97ee-df54bea2ad30"/>
        <polygon points="388.803,-448.03 387.7,-447.8 388.531,-448.027 388.778,-448.075 388.803,-448.03 388.531,-448.027 388.635,-448.055 388.757,-448.11 388.71,-448.192 388.401,-448.169 384.362,-448.984 381.064,-451.208 378.841,-454.506 378.025,-458.545 378.7,-462.235 380.56,-465.341 383.354,-467.614 386.656,-468.743 386.28,-468.704 386.285,-468.703 383.292,-468.079 381.804,-467.651 380.142,-466.931 377.88,-465.301 377.88,-465.301 375.471,-461.92 374.813,-459.897 374.584,-457.715 375.399,-453.676 377.623,-450.378 380.921,-448.154 384.96,-447.339 388.531,-448.027 388.803,-448.03 " transform="matrix(1, 0, 0, 1, 0, 0)" fill="#004080" fill-opacity="0.50" stroke="#004080" stroke-width="1" stroke-opacity="0.10" fill-rule="winding" ub:uuid="e7c55f80-16be-4e18-a0ec-5976291b069c" ub:parent="99fbed98-5e21-4fca-97ee-df54bea2ad30"/>
        <polygon points="380.952,-467.282 380.921,-467.276 380.892,-467.256 380.952,-467.282 377.777,-465.156 377.623,-465.052 376.216,-462.965 377.777,-465.156 380.952,-467.282 375.434,-461.805 375.399,-461.754 375.37,-461.608 375.434,-461.805 380.952,-467.282 374.584,-457.715 374.914,-455.108 375.314,-454.097 374.584,-457.715 380.952,-467.282 375.597,-453.383 375.849,-452.745 377.306,-450.708 377.528,-450.518 375.597,-453.383 380.952,-467.282 377.944,-450.161 379.203,-449.081 379.204,-449.081 380.26,-448.6 377.944,-450.161 380.952,-467.282 381.488,-448.04 382.351,-447.646 384.943,-447.273 386.55,-447.284 389.133,-447.457 388.803,-448.03 387.7,-447.8 388.531,-448.027 384.96,-447.339 381.488,-448.04 380.952,-467.282 388.778,-448.075 388.757,-448.11 388.635,-448.055 388.531,-448.027 388.778,-448.075 380.952,-467.282 " transform="matrix(1, 0, 0, 1, 0, 0)" fill="#004080" fill-opacity="0.50" stroke="#004080" stroke-width="1" stroke-opacity="0.10" fill-rule="winding" ub:uuid="d469325f-408f-46af-abc7-12921fa2dd13" ub:parent="99fbed98-5e21-4fca-97ee-df54bea2ad30"/>
        <polygon points="412.526,-446.079 407.437,-444.425 400.858,-442.422 400.061,-442.069 385.024,-436.552 368.92,-430.594 369.166,-430.66 368.156,-430.155 366.813,-429.483 366.088,-429.114 366.746,-429.5 366.757,-429.506 366.756,-429.506 366.746,-429.5 364.027,-428.183 360.922,-427.71 356.883,-428.526 353.584,-430.749 351.361,-434.048 350.545,-438.086 350.869,-440.669 351.788,-443.014 353.22,-445.04 355.086,-446.667 355.087,-446.667 356.187,-447.353 357.451,-448.004 358.875,-448.716 359.94,-449.249 361.631,-450.024 374.972,-454.96 375.314,-454.097 375.399,-453.676 375.597,-453.383 375.849,-452.745 377.306,-450.708 377.528,-450.518 377.623,-450.378 377.944,-450.161 379.203,-449.081 379.204,-449.081 380.26,-448.6 380.921,-448.154 381.488,-448.04 382.351,-447.646 384.943,-447.273 386.55,-447.284 389.133,-447.457 389.486,-446.845 389.89,-446.498 390.139,-446.128 390.975,-445.565 392.13,-444.571 392.879,-444.281 393.437,-443.904 394.3,-443.73 395.439,-443.289 395.441,-443.29 397.584,-443.067 400.046,-443.33 412.526,-446.079 " transform="matrix(1, 0, 0, 1, 0, 0)" fill="#004080" fill-opacity="0.50" stroke="#004080" stroke-width="1" stroke-opacity="0.10" fill-rule="winding" ub:uuid="6fa4f213-ffdf-443a-b2d2-963e96b1b1cb" ub:parent="99fbed98-5e21-4fca-97ee-df54bea2ad30"/>
        <polygon points="366.879,-429.516 366.686,-429.334 363.915,-427.96 360.749,-427.468 356.71,-428.284 353.411,-430.507 351.188,-433.805 350.372,-437.844 350.815,-440.239 350.545,-438.086 351.361,-434.048 353.584,-430.749 356.883,-428.526 360.922,-427.71 364.027,-428.183 366.746,-429.5 366.088,-429.114 366.813,-429.483 366.879,-429.516 350.918,-440.794 351.062,-441.572 351.064,-441.569 351.665,-442.702 350.918,-440.794 366.879,-429.516 351.963,-443.262 352.348,-443.988 353.062,-444.817 351.963,-443.262 366.879,-429.516 353.358,-445.161 353.584,-445.424 353.916,-445.647 353.358,-445.161 366.879,-429.516 366.746,-429.5 366.757,-429.506 366.756,-429.506 366.746,-429.5 366.879,-429.516 " transform="matrix(1, 0, 0, 1, 0, 0)" fill="#004080" fill-opacity="0.50" stroke="#004080" stroke-width="1" stroke-opacity="0.10" fill-rule="winding" ub:uuid="b213f0cc-bfc7-4805-b94d-d1c8a13434b3" ub:parent="99fbed98-5e21-4fca-97ee-df54bea2ad30"/>
        <polygon points="366.095,-429.041 364.831,-428.188 364.062,-428.033 366.095,-429.041 362.981,-427.815 360.792,-427.373 357.774,-427.819 356.836,-428.258 360.749,-427.468 362.981,-427.815 366.095,-429.041 356.547,-428.393 355.106,-429.068 353.655,-430.343 356.547,-428.393 366.095,-429.041 353.329,-430.629 352.919,-430.99 351.344,-433.452 351.346,-433.456 351.302,-433.551 351.301,-433.547 351.242,-433.725 353.329,-430.629 366.095,-429.041 351.146,-434.014 350.613,-435.613 350.372,-437.844 351.146,-434.014 366.095,-429.041 351.161,-441.753 351.188,-441.883 351.39,-442.183 351.161,-441.753 366.095,-429.041 " transform="matrix(1, 0, 0, 1, 0, 0)" fill="#004080" fill-opacity="0.50" stroke="#004080" stroke-width="1" stroke-opacity="0.10" fill-rule="winding" ub:uuid="7b249ece-e34a-44b4-973f-7560276a5221" ub:parent="99fbed98-5e21-4fca-97ee-df54bea2ad30"/>
        <polygon points="350.757,-435.181 350.778,-435.02 350.938,-434.636 350.757,-435.181 351.596,-433.059 351.802,-432.564 352.491,-431.659 351.596,-433.059 350.757,-435.181 353.165,-430.773 353.392,-430.475 354.488,-429.611 353.655,-430.343 353.411,-430.507 353.329,-430.629 353.165,-430.773 350.757,-435.181 355.279,-428.987 355.452,-428.851 355.453,-428.852 357.068,-428.037 357.716,-427.846 356.836,-428.258 356.71,-428.284 356.547,-428.393 355.279,-428.987 350.757,-435.181 357.842,-427.809 359.103,-427.436 360.75,-427.214 362.305,-427.157 364.022,-427.21 365.849,-427.372 368.34,-427.732 370.808,-428.22 377.854,-429.615 380.877,-430.259 382.478,-430.679 392.15,-432.684 394.657,-433.29 409.975,-436.663 414.499,-437.604 420.505,-438.968 421.369,-439.079 436.183,-441.729 436.188,-441.728 439.571,-442.97 442.28,-445.244 444.079,-448.314 444.732,-451.943 444.472,-453.229 433.738,-450.752 412.526,-446.079 407.437,-444.425 400.858,-442.422 400.061,-442.069 385.024,-436.552 368.92,-430.594 369.166,-430.66 368.156,-430.155 366.879,-429.516 366.686,-429.334 366.095,-429.041 364.831,-428.188 364.062,-428.033 363.915,-427.96 362.981,-427.815 360.792,-427.373 357.842,-427.809 350.757,-435.181 " transform="matrix(1, 0, 0, 1, 0, 0)" fill="#004080" fill-opacity="0.50" stroke="#004080" stroke-width="1" stroke-opacity="0.10" fill-rule="winding" ub:uuid="d8c86230-a3f9-4022-84a6-e99e44206ad1" ub:parent="99fbed98-5e21-4fca-97ee-df54bea2ad30"/>
        <polygon points="436.39,-441.768 431.872,-440.865 428.557,-440.202 425.745,-439.62 420.183,-438.281 415.097,-436.934 413.442,-436.435 406.69,-434.359 401.222,-432.645 393.343,-430.024 390.107,-428.91 388.644,-428.33 385.666,-427.055 378.613,-424.255 378.503,-424.214 378.636,-424.277 378.796,-424.367 378.898,-424.414 378.897,-424.415 378.885,-424.416 378.796,-424.367 376.234,-423.169 373.222,-422.725 369.183,-423.541 365.885,-425.764 364.86,-427.285 365.849,-427.372 368.34,-427.732 370.808,-428.22 377.854,-429.615 380.877,-430.259 382.478,-430.679 392.15,-432.684 394.657,-433.29 409.975,-436.663 414.499,-437.604 420.505,-438.968 421.369,-439.079 436.183,-441.729 436.188,-441.728 438.231,-442.478 436.395,-441.767 436.39,-441.768 444.732,-451.943 444.097,-448.363 444.084,-448.339 444.732,-451.943 436.39,-441.768 443.488,-447.304 442.346,-445.322 442.306,-445.288 443.488,-447.304 436.39,-441.768 441.247,-444.377 439.703,-443.049 439.631,-443.021 441.247,-444.377 436.39,-441.768 " transform="matrix(1, 0, 0, 1, 0, 0)" fill="#004080" fill-opacity="0.50" stroke="#004080" stroke-width="1" stroke-opacity="0.10" fill-rule="winding" ub:uuid="2babba9e-4122-4e9b-8b4d-92848d7ef2ce" ub:parent="99fbed98-5e21-4fca-97ee-df54bea2ad30"/>
        <polygon points="364.86,-427.285 364.022,-427.21 362.854,-427.174 364.865,-424.095 367.256,-422.185 369.254,-421.224 370.865,-420.733 372.223,-420.471 373.703,-420.31 375.67,-420.239 378.31,-420.285 380.684,-420.424 382.435,-420.602 384.298,-420.879 387.638,-421.401 387.643,-421.401 391.108,-422.598 393.89,-424.871 395.741,-427.972 396.295,-431.006 393.343,-430.024 390.107,-428.91 388.644,-428.33 385.666,-427.055 378.613,-424.255 378.503,-424.214 378.636,-424.277 378.796,-424.367 376.234,-423.169 373.222,-422.725 369.183,-423.541 365.885,-425.764 364.86,-427.285 378.796,-424.367 378.898,-424.414 378.897,-424.415 378.885,-424.416 378.796,-424.367 364.86,-427.285 " transform="matrix(1, 0, 0, 1, 0, 0)" fill="#004080" fill-opacity="0.50" stroke="#004080" stroke-width="1" stroke-opacity="0.10" fill-rule="winding" ub:uuid="db5845c7-9a5f-4508-ad57-c073b378ed72" ub:parent="99fbed98-5e21-4fca-97ee-df54bea2ad30"/>
        <polygon points="444.704,-452.082 446.393,-452.23 447.726,-452.175 447.726,-452.175 451.441,-451.125 454.443,-448.865 456.451,-445.675 457.183,-441.839 456.368,-437.8 454.144,-434.502 450.846,-432.278 447.029,-431.508 446.832,-431.483 445.888,-431.504 445.887,-431.503 446.343,-431.473 446.807,-431.463 447.029,-431.508 447.83,-431.61 436.808,-429.547 417.388,-426.592 415.69,-426.163 410.481,-425.219 395.988,-422.972 394.45,-422.587 391.436,-421.986 387.651,-421.403 391.108,-422.598 393.89,-424.871 395.741,-427.972 396.295,-431.006 401.222,-432.645 406.69,-434.359 413.442,-436.435 415.097,-436.934 420.183,-438.281 425.745,-439.62 428.557,-440.202 431.872,-440.865 436.39,-441.768 436.395,-441.767 438.231,-442.478 439.571,-442.97 439.631,-443.021 439.703,-443.049 441.247,-444.377 442.28,-445.244 442.306,-445.288 442.346,-445.322 443.488,-447.304 444.079,-448.314 444.084,-448.339 444.097,-448.363 444.732,-451.943 444.704,-452.082 387.638,-421.401 387.628,-421.4 387.638,-421.401 387.638,-421.401 444.704,-452.082 387.612,-421.397 387.616,-421.396 387.598,-421.395 387.612,-421.397 444.704,-452.082 " transform="matrix(1, 0, 0, 1, 0, 0)" fill="#004080" fill-opacity="0.50" stroke="#004080" stroke-width="1" stroke-opacity="0.10" fill-rule="winding" ub:uuid="efddb9b9-5678-47b8-b8c5-4836acddfb26" ub:parent="99fbed98-5e21-4fca-97ee-df54bea2ad30"/>
        <polygon points="453.289,-449.942 453.354,-449.89 453.354,-449.89 453.771,-449.37 452.213,-450.543 453.289,-449.942 453.289,-449.942 455.41,-447.328 456.191,-446.355 456.413,-445.736 455.41,-447.328 453.289,-449.942 456.47,-445.576 456.973,-444.169 457.248,-441.787 456.433,-437.748 454.209,-434.45 450.911,-432.227 446.872,-431.411 446.817,-431.421 447.83,-431.61 447.029,-431.508 450.846,-432.278 454.144,-434.502 456.368,-437.8 457.183,-441.839 456.47,-445.576 453.289,-449.942 446.537,-431.469 446.402,-431.492 446.832,-431.483 447.029,-431.508 446.807,-431.463 446.537,-431.469 453.289,-449.942 446.797,-452.214 446.807,-452.216 446.825,-452.212 446.797,-452.214 453.289,-449.942 448.803,-451.871 450.302,-451.612 450.898,-451.279 448.803,-451.871 453.289,-449.942 " transform="matrix(1, 0, 0, 1, 0, 0)" fill="#004080" fill-opacity="0.50" stroke="#004080" stroke-width="1" stroke-opacity="0.10" fill-rule="winding" ub:uuid="c8a36eaf-45f6-4be4-bfd9-1a2ed10418eb" ub:parent="99fbed98-5e21-4fca-97ee-df54bea2ad30"/>
        <polygon points="455.173,-435.562 454.451,-434.81 455.954,-437.039 455.173,-435.561 455.173,-435.562 453.918,-434.254 453.289,-433.598 451.102,-432.225 449.564,-431.551 446.993,-430.618 440.411,-428.473 433.951,-426.48 427.177,-424.135 425.201,-423.558 423.463,-423.116 412.465,-419.629 409.971,-418.71 399.013,-414.699 397.433,-414.192 392.105,-412.452 391.278,-412.107 382.191,-408.631 379.762,-407.609 376.266,-406.036 373.878,-404.907 373.881,-404.906 371.754,-404.171 369.447,-403.914 365.408,-404.729 362.11,-406.953 359.887,-410.251 359.071,-414.29 359.506,-417.271 360.725,-419.913 362.603,-422.09 365.014,-423.674 365.017,-423.673 365.253,-423.785 367.256,-422.185 369.254,-421.224 370.865,-420.733 372.223,-420.471 373.703,-420.31 375.67,-420.239 378.31,-420.285 380.684,-420.424 382.435,-420.602 384.298,-420.879 387.598,-421.395 387.616,-421.396 387.612,-421.397 387.628,-421.4 387.638,-421.401 387.643,-421.401 387.651,-421.403 391.436,-421.986 394.45,-422.587 395.988,-422.972 410.481,-425.219 415.69,-426.163 417.388,-426.592 436.808,-429.547 446.817,-431.421 446.872,-431.411 450.911,-432.227 453.918,-434.254 455.173,-435.562 450.697,-451.391 450.911,-451.348 451.097,-451.223 450.898,-451.279 450.697,-451.391 455.173,-435.562 453.685,-449.478 454.209,-449.125 454.324,-448.954 453.771,-449.37 453.685,-449.478 455.173,-435.562 455.272,-447.548 455.472,-447.251 455.41,-447.328 455.272,-447.548 455.173,-435.562 456.321,-445.991 456.433,-445.826 456.5,-445.491 456.47,-445.576 456.451,-445.675 456.413,-445.736 456.321,-445.991 455.173,-435.562 457.248,-441.787 456.699,-438.449 456.497,-438.065 457.248,-441.787 455.173,-435.562 446.402,-431.492 445.888,-431.504 445.887,-431.503 446.343,-431.473 446.537,-431.469 446.402,-431.492 455.173,-435.562 " transform="matrix(1, 0, 0, 1, 0, 0)" fill="#004080" fill-opacity="0.50" stroke="#004080" stroke-width="1" stroke-opacity="0.10" fill-rule="winding" ub:uuid="18b9957f-2942-41a1-b6bf-bc2f367a4d2b" ub:parent="99fbed98-5e21-4fca-97ee-df54bea2ad30"/>
        <polygon points="373.975,-404.953 373.881,-404.906 373.878,-404.907 373.975,-404.953 373.879,-404.905 372.964,-404.45 373.086,-404.631 373.879,-404.905 373.975,-404.953 372.845,-404.548 372.811,-404.514 372.505,-404.251 372.139,-403.985 372.335,-404.117 372.65,-404.294 372.964,-404.45 372.634,-403.961 369.336,-401.738 365.297,-400.922 361.553,-401.618 358.416,-403.532 356.146,-406.401 355.005,-409.966 355.006,-409.971 354.974,-412.645 355.956,-416.04 356.996,-417.801 357.913,-418.935 358.76,-419.786 359.541,-420.456 360.47,-421.146 361.657,-421.912 363.072,-422.704 364.817,-423.576 364.814,-423.577 364.93,-423.62 362.603,-422.09 360.725,-419.913 359.506,-417.271 359.071,-414.29 359.887,-410.251 362.11,-406.953 365.408,-404.729 369.447,-403.914 371.754,-404.171 372.845,-404.548 373.975,-404.953 " transform="matrix(1, 0, 0, 1, 0, 0)" fill="#004080" fill-opacity="0.50" stroke="#004080" stroke-width="1" stroke-opacity="0.10" fill-rule="winding" ub:uuid="ae61dea5-a424-4033-8cfc-c90d126ae741" ub:parent="99fbed98-5e21-4fca-97ee-df54bea2ad30"/>
        <polygon points="355.766,-415.382 355.736,-415.337 355.696,-415.139 355.766,-415.382 354.986,-411.624 354.921,-411.298 354.995,-410.865 354.986,-411.624 355.766,-415.382 355.321,-408.98 355.524,-407.804 355.929,-407.078 355.321,-408.98 355.766,-415.382 356.698,-405.703 357.194,-404.816 357.194,-404.816 358.19,-403.817 356.698,-405.703 355.766,-415.382 358.565,-403.441 358.973,-403.031 361.993,-401.357 364.058,-400.817 365.512,-400.66 366.939,-400.654 368.661,-400.793 371.577,-401.219 377.584,-402.252 382.191,-403.173 384.805,-403.794 387.354,-404.497 395.291,-406.549 407.612,-409.63 426.471,-414.021 433.071,-415.524 435.373,-416.197 437.836,-416.972 440.524,-417.894 442.113,-418.509 442.117,-418.507 444.78,-420.035 446.869,-422.257 448.234,-425.022 448.722,-428.177 448.145,-431.036 446.993,-430.618 440.411,-428.473 433.951,-426.48 427.177,-424.135 425.201,-423.558 423.463,-423.116 412.465,-419.629 409.971,-418.71 399.013,-414.699 397.433,-414.192 392.105,-412.452 391.278,-412.107 382.191,-408.631 379.762,-407.609 376.266,-406.036 373.975,-404.953 373.881,-404.906 373.881,-404.906 373.879,-404.905 372.964,-404.45 372.634,-403.961 369.336,-401.738 365.297,-400.922 361.553,-401.618 358.565,-403.441 355.766,-415.382 373.086,-404.631 372.845,-404.548 372.811,-404.514 372.505,-404.251 372.139,-403.985 372.335,-404.117 372.65,-404.294 372.964,-404.45 373.086,-404.631 355.766,-415.382 " transform="matrix(1, 0, 0, 1, 0, 0)" fill="#004080" fill-opacity="0.50" stroke="#004080" stroke-width="1" stroke-opacity="0.10" fill-rule="winding" ub:uuid="3d7b2dff-2ba1-41ab-967e-69ec2581f4c6" ub:parent="99fbed98-5e21-4fca-97ee-df54bea2ad30"/>
        <polygon points="448.677,-431.229 449.241,-428.437 448.947,-425.974 448.111,-423.723 446.803,-421.754 445.091,-420.135 445.09,-420.136 443.436,-419.104 442.694,-418.756 442.697,-418.755 442.333,-418.631 444.78,-420.035 446.869,-422.257 448.234,-425.022 448.722,-428.177 448.145,-431.036 448.677,-431.229 " transform="matrix(1, 0, 0, 1, 0, 0)" fill="#004080" fill-opacity="0.50" stroke="#004080" stroke-width="1" stroke-opacity="0.10" fill-rule="winding" ub:uuid="dddae92f-b700-4c6f-9756-dce83583f157" ub:parent="99fbed98-5e21-4fca-97ee-df54bea2ad30"/>
        <polygon points="448.677,-431.229 448.834,-431.286 449.241,-428.437 448.677,-431.229 448.502,-424.775 448.426,-424.398 448.283,-424.186 448.502,-424.775 448.677,-431.229 446.362,-421.337 446.202,-421.099 445.885,-420.885 446.362,-421.337 448.677,-431.229 " transform="matrix(1, 0, 0, 1, 0, 0)" fill="#004080" fill-opacity="0.50" stroke="#004080" stroke-width="1" stroke-opacity="0.10" fill-rule="winding" ub:uuid="f8ab0c16-091a-4285-89e7-7850a9f52864" ub:parent="99fbed98-5e21-4fca-97ee-df54bea2ad30"/>
        <polygon points="448.477,-424.652 448.507,-424.701 448.54,-424.877 448.502,-424.775 448.477,-424.652 370.562,-401.071 372.356,-399.861 376.395,-399.046 378.725,-399.308 380.868,-400.057 384.365,-402.778 384.366,-402.779 384.367,-402.779 384.365,-402.778 383.397,-401.796 382.179,-400.883 381.479,-400.501 383.807,-401.595 387.117,-403.037 389.717,-404.211 391.171,-404.911 391.487,-405.035 391.988,-405.222 397.751,-406.892 403.907,-408.704 395.291,-406.549 387.354,-404.497 384.805,-403.794 382.191,-403.173 377.584,-402.252 371.577,-401.219 370.562,-401.071 448.477,-424.652 " transform="matrix(1, 0, 0, 1, 0, 0)" fill="#004080" fill-opacity="0.50" stroke="#004080" stroke-width="1" stroke-opacity="0.10" fill-rule="winding" ub:uuid="a8fc9abb-53c4-4957-a440-24ba1eeb6f7c" ub:parent="99fbed98-5e21-4fca-97ee-df54bea2ad30"/>
        <polygon points="384.044,-402.528 383.766,-402.171 383.397,-401.796 382.218,-400.912 382.104,-400.842 381.479,-400.501 381.781,-400.643 381.012,-400.169 384.044,-402.528 380.782,-400.026 380.157,-399.641 379.123,-399.447 380.782,-400.026 384.044,-402.528 377.864,-399.211 376.382,-398.933 372.343,-399.749 370.415,-401.049 370.562,-401.071 372.356,-399.861 376.395,-399.046 377.864,-399.211 384.044,-402.528 " transform="matrix(1, 0, 0, 1, 0, 0)" fill="#004080" fill-opacity="0.50" stroke="#004080" stroke-width="1" stroke-opacity="0.10" fill-rule="winding" ub:uuid="948873ad-d3cb-4387-ac23-131e88826578" ub:parent="99fbed98-5e21-4fca-97ee-df54bea2ad30"/>
        <polygon points="370.217,-401.02 370.709,-400.581 372.047,-399.948 370.415,-401.049 370.217,-401.02 372.564,-399.704 373.59,-399.219 375.253,-398.834 376.701,-398.673 378.302,-398.622 380.11,-398.671 382.042,-398.82 384.752,-399.166 387.539,-399.66 394.516,-400.968 397.489,-401.564 399.594,-402.083 405.961,-403.753 421.663,-407.011 429.635,-408.726 431.341,-409.167 433.111,-409.634 431.204,-409.398 430.832,-409.323 427.339,-409.925 427.342,-409.927 430.771,-409.344 431.204,-409.398 434.871,-410.138 438.169,-412.362 440.393,-415.66 440.871,-418.028 440.524,-417.894 437.836,-416.972 435.373,-416.197 433.071,-415.524 426.471,-414.021 407.612,-409.63 403.907,-408.704 397.751,-406.892 391.988,-405.222 391.487,-405.035 391.171,-404.911 389.717,-404.211 387.117,-403.037 383.807,-401.595 381.781,-400.643 381.012,-400.169 380.868,-400.057 380.782,-400.026 380.157,-399.641 379.123,-399.447 378.725,-399.308 377.864,-399.211 376.382,-398.933 372.564,-399.704 370.217,-401.02 382.104,-400.842 382.179,-400.883 382.218,-400.912 382.104,-400.842 370.217,-401.02 383.766,-402.171 384.365,-402.778 384.044,-402.528 383.766,-402.171 370.217,-401.02 384.365,-402.778 384.366,-402.779 384.367,-402.779 384.365,-402.778 370.217,-401.02 " transform="matrix(1, 0, 0, 1, 0, 0)" fill="#004080" fill-opacity="0.50" stroke="#004080" stroke-width="1" stroke-opacity="0.10" fill-rule="winding" ub:uuid="b138afe8-5b1e-45c0-ab82-d407eefe4fd9" ub:parent="99fbed98-5e21-4fca-97ee-df54bea2ad30"/>
        <polygon points="438.417,-412.619 438.231,-412.454 439.707,-414.644 438.417,-412.619 438.417,-412.619 437.991,-412.242 436.802,-411.19 435.051,-410.158 433.378,-409.393 431.07,-408.464 428.518,-407.548 425.095,-406.454 416.997,-403.905 405.133,-400.196 400.299,-398.569 399.482,-398.233 397.279,-397.292 392.818,-395.288 388.087,-393.263 386.346,-392.449 384.726,-391.605 381.945,-390.063 379.473,-388.604 378.04,-387.702 376.704,-386.782 376.705,-386.782 373.959,-385.44 370.831,-384.96 366.792,-385.775 363.494,-387.999 361.27,-391.297 360.455,-395.336 360.776,-397.908 361.686,-400.243 362.395,-401.252 364.058,-400.817 365.512,-400.66 366.939,-400.654 368.661,-400.793 370.217,-401.02 370.709,-400.581 372.047,-399.948 372.343,-399.749 372.564,-399.704 373.59,-399.219 375.253,-398.834 376.701,-398.673 378.302,-398.622 380.11,-398.671 382.042,-398.82 384.752,-399.166 387.539,-399.66 394.516,-400.968 397.489,-401.564 399.594,-402.083 405.961,-403.753 421.663,-407.011 429.635,-408.726 431.341,-409.167 433.111,-409.634 431.204,-409.398 434.871,-410.138 437.991,-412.242 438.417,-412.619 440.871,-418.028 440.887,-418.034 440.462,-415.828 440.41,-415.747 440.871,-418.028 438.417,-412.619 431.204,-409.398 430.832,-409.323 427.339,-409.925 427.342,-409.927 430.771,-409.344 431.204,-409.398 438.417,-412.619 " transform="matrix(1, 0, 0, 1, 0, 0)" fill="#004080" fill-opacity="0.50" stroke="#004080" stroke-width="1" stroke-opacity="0.10" fill-rule="winding" ub:uuid="9cb937d0-83c6-4890-99aa-0cc83f67c1c1" ub:parent="99fbed98-5e21-4fca-97ee-df54bea2ad30"/>
        <polygon points="376.955,-386.955 376.592,-386.673 376.327,-386.439 376.209,-386.32 376.081,-386.154 376.317,-386.472 376.424,-386.644 373.959,-385.44 370.831,-384.96 366.792,-385.775 363.494,-387.999 361.27,-391.297 360.455,-395.336 360.776,-397.908 361.686,-400.243 362.395,-401.252 361.993,-401.357 361.938,-401.387 360.784,-400.202 359.77,-398.984 359.05,-397.983 358.496,-397.094 357.972,-396.11 357.494,-395.016 357.084,-393.799 356.773,-392.453 356.6,-390.988 356.601,-389.432 356.804,-387.835 357.251,-386.163 358.022,-384.392 359.096,-382.732 360.329,-381.357 361.616,-380.276 362.402,-379.747 362.401,-379.746 365.047,-378.522 368.034,-378.086 372.073,-378.901 375.371,-381.125 377.595,-384.423 378.288,-387.858 378.04,-387.702 376.955,-386.955 " transform="matrix(1, 0, 0, 1, 0, 0)" fill="#004080" fill-opacity="0.50" stroke="#004080" stroke-width="1" stroke-opacity="0.10" fill-rule="winding" ub:uuid="0fb897f0-7513-49fa-bd87-5cc01c2a4314" ub:parent="99fbed98-5e21-4fca-97ee-df54bea2ad30"/>
        <polygon points="362.88,-379.524 363.342,-379.204 363.344,-379.206 364.1,-378.835 365.249,-378.374 366.338,-378.029 367.378,-377.771 368.423,-377.571 369.785,-377.398 371.7,-377.295 373.831,-377.347 375.972,-377.536 378.222,-377.852 382.693,-378.649 387.19,-379.429 389.765,-379.96 391.881,-380.483 394.309,-381.16 400.229,-382.71 405.433,-384.097 414.613,-386.532 425.059,-389.415 425.064,-389.414 428.103,-390.816 430.514,-393.079 432.101,-396.011 432.674,-399.418 431.858,-403.456 429.634,-406.755 428.478,-407.535 425.095,-406.454 416.997,-403.905 405.133,-400.196 400.299,-398.569 399.482,-398.233 397.279,-397.292 392.818,-395.288 388.087,-393.263 386.346,-392.449 384.726,-391.605 381.945,-390.063 379.473,-388.604 378.288,-387.858 377.595,-384.423 375.371,-381.125 372.073,-378.901 368.034,-378.086 365.047,-378.522 362.88,-379.524 376.955,-386.955 376.704,-386.782 376.705,-386.782 376.424,-386.644 376.317,-386.472 376.081,-386.154 376.209,-386.32 376.327,-386.439 376.592,-386.673 376.955,-386.955 362.88,-379.524 " transform="matrix(1, 0, 0, 1, 0, 0)" fill="#004080" fill-opacity="0.50" stroke="#004080" stroke-width="1" stroke-opacity="0.10" fill-rule="winding" ub:uuid="0b816831-ae92-4b8b-92b4-a411e55853c6" ub:parent="99fbed98-5e21-4fca-97ee-df54bea2ad30"/>
        <polygon points="438.421,-412.625 440.671,-412.083 443.824,-409.838 445.942,-406.592 446.716,-402.652 445.901,-398.613 443.677,-395.314 440.379,-393.091 436.423,-392.292 435.889,-392.285 435.889,-392.285 436.34,-392.275 436.423,-392.292 436.85,-392.297 438.393,-392.527 424.861,-389.361 425.059,-389.415 425.064,-389.414 428.103,-390.816 430.514,-393.079 432.101,-396.011 432.674,-399.418 431.858,-403.456 429.634,-406.755 428.478,-407.535 428.518,-407.548 431.07,-408.464 433.378,-409.393 435.051,-410.158 436.802,-411.19 437.991,-412.242 438.169,-412.362 438.231,-412.454 438.417,-412.619 438.417,-412.619 438.421,-412.625 " transform="matrix(1, 0, 0, 1, 0, 0)" fill="#004080" fill-opacity="0.50" stroke="#004080" stroke-width="1" stroke-opacity="0.10" fill-rule="winding" ub:uuid="7765ba3f-f780-49c9-9f61-c697b789bfb0" ub:parent="99fbed98-5e21-4fca-97ee-df54bea2ad30"/>
        <polygon points="446.612,-404.119 446.616,-404.089 446.617,-404.093 446.72,-402.621 445.905,-398.582 443.681,-395.284 440.383,-393.06 436.587,-392.294 436.423,-392.292 440.379,-393.091 443.677,-395.314 445.901,-398.613 446.716,-402.652 446.16,-405.484 446.612,-404.124 446.612,-404.119 436.159,-392.279 436.111,-392.288 436.423,-392.292 436.34,-392.275 436.159,-392.279 446.612,-404.119 438.421,-412.625 438.432,-412.642 440.052,-412.344 440.361,-412.158 438.421,-412.625 446.612,-404.119 441.706,-411.346 443.171,-410.463 443.47,-410.09 441.706,-411.346 446.612,-404.119 444.474,-408.842 445.442,-407.638 445.633,-407.065 444.474,-408.842 446.612,-404.119 " transform="matrix(1, 0, 0, 1, 0, 0)" fill="#004080" fill-opacity="0.50" stroke="#004080" stroke-width="1" stroke-opacity="0.10" fill-rule="winding" ub:uuid="27d97c5e-236e-4191-b95f-0f178d3b90c7" ub:parent="99fbed98-5e21-4fca-97ee-df54bea2ad30"/>
        <polygon points="441.806,-393.799 440.447,-393.074 439.306,-392.614 435.562,-391.287 429.175,-388.806 425.19,-387.421 423.36,-386.877 416.326,-384.452 408.195,-381.402 399.002,-377.855 390.01,-374.007 381.072,-370.337 377.648,-369.027 376.869,-368.648 374.583,-367.476 370.351,-365.185 366.855,-363.356 365.644,-362.671 364.631,-362.039 362.769,-360.797 362.77,-360.796 360.072,-359.512 357.013,-359.054 352.974,-359.869 349.676,-362.093 347.452,-365.391 346.637,-369.43 346.967,-372.037 347.902,-374.4 349.36,-376.437 351.256,-378.064 351.257,-378.064 353.338,-379.45 355.075,-380.53 357.046,-381.644 359.105,-382.722 360.329,-381.357 361.616,-380.276 362.402,-379.747 362.401,-379.746 362.88,-379.524 363.342,-379.204 363.344,-379.206 364.1,-378.835 365.249,-378.374 366.338,-378.029 367.378,-377.771 368.423,-377.571 369.785,-377.398 371.7,-377.295 373.831,-377.347 375.972,-377.536 378.222,-377.852 382.693,-378.649 387.19,-379.429 389.765,-379.96 391.881,-380.483 394.309,-381.16 400.229,-382.71 405.433,-384.097 414.613,-386.532 424.861,-389.361 438.393,-392.527 436.85,-392.297 436.587,-392.294 440.383,-393.06 443.466,-395.139 441.807,-393.798 441.806,-393.799 445.674,-398.24 445.37,-397.498 443.819,-395.424 443.724,-395.348 445.674,-398.24 441.806,-393.799 440.289,-412.201 440.383,-412.182 440.452,-412.136 440.361,-412.158 440.289,-412.201 441.806,-393.799 443.452,-410.113 443.681,-409.958 443.705,-409.923 443.47,-410.09 443.452,-410.113 441.806,-393.799 445.663,-407.019 445.905,-406.66 445.909,-406.643 445.663,-407.019 441.806,-393.799 446.72,-402.621 446.367,-399.928 445.992,-399.014 446.72,-402.621 441.806,-393.799 436.111,-392.288 435.889,-392.285 435.889,-392.285 436.159,-392.279 436.111,-392.288 441.806,-393.799 " transform="matrix(1, 0, 0, 1, 0, 0)" fill="#004080" fill-opacity="0.50" stroke="#004080" stroke-width="1" stroke-opacity="0.10" fill-rule="winding" ub:uuid="0d2f4096-90aa-40ee-ab2b-27f31b4969b8" ub:parent="99fbed98-5e21-4fca-97ee-df54bea2ad30"/>
        <polygon points="362.915,-360.894 361.982,-360.226 361.746,-360.041 361.817,-360.131 362.192,-360.504 362.208,-360.529 362.77,-360.796 362.769,-360.797 362.915,-360.894 362.086,-360.47 361.817,-360.131 361.588,-359.903 361.741,-360.037 361.746,-360.041 361.265,-359.432 358.128,-357.519 354.385,-356.823 350.346,-357.638 347.047,-359.862 344.824,-363.16 344.008,-367.199 344.093,-368.528 344.094,-368.527 345.013,-371.751 346.854,-374.483 347.838,-375.447 348.654,-376.143 349.658,-376.923 350.965,-377.861 350.964,-377.862 351.102,-377.932 349.36,-376.437 347.902,-374.4 346.967,-372.037 346.637,-369.43 347.452,-365.391 349.676,-362.093 352.974,-359.869 357.013,-359.054 360.072,-359.512 362.086,-360.47 362.915,-360.894 " transform="matrix(1, 0, 0, 1, 0, 0)" fill="#004080" fill-opacity="0.50" stroke="#004080" stroke-width="1" stroke-opacity="0.10" fill-rule="winding" ub:uuid="bf84d6ce-2b7c-4e38-9b36-9f8763d4f3f5" ub:parent="99fbed98-5e21-4fca-97ee-df54bea2ad30"/>
        <polygon points="344.898,-371.349 344.824,-371.238 344.719,-370.721 344.898,-371.349 344.008,-367.199 344.611,-363.704 344.772,-363.418 344.008,-367.199 344.898,-371.349 345.363,-362.361 346.282,-360.717 346.282,-360.717 346.8,-360.23 345.363,-362.361 344.898,-371.349 347.548,-359.524 348.593,-358.541 349.954,-357.902 347.548,-359.524 344.898,-371.349 350.647,-357.578 351.811,-357.032 353.668,-356.657 355.264,-356.547 357.129,-356.585 359.914,-356.828 363.867,-357.288 366.564,-357.684 368.343,-358.029 370.946,-358.662 375.017,-359.82 380.466,-361.532 384.036,-362.744 392.582,-365.613 397.622,-367.294 411.491,-371.629 425.116,-376.105 424.903,-376.003 426.165,-376.255 426.17,-376.254 429.478,-377.535 432.121,-379.809 433.872,-382.849 434.507,-386.43 433.691,-390.469 433.642,-390.541 429.175,-388.806 425.19,-387.421 423.36,-386.877 416.326,-384.452 408.195,-381.402 399.002,-377.855 390.01,-374.007 381.072,-370.337 377.648,-369.027 376.869,-368.648 374.583,-367.476 370.351,-365.185 366.855,-363.356 365.644,-362.671 364.631,-362.039 362.915,-360.894 361.982,-360.226 361.746,-360.041 361.265,-359.432 358.128,-357.519 354.385,-356.823 350.647,-357.578 344.898,-371.349 362.208,-360.529 362.086,-360.47 361.817,-360.131 362.192,-360.504 362.208,-360.529 344.898,-371.349 361.746,-360.041 361.817,-360.131 361.588,-359.903 361.741,-360.037 361.746,-360.041 344.898,-371.349 " transform="matrix(1, 0, 0, 1, 0, 0)" fill="#004080" fill-opacity="0.50" stroke="#004080" stroke-width="1" stroke-opacity="0.10" fill-rule="winding" ub:uuid="21b8bd35-b942-40c3-86ce-8b48995c1e60" ub:parent="99fbed98-5e21-4fca-97ee-df54bea2ad30"/>
        <polygon points="436.647,-391.671 437.038,-391.091 437.853,-387.052 437.038,-383.014 434.814,-379.715 431.516,-377.492 427.477,-376.676 428.286,-376.719 428.994,-376.817 427.878,-376.598 426.181,-376.258 429.478,-377.535 432.121,-379.809 433.872,-382.849 434.507,-386.43 433.691,-390.469 433.642,-390.541 435.562,-391.287 436.647,-391.671 426.165,-376.255 426.17,-376.254 426.15,-376.252 426.165,-376.255 436.647,-391.671 " transform="matrix(1, 0, 0, 1, 0, 0)" fill="#004080" fill-opacity="0.50" stroke="#004080" stroke-width="1" stroke-opacity="0.10" fill-rule="winding" ub:uuid="5d1bd120-5983-4aea-b47e-68c3ca3d7bc2" ub:parent="99fbed98-5e21-4fca-97ee-df54bea2ad30"/>
        <polygon points="437.543,-389.569 437.552,-389.535 437.553,-389.54 437.862,-387.018 437.046,-382.979 434.823,-379.681 431.524,-377.457 427.72,-376.689 427.477,-376.676 431.516,-377.492 434.814,-379.715 437.038,-383.014 437.853,-387.052 437.171,-390.432 437.544,-389.574 437.543,-389.569 " transform="matrix(1, 0, 0, 1, 0, 0)" fill="#004080" fill-opacity="0.50" stroke="#004080" stroke-width="1" stroke-opacity="0.10" fill-rule="winding" ub:uuid="94d78747-6560-4379-89da-75831bfbad0c" ub:parent="99fbed98-5e21-4fca-97ee-df54bea2ad30"/>
        <polygon points="432.924,-378.181 431.587,-377.467 430.22,-376.916 425.443,-375.275 418.491,-372.725 409.484,-369.348 401.852,-366.574 398.453,-365.311 398.706,-365.519 398.866,-365.616 399.354,-366.048 400.318,-366.836 400.442,-367.01 400.463,-367.029 401.511,-368.51 411.491,-371.629 425.116,-376.105 424.903,-376.003 426.15,-376.252 426.17,-376.254 426.181,-376.258 427.878,-376.598 428.994,-376.817 428.286,-376.719 427.72,-376.689 431.524,-377.457 434.622,-379.546 432.925,-378.18 432.924,-378.181 436.813,-382.633 436.504,-381.883 434.946,-379.806 434.861,-379.738 436.813,-382.633 432.924,-378.181 437.044,-391.06 437.046,-391.057 437.174,-390.425 437.171,-390.432 437.044,-391.06 432.924,-378.181 437.862,-387.018 437.507,-384.318 437.134,-383.411 437.862,-387.018 432.924,-378.181 401.511,-368.51 400.442,-367.01 399.354,-366.048 398.706,-365.519 398.024,-365.1 398.268,-365.224 398.282,-365.248 398.453,-365.311 398.176,-365.085 395.614,-363.953 392.742,-363.55 388.805,-364.345 392.582,-365.613 397.622,-367.294 401.511,-368.51 432.924,-378.181 " transform="matrix(1, 0, 0, 1, 0, 0)" fill="#004080" fill-opacity="0.50" stroke="#004080" stroke-width="1" stroke-opacity="0.10" fill-rule="winding" ub:uuid="55e95bd2-6c61-461c-967f-4fd1fb44e00e" ub:parent="99fbed98-5e21-4fca-97ee-df54bea2ad30"/>
        <polygon points="400.483,-367.068 400.447,-367.015 400.442,-367.01 400.483,-367.068 399.196,-365.909 399.123,-365.859 399.354,-366.048 399.196,-365.909 400.483,-367.068 397.592,-364.827 396.824,-364.309 396.082,-364.159 397.592,-364.827 400.483,-367.068 393.794,-363.698 392.785,-363.494 390.354,-363.78 388.82,-364.342 392.742,-363.55 393.794,-363.698 400.483,-367.068 399.354,-366.048 400.318,-366.836 400.442,-367.01 399.354,-366.048 400.483,-367.068 " transform="matrix(1, 0, 0, 1, 0, 0)" fill="#004080" fill-opacity="0.50" stroke="#004080" stroke-width="1" stroke-opacity="0.10" fill-rule="winding" ub:uuid="868fbcb7-9f45-495e-aadf-18dd051b7353" ub:parent="99fbed98-5e21-4fca-97ee-df54bea2ad30"/>
        <polygon points="390.397,-363.775 390.425,-363.764 390.428,-363.765 391.883,-363.515 392.709,-363.503 390.397,-363.775 392.822,-363.501 393.871,-363.486 395.349,-363.641 397.325,-363.978 400.009,-364.532 403.637,-365.402 411.291,-367.425 416.423,-368.883 418.814,-369.636 430.549,-372.993 439.746,-375.471 441.343,-375.984 448.117,-378.244 452.022,-379.598 455.727,-380.962 458.341,-382 460.107,-382.768 461.497,-383.439 463.272,-384.326 463.275,-384.325 465.604,-385.922 467.416,-388.081 468.59,-390.682 469.008,-393.607 468.192,-397.646 465.969,-400.944 462.67,-403.168 458.632,-403.983 456.208,-403.699 453.988,-402.889 453.991,-402.888 452.307,-402.046 451.483,-401.644 450.448,-401.193 448.359,-400.363 446.223,-399.577 445.992,-399.014 445.905,-398.582 445.674,-398.24 445.37,-397.498 443.819,-395.424 443.724,-395.348 443.681,-395.284 443.466,-395.139 441.807,-393.798 441.806,-393.799 440.447,-393.074 439.306,-392.614 436.647,-391.671 437.038,-391.091 437.044,-391.06 437.046,-391.057 437.174,-390.425 437.544,-389.574 437.543,-389.569 437.552,-389.535 437.553,-389.54 437.862,-387.018 437.507,-384.318 437.134,-383.411 437.046,-382.979 436.813,-382.633 436.504,-381.883 434.946,-379.806 434.861,-379.738 434.823,-379.681 434.622,-379.546 432.925,-378.18 432.924,-378.181 431.587,-377.467 430.22,-376.916 425.443,-375.275 418.491,-372.725 409.484,-369.348 401.852,-366.574 398.453,-365.311 398.176,-365.085 397.592,-364.827 396.824,-364.309 396.082,-364.159 395.614,-363.953 393.794,-363.698 392.822,-363.501 390.397,-363.775 401.511,-368.51 401.511,-368.51 400.483,-367.068 400.447,-367.015 400.463,-367.029 401.511,-368.51 390.397,-363.775 398.453,-365.311 398.706,-365.519 398.024,-365.1 398.268,-365.224 398.282,-365.248 398.453,-365.311 390.397,-363.775 398.706,-365.519 398.866,-365.616 399.196,-365.909 399.123,-365.859 398.706,-365.519 390.397,-363.775 " transform="matrix(1, 0, 0, 1, 0, 0)" fill="#004080" fill-opacity="0.50" stroke="#004080" stroke-width="1" stroke-opacity="0.10" fill-rule="winding" ub:uuid="913c9b02-79ea-45c9-bbee-16374363431b" ub:parent="99fbed98-5e21-4fca-97ee-df54bea2ad30"/>
        <polygon points="453.963,-402.873 453.991,-402.888 453.988,-402.889 454.005,-402.895 455.477,-403.642 454.644,-403.128 456.208,-403.699 458.632,-403.983 462.67,-403.168 465.969,-400.944 468.192,-397.646 469.008,-393.607 468.59,-390.682 467.416,-388.081 465.604,-385.922 463.303,-384.344 463.34,-384.358 463.337,-384.359 465.202,-385.309 466.756,-386.294 467.883,-387.22 469.024,-388.417 470.102,-389.933 470.997,-391.767 471.58,-393.832 471.647,-394.565 471.145,-394.135 471.144,-394.135 469.789,-393.237 469.567,-393.067 469.418,-392.924 469.784,-393.296 470.037,-393.606 470.371,-394.091 470.76,-394.799 471.089,-395.58 471.608,-399.031 471.736,-396.805 471.775,-395.959 471.647,-394.565 473.044,-395.762 474.503,-397.8 475.227,-399.63 474.836,-402.133 474.836,-402.198 475.084,-404.464 475.16,-404.688 474.68,-404.691 473.146,-404.804 471.925,-404.981 470.901,-405.201 469.808,-405.519 468.636,-405.969 467.388,-406.595 466.085,-407.451 464.413,-408.969 462.332,-412.321 462.281,-412.665 459.642,-411.41 459.643,-411.41 457.894,-410.242 456.387,-409.097 455.151,-407.995 454.223,-407.026 453.495,-406.137 452.772,-405.09 452.08,-403.838 451.535,-402.529 451.377,-401.597 451.483,-401.644 452.307,-402.046 453.912,-402.848 453.923,-402.856 453.925,-402.855 453.963,-402.873 " transform="matrix(1, 0, 0, 1, 0, 0)" fill="#004080" fill-opacity="0.50" stroke="#004080" stroke-width="1" stroke-opacity="0.10" fill-rule="winding" ub:uuid="d13aea75-eb1f-49c2-937f-51d0abdc1f8e" ub:parent="99fbed98-5e21-4fca-97ee-df54bea2ad30"/>
        <polygon points="459.894,-411.572 462.227,-413.029 462.281,-412.665 459.766,-411.469 459.893,-411.572 459.894,-411.572 475.227,-399.63 475.334,-398.946 475.577,-398.459 475.651,-398.094 476.072,-397.47 476.232,-397.149 475.108,-396.531 472.985,-395.282 471.635,-394.438 471.647,-394.565 473.044,-395.762 474.503,-397.8 475.227,-399.63 459.894,-411.572 471.013,-394.049 470.893,-393.973 470.894,-393.973 470.014,-393.578 470.037,-393.606 470.371,-394.091 470.76,-394.799 471.089,-395.58 471.608,-399.031 471.736,-396.805 471.775,-395.959 471.647,-394.565 471.145,-394.135 471.144,-394.135 471.013,-394.049 459.894,-411.572 455.1,-403.41 455.106,-403.454 455.477,-403.642 455.1,-403.41 459.894,-411.572 " transform="matrix(1, 0, 0, 1, 0, 0)" fill="#004080" fill-opacity="0.50" stroke="#004080" stroke-width="1" stroke-opacity="0.10" fill-rule="winding" ub:uuid="0cba1a99-9176-484c-a498-17120779892e" ub:parent="99fbed98-5e21-4fca-97ee-df54bea2ad30"/>
        <polygon points="454.644,-403.128 454.005,-402.895 455.106,-403.454 455.1,-403.41 454.644,-403.128 453.991,-402.888 453.991,-402.888 453.963,-402.873 453.991,-402.888 454.644,-403.128 453.925,-402.855 453.912,-402.848 453.923,-402.856 453.925,-402.855 454.644,-403.128 451.377,-401.597 450.448,-401.193 448.359,-400.363 446.223,-399.577 446.367,-399.928 446.72,-402.621 446.617,-404.093 446.616,-404.089 446.612,-404.119 446.612,-404.124 446.16,-405.484 445.942,-406.592 445.909,-406.643 445.905,-406.66 445.663,-407.019 445.633,-407.065 445.442,-407.638 444.474,-408.842 443.824,-409.838 443.705,-409.923 443.681,-409.958 443.452,-410.113 443.171,-410.463 441.706,-411.346 440.671,-412.083 440.452,-412.136 440.383,-412.182 440.289,-412.201 440.287,-412.202 440.458,-413.05 442.682,-416.348 445.98,-418.572 449.842,-419.352 450.286,-419.355 452.454,-419.09 452.536,-419.078 452.538,-419.08 452.454,-419.09 450.663,-419.358 450.286,-419.355 450.019,-419.388 449.842,-419.352 449.375,-419.348 447.88,-419.107 456.457,-421.177 463.77,-422.84 462.561,-420.796 461.619,-417.109 462.227,-413.029 459.894,-411.572 459.893,-411.572 459.766,-411.469 459.642,-411.41 459.643,-411.41 457.894,-410.242 456.387,-409.097 455.151,-407.995 454.223,-407.026 453.495,-406.137 452.772,-405.09 452.08,-403.838 451.535,-402.529 451.377,-401.597 454.644,-403.128 " transform="matrix(1, 0, 0, 1, 0, 0)" fill="#004080" fill-opacity="0.50" stroke="#004080" stroke-width="1" stroke-opacity="0.10" fill-rule="winding" ub:uuid="6fe7985c-be03-43a1-aa6e-a80ad698e037" ub:parent="99fbed98-5e21-4fca-97ee-df54bea2ad30"/>
        <polygon points="440.537,-413.226 442.699,-416.387 444.895,-418.078 446.061,-418.7 448.061,-419.609 453.348,-421.78 459.215,-423.954 467.235,-426.763 469.435,-427.639 469.009,-427.379 469.007,-427.38 468.894,-427.289 468.778,-427.235 468.78,-427.235 467.406,-426.342 466.187,-425.42 465.108,-424.442 463.889,-423.041 463.77,-422.84 456.457,-421.177 447.88,-419.107 449.375,-419.348 449.842,-419.352 445.98,-418.572 442.682,-416.348 440.495,-413.105 440.535,-413.228 440.537,-413.226 440.287,-412.202 440.215,-412.246 440.427,-412.896 440.287,-412.202 440.537,-413.226 449.842,-419.352 450.286,-419.355 450.019,-419.388 449.842,-419.352 440.537,-413.226 450.286,-419.355 452.454,-419.09 450.663,-419.358 450.286,-419.355 440.537,-413.226 452.454,-419.09 452.536,-419.078 452.538,-419.08 452.454,-419.09 440.537,-413.226 " transform="matrix(1, 0, 0, 1, 0, 0)" fill="#004080" fill-opacity="0.50" stroke="#004080" stroke-width="1" stroke-opacity="0.10" fill-rule="winding" ub:uuid="cdc58cd0-51e5-46ce-b087-5811a1136a1c" ub:parent="99fbed98-5e21-4fca-97ee-df54bea2ad30"/>
        <polygon points="475.946,-433.297 475.036,-433.164 463.759,-432.271 459.904,-431.822 456.93,-431.325 453.456,-430.7 449.028,-429.93 449.241,-428.437 448.947,-425.974 448.54,-424.877 448.507,-424.701 448.477,-424.652 448.426,-424.398 448.283,-424.186 448.111,-423.723 446.803,-421.754 446.362,-421.337 446.202,-421.099 445.885,-420.885 445.091,-420.135 445.09,-420.136 443.436,-419.104 442.694,-418.756 442.697,-418.755 442.333,-418.631 442.117,-418.507 442.113,-418.509 440.887,-418.034 440.462,-415.828 440.41,-415.747 440.393,-415.66 439.707,-414.644 438.432,-412.642 440.052,-412.344 440.215,-412.246 440.427,-412.896 440.458,-413.05 440.495,-413.105 440.535,-413.228 440.537,-413.226 442.699,-416.387 444.895,-418.078 446.061,-418.7 448.061,-419.609 453.348,-421.78 459.215,-423.954 467.235,-426.763 469.435,-427.639 475.328,-431.237 475.652,-431.469 477.14,-432.345 478.978,-433.261 479.316,-433.405 475.946,-433.297 " transform="matrix(1, 0, 0, 1, 0, 0)" fill="#004080" fill-opacity="0.50" stroke="#004080" stroke-width="1" stroke-opacity="0.10" fill-rule="winding" ub:uuid="f6f295b5-18ca-4a37-9318-504129bfb343" ub:parent="99fbed98-5e21-4fca-97ee-df54bea2ad30"/>
        <polygon points="448.834,-431.286 449.564,-431.551 451.102,-432.225 453.289,-433.598 453.828,-434.161 457.431,-435.21 461.685,-436.458 463.431,-435.013 465.572,-434.009 467.232,-433.546 468.579,-433.33 469.748,-433.235 470.775,-433.21 473.333,-433.214 475.946,-433.297 475.036,-433.164 463.759,-432.271 459.904,-431.822 456.93,-431.325 453.456,-430.7 449.028,-429.93 448.834,-431.286 476.265,-437.619 475.663,-437.359 475.286,-437.15 475.614,-437.347 475.82,-437.499 476.103,-437.553 476.099,-437.554 476.265,-437.619 448.834,-431.286 " transform="matrix(1, 0, 0, 1, 0, 0)" fill="#004080" fill-opacity="0.50" stroke="#004080" stroke-width="1" stroke-opacity="0.10" fill-rule="winding" ub:uuid="f5146886-e99e-421b-a4b7-c4028f24c566" ub:parent="99fbed98-5e21-4fca-97ee-df54bea2ad30"/>
        <polygon points="459.465,-439.531 457.687,-439.175 456.79,-439.001 456.699,-438.449 456.497,-438.065 456.433,-437.748 455.954,-437.039 455.173,-435.561 455.173,-435.562 454.451,-434.81 454.209,-434.45 453.918,-434.254 453.828,-434.161 457.431,-435.21 461.685,-436.458 460.837,-437.159 459.465,-439.531 " transform="matrix(1, 0, 0, 1, 0, 0)" fill="#004080" fill-opacity="0.50" stroke="#004080" stroke-width="1" stroke-opacity="0.10" fill-rule="winding" ub:uuid="fd3905cc-ce78-4c04-804d-90f7f1968966" ub:parent="99fbed98-5e21-4fca-97ee-df54bea2ad30"/>
        <polygon points="453.477,-449.737 458.247,-451.622 463.152,-453.928 462.985,-453.805 462.015,-452.972 461.02,-451.938 459.994,-450.587 458.919,-448.551 458.131,-445.278 458.65,-440.94 459.465,-439.531 457.687,-439.175 456.79,-439.001 457.248,-441.787 456.973,-444.169 456.5,-445.491 456.433,-445.826 456.321,-445.991 456.191,-446.355 455.472,-447.251 455.272,-447.548 454.443,-448.865 454.324,-448.954 454.209,-449.125 453.685,-449.478 453.477,-449.737 " transform="matrix(1, 0, 0, 1, 0, 0)" fill="#004080" fill-opacity="0.50" stroke="#004080" stroke-width="1" stroke-opacity="0.10" fill-rule="winding" ub:uuid="22e7c74f-cd2b-4b3d-bea9-4ae6b624f45b" ub:parent="99fbed98-5e21-4fca-97ee-df54bea2ad30"/>
        <polygon points="461.323,-456.064 459.605,-455.761 458.426,-455.693 457.014,-455.759 456.478,-455.902 445.011,-453.353 444.472,-453.229 444.704,-452.082 446.393,-452.23 446.797,-452.214 446.807,-452.216 446.825,-452.212 447.726,-452.175 447.726,-452.175 448.803,-451.871 450.302,-451.612 450.697,-451.391 450.911,-451.348 451.097,-451.223 451.441,-451.125 452.213,-450.543 453.289,-449.942 453.289,-449.942 453.354,-449.89 453.354,-449.89 453.477,-449.737 458.247,-451.622 463.152,-453.928 463.923,-454.494 465.064,-455.21 466.624,-456.039 468.131,-456.711 468.128,-456.712 468.385,-456.796 468.536,-456.883 468.54,-456.881 469.629,-457.307 469.509,-457.281 465.916,-456.647 461.323,-456.064 " transform="matrix(1, 0, 0, 1, 0, 0)" fill="#004080" fill-opacity="0.50" stroke="#004080" stroke-width="1" stroke-opacity="0.10" fill-rule="winding" ub:uuid="f040b82d-6460-432d-a766-cf2d608f8a63" ub:parent="99fbed98-5e21-4fca-97ee-df54bea2ad30"/>
        <polygon points="361.938,-401.387 361.447,-401.659 361.201,-401.295 361.032,-400.457 361.938,-401.387 " transform="matrix(1, 0, 0, 1, 0, 0)" fill="#004080" fill-opacity="0.50" stroke="#004080" stroke-width="1" stroke-opacity="0.10" fill-rule="winding" ub:uuid="b4879762-e9cc-406e-8cc8-cf8b22212d2f" ub:parent="99fbed98-5e21-4fca-97ee-df54bea2ad30"/>
        <polygon points="360.981,-400.405 361.175,-401.364 361.394,-401.689 361.447,-401.659 361.201,-401.295 361.032,-400.457 360.981,-400.405 " transform="matrix(1, 0, 0, 1, 0, 0)" fill="#004080" fill-opacity="0.50" stroke="#004080" stroke-width="1" stroke-opacity="0.10" fill-rule="winding" ub:uuid="c26605eb-194b-4332-9d98-054f5b601e52" ub:parent="99fbed98-5e21-4fca-97ee-df54bea2ad30"/>
        <polygon points="360.792,-400.211 361.224,-401.516 361.336,-401.721 361.394,-401.689 361.175,-401.364 360.981,-400.405 360.792,-400.211 " transform="matrix(1, 0, 0, 1, 0, 0)" fill="#004080" fill-opacity="0.50" stroke="#004080" stroke-width="1" stroke-opacity="0.10" fill-rule="winding" ub:uuid="9f90eee0-77a5-431f-aa0e-f0a45a5bbd97" ub:parent="99fbed98-5e21-4fca-97ee-df54bea2ad30"/>
    </g>
</svg>
