<?xml version="1.0" encoding="UTF-8"?>
<svg xmlns="http://www.w3.org/2000/svg" xmlns:xlink="http://www.w3.org/1999/xlink" xmlns:ub="http://uniboard.mnemis.com/document" xmlns:xhtml="http://www.w3.org/1999/xhtml" version="1.1" ub:version="4.8.0" ub:uuid="c0653f22-0d53-4fcb-ba1e-03a01f0a0cad" viewBox="-721 -1097 1464 2016" ub:nominal-size="1343x1738" ub:dark-background="false" ub:crossed-background="true" ub:ruled-background="false" ub:grid-size="55" ub:intermediate-lines="0" pageDpi="158">
    <rect fill="white" x="-721" y="-1097" width="1464" height="2016"/>
    <image xlink:href="images/{2cb7575d-e8c3-48f6-bc67-8c99e14c3435}.png" x="0" y="0" width="762" height="143" transform="matrix(1, 0, 0, 1, -98.5692, -860.062)" ub:z-value="-999999.000000" ub:background="false" ub:uuid="2cb7575d-e8c3-48f6-bc67-8c99e14c3435" ub:source="/Users/khale/AppData/Local/OpenBoard/document/OpenBoard Document 2023-04-15 19-19-38.885/images/{2cb7575d-e8c3-48f6-bc67-8c99e14c3435}.png" ub:layer="-1000"/>
    <image xlink:href="images/{cedfecf0-0b8d-4673-a603-350c8abc5186}.png" x="0" y="0" width="820" height="505" transform="matrix(1, 0, 0, 1, -194.08, -710.174)" ub:z-value="-999998.000000" ub:background="false" ub:uuid="cedfecf0-0b8d-4673-a603-350c8abc5186" ub:source="/Users/khale/AppData/Local/OpenBoard/document/OpenBoard Document 2023-04-15 19-19-38.885/images/{6077752c-abd2-4f56-9e9c-5aa41027c4f5}.png" ub:layer="-1000"/>
    <g ub:z-value="-999997" ub:fill-on-dark-background="#ffffff" ub:fill-on-light-background="#000000" ub:uuid="47a67068-b0bf-4a2e-8969-adfbd5599a2f" ub:layer="-1000">
        <polygon points="-414.177,-814.97 -416.561,-814.953 -417.087,-814.909 -417.61,-814.834 -418.092,-814.732 -418.55,-814.599 -418.689,-814.548 -419.193,-814.312 -419.768,-813.978 -420.422,-813.543 -421.597,-812.656 -422.819,-811.648 -423.967,-810.638 -425.036,-809.632 -426.045,-808.611 -427.052,-807.515 -428.059,-806.345 -429.434,-804.63 -431.339,-802.104 -432.998,-799.789 -433.75,-798.611 -434.443,-797.39 -435.07,-796.137 -435.627,-794.858 -436.665,-792.118 -438.217,-787.979 -439.164,-785.288 -439.522,-784.048 -439.82,-782.824 -440.049,-781.65 -440.292,-779.901 -440.455,-778.23 -440.543,-776.64 -440.555,-775.123 -440.523,-774.19 -440.41,-772.8 -440.298,-771.95 -440.155,-771.138 -439.972,-770.387 -439.732,-769.683 -439.434,-769.013 -439.076,-768.372 -438.642,-767.737 -438.435,-767.478 -438.198,-767.213 -437.948,-766.963 -437.683,-766.727 -437.403,-766.504 -437.108,-766.295 -436.825,-766.116 -436.116,-765.745 -435.358,-765.438 -434.608,-765.188 -433.901,-765.004 -433.242,-764.884 -432.628,-764.825 -432.022,-764.822 -431.372,-764.853 -430.27,-764.964 -429.527,-765.075 -428.308,-765.311 -427.602,-765.496 -426.964,-765.708 -426.405,-765.944 -425.92,-766.201 -425.458,-766.502 -424.642,-767.067 -423.08,-768.201 -422.457,-768.675 -421.928,-769.144 -421.741,-769.335 -421.56,-769.54 -421.406,-769.736 -421.279,-769.922 -421.176,-770.098 -421.096,-770.263 -421.062,-770.332 -420.203,-773.769 -420.153,-774.077 -420.114,-774.42 -420.096,-774.751 -420.1,-775.069 -420.123,-775.376 -420.166,-775.672 -420.229,-775.958 -420.311,-776.237 -420.413,-776.509 -420.535,-776.776 -420.678,-777.039 -420.843,-777.298 -421.031,-777.555 -421.243,-777.809 -421.481,-778.06 -421.718,-778.287 -422.302,-778.764 -424.258,-779.954 -425.545,-780.596 -426.208,-780.863 -429.59,-781.708 -431.774,-782.054 -432.585,-782.11 -432.798,-782.112 -432.798,-782.112 -433.701,-782.499 -434.074,-783.409 -433.694,-784.326 -432.777,-784.706 -432.756,-784.706 -432.756,-784.706 -432.433,-784.7 -431.429,-784.625 -429.047,-784.245 -425.512,-783.361 -424.462,-782.953 -422.983,-782.213 -420.874,-780.929 -420.04,-780.265 -419.646,-779.895 -419.304,-779.532 -418.989,-779.155 -418.702,-778.763 -418.443,-778.357 -418.215,-777.936 -418.017,-777.503 -417.85,-777.057 -417.716,-776.601 -417.614,-776.136 -417.545,-775.662 -417.508,-775.182 -417.503,-774.696 -417.529,-774.205 -417.585,-773.71 -417.681,-773.161 -418.551,-769.681 -418.716,-769.231 -418.887,-768.877 -419.087,-768.534 -419.314,-768.202 -419.567,-767.879 -419.844,-767.565 -420.168,-767.237 -420.814,-766.668 -421.541,-766.113 -423.134,-764.956 -424.005,-764.353 -424.607,-763.963 -425.297,-763.598 -426.053,-763.28 -426.867,-763.008 -427.752,-762.777 -429.076,-762.521 -429.958,-762.389 -431.164,-762.267 -431.967,-762.229 -432.762,-762.235 -433.601,-762.314 -434.464,-762.471 -435.348,-762.702 -436.258,-763.005 -437.204,-763.39 -438.085,-763.849 -438.547,-764.137 -438.96,-764.429 -439.354,-764.743 -439.729,-765.077 -440.084,-765.432 -440.419,-765.807 -440.748,-766.223 -441.282,-767.006 -441.754,-767.853 -442.148,-768.738 -442.462,-769.66 -442.694,-770.604 -442.862,-771.556 -442.991,-772.539 -443.112,-774.029 -443.149,-775.101 -443.136,-776.724 -443.042,-778.428 -442.868,-780.207 -442.609,-782.064 -442.354,-783.38 -442.029,-784.716 -441.626,-786.104 -440.654,-788.87 -439.093,-793.032 -438.038,-795.817 -437.42,-797.236 -436.732,-798.611 -435.972,-799.95 -435.133,-801.262 -433.428,-803.642 -431.486,-806.218 -430.059,-807.997 -428.991,-809.239 -427.923,-810.4 -426.848,-811.489 -425.712,-812.558 -424.5,-813.623 -423.205,-814.691 -421.941,-815.646 -421.143,-816.178 -420.404,-816.606 -419.732,-816.923 -419.334,-817.071 -418.721,-817.249 -418.061,-817.389 -417.373,-817.487 -416.62,-817.547 -414.196,-817.564 -414.196,-817.564 -414.186,-817.564 -413.269,-817.184 -412.889,-816.267 -413.266,-815.353 -414.177,-814.97 -414.177,-814.97 " transform="matrix(1, 0, 0, 1, 0, 0)" fill="#000000" fill-opacity="1.00" fill-rule="winding" ub:uuid="efa62298-c12f-45a8-8300-bd3cd51caf7c" ub:parent="47a67068-b0bf-4a2e-8969-adfbd5599a2f"/>
    </g>
    <g ub:z-value="-999996" ub:fill-on-dark-background="#ffffff" ub:fill-on-light-background="#000000" ub:uuid="fbcf1696-f101-4f12-b052-2dcb428a72b0" ub:layer="-1000">
        <polygon points="-402.081,-827.941 -402.545,-827.941 -402.889,-827.982 -403.165,-828.059 -403.448,-828.166 -403.972,-828.409 -404.939,-828.932 -409.958,-831.716 -410.476,-831.904 -411.117,-832.079 -411.796,-832.197 -412.509,-832.256 -413.757,-832.264 -415.911,-832.264 -418.084,-832.247 -418.982,-832.199 -420.522,-832.06 -422.208,-831.846 -423.348,-831.638 -424.522,-831.332 -425.74,-830.926 -426.989,-830.423 -429.026,-829.449 -434.141,-827.028 -437.986,-825.196 -439.451,-824.348 -440.956,-823.378 -442.46,-822.309 -445.995,-819.579 -448.842,-817.406 -449.508,-816.849 -450.296,-816.077 -451.199,-815.092 -452.788,-813.184 -454.478,-810.98 -455.395,-809.679 -456.139,-808.522 -456.701,-807.526 -457.092,-806.681 -457.678,-805.215 -459.016,-801.87 -460.586,-797.849 -461.254,-795.893 -461.563,-794.835 -461.769,-793.966 -461.911,-793.083 -462.024,-791.981 -462.139,-789.878 -462.177,-787.304 -462.127,-785.506 -461.978,-783.785 -461.731,-782.139 -461.387,-780.565 -460.946,-779.061 -460.406,-777.605 -459.766,-776.179 -459.027,-774.783 -458.188,-773.418 -457.244,-772.076 -456.226,-770.774 -455.172,-769.536 -454.086,-768.368 -452.969,-767.267 -451.828,-766.241 -450.633,-765.292 -449.342,-764.409 -447.945,-763.588 -446.443,-762.828 -444.829,-762.13 -442.471,-761.225 -440.505,-760.553 -439.447,-760.243 -438.574,-760.037 -437.719,-759.895 -436.719,-759.782 -434.906,-759.668 -432.777,-759.63 -430.452,-759.668 -427.205,-759.839 -424.692,-760.056 -423.034,-760.257 -421.412,-760.524 -419.826,-760.858 -418.275,-761.259 -416.765,-761.723 -414.555,-762.523 -413.205,-763.083 -411.256,-764.007 -410.075,-764.647 -408.299,-765.699 -405.911,-767.235 -404.139,-768.462 -403.056,-769.303 -402.081,-770.197 -401.207,-771.151 -400.43,-772.166 -399.743,-773.253 -398.77,-775.022 -397.869,-776.799 -397.046,-778.571 -396.314,-780.321 -395.037,-784.151 -394.541,-786.113 -394.318,-787.423 -394.189,-788.758 -394.172,-790.83 -394.951,-796.92 -396.747,-804.611 -397.958,-808.397 -398.532,-809.763 -399.212,-811.092 -399.989,-812.354 -400.83,-813.512 -403.871,-816.872 -406.385,-819.174 -407.878,-820.314 -409.455,-821.317 -411.06,-822.153 -417.232,-824.563 -418.607,-824.96 -419.949,-825.226 -420.686,-825.312 -425.437,-825.347 -425.437,-825.347 -426.348,-825.73 -426.724,-826.644 -426.345,-827.561 -425.427,-827.941 -425.418,-827.941 -425.418,-827.941 -420.623,-827.906 -419.526,-827.785 -417.989,-827.479 -416.329,-826.995 -410.058,-824.546 -408.161,-823.565 -406.392,-822.441 -404.695,-821.142 -402.02,-818.689 -398.861,-815.201 -397.835,-813.799 -396.951,-812.364 -396.179,-810.856 -395.507,-809.248 -394.237,-805.269 -392.401,-797.396 -391.589,-791.069 -391.598,-788.652 -391.746,-787.082 -392.007,-785.556 -392.557,-783.393 -393.874,-779.441 -394.673,-777.525 -395.536,-775.665 -396.477,-773.81 -397.501,-771.948 -398.302,-770.683 -399.219,-769.484 -400.247,-768.363 -401.383,-767.32 -402.616,-766.362 -404.476,-765.074 -406.93,-763.496 -408.787,-762.395 -410.096,-761.687 -412.142,-760.717 -413.628,-760.1 -415.931,-759.267 -417.569,-758.762 -419.235,-758.333 -420.934,-757.975 -422.667,-757.689 -424.433,-757.475 -427.031,-757.251 -430.355,-757.076 -432.777,-757.036 -435.006,-757.076 -436.929,-757.196 -438.073,-757.325 -439.087,-757.494 -440.115,-757.737 -441.305,-758.085 -443.36,-758.788 -445.801,-759.725 -447.543,-760.479 -449.188,-761.31 -450.731,-762.218 -452.172,-763.203 -453.502,-764.26 -454.747,-765.378 -455.948,-766.561 -457.111,-767.813 -458.236,-769.135 -459.327,-770.53 -460.355,-771.991 -461.28,-773.496 -462.097,-775.04 -462.807,-776.623 -463.408,-778.245 -463.9,-779.923 -464.283,-781.67 -464.554,-783.482 -464.717,-785.359 -464.771,-787.296 -464.731,-789.962 -464.612,-792.166 -464.483,-793.415 -464.314,-794.47 -464.07,-795.503 -463.722,-796.693 -463.015,-798.758 -461.429,-802.822 -460.087,-806.178 -459.48,-807.695 -459.005,-808.718 -458.357,-809.866 -457.545,-811.131 -456.56,-812.527 -454.816,-814.802 -453.163,-816.786 -452.164,-817.876 -451.257,-818.764 -450.436,-819.452 -447.575,-821.637 -444.021,-824.381 -442.411,-825.525 -440.804,-826.561 -439.156,-827.511 -435.253,-829.372 -430.138,-831.793 -428.051,-832.79 -426.637,-833.36 -425.261,-833.819 -423.91,-834.17 -422.594,-834.411 -420.804,-834.639 -419.179,-834.785 -418.141,-834.841 -415.921,-834.858 -413.751,-834.858 -412.414,-834.849 -411.467,-834.77 -410.554,-834.611 -409.673,-834.371 -408.739,-834.005 -403.684,-831.203 -402.783,-830.715 -402.408,-830.543 -402.345,-830.52 -402.345,-830.519 -402.482,-830.534 -402.081,-830.535 -401.164,-830.155 -400.784,-829.238 -401.164,-828.32 -402.081,-827.941 " transform="matrix(1, 0, 0, 1, 0, 0)" fill="#000000" fill-opacity="1.00" fill-rule="winding" ub:uuid="f7d03050-4bd5-4a4c-bfb5-7189a24146ca" ub:parent="fbcf1696-f101-4f12-b052-2dcb428a72b0"/>
    </g>
    <g ub:z-value="-999995" ub:fill-on-dark-background="#66c0ff" ub:fill-on-light-background="#004080" ub:uuid="d8c4f563-e2d4-46b7-b91c-ba95886b9490" ub:layer="-1000">
        <polygon points="-437.016,-768.091 -439.263,-769.226 -440.848,-770.184 -442.021,-771.053 -442.899,-771.811 -443.546,-772.446 -444.166,-773.128 -444.754,-773.856 -445.444,-774.845 -446.167,-776.081 -446.854,-777.532 -447.394,-778.969 -447.815,-780.392 -448.147,-781.839 -448.435,-783.481 -448.613,-784.851 -448.739,-786.414 -448.774,-787.733 -448.742,-788.952 -448.671,-789.885 -448.671,-789.886 -447.64,-793.629 -445.382,-796.657 -442.182,-798.684 -438.329,-799.423 -434.29,-798.608 -430.991,-796.384 -428.768,-793.086 -427.952,-789.047 -427.961,-788.624 -427.986,-788.208 -427.986,-788.208 -428.019,-787.862 -428.022,-787.733 -428.022,-787.633 -427.966,-786.939 -427.937,-786.718 -427.784,-785.844 -427.735,-785.631 -427.707,-785.532 -427.728,-785.585 -427.827,-785.791 -427.893,-785.92 -428.22,-786.399 -428.41,-786.634 -428.598,-786.841 -428.778,-787.018 -429.154,-787.334 -429.22,-787.373 -429.56,-787.57 -427.674,-786.621 -427.672,-786.623 -425.353,-785.023 -423.551,-782.867 -422.384,-780.272 -421.969,-777.356 -422.784,-773.317 -425.008,-770.019 -428.306,-767.795 -432.345,-766.98 -434.786,-767.269 -437.018,-768.089 -437.016,-768.091 " transform="matrix(1, 0, 0, 1, 0, 0)" fill="#004080" fill-opacity="0.50" stroke="#004080" stroke-width="1" stroke-opacity="0.10" fill-rule="winding" ub:uuid="7cb5a740-0736-4f3f-a673-037a929d2c6e" ub:parent="d8c4f563-e2d4-46b7-b91c-ba95886b9490"/>
        <polygon points="-448.601,-790.514 -448.461,-791.455 -448.188,-792.739 -447.857,-793.894 -447.458,-794.981 -447.039,-795.901 -446.555,-796.788 -446.013,-797.634 -445.419,-798.43 -444.784,-799.171 -444.116,-799.854 -443.423,-800.479 -442.713,-801.044 -441.975,-801.565 -441.183,-802.058 -440.34,-802.513 -439.471,-802.914 -438.583,-803.259 -437.682,-803.546 -437.074,-803.705 -437.079,-803.706 -434.524,-804.023 -430.485,-803.208 -427.187,-800.984 -424.963,-797.686 -424.148,-793.647 -424.738,-790.189 -426.373,-787.225 -427.306,-786.371 -427.672,-786.623 -427.674,-786.621 -427.942,-786.756 -427.966,-786.939 -428.022,-787.633 -428.022,-787.733 -428.019,-787.862 -427.986,-788.208 -427.986,-788.208 -427.961,-788.624 -427.952,-789.047 -428.768,-793.086 -430.991,-796.384 -434.29,-798.608 -438.329,-799.423 -442.182,-798.684 -445.382,-796.657 -447.64,-793.629 -448.637,-790.01 -448.602,-790.516 -448.601,-790.514 -427.798,-785.921 -427.863,-785.861 -427.893,-785.92 -428.22,-786.399 -428.382,-786.599 -428.274,-786.923 -427.942,-786.756 -427.937,-786.718 -427.798,-785.921 -448.601,-790.514 -428.45,-786.679 -428.327,-786.95 -429.56,-787.57 -429.22,-787.373 -429.154,-787.334 -428.778,-787.018 -428.598,-786.841 -428.45,-786.679 -448.601,-790.514 " transform="matrix(1, 0, 0, 1, 0, 0)" fill="#004080" fill-opacity="0.50" stroke="#004080" stroke-width="1" stroke-opacity="0.10" fill-rule="winding" ub:uuid="f994de63-1ab5-42dc-a511-eaf5102f269c" ub:parent="d8c4f563-e2d4-46b7-b91c-ba95886b9490"/>
        <polygon points="-436.478,-803.838 -435.869,-803.95 -434.97,-804.07 -433.816,-804.15 -432.603,-804.15 -431.449,-804.07 -430.55,-803.95 -429.644,-803.776 -428.738,-803.546 -427.837,-803.259 -426.948,-802.914 -426.079,-802.513 -425.237,-802.058 -424.255,-801.437 -423.182,-800.643 -422.066,-799.676 -421.057,-798.668 -420.137,-797.626 -419.306,-796.576 -418.267,-795.167 -418.267,-795.168 -416.779,-792.309 -416.244,-789.012 -417.06,-784.973 -419.284,-781.675 -422.295,-779.645 -422.384,-780.272 -423.551,-782.867 -425.353,-785.023 -427.306,-786.371 -426.373,-787.225 -424.738,-790.189 -424.148,-793.647 -424.963,-797.686 -427.187,-800.984 -430.485,-803.208 -434.524,-804.023 -436.712,-803.752 -436.483,-803.839 -436.478,-803.838 -427.798,-785.921 -427.784,-785.844 -427.735,-785.631 -427.707,-785.532 -427.728,-785.585 -427.827,-785.791 -427.863,-785.861 -427.798,-785.921 -436.478,-803.838 -428.382,-786.599 -428.41,-786.634 -428.45,-786.679 -428.327,-786.95 -428.274,-786.923 -428.382,-786.599 -436.478,-803.838 " transform="matrix(1, 0, 0, 1, 0, 0)" fill="#004080" fill-opacity="0.50" stroke="#004080" stroke-width="1" stroke-opacity="0.10" fill-rule="winding" ub:uuid="a99fc9ee-1b13-4cf6-a637-57b713f43f98" ub:parent="d8c4f563-e2d4-46b7-b91c-ba95886b9490"/>
        <polygon points="-418.126,-794.971 -417.055,-793.444 -416.31,-792.284 -415.565,-790.875 -414.955,-789.43 -414.478,-788.001 -414.105,-786.575 -413.81,-785.072 -413.61,-783.463 -413.538,-781.788 -413.617,-780.066 -413.867,-778.319 -414.284,-776.631 -414.833,-775.059 -415.498,-773.581 -416.262,-772.191 -417.113,-770.88 -418.092,-769.585 -419.231,-768.305 -420.153,-767.422 -420.153,-767.422 -423.374,-765.356 -427.265,-764.602 -431.304,-765.417 -433.893,-767.163 -432.345,-766.98 -428.306,-767.795 -425.008,-770.019 -422.784,-773.317 -421.969,-777.356 -422.295,-779.645 -419.284,-781.675 -417.06,-784.973 -416.244,-789.012 -416.779,-792.309 -418.219,-795.077 -418.126,-794.972 -418.126,-794.971 " transform="matrix(1, 0, 0, 1, 0, 0)" fill="#004080" fill-opacity="0.50" stroke="#004080" stroke-width="1" stroke-opacity="0.10" fill-rule="winding" ub:uuid="113696e7-5076-4d4b-9b7f-a2a9ee0a458f" ub:parent="d8c4f563-e2d4-46b7-b91c-ba95886b9490"/>
        <polygon points="-420.894,-766.788 -421.922,-766.004 -423.425,-765.054 -424.85,-764.325 -426.148,-763.768 -427.442,-763.297 -428.753,-762.898 -430.115,-762.558 -431.505,-762.291 -432.763,-762.139 -433.815,-762.084 -434.888,-762.096 -435.977,-762.18 -437.072,-762.34 -438.163,-762.578 -439.241,-762.895 -440.629,-763.435 -441.964,-764.08 -444.112,-765.154 -445.217,-765.722 -445.219,-765.72 -447.508,-767.324 -449.285,-769.474 -450.436,-772.053 -450.845,-774.948 -450.03,-778.987 -448.137,-781.795 -447.815,-780.392 -447.394,-778.969 -446.854,-777.532 -446.167,-776.081 -445.444,-774.845 -444.754,-773.856 -444.166,-773.128 -443.546,-772.446 -442.899,-771.811 -442.021,-771.053 -440.848,-770.184 -439.263,-769.226 -437.016,-768.091 -437.018,-768.089 -434.786,-767.269 -433.893,-767.163 -431.304,-765.417 -427.265,-764.602 -423.374,-765.356 -420.618,-767.124 -420.894,-766.788 -420.894,-766.788 " transform="matrix(1, 0, 0, 1, 0, 0)" fill="#004080" fill-opacity="0.50" stroke="#004080" stroke-width="1" stroke-opacity="0.10" fill-rule="winding" ub:uuid="fcf57f14-a8f8-414f-96eb-0d4787c3f644" ub:parent="d8c4f563-e2d4-46b7-b91c-ba95886b9490"/>
        <polygon points="-446.039,-766.194 -446.661,-766.596 -447.527,-767.231 -448.335,-767.906 -449.086,-768.614 -449.96,-769.555 -451.009,-770.873 -451.994,-772.356 -452.762,-773.694 -453.414,-774.972 -454.002,-776.298 -454.519,-777.689 -454.935,-779.105 -455.232,-780.447 -455.441,-781.73 -455.583,-783.012 -455.669,-784.401 -455.687,-786.105 -455.632,-787.49 -455.544,-788.523 -455.545,-788.524 -454.5,-792.245 -452.24,-795.254 -449.048,-797.267 -445.827,-797.882 -446.013,-797.634 -446.555,-796.788 -447.039,-795.901 -447.458,-794.981 -447.857,-793.894 -448.188,-792.739 -448.461,-791.455 -448.601,-790.514 -448.602,-790.516 -448.637,-790.01 -448.671,-789.886 -448.671,-789.885 -448.742,-788.952 -448.774,-787.733 -448.739,-786.414 -448.613,-784.851 -448.435,-783.481 -448.147,-781.839 -448.137,-781.795 -450.03,-778.987 -450.845,-774.948 -450.436,-772.053 -449.285,-769.474 -447.508,-767.324 -445.618,-766 -446.04,-766.193 -446.039,-766.194 " transform="matrix(1, 0, 0, 1, 0, 0)" fill="#004080" fill-opacity="0.50" stroke="#004080" stroke-width="1" stroke-opacity="0.10" fill-rule="winding" ub:uuid="4782ac2b-f871-40a9-90ca-a572697ea9ef" ub:parent="d8c4f563-e2d4-46b7-b91c-ba95886b9490"/>
        <polygon points="-455.488,-789.026 -455.345,-790.053 -455.088,-791.389 -454.737,-792.74 -454.292,-794.007 -453.879,-794.952 -453.421,-795.846 -452.777,-796.922 -451.844,-798.239 -450.685,-799.606 -449.533,-800.771 -448.404,-801.787 -447.218,-802.735 -445.955,-803.618 -444.619,-804.42 -443.288,-805.092 -442.001,-805.644 -440.706,-806.115 -439.396,-806.514 -438.316,-806.787 -438.321,-806.789 -435.799,-807.097 -431.76,-806.282 -428.462,-804.058 -427.947,-803.294 -428.738,-803.546 -429.644,-803.776 -430.55,-803.95 -431.449,-804.07 -432.603,-804.15 -433.816,-804.15 -434.97,-804.07 -435.869,-803.95 -436.478,-803.838 -436.483,-803.839 -436.712,-803.752 -437.079,-803.706 -437.074,-803.705 -437.682,-803.546 -438.583,-803.259 -439.471,-802.914 -440.34,-802.513 -441.183,-802.058 -441.975,-801.565 -442.713,-801.044 -443.423,-800.479 -444.116,-799.854 -444.784,-799.171 -445.419,-798.43 -445.827,-797.882 -449.048,-797.267 -452.24,-795.254 -454.5,-792.245 -455.516,-788.626 -455.489,-789.028 -455.488,-789.026 " transform="matrix(1, 0, 0, 1, 0, 0)" fill="#004080" fill-opacity="0.50" stroke="#004080" stroke-width="1" stroke-opacity="0.10" fill-rule="winding" ub:uuid="d86eff83-d3da-4b45-9861-beac8ef98423" ub:parent="d8c4f563-e2d4-46b7-b91c-ba95886b9490"/>
        <polygon points="-437.768,-806.909 -436.322,-807.187 -434.956,-807.39 -433.389,-807.548 -432.051,-807.614 -430.586,-807.597 -428.903,-807.428 -427.234,-807.094 -425.631,-806.614 -424.134,-806.017 -422.781,-805.351 -421.382,-804.565 -420.216,-803.836 -418.857,-802.902 -417.735,-802.046 -416.811,-801.238 -416.079,-800.505 -415.377,-799.707 -414.714,-798.844 -414.302,-798.233 -414.302,-798.234 -413.031,-795.548 -412.578,-792.506 -413.394,-788.467 -414.263,-787.178 -414.478,-788.001 -414.955,-789.43 -415.565,-790.875 -416.31,-792.284 -417.055,-793.444 -418.126,-794.971 -418.126,-794.972 -418.219,-795.077 -418.267,-795.168 -418.267,-795.167 -419.306,-796.576 -420.137,-797.626 -421.057,-798.668 -422.066,-799.676 -423.182,-800.643 -424.255,-801.437 -425.237,-802.058 -426.079,-802.513 -426.948,-802.914 -427.837,-803.259 -427.947,-803.294 -428.462,-804.058 -431.76,-806.282 -435.799,-807.097 -437.982,-806.83 -437.773,-806.91 -437.768,-806.909 " transform="matrix(1, 0, 0, 1, 0, 0)" fill="#004080" fill-opacity="0.50" stroke="#004080" stroke-width="1" stroke-opacity="0.10" fill-rule="winding" ub:uuid="8c14036c-9f45-4bea-95e1-6b9d64a75e4f" ub:parent="d8c4f563-e2d4-46b7-b91c-ba95886b9490"/>
        <polygon points="-413.907,-797.587 -413.547,-796.93 -413.063,-795.892 -412.657,-794.814 -412.289,-793.518 -412.001,-792.039 -411.83,-790.326 -411.83,-788.598 -412.001,-786.885 -412.299,-785.363 -412.637,-784.096 -413.098,-782.614 -413.56,-781.311 -413.538,-781.788 -413.61,-783.463 -413.81,-785.072 -414.105,-786.575 -414.263,-787.178 -413.394,-788.467 -412.578,-792.506 -413.031,-795.548 -414.15,-797.914 -413.906,-797.589 -413.907,-797.587 " transform="matrix(1, 0, 0, 1, 0, 0)" fill="#004080" fill-opacity="0.50" stroke="#004080" stroke-width="1" stroke-opacity="0.10" fill-rule="winding" ub:uuid="79aac0ef-f7bc-47a5-ad82-f9cc02985f34" ub:parent="d8c4f563-e2d4-46b7-b91c-ba95886b9490"/>
        <polygon points="-447.045,-766.878 -447.576,-767.023 -447.578,-767.021 -450.612,-768.427 -453.015,-770.69 -454.598,-773.618 -455.168,-777.019 -454.824,-778.727 -454.519,-777.689 -454.002,-776.298 -453.414,-774.972 -452.762,-773.694 -451.994,-772.356 -451.009,-770.873 -449.96,-769.555 -449.086,-768.614 -448.335,-767.906 -447.527,-767.231 -447.045,-766.878 " transform="matrix(1, 0, 0, 1, 0, 0)" fill="#004080" fill-opacity="0.50" stroke="#004080" stroke-width="1" stroke-opacity="0.10" fill-rule="winding" ub:uuid="497f77b5-b664-4e61-9f27-639f558b4563" ub:parent="d8c4f563-e2d4-46b7-b91c-ba95886b9490"/>
        <polygon points="-448.112,-767.188 -448.712,-767.395 -449.568,-767.737 -450.405,-768.127 -451.22,-768.563 -452.007,-769.042 -452.763,-769.561 -453.694,-770.291 -454.752,-771.255 -455.787,-772.357 -456.688,-773.457 -457.511,-774.61 -458.255,-775.806 -458.966,-777.133 -459.647,-778.695 -460.203,-780.402 -460.588,-782.133 -460.809,-783.862 -460.879,-785.432 -460.88,-787.3 -460.064,-791.339 -457.841,-794.637 -454.542,-796.861 -452.532,-797.267 -452.777,-796.922 -453.421,-795.846 -453.879,-794.952 -454.292,-794.007 -454.737,-792.74 -455.088,-791.389 -455.345,-790.053 -455.488,-789.026 -455.489,-789.028 -455.516,-788.626 -455.545,-788.524 -455.544,-788.523 -455.632,-787.49 -455.687,-786.105 -455.669,-784.401 -455.583,-783.012 -455.441,-781.73 -455.232,-780.447 -454.935,-779.105 -454.824,-778.727 -455.168,-777.019 -454.598,-773.618 -453.015,-770.69 -450.612,-768.427 -447.836,-767.14 -448.114,-767.186 -448.112,-767.188 " transform="matrix(1, 0, 0, 1, 0, 0)" fill="#004080" fill-opacity="0.50" stroke="#004080" stroke-width="1" stroke-opacity="0.10" fill-rule="winding" ub:uuid="43b68d42-a69b-4681-9f6e-90e0de24af7f" ub:parent="d8c4f563-e2d4-46b7-b91c-ba95886b9490"/>
        <polygon points="-460.88,-787.3 -460.879,-789.998 -460.88,-787.3 -454.965,-778.025 -457.841,-779.963 -460.064,-783.261 -460.88,-787.3 -460.879,-789.998 -460.88,-787.3 -460.064,-783.261 -457.841,-779.963 -454.965,-778.025 -460.88,-787.3 -454.965,-778.025 -455.168,-777.019 -454.598,-773.618 -453.015,-770.69 -450.612,-768.427 -453.015,-770.69 -454.598,-773.618 -455.168,-777.019 -454.965,-778.025 -460.88,-787.3 " transform="matrix(1, 0, 0, 1, 0, 0)" fill="#004080" fill-opacity="0.50" stroke="#004080" stroke-width="1" stroke-opacity="0.10" fill-rule="winding" ub:uuid="8161e402-1296-4b47-8185-80ad002b932c" ub:parent="d8c4f563-e2d4-46b7-b91c-ba95886b9490"/>
        <polygon points="-446.897,-813.765 -446.281,-814.091 -445.373,-814.512 -444.195,-814.965 -442.679,-815.419 -441.089,-815.756 -439.471,-816.012 -438.196,-816.155 -437.006,-816.238 -435.677,-816.267 -434.111,-816.186 -432.495,-815.962 -430.954,-815.62 -429.479,-815.181 -428.15,-814.696 -427.094,-814.242 -426.131,-813.755 -425.175,-813.193 -424.236,-812.55 -423.62,-812.07 -423.62,-812.07 -420.763,-808.529 -419.976,-806.336 -419.699,-803.945 -419.781,-803.538 -420.216,-803.836 -421.382,-804.565 -422.781,-805.351 -424.134,-806.017 -425.631,-806.614 -427.234,-807.094 -428.903,-807.428 -430.586,-807.597 -432.051,-807.614 -433.389,-807.548 -434.956,-807.39 -436.322,-807.187 -437.768,-806.909 -437.773,-806.91 -437.982,-806.83 -438.321,-806.789 -438.316,-806.787 -439.396,-806.514 -440.706,-806.115 -442.001,-805.644 -443.288,-805.092 -444.619,-804.42 -445.955,-803.618 -447.218,-802.735 -448.404,-801.787 -449.533,-800.771 -450.685,-799.606 -450.791,-799.481 -451.538,-800.59 -452.354,-804.629 -451.958,-807.476 -450.844,-810.021 -449.122,-812.154 -446.899,-813.766 -446.897,-813.765 " transform="matrix(1, 0, 0, 1, 0, 0)" fill="#004080" fill-opacity="0.50" stroke="#004080" stroke-width="1" stroke-opacity="0.10" fill-rule="winding" ub:uuid="b8e78632-48ab-4896-8dc3-50c082702d09" ub:parent="d8c4f563-e2d4-46b7-b91c-ba95886b9490"/>
        <polygon points="-423.028,-811.561 -422.448,-811.015 -421.627,-810.126 -420.872,-809.165 -420.053,-807.901 -419.459,-806.78 -418.558,-804.979 -417.594,-803.025 -416.922,-801.364 -416.91,-801.324 -417.735,-802.046 -418.857,-802.902 -419.781,-803.538 -419.699,-803.945 -419.976,-806.336 -420.763,-808.529 -423.399,-811.797 -423.028,-811.561 -423.028,-811.561 " transform="matrix(1, 0, 0, 1, 0, 0)" fill="#004080" fill-opacity="0.50" stroke="#004080" stroke-width="1" stroke-opacity="0.10" fill-rule="winding" ub:uuid="f313bd55-84a9-4b95-8efd-021edf86081b" ub:parent="d8c4f563-e2d4-46b7-b91c-ba95886b9490"/>
        <polygon points="-460.786,-783.682 -460.878,-783.91 -461.312,-785.213 -461.677,-786.53 -461.985,-787.908 -462.27,-789.534 -462.448,-790.904 -462.574,-792.467 -462.609,-793.785 -462.579,-794.995 -462.488,-796.201 -462.339,-797.4 -462.131,-798.587 -461.884,-799.691 -461.623,-800.637 -461.329,-801.506 -460.987,-802.361 -460.722,-802.939 -460.724,-802.941 -459.142,-805.371 -456.962,-807.266 -454.31,-808.496 -451.32,-808.934 -451.958,-807.476 -452.354,-804.629 -451.538,-800.59 -450.791,-799.481 -451.844,-798.239 -452.532,-797.267 -454.542,-796.861 -457.841,-794.637 -460.064,-791.339 -460.88,-787.3 -460.879,-785.432 -460.809,-783.862 -460.786,-783.682 " transform="matrix(1, 0, 0, 1, 0, 0)" fill="#004080" fill-opacity="0.50" stroke="#004080" stroke-width="1" stroke-opacity="0.10" fill-rule="winding" ub:uuid="387c0532-c59b-47fd-a841-4c1d5a9e7932" ub:parent="d8c4f563-e2d4-46b7-b91c-ba95886b9490"/>
        <polygon points="-460.465,-803.455 -460.161,-804.013 -459.682,-804.801 -459.163,-805.556 -458.434,-806.487 -457.529,-807.484 -456.573,-808.414 -455.419,-809.446 -454.138,-810.499 -452.749,-811.546 -451.486,-812.391 -450.246,-813.124 -448.973,-813.789 -447.579,-814.424 -445.896,-815.084 -444.497,-815.56 -442.832,-816.043 -441.444,-816.377 -439.578,-816.756 -436.974,-817.276 -436.979,-817.277 -434.939,-817.478 -430.9,-816.662 -427.692,-814.499 -428.15,-814.696 -429.479,-815.181 -430.954,-815.62 -432.495,-815.962 -434.111,-816.186 -435.677,-816.267 -437.006,-816.238 -438.196,-816.155 -439.471,-816.012 -441.089,-815.756 -442.679,-815.419 -444.195,-814.965 -445.373,-814.512 -446.281,-814.091 -446.897,-813.765 -446.899,-813.766 -449.122,-812.154 -450.844,-810.021 -451.32,-808.934 -454.31,-808.496 -456.962,-807.266 -459.142,-805.371 -460.581,-803.162 -460.466,-803.456 -460.465,-803.455 " transform="matrix(1, 0, 0, 1, 0, 0)" fill="#004080" fill-opacity="0.50" stroke="#004080" stroke-width="1" stroke-opacity="0.10" fill-rule="winding" ub:uuid="2dc56449-71f5-4665-94fa-330cdc6d7b3a" ub:parent="d8c4f563-e2d4-46b7-b91c-ba95886b9490"/>
        <polygon points="-436.734,-817.321 -435.103,-817.602 -433.297,-817.762 -431.597,-817.761 -429.857,-817.598 -428.246,-817.29 -426.942,-816.936 -425.804,-816.567 -424.687,-816.148 -423.591,-815.682 -422.377,-815.101 -420.941,-814.284 -419.472,-813.251 -418.126,-812.098 -416.911,-810.848 -415.817,-809.506 -414.824,-808.049 -413.95,-806.485 -413.222,-804.847 -412.786,-803.597 -412.784,-803.602 -412.232,-800.253 -413.048,-796.214 -413.145,-796.069 -413.547,-796.93 -413.907,-797.587 -413.906,-797.589 -414.15,-797.914 -414.302,-798.234 -414.302,-798.233 -414.714,-798.844 -415.377,-799.707 -416.079,-800.505 -416.811,-801.238 -416.91,-801.324 -416.922,-801.364 -417.594,-803.025 -418.558,-804.979 -419.459,-806.78 -420.053,-807.901 -420.872,-809.165 -421.627,-810.126 -422.448,-811.015 -423.028,-811.561 -423.028,-811.561 -423.399,-811.797 -423.62,-812.07 -423.62,-812.07 -424.236,-812.55 -425.175,-813.193 -426.131,-813.755 -427.094,-814.242 -427.692,-814.499 -430.9,-816.662 -434.939,-817.478 -436.82,-817.293 -436.739,-817.322 -436.734,-817.321 " transform="matrix(1, 0, 0, 1, 0, 0)" fill="#004080" fill-opacity="0.50" stroke="#004080" stroke-width="1" stroke-opacity="0.10" fill-rule="winding" ub:uuid="0cdf7882-3b65-4dde-8dbb-6e720a395b2d" ub:parent="d8c4f563-e2d4-46b7-b91c-ba95886b9490"/>
        <polygon points="-412.53,-802.721 -412.239,-801.501 -411.974,-799.918 -411.829,-798.308 -411.821,-796.857 -411.907,-795.657 -412.044,-794.697 -412.257,-793.698 -412.299,-793.553 -412.657,-794.814 -413.063,-795.892 -413.145,-796.069 -413.048,-796.214 -412.232,-800.253 -412.709,-803.145 -412.529,-802.727 -412.53,-802.721 " transform="matrix(1, 0, 0, 1, 0, 0)" fill="#004080" fill-opacity="0.50" stroke="#004080" stroke-width="1" stroke-opacity="0.10" fill-rule="winding" ub:uuid="a001c64d-1f27-494d-bec1-4167c9aa22e2" ub:parent="d8c4f563-e2d4-46b7-b91c-ba95886b9490"/>
        <polygon points="-449.323,-813.606 -449.139,-813.916 -447.925,-815.818 -446.912,-817.288 -445.78,-818.792 -444.546,-820.178 -443.285,-821.374 -441.952,-822.454 -440.581,-823.41 -439.228,-824.231 -437.564,-825.145 -435.817,-826.001 -434.143,-826.723 -432.308,-827.458 -429.63,-828.528 -428.158,-829.055 -426.552,-829.505 -424.905,-829.834 -423.637,-829.994 -423.642,-829.994 -422.401,-830.068 -418.362,-829.252 -415.064,-827.029 -412.84,-823.73 -412.025,-819.691 -412.729,-815.927 -414.664,-812.777 -417.006,-810.945 -418.126,-812.098 -419.472,-813.251 -420.941,-814.284 -422.377,-815.101 -423.591,-815.682 -424.687,-816.148 -425.804,-816.567 -426.942,-816.936 -428.246,-817.29 -429.857,-817.598 -431.597,-817.761 -433.297,-817.762 -435.103,-817.602 -436.734,-817.321 -436.739,-817.322 -436.82,-817.293 -436.979,-817.277 -436.974,-817.276 -439.578,-816.756 -441.444,-816.377 -442.832,-816.043 -444.497,-815.56 -445.896,-815.084 -447.579,-814.424 -448.973,-813.789 -449.323,-813.606 " transform="matrix(1, 0, 0, 1, 0, 0)" fill="#004080" fill-opacity="0.50" stroke="#004080" stroke-width="1" stroke-opacity="0.10" fill-rule="winding" ub:uuid="8423cf27-dbc2-4b31-97b3-c7e58f63f2fe" ub:parent="d8c4f563-e2d4-46b7-b91c-ba95886b9490"/>
        <polygon points="-422.816,-830.059 -421.678,-830.101 -419.876,-830.102 -417.522,-830.102 -415.921,-830.016 -414.227,-829.762 -412.588,-829.353 -411.025,-828.807 -409.593,-828.166 -408.313,-827.478 -407.116,-826.734 -405.964,-825.911 -404.863,-825.01 -403.884,-824.098 -402.983,-823.123 -402.216,-822.13 -401.536,-821.072 -400.953,-819.966 -400.472,-818.83 -400.215,-818.077 -400.213,-818.082 -399.694,-814.832 -400.51,-810.793 -402.733,-807.495 -406.032,-805.271 -410.071,-804.456 -413.279,-804.974 -413.95,-806.485 -414.824,-808.049 -415.817,-809.506 -416.911,-810.848 -417.006,-810.945 -414.664,-812.777 -412.729,-815.927 -412.025,-819.691 -412.84,-823.73 -415.064,-827.029 -418.362,-829.252 -422.401,-830.068 -422.91,-830.038 -422.818,-830.06 -422.816,-830.059 " transform="matrix(1, 0, 0, 1, 0, 0)" fill="#004080" fill-opacity="0.50" stroke="#004080" stroke-width="1" stroke-opacity="0.10" fill-rule="winding" ub:uuid="1aa7ca55-42d8-4c21-b127-2c188e2feb90" ub:parent="d8c4f563-e2d4-46b7-b91c-ba95886b9490"/>
        <polygon points="-399.99,-817.293 -399.814,-816.539 -399.626,-815.413 -399.506,-814.021 -399.503,-812.413 -399.648,-810.669 -399.95,-808.936 -400.42,-807.214 -401.047,-805.564 -401.751,-804.119 -402.542,-802.71 -403.271,-801.544 -404.224,-800.159 -405.262,-798.789 -406.308,-797.517 -407.34,-796.363 -408.27,-795.406 -409.267,-794.502 -410.198,-793.773 -410.717,-793.411 -410.716,-793.411 -412.133,-792.718 -412.289,-793.518 -412.299,-793.553 -412.257,-793.698 -412.044,-794.697 -411.907,-795.657 -411.821,-796.857 -411.829,-798.308 -411.974,-799.918 -412.239,-801.501 -412.53,-802.721 -412.529,-802.727 -412.709,-803.145 -412.784,-803.602 -412.786,-803.597 -413.222,-804.847 -413.279,-804.974 -410.071,-804.456 -406.032,-805.271 -402.733,-807.495 -400.51,-810.793 -399.694,-814.832 -400.147,-817.665 -399.989,-817.298 -399.99,-817.293 " transform="matrix(1, 0, 0, 1, 0, 0)" fill="#004080" fill-opacity="0.50" stroke="#004080" stroke-width="1" stroke-opacity="0.10" fill-rule="winding" ub:uuid="829df670-50bf-4fb7-82fa-c6294ecd4327" ub:parent="d8c4f563-e2d4-46b7-b91c-ba95886b9490"/>
        <polygon points="-411.195,-793.102 -411.741,-792.775 -412.106,-792.579 -412.133,-792.718 -410.947,-793.298 -411.194,-793.101 -411.195,-793.102 " transform="matrix(1, 0, 0, 1, 0, 0)" fill="#004080" fill-opacity="0.50" stroke="#004080" stroke-width="1" stroke-opacity="0.10" fill-rule="winding" ub:uuid="ae2b3336-8646-4acf-81a9-7bbc5fc8061d" ub:parent="d8c4f563-e2d4-46b7-b91c-ba95886b9490"/>
        <polygon points="-437.358,-825.246 -437.105,-825.437 -435.781,-826.298 -434.391,-827.061 -432.913,-827.726 -431.377,-828.264 -429.983,-828.628 -428.773,-828.87 -428.603,-828.896 -429.63,-828.528 -432.308,-827.458 -434.143,-826.723 -435.817,-826.001 -437.358,-825.246 " transform="matrix(1, 0, 0, 1, 0, 0)" fill="#004080" fill-opacity="0.50" stroke="#004080" stroke-width="1" stroke-opacity="0.10" fill-rule="winding" ub:uuid="a51cc4d6-2444-4b67-8ab7-f5ea7396e1c7" ub:parent="d8c4f563-e2d4-46b7-b91c-ba95886b9490"/>
        <polygon points="-402.525,-802.741 -402.721,-802.069 -403.232,-800.709 -403.712,-799.66 -404.297,-798.594 -404.847,-797.737 -405.95,-795.72 -406.299,-795.09 -406.885,-794.169 -407.319,-793.568 -407.319,-793.568 -408.94,-791.82 -410.923,-790.484 -411.83,-790.142 -411.83,-790.326 -412.001,-792.039 -412.106,-792.579 -411.741,-792.775 -411.195,-793.102 -411.194,-793.101 -410.947,-793.298 -410.716,-793.411 -410.717,-793.411 -410.198,-793.773 -409.267,-794.502 -408.27,-795.406 -407.34,-796.363 -406.308,-797.517 -405.262,-798.789 -404.224,-800.159 -403.271,-801.544 -402.542,-802.71 -402.525,-802.741 " transform="matrix(1, 0, 0, 1, 0, 0)" fill="#004080" fill-opacity="0.50" stroke="#004080" stroke-width="1" stroke-opacity="0.10" fill-rule="winding" ub:uuid="8de5eb32-7b85-4d25-a0a9-89eea25fc997" ub:parent="d8c4f563-e2d4-46b7-b91c-ba95886b9490"/>
        <polygon points="-407.724,-793.051 -408.195,-792.495 -408.903,-791.744 -409.844,-790.87 -411.162,-789.821 -411.83,-789.377 -411.83,-790.142 -410.923,-790.484 -408.94,-791.82 -407.6,-793.264 -407.724,-793.051 -407.724,-793.051 " transform="matrix(1, 0, 0, 1, 0, 0)" fill="#004080" fill-opacity="0.50" stroke="#004080" stroke-width="1" stroke-opacity="0.10" fill-rule="winding" ub:uuid="38271d76-597a-4844-a274-47598f21fc09" ub:parent="d8c4f563-e2d4-46b7-b91c-ba95886b9490"/>
        <polygon points="-399.505,-813.352 -397.887,-810.79 -397.152,-806.946 -397.967,-802.907 -400.191,-799.609 -403.489,-797.385 -405.232,-797.033 -404.847,-797.737 -404.297,-798.594 -403.712,-799.66 -403.232,-800.709 -402.721,-802.069 -402.525,-802.741 -401.751,-804.119 -401.047,-805.564 -400.42,-807.214 -399.95,-808.936 -399.648,-810.669 -399.503,-812.413 -399.505,-813.352 " transform="matrix(1, 0, 0, 1, 0, 0)" fill="#004080" fill-opacity="0.50" stroke="#004080" stroke-width="1" stroke-opacity="0.10" fill-rule="winding" ub:uuid="7c133859-86c7-4a21-8eb2-7f7e2bb92094" ub:parent="d8c4f563-e2d4-46b7-b91c-ba95886b9490"/>
        <polygon points="-399.505,-813.527 -398.69,-812.56 -397.628,-811.194 -396.665,-809.779 -395.792,-808.214 -395.064,-806.577 -394.489,-804.888 -394.092,-803.288 -393.825,-801.81 -393.604,-800.108 -393.486,-798.627 -393.434,-796.916 -393.46,-795.532 -393.542,-794.253 -393.685,-792.971 -393.894,-791.688 -394.129,-790.6 -394.632,-788.439 -395.099,-786.237 -395.483,-784.866 -395.481,-784.864 -396.905,-781.876 -399.165,-779.511 -402.073,-777.955 -405.444,-777.395 -409.483,-778.211 -412.782,-780.434 -413.495,-781.493 -413.098,-782.614 -412.637,-784.096 -412.299,-785.363 -412.001,-786.885 -411.83,-788.598 -411.83,-789.377 -411.162,-789.821 -409.844,-790.87 -408.903,-791.744 -408.195,-792.495 -407.724,-793.051 -407.724,-793.051 -407.6,-793.264 -407.319,-793.568 -407.319,-793.568 -406.885,-794.169 -406.299,-795.09 -405.95,-795.72 -405.232,-797.033 -403.489,-797.385 -400.191,-799.609 -397.967,-802.907 -397.152,-806.946 -397.887,-810.79 -399.505,-813.352 -399.505,-813.527 " transform="matrix(1, 0, 0, 1, 0, 0)" fill="#004080" fill-opacity="0.50" stroke="#004080" stroke-width="1" stroke-opacity="0.10" fill-rule="winding" ub:uuid="0527fbe1-bc9c-478f-9311-3db8c07c34d6" ub:parent="d8c4f563-e2d4-46b7-b91c-ba95886b9490"/>
        <polygon points="-395.782,-783.99 -396.274,-782.762 -397.076,-781.158 -398.031,-779.616 -398.923,-778.393 -400.165,-776.654 -400.794,-775.75 -401.754,-774.59 -402.557,-773.787 -403.418,-773.054 -404.323,-772.398 -405.26,-771.823 -406.214,-771.331 -407.174,-770.919 -408.405,-770.501 -409.829,-770.144 -411.22,-769.916 -412.331,-769.815 -413.214,-769.79 -413.813,-769.803 -413.813,-769.803 -417.323,-770.603 -417.113,-770.88 -416.262,-772.191 -415.498,-773.581 -414.833,-775.059 -414.284,-776.631 -413.867,-778.319 -413.617,-780.066 -413.56,-781.311 -413.495,-781.493 -412.782,-780.434 -409.483,-778.211 -405.444,-777.395 -402.073,-777.955 -399.165,-779.511 -396.905,-781.876 -395.702,-784.4 -395.78,-783.988 -395.782,-783.99 " transform="matrix(1, 0, 0, 1, 0, 0)" fill="#004080" fill-opacity="0.50" stroke="#004080" stroke-width="1" stroke-opacity="0.10" fill-rule="winding" ub:uuid="8319ed21-9801-453f-88f6-aeb25caf1f78" ub:parent="d8c4f563-e2d4-46b7-b91c-ba95886b9490"/>
        <polygon points="-414.438,-769.84 -415.05,-769.9 -415.995,-770.046 -416.948,-770.258 -417.468,-770.411 -417.323,-770.603 -413.824,-769.806 -413.979,-769.809 -414.438,-769.84 -414.438,-769.84 " transform="matrix(1, 0, 0, 1, 0, 0)" fill="#004080" fill-opacity="0.50" stroke="#004080" stroke-width="1" stroke-opacity="0.10" fill-rule="winding" ub:uuid="71166253-e086-4a28-989d-880b0eae78e5" ub:parent="d8c4f563-e2d4-46b7-b91c-ba95886b9490"/>
        <polygon points="-393.567,-794.025 -393.486,-793.37 -394.301,-789.331 -394.489,-789.052 -394.129,-790.6 -393.894,-791.688 -393.685,-792.971 -393.567,-794.025 " transform="matrix(1, 0, 0, 1, 0, 0)" fill="#004080" fill-opacity="0.50" stroke="#004080" stroke-width="1" stroke-opacity="0.10" fill-rule="winding" ub:uuid="0564bd66-b628-4e2c-b43d-28ff87905db7" ub:parent="d8c4f563-e2d4-46b7-b91c-ba95886b9490"/>
        <polygon points="-393.482,-795.196 -393.167,-793.96 -392.916,-792.647 -392.741,-791.364 -392.629,-790.084 -392.575,-788.78 -392.588,-787.279 -392.711,-785.8 -392.891,-784.632 -393.095,-783.703 -393.362,-782.757 -393.698,-781.801 -394.11,-780.841 -394.488,-780.096 -395.943,-777.377 -396.013,-777.136 -396.429,-776.202 -396.427,-776.2 -397.998,-773.713 -400.19,-771.771 -402.869,-770.509 -405.903,-770.058 -408.289,-770.54 -407.174,-770.919 -406.214,-771.331 -405.26,-771.823 -404.323,-772.398 -403.418,-773.054 -402.557,-773.787 -401.754,-774.59 -400.794,-775.75 -400.165,-776.654 -398.923,-778.393 -398.031,-779.616 -397.076,-781.158 -396.274,-782.762 -395.782,-783.99 -395.78,-783.988 -395.702,-784.4 -395.481,-784.864 -395.483,-784.866 -395.099,-786.237 -394.632,-788.439 -394.489,-789.052 -394.301,-789.331 -393.486,-793.37 -393.567,-794.025 -393.542,-794.253 -393.482,-795.196 " transform="matrix(1, 0, 0, 1, 0, 0)" fill="#004080" fill-opacity="0.50" stroke="#004080" stroke-width="1" stroke-opacity="0.10" fill-rule="winding" ub:uuid="525c74d2-f34b-437f-93d7-52fe08c121f8" ub:parent="d8c4f563-e2d4-46b7-b91c-ba95886b9490"/>
        <polygon points="-396.853,-775.358 -397.383,-774.42 -398.069,-773.379 -398.68,-772.577 -399.368,-771.786 -400.139,-771.015 -401.243,-770.089 -402.344,-769.326 -403.547,-768.585 -404.795,-767.882 -406.159,-767.175 -407.606,-766.505 -408.814,-766.019 -409.942,-765.625 -411.097,-765.278 -412.318,-764.976 -413.596,-764.733 -414.878,-764.557 -416.158,-764.446 -417.218,-764.399 -417.216,-764.399 -417.65,-764.39 -421.688,-765.206 -422.413,-765.694 -421.922,-766.004 -420.894,-766.788 -420.894,-766.788 -420.618,-767.124 -420.153,-767.422 -420.153,-767.422 -419.231,-768.305 -418.092,-769.585 -417.468,-770.411 -416.948,-770.258 -415.995,-770.046 -415.05,-769.9 -414.438,-769.84 -414.438,-769.84 -413.979,-769.809 -413.824,-769.806 -413.813,-769.803 -413.813,-769.803 -413.214,-769.79 -412.331,-769.815 -411.22,-769.916 -409.829,-770.144 -408.405,-770.501 -408.289,-770.54 -405.903,-770.058 -402.869,-770.509 -400.19,-771.771 -397.998,-773.713 -396.657,-775.835 -396.852,-775.357 -396.853,-775.358 " transform="matrix(1, 0, 0, 1, 0, 0)" fill="#004080" fill-opacity="0.50" stroke="#004080" stroke-width="1" stroke-opacity="0.10" fill-rule="winding" ub:uuid="41cc3aae-15cd-4d4e-abe0-001436d6c51e" ub:parent="d8c4f563-e2d4-46b7-b91c-ba95886b9490"/>
        <polygon points="-417.702,-764.39 -418.957,-764.404 -420.65,-764.547 -422.382,-764.849 -423.336,-765.11 -422.413,-765.694 -421.688,-765.206 -417.65,-764.39 -417.702,-764.39 -417.702,-764.39 " transform="matrix(1, 0, 0, 1, 0, 0)" fill="#004080" fill-opacity="0.50" stroke="#004080" stroke-width="1" stroke-opacity="0.10" fill-rule="winding" ub:uuid="92aea3d4-6293-4905-8da1-b8a6fff0e3d8" ub:parent="d8c4f563-e2d4-46b7-b91c-ba95886b9490"/>
        <polygon points="-411.431,-765.196 -412.483,-764.406 -412.482,-764.405 -415.359,-762.893 -418.683,-762.35 -422.722,-763.165 -424.618,-764.444 -423.425,-765.054 -423.336,-765.11 -422.382,-764.849 -420.65,-764.547 -418.957,-764.404 -417.702,-764.39 -417.702,-764.39 -417.65,-764.39 -417.216,-764.399 -417.218,-764.399 -416.158,-764.446 -414.878,-764.557 -413.596,-764.733 -412.318,-764.976 -411.431,-765.196 " transform="matrix(1, 0, 0, 1, 0, 0)" fill="#004080" fill-opacity="0.50" stroke="#004080" stroke-width="1" stroke-opacity="0.10" fill-rule="winding" ub:uuid="197d53ef-8176-4c47-8dd7-98fcb8e97ca8" ub:parent="d8c4f563-e2d4-46b7-b91c-ba95886b9490"/>
        <polygon points="-413.263,-763.877 -415.251,-762.665 -417.075,-761.73 -418.714,-761.069 -420.317,-760.588 -421.986,-760.255 -424.069,-760.072 -428.519,-760.072 -430.532,-760.24 -432.297,-760.569 -434.346,-761.148 -436.358,-761.916 -437.406,-762.413 -437.072,-762.34 -435.977,-762.18 -434.888,-762.096 -433.815,-762.084 -432.763,-762.139 -431.505,-762.291 -430.115,-762.558 -428.753,-762.898 -427.442,-763.297 -426.148,-763.768 -424.85,-764.325 -424.618,-764.444 -422.722,-763.165 -418.683,-762.35 -415.359,-762.893 -412.831,-764.222 -413.262,-763.877 -413.263,-763.877 " transform="matrix(1, 0, 0, 1, 0, 0)" fill="#004080" fill-opacity="0.50" stroke="#004080" stroke-width="1" stroke-opacity="0.10" fill-rule="winding" ub:uuid="97f45756-f4b7-4e26-b21c-bad8a104fddd" ub:parent="d8c4f563-e2d4-46b7-b91c-ba95886b9490"/>
        <polygon points="-425.811,-760.072 -427.496,-759.703 -429.752,-759.436 -431.48,-759.436 -433.929,-759.744 -438.816,-760.937 -441.331,-761.812 -443.698,-762.943 -445.584,-764.049 -446.779,-764.883 -447.379,-765.364 -447.38,-765.364 -449.12,-767.558 -448.712,-767.395 -448.112,-767.188 -448.114,-767.186 -447.836,-767.14 -447.578,-767.021 -447.576,-767.023 -447.045,-766.878 -446.661,-766.596 -446.039,-766.194 -446.04,-766.193 -445.618,-766 -445.219,-765.72 -445.217,-765.722 -444.112,-765.154 -441.964,-764.08 -440.629,-763.435 -439.241,-762.895 -438.163,-762.578 -437.406,-762.413 -436.358,-761.916 -434.346,-761.148 -432.297,-760.569 -430.532,-760.24 -428.519,-760.072 -425.811,-760.072 " transform="matrix(1, 0, 0, 1, 0, 0)" fill="#004080" fill-opacity="0.50" stroke="#004080" stroke-width="1" stroke-opacity="0.10" fill-rule="winding" ub:uuid="b6b57fb0-3ee0-48fb-8eec-4e0170d18454" ub:parent="d8c4f563-e2d4-46b7-b91c-ba95886b9490"/>
        <polygon points="-447.905,-765.821 -448.485,-766.37 -449.302,-767.253 -449.752,-767.823 -449.568,-767.737 -449.12,-767.558 -447.577,-765.613 -447.905,-765.821 -447.905,-765.821 " transform="matrix(1, 0, 0, 1, 0, 0)" fill="#004080" fill-opacity="0.50" stroke="#004080" stroke-width="1" stroke-opacity="0.10" fill-rule="winding" ub:uuid="9dcb56fe-1f42-45d6-8b8a-9cd704580a7d" ub:parent="d8c4f563-e2d4-46b7-b91c-ba95886b9490"/>
        <polygon points="-439.33,-761.116 -440.584,-761.253 -442.723,-761.689 -444.938,-762.357 -447.388,-763.352 -450.589,-765.025 -452.866,-766.47 -454.567,-767.787 -454.568,-767.787 -457.464,-771.34 -458.264,-773.547 -458.545,-775.955 -458.488,-776.24 -458.255,-775.806 -457.511,-774.61 -456.688,-773.457 -455.787,-772.357 -454.752,-771.255 -453.694,-770.291 -452.763,-769.561 -452.007,-769.042 -451.22,-768.563 -450.405,-768.127 -449.752,-767.823 -449.302,-767.253 -448.485,-766.37 -447.905,-765.821 -447.905,-765.821 -447.577,-765.613 -447.38,-765.364 -447.379,-765.364 -446.779,-764.883 -445.584,-764.049 -443.698,-762.943 -441.331,-761.812 -439.33,-761.116 " transform="matrix(1, 0, 0, 1, 0, 0)" fill="#004080" fill-opacity="0.50" stroke="#004080" stroke-width="1" stroke-opacity="0.10" fill-rule="winding" ub:uuid="3662ff22-99df-45e7-8570-a1fa29a7cea7" ub:parent="d8c4f563-e2d4-46b7-b91c-ba95886b9490"/>
        <polygon points="-455.249,-768.37 -456.404,-769.45 -457.369,-770.483 -458.102,-771.419 -458.744,-772.381 -459.297,-773.354 -459.769,-774.331 -460.167,-775.304 -460.576,-776.525 -461,-778.2 -462.137,-783.914 -462.371,-786.004 -462.371,-787.732 -462.22,-789.248 -461.985,-787.908 -461.677,-786.53 -461.312,-785.213 -460.878,-783.91 -460.786,-783.682 -460.588,-782.133 -460.203,-780.402 -459.647,-778.695 -458.966,-777.133 -458.488,-776.24 -458.545,-775.955 -458.264,-773.547 -457.464,-771.34 -454.821,-768.097 -455.249,-768.37 -455.249,-768.37 " transform="matrix(1, 0, 0, 1, 0, 0)" fill="#004080" fill-opacity="0.50" stroke="#004080" stroke-width="1" stroke-opacity="0.10" fill-rule="winding" ub:uuid="cbcf7d0f-36d6-4487-8f7e-6792a51c1ac2" ub:parent="d8c4f563-e2d4-46b7-b91c-ba95886b9490"/>
        <polygon points="-460.953,-778.014 -461.303,-778.689 -462.135,-780.685 -462.779,-782.708 -463.168,-784.424 -463.392,-786.04 -463.472,-787.904 -463.353,-790.148 -463.017,-792.426 -462.6,-794.149 -462.609,-793.785 -462.574,-792.467 -462.448,-790.904 -462.27,-789.534 -462.22,-789.248 -462.371,-787.732 -462.371,-786.004 -462.137,-783.914 -461,-778.2 -460.953,-778.014 " transform="matrix(1, 0, 0, 1, 0, 0)" fill="#004080" fill-opacity="0.50" stroke="#004080" stroke-width="1" stroke-opacity="0.10" fill-rule="winding" ub:uuid="ee807230-624c-4dc4-80c9-cf9ec3dfbd45" ub:parent="d8c4f563-e2d4-46b7-b91c-ba95886b9490"/>
        <polygon points="-454.935,-809.843 -454.905,-809.98 -454.588,-811.057 -454.078,-812.382 -453.353,-813.85 -452.587,-815.138 -452.588,-815.139 -450.964,-817.199 -448.875,-818.789 -446.419,-819.813 -444.664,-820.046 -445.78,-818.792 -446.912,-817.288 -447.925,-815.818 -449.139,-813.916 -449.323,-813.606 -450.246,-813.124 -451.486,-812.391 -452.749,-811.546 -454.138,-810.499 -454.935,-809.843 " transform="matrix(1, 0, 0, 1, 0, 0)" fill="#004080" fill-opacity="0.50" stroke="#004080" stroke-width="1" stroke-opacity="0.10" fill-rule="winding" ub:uuid="ae44504a-b3ef-40bc-8925-ea6d8aee976d" ub:parent="d8c4f563-e2d4-46b7-b91c-ba95886b9490"/>
        <polygon points="-452.034,-815.967 -451.059,-817.265 -449.626,-818.849 -448.042,-820.282 -446.333,-821.546 -444.446,-822.673 -442.289,-823.7 -440.159,-824.503 -438.393,-825.018 -437.39,-825.23 -437.564,-825.145 -439.228,-824.231 -440.581,-823.41 -441.952,-822.454 -443.285,-821.374 -444.546,-820.178 -444.664,-820.046 -446.419,-819.813 -448.875,-818.789 -450.964,-817.199 -452.229,-815.595 -452.035,-815.967 -452.034,-815.967 " transform="matrix(1, 0, 0, 1, 0, 0)" fill="#004080" fill-opacity="0.50" stroke="#004080" stroke-width="1" stroke-opacity="0.10" fill-rule="winding" ub:uuid="5dedc724-0502-4066-927e-f6ecbdc713e7" ub:parent="d8c4f563-e2d4-46b7-b91c-ba95886b9490"/>
    </g>
    <g ub:z-value="-999994" ub:fill-on-dark-background="#ff4400" ub:fill-on-light-background="#ff0000" ub:uuid="52d1f758-db87-4f8e-82e6-ee36de47b171" ub:layer="-1000">
        <polygon points="-653.319,-992.398 -642.002,-986.633 -640.921,-986.016 -638.738,-984.837 -639.058,-985 -639.016,-984.986 -638.953,-984.974 -638.774,-984.938 -638.584,-984.91 -638.403,-984.892 -638.229,-984.883 -638.147,-984.88 -637.481,-984.915 -636.63,-985.008 -635.558,-985.167 -635.138,-985.25 -634.724,-985.361 -634.277,-985.51 -633.793,-985.704 -633.018,-986.07 -633.021,-986.071 -630.913,-986.791 -628.63,-987.044 -624.591,-986.228 -621.292,-984.004 -619.069,-980.706 -618.253,-976.667 -618.691,-973.675 -619.92,-971.024 -621.812,-968.845 -624.239,-967.263 -624.242,-967.264 -625.542,-966.662 -627.133,-966.026 -628.761,-965.483 -630.422,-965.041 -632.078,-964.709 -633.962,-964.427 -635.758,-964.234 -637.427,-964.14 -638.745,-964.137 -639.955,-964.197 -641.158,-964.317 -642.351,-964.496 -643.555,-964.738 -644.884,-965.08 -646.295,-965.55 -648.137,-966.335 -650.917,-967.829 -651.496,-968.18 -662.739,-973.907 -662.74,-973.905 -665.044,-975.507 -666.834,-977.66 -667.993,-980.247 -668.405,-983.152 -667.59,-987.191 -665.366,-990.49 -662.068,-992.713 -658.029,-993.529 -655.567,-993.235 -653.318,-992.4 -653.319,-992.398 " transform="matrix(1, 0, 0, 1, 0, 0)" fill="#ff0000" fill-opacity="0.50" stroke="#ff0000" stroke-width="1" stroke-opacity="0.10" fill-rule="winding" ub:uuid="9b3668de-666e-4866-98fc-ea09f4193be5" ub:parent="52d1f758-db87-4f8e-82e6-ee36de47b171"/>
        <polygon points="-633.171,-985.998 -630.46,-987.353 -625.835,-989.666 -619.72,-992.724 -615.622,-994.911 -604.745,-1000.26 -598.909,-1003.05 -596.821,-1003.89 -595.001,-1004.53 -593.092,-1005.1 -590.623,-1005.71 -588.172,-1006.21 -585.715,-1006.63 -583.235,-1006.95 -581.303,-1007.1 -579.45,-1007.15 -577.603,-1007.1 -575.782,-1006.95 -574.011,-1006.7 -572.074,-1006.34 -572.073,-1006.34 -568.709,-1005.09 -566.019,-1002.81 -564.234,-999.754 -563.588,-996.14 -564.403,-992.101 -566.627,-988.803 -569.925,-986.579 -573.964,-985.764 -575.855,-985.936 -575.853,-985.937 -577.418,-986.229 -578.069,-986.32 -578.738,-986.376 -579.45,-986.395 -580.226,-986.374 -580.992,-986.317 -582.654,-986.102 -584.348,-985.816 -586.047,-985.466 -587.729,-985.053 -588.587,-984.793 -589.534,-984.462 -590.213,-984.203 -595.661,-981.605 -606.289,-976.375 -610.241,-974.264 -616.551,-971.105 -621.179,-968.792 -623.989,-967.386 -623.987,-967.385 -624.134,-967.332 -621.812,-968.845 -619.92,-971.024 -618.691,-973.675 -618.253,-976.667 -619.069,-980.706 -621.292,-984.004 -624.591,-986.228 -628.63,-987.044 -630.913,-986.791 -633.021,-986.071 -633.018,-986.07 -633.171,-985.998 " transform="matrix(1, 0, 0, 1, 0, 0)" fill="#ff0000" fill-opacity="0.50" stroke="#ff0000" stroke-width="1" stroke-opacity="0.10" fill-rule="winding" ub:uuid="87cf5e2e-0ede-4478-9b7c-8a2e576216e0" ub:parent="52d1f758-db87-4f8e-82e6-ee36de47b171"/>
        <polygon points="-571.631,-1006.25 -570.23,-1005.92 -568.219,-1005.36 -566.593,-1004.81 -565.013,-1004.18 -563.461,-1003.46 -561.948,-1002.65 -560.422,-1001.73 -558.205,-1000.27 -555.361,-998.364 -547.597,-993.677 -547.085,-993.432 -545.551,-992.697 -544.088,-992.063 -543.375,-991.792 -541.788,-991.278 -540.03,-990.814 -539.083,-990.607 -538.135,-990.465 -536.777,-990.36 -536.776,-990.36 -533.035,-989.328 -530.009,-987.069 -527.983,-983.87 -527.245,-980.018 -528.06,-975.979 -530.284,-972.681 -533.582,-970.457 -537.621,-969.642 -538.047,-969.65 -538.466,-969.676 -538.465,-969.676 -540.497,-969.847 -542.8,-970.19 -544.965,-970.657 -547.617,-971.361 -550.129,-972.169 -551.975,-972.867 -554.162,-973.815 -556.259,-974.818 -558.169,-975.819 -566.315,-980.738 -569.697,-982.986 -571.63,-984.268 -572.179,-984.596 -572.742,-984.896 -573.265,-985.141 -573.76,-985.339 -574.218,-985.493 -575.449,-985.838 -576.056,-985.975 -575.853,-985.937 -575.855,-985.936 -573.964,-985.764 -569.925,-986.579 -566.627,-988.803 -564.403,-992.101 -563.588,-996.14 -564.234,-999.754 -566.019,-1002.81 -568.709,-1005.09 -571.912,-1006.28 -571.628,-1006.25 -571.631,-1006.25 " transform="matrix(1, 0, 0, 1, 0, 0)" fill="#ff0000" fill-opacity="0.50" stroke="#ff0000" stroke-width="1" stroke-opacity="0.10" fill-rule="winding" ub:uuid="e2a4f9ba-6d0a-49a3-a997-10ea99f0e932" ub:parent="52d1f758-db87-4f8e-82e6-ee36de47b171"/>
        <polygon points="-537.103,-990.385 -535.957,-990.359 -534.774,-990.402 -532.41,-990.629 -531.217,-990.794 -530.188,-990.975 -529.44,-991.144 -528.095,-991.526 -521.79,-992.936 -518.888,-993.605 -518.348,-993.784 -516.528,-994.443 -513.81,-995.462 -509.66,-997.019 -504.818,-998.834 -496.517,-1001.95 -486.71,-1005.62 -476.809,-1009.05 -474.685,-1009.64 -472.562,-1010.17 -472.567,-1010.17 -470.045,-1010.48 -466.007,-1009.66 -462.708,-1007.44 -460.485,-1004.14 -459.669,-1000.1 -460.262,-996.634 -461.905,-993.665 -464.394,-991.397 -467.524,-990.033 -467.529,-990.034 -469.557,-989.527 -470.2,-989.382 -479.668,-986.103 -489.23,-982.516 -497.531,-979.403 -502.373,-977.587 -506.524,-976.031 -509.34,-974.975 -511.636,-974.147 -513.759,-973.496 -517.213,-972.694 -523.367,-971.32 -524.271,-971.045 -526.118,-970.626 -528.028,-970.288 -530.121,-970.003 -533.273,-969.703 -535.757,-969.608 -537.824,-969.644 -537.824,-969.644 -537.835,-969.646 -537.621,-969.642 -533.582,-970.457 -530.284,-972.681 -528.06,-975.979 -527.245,-980.018 -527.983,-983.87 -530.009,-987.069 -533.035,-989.328 -536.776,-990.36 -536.777,-990.36 -537.103,-990.385 " transform="matrix(1, 0, 0, 1, 0, 0)" fill="#ff0000" fill-opacity="0.50" stroke="#ff0000" stroke-width="1" stroke-opacity="0.10" fill-rule="winding" ub:uuid="7c482779-c17f-47d7-bfb9-538a792d783d" ub:parent="52d1f758-db87-4f8e-82e6-ee36de47b171"/>
        <polygon points="-472.547,-1010.17 -469.808,-1010.86 -465.831,-1011.86 -459.541,-1013.58 -454.04,-1015.01 -452.053,-1015.42 -450.254,-1015.7 -448.452,-1015.9 -446.706,-1016 -442.616,-1016.1 -435.59,-1016.58 -429.862,-1016.86 -428.113,-1016.87 -426.095,-1016.79 -423.964,-1016.61 -422.097,-1016.38 -417.03,-1015.81 -404.319,-1015.13 -403.136,-1015.15 -400.784,-1015.15 -396.745,-1014.33 -393.447,-1012.11 -391.223,-1008.81 -390.407,-1004.77 -391.223,-1000.73 -393.447,-997.433 -396.745,-995.209 -400.784,-994.393 -403.136,-994.393 -405.299,-994.405 -418.485,-995.111 -424.434,-995.756 -426.121,-995.967 -427.389,-996.074 -428.613,-996.121 -429.008,-996.127 -434.357,-995.864 -441.53,-995.38 -446.009,-995.255 -446.752,-995.215 -447.511,-995.133 -448.34,-995.002 -449.05,-994.862 -454.185,-993.534 -460.503,-991.801 -464.748,-990.729 -467.51,-990.039 -464.394,-991.397 -461.905,-993.665 -460.262,-996.634 -459.669,-1000.1 -460.485,-1004.14 -462.708,-1007.44 -466.007,-1009.66 -470.045,-1010.48 -472.547,-1010.17 -472.581,-1010.16 -472.567,-1010.17 -472.562,-1010.17 -472.581,-1010.16 -472.547,-1010.17 " transform="matrix(1, 0, 0, 1, 0, 0)" fill="#ff0000" fill-opacity="0.50" stroke="#ff0000" stroke-width="1" stroke-opacity="0.10" fill-rule="winding" ub:uuid="19762af6-13be-467c-97e4-b6f565f777ae" ub:parent="52d1f758-db87-4f8e-82e6-ee36de47b171"/>
        <polygon points="-400.784,-1015.15 -397.019,-1015.15 -393.097,-1015.16 -391.487,-1015.23 -389.821,-1015.37 -387.194,-1015.68 -382.819,-1016.19 -378.307,-1016.76 -375.403,-1017.24 -371.249,-1018.06 -364.442,-1019.42 -361.315,-1020.14 -359.062,-1020.74 -355.622,-1021.75 -347.175,-1024.13 -334.045,-1027.54 -316.325,-1031.98 -312.456,-1032.76 -297.005,-1035.84 -294.847,-1036.15 -294.852,-1036.15 -293.476,-1036.24 -289.437,-1035.42 -286.139,-1033.2 -283.915,-1029.9 -283.099,-1025.86 -283.792,-1022.13 -285.695,-1019 -288.551,-1016.73 -292.1,-1015.58 -292.104,-1015.58 -293.06,-1015.47 -308.391,-1012.41 -311.44,-1011.81 -328.93,-1007.42 -341.801,-1004.09 -349.93,-1001.8 -353.442,-1000.76 -356.377,-999.988 -360.169,-999.116 -367.196,-997.706 -371.654,-996.83 -375.391,-996.208 -380.322,-995.593 -384.766,-995.07 -387.708,-994.724 -390.193,-994.522 -392.733,-994.412 -396.974,-994.393 -400.784,-994.393 -396.745,-995.209 -393.447,-997.433 -391.223,-1000.73 -390.407,-1004.77 -391.223,-1008.81 -393.447,-1012.11 -396.745,-1014.33 -400.784,-1015.15 " transform="matrix(1, 0, 0, 1, 0, 0)" fill="#ff0000" fill-opacity="0.50" stroke="#ff0000" stroke-width="1" stroke-opacity="0.10" fill-rule="winding" ub:uuid="77096718-e960-4019-b7a4-46d7b4ffb4c6" ub:parent="52d1f758-db87-4f8e-82e6-ee36de47b171"/>
        <polygon points="-294.573,-1036.18 -292.045,-1036.45 -288.736,-1036.68 -286.172,-1036.76 -282.581,-1036.76 -277.638,-1036.76 -275.187,-1036.68 -272.809,-1036.5 -270.599,-1036.24 -267.44,-1035.81 -263.282,-1035.27 -260.229,-1034.75 -258.395,-1034.36 -256.184,-1033.79 -253.157,-1032.9 -247.333,-1031.13 -238.699,-1028.54 -230.512,-1026.08 -212.737,-1022.04 -212.731,-1022.15 -212.731,-1022.15 -208.952,-1021.14 -205.892,-1018.88 -203.842,-1015.67 -203.094,-1011.8 -203.909,-1007.76 -206.133,-1004.46 -209.431,-1002.23 -213.47,-1001.42 -213.843,-1001.43 -214.21,-1001.44 -214.21,-1001.45 -217.109,-1001.76 -235.556,-1005.95 -244.662,-1008.67 -253.322,-1011.26 -259.12,-1013.02 -261.766,-1013.8 -263.264,-1014.19 -263.989,-1014.34 -266.263,-1014.73 -270.181,-1015.24 -273.291,-1015.67 -274.79,-1015.85 -276.278,-1015.96 -277.848,-1016.01 -282.581,-1016.01 -285.916,-1016.01 -287.632,-1015.96 -290.272,-1015.77 -292.378,-1015.55 -292.374,-1015.55 -292.412,-1015.54 -292.104,-1015.58 -292.1,-1015.58 -288.551,-1016.73 -285.695,-1019 -283.792,-1022.13 -283.099,-1025.86 -283.915,-1029.9 -286.139,-1033.2 -289.437,-1035.42 -293.476,-1036.24 -294.64,-1036.16 -294.577,-1036.18 -294.573,-1036.18 " transform="matrix(1, 0, 0, 1, 0, 0)" fill="#ff0000" fill-opacity="0.50" stroke="#ff0000" stroke-width="1" stroke-opacity="0.10" fill-rule="winding" ub:uuid="b0e5ae49-04a3-4955-81c4-ef2eb7cf1e1c" ub:parent="52d1f758-db87-4f8e-82e6-ee36de47b171"/>
        <polygon points="-213.051,-1022.16 -211.051,-1022.08 -208.284,-1022.08 -206.233,-1022.16 -204.071,-1022.3 -199.896,-1022.71 -193.968,-1023.3 -188.728,-1023.94 -185.048,-1024.51 -181.199,-1025.22 -177.362,-1026.05 -172.203,-1027.31 -163.364,-1029.4 -152.211,-1031.98 -147.097,-1033.34 -143.965,-1034.3 -126.997,-1039.06 -106.788,-1043.45 -103.614,-1044.04 -99.8313,-1044.71 -99.8363,-1044.71 -98.004,-1044.87 -93.965,-1044.06 -90.6668,-1041.83 -88.4431,-1038.54 -87.6277,-1034.5 -88.2799,-1030.87 -90.079,-1027.8 -92.7884,-1025.52 -96.1716,-1024.28 -96.1767,-1024.28 -99.9343,-1023.61 -102.467,-1023.16 -122.034,-1018.91 -138.278,-1014.34 -141.502,-1013.35 -147.326,-1011.81 -158.646,-1009.19 -167.369,-1007.13 -172.665,-1005.83 -177.129,-1004.87 -181.58,-1004.05 -185.924,-1003.38 -191.683,-1002.67 -197.862,-1002.05 -202.299,-1001.63 -205.143,-1001.43 -207.943,-1001.33 -211.402,-1001.33 -213.839,-1001.43 -213.47,-1001.42 -209.431,-1002.23 -206.133,-1004.46 -203.909,-1007.76 -203.094,-1011.8 -203.842,-1015.67 -205.892,-1018.88 -208.952,-1021.14 -212.731,-1022.15 -212.731,-1022.15 -212.737,-1022.04 -213.29,-1022.17 -213.051,-1022.16 -213.051,-1022.16 -213.849,-1001.43 -213.89,-1001.43 -213.89,-1001.43 -213.894,-1001.43 -213.849,-1001.43 -213.051,-1022.16 " transform="matrix(1, 0, 0, 1, 0, 0)" fill="#ff0000" fill-opacity="0.50" stroke="#ff0000" stroke-width="1" stroke-opacity="0.10" fill-rule="winding" ub:uuid="27568aab-53dd-40f0-9407-9bc3fb5a01f1" ub:parent="52d1f758-db87-4f8e-82e6-ee36de47b171"/>
        <polygon points="-99.6119,-1044.75 -95.9105,-1045.33 -91.6554,-1045.86 -86.8806,-1046.39 -82.0266,-1046.89 -79.234,-1047.06 -76.5547,-1047.13 -73.8968,-1047.12 -71.3382,-1047.01 -68.8879,-1046.8 -66.7588,-1046.53 -62.9441,-1046.01 -57.5183,-1045.32 -52.9973,-1044.67 -51.2467,-1044.35 -49.0867,-1043.87 -46.9434,-1043.3 -43.841,-1042.42 -40.1088,-1041.35 -34.1922,-1039.58 -34.1897,-1039.58 -31.2267,-1038.15 -28.8831,-1035.89 -27.3424,-1032.99 -26.7881,-1029.64 -27.6035,-1025.6 -29.8272,-1022.3 -33.1255,-1020.08 -37.1644,-1019.26 -40.139,-1019.69 -40.1366,-1019.7 -45.9625,-1021.44 -49.5455,-1022.46 -52.4959,-1023.31 -53.9843,-1023.7 -55.4561,-1024.03 -56.1265,-1024.15 -60.2957,-1024.75 -65.6439,-1025.44 -69.5077,-1025.96 -71.0881,-1026.17 -72.6327,-1026.3 -74.3802,-1026.37 -76.3224,-1026.38 -78.3125,-1026.33 -80.1892,-1026.22 -84.6738,-1025.75 -89.2378,-1025.25 -93.0415,-1024.77 -96.2838,-1024.26 -96.1767,-1024.28 -96.1716,-1024.28 -92.7884,-1025.52 -90.079,-1027.8 -88.2799,-1030.87 -87.6277,-1034.5 -88.4431,-1038.54 -90.6668,-1041.83 -93.965,-1044.06 -98.004,-1044.87 -99.684,-1044.73 -99.6168,-1044.75 -99.6119,-1044.75 " transform="matrix(1, 0, 0, 1, 0, 0)" fill="#ff0000" fill-opacity="0.50" stroke="#ff0000" stroke-width="1" stroke-opacity="0.10" fill-rule="winding" ub:uuid="7356771f-3796-4e12-92d6-59ebba6e208c" ub:parent="52d1f758-db87-4f8e-82e6-ee36de47b171"/>
        <polygon points="-34.0811,-1039.55 -25.5766,-1036.9 -16.4721,-1034.11 -10.8503,-1032.67 -9.3141,-1032.35 -7.76784,-1032.06 -5.54666,-1031.73 -2.45567,-1031.32 0.746463,-1030.93 2.44678,-1030.8 4.29134,-1030.73 7.20004,-1030.71 11.77,-1030.71 16.2802,-1030.78 18.3152,-1030.9 20.6369,-1031.1 24.9036,-1031.52 29.9295,-1032.03 33.9131,-1032.57 36.2577,-1032.98 36.2527,-1032.98 38.0464,-1033.14 42.0853,-1032.32 45.3835,-1030.1 47.6072,-1026.8 48.4226,-1022.76 47.767,-1019.12 45.9591,-1016.05 43.2374,-1013.77 39.84,-1012.54 39.835,-1012.54 36.9915,-1012.04 32.3282,-1011.42 26.9778,-1010.87 22.5976,-1010.44 19.809,-1010.2 16.8893,-1010.03 11.9225,-1009.96 7.15382,-1009.96 3.87133,-1009.98 1.22815,-1010.08 -1.40363,-1010.29 -5.07577,-1010.73 -8.42672,-1011.18 -11.117,-1011.58 -13.384,-1012 -15.8167,-1012.52 -22.1882,-1014.16 -31.6918,-1017.07 -40.1258,-1019.69 -37.1644,-1019.26 -33.1255,-1020.08 -29.8272,-1022.3 -27.6035,-1025.6 -26.7881,-1029.64 -27.3424,-1032.99 -28.8831,-1035.89 -31.2267,-1038.15 -34.1384,-1039.56 -34.0786,-1039.55 -34.0811,-1039.55 -40.1372,-1019.7 -40.1923,-1019.71 -40.1366,-1019.7 -40.1372,-1019.7 -34.0811,-1039.55 -40.2482,-1019.73 -40.2501,-1019.73 -40.2612,-1019.73 -40.2482,-1019.73 -34.0811,-1039.55 " transform="matrix(1, 0, 0, 1, 0, 0)" fill="#ff0000" fill-opacity="0.50" stroke="#ff0000" stroke-width="1" stroke-opacity="0.10" fill-rule="winding" ub:uuid="3afd3714-84f5-4ae6-bd71-27106f6093d3" ub:parent="52d1f758-db87-4f8e-82e6-ee36de47b171"/>
        <polygon points="36.1552,-1032.96 40.8133,-1033.87 57.8434,-1036.41 65.0782,-1037.52 78.8898,-1039.49 87.4301,-1040.84 90.1535,-1041.05 92.802,-1041.09 95.9806,-1041.09 100.018,-1041.09 104.137,-1040.97 106.817,-1040.76 109.165,-1040.49 112.666,-1040.05 116.257,-1039.6 118.717,-1039.2 121.123,-1038.7 123.38,-1038.12 126.511,-1037.23 130.172,-1036.17 130.174,-1036.18 133.176,-1034.76 135.553,-1032.5 137.117,-1029.58 137.68,-1026.2 136.865,-1022.16 134.641,-1018.86 131.343,-1016.64 127.304,-1015.82 124.434,-1016.23 124.436,-1016.23 120.791,-1017.28 117.869,-1018.11 116.416,-1018.49 114.957,-1018.79 113.396,-1019.05 110.078,-1019.46 106.662,-1019.89 104.825,-1020.11 103.173,-1020.24 99.7256,-1020.34 95.9806,-1020.33 92.9334,-1020.33 90.878,-1020.31 90.3847,-1020.3 81.9426,-1018.96 68.084,-1016.98 60.9304,-1015.88 44.0646,-1013.37 40.0408,-1012.58 40.0459,-1012.58 39.9082,-1012.56 43.2374,-1013.77 45.9591,-1016.05 47.767,-1019.12 48.4226,-1022.76 47.6072,-1026.8 45.3835,-1030.1 42.0853,-1032.32 38.0464,-1033.14 36.2527,-1032.98 36.2577,-1032.98 36.1552,-1032.96 36.0467,-1032.94 36.0468,-1032.94 36.0468,-1032.94 36.0467,-1032.94 36.1552,-1032.96 " transform="matrix(1, 0, 0, 1, 0, 0)" fill="#ff0000" fill-opacity="0.50" stroke="#ff0000" stroke-width="1" stroke-opacity="0.10" fill-rule="winding" ub:uuid="251fc8bb-a097-4bf0-bede-abaa4e859914" ub:parent="52d1f758-db87-4f8e-82e6-ee36de47b171"/>
        <polygon points="130.585,-1036.04 132.92,-1035.26 135.785,-1034.19 139.936,-1032.5 144.428,-1030.55 147.212,-1029.23 149.874,-1027.9 154.345,-1025.68 170.233,-1019.26 170.466,-1019.23 172.246,-1018.72 174.657,-1018.03 177.506,-1017.22 179.505,-1016.74 180.828,-1016.48 182.196,-1016.28 183.617,-1016.13 185.141,-1016.04 186.846,-1016.01 190.232,-1016.01 194.271,-1015.2 197.569,-1012.97 199.793,-1009.67 200.608,-1005.63 199.793,-1001.6 197.569,-998.297 194.271,-996.074 190.232,-995.258 186.7,-995.258 184.333,-995.305 181.94,-995.448 179.599,-995.69 177.326,-996.03 175.018,-996.476 172.174,-997.167 168.971,-998.076 166.539,-998.771 164.696,-999.299 162.577,-999.968 146.221,-1006.58 140.661,-1009.31 138.135,-1010.57 135.939,-1011.61 131.871,-1013.38 128.162,-1014.89 125.968,-1015.71 124.233,-1016.29 124.436,-1016.23 124.434,-1016.23 127.304,-1015.82 131.343,-1016.64 134.641,-1018.86 136.865,-1022.16 137.68,-1026.2 137.117,-1029.58 135.553,-1032.5 133.176,-1034.76 130.372,-1036.08 130.588,-1036.05 130.585,-1036.04 " transform="matrix(1, 0, 0, 1, 0, 0)" fill="#ff0000" fill-opacity="0.50" stroke="#ff0000" stroke-width="1" stroke-opacity="0.10" fill-rule="winding" ub:uuid="7c1d3841-d241-46e6-a5e5-fc504f070952" ub:parent="52d1f758-db87-4f8e-82e6-ee36de47b171"/>
        <polygon points="190.228,-1016.01 194.227,-1016.01 196.706,-1016.1 198.562,-1016.24 200.529,-1016.45 203.421,-1016.86 206.793,-1017.45 217.216,-1019.01 222.863,-1019.87 223.982,-1020.11 232.193,-1021.84 240.857,-1023.65 258.293,-1026.14 278.469,-1028.07 280.544,-1028.12 282.497,-1028.11 284.397,-1028.03 286.453,-1027.81 288.641,-1027.44 291.447,-1026.81 291.45,-1026.81 294.67,-1025.49 297.236,-1023.22 298.933,-1020.21 299.546,-1016.69 298.73,-1012.65 296.507,-1009.35 293.209,-1007.13 289.17,-1006.31 286.89,-1006.56 286.892,-1006.57 284.51,-1007.1 283.585,-1007.26 282.805,-1007.34 282.145,-1007.37 280.544,-1007.36 280.337,-1007.41 260.711,-1005.53 244.234,-1003.18 236.469,-1001.53 228.251,-999.804 226.222,-999.39 220.309,-998.491 209.997,-996.943 206.658,-996.358 203.117,-995.862 200.441,-995.577 197.809,-995.381 194.546,-995.264 190.243,-995.258 190.243,-995.258 190.232,-995.258 194.271,-996.074 197.569,-998.297 199.793,-1001.6 200.608,-1005.63 199.793,-1009.67 197.569,-1012.97 194.271,-1015.2 190.232,-1016.01 190.228,-1016.01 " transform="matrix(1, 0, 0, 1, 0, 0)" fill="#ff0000" fill-opacity="0.50" stroke="#ff0000" stroke-width="1" stroke-opacity="0.10" fill-rule="winding" ub:uuid="badd2d0d-8687-4010-b838-9398bc6fb792" ub:parent="52d1f758-db87-4f8e-82e6-ee36de47b171"/>
        <polygon points="291.828,-1026.72 296.01,-1025.61 299.913,-1024.7 301.514,-1024.26 303.199,-1023.69 305.6,-1022.76 309.343,-1021.13 313.16,-1019.52 317.143,-1017.84 323.996,-1014.8 329.249,-1012.55 330.085,-1012.29 331.308,-1011.93 332.501,-1011.64 334.622,-1011.22 336.447,-1010.95 337.243,-1010.86 337.788,-1010.83 339.896,-1010.82 344.864,-1010.82 348.903,-1010.01 352.201,-1007.78 354.425,-1004.49 355.241,-1000.45 354.425,-996.407 352.201,-993.109 348.903,-990.885 344.864,-990.07 339.871,-990.07 337.327,-990.081 335.52,-990.184 333.688,-990.378 331.051,-990.778 328.131,-991.349 325.935,-991.885 323.836,-992.497 321.421,-993.335 315.702,-995.777 308.858,-998.81 305.093,-1000.4 301.163,-1002.06 297.573,-1003.62 296.031,-1004.22 295.433,-1004.42 295.028,-1004.53 290.976,-1005.48 286.697,-1006.61 286.892,-1006.57 286.89,-1006.56 289.17,-1006.31 293.209,-1007.13 296.507,-1009.35 298.73,-1012.65 299.546,-1016.69 298.933,-1020.21 297.236,-1023.22 294.67,-1025.49 291.604,-1026.75 291.83,-1026.72 291.828,-1026.72 " transform="matrix(1, 0, 0, 1, 0, 0)" fill="#ff0000" fill-opacity="0.50" stroke="#ff0000" stroke-width="1" stroke-opacity="0.10" fill-rule="winding" ub:uuid="c8e6f92f-b478-4e57-902b-b17072d4f92b" ub:parent="52d1f758-db87-4f8e-82e6-ee36de47b171"/>
        <polygon points="344.864,-1010.82 351.829,-1010.82 355.004,-1010.86 355.492,-1010.89 356.875,-1011.03 360.307,-1011.46 370.024,-1012.33 374.561,-1012.85 388.766,-1014.2 390.654,-1014.28 392.12,-1014.26 393.724,-1014.16 395.433,-1013.95 397.839,-1013.53 400.56,-1012.94 402.714,-1012.32 404.746,-1011.59 406.723,-1010.71 408.601,-1009.69 410.01,-1008.78 410.011,-1008.78 411.937,-1007.15 413.418,-1005.1 414.369,-1002.72 414.705,-1000.1 413.89,-996.057 411.666,-992.759 408.368,-990.535 404.329,-989.72 401.313,-990.165 398.647,-991.412 398.648,-991.413 397.955,-991.877 397.551,-992.098 397.038,-992.325 396.372,-992.564 395.621,-992.781 393.837,-993.17 392.299,-993.432 391.725,-993.499 391.324,-993.528 390.965,-993.526 390.639,-993.532 376.621,-992.196 372.027,-991.675 362.349,-990.812 359.296,-990.418 357.229,-990.214 355.503,-990.112 351.907,-990.07 344.864,-990.07 348.903,-990.885 352.201,-993.109 354.425,-996.407 355.241,-1000.45 354.425,-1004.49 352.201,-1007.78 348.903,-1010.01 344.864,-1010.82 " transform="matrix(1, 0, 0, 1, 0, 0)" fill="#ff0000" fill-opacity="0.50" stroke="#ff0000" stroke-width="1" stroke-opacity="0.10" fill-rule="winding" ub:uuid="cf242f40-d3e7-4187-b9c8-3ff54a06d16b" ub:parent="52d1f758-db87-4f8e-82e6-ee36de47b171"/>
        <polygon points="410.327,-1008.56 412.067,-1007.33 414.417,-1005.53 416.377,-1003.89 417.946,-1002.38 419.348,-1000.82 420.632,-999.161 421.73,-997.521 423.873,-994.082 424.216,-993.62 425.225,-992.34 426.293,-991.096 427.97,-989.265 429.727,-987.481 430.946,-986.361 432.25,-985.276 433.634,-984.236 434.312,-983.785 435.068,-983.348 436.173,-982.801 436.174,-982.802 438.505,-981.204 440.317,-979.045 441.491,-976.444 441.908,-973.52 441.093,-969.481 438.869,-966.183 435.571,-963.959 431.532,-963.144 429.109,-963.428 426.89,-964.237 426.892,-964.239 425.229,-965.076 423.356,-966.16 421.544,-967.369 419.375,-969.001 417.28,-970.743 415.256,-972.606 412.932,-974.964 410.804,-977.284 409.201,-979.153 407.694,-981.063 406.445,-982.816 404.204,-986.407 403.781,-987.049 403.405,-987.534 403.008,-987.978 402.64,-988.337 401.505,-989.279 399.704,-990.659 398.432,-991.557 398.648,-991.413 398.647,-991.412 401.313,-990.165 404.329,-989.72 408.368,-990.535 411.666,-992.759 413.89,-996.057 414.705,-1000.1 414.369,-1002.72 413.418,-1005.1 411.937,-1007.15 410.177,-1008.64 410.327,-1008.56 410.327,-1008.56 " transform="matrix(1, 0, 0, 1, 0, 0)" fill="#ff0000" fill-opacity="0.50" stroke="#ff0000" stroke-width="1" stroke-opacity="0.10" fill-rule="winding" ub:uuid="5984cfeb-9e49-43c5-9b8e-3f5d7ab7dec2" ub:parent="52d1f758-db87-4f8e-82e6-ee36de47b171"/>
        <polygon points="435.896,-982.937 436.8,-982.547 437.739,-982.204 438.665,-981.931 439.632,-981.719 440.7,-981.56 441.872,-981.458 443.183,-981.423 445.485,-981.457 447.392,-981.556 448.109,-981.622 449.452,-981.822 452.238,-982.26 457.049,-982.958 461.757,-983.646 463.029,-983.895 464.813,-984.316 473.442,-986.16 481.745,-987.91 486.057,-988.996 486.051,-988.998 488.584,-989.309 492.623,-988.494 495.922,-986.27 498.145,-982.972 498.961,-978.933 498.369,-975.469 496.728,-972.502 494.243,-970.234 491.117,-968.868 491.112,-968.869 486.301,-967.664 477.752,-965.86 469.225,-964.038 467.377,-963.603 465.018,-963.151 460.041,-962.422 455.306,-961.736 452.601,-961.309 450.65,-961.025 448.773,-960.849 446.14,-960.715 443.124,-960.671 440.699,-960.739 438.275,-960.949 435.883,-961.308 433.531,-961.823 431.275,-962.484 429.17,-963.248 427.445,-963.982 427.443,-963.981 427.22,-964.117 429.109,-963.428 431.532,-963.144 435.571,-963.959 438.869,-966.183 441.093,-969.481 441.908,-973.52 441.491,-976.444 440.317,-979.045 438.505,-981.204 436.174,-982.802 436.173,-982.801 435.896,-982.937 " transform="matrix(1, 0, 0, 1, 0, 0)" fill="#ff0000" fill-opacity="0.50" stroke="#ff0000" stroke-width="1" stroke-opacity="0.10" fill-rule="winding" ub:uuid="65647227-c3b1-4b02-a2fb-b0528a1427c3" ub:parent="52d1f758-db87-4f8e-82e6-ee36de47b171"/>
        <polygon points="485.875,-988.951 487.923,-989.543 492.006,-990.575 494.515,-990.984 497.605,-991.329 503.285,-991.743 506.154,-991.786 508.926,-991.54 512.733,-990.822 516.844,-989.673 520.158,-988.41 523.101,-986.955 525.798,-985.318 528.342,-983.457 530.832,-981.259 533.375,-978.575 534.982,-976.757 535.666,-976.123 536.255,-975.648 542.917,-971.247 542.918,-971.248 544.829,-969.62 546.298,-967.579 547.241,-965.207 547.574,-962.59 546.758,-958.551 544.534,-955.253 541.236,-953.029 537.197,-952.214 534.159,-952.666 531.476,-953.932 531.477,-953.933 524.555,-958.508 522.161,-960.367 520.018,-962.379 518.088,-964.539 516.307,-966.437 515.339,-967.283 514.286,-968.051 513.109,-968.766 511.867,-969.386 510.477,-969.922 507.973,-970.623 505.77,-971.029 505.559,-971.042 504.477,-971.025 499.383,-970.653 497.154,-970.4 496.551,-970.326 493.267,-969.49 491.477,-968.968 491.482,-968.967 491.277,-968.937 494.243,-970.234 496.728,-972.502 498.369,-975.469 498.961,-978.933 498.145,-982.972 495.922,-986.27 492.623,-988.494 488.584,-989.309 486.051,-988.998 486.057,-988.996 485.875,-988.951 " transform="matrix(1, 0, 0, 1, 0, 0)" fill="#ff0000" fill-opacity="0.50" stroke="#ff0000" stroke-width="1" stroke-opacity="0.10" fill-rule="winding" ub:uuid="7e55d361-c9e2-4024-9e69-6e1c9b78b841" ub:parent="52d1f758-db87-4f8e-82e6-ee36de47b171"/>
        <polygon points="542.505,-971.52 543.292,-971.102 545.294,-970.282 547.556,-969.586 549.577,-969.137 555.93,-968.491 569.765,-969.335 594.698,-973.021 601.735,-973.821 603.506,-974.119 605.678,-974.279 608.083,-974.235 610.689,-973.962 613.361,-973.452 616.023,-972.68 618.804,-971.552 622.348,-969.664 624.712,-968.135 626.478,-966.773 627.756,-965.613 627.756,-965.613 630.21,-962.214 630.881,-960.172 631.116,-957.968 630.3,-953.929 628.076,-950.631 624.778,-948.407 620.739,-947.592 616.909,-948.322 613.723,-950.324 613.723,-950.324 613.107,-950.902 612.815,-951.131 611.996,-951.677 609.738,-952.885 609.277,-953.054 608.541,-953.267 607.659,-953.432 606.789,-953.522 606.129,-953.529 606.265,-953.551 606.029,-953.53 606.129,-953.529 604.3,-953.227 597.58,-952.47 572.144,-948.72 556.096,-947.739 546.927,-948.555 542.377,-949.49 538.361,-950.722 534.76,-952.184 532.427,-953.376 532.425,-953.374 531.949,-953.709 534.159,-952.666 537.197,-952.214 541.236,-953.029 544.534,-955.253 546.758,-958.551 547.574,-962.59 547.241,-965.207 546.298,-967.579 544.829,-969.62 542.918,-971.248 542.917,-971.247 542.505,-971.52 " transform="matrix(1, 0, 0, 1, 0, 0)" fill="#ff0000" fill-opacity="0.50" stroke="#ff0000" stroke-width="1" stroke-opacity="0.10" fill-rule="winding" ub:uuid="c1d07ea3-a709-4470-89f4-fcebf46aebb3" ub:parent="52d1f758-db87-4f8e-82e6-ee36de47b171"/>
        <polygon points="628.384,-964.985 629.521,-963.733 630.803,-962.144 630.981,-961.971 631.163,-961.803 634.531,-959.285 634.405,-959.306 634.395,-959.313 634.405,-959.306 634.002,-959.376 634.41,-959.287 634.475,-959.26 634.405,-959.306 634.405,-959.306 635.147,-958.823 634.531,-959.285 635.665,-959.088 638.013,-958.938 638.408,-958.944 639.1,-958.955 656.971,-963.614 663.141,-965.925 666.186,-966.748 669.905,-967.35 672.993,-967.581 677.409,-967.579 677.409,-967.579 681.444,-966.761 684.739,-964.537 686.96,-961.24 687.774,-957.203 686.959,-953.164 684.735,-949.866 681.437,-947.642 677.398,-946.827 677.387,-946.827 677.387,-946.827 673.485,-946.834 672.509,-946.762 670.245,-946.396 669.995,-946.337 662.754,-943.684 644.03,-938.797 640.019,-938.254 637.232,-938.2 633.354,-938.465 629.898,-939.033 627.622,-939.676 625.828,-940.395 624.317,-941.172 622.821,-942.128 618.495,-945.366 616.732,-946.884 615.12,-948.553 613.695,-950.31 613.389,-950.637 613.723,-950.324 613.723,-950.324 616.909,-948.322 620.739,-947.592 624.778,-948.407 628.076,-950.631 630.3,-953.929 631.116,-957.968 630.881,-960.172 630.21,-962.214 628.019,-965.248 628.384,-964.985 628.384,-964.985 " transform="matrix(1, 0, 0, 1, 0, 0)" fill="#ff0000" fill-opacity="0.50" stroke="#ff0000" stroke-width="1" stroke-opacity="0.10" fill-rule="winding" ub:uuid="241d594a-dd7f-44fc-ac8c-a2e18f8f72ac" ub:parent="52d1f758-db87-4f8e-82e6-ee36de47b171"/>
        <polygon points="678.431,-967.528 679.629,-967.395 681.298,-967.062 682.901,-966.582 684.356,-966.003 685.627,-965.413 685.305,-965.542 685.112,-965.604 684.43,-965.752 683.863,-965.825 683.6,-965.847 683.599,-965.847 683.599,-965.847 683.6,-965.847 687.464,-964.901 690.603,-962.654 692.711,-959.413 693.481,-955.482 692.666,-951.443 690.442,-948.145 687.144,-945.921 683.105,-945.106 682.857,-945.109 682.611,-945.118 682.611,-945.118 681.984,-945.157 681.019,-945.282 679.904,-945.516 678.743,-945.855 677.314,-946.399 676.385,-946.829 677.387,-946.827 677.387,-946.827 677.398,-946.827 681.437,-947.642 684.735,-949.866 686.959,-953.164 687.774,-957.203 686.96,-961.24 684.739,-964.537 681.444,-966.761 677.412,-967.579 678.431,-967.529 678.431,-967.528 677.398,-967.579 677.398,-967.579 677.398,-967.579 677.398,-967.579 678.431,-967.528 " transform="matrix(1, 0, 0, 1, 0, 0)" fill="#ff0000" fill-opacity="0.50" stroke="#ff0000" stroke-width="1" stroke-opacity="0.10" fill-rule="winding" ub:uuid="aeba3f9d-941b-4ab5-b69c-61c1e4277fae" ub:parent="52d1f758-db87-4f8e-82e6-ee36de47b171"/>
    </g>
</svg>
