<?xml version="1.0" encoding="UTF-8"?>
<svg xmlns="http://www.w3.org/2000/svg" xmlns:xlink="http://www.w3.org/1999/xlink" xmlns:ub="http://uniboard.mnemis.com/document" xmlns:xhtml="http://www.w3.org/1999/xhtml" version="1.1" ub:version="4.8.0" ub:uuid="190d619b-8136-4167-a91d-ddbc916a629e" viewBox="-721 -919 1443 1838" ub:nominal-size="1343x1738" ub:dark-background="false" ub:crossed-background="true" ub:ruled-background="false" ub:grid-size="55" ub:intermediate-lines="0" pageDpi="158">
    <rect fill="white" x="-721" y="-919" width="1443" height="1838"/>
    <image xlink:href="images/{c2cefad1-cbb5-4243-83da-56069179f457}.png" x="0" y="0" width="1142" height="465" transform="matrix(1, 0, 0, 1, -482.826, -864.625)" ub:z-value="-999999.000000" ub:background="false" ub:uuid="c2cefad1-cbb5-4243-83da-56069179f457" ub:source="/Users/khale/AppData/Local/OpenBoard/document/OpenBoard Document 2023-04-03 11-06-58.954/images/{c2cefad1-cbb5-4243-83da-56069179f457}.png" ub:layer="-1000"/>
    <g ub:z-value="-999998" ub:fill-on-dark-background="#ffffff" ub:fill-on-light-background="#000000" ub:uuid="24327bf8-cbfb-40cc-b6fa-d4f43b67931f" ub:layer="-1000">
        <polygon points="579.901,-357.586 577.498,-358.17 576.902,-358.273 576.273,-358.351 575.646,-358.398 575.035,-358.414 574.456,-358.386 573.89,-358.301 573.316,-358.157 572.733,-357.953 572.132,-357.682 571.1,-357.147 569.573,-356.299 567.92,-355.32 566.329,-354.305 565.243,-353.556 563.862,-352.532 561.791,-350.979 560.798,-350.224 560.263,-349.749 559.791,-349.247 559.383,-348.723 559.02,-348.146 558.891,-347.902 558.778,-347.648 558.695,-347.405 558.637,-347.156 558.602,-346.9 558.59,-346.633 558.602,-346.351 558.64,-346.055 558.707,-345.741 558.79,-345.445 559.088,-344.685 559.429,-344.005 559.583,-343.75 559.753,-343.495 559.925,-343.27 560.097,-343.072 560.268,-342.901 560.438,-342.755 560.583,-342.647 561.047,-342.37 561.566,-342.125 562.143,-341.908 563.186,-341.616 565.23,-341.267 567.276,-341.124 568.844,-341.156 570.292,-341.318 571.245,-341.514 572.129,-341.777 572.948,-342.113 573.414,-342.354 573.909,-342.658 573.908,-342.658 574.228,-342.799 574.586,-342.85 575.504,-342.47 575.883,-341.553 575.264,-340.447 575.264,-340.447 574.686,-340.093 574.011,-339.747 572.989,-339.33 571.875,-338.997 570.675,-338.752 569.01,-338.568 567.197,-338.531 564.92,-338.691 562.657,-339.077 561.366,-339.433 560.559,-339.735 559.833,-340.078 559.19,-340.458 558.826,-340.722 558.503,-341 558.198,-341.304 557.912,-341.634 557.642,-341.988 557.389,-342.364 557.136,-342.792 556.717,-343.634 556.348,-344.569 556.19,-345.112 556.083,-345.619 556.018,-346.127 555.996,-346.633 556.018,-347.135 556.087,-347.631 556.201,-348.117 556.361,-348.591 556.559,-349.038 556.793,-349.477 557.26,-350.214 557.821,-350.935 558.456,-351.61 559.166,-352.241 560.23,-353.051 562.31,-354.611 563.73,-355.663 564.901,-356.47 566.562,-357.53 568.281,-358.548 569.867,-359.43 570.988,-360.01 571.77,-360.362 572.571,-360.642 573.381,-360.844 574.198,-360.967 575.003,-361.008 575.775,-360.989 576.531,-360.932 577.286,-360.838 578.074,-360.699 580.513,-360.107 580.513,-360.107 581.222,-359.654 581.504,-358.846 581.124,-357.929 580.207,-357.549 579.901,-357.586 579.901,-357.586 " transform="matrix(1, 0, 0, 1, 0, 0)" fill="#000000" fill-opacity="1.00" fill-rule="winding" ub:uuid="ff3723b7-fb81-4296-a85b-8c12b0eab900" ub:parent="24327bf8-cbfb-40cc-b6fa-d4f43b67931f"/>
    </g>
    <g ub:z-value="-999997" ub:fill-on-dark-background="#ffffff" ub:fill-on-light-background="#000000" ub:uuid="fa854cf1-89bf-418e-a106-6ae91a4976e5" ub:layer="-1000">
        <polygon points="569.022,-383.009 567.488,-381.462 567.35,-381.296 567.205,-381.103 567.086,-380.92 566.992,-380.748 566.919,-380.587 566.866,-380.437 566.831,-380.296 566.814,-380.205 566.728,-378.581 566.143,-373.827 565.975,-371.805 565.944,-370.942 565.94,-369.182 565.94,-366.794 565.978,-364.246 566.042,-363.288 566.214,-361.698 566.803,-351.608 566.804,-349.77 566.821,-343.745 566.869,-343.031 566.946,-342.332 567.129,-341.292 567.438,-339.87 567.629,-338.317 567.669,-334.215 567.669,-334.215 567.669,-334.203 567.289,-333.286 566.372,-332.906 565.459,-333.281 565.075,-334.19 565.075,-334.19 565.037,-338.216 564.882,-339.431 564.585,-340.784 564.38,-341.949 564.284,-342.806 564.228,-343.718 564.21,-349.764 564.212,-351.48 563.625,-361.529 563.459,-363.051 563.385,-364.169 563.346,-366.774 563.345,-369.185 563.35,-370.979 563.387,-371.984 563.565,-374.113 564.148,-378.853 564.226,-380.376 564.287,-380.804 564.382,-381.182 564.51,-381.551 564.671,-381.908 564.862,-382.255 565.08,-382.591 565.324,-382.917 565.627,-383.27 567.18,-384.836 567.18,-384.836 568.101,-385.219 569.018,-384.839 569.398,-383.922 569.022,-383.009 569.022,-383.009 " transform="matrix(1, 0, 0, 1, 0, 0)" fill="#000000" fill-opacity="1.00" fill-rule="winding" ub:uuid="b3e4bbdd-fe5b-4e13-8949-7deb2252714b" ub:parent="fa854cf1-89bf-418e-a106-6ae91a4976e5"/>
    </g>
    <g ub:z-value="-999995" ub:fill-on-dark-background="#ffffff" ub:fill-on-light-background="#000000" ub:uuid="95a85a71-28b8-472b-b37e-7411dc2e84f6" ub:layer="-1000">
        <polygon points="562.814,-391.522 556.96,-387.239 556.45,-386.799 555.511,-385.923 554.184,-384.6 552.699,-383.115 551.676,-382.059 551.22,-381.51 550.747,-380.88 550.003,-379.765 548.979,-378.066 547.428,-375.48 546.445,-373.778 546.027,-372.975 545.44,-371.726 544.925,-370.475 544.245,-368.675 543.392,-366.223 542.93,-364.683 542.67,-363.646 542.332,-361.98 541.973,-359.618 541.454,-356.247 541.064,-353.656 540.968,-352.696 540.88,-351.198 540.864,-349.157 540.864,-346.572 540.881,-344.016 540.928,-343.11 541.066,-341.748 541.192,-340.93 541.453,-339.681 541.66,-338.887 542.048,-337.636 542.338,-336.83 542.838,-335.587 543.514,-334.03 544.19,-332.612 545.223,-330.547 547.814,-325.377 548.324,-324.529 548.849,-323.805 553.462,-319.115 553.462,-319.115 553.834,-318.206 553.454,-317.289 552.537,-316.909 551.612,-317.296 551.612,-317.296 546.963,-322.024 546.166,-323.09 545.509,-324.186 542.903,-329.385 541.861,-331.47 541.153,-332.957 540.446,-334.582 539.917,-335.898 539.584,-336.823 539.168,-338.165 538.925,-339.101 538.642,-340.454 538.491,-341.435 538.343,-342.9 538.287,-343.966 538.269,-346.563 538.269,-349.167 538.287,-351.276 538.381,-352.89 538.493,-354.006 538.89,-356.638 539.409,-360.011 539.776,-362.423 540.138,-364.207 540.432,-365.383 540.929,-367.034 541.805,-369.554 542.509,-371.421 543.066,-372.772 543.698,-374.117 544.18,-375.043 545.194,-376.8 546.756,-379.402 547.807,-381.145 548.62,-382.364 549.184,-383.118 549.766,-383.814 550.853,-384.937 552.351,-386.436 553.705,-387.785 554.711,-388.724 555.412,-389.321 561.283,-393.616 561.283,-393.616 562.048,-393.866 562.966,-393.486 563.345,-392.569 562.814,-391.522 562.814,-391.522 " transform="matrix(1, 0, 0, 1, 0, 0)" fill="#000000" fill-opacity="1.00" fill-rule="winding" ub:uuid="88b3b937-fb68-4b7d-a028-0a3f39176ef3" ub:parent="95a85a71-28b8-472b-b37e-7411dc2e84f6"/>
    </g>
    <g ub:z-value="-999993" ub:fill-on-dark-background="#66c0ff" ub:fill-on-light-background="#004080" ub:uuid="8565bc6a-18cb-42ad-8805-a2d87ca87c8f" ub:layer="-1000">
        <polygon points="558.529,-312.153 555.42,-312.172 553.82,-312.279 552.62,-312.446 551.602,-312.655 550.748,-312.889 549.806,-313.217 548.578,-313.775 546.939,-314.819 545.299,-316.354 544.02,-318.139 543.166,-319.969 542.686,-321.683 542.481,-323.208 542.456,-324.537 542.543,-325.696 542.751,-326.971 543.046,-328.186 543.399,-329.368 543.716,-330.281 543.714,-330.283 545.206,-333.075 547.445,-335.273 550.268,-336.713 553.51,-337.229 557.549,-336.414 560.847,-334.19 563.07,-330.892 563.886,-326.853 563.306,-323.423 563.303,-323.425 563.136,-322.954 563.074,-322.752 563.04,-322.61 563.153,-323.271 563.197,-323.868 563.181,-324.687 563.036,-325.753 562.669,-327.061 561.979,-328.537 560.916,-330.019 559.545,-331.304 558.225,-332.149 557.369,-332.542 556.851,-332.723 556.472,-332.828 555.982,-332.924 555.992,-332.918 555.81,-332.921 558.65,-332.905 558.65,-332.905 562.668,-332.073 565.947,-329.847 568.156,-326.555 568.966,-322.529 568.151,-318.49 565.927,-315.192 562.629,-312.968 558.59,-312.153 558.529,-312.153 558.529,-312.153 " transform="matrix(1, 0, 0, 1, 0, 0)" fill="#004080" fill-opacity="0.50" stroke="#004080" stroke-width="1" stroke-opacity="0.10" fill-rule="winding" ub:uuid="83953e4a-3299-4364-b0a6-ff0da9764391" ub:parent="8565bc6a-18cb-42ad-8805-a2d87ca87c8f"/>
        <polygon points="543.875,-330.706 544.28,-331.704 544.939,-333.129 545.586,-334.361 546.391,-335.731 547.138,-336.882 548.014,-338.113 549.588,-340.28 550.317,-341.338 551.092,-342.322 551.712,-343.004 552.359,-343.639 553.237,-344.397 554.41,-345.266 555.866,-346.155 557.212,-346.844 558.985,-347.731 560.633,-348.541 562.252,-349.193 563.39,-349.546 563.385,-349.547 566.372,-349.983 570.411,-349.168 573.709,-346.944 575.933,-343.646 576.748,-339.607 576.195,-336.254 574.656,-333.357 572.316,-331.1 569.358,-329.667 569.353,-329.668 569.183,-329.625 569.344,-329.705 569.108,-329.606 569.183,-329.625 568.225,-329.149 566.87,-328.471 566.761,-328.633 567.226,-329.307 566.848,-328.816 566.728,-328.683 565.947,-329.847 562.668,-332.073 562.21,-332.168 560.847,-334.19 557.549,-336.414 553.51,-337.229 550.268,-336.713 547.445,-335.273 545.206,-333.075 543.835,-330.511 543.873,-330.709 543.875,-330.706 563.249,-323.273 563.144,-322.999 563.146,-322.997 563.09,-322.902 563.153,-323.271 563.197,-323.868 563.181,-324.687 563.036,-325.753 562.669,-327.061 561.979,-328.537 560.916,-330.019 559.545,-331.304 558.225,-332.149 557.369,-332.542 556.851,-332.723 556.472,-332.828 556.003,-332.92 558.65,-332.905 558.65,-332.905 562.21,-332.168 563.07,-330.892 563.886,-326.853 563.306,-323.423 563.303,-323.425 563.249,-323.273 543.875,-330.706 556.003,-332.92 555.982,-332.924 555.989,-332.92 556.003,-332.92 543.875,-330.706 555.989,-332.92 555.992,-332.918 555.81,-332.921 555.989,-332.92 543.875,-330.706 " transform="matrix(1, 0, 0, 1, 0, 0)" fill="#004080" fill-opacity="0.50" stroke="#004080" stroke-width="1" stroke-opacity="0.10" fill-rule="winding" ub:uuid="07d65f1c-f615-46d4-88d9-f5695f4aeff8" ub:parent="8565bc6a-18cb-42ad-8805-a2d87ca87c8f"/>
        <polygon points="564.337,-349.782 565.524,-350.007 567.236,-350.178 568.707,-350.187 569.862,-350.108 570.761,-349.988 571.667,-349.814 572.573,-349.584 573.474,-349.297 574.363,-348.952 575.232,-348.551 576.074,-348.096 576.867,-347.603 577.604,-347.082 578.314,-346.516 579.007,-345.892 579.676,-345.209 580.311,-344.468 580.904,-343.671 581.253,-343.139 581.254,-343.14 582.465,-340.506 582.896,-337.536 582.081,-333.497 579.857,-330.199 576.559,-327.975 572.52,-327.16 569.868,-327.502 567.47,-328.469 567.225,-328.649 568.225,-329.149 569.183,-329.625 569.353,-329.668 569.358,-329.667 572.316,-331.1 574.656,-333.357 576.195,-336.254 576.748,-339.607 575.933,-343.646 573.709,-346.944 570.411,-349.168 566.372,-349.983 563.928,-349.626 564.332,-349.783 564.337,-349.782 566.924,-328.869 566.902,-328.885 567.226,-329.307 566.924,-328.869 564.337,-349.782 569.183,-329.625 569.344,-329.705 569.108,-329.606 569.183,-329.625 564.337,-349.782 " transform="matrix(1, 0, 0, 1, 0, 0)" fill="#004080" fill-opacity="0.50" stroke="#004080" stroke-width="1" stroke-opacity="0.10" fill-rule="winding" ub:uuid="c4790644-4422-439b-b433-6969c529d3fe" ub:parent="8565bc6a-18cb-42ad-8805-a2d87ca87c8f"/>
        <polygon points="581.629,-342.505 581.93,-341.939 582.484,-340.677 582.861,-339.597 583.405,-337.964 583.752,-336.876 584.059,-335.579 584.204,-334.634 584.288,-333.705 584.314,-332.798 584.271,-331.641 584.109,-330.232 583.834,-328.852 583.544,-327.783 583.251,-326.915 582.908,-326.059 582.518,-325.221 582.082,-324.407 581.603,-323.62 581.247,-323.094 581.248,-323.093 579.621,-321.242 577.6,-319.822 575.264,-318.912 572.693,-318.591 568.654,-319.406 568.374,-319.595 568.966,-322.529 568.156,-326.555 566.87,-328.471 567.225,-328.649 567.47,-328.469 569.868,-327.502 572.52,-327.16 576.559,-327.975 579.857,-330.199 582.081,-333.497 582.896,-337.536 582.465,-340.506 581.402,-342.819 581.63,-342.507 581.629,-342.505 566.761,-328.633 566.728,-328.683 566.848,-328.816 566.902,-328.885 566.924,-328.869 566.761,-328.633 581.629,-342.505 " transform="matrix(1, 0, 0, 1, 0, 0)" fill="#004080" fill-opacity="0.50" stroke="#004080" stroke-width="1" stroke-opacity="0.10" fill-rule="winding" ub:uuid="c5e05872-c5d2-400e-8ea0-1c7c10b949b7" ub:parent="8565bc6a-18cb-42ad-8805-a2d87ca87c8f"/>
        <polygon points="580.917,-322.64 580.355,-321.933 579.453,-320.938 578.485,-319.999 577.416,-319.055 576.49,-318.311 575.536,-317.615 574.368,-316.847 573.141,-316.114 571.872,-315.418 570.534,-314.744 569.393,-314.229 568.286,-313.786 567.158,-313.392 565.962,-313.034 564.565,-312.685 562.441,-312.208 560.354,-311.794 558.552,-311.572 557.275,-311.513 557.277,-311.513 556.86,-311.505 552.821,-312.32 552.639,-312.443 553.82,-312.279 555.42,-312.172 558.529,-312.153 558.529,-312.153 558.59,-312.153 562.629,-312.968 565.927,-315.192 568.151,-318.49 568.374,-319.595 568.654,-319.406 572.693,-318.591 575.264,-318.912 577.6,-319.822 579.621,-321.242 581.027,-322.842 580.918,-322.64 580.917,-322.64 563.249,-323.273 563.136,-322.954 563.074,-322.752 563.04,-322.61 563.09,-322.902 563.146,-322.997 563.144,-322.999 563.249,-323.273 580.917,-322.64 " transform="matrix(1, 0, 0, 1, 0, 0)" fill="#004080" fill-opacity="0.50" stroke="#004080" stroke-width="1" stroke-opacity="0.10" fill-rule="winding" ub:uuid="df2d9cef-21a3-4d78-b2a0-da8264377b91" ub:parent="8565bc6a-18cb-42ad-8805-a2d87ca87c8f"/>
        <polygon points="556.446,-311.513 555.168,-311.572 553.438,-311.782 551.74,-312.111 549.961,-312.498 548.331,-312.885 547.414,-313.139 546.546,-313.433 545.69,-313.775 544.853,-314.165 544.038,-314.601 543.251,-315.08 542.495,-315.599 541.564,-316.329 540.444,-317.354 539.419,-318.474 538.689,-319.405 538.17,-320.161 537.691,-320.948 537.388,-321.507 537.386,-321.505 536.479,-323.837 536.16,-326.403 536.975,-330.442 539.199,-333.74 542.497,-335.964 546.536,-336.779 547.027,-336.711 546.391,-335.731 545.586,-334.361 544.939,-333.129 544.28,-331.704 543.875,-330.706 543.873,-330.709 543.835,-330.511 543.714,-330.283 543.716,-330.281 543.399,-329.368 543.046,-328.186 542.751,-326.971 542.543,-325.696 542.456,-324.537 542.481,-323.208 542.686,-321.683 543.166,-319.969 544.02,-318.139 545.299,-316.354 546.939,-314.819 548.578,-313.775 549.806,-313.217 550.748,-312.889 551.602,-312.655 552.62,-312.446 552.639,-312.443 552.821,-312.32 556.86,-311.505 556.445,-311.513 556.446,-311.513 " transform="matrix(1, 0, 0, 1, 0, 0)" fill="#004080" fill-opacity="0.50" stroke="#004080" stroke-width="1" stroke-opacity="0.10" fill-rule="winding" ub:uuid="c0310a46-fec4-4ed5-962c-65cbff5e3c99" ub:parent="8565bc6a-18cb-42ad-8805-a2d87ca87c8f"/>
        <polygon points="537.13,-322.022 536.865,-322.6 536.523,-323.456 536.229,-324.324 535.974,-325.246 535.757,-326.275 535.606,-327.377 535.536,-328.496 535.55,-329.619 535.647,-330.734 535.825,-331.828 536.077,-332.89 536.396,-333.912 536.906,-335.186 537.534,-336.477 538.614,-338.639 539.496,-340.333 540.35,-341.753 541.441,-343.35 542.558,-344.82 542.557,-344.82 546.132,-347.792 548.366,-348.613 550.807,-348.902 554.846,-348.087 556.915,-346.692 555.866,-346.155 554.41,-345.266 553.237,-344.397 552.359,-343.639 551.712,-343.004 551.092,-342.322 550.317,-341.338 549.588,-340.28 548.014,-338.113 547.138,-336.882 547.027,-336.711 546.536,-336.779 542.497,-335.964 539.199,-333.74 536.975,-330.442 536.16,-326.403 536.479,-323.837 537.272,-321.799 537.128,-322.019 537.13,-322.022 " transform="matrix(1, 0, 0, 1, 0, 0)" fill="#004080" fill-opacity="0.50" stroke="#004080" stroke-width="1" stroke-opacity="0.10" fill-rule="winding" ub:uuid="35d6aa7f-f310-44b1-b488-ea34323d3d44" ub:parent="8565bc6a-18cb-42ad-8805-a2d87ca87c8f"/>
        <polygon points="542.78,-345.101 543.865,-346.423 544.994,-347.728 546.12,-348.939 547.272,-350.072 548.486,-351.16 549.77,-352.215 551.187,-353.282 552.559,-354.177 553.949,-354.941 555.428,-355.605 556.943,-356.137 558.233,-356.481 559.929,-356.875 562.196,-357.352 563.698,-357.6 565.308,-357.745 566.759,-357.753 567.959,-357.667 568.583,-357.583 568.584,-357.584 572.101,-356.413 574.927,-354.141 576.808,-351.023 577.492,-347.311 577.465,-347.18 576.867,-347.603 576.074,-348.096 575.232,-348.551 574.363,-348.952 573.474,-349.297 572.573,-349.584 571.667,-349.814 570.761,-349.988 569.862,-350.108 568.707,-350.187 567.236,-350.178 565.524,-350.007 564.337,-349.782 564.332,-349.783 563.928,-349.626 563.385,-349.547 563.39,-349.546 562.252,-349.193 560.633,-348.541 558.985,-347.731 557.212,-346.844 556.915,-346.692 554.846,-348.087 550.807,-348.902 548.366,-348.613 546.132,-347.792 542.676,-344.919 542.78,-345.102 542.78,-345.101 " transform="matrix(1, 0, 0, 1, 0, 0)" fill="#004080" fill-opacity="0.50" stroke="#004080" stroke-width="1" stroke-opacity="0.10" fill-rule="winding" ub:uuid="28573a37-2552-4269-ad40-3baf9b0aee69" ub:parent="8565bc6a-18cb-42ad-8805-a2d87ca87c8f"/>
        <polygon points="569.269,-357.462 569.917,-357.317 571.074,-356.975 572.173,-356.56 573.389,-356.017 574.877,-355.253 576.466,-354.341 577.945,-353.416 578.996,-352.698 579.966,-351.969 580.812,-351.258 581.579,-350.53 582.322,-349.704 583.014,-348.79 583.586,-347.894 584.058,-347.023 584.554,-345.924 585.044,-344.572 585.463,-343.044 585.704,-341.867 585.705,-341.872 585.905,-339.832 585.09,-335.793 584.216,-334.498 584.204,-334.634 584.059,-335.579 583.752,-336.876 583.405,-337.964 582.861,-339.597 582.484,-340.677 581.93,-341.939 581.629,-342.505 581.63,-342.507 581.402,-342.819 581.254,-343.14 581.253,-343.139 580.904,-343.671 580.311,-344.468 579.676,-345.209 579.007,-345.892 578.314,-346.516 577.604,-347.082 577.465,-347.18 577.492,-347.311 576.808,-351.023 574.927,-354.141 572.101,-356.413 568.801,-357.512 569.271,-357.464 569.269,-357.462 " transform="matrix(1, 0, 0, 1, 0, 0)" fill="#004080" fill-opacity="0.50" stroke="#004080" stroke-width="1" stroke-opacity="0.10" fill-rule="winding" ub:uuid="70442aa2-8e03-4acf-b8c3-ab76ec13fa24" ub:parent="8565bc6a-18cb-42ad-8805-a2d87ca87c8f"/>
        <polygon points="585.818,-341.174 585.966,-339.976 586.041,-338.563 586.021,-337.427 585.946,-336.507 585.808,-335.547 585.595,-334.548 585.23,-333.327 584.75,-332.102 584.191,-330.946 584.271,-331.641 584.314,-332.798 584.288,-333.705 584.216,-334.498 585.09,-335.793 585.905,-339.832 585.753,-341.384 585.819,-341.178 585.818,-341.174 " transform="matrix(1, 0, 0, 1, 0, 0)" fill="#004080" fill-opacity="0.50" stroke="#004080" stroke-width="1" stroke-opacity="0.10" fill-rule="winding" ub:uuid="6a3246df-9c30-45e9-b325-fe6f9f75a3d8" ub:parent="8565bc6a-18cb-42ad-8805-a2d87ca87c8f"/>
        <polygon points="535.81,-326.025 535.805,-326.031 535.222,-326.856 534.551,-327.944 533.783,-329.437 533.104,-331.105 532.592,-332.702 532.202,-334.329 531.936,-335.993 531.802,-337.653 531.79,-339.14 531.849,-340.548 532.002,-342.255 532.161,-343.424 532.16,-343.425 533.325,-346.952 535.597,-349.787 538.719,-351.675 542.437,-352.361 546.476,-351.546 547.869,-350.607 547.272,-350.072 546.12,-348.939 544.994,-347.728 543.865,-346.423 542.78,-345.101 542.78,-345.102 542.676,-344.919 542.557,-344.82 542.558,-344.82 541.441,-343.35 540.35,-341.753 539.496,-340.333 538.614,-338.639 537.534,-336.477 536.906,-335.186 536.396,-333.912 536.077,-332.89 535.825,-331.828 535.647,-330.734 535.55,-329.619 535.536,-328.496 535.606,-327.377 535.757,-326.275 535.81,-326.025 " transform="matrix(1, 0, 0, 1, 0, 0)" fill="#004080" fill-opacity="0.50" stroke="#004080" stroke-width="1" stroke-opacity="0.10" fill-rule="winding" ub:uuid="a1ed8c5f-ccd2-45ec-8a08-10818ea35685" ub:parent="8565bc6a-18cb-42ad-8805-a2d87ca87c8f"/>
        <polygon points="532.225,-343.823 532.438,-344.982 532.808,-346.512 533.314,-348.094 533.925,-349.623 534.632,-351.095 535.409,-352.485 536.225,-353.776 537.085,-355.001 538.004,-356.182 538.98,-357.317 540.021,-358.41 541.358,-359.699 542.771,-360.969 544.289,-362.247 545.946,-363.531 547.376,-364.508 548.764,-365.34 550.208,-366.091 551.384,-366.614 551.381,-366.616 553.394,-367.266 555.563,-367.493 559.602,-366.678 562.9,-364.454 565.124,-361.156 565.812,-357.748 565.308,-357.745 563.698,-357.6 562.196,-357.352 559.929,-356.875 558.233,-356.481 556.943,-356.137 555.428,-355.605 553.949,-354.941 552.559,-354.177 551.187,-353.282 549.77,-352.215 548.486,-351.16 547.869,-350.607 546.476,-351.546 542.437,-352.361 538.719,-351.675 535.597,-349.787 533.325,-346.952 532.199,-343.541 532.224,-343.825 532.225,-343.823 " transform="matrix(1, 0, 0, 1, 0, 0)" fill="#004080" fill-opacity="0.50" stroke="#004080" stroke-width="1" stroke-opacity="0.10" fill-rule="winding" ub:uuid="afff8a6f-58db-425f-be74-9c78bc778694" ub:parent="8565bc6a-18cb-42ad-8805-a2d87ca87c8f"/>
        <polygon points="551.71,-366.751 553.439,-367.443 556.117,-368.513 557.756,-369.12 559.158,-369.569 560.829,-370.02 562.273,-370.337 563.839,-370.584 565.525,-370.719 567.219,-370.719 568.905,-370.584 570.445,-370.342 571.973,-370.028 573.709,-369.642 575.417,-369.221 576.67,-368.849 577.797,-368.454 579.005,-367.968 580.394,-367.326 581.185,-366.909 581.187,-366.911 583.39,-365.297 585.098,-363.168 586.201,-360.634 586.593,-357.8 585.777,-353.761 583.554,-350.463 582.358,-349.657 582.322,-349.704 581.579,-350.53 580.812,-351.258 579.966,-351.969 578.996,-352.698 577.945,-353.416 576.466,-354.341 574.877,-355.253 573.389,-356.017 572.173,-356.56 571.074,-356.975 569.917,-357.317 569.269,-357.462 569.271,-357.464 568.801,-357.512 568.584,-357.584 568.583,-357.583 567.959,-357.667 566.759,-357.753 565.812,-357.748 565.124,-361.156 562.9,-364.454 559.602,-366.678 555.563,-367.493 553.394,-367.266 551.584,-366.682 551.706,-366.753 551.71,-366.751 " transform="matrix(1, 0, 0, 1, 0, 0)" fill="#004080" fill-opacity="0.50" stroke="#004080" stroke-width="1" stroke-opacity="0.10" fill-rule="winding" ub:uuid="3ff52293-544b-408c-9ece-c60875f90eea" ub:parent="8565bc6a-18cb-42ad-8805-a2d87ca87c8f"/>
        <polygon points="581.858,-366.508 582.507,-366.078 583.472,-365.335 584.397,-364.489 585.26,-363.543 586.042,-362.511 586.727,-361.409 587.302,-360.259 587.763,-359.083 588.104,-357.934 588.34,-356.83 588.491,-355.728 588.561,-354.609 588.547,-353.486 588.449,-352.371 588.272,-351.277 588.02,-350.215 587.701,-349.193 587.229,-348.002 586.779,-347.065 586.78,-347.063 585.189,-344.687 585.046,-344.565 585.044,-344.572 584.554,-345.924 584.058,-347.023 583.586,-347.894 583.014,-348.79 582.358,-349.657 583.554,-350.463 585.777,-353.761 586.593,-357.8 586.201,-360.634 585.098,-363.168 583.39,-365.297 581.52,-366.667 581.859,-366.509 581.858,-366.508 " transform="matrix(1, 0, 0, 1, 0, 0)" fill="#004080" fill-opacity="0.50" stroke="#004080" stroke-width="1" stroke-opacity="0.10" fill-rule="winding" ub:uuid="16b2754a-54e0-454b-ba77-77e7acf55ec7" ub:parent="8565bc6a-18cb-42ad-8805-a2d87ca87c8f"/>
        <polygon points="586.595,-346.704 585.992,-345.575 585.276,-344.341 585.158,-344.155 585.046,-344.565 585.189,-344.687 586.676,-346.907 586.597,-346.703 586.595,-346.704 " transform="matrix(1, 0, 0, 1, 0, 0)" fill="#004080" fill-opacity="0.50" stroke="#004080" stroke-width="1" stroke-opacity="0.10" fill-rule="winding" ub:uuid="f270a3da-4ddc-4407-81dc-328fefd2c9db" ub:parent="8565bc6a-18cb-42ad-8805-a2d87ca87c8f"/>
        <polygon points="537.899,-356.048 538.416,-358.117 538.773,-359.465 539.236,-360.798 539.649,-361.742 539.965,-362.368 539.963,-362.37 541.567,-364.665 543.717,-366.447 546.3,-367.602 549.199,-368.012 552.963,-367.252 551.71,-366.751 551.706,-366.753 551.584,-366.682 551.381,-366.616 551.384,-366.614 550.208,-366.091 548.764,-365.34 547.376,-364.508 545.946,-363.531 544.289,-362.247 542.771,-360.969 541.358,-359.699 540.021,-358.41 538.98,-357.317 538.004,-356.182 537.899,-356.048 " transform="matrix(1, 0, 0, 1, 0, 0)" fill="#004080" fill-opacity="0.50" stroke="#004080" stroke-width="1" stroke-opacity="0.10" fill-rule="winding" ub:uuid="4c775f17-937b-44c0-9a1c-4b630b6997c1" ub:parent="8565bc6a-18cb-42ad-8805-a2d87ca87c8f"/>
        <polygon points="540.253,-362.892 540.752,-363.712 541.685,-365.03 542.833,-366.384 543.939,-367.511 545.25,-368.738 546.625,-369.924 548.014,-371.019 549.22,-371.873 550.44,-372.639 551.697,-373.338 552.987,-373.969 554.3,-374.532 555.886,-375.137 557.45,-375.669 558.975,-376.118 560.372,-376.468 562.075,-376.854 563.972,-377.249 565.115,-377.44 565.11,-377.441 566.787,-377.575 570.826,-376.76 574.124,-374.536 576.348,-371.238 576.842,-368.788 576.67,-368.849 575.417,-369.221 573.709,-369.642 571.973,-370.028 570.445,-370.342 568.905,-370.584 567.219,-370.719 565.525,-370.719 563.839,-370.584 562.273,-370.337 560.829,-370.02 559.158,-369.569 557.756,-369.12 556.117,-368.513 553.439,-367.443 552.963,-367.252 549.199,-368.012 546.3,-367.602 543.717,-366.447 541.567,-364.665 540.132,-362.611 540.251,-362.893 540.253,-362.892 " transform="matrix(1, 0, 0, 1, 0, 0)" fill="#004080" fill-opacity="0.50" stroke="#004080" stroke-width="1" stroke-opacity="0.10" fill-rule="winding" ub:uuid="a44bec78-f23a-45fd-a63a-0d8253030d19" ub:parent="8565bc6a-18cb-42ad-8805-a2d87ca87c8f"/>
        <polygon points="565.907,-377.538 567.149,-377.635 568.849,-377.634 570.589,-377.471 572.2,-377.163 573.504,-376.809 574.642,-376.44 575.76,-376.021 576.856,-375.555 578.024,-374.997 579.357,-374.255 580.554,-373.455 581.445,-372.762 582.114,-372.174 582.761,-371.539 583.381,-370.856 583.969,-370.128 584.539,-369.325 585.091,-368.421 585.419,-367.801 585.42,-367.803 586.271,-365.534 586.571,-363.049 586.359,-362.001 586.042,-362.511 585.26,-363.543 584.397,-364.489 583.472,-365.335 582.507,-366.078 581.858,-366.508 581.859,-366.509 581.52,-366.667 581.187,-366.911 581.185,-366.909 580.394,-367.326 579.005,-367.968 577.797,-368.454 576.842,-368.788 576.348,-371.238 574.124,-374.536 570.826,-376.76 566.787,-377.575 565.733,-377.491 565.904,-377.538 565.907,-377.538 " transform="matrix(1, 0, 0, 1, 0, 0)" fill="#004080" fill-opacity="0.50" stroke="#004080" stroke-width="1" stroke-opacity="0.10" fill-rule="winding" ub:uuid="02b89d84-ce60-4441-8288-5962285a8816" ub:parent="8565bc6a-18cb-42ad-8805-a2d87ca87c8f"/>
        <polygon points="585.732,-367.136 585.995,-366.507 586.332,-365.551 586.598,-364.606 586.851,-363.402 587.051,-361.872 587.103,-360.658 586.727,-361.409 586.359,-362.001 586.571,-363.049 586.271,-365.534 585.568,-367.41 585.733,-367.14 585.732,-367.136 " transform="matrix(1, 0, 0, 1, 0, 0)" fill="#004080" fill-opacity="0.50" stroke="#004080" stroke-width="1" stroke-opacity="0.10" fill-rule="winding" ub:uuid="167764d6-339c-4531-9062-b78afca0d76a" ub:parent="8565bc6a-18cb-42ad-8805-a2d87ca87c8f"/>
        <polygon points="532.349,-344.497 531.636,-345.28 530.907,-346.211 530.388,-346.966 529.909,-347.753 529.473,-348.568 529.083,-349.406 528.74,-350.261 528.372,-351.387 528.018,-352.828 527.763,-354.528 527.69,-355.734 527.69,-355.732 527.68,-355.992 527.677,-356.252 528.492,-360.291 530.716,-363.589 534.014,-365.813 538.053,-366.629 541.979,-365.86 542.243,-365.689 541.685,-365.03 540.752,-363.712 540.253,-362.892 540.251,-362.893 540.132,-362.611 539.963,-362.37 539.965,-362.368 539.649,-361.742 539.236,-360.798 538.773,-359.465 538.416,-358.117 537.899,-356.048 537.085,-355.001 536.225,-353.776 535.409,-352.485 534.632,-351.095 533.925,-349.623 533.314,-348.094 532.808,-346.512 532.438,-344.982 532.349,-344.497 " transform="matrix(1, 0, 0, 1, 0, 0)" fill="#004080" fill-opacity="0.50" stroke="#004080" stroke-width="1" stroke-opacity="0.10" fill-rule="winding" ub:uuid="e2cf23b7-1ba8-455d-989f-9bc7843efc47" ub:parent="8565bc6a-18cb-42ad-8805-a2d87ca87c8f"/>
        <polygon points="527.69,-356.77 527.763,-357.976 528.011,-359.64 528.347,-361.05 528.7,-362.226 529.094,-363.354 529.58,-364.562 530.295,-366.1 531.174,-367.656 532.206,-369.125 533.359,-370.472 534.61,-371.686 535.834,-372.691 536.974,-373.519 538.312,-374.405 539.495,-375.115 540.887,-375.863 542.053,-376.419 543.149,-376.885 544.051,-377.226 544.047,-377.228 547.695,-377.887 551.734,-377.071 555.032,-374.848 555.051,-374.818 554.3,-374.532 552.987,-373.969 551.697,-373.338 550.44,-372.639 549.22,-371.873 548.014,-371.019 546.625,-369.924 545.25,-368.738 543.939,-367.511 542.833,-366.384 542.243,-365.689 541.979,-365.86 538.053,-366.629 534.014,-365.813 530.716,-363.589 528.492,-360.291 527.677,-356.252 527.68,-356.513 527.69,-356.771 527.69,-356.77 " transform="matrix(1, 0, 0, 1, 0, 0)" fill="#004080" fill-opacity="0.50" stroke="#004080" stroke-width="1" stroke-opacity="0.10" fill-rule="winding" ub:uuid="916747a4-848d-4821-8eeb-93a8087668dd" ub:parent="8565bc6a-18cb-42ad-8805-a2d87ca87c8f"/>
        <polygon points="544.487,-377.379 545.503,-377.703 546.948,-378.088 548.688,-378.492 550.966,-378.971 552.53,-379.225 554.179,-379.364 555.879,-379.363 557.619,-379.201 559.319,-378.871 560.851,-378.427 562.242,-377.91 563.568,-377.321 563.785,-377.21 562.075,-376.854 560.372,-376.468 558.975,-376.118 557.45,-375.669 555.886,-375.137 555.051,-374.818 555.032,-374.848 551.734,-377.071 547.695,-377.887 544.258,-377.266 544.483,-377.38 544.487,-377.379 " transform="matrix(1, 0, 0, 1, 0, 0)" fill="#004080" fill-opacity="0.50" stroke="#004080" stroke-width="1" stroke-opacity="0.10" fill-rule="winding" ub:uuid="2f83974a-e609-4383-9cb3-01f6a27e98b9" ub:parent="8565bc6a-18cb-42ad-8805-a2d87ca87c8f"/>
        <polygon points="533.385,-370.496 533.716,-371.212 534.409,-372.502 535.153,-373.699 535.976,-374.851 536.877,-375.952 537.862,-377.004 539.032,-378.121 540.34,-379.278 542.142,-380.767 543.842,-382.098 543.841,-382.098 546.795,-383.718 550.237,-384.303 554.276,-383.487 557.574,-381.264 559.167,-378.9 557.619,-379.201 555.879,-379.363 554.179,-379.364 552.53,-379.225 550.966,-378.971 548.688,-378.492 546.948,-378.088 545.503,-377.703 544.487,-377.379 544.483,-377.38 544.258,-377.266 544.047,-377.228 544.051,-377.226 543.149,-376.885 542.053,-376.419 540.887,-375.863 539.495,-375.115 538.312,-374.405 536.974,-373.519 535.834,-372.691 534.61,-371.686 533.385,-370.496 " transform="matrix(1, 0, 0, 1, 0, 0)" fill="#004080" fill-opacity="0.50" stroke="#004080" stroke-width="1" stroke-opacity="0.10" fill-rule="winding" ub:uuid="ee62ed13-de58-43b1-92ff-487e51ef323b" ub:parent="8565bc6a-18cb-42ad-8805-a2d87ca87c8f"/>
        <polygon points="544.082,-382.28 545.476,-383.307 546.359,-383.916 547.199,-384.436 548.287,-385.007 549.656,-385.595 551.223,-386.119 552.759,-386.511 554.29,-386.808 556.14,-387.083 557.848,-387.268 559.209,-387.357 560.601,-387.381 562.433,-387.381 564.381,-387.365 566.071,-387.202 567.229,-386.97 568.373,-386.641 569.487,-386.218 570.174,-385.899 570.176,-385.9 572.57,-384.312 574.433,-382.139 575.643,-379.506 576.074,-376.538 575.953,-375.938 575.76,-376.021 574.642,-376.44 573.504,-376.809 572.2,-377.163 570.589,-377.471 568.849,-377.634 567.149,-377.635 565.907,-377.538 565.904,-377.538 565.733,-377.491 565.11,-377.441 565.115,-377.44 563.972,-377.249 563.785,-377.21 563.568,-377.321 562.242,-377.91 560.851,-378.427 559.319,-378.871 559.167,-378.9 557.574,-381.264 554.276,-383.487 550.237,-384.303 546.795,-383.718 543.948,-382.157 544.081,-382.28 544.082,-382.28 " transform="matrix(1, 0, 0, 1, 0, 0)" fill="#004080" fill-opacity="0.50" stroke="#004080" stroke-width="1" stroke-opacity="0.10" fill-rule="winding" ub:uuid="24d7385d-fae7-4759-b8ec-1ea6cc98cb01" ub:parent="8565bc6a-18cb-42ad-8805-a2d87ca87c8f"/>
        <polygon points="570.917,-385.506 571.558,-385.123 572.494,-384.476 573.58,-383.577 574.608,-382.563 575.574,-381.461 576.437,-380.334 577.221,-379.158 577.937,-377.92 578.642,-376.478 579.273,-374.817 579.443,-374.198 579.357,-374.255 578.024,-374.997 576.856,-375.555 575.953,-375.938 576.074,-376.538 575.643,-379.506 574.433,-382.139 572.57,-384.312 570.511,-385.678 570.919,-385.507 570.917,-385.506 " transform="matrix(1, 0, 0, 1, 0, 0)" fill="#004080" fill-opacity="0.50" stroke="#004080" stroke-width="1" stroke-opacity="0.10" fill-rule="winding" ub:uuid="bb270ff2-443c-4898-bf88-67a9e3c0e0f3" ub:parent="8565bc6a-18cb-42ad-8805-a2d87ca87c8f"/>
        <polygon points="548.077,-384.897 548.763,-386.259 550.113,-388.43 553.96,-393.56 555.684,-395.475 557.286,-396.945 558.913,-398.205 560.342,-399.141 561.371,-399.716 561.369,-399.717 563.747,-400.665 566.372,-401 570.411,-400.185 573.709,-397.961 575.933,-394.663 576.748,-390.624 576.359,-387.799 575.263,-385.27 573.765,-383.395 573.58,-383.577 572.494,-384.476 571.558,-385.123 570.917,-385.506 570.919,-385.507 570.511,-385.678 570.176,-385.9 570.174,-385.899 569.487,-386.218 568.373,-386.641 567.229,-386.97 566.071,-387.202 564.381,-387.365 562.433,-387.381 560.601,-387.381 559.209,-387.357 557.848,-387.268 556.14,-387.083 554.29,-386.808 552.759,-386.511 551.223,-386.119 549.656,-385.595 548.287,-385.007 548.077,-384.897 " transform="matrix(1, 0, 0, 1, 0, 0)" fill="#004080" fill-opacity="0.50" stroke="#004080" stroke-width="1" stroke-opacity="0.10" fill-rule="winding" ub:uuid="edc29b39-f6ae-4eb1-998b-795af8d8bc79" ub:parent="8565bc6a-18cb-42ad-8805-a2d87ca87c8f"/>
        <polygon points="562.114,-400.086 563.21,-400.569 565.106,-401.209 569.548,-402.318 571.675,-402.65 573.397,-402.729 575.073,-402.657 576.703,-402.454 578.359,-402.117 580.053,-401.622 581.719,-400.97 583.323,-400.168 584.832,-399.235 586.204,-398.213 587.301,-397.254 588.104,-396.45 588.719,-395.753 589.318,-394.987 589.894,-394.143 590.242,-393.561 590.243,-393.562 591.286,-391.086 591.655,-388.332 590.84,-384.293 588.616,-380.995 585.318,-378.771 581.279,-377.956 578.519,-378.327 577.437,-378.784 577.221,-379.158 576.437,-380.334 575.574,-381.461 574.608,-382.563 573.765,-383.395 575.263,-385.27 576.359,-387.799 576.748,-390.624 575.933,-394.663 573.709,-397.961 570.411,-400.185 566.372,-401 563.747,-400.665 561.792,-399.885 562.111,-400.087 562.114,-400.086 " transform="matrix(1, 0, 0, 1, 0, 0)" fill="#004080" fill-opacity="0.50" stroke="#004080" stroke-width="1" stroke-opacity="0.10" fill-rule="winding" ub:uuid="b37cc916-90f9-4fbe-bccb-7d9fc24a21ce" ub:parent="8565bc6a-18cb-42ad-8805-a2d87ca87c8f"/>
        <polygon points="590.621,-392.848 590.925,-392.199 591.548,-390.418 592.476,-386.7 592.809,-384.726 592.944,-383.04 592.944,-381.346 592.809,-379.66 592.524,-377.903 592.068,-376.035 591.544,-374.442 590.934,-372.998 589.738,-370.887 586.352,-366.216 586.171,-366.008 585.995,-366.507 585.732,-367.136 585.733,-367.14 585.568,-367.41 585.42,-367.803 585.419,-367.801 585.091,-368.421 584.539,-369.325 583.969,-370.128 583.381,-370.856 582.761,-371.539 582.114,-372.174 581.445,-372.762 580.554,-373.455 579.443,-374.198 579.273,-374.817 578.642,-376.478 577.937,-377.92 577.437,-378.784 578.519,-378.327 581.279,-377.956 585.318,-378.771 588.616,-380.995 590.84,-384.293 591.655,-388.332 591.286,-391.086 590.407,-393.174 590.623,-392.851 590.621,-392.848 " transform="matrix(1, 0, 0, 1, 0, 0)" fill="#004080" fill-opacity="0.50" stroke="#004080" stroke-width="1" stroke-opacity="0.10" fill-rule="winding" ub:uuid="78d0e4a2-2b21-4986-9053-d0f1d1623a99" ub:parent="8565bc6a-18cb-42ad-8805-a2d87ca87c8f"/>
        <polygon points="545.399,-383.25 545.548,-383.611 546.514,-385.472 547.66,-387.251 548.982,-388.922 550.468,-390.458 552.096,-391.836 553.234,-392.591 550.113,-388.43 548.763,-386.259 548.077,-384.897 547.199,-384.436 546.359,-383.916 545.476,-383.307 545.399,-383.25 " transform="matrix(1, 0, 0, 1, 0, 0)" fill="#004080" fill-opacity="0.50" stroke="#004080" stroke-width="1" stroke-opacity="0.10" fill-rule="winding" ub:uuid="541497cb-e9b3-43e5-b2af-32b01e9613bf" ub:parent="8565bc6a-18cb-42ad-8805-a2d87ca87c8f"/>
        <polygon points="540.757,-379.622 540.776,-379.994 541.006,-381.705 541.989,-386.233 542.518,-388.042 543.126,-389.564 543.843,-390.998 544.75,-392.495 545.923,-394.11 546.988,-395.34 547.596,-395.956 547.596,-395.956 550.873,-398.135 554.872,-398.933 558.823,-398.136 557.286,-396.945 555.684,-395.475 553.96,-393.56 553.234,-392.591 552.096,-391.836 550.468,-390.458 548.982,-388.922 547.66,-387.251 546.514,-385.472 545.548,-383.611 545.399,-383.25 544.082,-382.28 544.081,-382.28 543.948,-382.157 543.841,-382.098 543.842,-382.098 542.142,-380.767 540.757,-379.622 " transform="matrix(1, 0, 0, 1, 0, 0)" fill="#004080" fill-opacity="0.50" stroke="#004080" stroke-width="1" stroke-opacity="0.10" fill-rule="winding" ub:uuid="6d9b85ae-afa7-4355-aafc-dd102060a002" ub:parent="8565bc6a-18cb-42ad-8805-a2d87ca87c8f"/>
        <polygon points="548.002,-396.334 548.488,-396.757 549.254,-397.357 550.098,-397.933 551.026,-398.474 553.177,-399.379 557.218,-400.54 559.897,-401.028 562.308,-401.209 564.727,-401.148 564.871,-401.13 563.21,-400.569 562.114,-400.086 562.111,-400.087 561.792,-399.885 561.369,-399.717 561.371,-399.716 560.342,-399.141 558.913,-398.205 558.823,-398.136 554.872,-398.933 550.873,-398.135 547.842,-396.119 548.002,-396.334 548.002,-396.334 " transform="matrix(1, 0, 0, 1, 0, 0)" fill="#004080" fill-opacity="0.50" stroke="#004080" stroke-width="1" stroke-opacity="0.10" fill-rule="winding" ub:uuid="599d22ca-b745-4700-a746-f43b624c0551" ub:parent="8565bc6a-18cb-42ad-8805-a2d87ca87c8f"/>
        <polygon points="548.308,-396.601 548.353,-396.688 549.091,-397.893 549.929,-399.049 550.861,-400.143 551.88,-401.162 552.975,-402.094 554.165,-402.955 555.067,-403.507 555.065,-403.508 557.588,-404.599 560.406,-404.986 564.444,-404.171 567.743,-401.947 567.788,-401.879 565.106,-401.209 564.871,-401.13 564.727,-401.148 562.308,-401.209 559.897,-401.028 557.218,-400.54 553.177,-399.379 551.026,-398.474 550.098,-397.933 549.254,-397.357 548.488,-396.757 548.308,-396.601 " transform="matrix(1, 0, 0, 1, 0, 0)" fill="#004080" fill-opacity="0.50" stroke="#004080" stroke-width="1" stroke-opacity="0.10" fill-rule="winding" ub:uuid="223e266d-da3e-4990-b67f-0d8857bd523c" ub:parent="8565bc6a-18cb-42ad-8805-a2d87ca87c8f"/>
        <polygon points="555.765,-403.891 556.277,-404.142 557.071,-404.486 557.902,-404.791 558.77,-405.051 559.668,-405.26 560.591,-405.414 561.818,-405.523 563.224,-405.524 564.89,-405.379 566.654,-405.056 568.356,-404.575 569.979,-403.953 571.632,-403.148 572.408,-402.684 571.675,-402.65 569.548,-402.318 567.788,-401.879 567.743,-401.947 564.444,-404.171 560.406,-404.986 557.588,-404.599 555.438,-403.669 555.762,-403.892 555.765,-403.891 " transform="matrix(1, 0, 0, 1, 0, 0)" fill="#004080" fill-opacity="0.50" stroke="#004080" stroke-width="1" stroke-opacity="0.10" fill-rule="winding" ub:uuid="c79cf61e-71fb-4583-aef0-8da4e7f39567" ub:parent="8565bc6a-18cb-42ad-8805-a2d87ca87c8f"/>
    </g>
</svg>
