<?xml version="1.0" encoding="UTF-8"?>
<svg xmlns="http://www.w3.org/2000/svg" xmlns:xlink="http://www.w3.org/1999/xlink" xmlns:ub="http://uniboard.mnemis.com/document" xmlns:xhtml="http://www.w3.org/1999/xhtml" version="1.1" ub:version="4.8.0" ub:uuid="0b963908-a06b-4baf-81d5-23def9a2d77c" viewBox="-722 -919 1444 1838" ub:nominal-size="1343x1738" ub:dark-background="false" ub:crossed-background="true" ub:ruled-background="false" ub:grid-size="55" ub:intermediate-lines="0" pageDpi="158">
    <rect fill="white" x="-722" y="-919" width="1444" height="1838"/>
    <image xlink:href="images/{e063135f-6476-4d9e-87fd-5d82accd4edf}.png" x="0" y="0" width="900" height="419" transform="matrix(1.49388, 0, 0, 1.49388, -671.5, -312.221)" ub:z-value="-999992.000000" ub:background="false" ub:uuid="e063135f-6476-4d9e-87fd-5d82accd4edf" ub:source="/Users/khale/AppData/Local/OpenBoard/document/OpenBoard Document 2023-05-30 09-06-07.783/images/{e063135f-6476-4d9e-87fd-5d82accd4edf}.png" ub:layer="-1000"/>
    <g ub:z-value="-999996" ub:fill-on-dark-background="#ffffff" ub:fill-on-light-background="#000000" ub:uuid="576c3796-15b6-41d4-b1da-32965d13ed1a" ub:layer="-1000">
        <polygon points="480.428,-793.736 479.563,-795.898 479.563,-795.897 479.494,-796.13 479.471,-796.379 479.85,-797.297 480.768,-797.676 481.972,-796.862 482.837,-794.699 482.837,-794.7 482.905,-794.467 482.929,-794.218 482.549,-793.301 481.632,-792.921 480.428,-793.735 480.428,-793.736 " transform="matrix(1, 0, 0, 1, 0, 0)" fill="#000000" fill-opacity="1.00" fill-rule="evenodd" ub:uuid="7e84d558-424a-4d20-b0e9-331411f9f1ba" ub:parent="576c3796-15b6-41d4-b1da-32965d13ed1a"/>
    </g>
    <g ub:z-value="-999999" ub:fill-on-dark-background="#ffffff" ub:fill-on-light-background="#000000" ub:uuid="5bc18723-bf54-4a1b-9947-3673c3455765" ub:layer="-1000">
        <polygon points="580.135,-801.406 577.034,-799.011 576.412,-798.465 575.404,-797.52 574.033,-796.153 572.305,-794.425 564.364,-786.471 563.835,-785.852 563.344,-785.176 562.915,-784.472 562.547,-783.735 562.233,-782.959 561.979,-782.229 561.794,-781.581 561.676,-781.025 561.619,-780.533 561.616,-780.393 561.623,-780.252 561.643,-780.118 561.678,-779.977 561.731,-779.827 561.803,-779.666 561.898,-779.494 562.017,-779.311 562.162,-779.118 562.334,-778.916 562.525,-778.713 562.721,-778.533 562.917,-778.381 563.126,-778.247 563.347,-778.131 563.585,-778.03 563.84,-777.946 564.116,-777.879 564.413,-777.83 564.696,-777.801 565.453,-777.796 566.169,-777.856 566.847,-777.974 567.488,-778.149 568.1,-778.382 568.714,-778.683 569.65,-779.182 570.503,-779.676 571.282,-780.171 571.463,-780.301 571.635,-780.439 572.084,-780.872 572.531,-781.394 572.996,-782.03 573.468,-782.769 573.884,-783.538 574.208,-784.313 574.317,-784.646 574.415,-785.009 574.49,-785.368 574.544,-785.725 574.574,-786.051 574.582,-786.844 574.55,-787.611 574.486,-788.346 574.391,-789.042 574.266,-789.7 574.11,-790.332 573.8,-791.386 573.414,-792.518 572.952,-793.73 572.418,-794.973 571.81,-796.213 571.124,-797.46 570.373,-798.702 569.616,-799.875 568.864,-800.965 567.831,-802.355 566.353,-804.261 564.679,-806.346 563.673,-807.515 562.668,-808.608 561.302,-809.991 559.224,-812.069 557.849,-813.48 557.196,-814.246 556.628,-815.005 556.129,-815.773 555.703,-816.546 555.34,-817.33 555.019,-818.141 554.737,-818.985 554.495,-819.861 554.292,-820.764 554.207,-821.286 554.164,-821.797 554.164,-822.301 554.21,-822.798 554.305,-823.283 554.45,-823.754 554.645,-824.206 554.889,-824.633 555.179,-825.032 555.516,-825.404 556.11,-825.959 556.747,-826.481 557.421,-826.962 558.13,-827.403 558.868,-827.801 559.614,-828.155 560.356,-828.47 561.101,-828.75 561.849,-828.993 562.62,-829.204 563.798,-829.444 565.477,-829.629 567.693,-829.652 569.402,-829.505 570.637,-829.287 572.133,-828.876 573.611,-828.322 574.736,-827.802 575.521,-827.36 576.265,-826.837 576.963,-826.239 577.614,-825.568 578.221,-824.823 578.741,-824.055 578.99,-823.615 579.193,-823.198 579.368,-822.776 579.512,-822.347 579.626,-821.913 579.708,-821.475 579.761,-820.969 579.755,-819.823 579.605,-818.323 579.309,-816.84 579.061,-815.991 578.574,-814.751 577.684,-813.01 573.693,-806.467 570.63,-802.477 565.145,-796.777 565.145,-796.777 564.21,-796.379 563.293,-796.759 562.913,-797.676 563.276,-798.576 563.276,-798.576 568.686,-804.195 571.537,-807.909 575.449,-814.328 576.219,-815.838 576.615,-816.855 576.782,-817.424 577.039,-818.708 577.165,-819.975 577.168,-820.904 577.143,-821.09 577.095,-821.344 577.028,-821.602 576.939,-821.865 576.828,-822.134 576.694,-822.409 576.554,-822.661 576.14,-823.276 575.675,-823.845 575.185,-824.35 574.672,-824.79 574.136,-825.166 573.572,-825.485 572.622,-825.924 571.333,-826.409 570.053,-826.759 569.084,-826.93 567.611,-827.059 565.615,-827.039 564.181,-826.878 563.207,-826.677 562.594,-826.508 561.958,-826.301 561.32,-826.062 560.678,-825.789 560.04,-825.486 559.43,-825.158 558.86,-824.803 558.323,-824.42 557.818,-824.007 557.34,-823.56 557.192,-823.396 557.067,-823.224 556.965,-823.046 556.884,-822.857 556.822,-822.654 556.778,-822.431 556.755,-822.183 556.755,-821.91 556.781,-821.608 556.834,-821.282 557.012,-820.49 557.219,-819.741 557.457,-819.028 557.724,-818.352 558.018,-817.718 558.353,-817.108 558.753,-816.492 559.222,-815.867 559.745,-815.25 561.068,-813.894 563.141,-811.821 564.542,-810.402 565.612,-809.239 566.681,-807.995 568.389,-805.869 569.894,-803.927 570.97,-802.481 571.775,-801.314 572.574,-800.075 573.371,-798.757 574.112,-797.41 574.775,-796.057 575.356,-794.706 575.854,-793.401 576.272,-792.173 576.611,-791.022 576.801,-790.253 576.952,-789.458 577.064,-788.632 577.139,-787.776 577.176,-786.883 577.167,-785.955 577.119,-785.416 577.043,-784.909 576.937,-784.403 576.802,-783.901 576.625,-783.37 576.223,-782.415 575.705,-781.455 575.139,-780.569 574.567,-779.786 573.976,-779.098 573.388,-778.527 573.041,-778.242 572.703,-778 571.847,-777.458 570.91,-776.914 569.901,-776.376 569.131,-776.002 568.291,-775.682 567.41,-775.442 566.497,-775.283 565.553,-775.204 564.607,-775.208 564.077,-775.257 563.596,-775.338 563.128,-775.452 562.674,-775.601 562.237,-775.786 561.819,-776.007 561.422,-776.262 561.048,-776.551 560.707,-776.864 560.406,-777.18 560.136,-777.497 559.892,-777.823 559.674,-778.159 559.483,-778.506 559.322,-778.863 559.193,-779.232 559.099,-779.609 559.041,-779.994 559.022,-780.372 559.036,-780.768 559.117,-781.452 559.277,-782.21 559.507,-783.015 559.806,-783.876 560.184,-784.804 560.645,-785.727 561.185,-786.615 561.801,-787.46 562.517,-788.293 570.469,-796.258 572.2,-797.989 573.596,-799.381 574.663,-800.381 575.425,-801.046 578.549,-803.459 578.549,-803.459 579.342,-803.729 580.259,-803.349 580.639,-802.432 580.135,-801.406 580.135,-801.406 " transform="matrix(1, 0, 0, 1, 0, 0)" fill="#000000" fill-opacity="1.00" fill-rule="winding" ub:uuid="328ffc87-b17b-45a0-94d2-1a475233e54b" ub:parent="5bc18723-bf54-4a1b-9947-3673c3455765"/>
    </g>
    <g ub:z-value="-999998" ub:fill-on-dark-background="#ffffff" ub:fill-on-light-background="#000000" ub:uuid="059df3bf-dc21-45c6-a63f-6cc58086083d" ub:layer="-1000">
        <polygon points="568.977,-846.099 567.977,-846.092 567.666,-846.043 567.133,-845.925 565.995,-845.604 564.573,-845.132 563.663,-844.755 562.778,-844.312 561.923,-843.805 561.096,-843.233 560.279,-842.586 558.955,-841.451 557.048,-839.68 555.547,-838.187 554.028,-836.542 552.507,-834.742 550.982,-832.784 549.61,-830.866 548.886,-829.747 548.299,-828.736 547.859,-827.858 547.307,-826.505 546.055,-823.375 544.141,-818.552 542.698,-814.636 542.373,-813.637 542.081,-812.5 541.819,-811.191 541.477,-808.848 541.209,-806.148 540.969,-802.891 540.88,-800.926 540.868,-799.317 540.931,-797.488 541.136,-794.405 541.384,-791.684 541.613,-789.938 542.283,-786.581 543.479,-782.756 545.578,-777.757 549.693,-770.047 551.099,-767.961 552.239,-766.565 553.048,-765.708 553.048,-765.708 553.402,-764.818 553.022,-763.901 552.105,-763.521 551.161,-763.929 551.161,-763.929 550.275,-764.87 549.003,-766.432 547.434,-768.772 543.248,-776.618 541.049,-781.849 539.773,-785.927 539.059,-789.487 538.804,-791.407 538.55,-794.203 538.341,-797.346 538.274,-799.279 538.287,-800.999 538.38,-803.054 538.624,-806.369 538.901,-809.16 539.26,-811.615 539.551,-813.074 539.881,-814.358 540.257,-815.512 541.719,-819.482 543.645,-824.335 544.9,-827.474 545.49,-828.914 546.018,-829.973 546.676,-831.106 547.474,-832.339 548.904,-834.338 550.492,-836.375 552.083,-838.258 553.678,-839.986 555.254,-841.554 557.221,-843.38 558.621,-844.58 559.551,-845.316 560.522,-845.989 561.535,-846.589 562.587,-847.115 563.683,-847.568 565.227,-848.082 566.476,-848.435 567.188,-848.593 567.846,-848.683 568.955,-848.693 568.955,-848.693 568.966,-848.693 569.883,-848.313 570.263,-847.396 569.887,-846.482 568.977,-846.099 568.977,-846.099 " transform="matrix(1, 0, 0, 1, 0, 0)" fill="#000000" fill-opacity="1.00" fill-rule="winding" ub:uuid="0faab978-ba3b-4f3e-ab09-a196bbf4c87c" ub:parent="059df3bf-dc21-45c6-a63f-6cc58086083d"/>
    </g>
    <g ub:z-value="-999997" ub:fill-on-dark-background="#ffffff" ub:fill-on-light-background="#000000" ub:uuid="74256924-e740-4dc7-bc0d-ff006c8c9055" ub:layer="-1000">
        <polygon points="477.259,-812.864 480.223,-815.81 480.708,-816.234 481.418,-816.791 482.2,-817.34 482.549,-817.556 482.9,-817.737 483.261,-817.887 483.633,-818.005 484.013,-818.087 484.399,-818.132 484.788,-818.139 485.176,-818.106 485.559,-818.036 485.955,-817.923 486.579,-817.68 487.237,-817.362 487.912,-816.976 488.608,-816.525 489.341,-815.998 490.089,-815.383 490.806,-814.686 491.478,-813.919 492.105,-813.082 492.689,-812.178 493.457,-810.831 494.146,-809.479 494.749,-808.139 496.112,-804.974 497.563,-801.934 498.017,-800.803 498.387,-799.692 498.685,-798.576 498.878,-797.594 500.652,-791.552 501.388,-788.924 501.584,-787.95 501.786,-786.603 501.88,-785.661 501.948,-784.313 501.948,-783.387 501.911,-782.501 501.836,-781.645 501.724,-780.818 501.572,-780.024 501.383,-779.255 501.044,-778.104 500.626,-776.876 500.127,-775.57 499.723,-774.666 499.28,-773.874 499.009,-773.468 498.739,-773.114 498.453,-772.785 498.148,-772.48 497.825,-772.202 497.465,-771.942 496.885,-771.593 496.535,-771.416 496.208,-771.275 495.877,-771.154 495.542,-771.053 495.203,-770.974 494.861,-770.917 494.516,-770.883 494.17,-770.871 493.823,-770.882 493.473,-770.916 493.088,-770.976 492.409,-771.137 491.684,-771.379 490.924,-771.699 489.819,-772.274 488.769,-772.95 487.797,-773.719 485.971,-775.403 485.039,-776.116 484.092,-776.716 483.418,-777.063 482.707,-777.358 482.535,-777.418 482.37,-777.466 482.244,-777.49 482.142,-777.5 482.06,-777.498 481.995,-777.49 481.939,-777.475 481.885,-777.453 481.827,-777.421 481.761,-777.373 481.7,-777.319 481.443,-777.036 481.224,-776.741 481.028,-776.413 480.853,-776.05 480.706,-775.663 480.513,-774.986 480.393,-774.331 480.339,-773.7 480.335,-770.869 480.335,-770.869 479.955,-769.953 479.038,-769.574 478.121,-769.954 477.741,-770.871 477.741,-770.873 477.741,-770.873 477.746,-773.749 477.822,-774.674 477.987,-775.576 478.236,-776.456 478.469,-777.072 478.744,-777.643 479.066,-778.179 479.435,-778.679 479.835,-779.123 480.129,-779.389 480.434,-779.609 480.766,-779.793 481.118,-779.936 481.486,-780.033 481.861,-780.085 482.238,-780.092 482.611,-780.058 482.979,-779.988 483.324,-779.889 483.67,-779.767 484.515,-779.414 485.399,-778.956 486.527,-778.242 487.669,-777.364 489.51,-775.667 490.276,-775.061 491.12,-774.518 492.047,-774.038 492.602,-773.805 493.121,-773.631 493.618,-773.516 493.795,-773.49 493.99,-773.471 494.17,-773.465 494.343,-773.471 494.518,-773.488 494.694,-773.518 494.874,-773.56 495.057,-773.615 495.245,-773.684 495.438,-773.767 495.606,-773.85 496.063,-774.124 496.213,-774.235 496.383,-774.381 496.554,-774.552 496.726,-774.75 496.898,-774.976 497.05,-775.201 497.403,-775.826 497.725,-776.548 498.186,-777.758 498.572,-778.891 498.882,-779.945 499.038,-780.577 499.163,-781.235 499.258,-781.931 499.322,-782.666 499.354,-783.44 499.355,-784.235 499.292,-785.48 499.214,-786.268 499.027,-787.515 498.877,-788.271 498.16,-790.831 496.38,-796.895 496.158,-797.987 495.902,-798.947 495.581,-799.91 495.204,-800.855 493.75,-803.903 492.372,-807.102 491.808,-808.356 491.174,-809.598 490.464,-810.844 489.975,-811.601 489.461,-812.286 488.923,-812.902 488.359,-813.45 487.759,-813.942 487.143,-814.384 486.559,-814.763 486.023,-815.069 485.54,-815.304 485.091,-815.477 484.969,-815.51 484.833,-815.535 484.702,-815.546 484.572,-815.544 484.44,-815.528 484.301,-815.498 484.154,-815.452 483.997,-815.386 483.828,-815.299 483.658,-815.195 482.962,-814.706 482.349,-814.225 482.038,-813.957 479.088,-811.024 479.088,-811.024 478.174,-810.647 477.256,-811.027 476.876,-811.944 477.259,-812.864 477.259,-812.864 " transform="matrix(1, 0, 0, 1, 0, 0)" fill="#000000" fill-opacity="1.00" fill-rule="winding" ub:uuid="3605b9eb-991a-4661-8786-acdd48d2948a" ub:parent="74256924-e740-4dc7-bc0d-ff006c8c9055"/>
    </g>
    <g ub:z-value="-999996" ub:fill-on-dark-background="#ffffff" ub:fill-on-light-background="#000000" ub:uuid="576c3796-15b6-41d4-b1da-32965d13ed1a" ub:layer="-1000">
        <polygon points="481.632,-794.218 482.549,-793.838 482.929,-792.921 482.549,-792.004 481.632,-791.624 480.715,-792.004 480.335,-792.921 480.715,-793.838 481.632,-794.218 " transform="matrix(1, 0, 0, 1, 0, 0)" fill="#000000" fill-opacity="1.00" fill-rule="evenodd" ub:uuid="690f23fb-84ed-4a3c-94e9-f0b8a707d374" ub:parent="576c3796-15b6-41d4-b1da-32965d13ed1a"/>
        <polygon points="480.335,-792.921 480.335,-794.218 480.715,-795.135 481.632,-795.515 482.549,-795.135 482.929,-794.218 482.929,-792.921 480.335,-792.921 " transform="matrix(1, 0, 0, 1, 0, 0)" fill="#000000" fill-opacity="1.00" fill-rule="evenodd" ub:uuid="382c9b56-d7fb-4979-b017-d921987090b2" ub:parent="576c3796-15b6-41d4-b1da-32965d13ed1a"/>
    </g>
    <g ub:z-value="-999995" ub:fill-on-dark-background="#ffffff" ub:fill-on-light-background="#000000" ub:uuid="d2d3ccaf-8683-4d7a-bd8d-6b1adc294df6" ub:layer="-1000">
        <polygon points="481.58,-842.156 481.167,-842.569 481.285,-842.478 481.384,-842.429 481.421,-842.417 481.394,-842.421 481.308,-842.424 481.21,-842.422 480.768,-842.366 480.203,-842.243 479.943,-842.17 479.677,-842.08 479.419,-841.977 479.169,-841.861 478.925,-841.73 478.688,-841.586 478.456,-841.427 478.257,-841.275 477.786,-840.851 477.33,-840.364 476.857,-839.796 476.384,-839.166 475.642,-838.053 474.584,-836.285 472.727,-833.087 471.372,-830.603 470.362,-828.493 469.342,-826.135 467.756,-822.184 466.413,-818.826 465.347,-815.947 463.509,-810.525 462.682,-807.789 462.086,-805.444 461.825,-804.137 461.539,-802.233 460.76,-797.304 459.881,-791.593 459.716,-790.111 459.59,-788.22 459.587,-787.214 459.65,-785.309 459.856,-782.013 460.336,-775.604 460.442,-773.11 460.458,-772.233 460.547,-771.358 460.856,-769.769 463.483,-761.966 464.754,-759 465.567,-757.473 466.445,-756.1 467.741,-754.46 469.049,-753.088 470.021,-752.24 470.321,-752.008 470.321,-752.008 470.824,-750.983 470.444,-750.066 469.527,-749.686 468.732,-749.958 468.732,-749.958 468.341,-750.263 467.238,-751.23 465.778,-752.764 464.341,-754.583 463.326,-756.166 462.401,-757.908 461.044,-761.082 458.379,-768.998 457.987,-770.938 457.869,-772.069 457.85,-773.016 457.748,-775.433 457.269,-781.83 457.06,-785.175 456.993,-787.162 456.999,-788.334 457.132,-790.334 457.313,-791.965 458.197,-797.703 458.976,-802.632 459.268,-804.575 459.561,-806.036 460.184,-808.489 461.043,-811.33 462.898,-816.804 463.993,-819.761 465.348,-823.148 466.944,-827.126 468,-829.567 469.065,-831.79 470.468,-834.363 472.347,-837.599 473.442,-839.428 474.256,-840.65 474.821,-841.403 475.385,-842.08 475.967,-842.7 476.568,-843.245 476.931,-843.525 477.279,-843.764 477.638,-843.983 478.009,-844.181 478.389,-844.358 478.78,-844.515 479.18,-844.65 479.603,-844.767 480.317,-844.921 480.948,-845.003 481.308,-845.018 481.629,-845.004 481.956,-844.956 482.295,-844.858 482.645,-844.687 482.963,-844.441 483.414,-843.99 483.794,-843.073 483.414,-842.156 482.497,-841.776 481.58,-842.156 " transform="matrix(1, 0, 0, 1, 0, 0)" fill="#000000" fill-opacity="1.00" fill-rule="winding" ub:uuid="9eb5c937-5875-4c5b-981c-e5e187e94138" ub:parent="d2d3ccaf-8683-4d7a-bd8d-6b1adc294df6"/>
    </g>
    <g ub:z-value="-999994" ub:fill-on-dark-background="#66c0ff" ub:fill-on-light-background="#004080" ub:uuid="a9d0bf7e-71fd-4ef5-821d-01c7cdd94395" ub:layer="-1000">
        <polygon points="490.874,-777.388 489.481,-776.455 489.783,-776.682 489.942,-776.829 490.089,-776.987 490.104,-776.998 488.871,-775.337 487.859,-774.149 486.808,-773.046 485.626,-771.917 484.318,-770.76 482.804,-769.512 478.532,-765.749 477.179,-764.697 476.003,-763.913 474.8,-763.216 473.368,-762.472 471.547,-761.351 469.241,-760.015 468.209,-759.476 468.211,-759.475 465.95,-758.63 463.474,-758.333 459.435,-759.148 456.137,-761.372 453.913,-764.67 453.098,-768.709 453.508,-771.608 454.661,-774.19 456.443,-776.341 458.736,-777.943 458.739,-777.942 459.055,-778.096 460.926,-779.18 463.056,-780.481 464.937,-781.475 465.047,-781.538 465.117,-781.584 464.94,-781.432 469.22,-785.201 470.888,-786.581 471.603,-787.214 472.133,-787.72 472.561,-788.172 472.448,-788.023 473.515,-789.466 474.291,-790.445 475.268,-791.503 476.326,-792.48 477.597,-793.468 479.308,-794.618 479.307,-794.619 482.016,-795.916 485.091,-796.379 489.13,-795.564 492.428,-793.34 494.652,-790.042 495.467,-786.003 495.139,-783.405 494.21,-781.048 492.761,-779.015 490.875,-777.387 490.874,-777.388 " transform="matrix(1, 0, 0, 1, 0, 0)" fill="#004080" fill-opacity="0.50" stroke="#004080" stroke-width="1" stroke-opacity="0.10" fill-rule="winding" ub:uuid="d7b4fe28-edb2-4bdf-bfe4-0d90b5cf33f4" ub:parent="a9d0bf7e-71fd-4ef5-821d-01c7cdd94395"/>
        <polygon points="467.837,-759.295 466.852,-758.843 465.567,-758.335 464.264,-757.901 462.947,-757.536 461.577,-757.23 460.095,-756.985 458.485,-756.84 457.034,-756.832 455.834,-756.918 454.874,-757.056 453.875,-757.268 452.645,-757.637 450.962,-758.38 449.104,-759.624 447.471,-761.257 446.227,-763.115 445.415,-764.996 444.972,-766.75 444.843,-767.719 444.842,-767.715 444.779,-768.865 445.595,-772.904 447.818,-776.202 451.117,-778.426 455.155,-779.241 458.941,-778.529 459.358,-778.271 459.072,-778.106 458.677,-777.918 458.475,-777.838 458.222,-777.754 457.913,-777.669 457.588,-777.595 457.411,-777.563 457.498,-777.569 457.566,-777.578 458.126,-777.544 458.158,-777.539 456.443,-776.341 454.661,-774.19 453.508,-771.608 453.098,-768.709 453.913,-764.67 456.137,-761.372 459.435,-759.148 463.474,-758.333 465.95,-758.63 467.996,-759.395 467.84,-759.294 467.837,-759.295 " transform="matrix(1, 0, 0, 1, 0, 0)" fill="#004080" fill-opacity="0.50" stroke="#004080" stroke-width="1" stroke-opacity="0.10" fill-rule="winding" ub:uuid="e74cc132-b8aa-4930-959e-4392fe0b7baf" ub:parent="a9d0bf7e-71fd-4ef5-821d-01c7cdd94395"/>
        <polygon points="444.779,-768.865 444.791,-769.704 444.942,-771.215 445.229,-772.724 445.657,-774.44 446.08,-775.852 446.669,-777.532 447.333,-779.137 448.216,-780.833 449.245,-782.442 450.379,-783.936 451.603,-785.328 453.631,-787.428 456.618,-790.851 458.824,-793.215 460.318,-794.665 462.313,-796.451 464.36,-798.155 466.345,-799.7 468.129,-800.987 468.128,-800.987 470.951,-802.426 474.192,-802.942 478.231,-802.127 481.529,-799.903 483.752,-796.605 483.836,-796.19 482.016,-795.916 479.307,-794.619 479.308,-794.618 477.597,-793.468 476.326,-792.48 475.268,-791.503 474.291,-790.445 473.515,-789.466 472.549,-788.16 472.133,-787.72 471.603,-787.214 470.888,-786.581 469.22,-785.201 465.103,-781.575 465.047,-781.538 464.937,-781.475 463.056,-780.481 460.926,-779.18 459.358,-778.271 458.941,-778.529 455.155,-779.241 451.117,-778.426 447.818,-776.202 445.595,-772.904 444.779,-768.865 459.072,-778.106 459.055,-778.096 458.739,-777.942 458.736,-777.943 458.158,-777.539 458.126,-777.544 457.566,-777.578 457.498,-777.569 457.411,-777.563 457.588,-777.595 457.913,-777.669 458.222,-777.754 458.475,-777.838 458.677,-777.918 459.072,-778.106 444.779,-768.865 465.103,-781.575 465.117,-781.584 464.94,-781.432 465.103,-781.575 444.779,-768.865 472.549,-788.16 472.561,-788.172 472.448,-788.023 472.549,-788.16 444.779,-768.865 " transform="matrix(1, 0, 0, 1, 0, 0)" fill="#004080" fill-opacity="0.50" stroke="#004080" stroke-width="1" stroke-opacity="0.10" fill-rule="winding" ub:uuid="fe134b97-0a3c-4c1f-871c-726b81af2d84" ub:parent="a9d0bf7e-71fd-4ef5-821d-01c7cdd94395"/>
        <polygon points="468.457,-801.214 470.576,-802.618 472.673,-803.953 475.061,-805.395 476.905,-806.438 478.265,-807.159 479.485,-807.751 480.971,-808.344 482.574,-808.824 484.244,-809.157 485.699,-809.312 486.885,-809.35 487.942,-809.308 489.051,-809.183 490.136,-808.98 491.186,-808.705 492.193,-808.365 493.154,-807.969 494.065,-807.525 494.675,-807.187 494.676,-807.188 496.834,-805.57 498.504,-803.454 499.581,-800.944 499.964,-798.143 499.148,-794.104 496.925,-790.806 494.788,-789.366 494.652,-790.042 492.428,-793.34 489.13,-795.564 485.091,-796.379 483.836,-796.19 483.752,-796.605 481.529,-799.903 478.231,-802.127 474.192,-802.942 470.951,-802.426 468.282,-801.066 468.456,-801.214 468.457,-801.214 " transform="matrix(1, 0, 0, 1, 0, 0)" fill="#004080" fill-opacity="0.50" stroke="#004080" stroke-width="1" stroke-opacity="0.10" fill-rule="winding" ub:uuid="51ea9cfb-2a38-4e70-aa52-434f20e3ade7" ub:parent="a9d0bf7e-71fd-4ef5-821d-01c7cdd94395"/>
        <polygon points="495.393,-806.744 496.304,-806.125 497.276,-805.366 498.031,-804.696 498.763,-803.964 499.465,-803.166 500.128,-802.302 500.741,-801.375 501.295,-800.389 501.779,-799.351 502.304,-797.892 502.668,-796.523 503.118,-794.726 503.515,-793.094 503.784,-791.637 503.955,-790.278 504.065,-788.818 504.114,-786.97 504.114,-784.373 504.11,-781.663 504.11,-781.663 503.29,-777.63 501.065,-774.337 497.769,-772.117 493.734,-771.303 489.695,-772.119 487.399,-773.667 487.859,-774.149 488.871,-775.337 489.919,-776.748 490.874,-777.388 490.875,-777.387 492.761,-779.015 494.21,-781.048 495.139,-783.405 495.467,-786.003 494.788,-789.366 496.925,-790.806 499.148,-794.104 499.964,-798.143 499.581,-800.944 498.504,-803.454 496.834,-805.57 495.043,-806.913 495.393,-806.745 495.393,-806.744 489.919,-776.748 489.481,-776.455 489.783,-776.682 489.942,-776.829 490.089,-776.987 490.104,-776.998 489.919,-776.748 495.393,-806.744 " transform="matrix(1, 0, 0, 1, 0, 0)" fill="#004080" fill-opacity="0.50" stroke="#004080" stroke-width="1" stroke-opacity="0.10" fill-rule="winding" ub:uuid="3421b1a6-973f-4e7d-ad01-e6f7cced1a49" ub:parent="a9d0bf7e-71fd-4ef5-821d-01c7cdd94395"/>
        <polygon points="504.102,-781.265 504.05,-780.09 503.896,-778.383 503.69,-776.911 503.362,-775.191 503.008,-773.764 502.609,-772.454 502.138,-771.159 501.579,-769.857 500.951,-768.581 499.893,-766.464 499.16,-765.044 498.172,-763.474 497.077,-762.065 495.872,-760.784 494.607,-759.657 493.38,-758.721 492.032,-757.794 490.866,-757.065 489.659,-756.384 489.661,-756.383 487.246,-755.399 484.572,-755.052 480.533,-755.867 477.235,-758.091 475.011,-761.389 474.657,-763.142 474.8,-763.216 476.003,-763.913 477.179,-764.697 478.532,-765.749 482.804,-769.512 484.318,-770.76 485.626,-771.917 486.808,-773.046 487.399,-773.667 489.695,-772.119 493.734,-771.303 497.769,-772.117 501.065,-774.337 503.29,-777.63 504.11,-781.661 504.102,-781.265 504.102,-781.265 " transform="matrix(1, 0, 0, 1, 0, 0)" fill="#004080" fill-opacity="0.50" stroke="#004080" stroke-width="1" stroke-opacity="0.10" fill-rule="winding" ub:uuid="1cd7511e-a92c-41ba-af3d-2a7678832709" ub:parent="a9d0bf7e-71fd-4ef5-821d-01c7cdd94395"/>
        <polygon points="489.182,-756.132 487.986,-755.54 486.564,-754.887 484.738,-754.109 483.457,-753.607 482.039,-753.136 480.533,-752.743 478.955,-752.458 477.542,-752.316 476.38,-752.28 475.322,-752.322 474.213,-752.447 473.129,-752.65 472.079,-752.925 471.071,-753.265 470.111,-753.661 469.2,-754.105 468.099,-754.737 466.794,-755.627 465.769,-756.449 465.769,-756.449 464.547,-757.995 465.567,-758.335 466.852,-758.843 467.837,-759.295 467.84,-759.294 467.996,-759.395 468.211,-759.475 468.209,-759.476 469.241,-760.015 471.547,-761.351 473.368,-762.472 474.657,-763.142 475.011,-761.389 477.235,-758.091 480.533,-755.867 484.572,-755.052 487.246,-755.399 489.398,-756.276 489.185,-756.131 489.182,-756.132 " transform="matrix(1, 0, 0, 1, 0, 0)" fill="#004080" fill-opacity="0.50" stroke="#004080" stroke-width="1" stroke-opacity="0.10" fill-rule="winding" ub:uuid="dc2a9eae-b69b-4c79-8159-fc80e5c6ee41" ub:parent="a9d0bf7e-71fd-4ef5-821d-01c7cdd94395"/>
        <polygon points="465.101,-757.044 464.24,-757.894 464.264,-757.901 464.547,-757.995 465.513,-756.773 465.101,-757.044 465.101,-757.044 " transform="matrix(1, 0, 0, 1, 0, 0)" fill="#004080" fill-opacity="0.50" stroke="#004080" stroke-width="1" stroke-opacity="0.10" fill-rule="winding" ub:uuid="218d0ae2-8837-40e8-99c3-f8c8cd280e7d" ub:parent="a9d0bf7e-71fd-4ef5-821d-01c7cdd94395"/>
        <polygon points="468.674,-801.357 471.381,-805.946 472.33,-807.604 473.55,-809.343 474.655,-810.646 475.551,-811.556 476.564,-812.444 477.864,-813.437 479.297,-814.472 480.607,-815.372 481.765,-816.067 483.053,-816.667 484.493,-817.145 486.054,-817.456 487.685,-817.564 488.635,-817.524 488.635,-817.524 492.431,-816.529 495.507,-814.275 497.568,-811.058 498.321,-807.171 497.853,-804.854 497.276,-805.366 496.304,-806.125 495.393,-806.744 495.393,-806.745 495.043,-806.913 494.676,-807.188 494.675,-807.187 494.065,-807.525 493.154,-807.969 492.193,-808.365 491.186,-808.705 490.136,-808.98 489.051,-809.183 487.942,-809.308 486.885,-809.35 485.699,-809.312 484.244,-809.157 482.574,-808.824 480.971,-808.344 479.485,-807.751 478.265,-807.159 476.905,-806.438 475.061,-805.395 472.673,-803.953 470.576,-802.618 468.674,-801.357 " transform="matrix(1, 0, 0, 1, 0, 0)" fill="#004080" fill-opacity="0.50" stroke="#004080" stroke-width="1" stroke-opacity="0.10" fill-rule="winding" ub:uuid="1e2aa1e4-10d3-4098-bf61-95bee7ec9b3e" ub:parent="a9d0bf7e-71fd-4ef5-821d-01c7cdd94395"/>
        <polygon points="489.979,-817.346 490.878,-817.145 492.317,-816.667 493.606,-816.067 494.805,-815.344 495.986,-814.444 497.07,-813.401 497.984,-812.307 498.735,-811.198 499.344,-810.099 499.831,-809.024 500.218,-807.979 500.592,-806.694 500.924,-805.131 501.381,-802.399 501.913,-799.165 501.949,-798.88 501.779,-799.351 501.295,-800.389 500.741,-801.375 500.128,-802.302 499.465,-803.166 498.763,-803.964 498.031,-804.696 497.853,-804.854 498.321,-807.171 497.568,-811.058 495.507,-814.275 492.431,-816.529 488.91,-817.452 489.981,-817.347 489.979,-817.346 " transform="matrix(1, 0, 0, 1, 0, 0)" fill="#004080" fill-opacity="0.50" stroke="#004080" stroke-width="1" stroke-opacity="0.10" fill-rule="winding" ub:uuid="e6802239-23a6-4393-ab1d-91ee299b7a45" ub:parent="a9d0bf7e-71fd-4ef5-821d-01c7cdd94395"/>
        <polygon points="496.363,-761.306 495.638,-760.203 493.886,-757.576 492.354,-755.304 491.083,-753.664 489.726,-752.185 488.219,-750.81 486.989,-749.872 486.99,-749.872 484.102,-748.346 480.763,-747.797 476.724,-748.612 473.426,-750.836 471.999,-752.952 472.079,-752.925 473.129,-752.65 474.213,-752.447 475.322,-752.322 476.38,-752.28 477.542,-752.316 478.955,-752.458 480.533,-752.743 482.039,-753.136 483.457,-753.607 484.738,-754.109 486.564,-754.887 487.986,-755.54 489.182,-756.132 489.185,-756.131 489.398,-756.276 489.661,-756.383 489.659,-756.384 490.866,-757.065 492.032,-757.794 493.38,-758.721 494.607,-759.657 495.872,-760.784 496.363,-761.306 " transform="matrix(1, 0, 0, 1, 0, 0)" fill="#004080" fill-opacity="0.50" stroke="#004080" stroke-width="1" stroke-opacity="0.10" fill-rule="winding" ub:uuid="72df89e4-cf8c-49a8-86fa-e4fd7a7601e9" ub:parent="a9d0bf7e-71fd-4ef5-821d-01c7cdd94395"/>
        <polygon points="486.199,-749.335 485.16,-748.698 483.54,-747.773 481.377,-746.614 479.382,-745.626 477.451,-744.851 475.502,-744.267 473.487,-743.865 471.471,-743.661 469.648,-743.64 467.626,-743.725 465.557,-743.915 463.436,-744.217 461.686,-744.595 460.404,-744.974 459.151,-745.44 457.47,-746.216 455.651,-747.279 454.027,-748.452 452.523,-749.696 452.523,-749.696 449.79,-753.198 449.038,-755.346 448.774,-757.68 449.159,-759.587 450.962,-758.38 452.645,-757.637 453.875,-757.268 454.874,-757.056 455.834,-756.918 457.034,-756.832 458.485,-756.84 460.095,-756.985 461.577,-757.23 462.947,-757.536 464.24,-757.894 465.101,-757.044 465.101,-757.044 465.513,-756.773 465.769,-756.449 465.769,-756.449 466.794,-755.627 468.099,-754.737 469.2,-754.105 470.111,-753.661 471.071,-753.265 471.999,-752.952 473.426,-750.836 476.724,-748.612 480.763,-747.797 484.102,-748.346 486.639,-749.686 486.2,-749.334 486.199,-749.335 " transform="matrix(1, 0, 0, 1, 0, 0)" fill="#004080" fill-opacity="0.50" stroke="#004080" stroke-width="1" stroke-opacity="0.10" fill-rule="winding" ub:uuid="82475077-8a7d-485b-8948-3f146eee97d3" ub:parent="a9d0bf7e-71fd-4ef5-821d-01c7cdd94395"/>
        <polygon points="452.252,-749.929 450.828,-751.198 449.317,-752.633 448.126,-753.84 446.921,-755.203 445.787,-756.662 444.748,-758.192 443.811,-759.79 442.985,-761.442 442.263,-763.143 441.632,-764.888 441.051,-766.788 440.392,-769.408 439.976,-771.476 439.665,-773.477 439.442,-775.486 439.303,-777.605 439.267,-780.376 439.343,-783.194 439.559,-786.668 439.559,-786.668 440.544,-790.479 442.796,-793.569 446.019,-795.64 449.915,-796.397 453.954,-795.581 457.253,-793.358 457.967,-792.297 456.618,-790.851 453.631,-787.428 451.603,-785.328 450.379,-783.936 449.245,-782.442 448.216,-780.833 447.333,-779.137 446.669,-777.532 446.08,-775.852 445.657,-774.44 445.229,-772.724 444.942,-771.215 444.791,-769.704 444.779,-768.865 444.842,-767.715 444.843,-767.719 444.972,-766.75 445.415,-764.996 446.227,-763.115 447.471,-761.257 449.104,-759.624 449.159,-759.587 448.774,-757.68 449.038,-755.346 449.79,-753.198 452.423,-749.825 452.252,-749.929 452.252,-749.929 " transform="matrix(1, 0, 0, 1, 0, 0)" fill="#004080" fill-opacity="0.50" stroke="#004080" stroke-width="1" stroke-opacity="0.10" fill-rule="winding" ub:uuid="8040e86b-6e33-465a-80fb-1466d9730aa2" ub:parent="a9d0bf7e-71fd-4ef5-821d-01c7cdd94395"/>
        <polygon points="439.588,-787.029 439.86,-789.79 440.179,-791.99 440.59,-794.091 441.106,-796.151 441.755,-798.239 442.696,-800.736 443.699,-803.132 444.785,-805.512 445.986,-807.927 447.028,-809.766 448.133,-811.473 449.344,-813.104 450.654,-814.634 451.947,-815.945 453.247,-817.142 454.977,-818.587 456.368,-819.639 457.752,-820.6 458.981,-821.374 458.98,-821.375 461.576,-822.544 464.494,-822.96 468.533,-822.145 471.831,-819.921 474.055,-816.623 474.87,-812.584 474.611,-810.594 473.55,-809.343 472.33,-807.604 471.381,-805.946 470.205,-803.953 470.008,-803.792 470.007,-803.793 469.196,-803.288 468.539,-802.831 467.959,-802.396 466.861,-801.479 466.363,-801.017 465.925,-800.581 465.576,-800.174 465.196,-799.66 464.779,-799.015 464.368,-798.295 464.255,-798.068 462.313,-796.451 460.318,-794.665 458.824,-793.215 457.967,-792.297 457.253,-793.358 453.954,-795.581 449.915,-796.397 446.019,-795.64 442.796,-793.569 440.544,-790.479 439.573,-786.721 439.588,-787.03 439.588,-787.029 " transform="matrix(1, 0, 0, 1, 0, 0)" fill="#004080" fill-opacity="0.50" stroke="#004080" stroke-width="1" stroke-opacity="0.10" fill-rule="winding" ub:uuid="be21715b-683d-42f1-9588-f3e026223346" ub:parent="a9d0bf7e-71fd-4ef5-821d-01c7cdd94395"/>
        <polygon points="459.537,-821.699 460.839,-822.401 462.516,-823.162 464.296,-823.798 466.021,-824.244 467.555,-824.523 469.257,-824.744 470.738,-824.862 472.448,-824.914 473.832,-824.888 475.112,-824.806 476.393,-824.663 477.677,-824.454 478.883,-824.191 479.997,-823.874 480.99,-823.515 481.934,-823.102 482.828,-822.644 483.904,-821.999 484.816,-821.365 484.816,-821.366 486.637,-819.74 488.032,-817.73 488.103,-817.547 487.685,-817.564 486.054,-817.456 484.493,-817.145 483.053,-816.667 481.765,-816.067 480.607,-815.372 479.297,-814.472 477.864,-813.437 476.564,-812.444 475.551,-811.556 474.655,-810.646 474.611,-810.594 474.87,-812.584 474.055,-816.623 471.831,-819.921 468.533,-822.145 464.494,-822.96 461.576,-822.544 459.266,-821.504 459.534,-821.7 459.537,-821.699 470.205,-803.953 470.145,-803.85 470.12,-803.839 469.76,-803.639 470.007,-803.793 470.008,-803.792 470.205,-803.953 459.537,-821.699 " transform="matrix(1, 0, 0, 1, 0, 0)" fill="#004080" fill-opacity="0.50" stroke="#004080" stroke-width="1" stroke-opacity="0.10" fill-rule="winding" ub:uuid="d8a44f6b-6628-4133-91f1-ba7bcfc983fc" ub:parent="a9d0bf7e-71fd-4ef5-821d-01c7cdd94395"/>
        <polygon points="485.585,-820.771 486.589,-819.907 487.752,-818.756 488.767,-817.635 488.917,-817.452 488.91,-817.452 488.635,-817.524 488.635,-817.524 488.103,-817.547 488.032,-817.73 486.637,-819.74 485.283,-820.949 485.586,-820.771 485.585,-820.771 " transform="matrix(1, 0, 0, 1, 0, 0)" fill="#004080" fill-opacity="0.50" stroke="#004080" stroke-width="1" stroke-opacity="0.10" fill-rule="winding" ub:uuid="92cb429a-acaf-4704-9072-90e5657bff5e" ub:parent="a9d0bf7e-71fd-4ef5-821d-01c7cdd94395"/>
        <polygon points="443.853,-803.468 444.29,-805.368 445.257,-809.084 446.516,-813.433 447.275,-815.732 447.947,-817.494 448.87,-819.803 450.783,-824.569 452.326,-828.08 453.594,-830.634 454.793,-832.797 456.138,-835.124 457.63,-837.648 458.645,-839.239 459.354,-840.241 459.353,-840.241 460.977,-842.03 462.976,-843.4 465.274,-844.277 467.797,-844.586 471.836,-843.77 475.134,-841.547 477.358,-838.249 478.174,-834.21 477.664,-830.988 476.241,-828.178 476.241,-828.179 475.912,-827.728 475.37,-826.88 474.181,-824.866 473.832,-824.888 472.448,-824.914 470.738,-824.862 469.257,-824.744 467.555,-824.523 466.021,-824.244 464.296,-823.798 462.516,-823.162 460.839,-822.401 459.537,-821.699 459.534,-821.7 459.266,-821.504 458.98,-821.375 458.981,-821.374 457.752,-820.6 456.368,-819.639 454.977,-818.587 453.247,-817.142 451.947,-815.945 450.654,-814.634 449.344,-813.104 448.133,-811.473 447.028,-809.766 445.986,-807.927 444.785,-805.512 443.853,-803.468 " transform="matrix(1, 0, 0, 1, 0, 0)" fill="#004080" fill-opacity="0.50" stroke="#004080" stroke-width="1" stroke-opacity="0.10" fill-rule="winding" ub:uuid="7e198560-a28e-4982-bb8d-dbc6c0896c48" ub:parent="a9d0bf7e-71fd-4ef5-821d-01c7cdd94395"/>
        <polygon points="459.653,-840.639 460.345,-841.509 461.294,-842.582 462.317,-843.591 463.405,-844.491 464.341,-845.138 465.346,-845.723 466.412,-846.233 467.525,-846.656 468.67,-846.985 469.828,-847.217 470.983,-847.353 472.187,-847.396 473.544,-847.322 475.029,-847.08 476.534,-846.649 478.006,-846.024 479.39,-845.221 480.637,-844.276 481.316,-843.647 481.316,-843.647 483.64,-840.303 484.494,-836.172 483.679,-832.134 481.455,-828.835 478.157,-826.612 474.813,-825.936 475.37,-826.88 475.912,-827.728 476.079,-827.957 476.287,-828.224 476.376,-828.328 476.399,-828.348 476.273,-828.241 477.664,-830.988 478.174,-834.21 477.358,-838.249 475.134,-841.547 471.836,-843.77 467.797,-844.586 465.274,-844.277 462.976,-843.4 460.977,-842.03 459.556,-840.465 459.653,-840.639 459.653,-840.639 " transform="matrix(1, 0, 0, 1, 0, 0)" fill="#004080" fill-opacity="0.50" stroke="#004080" stroke-width="1" stroke-opacity="0.10" fill-rule="winding" ub:uuid="d1f0fbff-7b32-4df2-bdbb-dece1323f65e" ub:parent="a9d0bf7e-71fd-4ef5-821d-01c7cdd94395"/>
        <polygon points="482.089,-842.815 482.635,-842.139 483.552,-840.75 484.204,-839.508 484.871,-838.091 485.669,-836.256 486.339,-834.573 486.853,-833.039 487.267,-831.538 487.632,-829.909 488.013,-827.679 488.294,-825.269 488.468,-822.774 488.545,-820.182 488.531,-817.895 487.752,-818.756 486.589,-819.907 485.585,-820.771 485.586,-820.771 485.283,-820.949 484.816,-821.366 484.816,-821.365 483.904,-821.999 482.828,-822.644 481.934,-823.102 480.99,-823.515 479.997,-823.874 478.883,-824.191 477.677,-824.454 476.393,-824.663 475.112,-824.806 474.181,-824.866 474.813,-825.936 478.157,-826.612 481.455,-828.835 483.679,-832.134 484.494,-836.172 483.64,-840.303 481.662,-843.148 482.09,-842.815 482.089,-842.815 476.079,-827.957 476.241,-828.179 476.241,-828.178 476.273,-828.241 476.399,-828.348 476.376,-828.328 476.287,-828.224 476.079,-827.957 482.089,-842.815 470.145,-803.85 468.674,-801.357 468.457,-801.214 468.456,-801.214 468.282,-801.066 468.128,-800.987 468.129,-800.987 466.398,-799.738 466.487,-800.976 466.488,-800.975 466.515,-801.158 466.861,-801.479 467.959,-802.396 468.539,-802.831 469.196,-803.288 469.76,-803.639 470.12,-803.839 470.145,-803.85 482.089,-842.815 " transform="matrix(1, 0, 0, 1, 0, 0)" fill="#004080" fill-opacity="0.50" stroke="#004080" stroke-width="1" stroke-opacity="0.10" fill-rule="winding" ub:uuid="2b5b92e2-73fe-4504-8dd4-35cad86fe7ad" ub:parent="a9d0bf7e-71fd-4ef5-821d-01c7cdd94395"/>
        <polygon points="466.398,-799.738 466.345,-799.7 466.24,-799.618 466.514,-801.151 466.488,-800.975 466.487,-800.976 466.398,-799.738 " transform="matrix(1, 0, 0, 1, 0, 0)" fill="#004080" fill-opacity="0.50" stroke="#004080" stroke-width="1" stroke-opacity="0.10" fill-rule="winding" ub:uuid="c5221013-031c-4565-b19b-8ad2aad012bb" ub:parent="a9d0bf7e-71fd-4ef5-821d-01c7cdd94395"/>
        <polygon points="439.616,-787.306 439.51,-788.411 439.315,-791.324 439.262,-793.353 439.314,-795.394 439.506,-798.466 439.909,-802.989 439.908,-802.99 440.958,-806.704 443.219,-809.705 445.931,-811.413 445.257,-809.084 444.29,-805.368 443.853,-803.468 443.699,-803.132 442.696,-800.736 441.755,-798.239 441.106,-796.151 440.59,-794.091 440.179,-791.99 439.86,-789.79 439.616,-787.306 " transform="matrix(1, 0, 0, 1, 0, 0)" fill="#004080" fill-opacity="0.50" stroke="#004080" stroke-width="1" stroke-opacity="0.10" fill-rule="winding" ub:uuid="5d7506ad-3e11-4411-9e16-9b57e5c9a28e" ub:parent="a9d0bf7e-71fd-4ef5-821d-01c7cdd94395"/>
        <polygon points="439.937,-803.268 440.3,-806.38 440.629,-808.521 441.036,-810.631 442.05,-816.1 442.876,-820.007 443.468,-822.261 444.318,-824.963 445.283,-827.616 447.028,-833.154 447.842,-835.516 448.424,-836.955 449.005,-838.201 449.669,-839.434 450.413,-840.631 451.236,-841.784 452.137,-842.884 453.09,-843.904 454.327,-845.002 455.155,-845.593 455.154,-845.594 457.889,-846.921 461.001,-847.396 465.04,-846.581 465.911,-845.993 465.346,-845.723 464.341,-845.138 463.405,-844.491 462.317,-843.591 461.294,-842.582 460.345,-841.509 459.653,-840.639 459.653,-840.639 459.556,-840.465 459.353,-840.241 459.354,-840.241 458.645,-839.239 457.63,-837.648 456.138,-835.124 454.793,-832.797 453.594,-830.634 452.326,-828.08 450.783,-824.569 448.87,-819.803 447.947,-817.494 447.275,-815.732 446.516,-813.433 445.931,-811.413 443.219,-809.705 440.958,-806.704 439.924,-803.045 439.936,-803.269 439.937,-803.268 " transform="matrix(1, 0, 0, 1, 0, 0)" fill="#004080" fill-opacity="0.50" stroke="#004080" stroke-width="1" stroke-opacity="0.10" fill-rule="winding" ub:uuid="95315d8c-8e6b-43b1-8ac8-8ad1aa726416" ub:parent="a9d0bf7e-71fd-4ef5-821d-01c7cdd94395"/>
        <polygon points="456.36,-846.301 457.313,-846.749 458.983,-847.314 460.674,-847.64 462.315,-847.742 463.859,-847.654 465.28,-847.419 466.577,-847.075 467.638,-846.689 467.525,-846.656 466.412,-846.233 465.911,-845.993 465.04,-846.581 461.001,-847.396 457.889,-846.921 455.738,-845.877 456.358,-846.302 456.36,-846.301 " transform="matrix(1, 0, 0, 1, 0, 0)" fill="#004080" fill-opacity="0.50" stroke="#004080" stroke-width="1" stroke-opacity="0.10" fill-rule="winding" ub:uuid="5ec0366c-bea2-4782-9dfe-318cb185b8f2" ub:parent="a9d0bf7e-71fd-4ef5-821d-01c7cdd94395"/>
        <polygon points="466.24,-799.618 464.36,-798.155 464.255,-798.068 464.368,-798.295 464.779,-799.015 465.196,-799.66 465.576,-800.174 465.925,-800.581 466.363,-801.017 466.515,-801.158 466.514,-801.151 466.24,-799.618 " transform="matrix(1, 0, 0, 1, 0, 0)" fill="#004080" fill-opacity="0.50" stroke="#004080" stroke-width="1" stroke-opacity="0.10" fill-rule="winding" ub:uuid="8cf399ff-d096-4b1b-8385-8a77f4bf457a" ub:parent="a9d0bf7e-71fd-4ef5-821d-01c7cdd94395"/>
        <polygon points="458.748,-847.235 459.687,-849.168 460.789,-851.007 462.054,-852.717 463.487,-854.301 465.07,-855.734 466.78,-856.998 468.31,-857.928 469.07,-858.335 469.068,-858.336 471.349,-859.198 473.85,-859.502 477.889,-858.686 481.187,-856.463 483.411,-853.164 484.226,-849.125 483.82,-846.239 482.676,-843.666 482.02,-842.87 481.662,-843.148 481.316,-843.647 481.316,-843.647 480.637,-844.276 479.39,-845.221 478.006,-846.024 476.534,-846.649 475.029,-847.08 473.544,-847.322 472.187,-847.396 470.983,-847.353 469.828,-847.217 468.67,-846.985 467.638,-846.689 466.577,-847.075 465.28,-847.419 463.859,-847.654 462.315,-847.742 460.674,-847.64 458.983,-847.314 458.748,-847.235 " transform="matrix(1, 0, 0, 1, 0, 0)" fill="#004080" fill-opacity="0.50" stroke="#004080" stroke-width="1" stroke-opacity="0.10" fill-rule="winding" ub:uuid="8f6a86f9-6917-4bfc-b8d9-aa77c3d1fdba" ub:parent="a9d0bf7e-71fd-4ef5-821d-01c7cdd94395"/>
        <polygon points="469.647,-858.612 470.467,-858.961 471.884,-859.42 473.459,-859.733 475.164,-859.848 476.939,-859.722 478.698,-859.34 480.353,-858.723 481.84,-857.925 483.126,-857.008 484.396,-855.843 485.647,-854.447 486.911,-852.737 488.221,-850.486 490.315,-845.839 491.215,-843.286 492.022,-839.902 493.474,-829.065 493.733,-822.363 493.368,-816.312 493.368,-816.311 493.337,-816.192 492.317,-816.667 490.878,-817.145 489.979,-817.346 489.981,-817.347 488.917,-817.452 488.767,-817.635 488.531,-817.895 488.545,-820.182 488.468,-822.774 488.294,-825.269 488.013,-827.679 487.632,-829.909 487.267,-831.538 486.853,-833.039 486.339,-834.573 485.669,-836.256 484.871,-838.091 484.204,-839.508 483.552,-840.75 482.635,-842.139 482.089,-842.815 482.09,-842.815 482.02,-842.87 482.676,-843.666 483.82,-846.239 484.226,-849.125 483.411,-853.164 481.187,-856.463 477.889,-858.686 473.85,-859.502 471.349,-859.198 469.405,-858.464 469.644,-858.614 469.647,-858.612 " transform="matrix(1, 0, 0, 1, 0, 0)" fill="#004080" fill-opacity="0.50" stroke="#004080" stroke-width="1" stroke-opacity="0.10" fill-rule="winding" ub:uuid="d8b74d42-f726-4f18-9bf7-05f71dad8ac0" ub:parent="a9d0bf7e-71fd-4ef5-821d-01c7cdd94395"/>
        <polygon points="458.279,-847.076 458.604,-847.867 461.562,-853.749 462.921,-855.913 464.13,-857.454 465.155,-858.562 466.149,-859.48 467.211,-860.287 468.401,-861.019 469.709,-861.643 471.108,-862.129 472.559,-862.456 474.021,-862.617 475.45,-862.618 476.816,-862.477 478.006,-862.241 478.973,-861.974 479.841,-861.681 480.432,-861.449 480.434,-861.451 483.065,-859.913 485.128,-857.696 486.473,-854.947 486.787,-852.904 485.647,-854.447 484.396,-855.843 483.126,-857.008 481.84,-857.925 480.353,-858.723 478.698,-859.34 476.939,-859.722 475.164,-859.848 473.459,-859.733 471.884,-859.42 470.467,-858.961 469.647,-858.612 469.644,-858.614 469.405,-858.464 469.068,-858.336 469.07,-858.335 468.31,-857.928 466.78,-856.998 465.07,-855.734 463.487,-854.301 462.054,-852.717 460.789,-851.007 459.687,-849.168 458.748,-847.235 458.279,-847.076 " transform="matrix(1, 0, 0, 1, 0, 0)" fill="#004080" fill-opacity="0.50" stroke="#004080" stroke-width="1" stroke-opacity="0.10" fill-rule="winding" ub:uuid="aa720d65-1bc4-4357-8c5e-6b34826d852c" ub:parent="a9d0bf7e-71fd-4ef5-821d-01c7cdd94395"/>
        <polygon points="480.959,-861.221 481.534,-860.949 482.349,-860.513 483.136,-860.033 483.892,-859.515 484.823,-858.785 486.014,-857.688 487.444,-856.101 489.004,-854.014 490.534,-851.543 491.797,-848.894 493.029,-845.332 494.465,-838.979 495.301,-832.053 495.454,-818.481 495.188,-815.052 494.805,-815.344 493.606,-816.067 493.337,-816.192 493.368,-816.311 493.368,-816.312 493.733,-822.363 493.474,-829.065 492.022,-839.902 491.215,-843.286 490.315,-845.839 488.221,-850.486 486.911,-852.737 486.787,-852.904 486.473,-854.947 485.128,-857.696 483.065,-859.913 480.634,-861.334 480.961,-861.223 480.959,-861.221 " transform="matrix(1, 0, 0, 1, 0, 0)" fill="#004080" fill-opacity="0.50" stroke="#004080" stroke-width="1" stroke-opacity="0.10" fill-rule="winding" ub:uuid="4762e455-8910-4aba-b99e-36fd802d7da2" ub:parent="a9d0bf7e-71fd-4ef5-821d-01c7cdd94395"/>
        <polygon points="495.361,-826.8 495.663,-826.235 496.224,-822.861 495.448,-819.018 495.361,-826.8 " transform="matrix(1, 0, 0, 1, 0, 0)" fill="#004080" fill-opacity="0.50" stroke="#004080" stroke-width="1" stroke-opacity="0.10" fill-rule="winding" ub:uuid="ed554ce0-b44a-40e6-b5d9-892929b56824" ub:parent="a9d0bf7e-71fd-4ef5-821d-01c7cdd94395"/>
        <polygon points="495.357,-827.155 495.831,-826.285 496.742,-824.129 497.616,-821.376 498.368,-817.877 498.853,-813.265 498.853,-810.985 498.735,-811.198 497.984,-812.307 497.07,-813.401 495.986,-814.444 495.188,-815.052 495.454,-818.481 495.448,-819.018 496.224,-822.861 495.663,-826.235 495.361,-826.8 495.357,-827.155 " transform="matrix(1, 0, 0, 1, 0, 0)" fill="#004080" fill-opacity="0.50" stroke="#004080" stroke-width="1" stroke-opacity="0.10" fill-rule="winding" ub:uuid="cffea1fc-de63-4b88-b569-bc1f6a0af7cd" ub:parent="a9d0bf7e-71fd-4ef5-821d-01c7cdd94395"/>
    </g>
    <g ub:z-value="-999993" ub:fill-on-dark-background="#66c0ff" ub:fill-on-light-background="#004080" ub:uuid="46470bf6-3213-49ad-9405-0e471854c551" ub:layer="-1000">
        <polygon points="559.411,-764.386 557.234,-764.396 555.964,-764.477 555.065,-764.597 554.16,-764.771 553.253,-765.001 552.352,-765.289 551.463,-765.634 550.594,-766.035 549.752,-766.489 548.943,-766.993 548.172,-767.542 547.444,-768.129 546.762,-768.749 546.126,-769.396 545.369,-770.274 544.5,-771.447 543.634,-772.862 542.909,-774.311 542.462,-775.405 542.46,-775.401 541.72,-779.259 542.535,-783.297 544.759,-786.596 548.057,-788.819 552.096,-789.635 555.229,-789.153 557.978,-787.808 560.195,-785.746 561.731,-783.116 561.73,-783.112 561.836,-782.822 561.795,-782.905 561.689,-783.075 561.65,-783.142 561.334,-783.518 561.157,-783.698 560.95,-783.886 560.715,-784.075 560.454,-784.26 560.173,-784.436 559.875,-784.596 559.568,-784.738 559.259,-784.858 558.954,-784.955 558.662,-785.03 558.387,-785.082 558.137,-785.116 557.533,-785.146 559.498,-785.138 559.498,-785.138 563.521,-784.311 566.806,-782.085 569.019,-778.792 569.831,-774.762 569.015,-770.723 566.792,-767.425 563.493,-765.201 559.454,-764.386 559.411,-764.386 559.411,-764.386 " transform="matrix(1, 0, 0, 1, 0, 0)" fill="#004080" fill-opacity="0.50" stroke="#004080" stroke-width="1" stroke-opacity="0.10" fill-rule="winding" ub:uuid="dfb33717-40a6-4f7d-9dd5-938150a35477" ub:parent="46470bf6-3213-49ad-9405-0e471854c551"/>
        <polygon points="542.157,-776.277 541.822,-777.434 541.489,-779.103 541.319,-780.783 541.303,-782.252 541.364,-783.493 541.484,-784.696 541.663,-785.889 541.903,-787.087 542.226,-788.355 542.641,-789.663 543.158,-791.035 543.94,-792.833 544.878,-794.737 545.671,-796.178 546.485,-797.519 547.353,-798.821 548.314,-800.133 549.574,-801.7 550.723,-803.038 550.723,-803.038 554.191,-805.672 556.301,-806.394 558.59,-806.648 562.629,-805.832 565.927,-803.608 568.151,-800.31 568.966,-796.271 568.298,-792.6 566.456,-789.504 566.456,-789.505 565.53,-788.431 564.723,-787.429 564.37,-786.942 563.993,-786.377 563.631,-785.781 563.318,-785.216 562.931,-784.432 560.693,-784.892 560.195,-785.746 557.978,-787.808 555.229,-789.153 552.096,-789.635 548.057,-788.819 544.759,-786.596 542.535,-783.297 541.72,-779.259 542.383,-775.803 542.156,-776.272 542.157,-776.277 560.693,-784.892 561.731,-783.116 561.73,-783.112 561.836,-782.822 561.795,-782.905 561.689,-783.075 561.65,-783.142 561.334,-783.518 561.157,-783.698 560.95,-783.886 560.715,-784.075 560.454,-784.26 560.173,-784.436 559.875,-784.596 559.568,-784.738 559.259,-784.858 558.954,-784.955 558.662,-785.03 558.387,-785.082 558.137,-785.116 557.533,-785.146 559.498,-785.138 559.498,-785.138 560.693,-784.892 542.157,-776.277 " transform="matrix(1, 0, 0, 1, 0, 0)" fill="#004080" fill-opacity="0.50" stroke="#004080" stroke-width="1" stroke-opacity="0.10" fill-rule="winding" ub:uuid="661aeb91-996a-4e82-ba9e-c078b7670325" ub:parent="46470bf6-3213-49ad-9405-0e471854c551"/>
        <polygon points="550.952,-803.295 552.121,-804.564 553.461,-805.914 554.628,-806.973 555.786,-807.921 556.99,-808.81 558.23,-809.638 559.488,-810.394 560.749,-811.077 562.05,-811.698 563.406,-812.252 564.875,-812.739 566.251,-813.097 568.032,-813.543 569.749,-813.957 571.565,-814.236 573.289,-814.322 575.014,-814.236 576.462,-814.028 577.297,-813.852 577.299,-813.854 580.519,-812.529 583.085,-810.256 584.782,-807.252 585.395,-803.729 584.58,-799.69 582.356,-796.392 579.058,-794.168 575.019,-793.353 573.507,-793.52 574.063,-793.657 573.63,-793.586 573.289,-793.569 572.949,-793.586 572.903,-793.586 572.812,-793.596 572.741,-793.606 572.739,-793.604 572.812,-793.596 572.884,-793.586 572.903,-793.586 573.507,-793.52 573.013,-793.397 571.335,-792.978 570.627,-792.8 570.643,-792.802 570.478,-792.734 570.187,-792.594 569.789,-792.378 569.334,-792.105 568.915,-791.826 568.527,-791.54 568.163,-791.242 567.878,-790.987 567.134,-790.236 566.345,-789.376 566.456,-789.505 566.456,-789.504 568.298,-792.6 568.966,-796.271 568.151,-800.31 565.927,-803.608 562.629,-805.832 558.59,-806.648 556.301,-806.394 554.191,-805.672 550.851,-803.136 550.952,-803.295 550.952,-803.295 " transform="matrix(1, 0, 0, 1, 0, 0)" fill="#004080" fill-opacity="0.50" stroke="#004080" stroke-width="1" stroke-opacity="0.10" fill-rule="winding" ub:uuid="8ada8d90-bc43-49eb-bd40-adc073faedb8" ub:parent="46470bf6-3213-49ad-9405-0e471854c551"/>
        <polygon points="578.035,-813.658 578.866,-813.392 580.135,-812.865 581.321,-812.233 582.408,-811.519 583.393,-810.743 584.276,-809.925 585.063,-809.08 585.763,-808.219 586.509,-807.163 587.286,-805.888 587.987,-804.596 588.608,-803.296 589.162,-801.939 589.635,-800.52 589.988,-799.135 590.237,-797.835 590.412,-796.552 590.523,-795.272 590.57,-794.213 590.57,-794.215 590.579,-793.781 589.763,-789.742 587.54,-786.444 584.242,-784.22 580.203,-783.405 576.258,-784.181 573.009,-786.303 570.765,-789.461 570.035,-792.512 570.187,-792.594 570.478,-792.734 570.643,-792.802 570.627,-792.8 571.335,-792.978 573.013,-793.397 573.507,-793.52 575.019,-793.353 579.058,-794.168 582.356,-796.392 584.58,-799.69 585.395,-803.729 584.782,-807.252 583.085,-810.256 580.519,-812.529 577.623,-813.721 578.037,-813.66 578.035,-813.658 573.507,-793.52 574.063,-793.657 573.63,-793.586 573.289,-793.569 572.949,-793.586 572.903,-793.586 573.507,-793.52 578.035,-813.658 572.903,-793.586 572.812,-793.596 572.884,-793.586 572.903,-793.586 578.035,-813.658 572.812,-793.596 572.741,-793.606 572.739,-793.604 572.812,-793.596 578.035,-813.658 " transform="matrix(1, 0, 0, 1, 0, 0)" fill="#004080" fill-opacity="0.50" stroke="#004080" stroke-width="1" stroke-opacity="0.10" fill-rule="winding" ub:uuid="1c44f7f1-b0ec-4e16-96e8-e50aefbf9014" ub:parent="46470bf6-3213-49ad-9405-0e471854c551"/>
        <polygon points="590.579,-793.729 590.566,-792.484 590.44,-790.85 590.2,-789.227 589.86,-787.64 589.457,-786.17 588.427,-782.753 588.325,-782.299 587.863,-780.366 587.27,-778.608 586.569,-777.039 585.623,-775.347 584.533,-773.746 583.309,-772.19 581.536,-769.974 579.653,-767.663 578.47,-766.362 577.366,-765.258 576.214,-764.203 575.192,-763.345 575.193,-763.345 572.138,-761.57 568.534,-760.927 564.495,-761.743 561.196,-763.966 560.739,-764.645 563.493,-765.201 566.792,-767.425 569.015,-770.723 569.831,-774.762 569.019,-778.792 566.806,-782.085 565.407,-783.033 567.074,-785.117 567.899,-786.155 567.919,-786.183 567.778,-785.587 568.068,-786.481 568.008,-786.32 567.986,-786.283 567.919,-786.183 568.146,-787.147 568.494,-788.527 569.556,-792.054 569.618,-792.276 569.789,-792.378 570.035,-792.512 570.765,-789.461 573.009,-786.303 576.258,-784.181 580.203,-783.405 584.242,-784.22 587.54,-786.444 589.763,-789.742 590.579,-793.781 590.579,-793.729 590.579,-793.729 " transform="matrix(1, 0, 0, 1, 0, 0)" fill="#004080" fill-opacity="0.50" stroke="#004080" stroke-width="1" stroke-opacity="0.10" fill-rule="winding" ub:uuid="6df75deb-e850-4403-a16b-3d963b253083" ub:parent="46470bf6-3213-49ad-9405-0e471854c551"/>
        <polygon points="574.837,-763.061 573.774,-762.251 572.491,-761.355 571.076,-760.458 569.206,-759.402 567.638,-758.619 566.075,-757.942 564.465,-757.352 562.82,-756.859 561.111,-756.461 559.279,-756.143 556.645,-755.704 554.338,-755.331 552.535,-755.148 550.807,-755.09 549.08,-755.148 547.355,-755.321 545.592,-755.619 543.787,-756.071 542.441,-756.526 542.439,-756.524 539.634,-758.012 537.425,-760.253 535.978,-763.082 535.459,-766.331 536.275,-770.37 538.498,-773.669 541.797,-775.892 542.291,-775.992 542.383,-775.803 542.46,-775.401 542.462,-775.405 542.909,-774.311 543.634,-772.862 544.5,-771.447 545.369,-770.274 546.126,-769.396 546.762,-768.749 547.444,-768.129 548.172,-767.542 548.943,-766.993 549.752,-766.489 550.594,-766.035 551.463,-765.634 552.352,-765.289 553.253,-765.001 554.16,-764.771 555.065,-764.597 555.964,-764.477 557.234,-764.396 559.411,-764.386 559.411,-764.386 559.454,-764.386 560.739,-764.645 561.196,-763.966 564.495,-761.743 568.534,-760.927 572.138,-761.57 574.962,-763.212 574.837,-763.061 574.837,-763.061 " transform="matrix(1, 0, 0, 1, 0, 0)" fill="#004080" fill-opacity="0.50" stroke="#004080" stroke-width="1" stroke-opacity="0.10" fill-rule="winding" ub:uuid="cbd8b593-4a1b-4819-9175-d3b20efcb354" ub:parent="46470bf6-3213-49ad-9405-0e471854c551"/>
        <polygon points="541.512,-756.899 540.444,-757.392 539.338,-757.995 538.489,-758.528 537.673,-759.105 536.893,-759.722 536.139,-760.392 535.406,-761.125 534.704,-761.923 534.041,-762.786 533.428,-763.714 532.874,-764.7 532.39,-765.738 531.984,-766.816 531.658,-767.937 531.42,-769.087 531.274,-770.226 531.212,-771.329 531.223,-772.393 531.27,-773.124 531.27,-773.124 532.277,-776.902 534.532,-779.962 537.744,-782.012 541.325,-782.704 541.303,-782.252 541.319,-780.783 541.489,-779.103 541.822,-777.434 542.157,-776.277 542.156,-776.272 542.291,-775.992 541.797,-775.892 538.498,-773.669 536.275,-770.37 535.459,-766.331 535.978,-763.082 537.425,-760.253 539.634,-758.012 542.125,-756.69 541.51,-756.897 541.512,-756.899 " transform="matrix(1, 0, 0, 1, 0, 0)" fill="#004080" fill-opacity="0.50" stroke="#004080" stroke-width="1" stroke-opacity="0.10" fill-rule="winding" ub:uuid="9c373b08-7c11-47ed-96e2-a1f956384f4e" ub:parent="46470bf6-3213-49ad-9405-0e471854c551"/>
        <polygon points="531.365,-773.962 531.591,-775.355 532.041,-777.162 532.598,-778.848 533.236,-780.444 533.961,-781.997 534.767,-783.509 535.654,-784.988 536.635,-786.455 537.788,-788.004 539.503,-790.068 541.473,-792.197 543.614,-794.308 545.661,-796.16 544.878,-794.737 543.94,-792.833 543.158,-791.035 542.641,-789.663 542.226,-788.355 541.903,-787.087 541.663,-785.889 541.484,-784.696 541.364,-783.493 541.325,-782.704 537.744,-782.012 534.532,-779.962 532.277,-776.902 531.312,-773.281 531.363,-773.964 531.365,-773.962 568.172,-787.249 566.101,-785.762 563.842,-784.094 563.521,-784.311 562.931,-784.432 563.318,-785.216 563.631,-785.781 563.993,-786.377 564.37,-786.942 564.723,-787.429 565.53,-788.431 566.345,-789.376 567.134,-790.236 567.878,-790.987 568.163,-791.242 568.527,-791.54 568.915,-791.826 569.334,-792.105 569.618,-792.276 569.556,-792.054 568.494,-788.527 568.172,-787.249 531.365,-773.962 " transform="matrix(1, 0, 0, 1, 0, 0)" fill="#004080" fill-opacity="0.50" stroke="#004080" stroke-width="1" stroke-opacity="0.10" fill-rule="winding" ub:uuid="ecfffd1c-e5bb-4159-bec5-de85997d9cab" ub:parent="46470bf6-3213-49ad-9405-0e471854c551"/>
        <polygon points="580.692,-812.568 581.931,-812.506 583.379,-812.299 584.527,-812.048 585.559,-811.744 586.637,-811.338 587.675,-810.854 588.661,-810.3 589.285,-809.896 589.286,-809.896 591.194,-808.268 592.66,-806.228 593.602,-803.858 593.934,-801.243 593.118,-797.204 590.895,-793.906 590.578,-793.693 590.579,-793.729 590.579,-793.729 590.579,-793.781 590.57,-794.215 590.57,-794.213 590.523,-795.272 590.412,-796.552 590.237,-797.835 589.988,-799.135 589.635,-800.52 589.162,-801.939 588.608,-803.296 587.987,-804.596 587.286,-805.888 586.509,-807.163 585.763,-808.219 585.063,-809.08 584.276,-809.925 583.393,-810.743 582.408,-811.519 581.321,-812.233 580.692,-812.568 " transform="matrix(1, 0, 0, 1, 0, 0)" fill="#004080" fill-opacity="0.50" stroke="#004080" stroke-width="1" stroke-opacity="0.10" fill-rule="winding" ub:uuid="6a916bd7-a2ae-4b04-9ed2-f21ebd1fc799" ub:parent="46470bf6-3213-49ad-9405-0e471854c551"/>
        <polygon points="589.878,-809.472 590.452,-809.024 591.25,-808.322 591.983,-807.59 592.826,-806.623 593.658,-805.517 594.327,-804.485 594.811,-803.624 595.255,-802.713 595.651,-801.752 595.991,-800.745 596.266,-799.695 596.469,-798.61 596.612,-797.2 596.63,-795.839 596.568,-794.566 596.448,-793.363 596.269,-792.17 596.028,-790.966 595.788,-790.01 595.79,-790.007 594.417,-786.891 592.149,-784.416 589.187,-782.783 588.404,-782.65 588.427,-782.753 589.457,-786.17 589.86,-787.64 590.2,-789.227 590.44,-790.85 590.566,-792.484 590.578,-793.693 590.895,-793.906 593.118,-797.204 593.934,-801.243 593.602,-803.858 592.66,-806.228 591.194,-808.268 589.617,-809.614 589.879,-809.473 589.878,-809.472 " transform="matrix(1, 0, 0, 1, 0, 0)" fill="#004080" fill-opacity="0.50" stroke="#004080" stroke-width="1" stroke-opacity="0.10" fill-rule="winding" ub:uuid="e7bd9ccf-f07b-49de-8914-97ac8d4b128e" ub:parent="46470bf6-3213-49ad-9405-0e471854c551"/>
        <polygon points="595.576,-789.289 595.215,-788.226 594.661,-786.869 594.04,-785.569 593.33,-784.26 592.222,-782.402 590.373,-779.321 589.601,-778.103 588.742,-776.878 587.823,-775.697 586.846,-774.562 585.815,-773.478 584.731,-772.445 583.517,-771.393 581.809,-770.056 581.327,-769.717 581.536,-769.974 583.309,-772.19 584.533,-773.746 585.623,-775.347 586.569,-777.039 587.27,-778.608 587.863,-780.366 588.325,-782.299 588.404,-782.65 589.187,-782.783 592.149,-784.416 594.417,-786.891 595.64,-789.667 595.578,-789.287 595.576,-789.289 565.407,-783.033 564.452,-783.68 564.722,-783.812 565.926,-784.464 567.115,-785.168 567.074,-785.117 565.407,-783.033 595.576,-789.289 567.779,-785.592 567.78,-785.592 567.778,-785.587 567.779,-785.592 595.576,-789.289 " transform="matrix(1, 0, 0, 1, 0, 0)" fill="#004080" fill-opacity="0.50" stroke="#004080" stroke-width="1" stroke-opacity="0.10" fill-rule="winding" ub:uuid="6db1a004-2e18-430f-b35b-0165ccc07505" ub:parent="46470bf6-3213-49ad-9405-0e471854c551"/>
        <polygon points="532.037,-777.147 531.852,-778.69 531.785,-780.282 531.811,-781.75 531.928,-783.724 532.196,-786.456 532.433,-788.274 532.771,-790.15 533.144,-791.745 533.143,-791.747 534.487,-794.926 536.758,-797.456 539.746,-799.127 543.241,-799.73 547.28,-798.915 547.375,-798.851 547.353,-798.821 546.485,-797.519 545.671,-796.178 545.661,-796.16 543.614,-794.308 541.473,-792.197 539.503,-790.068 537.788,-788.004 536.635,-786.455 535.654,-784.988 534.767,-783.509 533.961,-781.997 533.236,-780.444 532.598,-778.848 532.041,-777.162 532.037,-777.147 " transform="matrix(1, 0, 0, 1, 0, 0)" fill="#004080" fill-opacity="0.50" stroke="#004080" stroke-width="1" stroke-opacity="0.10" fill-rule="winding" ub:uuid="ce71a38a-5f4d-43c4-a541-f9bc11f97d43" ub:parent="46470bf6-3213-49ad-9405-0e471854c551"/>
        <polygon points="533.295,-792.311 533.765,-793.874 534.441,-795.742 535.383,-797.946 536.657,-800.718 538.076,-803.63 539.038,-805.438 540.098,-807.212 541.245,-808.934 542.543,-810.684 544.335,-812.839 546.509,-815.28 548.55,-817.437 550.106,-818.979 551.648,-820.413 553.213,-821.774 554.802,-823.061 556.418,-824.273 558.062,-825.407 559.544,-826.344 559.543,-826.344 562.147,-827.522 565.075,-827.941 569.114,-827.125 572.412,-824.901 574.636,-821.603 575.451,-817.564 575.104,-814.891 574.84,-814.244 573.289,-814.322 571.565,-814.236 569.749,-813.957 568.032,-813.543 566.251,-813.097 564.875,-812.739 563.406,-812.252 562.05,-811.698 560.749,-811.077 559.488,-810.394 558.23,-809.638 556.99,-808.81 555.786,-807.921 554.628,-806.973 553.461,-805.914 552.121,-804.564 550.952,-803.295 550.952,-803.295 550.851,-803.136 550.723,-803.038 550.723,-803.038 549.574,-801.7 548.314,-800.133 547.375,-798.851 547.28,-798.915 543.241,-799.73 539.746,-799.127 536.758,-797.456 534.487,-794.926 533.247,-791.995 533.293,-792.313 533.295,-792.311 " transform="matrix(1, 0, 0, 1, 0, 0)" fill="#004080" fill-opacity="0.50" stroke="#004080" stroke-width="1" stroke-opacity="0.10" fill-rule="winding" ub:uuid="9d1afb79-3656-4101-bd61-0a73ad2ec757" ub:parent="46470bf6-3213-49ad-9405-0e471854c551"/>
        <polygon points="559.927,-826.573 560.98,-827.172 562.258,-827.824 563.584,-828.413 564.976,-828.93 566.295,-829.32 567.523,-829.588 568.625,-829.74 569.744,-829.809 570.868,-829.795 571.982,-829.698 573.076,-829.52 574.138,-829.268 575.161,-828.949 576.137,-828.571 577.089,-828.13 578.061,-827.599 579.048,-826.958 580.014,-826.215 580.606,-825.686 580.606,-825.686 583.069,-822.283 583.742,-820.239 583.977,-818.031 583.162,-813.992 582.139,-812.476 581.931,-812.506 580.692,-812.568 580.135,-812.865 578.866,-813.392 578.035,-813.658 578.037,-813.66 577.623,-813.721 577.299,-813.854 577.297,-813.852 576.462,-814.028 575.014,-814.236 574.84,-814.244 575.104,-814.891 575.451,-817.564 574.636,-821.603 572.412,-824.901 569.114,-827.125 565.075,-827.941 562.147,-827.522 559.739,-826.433 559.925,-826.574 559.927,-826.573 " transform="matrix(1, 0, 0, 1, 0, 0)" fill="#004080" fill-opacity="0.50" stroke="#004080" stroke-width="1" stroke-opacity="0.10" fill-rule="winding" ub:uuid="9b846065-cd37-42f2-acef-446d84721eab" ub:parent="46470bf6-3213-49ad-9405-0e471854c551"/>
        <polygon points="581.261,-825.031 581.801,-824.423 582.584,-823.391 583.268,-822.289 583.844,-821.139 584.401,-819.668 584.752,-818.382 585.153,-816.657 585.637,-814.356 585.897,-812.684 585.981,-811.586 585.559,-811.744 584.527,-812.048 583.379,-812.299 582.139,-812.476 583.162,-813.992 583.977,-818.031 583.742,-820.239 583.069,-822.283 580.881,-825.306 581.261,-825.031 581.261,-825.031 567.369,-785.487 566.517,-786.061 568.172,-787.249 568.146,-787.147 567.919,-786.183 567.899,-786.155 567.369,-785.487 581.261,-825.031 567.919,-786.183 567.779,-785.592 567.78,-785.592 568.068,-786.481 568.008,-786.32 567.986,-786.283 567.919,-786.183 581.261,-825.031 " transform="matrix(1, 0, 0, 1, 0, 0)" fill="#004080" fill-opacity="0.50" stroke="#004080" stroke-width="1" stroke-opacity="0.10" fill-rule="winding" ub:uuid="19800e3c-802b-43fa-a8b7-4a0f5bfd8dcb" ub:parent="46470bf6-3213-49ad-9405-0e471854c551"/>
        <polygon points="564.452,-783.68 563.842,-784.094 566.101,-785.762 566.517,-786.061 567.369,-785.487 567.115,-785.168 565.926,-784.464 564.722,-783.812 564.452,-783.68 " transform="matrix(1, 0, 0, 1, 0, 0)" fill="#004080" fill-opacity="0.50" stroke="#004080" stroke-width="1" stroke-opacity="0.10" fill-rule="winding" ub:uuid="e12ccaa6-5a80-4b4a-b46b-12a8403c955a" ub:parent="46470bf6-3213-49ad-9405-0e471854c551"/>
        <polygon points="531.68,-775.712 531.153,-777.32 530.92,-779.518 531.735,-783.557 531.941,-783.863 531.928,-783.724 531.811,-781.75 531.785,-780.282 531.852,-778.69 532.037,-777.147 531.68,-775.712 " transform="matrix(1, 0, 0, 1, 0, 0)" fill="#004080" fill-opacity="0.50" stroke="#004080" stroke-width="1" stroke-opacity="0.10" fill-rule="winding" ub:uuid="58c02250-2af0-4db5-92ad-39a592c83659" ub:parent="46470bf6-3213-49ad-9405-0e471854c551"/>
        <polygon points="531.49,-776.124 531.036,-777.469 530.581,-779.283 530.279,-781.095 530.109,-782.902 530.055,-784.721 530.102,-787.009 530.242,-789.459 530.552,-792.782 531.016,-796.334 531.627,-800.003 532.366,-803.683 532.978,-806.214 533.454,-807.883 533.983,-809.462 534.777,-811.514 536.439,-815.979 538.151,-820.451 538.975,-822.346 539.639,-823.72 539.638,-823.722 541.229,-826.095 543.398,-827.942 546.02,-829.14 548.974,-829.566 553.013,-828.751 556.311,-826.527 557.383,-824.938 556.418,-824.273 554.802,-823.061 553.213,-821.774 551.648,-820.413 550.106,-818.979 548.55,-817.437 546.509,-815.28 544.335,-812.839 542.543,-810.684 541.245,-808.934 540.098,-807.212 539.038,-805.438 538.076,-803.63 536.657,-800.718 535.383,-797.946 534.441,-795.742 533.765,-793.874 533.295,-792.311 533.293,-792.313 533.247,-791.995 533.143,-791.747 533.144,-791.745 532.771,-790.15 532.433,-788.274 532.196,-786.456 531.941,-783.863 531.735,-783.557 530.92,-779.518 531.153,-777.32 531.639,-775.836 531.489,-776.119 531.49,-776.124 " transform="matrix(1, 0, 0, 1, 0, 0)" fill="#004080" fill-opacity="0.50" stroke="#004080" stroke-width="1" stroke-opacity="0.10" fill-rule="winding" ub:uuid="8bc4a217-04ec-4eb9-80f4-b50622fd4745" ub:parent="46470bf6-3213-49ad-9405-0e471854c551"/>
        <polygon points="539.896,-824.215 540.555,-825.399 541.858,-827.572 544.431,-831.858 548.061,-838.244 549.611,-840.809 550.997,-842.854 552.513,-844.92 553.757,-846.441 555.001,-847.809 556.32,-849.101 557.643,-850.242 559.112,-851.399 560.696,-852.587 561.86,-853.4 562.943,-854.06 564.046,-854.602 565.205,-855.048 566.399,-855.387 567.153,-855.539 567.148,-855.54 569.074,-855.719 573.113,-854.903 576.411,-852.68 578.635,-849.381 579.45,-845.342 578.806,-841.735 577.029,-838.679 574.349,-836.405 573.077,-835.926 573.478,-836.204 572.938,-835.874 571.019,-835.152 570.995,-835.146 571,-835.145 571.019,-835.152 571.152,-835.186 571.767,-835.36 572.364,-835.59 572.922,-835.864 572.938,-835.874 573.077,-835.926 572.929,-835.824 571.747,-834.936 570.777,-834.174 570.371,-833.828 569.96,-833.425 569.475,-832.891 568.99,-832.302 567.937,-830.866 567.119,-829.668 567.002,-829.475 566.295,-829.32 564.976,-828.93 563.584,-828.413 562.258,-827.824 560.98,-827.172 559.927,-826.573 559.925,-826.574 559.739,-826.433 559.543,-826.344 559.544,-826.344 558.062,-825.407 557.383,-824.938 556.311,-826.527 553.013,-828.751 548.974,-829.566 546.02,-829.14 543.398,-827.942 541.229,-826.095 539.784,-823.94 539.895,-824.217 539.896,-824.215 " transform="matrix(1, 0, 0, 1, 0, 0)" fill="#004080" fill-opacity="0.50" stroke="#004080" stroke-width="1" stroke-opacity="0.10" fill-rule="winding" ub:uuid="272d5099-8274-481c-b80e-186d7c921c73" ub:parent="46470bf6-3213-49ad-9405-0e471854c551"/>
        <polygon points="568.056,-855.669 568.805,-855.733 569.977,-855.75 571.107,-855.675 572.187,-855.521 573.242,-855.293 574.318,-854.979 575.396,-854.573 576.434,-854.089 577.42,-853.535 578.348,-852.921 579.211,-852.258 580.009,-851.556 580.742,-850.824 581.412,-850.069 582.029,-849.29 582.606,-848.474 583.276,-847.385 584.054,-845.874 584.601,-844.54 584.602,-844.544 585.343,-840.686 584.528,-836.647 582.304,-833.349 579.006,-831.125 574.967,-830.31 571.834,-830.791 569.085,-832.137 568.956,-832.257 568.99,-832.302 569.475,-832.891 569.96,-833.425 570.371,-833.828 570.777,-834.174 571.747,-834.936 572.929,-835.824 573.077,-835.926 574.349,-836.405 577.029,-838.679 578.806,-841.735 579.45,-845.342 578.635,-849.381 576.411,-852.68 573.113,-854.903 569.074,-855.719 567.826,-855.603 568.052,-855.669 568.056,-855.669 573.077,-835.926 573.478,-836.204 572.938,-835.874 573.077,-835.926 568.056,-855.669 572.938,-835.874 571.019,-835.152 571.152,-835.186 571.767,-835.36 572.364,-835.59 572.922,-835.864 572.938,-835.874 568.056,-855.669 571.019,-835.152 570.995,-835.146 571,-835.145 571.019,-835.152 568.056,-855.669 " transform="matrix(1, 0, 0, 1, 0, 0)" fill="#004080" fill-opacity="0.50" stroke="#004080" stroke-width="1" stroke-opacity="0.10" fill-rule="winding" ub:uuid="b1eaef6a-70a8-41de-bb3e-8e87af388b14" ub:parent="46470bf6-3213-49ad-9405-0e471854c551"/>
        <polygon points="584.916,-843.634 585.31,-842.269 585.669,-840.558 585.976,-838.625 586.436,-835.354 586.864,-831.628 587.042,-829.064 587.119,-826.599 587.104,-824.114 586.997,-821.478 586.733,-817.926 586.362,-814.386 585.988,-811.583 585.981,-811.586 585.897,-812.684 585.637,-814.356 585.153,-816.657 584.752,-818.382 584.401,-819.668 583.844,-821.139 583.268,-822.289 582.584,-823.391 581.801,-824.423 581.261,-825.031 581.261,-825.031 580.881,-825.306 580.606,-825.686 580.606,-825.686 580.014,-826.215 579.048,-826.958 578.061,-827.599 577.089,-828.13 576.137,-828.571 575.161,-828.949 574.138,-829.268 573.076,-829.52 571.982,-829.698 570.868,-829.795 569.744,-829.809 568.625,-829.74 567.523,-829.588 567.002,-829.475 567.119,-829.668 567.937,-830.866 568.956,-832.257 569.085,-832.137 571.834,-830.791 574.967,-830.31 579.006,-831.125 582.304,-833.349 584.528,-836.647 585.343,-840.686 584.683,-844.126 584.917,-843.639 584.916,-843.634 " transform="matrix(1, 0, 0, 1, 0, 0)" fill="#004080" fill-opacity="0.50" stroke="#004080" stroke-width="1" stroke-opacity="0.10" fill-rule="winding" ub:uuid="8b3d1be9-5969-4503-af37-8b91265a82cd" ub:parent="46470bf6-3213-49ad-9405-0e471854c551"/>
        <polygon points="530.17,-788.197 530.099,-796.716 530.851,-805.858 531.743,-810.928 536.372,-829.089 541.378,-842.859 543.068,-846.399 546.839,-852.616 549.14,-855.77 551.098,-858.022 553.356,-860.195 555.22,-861.704 556.742,-862.738 558.273,-863.594 559.928,-864.321 561.636,-864.878 563.366,-865.263 565.095,-865.484 566.381,-865.546 566.379,-865.546 566.804,-865.555 570.843,-864.739 574.141,-862.515 576.365,-859.217 577.181,-855.178 576.913,-853.82 576.434,-854.089 575.396,-854.573 574.318,-854.979 573.242,-855.293 572.187,-855.521 571.107,-855.675 569.977,-855.75 568.805,-855.733 568.056,-855.669 568.052,-855.669 567.826,-855.603 567.148,-855.54 567.153,-855.539 566.399,-855.387 565.205,-855.048 564.046,-854.602 562.943,-854.06 561.86,-853.4 560.696,-852.587 559.112,-851.399 557.643,-850.242 556.32,-849.101 555.001,-847.809 553.757,-846.441 552.513,-844.92 550.997,-842.854 549.611,-840.809 548.061,-838.244 544.431,-831.858 541.858,-827.572 540.555,-825.399 539.896,-824.215 539.895,-824.217 539.784,-823.94 539.638,-823.722 539.639,-823.72 538.975,-822.346 538.151,-820.451 536.439,-815.979 534.777,-811.514 533.983,-809.462 533.454,-807.883 532.978,-806.214 532.366,-803.683 531.627,-800.003 531.016,-796.334 530.552,-792.782 530.242,-789.459 530.17,-788.197 " transform="matrix(1, 0, 0, 1, 0, 0)" fill="#004080" fill-opacity="0.50" stroke="#004080" stroke-width="1" stroke-opacity="0.10" fill-rule="winding" ub:uuid="e82f799c-d013-4556-ae17-ad5501e04293" ub:parent="46470bf6-3213-49ad-9405-0e471854c551"/>
        <polygon points="567.227,-865.546 568.09,-865.501 569.412,-865.332 570.754,-865.033 572.089,-864.598 573.39,-864.027 574.628,-863.329 575.777,-862.521 576.821,-861.628 578.428,-859.824 580.966,-856.17 582.265,-854.001 583.454,-851.488 584.605,-848.213 585.518,-844.505 586.112,-840.066 586.136,-837.492 585.976,-838.625 585.669,-840.558 585.31,-842.269 584.916,-843.634 584.917,-843.639 584.683,-844.126 584.602,-844.544 584.601,-844.54 584.054,-845.874 583.276,-847.385 582.606,-848.474 582.029,-849.29 581.412,-850.069 580.742,-850.824 580.009,-851.556 579.211,-852.258 578.348,-852.921 577.42,-853.535 576.913,-853.82 577.181,-855.178 576.365,-859.217 574.141,-862.515 570.843,-864.739 566.804,-865.555 567.228,-865.546 567.227,-865.546 " transform="matrix(1, 0, 0, 1, 0, 0)" fill="#004080" fill-opacity="0.50" stroke="#004080" stroke-width="1" stroke-opacity="0.10" fill-rule="winding" ub:uuid="5fb12b06-a227-46b1-b641-0c250b316ffb" ub:parent="46470bf6-3213-49ad-9405-0e471854c551"/>
    </g>
</svg>
