<?xml version="1.0" encoding="UTF-8"?>
<svg xmlns="http://www.w3.org/2000/svg" xmlns:xlink="http://www.w3.org/1999/xlink" xmlns:ub="http://uniboard.mnemis.com/document" xmlns:xhtml="http://www.w3.org/1999/xhtml" version="1.1" ub:version="4.8.0" ub:uuid="cb9d3a0f-37e9-4bbb-8c61-225de34d4ca7" viewBox="-839 -1047 1639 1966" ub:nominal-size="1343x1738" ub:dark-background="false" ub:crossed-background="true" ub:ruled-background="false" ub:grid-size="55" ub:intermediate-lines="0" pageDpi="158">
    <rect fill="white" x="-839" y="-1047" width="1639" height="1966"/>
    <image xlink:href="images/{18e97473-6972-470c-b041-16a41012328a}.png" x="0" y="0" width="1532" height="85" transform="matrix(1.00436, 0, 0, 1.00436, -788.17, -996.585)" ub:z-value="-999996.000000" ub:background="false" ub:uuid="18e97473-6972-470c-b041-16a41012328a" ub:source="/Users/khale/AppData/Local/OpenBoard/document/OpenBoard Document 2023-05-30 09-06-07.783/images/{18e97473-6972-470c-b041-16a41012328a}.png" ub:layer="-1000"/>
    <g ub:z-value="-999999" ub:fill-on-dark-background="#ffffff" ub:fill-on-light-background="#000000" ub:uuid="c7a9e7de-e094-4e5b-be50-96525f984213" ub:layer="-1000">
        <polygon points="578.948,-816.578 579.453,-818.623 579.537,-819.14 579.552,-819.323 579.558,-819.51 579.553,-819.668 579.539,-819.797 579.519,-819.896 579.498,-819.966 579.497,-819.976 579.559,-819.892 579.678,-819.788 579.781,-819.735 579.819,-819.724 579.775,-819.726 579.649,-819.718 579.454,-819.685 579.234,-819.631 578.514,-819.381 577.3,-818.88 575.772,-818.202 574.73,-817.699 574.455,-817.551 574.197,-817.395 573.581,-816.949 572.972,-816.416 572.347,-815.775 571.698,-815.012 569.862,-812.744 567.388,-809.744 566.19,-808.168 565.451,-807.101 564.377,-805.394 563.001,-802.998 560.931,-799.376 559.604,-796.947 559.013,-795.732 558.164,-793.795 557.403,-791.802 557.014,-790.569 556.723,-789.406 556.533,-788.327 556.439,-787.328 556.432,-786.382 556.495,-784.942 556.576,-784.054 556.69,-783.191 556.835,-782.366 557.012,-781.579 557.219,-780.829 557.457,-780.117 557.724,-779.441 558.025,-778.791 558.163,-778.538 558.329,-778.279 558.517,-778.022 558.729,-777.768 558.966,-777.517 559.204,-777.29 559.837,-776.78 560.576,-776.293 560.923,-776.098 561.275,-775.924 561.609,-775.783 561.925,-775.674 562.222,-775.596 562.5,-775.546 562.762,-775.522 563.007,-775.522 563.197,-775.537 563.82,-775.677 565.193,-776.02 566.915,-776.451 567.195,-776.53 567.452,-776.619 568.109,-776.908 568.793,-777.288 569.531,-777.775 570.323,-778.373 571.082,-779.003 572.061,-779.907 572.544,-780.422 572.944,-780.915 573.068,-781.092 573.18,-781.276 573.28,-781.48 573.374,-781.716 573.46,-781.984 573.529,-782.25 573.653,-782.986 573.713,-783.785 573.684,-785.653 573.576,-786.757 573.476,-787.313 573.348,-787.78 573.301,-787.895 573.214,-788.065 573.092,-788.263 572.957,-788.454 572.502,-788.986 571.935,-789.54 570.781,-790.486 570.042,-790.977 569.732,-791.148 569.412,-791.303 569.111,-791.425 568.829,-791.516 568.568,-791.577 568.443,-791.606 559.98,-791.615 559.78,-791.596 559.528,-791.563 559.286,-791.516 559.054,-791.457 558.831,-791.386 558.616,-791.303 558.409,-791.207 558.208,-791.099 557.978,-790.955 557.979,-790.955 557.655,-790.81 557.293,-790.759 556.376,-791.139 555.996,-792.056 556.607,-793.157 556.607,-793.157 556.905,-793.342 557.249,-793.527 557.603,-793.691 557.968,-793.832 558.341,-793.952 558.723,-794.048 559.113,-794.123 559.509,-794.176 559.975,-794.209 568.46,-794.2 569.053,-794.126 569.526,-794.014 569.997,-793.863 570.466,-793.674 570.932,-793.448 571.427,-793.17 572.348,-792.554 573.641,-791.494 574.388,-790.768 574.971,-790.089 575.251,-789.701 575.475,-789.337 575.665,-788.962 575.825,-788.55 576.008,-787.876 576.15,-787.082 576.276,-785.774 576.307,-783.75 576.229,-782.682 576.076,-781.757 575.955,-781.271 575.816,-780.839 575.651,-780.427 575.457,-780.034 575.24,-779.673 574.992,-779.323 574.493,-778.709 573.869,-778.048 572.799,-777.058 571.933,-776.339 571.03,-775.658 570.142,-775.072 569.269,-774.588 568.439,-774.22 567.979,-774.058 567.558,-773.938 565.822,-773.504 564.428,-773.155 563.658,-772.984 563.13,-772.93 562.641,-772.93 562.15,-772.975 561.659,-773.064 561.169,-773.193 560.681,-773.361 560.194,-773.566 559.707,-773.807 559.198,-774.096 558.311,-774.682 557.526,-775.312 557.132,-775.682 556.79,-776.045 556.475,-776.422 556.188,-776.814 555.929,-777.22 555.695,-777.65 555.34,-778.419 555.019,-779.23 554.737,-780.074 554.495,-780.95 554.291,-781.858 554.126,-782.797 553.997,-783.767 553.906,-784.782 553.839,-786.325 553.849,-787.463 553.963,-788.677 554.187,-789.95 554.519,-791.277 554.96,-792.673 555.764,-794.778 556.653,-796.81 557.308,-798.155 558.669,-800.646 560.75,-804.287 562.15,-806.725 563.28,-808.521 564.098,-809.701 565.364,-811.368 567.854,-814.386 569.693,-816.658 570.427,-817.52 571.186,-818.297 571.96,-818.975 572.728,-819.532 573.162,-819.8 573.578,-820.024 574.689,-820.559 576.275,-821.263 577.577,-821.8 578.447,-822.103 578.919,-822.223 579.346,-822.294 579.775,-822.32 580.214,-822.288 580.667,-822.173 581.117,-821.947 581.512,-821.6 581.781,-821.206 581.936,-820.852 582.036,-820.525 582.103,-820.191 582.141,-819.853 582.152,-819.51 582.141,-819.161 582.105,-818.773 581.982,-818.045 581.466,-815.956 581.466,-815.956 581.013,-815.251 580.207,-814.97 579.29,-815.35 578.91,-816.267 578.947,-816.578 578.948,-816.578 " transform="matrix(1, 0, 0, 1, 0, 0)" fill="#000000" fill-opacity="1.00" fill-rule="winding" ub:uuid="20dda952-e3d4-42ec-b366-fb8dbb4a5531" ub:parent="c7a9e7de-e094-4e5b-be50-96525f984213"/>
    </g>
    <g ub:z-value="-999998" ub:fill-on-dark-background="#ffffff" ub:fill-on-light-background="#000000" ub:uuid="b72d64e9-f1ab-4d12-bf03-a0616817ed44" ub:layer="-1000">
        <polygon points="568.914,-833.509 568.06,-834.362 568.021,-834.397 568.005,-834.407 567.988,-834.414 567.952,-834.422 567.885,-834.426 567.778,-834.418 567.629,-834.391 567.439,-834.337 567.253,-834.268 566.256,-833.783 564.188,-832.748 563.192,-832.241 562.562,-831.85 561.872,-831.348 561.133,-830.738 560.353,-830.023 558.602,-828.281 555.191,-824.869 553.71,-823.313 552.313,-821.689 550.99,-819.988 549.72,-818.187 548.449,-816.228 547.175,-814.115 545.514,-811.135 544.51,-809.202 543.737,-807.581 543.367,-806.712 543.045,-805.827 542.719,-804.768 542.214,-802.812 541.533,-799.599 540.597,-794.917 540.338,-793.57 540.247,-792.681 540.215,-791.624 540.247,-790.425 540.424,-788.302 540.716,-786.016 541.086,-783.723 541.527,-781.451 542.44,-777.832 543.061,-776.043 543.753,-774.478 544.546,-773.073 545.484,-771.737 546.551,-770.49 549.321,-767.855 554.191,-764.118 554.191,-764.118 554.699,-763.089 554.319,-762.172 553.402,-761.792 552.612,-762.06 552.612,-762.06 547.659,-765.863 544.705,-768.667 543.437,-770.144 542.352,-771.687 541.433,-773.317 540.646,-775.098 539.945,-777.122 538.999,-780.87 538.532,-783.269 538.149,-785.645 537.844,-788.028 537.658,-790.263 537.621,-791.624 537.658,-792.849 537.775,-793.966 538.052,-795.421 538.992,-800.12 539.686,-803.393 540.218,-805.458 540.584,-806.647 540.954,-807.664 541.379,-808.662 542.189,-810.362 543.234,-812.372 544.928,-815.41 546.249,-817.603 547.571,-819.64 548.905,-821.531 550.305,-823.332 551.787,-825.054 553.342,-826.689 556.77,-830.117 558.547,-831.885 559.428,-832.692 560.279,-833.396 561.111,-834.001 561.934,-834.509 563.022,-835.065 565.104,-836.107 566.166,-836.624 566.619,-836.798 567.035,-836.916 567.456,-836.993 567.885,-837.02 568.319,-836.99 568.751,-836.893 569.166,-836.727 569.547,-836.495 569.872,-836.219 570.748,-835.343 571.128,-834.426 570.748,-833.509 569.831,-833.129 568.914,-833.509 " transform="matrix(1, 0, 0, 1, 0, 0)" fill="#000000" fill-opacity="1.00" fill-rule="winding" ub:uuid="d61e3943-315e-40c4-8f36-2bdc6e535eeb" ub:parent="b72d64e9-f1ab-4d12-bf03-a0616817ed44"/>
    </g>
    <g ub:z-value="-999997" ub:fill-on-dark-background="#66c0ff" ub:fill-on-light-background="#004080" ub:uuid="fe00f9cb-a943-492d-8fd8-6b648d93dd4e" ub:layer="-1000">
        <polygon points="545.264,-770.689 543.106,-771.78 541.937,-772.467 541.11,-773.04 540.285,-773.698 539.471,-774.451 538.684,-775.306 537.942,-776.266 537.267,-777.327 536.683,-778.477 536.233,-779.622 535.927,-780.648 535.715,-781.601 535.569,-782.545 535.486,-783.474 535.459,-784.382 535.503,-785.539 535.664,-786.947 535.993,-788.55 536.321,-789.676 536.318,-789.679 537.753,-792.638 540.01,-794.979 542.907,-796.518 546.259,-797.071 550.298,-796.256 553.596,-794.032 555.82,-790.734 556.635,-786.695 556.2,-783.711 556.198,-783.713 556.111,-783.457 556.163,-783.71 556.186,-783.839 556.212,-784.382 556.203,-784.693 556.171,-785.042 556.112,-785.425 556.021,-785.833 555.871,-786.332 555.62,-786.966 555.286,-787.623 554.914,-788.209 554.526,-788.711 554.145,-789.125 553.79,-789.454 553.475,-789.706 553.21,-789.89 552.655,-790.205 554.622,-789.212 554.624,-789.213 556.939,-787.613 558.739,-785.457 559.904,-782.864 560.319,-779.95 559.504,-775.911 557.28,-772.613 553.982,-770.389 549.943,-769.574 547.498,-769.864 545.262,-770.687 545.264,-770.689 " transform="matrix(1, 0, 0, 1, 0, 0)" fill="#004080" fill-opacity="0.50" stroke="#004080" stroke-width="1" stroke-opacity="0.10" fill-rule="winding" ub:uuid="8518908e-8a2e-4a9f-9d0a-985fd4058b5f" ub:parent="fe00f9cb-a943-492d-8fd8-6b648d93dd4e"/>
        <polygon points="536.625,-790.549 537.074,-791.645 537.79,-793.079 538.597,-794.425 539.467,-795.671 540.38,-796.82 541.344,-797.901 542.369,-798.925 543.449,-799.889 544.515,-800.739 546.311,-802.086 548.156,-803.469 549.38,-804.299 550.481,-804.931 551.392,-805.375 552.352,-805.771 553.36,-806.111 554.41,-806.386 555.494,-806.589 556.219,-806.678 556.215,-806.678 557.379,-806.743 561.418,-805.927 564.716,-803.704 566.94,-800.405 567.755,-796.366 567.045,-792.584 565.092,-789.425 562.168,-787.159 560.19,-786.556 560.376,-786.696 560.536,-786.8 560.127,-786.557 560.019,-786.504 558.593,-786.07 558.572,-786.066 558.539,-786.055 558.543,-786.055 558.593,-786.07 558.965,-786.139 559.323,-786.233 559.639,-786.34 559.908,-786.45 560.019,-786.504 560.19,-786.556 558.763,-785.484 558.734,-785.463 556.939,-787.613 556.371,-788.006 555.82,-790.734 553.596,-794.032 550.298,-796.256 546.259,-797.071 542.907,-796.518 540.01,-794.979 537.753,-792.638 536.546,-790.148 536.623,-790.551 536.625,-790.549 556.371,-788.006 556.635,-786.695 556.2,-783.711 556.198,-783.713 556.111,-783.457 556.163,-783.71 556.186,-783.839 556.212,-784.382 556.203,-784.693 556.171,-785.042 556.112,-785.425 556.021,-785.833 555.871,-786.332 555.62,-786.966 555.286,-787.623 554.914,-788.209 554.526,-788.711 554.145,-789.125 553.79,-789.454 553.475,-789.706 553.21,-789.89 552.655,-790.205 554.622,-789.212 554.624,-789.213 556.371,-788.006 536.625,-790.549 " transform="matrix(1, 0, 0, 1, 0, 0)" fill="#004080" fill-opacity="0.50" stroke="#004080" stroke-width="1" stroke-opacity="0.10" fill-rule="winding" ub:uuid="97a609ab-d36d-4977-ad5e-4d9247c42f53" ub:parent="fe00f9cb-a943-492d-8fd8-6b648d93dd4e"/>
        <polygon points="557.249,-806.742 558.265,-806.75 559.539,-806.688 560.741,-806.567 561.935,-806.389 563.183,-806.137 564.515,-805.784 565.885,-805.285 566.922,-804.801 567.909,-804.248 568.836,-803.634 569.7,-802.971 570.497,-802.269 571.23,-801.537 572.07,-800.574 573.025,-799.294 573.971,-797.766 574.773,-796.162 575.425,-794.496 575.806,-793.228 575.807,-793.233 576.221,-790.322 575.405,-786.283 573.182,-782.985 569.883,-780.761 565.844,-779.946 562.473,-780.506 560.056,-781.798 559.904,-782.864 558.739,-785.457 558.734,-785.463 558.763,-785.484 560.19,-786.556 562.168,-787.159 565.092,-789.425 567.045,-792.584 567.755,-796.366 566.94,-800.405 564.716,-803.704 561.418,-805.927 557.379,-806.743 557.208,-806.733 557.249,-806.742 557.249,-806.742 560.19,-786.556 560.376,-786.696 560.536,-786.8 560.127,-786.557 560.019,-786.504 560.19,-786.556 557.249,-806.742 560.019,-786.504 558.593,-786.07 558.965,-786.139 559.323,-786.233 559.639,-786.34 559.908,-786.45 560.019,-786.504 557.249,-806.742 558.593,-786.07 558.572,-786.066 558.539,-786.055 558.543,-786.055 558.593,-786.07 557.249,-806.742 " transform="matrix(1, 0, 0, 1, 0, 0)" fill="#004080" fill-opacity="0.50" stroke="#004080" stroke-width="1" stroke-opacity="0.10" fill-rule="winding" ub:uuid="9032394c-57df-480a-8955-3988e13bf376" ub:parent="fe00f9cb-a943-492d-8fd8-6b648d93dd4e"/>
        <polygon points="576.015,-792.377 576.257,-791.147 576.46,-789.516 576.532,-787.841 576.453,-786.119 576.208,-784.402 575.864,-782.943 575.509,-781.758 575.115,-780.63 574.629,-779.423 573.957,-777.973 573.214,-776.536 572.214,-774.736 571.07,-772.809 570.276,-771.589 569.485,-770.482 568.636,-769.408 567.729,-768.379 566.792,-767.434 565.818,-766.532 565.818,-766.532 562.624,-764.516 558.78,-763.781 554.741,-764.596 551.443,-766.82 549.555,-769.62 549.943,-769.574 553.982,-770.389 557.28,-772.613 559.504,-775.911 560.319,-779.95 560.056,-781.798 562.473,-780.506 565.844,-779.946 569.883,-780.761 573.182,-782.985 575.405,-786.283 576.221,-790.322 575.877,-792.74 576.016,-792.382 576.015,-792.377 " transform="matrix(1, 0, 0, 1, 0, 0)" fill="#004080" fill-opacity="0.50" stroke="#004080" stroke-width="1" stroke-opacity="0.10" fill-rule="winding" ub:uuid="9a66a963-50d8-4344-935a-8955ce5bb0ff" ub:parent="fe00f9cb-a943-492d-8fd8-6b648d93dd4e"/>
        <polygon points="565.477,-766.232 564.394,-765.319 563.061,-764.28 561.701,-763.311 560.551,-762.563 559.18,-761.758 557.948,-761.112 556.563,-760.493 555,-759.947 553.361,-759.538 551.667,-759.284 550.072,-759.199 548.733,-759.228 547.527,-759.318 546.328,-759.468 545.141,-759.676 544.037,-759.923 543.091,-760.184 542.222,-760.477 541.632,-760.709 541.629,-760.707 538.998,-762.245 536.936,-764.462 535.59,-767.211 535.109,-770.344 535.924,-774.383 537.579,-776.837 537.942,-776.266 538.684,-775.306 539.471,-774.451 540.285,-773.698 541.11,-773.04 541.937,-772.467 543.106,-771.78 545.264,-770.689 545.262,-770.687 547.498,-769.864 549.555,-769.62 551.443,-766.82 554.741,-764.596 558.78,-763.781 562.624,-764.516 565.606,-766.399 565.478,-766.231 565.477,-766.232 " transform="matrix(1, 0, 0, 1, 0, 0)" fill="#004080" fill-opacity="0.50" stroke="#004080" stroke-width="1" stroke-opacity="0.10" fill-rule="winding" ub:uuid="176ae2ec-5214-4938-ba35-f508efab8e36" ub:parent="fe00f9cb-a943-492d-8fd8-6b648d93dd4e"/>
        <polygon points="541.104,-760.937 540.529,-761.21 539.715,-761.646 538.927,-762.125 538.172,-762.644 537.241,-763.373 536.288,-764.235 535.387,-765.185 534.69,-766.046 534.042,-766.982 533.457,-767.988 532.948,-769.053 532.524,-770.167 532.195,-771.311 531.963,-772.469 531.809,-773.937 531.79,-775.303 531.852,-776.576 531.973,-777.779 532.111,-778.723 532.11,-778.724 533.296,-782.215 535.479,-784.907 535.459,-784.382 535.486,-783.474 535.569,-782.545 535.715,-781.601 535.927,-780.648 536.233,-779.622 536.683,-778.477 537.267,-777.327 537.579,-776.837 535.924,-774.383 535.109,-770.344 535.59,-767.211 536.936,-764.462 538.998,-762.245 541.43,-760.824 541.102,-760.936 541.104,-760.937 " transform="matrix(1, 0, 0, 1, 0, 0)" fill="#004080" fill-opacity="0.50" stroke="#004080" stroke-width="1" stroke-opacity="0.10" fill-rule="winding" ub:uuid="a77c7c36-1b34-45a8-bb03-7aa252447e26" ub:parent="fe00f9cb-a943-492d-8fd8-6b648d93dd4e"/>
        <polygon points="532.198,-779.218 532.41,-780.25 532.805,-781.775 533.29,-783.34 533.85,-784.919 534.504,-786.566 535.128,-787.931 535.792,-789.205 536.525,-790.444 536.673,-790.666 536.625,-790.549 536.623,-790.551 536.546,-790.148 536.318,-789.679 536.321,-789.676 535.993,-788.55 535.664,-786.947 535.503,-785.539 535.479,-784.907 533.296,-782.215 532.163,-778.879 532.196,-779.22 532.198,-779.218 " transform="matrix(1, 0, 0, 1, 0, 0)" fill="#004080" fill-opacity="0.50" stroke="#004080" stroke-width="1" stroke-opacity="0.10" fill-rule="winding" ub:uuid="3afc77b1-664b-43c8-9180-4fd1f0e5bc29" ub:parent="fe00f9cb-a943-492d-8fd8-6b648d93dd4e"/>
        <polygon points="576.299,-790.806 576.887,-788.454 577.153,-787.236 577.362,-785.952 577.505,-784.671 577.591,-783.282 577.608,-781.577 577.553,-780.193 577.441,-778.913 577.266,-777.63 577.01,-776.294 576.658,-774.943 576.214,-773.676 575.934,-773.024 575.936,-773.022 574.372,-770.507 572.174,-768.542 569.481,-767.263 566.428,-766.807 566.171,-766.859 566.792,-767.434 567.729,-768.379 568.636,-769.408 569.485,-770.482 570.276,-771.589 571.07,-772.809 572.214,-774.736 573.214,-776.536 573.957,-777.973 574.629,-779.423 575.115,-780.63 575.509,-781.758 575.864,-782.943 576.208,-784.402 576.453,-786.119 576.532,-787.841 576.46,-789.516 576.299,-790.806 " transform="matrix(1, 0, 0, 1, 0, 0)" fill="#004080" fill-opacity="0.50" stroke="#004080" stroke-width="1" stroke-opacity="0.10" fill-rule="winding" ub:uuid="82adc8f2-9468-4abb-9f60-3dafa96be355" ub:parent="fe00f9cb-a943-492d-8fd8-6b648d93dd4e"/>
        <polygon points="575.662,-772.451 575.343,-771.837 574.698,-770.761 573.765,-769.444 572.618,-768.09 571.51,-766.962 570.287,-765.82 569.319,-764.988 568.378,-764.248 567.372,-763.535 566.324,-762.879 565.175,-762.243 563.67,-761.511 562.053,-760.821 560.736,-760.327 559.417,-759.908 558.012,-759.559 556.719,-759.337 555.614,-759.227 555.033,-759.203 555.035,-759.203 554.699,-759.198 553.163,-759.508 553.361,-759.538 555,-759.947 556.563,-760.493 557.948,-761.112 559.18,-761.758 560.551,-762.563 561.701,-763.311 563.061,-764.28 564.394,-765.319 565.477,-766.232 565.478,-766.231 565.606,-766.399 565.818,-766.532 565.818,-766.532 566.171,-766.859 566.428,-766.807 569.481,-767.263 572.174,-768.542 574.372,-770.507 575.79,-772.787 575.664,-772.449 575.662,-772.451 " transform="matrix(1, 0, 0, 1, 0, 0)" fill="#004080" fill-opacity="0.50" stroke="#004080" stroke-width="1" stroke-opacity="0.10" fill-rule="winding" ub:uuid="0f9ab845-61b6-44c0-93c2-1c2c2dbaf00a" ub:parent="fe00f9cb-a943-492d-8fd8-6b648d93dd4e"/>
        <polygon points="554.364,-759.203 553.491,-759.249 552.365,-759.388 553.163,-759.508 554.699,-759.198 554.364,-759.203 554.364,-759.203 " transform="matrix(1, 0, 0, 1, 0, 0)" fill="#004080" fill-opacity="0.50" stroke="#004080" stroke-width="1" stroke-opacity="0.10" fill-rule="winding" ub:uuid="8f3b6446-a477-4389-b38b-d59bf2ede65d" ub:parent="fe00f9cb-a943-492d-8fd8-6b648d93dd4e"/>
        <polygon points="541.817,-798.373 542.105,-798.832 542.834,-799.869 544.259,-801.821 544.258,-801.822 545.88,-803.577 547.866,-804.92 550.144,-805.779 552.641,-806.081 553.036,-806.001 552.352,-805.771 551.392,-805.375 550.481,-804.931 549.38,-804.299 548.156,-803.469 546.311,-802.086 544.515,-800.739 543.449,-799.889 542.369,-798.925 541.817,-798.373 " transform="matrix(1, 0, 0, 1, 0, 0)" fill="#004080" fill-opacity="0.50" stroke="#004080" stroke-width="1" stroke-opacity="0.10" fill-rule="winding" ub:uuid="238cfcde-9c3b-42c9-9b2a-f27d629d9878" ub:parent="fe00f9cb-a943-492d-8fd8-6b648d93dd4e"/>
        <polygon points="544.181,-801.715 545.163,-803.135 546.157,-804.386 547.145,-805.446 548.171,-806.408 549.266,-807.319 550.429,-808.176 551.557,-808.882 552.519,-809.391 553.519,-809.84 554.552,-810.222 555.607,-810.536 556.677,-810.777 557.752,-810.947 559.071,-811.059 560.474,-811.074 561.812,-811.016 563.119,-810.891 564.47,-810.677 565.454,-810.453 565.456,-810.455 568.64,-809.113 571.175,-806.842 572.849,-803.852 573.454,-800.353 573.187,-799.032 573.025,-799.294 572.07,-800.574 571.23,-801.537 570.497,-802.269 569.7,-802.971 568.836,-803.634 567.909,-804.248 566.922,-804.801 565.885,-805.285 564.515,-805.784 563.183,-806.137 561.935,-806.389 560.741,-806.567 559.539,-806.688 558.265,-806.75 557.249,-806.742 557.249,-806.742 557.208,-806.733 556.215,-806.678 556.219,-806.678 555.494,-806.589 554.41,-806.386 553.36,-806.111 553.036,-806.001 552.641,-806.081 550.144,-805.779 547.866,-804.92 545.88,-803.577 544.258,-801.822 544.259,-801.821 544.181,-801.715 " transform="matrix(1, 0, 0, 1, 0, 0)" fill="#004080" fill-opacity="0.50" stroke="#004080" stroke-width="1" stroke-opacity="0.10" fill-rule="winding" ub:uuid="7b25b264-4a0b-4bc7-9563-b15afc7d7e55" ub:parent="fe00f9cb-a943-492d-8fd8-6b648d93dd4e"/>
        <polygon points="566.118,-810.274 566.723,-810.082 567.731,-809.692 568.747,-809.201 569.676,-808.66 570.519,-808.085 571.285,-807.485 572.177,-806.683 573.201,-805.614 574.215,-804.368 575.075,-803.155 575.841,-801.935 576.54,-800.678 577.171,-799.388 577.776,-797.969 578.279,-796.529 578.607,-795.324 578.808,-794.335 578.955,-793.31 579.016,-792.593 579.017,-792.596 579.04,-792.189 579.048,-791.779 578.233,-787.74 577.297,-786.352 577.153,-787.236 576.887,-788.454 576.299,-790.806 576.257,-791.147 576.015,-792.377 576.016,-792.382 575.877,-792.74 575.807,-793.233 575.806,-793.228 575.425,-794.496 574.773,-796.162 573.971,-797.766 573.187,-799.032 573.454,-800.353 572.849,-803.852 571.175,-806.842 568.64,-809.113 565.751,-810.331 566.12,-810.276 566.118,-810.274 " transform="matrix(1, 0, 0, 1, 0, 0)" fill="#004080" fill-opacity="0.50" stroke="#004080" stroke-width="1" stroke-opacity="0.10" fill-rule="winding" ub:uuid="48d5d31a-b812-4fc3-b413-657492e9c622" ub:parent="fe00f9cb-a943-492d-8fd8-6b648d93dd4e"/>
        <polygon points="579.048,-791.899 579.048,-791.799 579.046,-791.908 579.048,-791.899 579.048,-791.899 579.048,-791.778 579.05,-791.162 578.984,-790.052 578.767,-788.57 578.487,-787.356 577.883,-784.603 577.587,-783.346 577.505,-784.671 577.362,-785.952 577.297,-786.352 578.233,-787.74 579.048,-791.778 579.048,-791.899 " transform="matrix(1, 0, 0, 1, 0, 0)" fill="#004080" fill-opacity="0.50" stroke="#004080" stroke-width="1" stroke-opacity="0.10" fill-rule="winding" ub:uuid="e1272b36-5c89-4b39-b5d1-8da96a9000e0" ub:parent="fe00f9cb-a943-492d-8fd8-6b648d93dd4e"/>
        <polygon points="534.095,-785.537 534.264,-786.439 534.693,-788.244 535.196,-790.045 535.788,-791.916 536.409,-793.654 536.407,-793.656 537.907,-796.421 540.143,-798.596 542.938,-800.012 542.834,-799.869 542.105,-798.832 541.817,-798.373 541.344,-797.901 540.38,-796.82 539.467,-795.671 538.597,-794.425 537.79,-793.079 537.074,-791.645 536.673,-790.666 536.525,-790.444 535.792,-789.205 535.128,-787.931 534.504,-786.566 534.095,-785.537 " transform="matrix(1, 0, 0, 1, 0, 0)" fill="#004080" fill-opacity="0.50" stroke="#004080" stroke-width="1" stroke-opacity="0.10" fill-rule="winding" ub:uuid="1d39b3ed-da74-4538-bf30-00bbd05089a4" ub:parent="fe00f9cb-a943-492d-8fd8-6b648d93dd4e"/>
        <polygon points="536.571,-794.076 537.292,-795.836 538.194,-797.802 539.185,-799.732 540.018,-801.176 540.86,-802.498 541.833,-803.887 543.459,-805.987 546.175,-809.847 547.771,-812.001 548.857,-813.314 549.866,-814.422 550.923,-815.48 552.034,-816.484 553.192,-817.432 554.395,-818.322 555.7,-819.189 557.332,-820.159 558.831,-820.963 559.777,-821.416 559.774,-821.418 561.906,-822.156 564.219,-822.415 568.258,-821.6 571.556,-819.376 573.78,-816.078 574.595,-812.039 574.161,-809.061 572.944,-806.421 572.7,-806.137 572.177,-806.683 571.285,-807.485 570.519,-808.085 569.676,-808.66 568.747,-809.201 567.731,-809.692 566.723,-810.082 566.118,-810.274 566.12,-810.276 565.751,-810.331 565.456,-810.455 565.454,-810.453 564.47,-810.677 563.119,-810.891 561.812,-811.016 560.474,-811.074 559.071,-811.059 557.752,-810.947 556.677,-810.777 555.607,-810.536 554.552,-810.222 553.519,-809.84 552.519,-809.391 551.557,-808.882 550.429,-808.176 549.266,-807.319 548.171,-806.408 547.145,-805.446 546.157,-804.386 545.163,-803.135 544.181,-801.715 542.938,-800.012 540.143,-798.596 537.907,-796.421 536.531,-793.885 536.569,-794.078 536.571,-794.076 " transform="matrix(1, 0, 0, 1, 0, 0)" fill="#004080" fill-opacity="0.50" stroke="#004080" stroke-width="1" stroke-opacity="0.10" fill-rule="winding" ub:uuid="2d11cf06-8fe6-44f1-9627-3c00d34bfc0f" ub:parent="fe00f9cb-a943-492d-8fd8-6b648d93dd4e"/>
        <polygon points="560.268,-821.634 561.18,-822.003 562.538,-822.448 563.95,-822.782 565.301,-822.997 566.609,-823.122 567.946,-823.179 569.351,-823.164 570.706,-823.046 571.832,-822.858 572.975,-822.578 574.123,-822.2 575.258,-821.719 576.365,-821.136 577.423,-820.455 578.661,-819.475 579.719,-818.453 580.811,-817.27 581.868,-816.019 582.771,-814.863 582.772,-814.863 584.382,-811.916 584.963,-808.485 584.147,-804.446 581.924,-801.148 578.625,-798.924 577.468,-798.691 577.171,-799.388 576.54,-800.678 575.841,-801.935 575.075,-803.155 574.215,-804.368 573.201,-805.614 572.7,-806.137 572.944,-806.421 574.161,-809.061 574.595,-812.039 573.78,-816.078 571.556,-819.376 568.258,-821.6 564.219,-822.415 561.906,-822.156 560.074,-821.522 560.264,-821.635 560.268,-821.634 " transform="matrix(1, 0, 0, 1, 0, 0)" fill="#004080" fill-opacity="0.50" stroke="#004080" stroke-width="1" stroke-opacity="0.10" fill-rule="winding" ub:uuid="aa6269c1-ffd0-470b-9f1b-096b18e2a12c" ub:parent="fe00f9cb-a943-492d-8fd8-6b648d93dd4e"/>
        <polygon points="583.187,-814.29 583.803,-813.371 584.435,-812.271 584.879,-811.36 585.275,-810.399 585.615,-809.391 585.89,-808.342 586.093,-807.257 586.207,-806.281 586.48,-803.067 586.576,-802.682 586.981,-799.777 587.102,-797.988 587.12,-796.278 587.064,-794.893 586.953,-793.612 586.778,-792.33 586.528,-791.023 586.153,-789.573 585.772,-788.455 585.774,-788.453 584.283,-785.661 582.043,-783.463 579.22,-782.023 577.606,-781.766 577.591,-783.282 577.587,-783.346 577.883,-784.603 578.487,-787.356 578.767,-788.57 578.984,-790.052 579.05,-791.162 579.048,-791.778 579.048,-791.779 579.048,-791.799 579.048,-791.899 579.048,-791.899 579.046,-791.908 579.04,-792.189 579.017,-792.596 579.016,-792.593 578.955,-793.31 578.808,-794.335 578.607,-795.324 578.279,-796.529 577.776,-797.969 577.468,-798.691 578.625,-798.924 581.924,-801.148 584.147,-804.446 584.963,-808.485 584.382,-811.916 582.908,-814.614 583.187,-814.291 583.187,-814.29 " transform="matrix(1, 0, 0, 1, 0, 0)" fill="#004080" fill-opacity="0.50" stroke="#004080" stroke-width="1" stroke-opacity="0.10" fill-rule="winding" ub:uuid="40a9638b-3b32-4719-ba36-bc643c82c8c5" ub:parent="fe00f9cb-a943-492d-8fd8-6b648d93dd4e"/>
        <polygon points="585.441,-787.625 584.948,-786.551 584.184,-785.161 583.354,-783.881 582.524,-782.759 581.52,-781.505 580.448,-780.273 579.397,-779.167 578.021,-777.79 577.126,-776.901 577.266,-777.63 577.441,-778.913 577.553,-780.193 577.608,-781.577 577.606,-781.766 579.22,-782.023 582.043,-783.463 584.283,-785.661 585.623,-788.17 585.443,-787.623 585.441,-787.625 " transform="matrix(1, 0, 0, 1, 0, 0)" fill="#004080" fill-opacity="0.50" stroke="#004080" stroke-width="1" stroke-opacity="0.10" fill-rule="winding" ub:uuid="dfa34adc-106e-4157-91d8-95b376ed4679" ub:parent="fe00f9cb-a943-492d-8fd8-6b648d93dd4e"/>
        <polygon points="539.478,-800.24 539.48,-800.246 540.087,-802.218 540.769,-804.17 541.745,-806.705 542.881,-809.392 543.699,-811.087 544.412,-812.393 544.41,-812.395 546.025,-814.591 548.151,-816.292 550.682,-817.39 553.51,-817.78 553.63,-817.756 553.192,-817.432 552.034,-816.484 550.923,-815.48 549.866,-814.422 548.857,-813.314 547.771,-812.001 546.175,-809.847 543.459,-805.987 541.833,-803.887 540.86,-802.498 540.018,-801.176 539.478,-800.24 " transform="matrix(1, 0, 0, 1, 0, 0)" fill="#004080" fill-opacity="0.50" stroke="#004080" stroke-width="1" stroke-opacity="0.10" fill-rule="winding" ub:uuid="11da0813-9b8f-4cce-932d-e6fb96ba3da0" ub:parent="fe00f9cb-a943-492d-8fd8-6b648d93dd4e"/>
        <polygon points="544.694,-812.876 545.475,-814.127 546.508,-815.592 547.707,-817.113 549.476,-819.323 551.656,-822.006 552.987,-823.524 554.24,-824.856 555.26,-825.868 556.366,-826.863 557.552,-827.811 558.815,-828.694 560.151,-829.496 561.482,-830.168 562.769,-830.72 564.063,-831.191 565.374,-831.59 566.711,-831.924 568.172,-832.209 569.369,-832.365 569.365,-832.366 570.656,-832.446 574.695,-831.63 577.994,-829.406 580.217,-826.108 581.033,-822.069 580.333,-818.316 580.139,-817.998 579.719,-818.453 578.661,-819.475 577.423,-820.455 576.365,-821.136 575.258,-821.719 574.123,-822.2 572.975,-822.578 571.832,-822.858 570.706,-823.046 569.351,-823.164 567.946,-823.179 566.609,-823.122 565.301,-822.997 563.95,-822.782 562.538,-822.448 561.18,-822.003 560.268,-821.634 560.264,-821.635 560.074,-821.522 559.774,-821.418 559.777,-821.416 558.831,-820.963 557.332,-820.159 555.7,-819.189 554.395,-818.322 553.63,-817.756 553.51,-817.78 550.682,-817.39 548.151,-816.292 546.025,-814.591 544.581,-812.627 544.692,-812.877 544.694,-812.876 " transform="matrix(1, 0, 0, 1, 0, 0)" fill="#004080" fill-opacity="0.50" stroke="#004080" stroke-width="1" stroke-opacity="0.10" fill-rule="winding" ub:uuid="909e139e-0338-4890-a6e9-a755b8764656" ub:parent="fe00f9cb-a943-492d-8fd8-6b648d93dd4e"/>
        <polygon points="570.206,-832.436 571.452,-832.48 573.174,-832.401 574.665,-832.197 575.939,-831.92 577.214,-831.521 578.587,-830.926 579.886,-830.184 581.078,-829.318 582.14,-828.36 583.063,-827.343 583.85,-826.294 584.512,-825.237 585.169,-823.957 585.727,-822.615 586.306,-821.042 586.814,-819.482 587.26,-817.867 587.591,-816.161 587.72,-814.911 587.72,-814.915 587.764,-813.95 586.949,-809.911 585.89,-808.341 585.89,-808.342 585.615,-809.391 585.275,-810.399 584.879,-811.36 584.435,-812.271 583.803,-813.371 583.187,-814.29 583.187,-814.291 582.908,-814.614 582.772,-814.863 582.771,-814.863 581.868,-816.019 580.811,-817.27 580.139,-817.998 580.333,-818.316 581.033,-822.069 580.217,-826.108 577.994,-829.406 574.695,-831.63 570.656,-832.446 570.102,-832.411 570.204,-832.436 570.206,-832.436 " transform="matrix(1, 0, 0, 1, 0, 0)" fill="#004080" fill-opacity="0.50" stroke="#004080" stroke-width="1" stroke-opacity="0.10" fill-rule="winding" ub:uuid="8a4648f7-b77d-4dd5-9ec3-1202c19266a9" ub:parent="fe00f9cb-a943-492d-8fd8-6b648d93dd4e"/>
        <polygon points="587.764,-813.95 587.755,-812.721 587.615,-811.072 587.387,-809.643 586.958,-807.392 586.416,-804.285 586.388,-804.153 586.207,-806.281 586.093,-807.257 585.89,-808.341 586.949,-809.911 587.764,-813.95 " transform="matrix(1, 0, 0, 1, 0, 0)" fill="#004080" fill-opacity="0.50" stroke="#004080" stroke-width="1" stroke-opacity="0.10" fill-rule="winding" ub:uuid="d348d20e-008d-4822-9910-e5b2cdb96a80" ub:parent="fe00f9cb-a943-492d-8fd8-6b648d93dd4e"/>
        <polygon points="532.826,-781.845 532.658,-782.139 531.962,-783.594 531.342,-785.162 530.823,-786.851 530.438,-788.578 530.19,-790.317 530.07,-792.033 530.062,-793.68 530.132,-795.48 530.132,-795.48 531.058,-799.373 533.302,-802.538 536.552,-804.664 540.5,-805.441 541.204,-805.299 540.769,-804.17 540.087,-802.218 539.48,-800.246 539.478,-800.24 539.185,-799.732 538.194,-797.802 537.292,-795.836 536.571,-794.076 536.569,-794.078 536.531,-793.885 536.407,-793.656 536.409,-793.654 535.788,-791.916 535.196,-790.045 534.693,-788.244 534.264,-786.439 534.095,-785.537 533.85,-784.919 533.29,-783.34 532.826,-781.845 " transform="matrix(1, 0, 0, 1, 0, 0)" fill="#004080" fill-opacity="0.50" stroke="#004080" stroke-width="1" stroke-opacity="0.10" fill-rule="winding" ub:uuid="48d3619c-bb34-4427-a2ec-f50a669d1930" ub:parent="fe00f9cb-a943-492d-8fd8-6b648d93dd4e"/>
        <polygon points="530.16,-795.933 530.323,-797.842 530.594,-800.024 530.96,-802.252 531.423,-804.485 531.965,-806.657 532.463,-808.368 533.084,-810.125 533.82,-811.861 534.663,-813.547 535.583,-815.134 537.529,-818.231 537.892,-818.883 539.709,-822.169 541.192,-824.262 542.522,-825.783 543.942,-827.144 545.198,-828.18 546.936,-829.548 548.828,-830.995 548.827,-830.995 551.745,-832.564 555.131,-833.129 559.17,-832.313 562.013,-830.396 561.482,-830.168 560.151,-829.496 558.815,-828.694 557.552,-827.811 556.366,-826.863 555.26,-825.868 554.24,-824.856 552.987,-823.524 551.656,-822.006 549.476,-819.323 547.707,-817.113 546.508,-815.592 545.475,-814.127 544.694,-812.876 544.692,-812.877 544.581,-812.627 544.41,-812.395 544.412,-812.393 543.699,-811.087 542.881,-809.392 541.745,-806.705 541.204,-805.299 540.5,-805.441 536.552,-804.664 533.302,-802.538 531.058,-799.373 530.133,-795.482 530.133,-795.503 530.16,-795.934 530.16,-795.933 " transform="matrix(1, 0, 0, 1, 0, 0)" fill="#004080" fill-opacity="0.50" stroke="#004080" stroke-width="1" stroke-opacity="0.10" fill-rule="winding" ub:uuid="db376f4f-e685-4bcf-88a0-82001c7157c1" ub:parent="fe00f9cb-a943-492d-8fd8-6b648d93dd4e"/>
        <polygon points="549.181,-831.253 550.168,-831.937 551.514,-832.744 552.948,-833.46 554.47,-834.068 555.885,-834.499 557.111,-834.808 558.87,-835.247 560.311,-835.589 562.054,-835.853 563.778,-835.939 565.502,-835.853 566.95,-835.645 568.083,-835.398 569.06,-835.115 570.053,-834.756 570.997,-834.343 571.891,-833.885 572.967,-833.24 573.879,-832.606 573.879,-832.607 574.279,-832.25 573.174,-832.401 571.452,-832.48 570.206,-832.436 570.204,-832.436 570.102,-832.411 569.365,-832.366 569.369,-832.365 568.172,-832.209 566.711,-831.924 565.374,-831.59 564.063,-831.191 562.769,-830.72 562.013,-830.396 559.17,-832.313 555.131,-833.129 551.745,-832.564 548.986,-831.08 549.18,-831.254 549.181,-831.253 " transform="matrix(1, 0, 0, 1, 0, 0)" fill="#004080" fill-opacity="0.50" stroke="#004080" stroke-width="1" stroke-opacity="0.10" fill-rule="winding" ub:uuid="7d6829b2-b678-4129-a70e-1c119f21be61" ub:parent="fe00f9cb-a943-492d-8fd8-6b648d93dd4e"/>
        <polygon points="532.11,-778.713 531.784,-781.139 532.185,-783.126 532.658,-782.139 532.826,-781.845 532.805,-781.775 532.41,-780.25 532.198,-779.218 532.196,-779.22 532.163,-778.879 532.11,-778.724 532.111,-778.723 532.11,-778.713 " transform="matrix(1, 0, 0, 1, 0, 0)" fill="#004080" fill-opacity="0.50" stroke="#004080" stroke-width="1" stroke-opacity="0.10" fill-rule="winding" ub:uuid="b7053ec7-79c7-4405-a970-9db60a50a260" ub:parent="fe00f9cb-a943-492d-8fd8-6b648d93dd4e"/>
        <polygon points="531.853,-776.579 531.726,-776.725 531.093,-777.553 530.501,-778.426 529.956,-779.343 529.462,-780.298 529.026,-781.288 528.65,-782.307 528.277,-783.595 527.978,-785.02 527.748,-786.52 527.564,-788.347 527.482,-789.905 527.467,-791.884 527.55,-793.983 527.729,-796.113 527.972,-798.09 527.971,-798.091 529.102,-801.676 531.371,-804.563 531.455,-804.614 531.423,-804.485 530.96,-802.252 530.594,-800.024 530.323,-797.842 530.16,-795.933 530.16,-795.934 530.133,-795.503 530.133,-795.482 530.132,-795.48 530.132,-795.48 530.062,-793.68 530.07,-792.033 530.19,-790.317 530.438,-788.578 530.823,-786.851 531.342,-785.162 531.962,-783.594 532.185,-783.126 531.784,-781.139 532.11,-778.713 531.973,-777.779 531.853,-776.579 " transform="matrix(1, 0, 0, 1, 0, 0)" fill="#004080" fill-opacity="0.50" stroke="#004080" stroke-width="1" stroke-opacity="0.10" fill-rule="winding" ub:uuid="897b1b5b-34c5-432e-af70-9e4fd80f95de" ub:parent="fe00f9cb-a943-492d-8fd8-6b648d93dd4e"/>
        <polygon points="528.042,-798.565 528.302,-800.057 528.704,-801.817 529.201,-803.555 529.824,-805.364 530.696,-807.5 532.018,-810.584 533.837,-814.828 535.955,-819.751 536.782,-821.464 537.629,-823.009 538.557,-824.504 539.605,-825.989 541.02,-827.785 543.03,-830.395 543.571,-831.07 544.25,-831.831 544.971,-832.553 545.732,-833.232 546.296,-833.685 546.296,-833.686 549.274,-835.341 552.753,-835.939 556.792,-835.124 557.22,-834.835 557.111,-834.808 555.885,-834.499 554.47,-834.068 552.948,-833.46 551.514,-832.744 550.168,-831.937 549.181,-831.253 549.18,-831.254 548.986,-831.08 548.827,-830.995 548.828,-830.995 546.936,-829.548 545.198,-828.18 543.942,-827.144 542.522,-825.783 541.192,-824.262 539.709,-822.169 537.892,-818.883 537.529,-818.231 535.583,-815.134 534.663,-813.547 533.82,-811.861 533.084,-810.125 532.463,-808.368 531.965,-806.657 531.455,-804.614 531.371,-804.563 529.102,-801.676 528.012,-798.219 528.041,-798.567 528.042,-798.565 " transform="matrix(1, 0, 0, 1, 0, 0)" fill="#004080" fill-opacity="0.50" stroke="#004080" stroke-width="1" stroke-opacity="0.10" fill-rule="winding" ub:uuid="b8f352f5-908d-404c-93db-da086cd8153d" ub:parent="fe00f9cb-a943-492d-8fd8-6b648d93dd4e"/>
        <polygon points="546.761,-834.034 547.352,-834.447 548.44,-835.117 550.015,-835.923 551.736,-836.641 554.678,-838 556.2,-838.608 557.802,-839.088 559.472,-839.421 561.152,-839.591 562.621,-839.607 563.862,-839.546 565.065,-839.426 566.258,-839.247 567.439,-839.011 568.604,-838.719 569.752,-838.375 570.88,-837.98 572.087,-837.494 573.322,-836.926 573.324,-836.928 575.763,-835.348 577.666,-833.165 578.751,-830.833 578.587,-830.926 577.214,-831.521 575.939,-831.92 574.665,-832.197 574.279,-832.25 573.879,-832.607 573.879,-832.606 572.967,-833.24 571.891,-833.885 570.997,-834.343 570.053,-834.756 569.06,-835.115 568.083,-835.398 566.95,-835.645 565.502,-835.853 563.778,-835.939 562.054,-835.853 560.311,-835.589 558.87,-835.247 557.22,-834.835 556.792,-835.124 552.753,-835.939 549.274,-835.341 546.497,-833.797 546.76,-834.035 546.761,-834.034 " transform="matrix(1, 0, 0, 1, 0, 0)" fill="#004080" fill-opacity="0.50" stroke="#004080" stroke-width="1" stroke-opacity="0.10" fill-rule="winding" ub:uuid="0bc74791-1db8-48d7-a6f5-715fde300f9e" ub:parent="fe00f9cb-a943-492d-8fd8-6b648d93dd4e"/>
        <polygon points="574.064,-836.546 575.181,-835.901 576.651,-834.869 577.997,-833.715 579.212,-832.465 580.268,-831.174 581.177,-829.877 581.984,-828.531 582.011,-828.477 581.078,-829.318 579.886,-830.184 578.751,-830.833 577.666,-833.165 575.763,-835.348 573.649,-836.717 574.065,-836.547 574.064,-836.546 " transform="matrix(1, 0, 0, 1, 0, 0)" fill="#004080" fill-opacity="0.50" stroke="#004080" stroke-width="1" stroke-opacity="0.10" fill-rule="winding" ub:uuid="b0ee24f3-ad64-49f8-b7c3-ff97359c351c" ub:parent="fe00f9cb-a943-492d-8fd8-6b648d93dd4e"/>
        <polygon points="549.881,-835.855 550.733,-836.876 552.072,-838.244 553.015,-839.072 553.736,-839.627 554.492,-840.146 555.279,-840.625 556.094,-841.061 556.669,-841.333 556.666,-841.334 558.77,-842.052 561.05,-842.303 565.089,-841.488 568.387,-839.264 568.792,-838.663 568.604,-838.719 567.439,-839.011 566.258,-839.247 565.065,-839.426 563.862,-839.546 562.621,-839.607 561.152,-839.591 559.472,-839.421 557.802,-839.088 556.2,-838.608 554.678,-838 551.736,-836.641 550.015,-835.923 549.881,-835.855 " transform="matrix(1, 0, 0, 1, 0, 0)" fill="#004080" fill-opacity="0.50" stroke="#004080" stroke-width="1" stroke-opacity="0.10" fill-rule="winding" ub:uuid="071e2d5b-9372-46d9-b165-941ab8afb596" ub:parent="fe00f9cb-a943-492d-8fd8-6b648d93dd4e"/>
        <polygon points="557.196,-841.561 557.787,-841.793 558.655,-842.086 559.562,-842.338 560.557,-842.551 561.637,-842.704 562.767,-842.779 563.938,-842.763 565.137,-842.644 566.345,-842.416 567.539,-842.078 568.698,-841.632 569.8,-841.09 571.151,-840.243 572.934,-838.88 575.202,-836.803 576.137,-835.839 576.806,-835.057 577.439,-834.229 577.499,-834.142 576.651,-834.869 575.181,-835.901 574.064,-836.546 574.065,-836.547 573.649,-836.717 573.324,-836.928 573.322,-836.926 572.087,-837.494 570.88,-837.98 569.752,-838.375 568.792,-838.663 568.387,-839.264 565.089,-841.488 561.05,-842.303 558.77,-842.052 556.992,-841.446 557.192,-841.562 557.196,-841.561 " transform="matrix(1, 0, 0, 1, 0, 0)" fill="#004080" fill-opacity="0.50" stroke="#004080" stroke-width="1" stroke-opacity="0.10" fill-rule="winding" ub:uuid="940c132c-1f97-4840-87c5-3f12eb733d34" ub:parent="fe00f9cb-a943-492d-8fd8-6b648d93dd4e"/>
    </g>
</svg>
