<?xml version="1.0" encoding="UTF-8"?>
<svg xmlns="http://www.w3.org/2000/svg" xmlns:xlink="http://www.w3.org/1999/xlink" xmlns:ub="http://uniboard.mnemis.com/document" xmlns:xhtml="http://www.w3.org/1999/xhtml" version="1.1" ub:version="4.8.0" ub:uuid="3d9804a0-12a4-43e5-a1e4-1d032b8dca2e" viewBox="-721 -919 1443 1838" ub:nominal-size="1343x1738" ub:dark-background="false" ub:crossed-background="true" ub:ruled-background="false" ub:grid-size="55" ub:intermediate-lines="0" pageDpi="158">
    <rect fill="white" x="-721" y="-919" width="1443" height="1838"/>
    <image xlink:href="images/{84a4b2e4-090b-4561-bff1-1a0431fc07a2}.png" x="0" y="0" width="576" height="180" transform="matrix(1.71508, 0, 0, 1.71508, -460.228, -533.964)" ub:z-value="-999996.000000" ub:background="false" ub:uuid="84a4b2e4-090b-4561-bff1-1a0431fc07a2" ub:source="/Users/khale/AppData/Local/OpenBoard/document/OpenBoard Document 2023-05-30 09-06-07.783/images/{84a4b2e4-090b-4561-bff1-1a0431fc07a2}.png" ub:layer="-1000"/>
    <g ub:z-value="-999999" ub:fill-on-dark-background="#ffffff" ub:fill-on-light-background="#000000" ub:uuid="f348592e-20d1-4274-b8e3-105aad21d02a" ub:layer="-1000">
        <polygon points="589.453,-799.553 585.815,-797.656 585.329,-797.359 584.563,-796.859 583.45,-796.083 581.85,-794.91 580.89,-794.161 580.01,-793.418 579.211,-792.681 578.473,-791.93 577.733,-791.104 576.989,-790.199 576.257,-789.228 575.863,-788.622 575.53,-788.017 575.263,-787.424 575.061,-786.847 574.806,-785.857 574.461,-784.478 574.118,-783.106 574.07,-782.87 574.049,-782.666 574.048,-782.48 574.067,-782.308 574.104,-782.144 574.16,-781.983 574.238,-781.821 574.341,-781.654 574.473,-781.48 574.631,-781.307 575.112,-780.857 575.616,-780.445 576.153,-780.061 576.724,-779.707 577.317,-779.387 577.919,-779.122 578.542,-778.919 579.201,-778.772 579.9,-778.683 580.653,-778.653 581.413,-778.669 582.107,-778.717 582.72,-778.793 583.248,-778.895 583.706,-779.025 583.803,-779.064 583.902,-779.118 583.993,-779.182 584.08,-779.259 584.166,-779.355 584.252,-779.476 584.338,-779.624 584.421,-779.804 584.499,-780.018 584.567,-780.255 584.614,-780.489 584.636,-780.707 584.636,-780.923 584.614,-781.141 584.569,-781.365 584.499,-781.597 584.403,-781.839 584.276,-782.092 584.135,-782.329 583.676,-782.959 582.929,-783.893 582.187,-784.746 581.386,-785.589 578.252,-789.311 576.459,-791.361 575.827,-792.007 574.414,-793.422 569.038,-799.322 568.442,-800.159 567.756,-801.236 567.328,-801.98 566.935,-802.729 566.586,-803.507 566.306,-804.308 566.103,-805.118 565.981,-805.935 565.94,-806.756 565.98,-807.588 566.099,-808.44 566.293,-809.314 566.56,-810.21 566.898,-811.13 567.435,-812.393 567.806,-813.172 568.178,-813.879 568.56,-814.529 568.959,-815.118 569.226,-815.451 569.493,-815.745 569.778,-816.024 570.107,-816.312 570.738,-816.784 571.424,-817.205 574.511,-819.032 575.137,-819.49 575.91,-820.016 576.756,-820.488 577.642,-820.882 578.564,-821.196 579.513,-821.429 580.437,-821.583 581.304,-821.661 582.091,-821.663 582.521,-821.629 582.905,-821.574 583.28,-821.495 583.653,-821.386 584.03,-821.235 584.397,-821.038 584.739,-820.799 585.05,-820.522 585.327,-820.212 585.57,-819.874 585.778,-819.512 585.955,-819.13 586.12,-818.667 586.395,-817.516 586.618,-815.878 586.692,-814.14 586.677,-813.596 586.631,-813.086 586.555,-812.579 586.449,-812.073 586.313,-811.571 586.137,-811.04 585.714,-810.045 580.552,-800.372 574.782,-792.174 574.782,-792.174 573.722,-791.624 572.805,-792.004 572.425,-792.921 572.487,-793.319 572.561,-793.501 572.661,-793.668 572.661,-793.667 578.34,-801.726 583.416,-811.249 583.72,-811.983 583.828,-812.317 583.926,-812.679 584.002,-813.038 584.055,-813.395 584.087,-813.751 584.099,-814.071 584.034,-815.653 583.842,-817.059 583.615,-817.992 583.556,-818.143 583.473,-818.323 583.387,-818.471 583.301,-818.592 583.215,-818.688 583.129,-818.765 583.038,-818.829 582.938,-818.883 582.814,-818.931 582.651,-818.978 582.455,-819.019 582.234,-819.051 582.024,-819.069 581.427,-819.07 580.772,-819.011 580.037,-818.888 579.29,-818.706 578.587,-818.466 577.916,-818.168 577.275,-817.81 576.63,-817.368 575.872,-816.823 572.751,-814.975 572.192,-814.635 571.716,-814.277 571.543,-814.124 571.362,-813.945 571.196,-813.763 571.065,-813.603 570.755,-813.146 570.446,-812.62 570.126,-812.012 569.805,-811.339 569.305,-810.163 569.02,-809.389 568.803,-808.659 568.651,-807.976 568.562,-807.342 568.534,-806.756 568.562,-806.193 568.647,-805.627 568.79,-805.053 568.994,-804.47 569.267,-803.865 569.601,-803.23 569.968,-802.591 570.605,-801.592 570.977,-801.046 576.315,-795.186 577.669,-793.834 578.387,-793.097 580.225,-790.996 583.351,-787.282 584.107,-786.491 584.922,-785.554 585.731,-784.542 586.274,-783.797 586.549,-783.342 586.768,-782.904 586.948,-782.454 587.086,-781.994 587.179,-781.526 587.227,-781.053 587.227,-780.577 587.179,-780.104 587.088,-779.645 586.966,-779.217 586.819,-778.817 586.643,-778.435 586.434,-778.073 586.192,-777.735 585.914,-777.425 585.604,-777.148 585.262,-776.909 584.895,-776.712 584.49,-776.552 583.842,-776.37 583.124,-776.231 582.353,-776.134 581.526,-776.078 580.626,-776.059 579.684,-776.098 578.757,-776.217 577.86,-776.416 576.995,-776.698 576.18,-777.055 575.424,-777.462 574.714,-777.903 574.041,-778.384 573.404,-778.905 572.812,-779.458 572.486,-779.813 572.203,-780.184 571.961,-780.579 571.761,-780.996 571.61,-781.431 571.509,-781.881 571.458,-782.34 571.458,-782.803 571.506,-783.265 571.596,-783.712 571.945,-785.107 572.292,-786.495 572.573,-787.581 572.855,-788.387 573.21,-789.177 573.639,-789.956 574.144,-790.733 574.951,-791.803 575.763,-792.792 576.58,-793.704 577.407,-794.544 578.294,-795.363 579.256,-796.176 580.293,-796.984 581.936,-798.189 583.105,-799.004 583.94,-799.55 584.595,-799.945 588.254,-801.853 588.254,-801.853 588.54,-801.962 588.854,-802 589.771,-801.62 590.151,-800.703 589.454,-799.553 589.453,-799.553 " transform="matrix(1, 0, 0, 1, 0, 0)" fill="#000000" fill-opacity="1.00" fill-rule="winding" ub:uuid="b2441b85-0c8c-4aa1-bbd2-08cfaa61da5e" ub:parent="f348592e-20d1-4274-b8e3-105aad21d02a"/>
    </g>
    <g ub:z-value="-999998" ub:fill-on-dark-background="#ffffff" ub:fill-on-light-background="#000000" ub:uuid="f78fb728-8e3a-4ad0-ac1b-1be7afa9eea0" ub:layer="-1000">
        <polygon points="573.748,-838.382 572.211,-838.889 571.771,-838.998 571.269,-839.087 570.725,-839.147 570.147,-839.177 569.55,-839.17 569.358,-839.146 569.138,-839.102 568.926,-839.041 568.72,-838.962 568.518,-838.865 568.318,-838.749 568.119,-838.611 567.946,-838.473 567.475,-838.014 566.669,-837.146 565.45,-835.724 564.463,-834.493 563.843,-833.644 563.258,-832.768 562.417,-831.349 561.913,-830.389 560.888,-828.272 559.858,-826.005 557.308,-820.356 555,-815.425 554.432,-813.96 553.605,-811.544 552.652,-808.326 551.97,-805.769 551.625,-804.246 549.643,-797.41 548.825,-794.342 548.531,-792.867 548.298,-791.371 547.946,-788.322 546.982,-779.317 546.954,-775.195 547.256,-771.994 547.615,-770.113 547.957,-768.912 548.381,-767.826 548.52,-767.537 548.52,-767.537 548.613,-767.27 548.646,-766.98 548.266,-766.063 547.349,-765.683 546.177,-766.423 546.177,-766.423 545.98,-766.843 545.496,-768.092 545.085,-769.537 544.683,-771.659 544.362,-775.099 544.395,-779.511 545.368,-788.604 545.725,-791.703 545.977,-793.321 546.305,-794.958 547.147,-798.116 549.126,-804.942 549.455,-806.402 550.156,-809.033 551.131,-812.326 551.991,-814.839 552.633,-816.487 554.951,-821.439 557.494,-827.074 558.539,-829.373 559.59,-831.545 560.158,-832.626 561.055,-834.138 561.716,-835.129 562.41,-836.079 563.455,-837.382 564.726,-838.865 565.606,-839.813 566.19,-840.383 566.562,-840.686 566.925,-840.937 567.304,-841.158 567.698,-841.346 568.106,-841.502 568.525,-841.622 568.954,-841.708 569.428,-841.761 570.197,-841.771 570.934,-841.732 571.635,-841.655 572.309,-841.536 572.976,-841.368 574.56,-840.846 574.56,-840.846 575.451,-839.614 575.071,-838.697 574.154,-838.317 573.748,-838.382 573.748,-838.382 " transform="matrix(1, 0, 0, 1, 0, 0)" fill="#000000" fill-opacity="1.00" fill-rule="winding" ub:uuid="83749bbb-ee56-4197-a5e5-d12004cfff94" ub:parent="f78fb728-8e3a-4ad0-ac1b-1be7afa9eea0"/>
    </g>
    <g ub:z-value="-999997" ub:fill-on-dark-background="#66c0ff" ub:fill-on-light-background="#004080" ub:uuid="a7a83f2f-3191-438b-9aba-666eedc08b39" ub:layer="-1000">
        <polygon points="562.839,-768.71 560.261,-768.729 558.768,-768.83 557.569,-768.98 556.279,-769.209 554.827,-769.548 553.253,-769.973 551.911,-770.379 551.019,-770.681 549.391,-771.433 547.325,-772.912 545.542,-774.952 544.322,-777.28 543.707,-779.541 543.544,-781.524 543.654,-783.189 543.913,-784.585 544.342,-786.049 544.89,-787.453 545.391,-788.558 545.389,-788.56 546.967,-791.012 549.152,-792.925 551.814,-794.168 554.824,-794.611 558.863,-793.796 562.161,-791.572 564.385,-788.274 565.2,-784.235 564.956,-781.987 564.259,-779.91 564.257,-779.912 563.997,-779.356 563.887,-779.074 564.101,-779.778 564.23,-780.482 564.297,-781.524 564.177,-782.953 563.691,-784.73 562.688,-786.643 561.208,-788.337 559.531,-789.54 558.379,-790.084 558.014,-790.214 558.954,-789.927 559.94,-789.661 560.554,-789.516 560.648,-789.503 560.833,-789.48 560.723,-789.477 562.987,-789.462 562.987,-789.462 567,-788.626 570.275,-786.398 572.481,-783.108 573.289,-779.086 572.474,-775.047 570.25,-771.748 566.952,-769.525 562.913,-768.709 562.839,-768.71 562.839,-768.71 " transform="matrix(1, 0, 0, 1, 0, 0)" fill="#004080" fill-opacity="0.50" stroke="#004080" stroke-width="1" stroke-opacity="0.10" fill-rule="winding" ub:uuid="409b1d5a-5931-472a-83ec-def0ca97ae4c" ub:parent="a7a83f2f-3191-438b-9aba-666eedc08b39"/>
        <polygon points="545.625,-789.035 546.169,-790.07 546.901,-791.309 547.714,-792.527 548.687,-793.807 549.847,-795.102 551.108,-796.298 552.442,-797.378 553.845,-798.354 555.382,-799.301 558.27,-801.311 560.275,-802.639 561.615,-803.417 562.889,-804.077 564.335,-804.8 566.506,-805.881 567.674,-806.409 568.781,-806.852 569.909,-807.246 570.827,-807.524 570.822,-807.526 573.808,-807.962 577.847,-807.147 581.145,-804.923 583.369,-801.625 584.185,-797.586 583.631,-794.233 582.092,-791.336 579.752,-789.079 576.795,-787.646 576.79,-787.647 576.324,-787.51 576.068,-787.42 575.792,-787.31 575.576,-787.215 573.597,-786.229 572.276,-785.569 571.475,-785.157 571.431,-785.14 571.215,-784.996 570.275,-786.398 567,-788.626 563.681,-789.317 562.161,-791.572 558.863,-793.796 554.824,-794.611 551.814,-794.168 549.152,-792.925 546.967,-791.012 545.518,-788.761 545.623,-789.036 545.625,-789.035 564.14,-779.662 564.023,-779.435 564.025,-779.434 563.975,-779.363 564.101,-779.778 564.23,-780.482 564.297,-781.524 564.177,-782.953 563.691,-784.73 562.688,-786.643 561.208,-788.337 559.531,-789.54 558.379,-790.084 558.014,-790.214 558.954,-789.927 559.94,-789.661 560.554,-789.516 560.648,-789.503 560.833,-789.48 560.723,-789.477 562.987,-789.462 562.987,-789.462 563.681,-789.317 564.385,-788.274 565.2,-784.235 564.956,-781.987 564.259,-779.91 564.257,-779.912 564.14,-779.662 545.625,-789.035 " transform="matrix(1, 0, 0, 1, 0, 0)" fill="#004080" fill-opacity="0.50" stroke="#004080" stroke-width="1" stroke-opacity="0.10" fill-rule="winding" ub:uuid="32f74c62-73e5-4aa3-89a7-71f5a28ff3a7" ub:parent="a7a83f2f-3191-438b-9aba-666eedc08b39"/>
        <polygon points="571.396,-807.678 572.386,-807.91 573.742,-808.117 574.872,-808.192 576.044,-808.175 577.243,-808.057 578.45,-807.829 579.645,-807.49 580.803,-807.044 581.906,-806.502 582.869,-805.922 583.657,-805.368 584.367,-804.802 585.06,-804.178 585.729,-803.495 586.364,-802.753 586.957,-801.957 587.499,-801.112 587.983,-800.224 588.255,-799.644 588.257,-799.647 588.949,-797.576 589.191,-795.337 588.376,-791.299 586.152,-788 582.854,-785.777 578.815,-784.961 575.8,-785.406 573.811,-786.336 575.576,-787.215 575.792,-787.31 576.068,-787.42 576.324,-787.51 576.551,-787.577 576.605,-787.59 576.587,-787.587 576.79,-787.647 576.795,-787.646 579.752,-789.079 582.092,-791.336 583.631,-794.233 584.185,-797.586 583.369,-801.625 581.145,-804.923 577.847,-807.147 573.808,-807.962 571.14,-807.572 571.391,-807.679 571.396,-807.678 " transform="matrix(1, 0, 0, 1, 0, 0)" fill="#004080" fill-opacity="0.50" stroke="#004080" stroke-width="1" stroke-opacity="0.10" fill-rule="winding" ub:uuid="b516882f-d02d-4a2e-8c55-82547d4a6142" ub:parent="a7a83f2f-3191-438b-9aba-666eedc08b39"/>
        <polygon points="588.537,-798.963 588.82,-798.156 589.166,-796.906 589.436,-795.525 589.603,-794.198 589.691,-792.904 589.718,-791.517 589.648,-789.915 589.427,-788.186 589.042,-786.455 588.485,-784.748 587.827,-783.231 587.158,-781.954 586.353,-780.583 585.606,-779.433 584.617,-778.048 583.503,-776.633 582.316,-775.257 581.098,-773.956 580.253,-773.113 580.253,-773.113 576.963,-770.906 572.939,-770.097 568.985,-770.895 570.25,-771.748 572.474,-775.047 573.289,-779.086 572.481,-783.108 571.215,-784.996 571.431,-785.14 571.475,-785.157 572.276,-785.569 573.597,-786.229 573.811,-786.336 575.8,-785.406 578.815,-784.961 582.854,-785.777 586.152,-788 588.376,-791.299 589.191,-795.337 588.949,-797.576 588.402,-799.212 588.539,-798.967 588.537,-798.963 576.551,-787.577 576.587,-787.587 576.605,-787.59 576.551,-787.577 588.537,-798.963 564.14,-779.662 563.997,-779.356 563.887,-779.074 563.975,-779.363 564.025,-779.434 564.023,-779.435 564.14,-779.662 588.537,-798.963 " transform="matrix(1, 0, 0, 1, 0, 0)" fill="#004080" fill-opacity="0.50" stroke="#004080" stroke-width="1" stroke-opacity="0.10" fill-rule="winding" ub:uuid="57ad7d1b-4848-425e-8b5f-042307679fe4" ub:parent="a7a83f2f-3191-438b-9aba-666eedc08b39"/>
        <polygon points="579.901,-772.779 578.981,-771.951 577.822,-771.003 576.619,-770.114 575.302,-769.238 573.61,-768.237 571.877,-767.319 570.126,-766.496 568.423,-765.792 566.323,-765 563.619,-764.06 562.058,-763.584 560.487,-763.198 558.882,-762.907 557.241,-762.722 555.563,-762.657 553.854,-762.727 552.125,-762.948 550.395,-763.333 549.169,-763.72 549.166,-763.718 546.293,-765.183 544.026,-767.432 542.539,-770.291 542.005,-773.586 542.82,-777.625 543.823,-779.113 544.322,-777.28 545.542,-774.952 547.325,-772.912 549.391,-771.433 551.019,-770.681 551.911,-770.379 553.253,-769.973 554.827,-769.548 556.279,-769.209 557.569,-768.98 558.768,-768.83 560.261,-768.729 562.839,-768.71 562.839,-768.71 562.913,-768.709 566.952,-769.525 568.985,-770.895 572.939,-770.097 576.963,-770.906 580.041,-772.971 579.901,-772.779 579.901,-772.779 " transform="matrix(1, 0, 0, 1, 0, 0)" fill="#004080" fill-opacity="0.50" stroke="#004080" stroke-width="1" stroke-opacity="0.10" fill-rule="winding" ub:uuid="8ef3517c-9406-472d-b7fe-432202c0b41c" ub:parent="a7a83f2f-3191-438b-9aba-666eedc08b39"/>
        <polygon points="548.21,-764.085 547.136,-764.565 545.739,-765.288 544.492,-765.991 543.41,-766.655 542.628,-767.174 541.506,-768.062 540.301,-769.289 539.309,-770.608 538.535,-771.955 537.957,-773.281 537.546,-774.557 537.267,-775.773 537.093,-776.928 536.989,-778.312 536.989,-779.865 537.079,-781.174 537.216,-782.221 537.41,-783.266 537.591,-784.024 537.589,-784.026 538.944,-787.182 541.214,-789.692 544.192,-791.35 547.283,-791.881 546.901,-791.309 546.169,-790.07 545.625,-789.035 545.623,-789.036 545.518,-788.761 545.389,-788.56 545.391,-788.558 544.89,-787.453 544.342,-786.049 543.913,-784.585 543.654,-783.189 543.544,-781.524 543.707,-779.541 543.823,-779.113 542.82,-777.625 542.005,-773.586 542.539,-770.291 544.026,-767.432 546.293,-765.183 548.864,-763.872 548.208,-764.083 548.21,-764.085 " transform="matrix(1, 0, 0, 1, 0, 0)" fill="#004080" fill-opacity="0.50" stroke="#004080" stroke-width="1" stroke-opacity="0.10" fill-rule="winding" ub:uuid="9c979757-4593-4629-a89e-36fcf84ce708" ub:parent="a7a83f2f-3191-438b-9aba-666eedc08b39"/>
        <polygon points="537.742,-784.578 537.972,-785.324 538.338,-786.328 538.758,-787.308 539.336,-788.457 540.16,-789.849 541.336,-791.611 542.672,-793.42 544.167,-795.28 545.778,-797.111 547.104,-798.487 548.907,-800.191 550.78,-801.789 552.648,-803.283 555.151,-805.179 558.305,-807.434 561.779,-809.822 563.71,-811.067 565.294,-811.968 566.574,-812.612 566.571,-812.614 568.791,-813.423 571.214,-813.708 575.253,-812.892 578.551,-810.669 580.775,-807.37 580.845,-807.024 580.803,-807.044 579.645,-807.49 578.45,-807.829 577.243,-808.057 576.044,-808.175 574.872,-808.192 573.742,-808.117 572.386,-807.91 571.396,-807.678 571.391,-807.679 571.14,-807.572 570.822,-807.526 570.827,-807.524 569.909,-807.246 568.781,-806.852 567.674,-806.409 566.506,-805.881 564.335,-804.8 562.889,-804.077 561.615,-803.417 560.275,-802.639 558.27,-801.311 555.382,-799.301 553.845,-798.354 552.442,-797.378 551.108,-796.298 549.847,-795.102 548.687,-793.807 547.714,-792.527 547.283,-791.881 544.192,-791.35 541.214,-789.692 538.944,-787.182 537.694,-784.272 537.74,-784.581 537.742,-784.578 " transform="matrix(1, 0, 0, 1, 0, 0)" fill="#004080" fill-opacity="0.50" stroke="#004080" stroke-width="1" stroke-opacity="0.10" fill-rule="winding" ub:uuid="681d1ed7-0948-43b4-9298-6780e82cd871" ub:parent="a7a83f2f-3191-438b-9aba-666eedc08b39"/>
        <polygon points="567.088,-812.852 568.398,-813.415 569.978,-813.995 571.841,-814.585 573.643,-815.088 575.421,-815.511 577.101,-815.835 578.46,-816.037 580.028,-816.195 581.397,-816.261 582.752,-816.244 584.113,-816.111 585.139,-815.93 586.119,-815.694 587.311,-815.321 588.802,-814.729 590.439,-813.911 591.92,-813.011 593.152,-812.105 593.802,-811.547 593.802,-811.547 596.388,-808.097 597.097,-806.004 597.345,-803.738 596.53,-799.699 594.306,-796.401 591.008,-794.177 589.623,-793.898 589.603,-794.198 589.436,-795.525 589.166,-796.906 588.82,-798.156 588.537,-798.963 588.539,-798.967 588.402,-799.212 588.257,-799.647 588.255,-799.644 587.983,-800.224 587.499,-801.112 586.957,-801.957 586.364,-802.753 585.729,-803.495 585.06,-804.178 584.367,-804.802 583.657,-805.368 582.869,-805.922 581.906,-806.502 580.845,-807.024 580.775,-807.37 578.551,-810.669 575.253,-812.892 571.214,-813.708 568.791,-813.423 566.877,-812.725 567.085,-812.854 567.088,-812.852 " transform="matrix(1, 0, 0, 1, 0, 0)" fill="#004080" fill-opacity="0.50" stroke="#004080" stroke-width="1" stroke-opacity="0.10" fill-rule="winding" ub:uuid="210663c4-a5f1-4158-ad93-e98c44149ce4" ub:parent="a7a83f2f-3191-438b-9aba-666eedc08b39"/>
        <polygon points="594.406,-810.974 595.013,-810.337 595.858,-809.307 596.621,-808.188 597.287,-806.995 597.842,-805.746 598.279,-804.464 598.619,-803.052 598.862,-801.507 598.997,-799.821 598.997,-798.126 598.862,-796.44 598.592,-794.757 598.175,-793.059 597.6,-791.37 596.872,-789.733 595.999,-788.168 595.078,-786.809 594.086,-785.5 592.521,-783.494 592.521,-783.494 588.965,-780.586 586.753,-779.783 585.757,-779.666 586.353,-780.583 587.158,-781.954 587.827,-783.231 588.485,-784.748 589.042,-786.455 589.427,-788.186 589.648,-789.915 589.718,-791.517 589.691,-792.904 589.623,-793.898 591.008,-794.177 594.306,-796.401 596.53,-799.699 597.345,-803.738 597.097,-806.004 596.388,-808.097 594.045,-811.223 594.406,-810.974 594.406,-810.974 " transform="matrix(1, 0, 0, 1, 0, 0)" fill="#004080" fill-opacity="0.50" stroke="#004080" stroke-width="1" stroke-opacity="0.10" fill-rule="winding" ub:uuid="ad430915-0a67-41ea-a2ec-ebf7daaf7c40" ub:parent="a7a83f2f-3191-438b-9aba-666eedc08b39"/>
        <polygon points="592.391,-783.331 590.586,-781.112 589.268,-779.611 588.014,-778.278 586.998,-777.269 585.817,-776.199 584.224,-774.899 582.841,-773.874 580.991,-772.624 579.443,-771.692 577.93,-770.886 577.207,-770.549 577.822,-771.003 578.981,-771.951 579.901,-772.779 579.901,-772.779 580.041,-772.971 580.253,-773.113 580.253,-773.113 581.098,-773.956 582.316,-775.257 583.503,-776.633 584.617,-778.048 585.606,-779.433 585.757,-779.666 586.753,-779.783 588.965,-780.586 592.451,-783.436 592.391,-783.33 592.391,-783.331 " transform="matrix(1, 0, 0, 1, 0, 0)" fill="#004080" fill-opacity="0.50" stroke="#004080" stroke-width="1" stroke-opacity="0.10" fill-rule="winding" ub:uuid="3f0b7f2d-b5b4-4ed4-945c-5f4f76410430" ub:parent="a7a83f2f-3191-438b-9aba-666eedc08b39"/>
        <polygon points="537.004,-778.109 536.816,-778.486 536.371,-779.558 536.11,-780.314 536.108,-780.309 535.567,-783.625 536.383,-787.664 538.606,-790.962 541.905,-793.186 542.603,-793.327 541.336,-791.611 540.16,-789.849 539.336,-788.457 538.758,-787.308 538.338,-786.328 537.972,-785.324 537.742,-784.578 537.74,-784.581 537.694,-784.272 537.589,-784.026 537.591,-784.024 537.41,-783.266 537.216,-782.221 537.079,-781.174 536.989,-779.865 536.989,-778.312 537.004,-778.109 " transform="matrix(1, 0, 0, 1, 0, 0)" fill="#004080" fill-opacity="0.50" stroke="#004080" stroke-width="1" stroke-opacity="0.10" fill-rule="winding" ub:uuid="1228ff65-954b-41d3-82a0-11b907ab9925" ub:parent="a7a83f2f-3191-438b-9aba-666eedc08b39"/>
        <polygon points="535.913,-780.97 535.716,-781.733 535.501,-782.819 535.354,-783.895 535.261,-785.171 535.25,-786.745 535.33,-788.826 535.501,-791.036 535.764,-793.411 536.102,-795.474 536.6,-797.574 537.244,-799.634 538.024,-801.649 538.886,-803.52 540.316,-806.381 542.438,-810.624 543.744,-813.053 544.868,-814.928 546.513,-817.406 548.682,-820.351 548.682,-820.351 550.303,-822.089 552.282,-823.419 554.549,-824.269 557.033,-824.568 561.072,-823.753 564.37,-821.529 566.594,-818.231 567.41,-814.192 567.2,-812.9 567.088,-812.852 567.085,-812.854 566.877,-812.725 566.571,-812.614 566.574,-812.612 565.294,-811.968 563.71,-811.067 561.779,-809.822 558.305,-807.434 555.151,-805.179 552.648,-803.283 550.78,-801.789 548.907,-800.191 547.104,-798.487 545.778,-797.111 544.167,-795.28 542.672,-793.42 542.603,-793.327 541.905,-793.186 538.606,-790.962 536.383,-787.664 535.567,-783.625 536.053,-780.651 535.911,-780.965 535.913,-780.97 " transform="matrix(1, 0, 0, 1, 0, 0)" fill="#004080" fill-opacity="0.50" stroke="#004080" stroke-width="1" stroke-opacity="0.10" fill-rule="winding" ub:uuid="965e0bd4-bdb2-4f52-a152-24c71e14f9ee" ub:parent="a7a83f2f-3191-438b-9aba-666eedc08b39"/>
        <polygon points="548.732,-820.418 551.871,-824.603 554.553,-828.109 556.316,-830.225 558.005,-832.074 559.612,-833.673 561.16,-835.113 562.753,-836.498 564.682,-838.054 566.354,-839.328 567.47,-840.127 568.146,-840.583 569.122,-841.155 570.324,-841.72 571.546,-842.157 572.76,-842.47 573.948,-842.668 575.096,-842.767 576.197,-842.78 576.926,-842.745 576.926,-842.746 580.763,-841.779 583.875,-839.529 585.964,-836.298 586.727,-832.385 585.911,-828.346 583.688,-825.048 580.389,-822.824 578.408,-822.424 578.737,-822.675 579.438,-823.173 579.297,-823.081 578.858,-822.828 578.226,-822.531 577.61,-822.31 577.035,-822.162 576.522,-822.076 576.083,-822.038 575.726,-822.033 575.775,-822.025 575.774,-822.025 576.061,-822.013 576.35,-822.009 578.408,-822.424 577.504,-821.736 576.043,-820.559 575.043,-819.688 573.997,-818.715 573.001,-817.729 571.966,-816.595 570.85,-815.26 569.846,-813.947 568.398,-813.415 567.2,-812.9 567.41,-814.192 566.594,-818.231 564.37,-821.529 561.072,-823.753 557.033,-824.568 554.549,-824.269 552.282,-823.419 550.303,-822.089 548.715,-820.387 548.732,-820.418 548.732,-820.418 " transform="matrix(1, 0, 0, 1, 0, 0)" fill="#004080" fill-opacity="0.50" stroke="#004080" stroke-width="1" stroke-opacity="0.10" fill-rule="winding" ub:uuid="975f5249-23db-4b54-96e5-a0bb32fcff6f" ub:parent="a7a83f2f-3191-438b-9aba-666eedc08b39"/>
        <polygon points="577.556,-842.691 578.254,-842.605 579.276,-842.427 580.417,-842.15 581.67,-841.736 582.962,-841.169 584.27,-840.422 585.553,-839.479 586.756,-838.339 587.821,-837.028 588.703,-835.597 589.376,-834.107 589.823,-832.691 590.152,-831.325 590.63,-829.151 591.025,-827.068 591.24,-825.455 591.389,-823.614 591.443,-822.057 591.43,-820.298 591.43,-820.298 590.592,-816.289 589.344,-814.458 588.802,-814.729 587.311,-815.321 586.119,-815.694 585.139,-815.93 584.113,-816.111 582.752,-816.244 581.397,-816.261 580.028,-816.195 578.46,-816.037 577.101,-815.835 575.421,-815.511 573.643,-815.088 572.547,-814.782 571.611,-816.17 571.966,-816.595 573.001,-817.729 573.997,-818.715 575.043,-819.688 576.043,-820.559 577.504,-821.736 578.408,-822.424 580.389,-822.824 583.688,-825.048 585.911,-828.346 586.727,-832.385 585.964,-836.298 583.875,-839.529 580.763,-841.779 577.016,-842.723 577.558,-842.692 577.556,-842.691 578.408,-822.424 578.737,-822.675 579.438,-823.173 579.297,-823.081 578.858,-822.828 578.226,-822.531 577.61,-822.31 577.035,-822.162 576.522,-822.076 576.083,-822.038 575.726,-822.033 575.775,-822.025 575.774,-822.025 576.061,-822.013 576.35,-822.009 578.408,-822.424 577.556,-842.691 " transform="matrix(1, 0, 0, 1, 0, 0)" fill="#004080" fill-opacity="0.50" stroke="#004080" stroke-width="1" stroke-opacity="0.10" fill-rule="winding" ub:uuid="ba757f62-0a72-4a2b-a5e7-35eaa3647e54" ub:parent="a7a83f2f-3191-438b-9aba-666eedc08b39"/>
        <polygon points="591.416,-819.842 591.313,-817.906 591.108,-815.609 590.862,-813.654 590.439,-813.911 589.344,-814.458 590.592,-816.289 591.429,-820.295 591.427,-820.111 591.417,-819.842 591.416,-819.842 572.547,-814.782 571.841,-814.585 569.978,-813.995 569.936,-813.98 569.954,-814.088 570.85,-815.26 571.611,-816.17 572.547,-814.782 591.416,-819.842 " transform="matrix(1, 0, 0, 1, 0, 0)" fill="#004080" fill-opacity="0.50" stroke="#004080" stroke-width="1" stroke-opacity="0.10" fill-rule="winding" ub:uuid="2d2a40bc-e277-4528-a9e3-7222cc1306cf" ub:parent="a7a83f2f-3191-438b-9aba-666eedc08b39"/>
        <polygon points="567.789,-782.549 559.546,-789.528 561.931,-787.509 567.789,-782.549 " transform="matrix(1, 0, 0, 1, 0, 0)" fill="#004080" fill-opacity="0.50" stroke="#004080" stroke-width="1" stroke-opacity="0.10" fill-rule="winding" ub:uuid="392c2e4b-a07b-43b1-9d14-d721000ea1d7" ub:parent="a7a83f2f-3191-438b-9aba-666eedc08b39"/>
        <polygon points="537.576,-800.492 537.746,-801.776 538.257,-804.586 538.759,-806.778 539.551,-809.667 540.649,-813.255 541.999,-817.461 542.965,-820.195 543.866,-822.308 544.836,-824.248 545.921,-826.121 547.033,-827.796 549.081,-830.705 551.277,-833.936 552.556,-835.696 553.558,-836.953 554.544,-838.085 555.576,-839.169 556.446,-839.999 556.446,-839.999 559.677,-842.086 563.588,-842.848 567.627,-842.032 569.018,-841.094 568.146,-840.583 567.47,-840.127 566.354,-839.328 564.682,-838.054 562.753,-836.498 561.16,-835.113 559.612,-833.673 558.005,-832.074 556.316,-830.225 554.553,-828.109 551.871,-824.603 548.732,-820.418 548.732,-820.418 548.715,-820.387 548.682,-820.351 548.682,-820.351 546.513,-817.406 544.868,-814.928 543.744,-813.053 542.438,-810.624 540.316,-806.381 538.886,-803.52 538.024,-801.649 537.576,-800.492 " transform="matrix(1, 0, 0, 1, 0, 0)" fill="#004080" fill-opacity="0.50" stroke="#004080" stroke-width="1" stroke-opacity="0.10" fill-rule="winding" ub:uuid="a1a80ec7-7590-4c76-9d5e-ddfeca050d12" ub:parent="a7a83f2f-3191-438b-9aba-666eedc08b39"/>
        <polygon points="556.924,-840.425 557.857,-841.198 558.991,-842.016 559.945,-842.61 560.763,-843.049 561.663,-843.463 562.634,-843.829 563.61,-844.118 564.563,-844.33 565.508,-844.476 566.437,-844.559 567.345,-844.586 568.502,-844.542 569.91,-844.381 571.29,-844.106 572.359,-843.816 573.228,-843.522 574.083,-843.18 574.921,-842.79 574.983,-842.757 573.948,-842.668 572.76,-842.47 571.546,-842.157 570.324,-841.72 569.122,-841.155 569.018,-841.094 567.627,-842.032 563.588,-842.848 559.677,-842.086 556.741,-840.19 556.924,-840.425 556.924,-840.425 " transform="matrix(1, 0, 0, 1, 0, 0)" fill="#004080" fill-opacity="0.50" stroke="#004080" stroke-width="1" stroke-opacity="0.10" fill-rule="winding" ub:uuid="6f4117bb-12c3-4ce3-a2cc-c1914bd2de35" ub:parent="a7a83f2f-3191-438b-9aba-666eedc08b39"/>
        <polygon points="569.936,-813.98 569.846,-813.947 569.954,-814.088 569.936,-813.98 " transform="matrix(1, 0, 0, 1, 0, 0)" fill="#004080" fill-opacity="0.50" stroke="#004080" stroke-width="1" stroke-opacity="0.10" fill-rule="winding" ub:uuid="a1e2f6e9-987f-4e38-a228-9ffd3b6ce0bb" ub:parent="a7a83f2f-3191-438b-9aba-666eedc08b39"/>
    </g>
    <g ub:z-value="-999995" ub:fill-on-dark-background="#ffffff" ub:fill-on-light-background="#000000" ub:uuid="9f6d0b7e-5ade-47f9-9a56-827fb03355d5" ub:layer="-1000">
        <polygon points="494.605,-798.541 489.592,-798.533 489.472,-798.517 489.295,-798.491 488.798,-798.375 488.278,-798.201 487.706,-797.96 487.083,-797.649 486.415,-797.267 485.713,-796.821 484.554,-795.998 483.321,-795.029 482.182,-794.08 481.203,-793.214 480.392,-792.44 479.971,-791.973 479.819,-791.773 479.66,-791.542 479.516,-791.304 479.386,-791.061 479.269,-790.81 479.166,-790.553 479.085,-790.319 478.935,-789.726 478.85,-789.16 478.822,-788.597 478.85,-788.035 478.941,-787.437 478.995,-787.199 479.066,-786.964 479.155,-786.749 479.271,-786.532 479.415,-786.313 479.591,-786.091 479.8,-785.865 480.044,-785.638 480.326,-785.409 480.622,-785.196 481.384,-784.73 482.932,-783.938 483.949,-783.543 484.529,-783.373 485.495,-783.174 486.901,-783.015 491.829,-782.981 492.442,-783.035 493.097,-783.155 493.817,-783.36 493.816,-783.36 494.17,-783.409 495.087,-783.029 495.467,-782.112 494.524,-780.864 494.524,-780.864 493.687,-780.628 492.785,-780.463 491.842,-780.387 486.818,-780.422 485.111,-780.609 483.924,-780.851 483.086,-781.096 481.845,-781.583 480.143,-782.452 479.219,-783.014 478.754,-783.346 478.343,-783.679 477.965,-784.031 477.621,-784.402 477.312,-784.794 477.041,-785.206 476.811,-785.638 476.624,-786.088 476.487,-786.537 476.386,-786.99 476.269,-787.776 476.228,-788.597 476.269,-789.418 476.392,-790.236 476.587,-791.017 476.732,-791.449 476.888,-791.84 477.065,-792.221 477.264,-792.591 477.482,-792.951 477.721,-793.299 478.002,-793.661 478.549,-794.266 479.45,-795.126 480.494,-796.05 481.69,-797.046 482.999,-798.075 484.253,-798.965 485.073,-799.487 485.857,-799.935 486.618,-800.315 487.36,-800.628 488.085,-800.869 488.764,-801.03 489.15,-801.091 489.575,-801.127 494.6,-801.135 494.6,-801.135 494.603,-801.135 495.52,-800.755 495.9,-799.838 495.521,-798.922 494.605,-798.541 494.605,-798.541 " transform="matrix(1, 0, 0, 1, 0, 0)" fill="#000000" fill-opacity="1.00" fill-rule="winding" ub:uuid="e56a9ec3-f267-4536-a764-75427e17702c" ub:parent="9f6d0b7e-5ade-47f9-9a56-827fb03355d5"/>
    </g>
    <g ub:z-value="-999994" ub:fill-on-dark-background="#ffffff" ub:fill-on-light-background="#000000" ub:uuid="caaccb57-ebbb-4e80-b037-6fc8d7d2ff56" ub:layer="-1000">
        <polygon points="484.174,-818.809 483.77,-819.214 483.884,-819.114 483.884,-819.114 483.28,-820.21 483.659,-821.127 484.577,-821.507 484.943,-821.455 485.269,-821.307 485.269,-821.307 485.548,-821.103 486.008,-820.643 486.388,-819.726 486.008,-818.809 485.091,-818.429 484.174,-818.809 " transform="matrix(1, 0, 0, 1, 0, 0)" fill="#000000" fill-opacity="1.00" fill-rule="winding" ub:uuid="ffa89b81-488f-4e13-bc19-1094f9af0476" ub:parent="caaccb57-ebbb-4e80-b037-6fc8d7d2ff56"/>
        <polygon points="484.874,-818.948 484.8,-818.93 484.801,-818.93 484.503,-818.896 483.586,-819.276 483.206,-820.193 483.491,-821.004 484.205,-821.456 484.206,-821.456 484.279,-821.473 484.279,-821.473 484.577,-821.507 485.494,-821.127 485.874,-820.21 485.589,-819.399 484.874,-818.948 484.874,-818.948 " transform="matrix(1, 0, 0, 1, 0, 0)" fill="#000000" fill-opacity="1.00" fill-rule="winding" ub:uuid="27828fbb-5fcd-4fa5-bd04-90aaea191b7f" ub:parent="caaccb57-ebbb-4e80-b037-6fc8d7d2ff56"/>
        <polygon points="485.541,-819.415 485.598,-819.526 485.633,-819.61 485.62,-819.556 485.56,-818.984 485.528,-818.124 485.523,-814.399 485.523,-810.422 485.523,-804.647 485.562,-801.117 485.627,-800.056 485.79,-798.464 486.11,-796.258 486.388,-783.437 486.388,-783.437 486.388,-783.409 486.008,-782.492 485.091,-782.112 484.183,-782.483 483.794,-783.381 483.794,-783.381 483.518,-796.155 483.217,-798.134 483.042,-799.836 482.969,-801.058 482.929,-804.636 482.929,-810.422 482.929,-814.4 482.934,-818.146 482.971,-819.153 483.049,-819.896 483.131,-820.292 483.278,-820.687 483.465,-820.971 483.465,-820.971 484.503,-821.49 485.42,-821.11 485.8,-820.193 485.541,-819.415 485.541,-819.415 " transform="matrix(1, 0, 0, 1, 0, 0)" fill="#000000" fill-opacity="1.00" fill-rule="winding" ub:uuid="2dab51f4-c9de-43f1-9d65-dd0e7d5ce7a0" ub:parent="caaccb57-ebbb-4e80-b037-6fc8d7d2ff56"/>
    </g>
    <g ub:z-value="-999993" ub:fill-on-dark-background="#ffffff" ub:fill-on-light-background="#000000" ub:uuid="82d6d3bc-b1c0-48b1-8364-ae5b6af0a82b" ub:layer="-1000">
        <polygon points="483.832,-843.384 484.331,-845.403 484.338,-845.447 484.33,-845.412 484.71,-846.329 485.627,-846.709 486.544,-846.329 486.924,-845.412 486.916,-845.16 486.854,-844.797 486.35,-842.761 486.35,-842.761 485.897,-842.056 485.091,-841.776 484.174,-842.156 483.794,-843.073 483.832,-843.384 483.832,-843.384 " transform="matrix(1, 0, 0, 1, 0, 0)" fill="#000000" fill-opacity="1.00" fill-rule="winding" ub:uuid="3911ae15-7fb1-4b1a-aa7b-e7cf4404ae8f" ub:parent="82d6d3bc-b1c0-48b1-8364-ae5b6af0a82b"/>
        <polygon points="485.172,-844.197 485.137,-844.21 485.137,-844.21 484.296,-845.425 484.675,-846.342 485.593,-846.722 485.827,-846.7 486.048,-846.639 486.048,-846.639 486.083,-846.626 486.083,-846.626 486.924,-845.412 486.544,-844.495 485.627,-844.115 485.392,-844.136 485.171,-844.197 485.172,-844.197 " transform="matrix(1, 0, 0, 1, 0, 0)" fill="#000000" fill-opacity="1.00" fill-rule="winding" ub:uuid="3d8c3fc5-dc3d-426f-a1eb-aadba12761b4" ub:parent="82d6d3bc-b1c0-48b1-8364-ae5b6af0a82b"/>
        <polygon points="486.585,-844.589 486.603,-844.623 486.586,-844.598 486.074,-843.51 484.01,-839.125 483.447,-838.109 482.658,-836.779 474.758,-822.743 474.191,-821.606 473.498,-820.096 472.972,-818.768 472.152,-816.515 470.682,-812.19 469.196,-808.065 468.337,-805.639 468.014,-804.506 467.505,-802.472 467.031,-800.204 466.8,-798.716 466.633,-797.216 466.534,-795.717 466.5,-794.218 466.533,-792.737 466.633,-791.294 466.798,-789.887 467.03,-788.517 467.319,-787.21 469.038,-781.194 469.584,-779.774 470.245,-778.391 474.233,-772.378 474.458,-772.078 474.458,-772.078 474.715,-771.303 474.335,-770.386 473.418,-770.006 472.377,-770.529 472.377,-770.529 472.075,-770.938 468.047,-777.014 467.204,-778.743 466.557,-780.436 464.817,-786.525 464.484,-788.02 464.23,-789.521 464.05,-791.054 463.942,-792.62 463.906,-794.218 463.942,-795.832 464.05,-797.445 464.229,-799.058 464.482,-800.682 464.976,-803.05 465.505,-805.166 465.874,-806.455 466.753,-808.939 468.233,-813.047 469.703,-817.368 470.544,-819.681 471.115,-821.12 471.849,-822.722 472.493,-824.007 480.399,-838.056 481.201,-839.407 481.676,-840.258 483.727,-844.615 484.253,-845.733 484.444,-846.062 484.6,-846.26 484.6,-846.26 485.593,-846.722 486.51,-846.342 486.89,-845.425 486.585,-844.589 486.585,-844.589 " transform="matrix(1, 0, 0, 1, 0, 0)" fill="#000000" fill-opacity="1.00" fill-rule="winding" ub:uuid="fc895d60-2d14-4e01-bf20-274b722ee69b" ub:parent="82d6d3bc-b1c0-48b1-8364-ae5b6af0a82b"/>
    </g>
    <g ub:z-value="-999992" ub:fill-on-dark-background="#66c0ff" ub:fill-on-light-background="#004080" ub:uuid="c98cd2a3-8278-4cdc-884e-11d6439e4698" ub:layer="-1000">
        <polygon points="467.83,-770.76 465.651,-771.315 464.4,-771.718 463.545,-772.061 462.707,-772.451 461.893,-772.887 461.105,-773.366 460.35,-773.885 459.419,-774.614 458.466,-775.476 457.565,-776.426 456.868,-777.287 456.22,-778.223 455.635,-779.229 455.125,-780.294 454.702,-781.408 454.373,-782.552 454.141,-783.71 453.986,-785.178 453.967,-786.218 453.967,-786.218 453.967,-786.349 454.782,-790.388 457.006,-793.686 460.304,-795.91 464.343,-796.725 468.353,-795.922 471.637,-793.729 473.867,-790.473 474.718,-786.48 474.718,-786.48 474.716,-786.145 474.64,-786.947 474.538,-787.457 474.39,-787.97 474.2,-788.469 473.976,-788.938 473.728,-789.365 473.47,-789.739 473.214,-790.055 472.805,-790.478 472.924,-790.371 472.556,-790.668 472.379,-790.789 472.189,-790.905 471.988,-791.012 471.782,-791.109 471.575,-791.191 470.989,-791.37 472.952,-790.87 472.955,-790.872 476.071,-789.5 478.546,-787.232 480.179,-784.27 480.768,-780.815 479.952,-776.776 477.728,-773.478 474.43,-771.254 470.391,-770.439 467.828,-770.758 467.83,-770.76 " transform="matrix(1, 0, 0, 1, 0, 0)" fill="#004080" fill-opacity="0.50" stroke="#004080" stroke-width="1" stroke-opacity="0.10" fill-rule="winding" ub:uuid="efeed9e1-87f8-46ae-b6c3-6e57fdf9de03" ub:parent="c98cd2a3-8278-4cdc-884e-11d6439e4698"/>
        <polygon points="453.979,-786.867 454.03,-787.817 454.15,-789.02 454.329,-790.213 454.565,-791.394 454.857,-792.559 455.201,-793.707 455.596,-794.835 456.082,-796.042 456.778,-797.542 457.551,-798.951 458.397,-800.255 459.314,-801.478 460.292,-802.629 461.334,-803.726 462.64,-804.98 463.905,-806.086 464.926,-806.894 465.945,-807.616 466.944,-808.252 466.942,-808.253 469.559,-809.444 472.505,-809.869 476.544,-809.053 479.843,-806.829 482.066,-803.531 482.882,-799.492 482.537,-796.828 481.56,-794.421 480.041,-792.359 478.069,-790.732 478.067,-790.733 477.431,-790.331 477.378,-790.292 477.258,-790.2 476.682,-789.699 476.278,-789.31 476.071,-789.5 473.868,-790.47 473.867,-790.473 471.637,-793.729 468.353,-795.922 464.343,-796.725 460.304,-795.91 457.006,-793.686 454.782,-790.388 453.967,-786.349 453.97,-786.61 453.979,-786.867 453.979,-786.867 473.868,-790.47 474.432,-787.823 474.39,-787.97 474.2,-788.469 473.976,-788.938 473.728,-789.365 473.47,-789.739 473.214,-790.055 472.852,-790.429 472.924,-790.371 472.805,-790.478 472.852,-790.429 472.556,-790.668 472.379,-790.789 472.189,-790.905 471.988,-791.012 471.782,-791.109 471.575,-791.191 470.989,-791.37 472.952,-790.87 472.955,-790.872 473.868,-790.47 453.979,-786.867 474.432,-787.823 474.657,-786.769 474.64,-786.947 474.538,-787.457 474.432,-787.823 453.979,-786.867 474.657,-786.769 474.718,-786.48 474.718,-786.48 474.716,-786.145 474.657,-786.769 453.979,-786.867 " transform="matrix(1, 0, 0, 1, 0, 0)" fill="#004080" fill-opacity="0.50" stroke="#004080" stroke-width="1" stroke-opacity="0.10" fill-rule="winding" ub:uuid="6e5ac9be-914f-4736-8303-6e8b66941d26" ub:parent="c98cd2a3-8278-4cdc-884e-11d6439e4698"/>
        <polygon points="467.301,-808.469 468.361,-809.082 469.627,-809.757 470.723,-810.291 471.802,-810.733 472.757,-811.051 473.778,-811.316 474.869,-811.515 476.025,-811.632 477.238,-811.649 478.492,-811.552 479.763,-811.33 480.924,-811.011 481.854,-810.674 482.9,-810.209 484.117,-809.549 485.434,-808.673 486.612,-807.731 487.61,-806.805 488.22,-806.161 488.22,-806.161 490.23,-802.971 490.962,-799.133 490.147,-795.095 487.923,-791.796 484.625,-789.573 480.586,-788.757 478.386,-788.991 476.566,-789.588 476.682,-789.699 477.258,-790.2 477.378,-790.292 477.431,-790.331 477.886,-790.618 478.44,-790.941 479.119,-791.303 479.389,-791.435 478.976,-791.26 478.67,-791.159 478.548,-791.127 480.041,-792.359 481.56,-794.421 482.537,-796.828 482.882,-799.492 482.066,-803.531 479.843,-806.829 476.544,-809.053 472.505,-809.869 469.559,-809.444 467.125,-808.336 467.3,-808.47 467.301,-808.469 " transform="matrix(1, 0, 0, 1, 0, 0)" fill="#004080" fill-opacity="0.50" stroke="#004080" stroke-width="1" stroke-opacity="0.10" fill-rule="winding" ub:uuid="eae4f083-bb20-4cbc-af79-9953cd0906e5" ub:parent="c98cd2a3-8278-4cdc-884e-11d6439e4698"/>
        <polygon points="488.757,-805.528 489.231,-804.91 489.873,-803.949 490.426,-802.975 490.898,-801.999 491.296,-801.026 491.704,-799.805 492.113,-798.207 492.398,-796.615 492.637,-794.934 492.796,-793.412 492.864,-792.203 492.864,-791.044 492.796,-789.835 492.629,-788.249 492.305,-786.057 492.004,-784.496 491.611,-782.959 491.087,-781.393 490.608,-780.266 490.61,-780.264 489.046,-777.744 486.848,-775.775 484.153,-774.493 481.096,-774.036 478.463,-774.567 479.952,-776.776 480.768,-780.815 480.179,-784.27 478.546,-787.232 476.278,-789.31 476.566,-789.588 478.386,-788.991 480.586,-788.757 484.625,-789.573 487.923,-791.796 490.147,-795.095 490.962,-799.133 490.23,-802.971 488.471,-805.763 488.758,-805.529 488.757,-805.528 477.886,-790.618 478.067,-790.733 478.069,-790.732 478.548,-791.127 478.67,-791.159 478.976,-791.26 479.389,-791.435 479.119,-791.303 478.44,-790.941 477.886,-790.618 488.757,-805.528 " transform="matrix(1, 0, 0, 1, 0, 0)" fill="#004080" fill-opacity="0.50" stroke="#004080" stroke-width="1" stroke-opacity="0.10" fill-rule="winding" ub:uuid="62877c71-0c6c-466c-bb9a-6752a936b830" ub:parent="c98cd2a3-8278-4cdc-884e-11d6439e4698"/>
        <polygon points="490.241,-779.509 489.797,-778.714 489.385,-778.077 488.263,-776.084 487.589,-774.876 486.684,-773.552 486.017,-772.737 485.294,-771.965 484.522,-771.242 483.707,-770.575 482.857,-769.968 481.764,-769.301 480.597,-768.702 479.465,-768.191 478.358,-767.749 477.23,-767.354 476.024,-766.994 474.715,-766.684 473.326,-766.478 472.595,-766.425 472.598,-766.425 472.273,-766.41 471.948,-766.405 467.909,-767.22 464.611,-769.444 462.514,-772.554 462.707,-772.451 463.545,-772.061 464.4,-771.718 465.651,-771.315 467.83,-770.76 467.828,-770.758 470.391,-770.439 474.43,-771.254 477.728,-773.478 478.463,-774.567 481.096,-774.036 484.153,-774.493 486.848,-775.775 489.046,-777.744 490.414,-779.948 490.242,-779.507 490.241,-779.509 " transform="matrix(1, 0, 0, 1, 0, 0)" fill="#004080" fill-opacity="0.50" stroke="#004080" stroke-width="1" stroke-opacity="0.10" fill-rule="winding" ub:uuid="c4c5a0a8-9355-48b6-b5ac-d3b57a7e6fd4" ub:parent="c98cd2a3-8278-4cdc-884e-11d6439e4698"/>
        <polygon points="471.818,-766.406 471.084,-766.422 469.969,-766.52 468.875,-766.697 467.813,-766.949 466.791,-767.268 465.567,-767.755 464.299,-768.38 463.05,-769.102 461.874,-769.885 460.747,-770.748 459.643,-771.716 458.634,-772.737 457.808,-773.718 457.078,-774.732 456.241,-776.1 455.437,-777.704 454.776,-779.326 454.203,-781.067 453.85,-782.492 453.849,-782.487 453.56,-784.927 453.989,-787.053 453.979,-786.867 453.979,-786.867 453.97,-786.61 453.967,-786.349 453.967,-786.218 453.967,-786.218 453.986,-785.178 454.141,-783.71 454.373,-782.552 454.702,-781.408 455.125,-780.294 455.635,-779.229 456.22,-778.223 456.868,-777.287 457.565,-776.426 458.466,-775.476 459.419,-774.614 460.35,-773.885 461.105,-773.366 461.893,-772.887 462.514,-772.554 464.611,-769.444 467.909,-767.22 471.948,-766.405 471.818,-766.406 471.818,-766.406 " transform="matrix(1, 0, 0, 1, 0, 0)" fill="#004080" fill-opacity="0.50" stroke="#004080" stroke-width="1" stroke-opacity="0.10" fill-rule="winding" ub:uuid="c05ae9bf-9f89-4f06-9524-d210cb680b9c" ub:parent="c98cd2a3-8278-4cdc-884e-11d6439e4698"/>
        <polygon points="453.664,-783.459 453.492,-784.688 453.399,-785.982 453.389,-787.025 453.439,-788.079 453.606,-789.483 453.955,-791.346 454.573,-794.838 455.069,-797.234 455.497,-798.826 455.934,-800.189 456.434,-801.53 456.998,-802.847 457.629,-804.136 458.328,-805.394 459.094,-806.614 459.929,-807.793 460.829,-808.926 461.793,-810.006 462.605,-810.824 465.903,-813.048 469.942,-813.863 473.981,-813.048 476.08,-811.633 476.025,-811.632 474.869,-811.515 473.778,-811.316 472.757,-811.051 471.802,-810.733 470.723,-810.291 469.627,-809.757 468.361,-809.082 467.301,-808.469 467.3,-808.47 467.125,-808.336 466.942,-808.253 466.944,-808.252 465.945,-807.616 464.926,-806.894 463.905,-806.086 462.64,-804.98 461.334,-803.726 460.292,-802.629 459.314,-801.478 458.397,-800.255 457.551,-798.951 456.778,-797.542 456.082,-796.042 455.596,-794.835 455.201,-793.707 454.857,-792.559 454.565,-791.394 454.329,-790.213 454.15,-789.02 454.03,-787.817 453.989,-787.053 453.56,-784.927 453.773,-783.127 453.664,-783.454 453.664,-783.459 " transform="matrix(1, 0, 0, 1, 0, 0)" fill="#004080" fill-opacity="0.50" stroke="#004080" stroke-width="1" stroke-opacity="0.10" fill-rule="winding" ub:uuid="d39b046c-80fc-4c99-bca2-14dbb0093863" ub:parent="c98cd2a3-8278-4cdc-884e-11d6439e4698"/>
        <polygon points="463.035,-811.231 463.898,-811.995 464.996,-812.869 466.495,-813.974 467.813,-814.905 468.613,-815.446 469.586,-816.029 470.639,-816.549 471.672,-816.963 472.677,-817.286 473.932,-817.591 475.521,-817.848 477.335,-817.983 479.134,-817.997 481.212,-817.997 482.704,-817.977 484.421,-817.787 485.437,-817.57 486.635,-817.218 487.576,-816.869 487.578,-816.871 490.289,-815.355 492.418,-813.126 493.81,-810.34 494.309,-807.153 493.493,-803.115 491.558,-800.244 491.296,-801.026 490.898,-801.999 490.426,-802.975 489.873,-803.949 489.231,-804.91 488.757,-805.528 488.758,-805.529 488.471,-805.763 488.22,-806.161 488.22,-806.161 487.61,-806.805 486.612,-807.731 485.434,-808.673 484.117,-809.549 482.9,-810.209 481.854,-810.674 480.924,-811.011 479.763,-811.33 478.492,-811.552 477.238,-811.649 476.08,-811.633 473.981,-813.048 469.942,-813.863 465.903,-813.048 462.864,-810.999 463.035,-811.231 463.035,-811.231 " transform="matrix(1, 0, 0, 1, 0, 0)" fill="#004080" fill-opacity="0.50" stroke="#004080" stroke-width="1" stroke-opacity="0.10" fill-rule="winding" ub:uuid="381ea845-ff2c-4583-b154-8bb51566520f" ub:parent="c98cd2a3-8278-4cdc-884e-11d6439e4698"/>
        <polygon points="488.402,-816.518 489.493,-815.99 490.911,-815.191 492.498,-814.179 493.695,-813.327 494.769,-812.479 495.827,-811.543 496.938,-810.416 498.022,-809.099 498.97,-807.715 499.782,-806.297 500.47,-804.86 501.047,-803.423 501.529,-801.975 501.922,-800.468 502.207,-798.89 502.362,-797.263 502.378,-795.809 502.313,-794.471 502.177,-793.105 502.177,-793.104 501.098,-789.434 498.834,-786.472 495.661,-784.493 491.853,-783.772 491.82,-783.779 492.004,-784.496 492.305,-786.057 492.629,-788.249 492.796,-789.835 492.864,-791.044 492.864,-792.203 492.796,-793.412 492.637,-794.934 492.398,-796.615 492.113,-798.207 491.704,-799.805 491.558,-800.244 493.493,-803.115 494.309,-807.153 493.81,-810.34 492.418,-813.126 490.289,-815.355 487.88,-816.702 488.404,-816.52 488.402,-816.518 " transform="matrix(1, 0, 0, 1, 0, 0)" fill="#004080" fill-opacity="0.50" stroke="#004080" stroke-width="1" stroke-opacity="0.10" fill-rule="winding" ub:uuid="24fed704-50fe-423c-8f9e-7bb20b1c02ae" ub:parent="c98cd2a3-8278-4cdc-884e-11d6439e4698"/>
        <polygon points="502.116,-792.62 501.951,-791.537 501.629,-789.873 501.279,-788.464 500.88,-787.153 500.409,-785.859 499.867,-784.596 499.247,-783.348 498.465,-781.958 497.736,-780.791 496.788,-779.413 495.645,-777.881 493.768,-775.38 492.743,-774.129 491.528,-772.879 490.182,-771.725 488.712,-770.693 487.277,-769.876 486.063,-769.295 485.172,-768.913 485.176,-768.912 481.113,-768.087 479.814,-768.349 480.597,-768.702 481.764,-769.301 482.857,-769.968 483.707,-770.575 484.522,-771.242 485.294,-771.965 486.017,-772.737 486.684,-773.552 487.589,-774.876 488.263,-776.084 489.385,-778.077 489.797,-778.714 490.241,-779.509 490.242,-779.507 490.414,-779.948 490.61,-780.264 490.608,-780.266 491.087,-781.393 491.611,-782.959 491.82,-783.779 491.853,-783.772 495.661,-784.493 498.834,-786.472 501.098,-789.434 502.145,-792.992 502.117,-792.618 502.116,-792.62 " transform="matrix(1, 0, 0, 1, 0, 0)" fill="#004080" fill-opacity="0.50" stroke="#004080" stroke-width="1" stroke-opacity="0.10" fill-rule="winding" ub:uuid="e691ad61-1795-4406-97b1-e38bfc8ab458" ub:parent="c98cd2a3-8278-4cdc-884e-11d6439e4698"/>
        <polygon points="484.757,-768.747 483.85,-768.41 482.62,-768.013 481.268,-767.651 479.456,-767.197 477.442,-766.708 475.574,-766.418 473.85,-766.331 472.275,-766.41 472.598,-766.425 472.595,-766.425 473.326,-766.478 474.715,-766.684 476.024,-766.994 477.23,-767.354 478.358,-767.749 479.465,-768.191 479.814,-768.349 481.113,-768.087 484.991,-768.874 484.761,-768.746 484.757,-768.747 " transform="matrix(1, 0, 0, 1, 0, 0)" fill="#004080" fill-opacity="0.50" stroke="#004080" stroke-width="1" stroke-opacity="0.10" fill-rule="winding" ub:uuid="92dd432e-bae9-411d-b310-9c14fd825d1b" ub:parent="c98cd2a3-8278-4cdc-884e-11d6439e4698"/>
        <polygon points="453.451,-785.262 453.376,-785.77 453.188,-787.808 453.103,-790.008 453.119,-792.267 453.232,-794.525 453.441,-796.779 453.746,-799.028 454.146,-801.268 454.64,-803.498 455.205,-805.641 456.093,-808.749 457.177,-812.52 457.85,-814.551 457.848,-814.553 459.322,-817.4 461.568,-819.645 464.415,-821.117 467.693,-821.646 471.732,-820.83 475.031,-818.607 475.541,-817.849 475.521,-817.848 473.932,-817.591 472.677,-817.286 471.672,-816.963 470.639,-816.549 469.586,-816.029 468.613,-815.446 467.813,-814.905 466.495,-813.974 464.996,-812.869 463.898,-811.995 463.035,-811.231 463.035,-811.231 462.864,-810.999 462.605,-810.824 461.793,-810.006 460.829,-808.926 459.929,-807.793 459.094,-806.614 458.328,-805.394 457.629,-804.136 456.998,-802.847 456.434,-801.53 455.934,-800.189 455.497,-798.826 455.069,-797.234 454.573,-794.838 453.955,-791.346 453.606,-789.483 453.439,-788.079 453.389,-787.025 453.399,-785.982 453.451,-785.262 " transform="matrix(1, 0, 0, 1, 0, 0)" fill="#004080" fill-opacity="0.50" stroke="#004080" stroke-width="1" stroke-opacity="0.10" fill-rule="winding" ub:uuid="cc4e54f6-796e-4b1b-b4e5-73c5f3d45b49" ub:parent="c98cd2a3-8278-4cdc-884e-11d6439e4698"/>
        <polygon points="458.009,-814.994 458.55,-816.39 459.448,-818.428 460.409,-820.349 461.58,-822.534 462.786,-824.624 463.707,-826.049 464.73,-827.413 465.868,-828.713 467.121,-829.932 468.371,-830.964 469.617,-831.888 470.965,-832.851 471.993,-833.553 472.922,-834.122 473.876,-834.614 474.836,-835.026 475.793,-835.362 476.738,-835.629 477.384,-835.775 477.379,-835.777 479.609,-836.017 483.648,-835.201 486.946,-832.978 489.17,-829.679 489.985,-825.641 489.367,-822.105 487.659,-819.092 485.806,-817.462 485.437,-817.57 484.421,-817.787 482.704,-817.977 481.212,-817.997 479.134,-817.997 477.335,-817.983 475.541,-817.849 475.031,-818.607 471.732,-820.83 467.693,-821.646 464.415,-821.117 461.568,-819.645 459.322,-817.4 457.968,-814.785 458.007,-814.997 458.009,-814.994 " transform="matrix(1, 0, 0, 1, 0, 0)" fill="#004080" fill-opacity="0.50" stroke="#004080" stroke-width="1" stroke-opacity="0.10" fill-rule="winding" ub:uuid="219a90c4-3a7b-4ee7-a3ac-892dd67fbde8" ub:parent="c98cd2a3-8278-4cdc-884e-11d6439e4698"/>
        <polygon points="478.207,-835.922 479.471,-836.082 481.057,-836.154 482.472,-836.103 483.753,-835.945 485.025,-835.677 486.269,-835.303 487.468,-834.828 488.607,-834.266 489.677,-833.627 490.67,-832.926 491.774,-832.007 492.872,-830.937 494.118,-829.607 495.304,-828.232 496.428,-826.803 497.373,-825.435 498.21,-824.011 498.939,-822.552 499.462,-821.336 499.464,-821.34 500.292,-817.27 499.477,-813.231 497.29,-809.988 496.938,-810.416 495.827,-811.543 494.769,-812.479 493.695,-813.327 492.498,-814.179 490.911,-815.191 489.493,-815.99 488.402,-816.518 488.404,-816.52 487.88,-816.702 487.578,-816.871 487.576,-816.869 486.635,-817.218 485.806,-817.462 487.659,-819.092 489.367,-822.105 489.985,-825.641 489.17,-829.679 486.946,-832.978 483.648,-835.201 479.609,-836.017 477.942,-835.837 478.202,-835.922 478.207,-835.922 " transform="matrix(1, 0, 0, 1, 0, 0)" fill="#004080" fill-opacity="0.50" stroke="#004080" stroke-width="1" stroke-opacity="0.10" fill-rule="winding" ub:uuid="3d363c61-5bb8-4a8f-83e6-cee968dce96f" ub:parent="c98cd2a3-8278-4cdc-884e-11d6439e4698"/>
        <polygon points="499.672,-820.803 500.139,-819.499 500.638,-817.805 501.031,-816.035 501.306,-814.247 501.468,-812.449 501.52,-810.73 501.52,-807.506 501.515,-803.305 501.471,-802.149 501.047,-803.423 500.47,-804.86 499.782,-806.297 498.97,-807.715 498.022,-809.099 497.29,-809.988 499.477,-813.231 500.292,-817.27 499.512,-821.104 499.674,-820.807 499.672,-820.803 495.348,-777.486 495.324,-777.435 495.326,-777.433 493.739,-775.033 492.877,-774.293 493.768,-775.38 495.348,-777.486 499.672,-820.803 " transform="matrix(1, 0, 0, 1, 0, 0)" fill="#004080" fill-opacity="0.50" stroke="#004080" stroke-width="1" stroke-opacity="0.10" fill-rule="winding" ub:uuid="6e894a82-7d9e-4d6a-b6fa-74477d8136a3" ub:parent="c98cd2a3-8278-4cdc-884e-11d6439e4698"/>
        <polygon points="495.138,-777.063 494.287,-775.449 493.541,-774.154 492.756,-772.915 491.896,-771.69 490.977,-770.509 490.001,-769.374 488.969,-768.29 487.882,-767.257 486.731,-766.279 485.507,-765.362 484.204,-764.516 482.814,-763.752 481.335,-763.087 479.772,-762.541 478.133,-762.132 476.439,-761.878 474.844,-761.793 473.505,-761.822 472.555,-761.89 472.555,-761.89 468.79,-762.906 465.741,-765.162 463.7,-768.369 463.623,-768.771 464.299,-768.38 465.567,-767.755 466.791,-767.268 467.813,-766.949 468.875,-766.697 469.969,-766.52 471.084,-766.422 471.818,-766.406 471.818,-766.406 471.948,-766.405 472.273,-766.41 472.275,-766.41 473.85,-766.331 475.574,-766.418 477.442,-766.708 479.456,-767.197 481.268,-767.651 482.62,-768.013 483.85,-768.41 484.757,-768.747 484.761,-768.746 484.991,-768.874 485.176,-768.912 485.172,-768.913 486.063,-769.295 487.277,-769.876 488.712,-770.693 490.182,-771.725 491.528,-772.879 492.743,-774.129 492.877,-774.293 493.739,-775.033 495.221,-777.274 495.139,-777.062 495.138,-777.063 " transform="matrix(1, 0, 0, 1, 0, 0)" fill="#004080" fill-opacity="0.50" stroke="#004080" stroke-width="1" stroke-opacity="0.10" fill-rule="winding" ub:uuid="c789bb1a-580f-4957-b4b4-dc6f41b02eea" ub:parent="c98cd2a3-8278-4cdc-884e-11d6439e4698"/>
        <polygon points="472.044,-761.941 471.1,-762.062 469.913,-762.27 468.769,-762.527 467.633,-762.856 466.555,-763.262 465.517,-763.746 464.531,-764.3 463.604,-764.914 462.74,-765.576 461.942,-766.279 461.21,-767.011 460.387,-767.952 459.52,-769.096 458.703,-770.321 457.97,-771.56 457.305,-772.834 456.674,-774.217 455.995,-775.94 455.412,-777.596 455.411,-777.591 455.359,-777.896 455.437,-777.704 456.241,-776.1 457.078,-774.732 457.808,-773.718 458.634,-772.737 459.643,-771.716 460.747,-770.748 461.874,-769.885 463.05,-769.102 463.623,-768.771 463.7,-768.369 465.741,-765.162 468.79,-762.906 472.463,-761.914 472.043,-761.94 472.044,-761.941 " transform="matrix(1, 0, 0, 1, 0, 0)" fill="#004080" fill-opacity="0.50" stroke="#004080" stroke-width="1" stroke-opacity="0.10" fill-rule="winding" ub:uuid="c607b9f1-f427-49fe-befb-26b729d47d37" ub:parent="c98cd2a3-8278-4cdc-884e-11d6439e4698"/>
        <polygon points="455.299,-777.936 455.158,-778.388 455.359,-777.896 455.382,-777.763 455.298,-777.931 455.299,-777.936 453.11,-791.013 453.117,-793.057 453.223,-795.576 453.369,-797.296 453.597,-798.978 454.006,-801.122 454.832,-805.56 456.012,-811.941 456.71,-815.301 457.284,-817.636 458.233,-821.211 459.269,-824.762 459.846,-826.5 460.319,-827.762 460.317,-827.765 461.835,-830.469 464.063,-832.593 466.846,-833.981 470.028,-834.478 472.641,-833.95 471.993,-833.553 470.965,-832.851 469.617,-831.888 468.371,-830.964 467.121,-829.932 465.868,-828.713 464.73,-827.413 463.707,-826.049 462.786,-824.624 461.58,-822.534 460.409,-820.349 459.448,-818.428 458.55,-816.39 458.009,-814.994 458.007,-814.997 457.968,-814.785 457.848,-814.553 457.85,-814.551 457.177,-812.52 456.093,-808.749 455.205,-805.641 454.64,-803.498 454.146,-801.268 453.746,-799.028 453.441,-796.779 453.232,-794.525 453.119,-792.267 453.11,-791.013 455.299,-777.936 " transform="matrix(1, 0, 0, 1, 0, 0)" fill="#004080" fill-opacity="0.50" stroke="#004080" stroke-width="1" stroke-opacity="0.10" fill-rule="winding" ub:uuid="ae51c271-e09f-4a3f-af2d-22ebacf6b27e" ub:parent="c98cd2a3-8278-4cdc-884e-11d6439e4698"/>
        <polygon points="460.555,-828.334 461.069,-829.472 461.809,-830.857 462.826,-832.539 464.074,-834.418 465.883,-836.962 467.985,-839.779 469.594,-841.82 470.862,-843.327 472.133,-844.74 473.421,-846.077 474.523,-847.122 475.711,-848.116 476.846,-848.933 477.799,-849.527 478.617,-849.967 479.517,-850.38 480.513,-850.755 481.545,-851.055 482.194,-851.2 482.189,-851.201 484.347,-851.426 488.386,-850.61 491.685,-848.386 493.908,-845.088 494.724,-841.049 494.1,-837.497 492.375,-834.473 490.632,-832.953 489.677,-833.627 488.607,-834.266 487.468,-834.828 486.269,-835.303 485.025,-835.677 483.753,-835.945 482.472,-836.103 481.057,-836.154 479.471,-836.082 478.207,-835.922 478.202,-835.922 477.942,-835.837 477.379,-835.777 477.384,-835.775 476.738,-835.629 475.793,-835.362 474.836,-835.026 473.876,-834.614 472.922,-834.122 472.641,-833.95 470.028,-834.478 466.846,-833.981 464.063,-832.593 461.835,-830.469 460.433,-827.971 460.553,-828.336 460.555,-828.334 " transform="matrix(1, 0, 0, 1, 0, 0)" fill="#004080" fill-opacity="0.50" stroke="#004080" stroke-width="1" stroke-opacity="0.10" fill-rule="winding" ub:uuid="d3511050-91e3-49fd-b0e1-5d9cf47f96e7" ub:parent="c98cd2a3-8278-4cdc-884e-11d6439e4698"/>
        <polygon points="482.88,-851.321 483.504,-851.405 484.704,-851.491 486.155,-851.483 487.942,-851.314 489.989,-850.936 491.952,-850.396 493.562,-849.8 495.013,-849.113 496.249,-848.389 497.238,-847.699 497.966,-847.112 498.648,-846.492 499.284,-845.844 500.041,-844.967 500.91,-843.794 502.015,-841.92 503.402,-838.853 504.871,-834.619 505.69,-831.277 505.692,-831.282 505.978,-828.853 505.162,-824.814 502.938,-821.516 500.102,-819.603 499.672,-820.803 499.674,-820.807 499.512,-821.104 499.464,-821.34 499.462,-821.336 498.939,-822.552 498.21,-824.011 497.373,-825.435 496.428,-826.803 495.304,-828.232 494.118,-829.607 492.872,-830.937 491.774,-832.007 490.67,-832.926 490.632,-832.953 492.375,-834.473 494.1,-837.497 494.724,-841.049 493.908,-845.088 491.685,-848.386 488.386,-850.61 484.347,-851.426 482.658,-851.25 482.875,-851.322 482.88,-851.321 " transform="matrix(1, 0, 0, 1, 0, 0)" fill="#004080" fill-opacity="0.50" stroke="#004080" stroke-width="1" stroke-opacity="0.10" fill-rule="winding" ub:uuid="5e3f0965-19ea-4d20-85f1-958fd998228e" ub:parent="c98cd2a3-8278-4cdc-884e-11d6439e4698"/>
        <polygon points="505.851,-830.468 506.282,-827.688 506.483,-824.725 506.39,-821.253 505.862,-815.1 505.743,-810.906 505.165,-806.545 502.689,-796.877 502.376,-795.998 502.362,-797.263 502.207,-798.89 501.922,-800.468 501.529,-801.975 501.471,-802.149 501.515,-803.305 501.52,-807.506 501.52,-810.73 501.468,-812.449 501.306,-814.247 501.031,-816.035 500.638,-817.805 500.139,-819.499 500.102,-819.603 502.938,-821.516 505.162,-824.814 505.978,-828.853 505.754,-830.757 505.852,-830.473 505.851,-830.468 " transform="matrix(1, 0, 0, 1, 0, 0)" fill="#004080" fill-opacity="0.50" stroke="#004080" stroke-width="1" stroke-opacity="0.10" fill-rule="winding" ub:uuid="d67b388e-bb7e-4883-a75d-01da6851a910" ub:parent="c98cd2a3-8278-4cdc-884e-11d6439e4698"/>
        <polygon points="460.012,-826.944 460.284,-827.938 464.099,-837.705 465.791,-841.047 467.353,-843.486 469.285,-845.931 471.276,-848.029 473.075,-849.61 474.789,-850.86 476.286,-851.767 477.72,-852.483 479.242,-853.091 480.688,-853.531 482.168,-853.836 483.535,-853.972 484.399,-853.985 488.438,-853.17 491.736,-850.946 492.159,-850.319 491.952,-850.396 489.989,-850.936 487.942,-851.314 486.155,-851.483 484.704,-851.491 483.504,-851.405 482.88,-851.321 482.875,-851.322 482.658,-851.25 482.189,-851.201 482.194,-851.2 481.545,-851.055 480.513,-850.755 479.517,-850.38 478.617,-849.967 477.799,-849.527 476.846,-848.933 475.711,-848.116 474.523,-847.122 473.421,-846.077 472.133,-844.74 470.862,-843.327 469.594,-841.82 467.985,-839.779 465.883,-836.962 464.074,-834.418 462.826,-832.539 461.809,-830.857 461.069,-829.472 460.555,-828.334 460.553,-828.336 460.433,-827.971 460.317,-827.765 460.319,-827.762 460.012,-826.944 " transform="matrix(1, 0, 0, 1, 0, 0)" fill="#004080" fill-opacity="0.50" stroke="#004080" stroke-width="1" stroke-opacity="0.10" fill-rule="winding" ub:uuid="1ecc1852-1ac5-46d7-977d-a173715005d8" ub:parent="c98cd2a3-8278-4cdc-884e-11d6439e4698"/>
        <polygon points="485.432,-853.934 486.284,-853.836 487.608,-853.571 488.865,-853.195 490.041,-852.725 491.129,-852.182 492.129,-851.582 493.055,-850.935 493.941,-850.22 494.797,-849.424 495.173,-849.019 495.013,-849.113 493.562,-849.8 492.159,-850.319 491.736,-850.946 488.438,-853.17 484.399,-853.985 485.433,-853.934 485.432,-853.934 " transform="matrix(1, 0, 0, 1, 0, 0)" fill="#004080" fill-opacity="0.50" stroke="#004080" stroke-width="1" stroke-opacity="0.10" fill-rule="winding" ub:uuid="82b56f34-9ecf-45dc-b555-00a99c89e818" ub:parent="c98cd2a3-8278-4cdc-884e-11d6439e4698"/>
    </g>
</svg>
