<?xml version="1.0" encoding="UTF-8"?>
<svg xmlns="http://www.w3.org/2000/svg" xmlns:xlink="http://www.w3.org/1999/xlink" xmlns:ub="http://uniboard.mnemis.com/document" xmlns:xhtml="http://www.w3.org/1999/xhtml" version="1.1" ub:version="4.8.0" ub:uuid="7fd6e97b-9954-45ed-9df6-29989f3e315f" viewBox="-690 -530 1380 1060" ub:nominal-size="1280x960" ub:dark-background="false" ub:crossed-background="true" ub:ruled-background="false" ub:grid-size="55" ub:intermediate-lines="0" pageDpi="158">
    <rect fill="white" x="-690" y="-530" width="1380" height="1060"/>
    <image xlink:href="images/{85b12cec-e6d4-4f44-87bc-937a60fcd9e5}.png" x="0" y="0" width="1261" height="212" transform="matrix(0.947867, 0, 0, 0.947867, -571.518, -473.175)" ub:z-value="-999999.000000" ub:background="false" ub:uuid="85b12cec-e6d4-4f44-87bc-937a60fcd9e5" ub:source="/Users/khale/AppData/Local/OpenBoard/document/OpenBoard Document 2023-03-15 20-02-56.641/images/{85b12cec-e6d4-4f44-87bc-937a60fcd9e5}.png" ub:layer="-1000"/>
    <g ub:z-value="-999998" ub:fill-on-dark-background="#ffffff" ub:fill-on-light-background="#000000" ub:uuid="db8939bc-1a64-477d-8e57-066d0463d326" ub:layer="-1000">
        <polygon points="564.745,-210.968 563.609,-212.694 563.372,-213.142 563.206,-213.539 563.077,-213.948 562.987,-214.365 562.937,-214.79 562.93,-215.217 562.966,-215.642 563.043,-216.063 563.156,-216.464 563.292,-216.838 563.464,-217.23 563.821,-217.896 564.273,-218.575 564.801,-219.236 565.411,-219.888 566.071,-220.486 566.469,-220.793 566.851,-221.056 567.246,-221.296 567.653,-221.514 568.071,-221.709 568.5,-221.88 568.969,-222.037 569.795,-222.25 570.627,-222.417 571.455,-222.541 572.285,-222.624 573.12,-222.666 573.989,-222.659 574.91,-222.571 575.858,-222.399 576.829,-222.146 577.836,-221.81 579.272,-221.228 580.176,-220.817 581.34,-220.22 582.064,-219.795 582.719,-219.356 583.338,-218.869 583.915,-218.337 584.448,-217.759 584.919,-217.162 585.17,-216.8 585.401,-216.419 585.604,-216.006 585.769,-215.577 585.894,-215.135 585.98,-214.682 586.025,-214.223 586.032,-213.759 586,-213.292 585.934,-212.824 585.827,-212.332 585.574,-211.471 585.238,-210.566 584.824,-209.636 584.33,-208.668 583.494,-207.23 582.452,-205.533 581.437,-203.963 578.133,-197.354 578.161,-197.374 578.133,-197.224 578.121,-197.08 578.124,-196.937 578.141,-196.792 578.174,-196.64 578.225,-196.478 578.297,-196.306 578.393,-196.121 578.508,-195.933 578.634,-195.762 578.773,-195.609 578.935,-195.462 579.124,-195.32 579.342,-195.183 579.591,-195.053 579.874,-194.932 580.192,-194.82 580.503,-194.729 582.873,-194.222 589.243,-192.187 592.176,-190.572 593.14,-189.93 593.523,-189.613 593.826,-189.309 594.099,-188.98 594.337,-188.626 594.537,-188.248 594.695,-187.85 594.808,-187.437 594.874,-187.014 594.896,-186.588 594.875,-186.161 594.812,-185.738 594.708,-185.324 594.566,-184.919 594.39,-184.526 594.18,-184.146 593.941,-183.777 593.672,-183.419 593.334,-183.025 592.368,-182.089 590.807,-180.859 587.303,-178.573 586.317,-177.814 584.475,-176.144 583.361,-175.318 582.178,-174.608 580.91,-173.998 579.542,-173.48 577.651,-172.957 576.151,-172.682 575.175,-172.593 574.311,-172.592 573.839,-172.628 573.417,-172.689 573.005,-172.776 572.659,-172.875 572.659,-172.875 571.923,-173.381 571.632,-174.243 572.049,-175.25 573.056,-175.668 573.454,-175.611 573.453,-175.611 573.696,-175.54 573.912,-175.494 574.154,-175.46 574.384,-175.439 575.04,-175.438 575.735,-175.5 576.998,-175.729 578.677,-176.194 579.788,-176.616 580.827,-177.116 581.781,-177.688 582.632,-178.316 584.465,-179.979 585.701,-180.928 589.186,-183.201 590.512,-184.25 591.303,-185.022 591.448,-185.198 591.607,-185.41 591.738,-185.611 591.842,-185.8 591.921,-185.977 591.979,-186.142 592.018,-186.297 592.04,-186.444 592.047,-186.588 592.041,-186.721 592.022,-186.84 591.992,-186.949 591.951,-187.054 591.894,-187.16 591.82,-187.271 591.722,-187.389 591.598,-187.513 591.496,-187.604 590.742,-188.111 588.205,-189.534 582.079,-191.487 579.881,-191.949 579.328,-192.105 578.839,-192.278 578.372,-192.479 577.928,-192.71 577.51,-192.972 577.119,-193.267 576.759,-193.595 576.433,-193.954 576.15,-194.334 575.915,-194.716 575.716,-195.101 575.551,-195.498 575.421,-195.906 575.331,-196.324 575.281,-196.748 575.274,-197.175 575.31,-197.601 575.387,-198.021 575.576,-198.61 578.919,-205.295 580.04,-207.048 581.05,-208.694 581.838,-210.048 582.255,-210.865 582.601,-211.644 582.872,-212.372 583.075,-213.068 583.13,-213.327 583.167,-213.59 583.184,-213.836 583.181,-214.065 583.16,-214.279 583.122,-214.482 583.067,-214.676 582.994,-214.864 582.903,-215.049 582.782,-215.247 582.645,-215.446 582.28,-215.912 581.901,-216.322 581.491,-216.701 581.046,-217.05 580.552,-217.38 579.985,-217.714 578.927,-218.257 578.16,-218.606 576.832,-219.144 576.016,-219.416 575.24,-219.618 574.517,-219.75 573.842,-219.814 573.182,-219.818 572.498,-219.783 571.809,-219.714 571.118,-219.611 570.43,-219.473 569.747,-219.297 569.485,-219.207 569.202,-219.094 568.927,-218.966 568.659,-218.823 568.399,-218.664 568.145,-218.49 567.925,-218.323 567.408,-217.857 566.954,-217.37 566.571,-216.891 566.263,-216.43 566.012,-215.956 565.937,-215.78 565.865,-215.583 565.817,-215.415 565.789,-215.266 565.777,-215.122 565.78,-214.979 565.797,-214.834 565.83,-214.682 565.881,-214.52 565.953,-214.347 566.01,-214.226 567.124,-212.534 567.124,-212.534 567.359,-211.751 566.942,-210.744 565.935,-210.326 564.745,-210.967 564.745,-210.968 " transform="matrix(1, 0, 0, 1, 0, 0)" fill="#000000" fill-opacity="1.00" fill-rule="winding" ub:uuid="7c4d4851-9cb7-4a3d-9164-b656721ac06f" ub:parent="db8939bc-1a64-477d-8e57-066d0463d326"/>
    </g>
    <g ub:z-value="-999997" ub:fill-on-dark-background="#ffffff" ub:fill-on-light-background="#000000" ub:uuid="24948566-0118-4014-ad17-ebeca32bad9c" ub:layer="-1000">
        <polygon points="577.349,-243.561 574.291,-243.519 573.583,-243.452 572.31,-243.274 571.463,-243.119 570.608,-242.902 569.72,-242.584 568.775,-242.154 567.776,-241.61 566.729,-240.954 565.149,-239.845 564.224,-239.134 562.931,-238.033 562.187,-237.324 560.177,-235.314 557.459,-232.587 556.013,-231.003 554.469,-229.152 552.833,-227.042 551.199,-224.765 549.65,-222.407 548.182,-219.961 546.834,-217.52 545.411,-214.749 544.655,-213.099 544.289,-212.183 543.667,-210.388 542.692,-207.164 541.38,-202.342 540.485,-198.714 540.272,-197.717 540.113,-196.749 539.989,-195.596 539.864,-193.445 539.822,-190.861 539.864,-188.099 539.99,-185.425 540.2,-182.833 540.388,-181.189 540.642,-179.628 540.966,-178.15 541.361,-176.752 541.807,-175.475 543.254,-172.312 544.923,-169.409 546.751,-166.802 548.187,-165.079 549.628,-163.639 551.19,-162.361 552.889,-161.227 555.652,-159.736 557.488,-158.93 557.488,-158.93 558.338,-157.626 557.921,-156.619 556.914,-156.202 556.616,-156.233 556.34,-156.322 556.34,-156.322 554.378,-157.188 551.443,-158.773 549.496,-160.07 547.716,-161.527 546.08,-163.163 544.477,-165.086 542.517,-167.883 540.72,-171.009 539.186,-174.36 538.644,-175.894 538.203,-177.459 537.844,-179.095 537.566,-180.8 537.364,-182.566 537.147,-185.243 537.017,-188.011 536.973,-190.861 537.017,-193.546 537.148,-195.811 537.29,-197.126 537.473,-198.247 537.715,-199.377 538.624,-203.061 539.952,-207.943 540.953,-211.252 541.613,-213.16 542.044,-214.239 542.855,-216.007 544.319,-218.858 545.714,-221.383 547.238,-223.922 548.851,-226.378 550.549,-228.744 552.247,-230.936 553.865,-232.874 555.41,-234.565 558.161,-237.327 560.187,-239.352 561.038,-240.162 562.423,-241.341 563.473,-242.149 565.141,-243.319 566.335,-244.068 567.501,-244.702 568.645,-245.222 569.77,-245.625 570.851,-245.901 571.866,-246.088 573.242,-246.281 574.205,-246.366 577.31,-246.409 577.31,-246.409 577.329,-246.409 578.337,-245.992 578.754,-244.985 578.343,-243.985 577.349,-243.561 577.349,-243.561 " transform="matrix(1, 0, 0, 1, 0, 0)" fill="#000000" fill-opacity="1.00" fill-rule="winding" ub:uuid="44af101e-282e-4933-80c4-75e3c051e27a" ub:parent="24948566-0118-4014-ad17-ebeca32bad9c"/>
    </g>
    <g ub:z-value="-999996" ub:fill-on-dark-background="#ff4400" ub:fill-on-light-background="#ff0000" ub:uuid="ee853f8b-01d9-4fa2-91e9-29a11a23996e" ub:layer="-1000">
        <polygon points="595.624,-443.094 595.091,-444.163 594.451,-445.731 593.997,-447.5 593.801,-449.257 593.834,-450.921 594.049,-452.442 594.393,-453.801 594.822,-455.001 595.301,-456.058 595.968,-457.257 596.771,-458.462 597.754,-459.714 598.827,-460.876 599.989,-461.949 601.208,-462.908 602.36,-463.687 603.427,-464.328 604.518,-464.91 605.365,-465.31 605.362,-465.311 607.676,-466.102 610.184,-466.379 612.48,-466.147 614.619,-465.483 618.241,-463.041 620.683,-459.419 621.347,-457.28 621.579,-454.984 621.098,-451.698 619.748,-448.787 617.671,-446.394 615.006,-444.657 615.003,-444.658 614.71,-444.526 614.662,-444.501 614.59,-444.458 614.612,-444.477 614.767,-444.601 614.942,-444.762 615.103,-444.936 615.25,-445.125 615.312,-445.209 615.685,-445.867 615.927,-446.402 616.175,-447.099 616.396,-447.973 616.545,-449.029 616.568,-450.247 616.419,-451.577 616.07,-452.937 615.592,-454.116 616.008,-453.286 616.009,-453.289 616.898,-450.851 617.211,-448.19 616.979,-445.893 616.315,-443.755 613.873,-440.133 610.251,-437.691 608.112,-437.027 605.816,-436.795 602.605,-437.254 599.748,-438.543 597.377,-440.533 595.623,-443.091 595.624,-443.094 " transform="matrix(1, 0, 0, 1, 0, 0)" fill="#ff0000" fill-opacity="0.50" stroke="#ff0000" stroke-width="1" stroke-opacity="0.10" fill-rule="winding" ub:uuid="5e412dae-2d64-4582-8bc5-58ee8c080151" ub:parent="ee853f8b-01d9-4fa2-91e9-29a11a23996e"/>
        <polygon points="605.952,-465.564 606.87,-465.924 608.105,-466.328 609.374,-466.637 610.387,-466.806 611.42,-466.909 612.463,-466.944 613.506,-466.909 614.539,-466.806 615.552,-466.637 616.538,-466.407 617.545,-466.103 618.651,-465.68 619.821,-465.116 620.977,-464.422 622.09,-463.599 623.131,-462.657 624.074,-461.616 624.897,-460.502 625.329,-459.807 625.33,-459.808 626.528,-457.038 626.953,-453.944 626.722,-451.648 626.058,-449.509 623.616,-445.887 619.994,-443.445 617.855,-442.781 615.558,-442.55 615.507,-442.556 616.315,-443.755 616.979,-445.893 616.985,-445.946 617.671,-446.394 619.748,-448.787 621.098,-451.698 621.579,-454.984 621.347,-457.28 620.683,-459.419 618.241,-463.041 614.619,-465.483 612.48,-466.147 610.184,-466.379 607.676,-466.102 605.725,-465.435 605.948,-465.565 605.952,-465.564 616.985,-445.946 615.006,-444.657 615.003,-444.658 614.71,-444.526 614.662,-444.501 614.59,-444.458 614.612,-444.477 614.767,-444.601 614.942,-444.762 615.103,-444.936 615.25,-445.125 615.312,-445.209 615.685,-445.867 615.927,-446.402 616.175,-447.099 616.396,-447.973 616.545,-449.029 616.568,-450.247 616.419,-451.577 616.07,-452.937 615.592,-454.116 616.008,-453.286 616.009,-453.289 616.898,-450.851 617.211,-448.19 616.985,-445.946 605.952,-465.564 " transform="matrix(1, 0, 0, 1, 0, 0)" fill="#ff0000" fill-opacity="0.50" stroke="#ff0000" stroke-width="1" stroke-opacity="0.10" fill-rule="winding" ub:uuid="45d16e52-f08a-442e-824c-5fb129f44e4a" ub:parent="ee853f8b-01d9-4fa2-91e9-29a11a23996e"/>
        <polygon points="625.825,-458.887 626.155,-458.176 626.587,-457.043 626.905,-455.97 627.138,-454.924 627.298,-453.886 627.389,-452.866 627.418,-451.869 627.371,-450.599 627.194,-449.053 626.857,-447.392 626.443,-445.917 625.95,-444.516 625.356,-443.129 624.654,-441.768 623.916,-440.556 623.197,-439.513 622.378,-438.428 621.631,-437.527 621.084,-436.921 621.084,-436.921 617.34,-434.197 615.087,-433.452 612.653,-433.192 610.356,-433.423 608.218,-434.087 604.596,-436.529 604.267,-437.017 605.816,-436.795 608.112,-437.027 610.251,-437.691 613.873,-440.133 615.507,-442.556 615.558,-442.55 617.855,-442.781 619.994,-443.445 623.616,-445.887 626.058,-449.509 626.722,-451.648 626.953,-453.944 626.528,-457.038 625.544,-459.314 625.826,-458.891 625.825,-458.887 " transform="matrix(1, 0, 0, 1, 0, 0)" fill="#ff0000" fill-opacity="0.50" stroke="#ff0000" stroke-width="1" stroke-opacity="0.10" fill-rule="winding" ub:uuid="05b71280-4b21-43ea-81f4-eb885b68a1af" ub:parent="ee853f8b-01d9-4fa2-91e9-29a11a23996e"/>
        <polygon points="620.66,-436.479 619.888,-435.734 618.623,-434.701 617.257,-433.79 615.844,-433.028 614.366,-432.396 613.15,-431.977 611.68,-431.487 610.313,-431.039 608.975,-430.679 607.689,-430.422 606.38,-430.248 605.01,-430.158 603.659,-430.167 602.23,-430.301 601.108,-430.505 599.977,-430.804 598.854,-431.201 597.758,-431.693 597.115,-432.038 597.113,-432.036 594.716,-433.811 592.86,-436.142 591.661,-438.913 591.236,-442.008 591.467,-444.305 592.131,-446.444 593.833,-448.968 593.997,-447.5 594.451,-445.731 595.091,-444.163 595.624,-443.094 595.623,-443.091 597.377,-440.533 599.748,-438.543 602.605,-437.254 604.267,-437.017 604.596,-436.529 608.218,-434.087 610.356,-433.423 612.653,-433.192 615.087,-433.452 617.34,-434.197 620.84,-436.744 620.66,-436.479 620.66,-436.479 " transform="matrix(1, 0, 0, 1, 0, 0)" fill="#ff0000" fill-opacity="0.50" stroke="#ff0000" stroke-width="1" stroke-opacity="0.10" fill-rule="winding" ub:uuid="660cde14-c180-4d33-a141-9a7a21eba8fc" ub:parent="ee853f8b-01d9-4fa2-91e9-29a11a23996e"/>
        <polygon points="596.31,-432.527 595.715,-432.935 594.797,-433.661 593.794,-434.606 592.838,-435.676 591.853,-437.008 591.017,-438.401 590.329,-439.827 589.802,-441.208 589.33,-442.991 589.107,-444.744 589.106,-446.453 589.296,-448.062 589.637,-449.54 590.088,-450.877 590.613,-452.078 591.188,-453.158 591.952,-454.363 592.893,-455.63 593.724,-456.626 593.724,-456.627 597.555,-459.584 597.688,-459.63 596.771,-458.462 595.968,-457.257 595.301,-456.058 594.822,-455.001 594.393,-453.801 594.049,-452.442 593.834,-450.921 593.801,-449.257 593.833,-448.968 592.131,-446.444 591.467,-444.305 591.236,-442.008 591.661,-438.913 592.86,-436.142 594.716,-433.811 596.706,-432.338 596.309,-432.526 596.31,-432.527 " transform="matrix(1, 0, 0, 1, 0, 0)" fill="#ff0000" fill-opacity="0.50" stroke="#ff0000" stroke-width="1" stroke-opacity="0.10" fill-rule="winding" ub:uuid="64121ed3-4d49-48eb-8987-f37c6774d20f" ub:parent="ee853f8b-01d9-4fa2-91e9-29a11a23996e"/>
        <polygon points="594.156,-457.11 595.029,-458.028 596.185,-459.12 597.438,-460.173 598.852,-461.241 600.403,-462.361 601.879,-463.375 602.184,-463.568 601.208,-462.908 599.989,-461.949 598.827,-460.876 597.754,-459.714 597.688,-459.63 597.555,-459.584 593.964,-456.812 594.156,-457.111 594.156,-457.11 602.571,-463.814 603.181,-464.202 604.536,-464.987 605.933,-465.733 607.779,-466.659 609.371,-467.454 611.426,-468.243 613.729,-468.672 615.962,-468.676 617.961,-468.341 619.662,-467.79 621.075,-467.129 622.245,-466.426 622.887,-465.97 622.888,-465.971 624.821,-464.189 626.3,-462.006 627.247,-459.501 627.58,-456.755 627.348,-454.458 627.256,-454.16 627.138,-454.924 626.905,-455.97 626.587,-457.043 626.155,-458.176 625.825,-458.887 625.826,-458.891 625.544,-459.314 625.33,-459.808 625.329,-459.807 624.897,-460.502 624.074,-461.616 623.131,-462.657 622.09,-463.599 620.977,-464.422 619.821,-465.116 618.651,-465.68 617.545,-466.103 616.538,-466.407 615.552,-466.637 614.539,-466.806 613.506,-466.909 612.463,-466.944 611.42,-466.909 610.387,-466.806 609.374,-466.637 608.105,-466.328 606.87,-465.924 605.952,-465.564 605.948,-465.565 605.725,-465.435 605.362,-465.311 605.365,-465.31 604.518,-464.91 603.427,-464.328 602.571,-463.814 594.156,-457.11 " transform="matrix(1, 0, 0, 1, 0, 0)" fill="#ff0000" fill-opacity="0.50" stroke="#ff0000" stroke-width="1" stroke-opacity="0.10" fill-rule="winding" ub:uuid="d0a325b3-f0b2-47bf-8400-2ec256032137" ub:parent="ee853f8b-01d9-4fa2-91e9-29a11a23996e"/>
        <polygon points="623.525,-465.471 624.062,-465.011 624.828,-464.283 625.613,-463.439 626.418,-462.43 627.19,-461.269 627.897,-459.94 628.495,-458.44 628.935,-456.787 629.169,-455.025 629.169,-453.224 628.935,-451.463 628.538,-449.94 628.116,-448.67 627.519,-446.88 627.107,-445.762 626.606,-444.606 626.049,-443.492 625.443,-442.422 624.938,-441.618 624.939,-441.617 623.152,-439.446 623.142,-439.439 623.197,-439.513 623.916,-440.556 624.654,-441.768 625.356,-443.129 625.95,-444.516 626.443,-445.917 626.857,-447.392 627.194,-449.053 627.371,-450.599 627.418,-451.869 627.389,-452.866 627.298,-453.886 627.256,-454.16 627.348,-454.458 627.58,-456.755 627.247,-459.501 626.3,-462.006 624.821,-464.189 623.265,-465.623 623.525,-465.471 623.525,-465.471 " transform="matrix(1, 0, 0, 1, 0, 0)" fill="#ff0000" fill-opacity="0.50" stroke="#ff0000" stroke-width="1" stroke-opacity="0.10" fill-rule="winding" ub:uuid="98f3aa23-4fa1-4af5-afe9-4d42e7635cd6" ub:parent="ee853f8b-01d9-4fa2-91e9-29a11a23996e"/>
        <polygon points="624.541,-441.032 623.873,-440.125 622.849,-438.923 622.454,-438.528 623.142,-439.439 623.152,-439.446 624.68,-441.303 624.541,-441.032 624.541,-441.032 " transform="matrix(1, 0, 0, 1, 0, 0)" fill="#ff0000" fill-opacity="0.50" stroke="#ff0000" stroke-width="1" stroke-opacity="0.10" fill-rule="winding" ub:uuid="3c782018-001a-48da-ab53-73312cca2e81" ub:parent="ee853f8b-01d9-4fa2-91e9-29a11a23996e"/>
        <polygon points="599.523,-461.725 600.81,-463.512 602,-464.914 602.48,-465.392 602.48,-465.392 606.072,-467.772 608.185,-468.418 610.45,-468.643 612.477,-468.439 611.426,-468.243 609.371,-467.454 607.779,-466.659 605.933,-465.733 604.536,-464.987 603.181,-464.202 602.571,-463.814 602.36,-463.687 602.184,-463.568 601.879,-463.375 600.403,-462.361 599.523,-461.725 " transform="matrix(1, 0, 0, 1, 0, 0)" fill="#ff0000" fill-opacity="0.50" stroke="#ff0000" stroke-width="1" stroke-opacity="0.10" fill-rule="winding" ub:uuid="987f4fa2-74eb-4990-82b0-15966ac81fb2" ub:parent="ee853f8b-01d9-4fa2-91e9-29a11a23996e"/>
        <polygon points="603.034,-465.9 603.564,-466.346 604.439,-466.997 605.367,-467.593 606.342,-468.124 607.351,-468.585 608.358,-468.961 609.337,-469.256 610.323,-469.486 611.337,-469.654 612.37,-469.758 613.412,-469.792 614.455,-469.758 615.488,-469.654 616.502,-469.486 617.488,-469.256 618.44,-468.97 619.354,-468.635 620.502,-468.124 621.338,-467.683 621.34,-467.684 623.797,-465.916 625.702,-463.569 625.938,-463.032 625.613,-463.439 624.828,-464.283 624.062,-465.011 623.525,-465.471 623.525,-465.471 623.265,-465.623 622.888,-465.971 622.887,-465.97 622.245,-466.426 621.075,-467.129 619.662,-467.79 617.961,-468.341 615.962,-468.676 613.729,-468.672 612.477,-468.439 610.45,-468.643 608.185,-468.418 606.072,-467.772 602.818,-465.616 603.034,-465.9 603.034,-465.9 " transform="matrix(1, 0, 0, 1, 0, 0)" fill="#ff0000" fill-opacity="0.50" stroke="#ff0000" stroke-width="1" stroke-opacity="0.10" fill-rule="winding" ub:uuid="84335779-8e8a-4fe3-a214-838e8ce59f5c" ub:parent="ee853f8b-01d9-4fa2-91e9-29a11a23996e"/>
        <polygon points="622.297,-467.109 623.284,-466.437 624.578,-465.404 625.65,-464.41 626.549,-463.455 627.314,-462.509 628.025,-461.481 628.667,-460.377 629.227,-459.207 629.692,-457.984 630.053,-456.728 630.308,-455.455 630.486,-453.605 630.472,-451.646 630.271,-449.546 629.909,-447.641 629.503,-446.189 629.11,-445.098 628.599,-443.949 628.157,-443.113 628.159,-443.111 626.39,-440.654 624.044,-438.75 621.842,-437.782 622.378,-438.428 622.454,-438.528 622.849,-438.923 623.873,-440.125 624.541,-441.032 624.541,-441.032 624.68,-441.303 624.939,-441.617 624.938,-441.618 625.443,-442.422 626.049,-443.492 626.606,-444.606 627.107,-445.762 627.519,-446.88 628.116,-448.67 628.538,-449.94 628.935,-451.463 629.169,-453.224 629.169,-455.025 628.935,-456.787 628.495,-458.44 627.897,-459.94 627.19,-461.269 626.418,-462.43 625.938,-463.032 625.702,-463.569 623.797,-465.916 621.825,-467.335 622.298,-467.11 622.297,-467.109 " transform="matrix(1, 0, 0, 1, 0, 0)" fill="#ff0000" fill-opacity="0.50" stroke="#ff0000" stroke-width="1" stroke-opacity="0.10" fill-rule="winding" ub:uuid="c76a1f7b-e5c9-4e54-a4a9-d85dc411cf49" ub:parent="ee853f8b-01d9-4fa2-91e9-29a11a23996e"/>
        <polygon points="627.584,-442.154 626.912,-441.167 625.553,-439.513 623.529,-437.507 621.378,-435.739 619.607,-434.527 618.128,-433.716 616.98,-433.204 616.066,-432.87 615.114,-432.584 614.435,-432.426 615.844,-433.028 617.257,-433.79 618.623,-434.701 619.888,-435.734 620.66,-436.479 620.66,-436.479 620.84,-436.744 621.084,-436.921 621.084,-436.921 621.631,-437.527 621.842,-437.782 624.044,-438.75 626.39,-440.654 627.81,-442.626 627.585,-442.153 627.584,-442.154 " transform="matrix(1, 0, 0, 1, 0, 0)" fill="#ff0000" fill-opacity="0.50" stroke="#ff0000" stroke-width="1" stroke-opacity="0.10" fill-rule="winding" ub:uuid="e6ab5ac5-5769-4836-9f68-8a8ef4272a6d" ub:parent="ee853f8b-01d9-4fa2-91e9-29a11a23996e"/>
    </g>
</svg>
