<?xml version="1.0" encoding="UTF-8"?>
<svg xmlns="http://www.w3.org/2000/svg" xmlns:xlink="http://www.w3.org/1999/xlink" xmlns:ub="http://uniboard.mnemis.com/document" xmlns:xhtml="http://www.w3.org/1999/xhtml" version="1.1" ub:version="4.8.0" ub:uuid="c6d880d8-4208-4619-810c-348320171517" viewBox="-690 -542 1380 1072" ub:nominal-size="1280x960" ub:dark-background="false" ub:crossed-background="true" ub:ruled-background="false" ub:grid-size="55" ub:intermediate-lines="0" pageDpi="158">
    <rect fill="white" x="-690" y="-542" width="1380" height="1072"/>
    <image xlink:href="images/{69c40b3e-004b-4177-807f-7840ae3e8be5}.png" x="0" y="0" width="1132" height="471" transform="matrix(0.948718, 0, 0, 0.948718, -441.545, -491.673)" ub:z-value="-999999.000000" ub:background="false" ub:uuid="69c40b3e-004b-4177-807f-7840ae3e8be5" ub:source="/Users/khale/AppData/Local/OpenBoard/document/OpenBoard Document 2023-03-15 20-02-56.641/images/{69c40b3e-004b-4177-807f-7840ae3e8be5}.png" ub:layer="-1000"/>
    <g ub:z-value="-999998" ub:fill-on-dark-background="#ffffff" ub:fill-on-light-background="#000000" ub:uuid="ee84731e-07ab-42f7-ac34-4b94ff1d7b38" ub:layer="-1000">
        <polygon points="535.872,1.56931 538.573,0.247932 539.506,-0.123148 540.433,-0.432058 541.395,-0.698126 542.403,-0.924127 543.884,-1.17593 544.917,-1.2999 546.41,-1.40411 547.886,-1.42431 550.267,-1.42433 553.591,-1.42433 557.397,-1.41953 558.386,-1.37871 559.326,-1.29693 560.234,-1.17319 561.111,-1.00594 561.979,-0.784213 562.855,-0.477356 563.723,-0.087018 564.579,0.383393 565.425,0.93356 566.239,1.55033 566.664,1.92541 567.035,2.29601 567.376,2.68386 567.687,3.08904 567.967,3.51129 568.213,3.94995 568.425,4.40395 568.601,4.87184 568.747,5.3779 568.92,6.24569 569.009,7.14549 569.009,8.04739 568.92,8.94719 568.748,9.80927 568.37,11.3998 567.799,14.08 567.332,16.0261 567.021,17.0636 566.505,18.5388 565.585,20.9171 562.818,30.3183 561.773,33.6876 560.496,37.2381 560.036,39.0344 559.834,40.3797 559.635,43.9601 558.875,48.7625 558.815,49.6409 558.813,49.8746 558.813,49.8746 558.388,50.8663 557.389,51.276 556.382,50.8588 555.964,49.8516 555.965,49.8287 555.965,49.8287 555.972,49.4736 556.055,48.358 556.804,43.6363 556.995,40.1425 557.248,38.4493 557.785,36.3619 559.072,32.7812 560.088,29.5037 562.866,20.0657 563.836,17.5443 564.316,16.1709 564.575,15.3092 565.02,13.4571 565.589,10.7818 565.97,9.18182 566.102,8.52462 566.164,7.90513 566.164,7.28774 566.102,6.66826 565.971,6.01676 565.899,5.77267 565.799,5.5094 565.679,5.25124 565.536,4.99672 565.369,4.74479 565.177,4.49478 564.958,4.24642 564.712,3.99981 564.462,3.77667 563.786,3.26347 563.113,2.8261 562.449,2.46091 561.797,2.16756 561.155,1.94267 560.494,1.77508 559.776,1.63847 559.012,1.53432 558.205,1.46417 557.371,1.42902 553.59,1.42433 550.267,1.42433 547.9,1.42431 546.528,1.44209 545.172,1.53729 544.306,1.64121 542.939,1.87368 542.086,2.06548 541.262,2.29319 540.48,2.55401 539.779,2.82863 537.125,4.12802 537.125,4.1282 536.825,4.23538 536.499,4.273 535.491,3.85582 535.074,2.84866 535.872,1.56913 535.872,1.56931 " transform="matrix(1, 0, 0, 1, 0, 0)" fill="#000000" fill-opacity="1.00" fill-rule="winding" ub:uuid="9189b8d6-a1e8-4ffc-bb85-28156b777b52" ub:parent="ee84731e-07ab-42f7-ac34-4b94ff1d7b38"/>
    </g>
    <g ub:z-value="-999997" ub:fill-on-dark-background="#ffffff" ub:fill-on-light-background="#000000" ub:uuid="64fc859c-d7c5-4a3e-9b2b-6f92e8dd1d94" ub:layer="-1000">
        <polygon points="553.072,36.6556 556.399,35.3554 557.428,35.0467 558.387,34.8337 559.324,34.7032 560.14,34.6621 562.375,34.4949 562.984,34.3852 564.098,34.126 565.751,33.7418 568.91,33.0786 570.813,32.6144 571.406,32.4392 572.356,32.155 573.448,31.9431 574.595,31.8322 575.394,31.8106 575.394,31.8106 575.43,31.8101 576.437,32.2273 576.855,33.2344 576.449,34.2295 575.467,34.6583 575.467,34.6583 574.784,34.6746 573.851,34.7631 573.035,34.9215 572.219,35.1691 571.521,35.3738 569.53,35.8591 566.356,36.5253 564.743,36.9007 563.568,37.1733 562.658,37.3294 560.334,37.5041 559.594,37.539 558.897,37.6364 558.147,37.8031 557.39,38.0262 554.109,39.3088 554.109,39.309 553.858,39.3814 553.591,39.4065 552.583,38.9894 552.166,37.9822 553.072,36.6554 553.072,36.6556 " transform="matrix(1, 0, 0, 1, 0, 0)" fill="#000000" fill-opacity="1.00" fill-rule="winding" ub:uuid="f3cfeb80-7c2d-4d17-a435-dda53b86c93e" ub:parent="64fc859c-d7c5-4a3e-9b2b-6f92e8dd1d94"/>
    </g>
    <g ub:z-value="-999996" ub:fill-on-dark-background="#ffffff" ub:fill-on-light-background="#000000" ub:uuid="c875f7eb-1714-4e24-bd2a-693e4bdcf4d6" ub:layer="-1000">
        <polygon points="545.683,-18.6675 539.617,-15.625 538.984,-15.2426 538.303,-14.7656 537.611,-14.2121 536.918,-13.5885 535.84,-12.5017 534.84,-11.4063 533.926,-10.3144 533.083,-9.21145 531.852,-7.49488 530.091,-4.9131 528.213,-1.9793 526.715,0.530241 524.062,5.1687 522.177,8.48427 521.496,9.81128 520.508,12.0098 519.91,13.5333 519.057,16.0084 518.043,19.2743 517.18,22.3871 516.637,24.621 516.177,26.85 515.802,29.0765 515.515,31.2946 515.407,32.6959 515.371,34.0653 515.407,35.3927 515.514,36.6812 515.69,37.9435 516.036,39.8868 516.465,41.8241 516.979,43.768 517.358,44.9953 517.766,46.1303 518.453,47.7233 519.211,49.1313 519.735,49.9166 520.33,50.6432 520.989,51.3023 521.673,51.8666 526.462,55.0309 527.604,55.8461 528.259,56.238 528.917,56.567 529.563,56.8254 530.261,57.0334 530.261,57.0331 530.989,57.5399 531.276,58.3976 530.859,59.4048 529.852,59.822 529.442,59.7622 529.442,59.7619 528.621,59.5141 527.748,59.1648 526.886,58.7341 526.022,58.2145 524.875,57.3964 520.065,54.2177 519.078,53.4147 518.217,52.5544 517.444,51.6098 516.753,50.572 515.887,48.9604 515.122,47.192 514.656,45.8961 514.237,44.5406 513.697,42.4964 513.243,40.4455 512.878,38.4007 512.683,36.9947 512.562,35.5486 512.522,34.0653 512.562,32.5481 512.683,30.9867 512.984,28.6564 513.378,26.325 513.858,23.9963 514.425,21.6628 515.31,18.4705 516.348,15.1275 517.232,12.5605 517.887,10.8935 518.922,8.59109 519.684,7.10742 521.588,3.75711 524.252,-0.900567 525.793,-3.48064 527.713,-6.48156 529.513,-9.12233 530.789,-10.9001 531.702,-12.0951 532.697,-13.2821 533.777,-14.4657 534.94,-15.6388 535.766,-16.3826 536.593,-17.0445 537.431,-17.631 538.318,-18.1601 544.406,-21.2138 544.406,-21.214 544.711,-21.3257 545.045,-21.365 546.052,-20.9478 546.469,-19.9407 545.683,-18.6673 545.683,-18.6675 " transform="matrix(1, 0, 0, 1, 0, 0)" fill="#000000" fill-opacity="1.00" fill-rule="winding" ub:uuid="9c86e7f7-2524-4180-b9c1-7028107ff42d" ub:parent="c875f7eb-1714-4e24-bd2a-693e4bdcf4d6"/>
    </g>
    <g ub:z-value="-999995" ub:fill-on-dark-background="#ffffff" ub:fill-on-light-background="#000000" ub:uuid="d3e72f57-42ed-42d9-8c16-b368c04d5469" ub:layer="-1000">
        <polygon points="544.57,37.0326 544.569,37.4596 544.466,37.0191 544.229,36.6712 544.034,36.5192 543.949,36.4776 543.966,36.4817 544.019,36.4946 544.45,36.5416 545.053,36.5579 547.489,36.5579 550.218,36.5392 551.017,36.4873 551.803,36.4 552.533,36.2816 554.455,35.8678 555.313,35.738 556.143,35.655 556.945,35.6145 558.78,35.5381 560.14,35.3337 565.15,34.218 565.15,34.2179 565.46,34.184 566.467,34.6012 566.884,35.6083 566.566,36.5056 565.77,36.9988 565.769,36.9986 560.714,38.1239 559.036,38.3752 557.072,38.4603 556.356,38.4957 555.666,38.5647 555.005,38.6628 553.091,39.0751 552.188,39.2225 551.264,39.3252 550.278,39.3872 547.5,39.4065 545.036,39.4065 544.272,39.3848 543.639,39.3178 543.275,39.2453 542.949,39.1449 542.599,38.9799 542.214,38.6855 541.863,38.1761 541.722,37.5553 541.721,37.0326 542.138,36.0255 543.145,35.6083 544.153,36.0255 544.57,37.0326 " transform="matrix(1, 0, 0, 1, 0, 0)" fill="#000000" fill-opacity="1.00" fill-rule="winding" ub:uuid="fa42bd22-9c8e-460e-be86-c0f4380fd387" ub:parent="d3e72f57-42ed-42d9-8c16-b368c04d5469"/>
    </g>
    <g ub:z-value="-999994" ub:fill-on-dark-background="#ffffff" ub:fill-on-light-background="#000000" ub:uuid="99baf02d-6a23-4652-9477-5e5df1bdbc4c" ub:layer="-1000">
        <polygon points="488.963,29.3786 489.425,28.9164 489.396,28.9519 489.379,28.9764 489.382,28.9698 489.398,28.9288 489.419,28.8534 489.436,28.7851 489.481,28.4344 489.496,28.0119 489.492,27.95 489.493,27.9495 489.512,27.9921 489.551,28.0466 489.591,28.0831 489.599,28.0894 489.553,28.0717 489.442,28.0444 489.312,28.0244 488.662,28.0164 487.953,28.05 486.742,28.1725 485.925,28.2942 484.578,28.5544 483.746,28.7627 482.943,29.007 482.181,29.2842 481.457,29.5945 480.768,29.9366 479.677,30.5503 478.982,30.9844 477.886,31.7381 477.209,32.2529 476.573,32.8214 475.968,33.4602 475.39,34.1745 474.84,34.9646 474.337,35.8081 473.926,36.6676 473.782,37.0403 473.649,37.4419 473.542,37.8398 473.459,38.2345 473.4,38.6267 473.366,38.9841 473.358,39.8547 473.393,40.6974 473.463,41.5044 473.567,42.2685 473.704,42.9855 473.879,43.6671 473.968,43.9278 474.081,44.2109 474.209,44.4859 474.352,44.7533 474.511,45.0138 474.685,45.2679 474.852,45.4873 475.31,45.9958 475.816,46.4542 476.398,46.891 477.06,47.3046 477.783,47.6832 479.063,48.2206 480.308,48.6128 481.033,48.7731 481.73,48.8705 482.374,48.9021 483.017,48.8705 483.714,48.7731 484.44,48.6128 485.635,48.24 490.348,46.1733 490.347,46.1731 490.623,46.0844 490.92,46.0534 491.927,46.4706 492.344,47.4777 491.492,48.7824 491.492,48.7822 486.719,50.8746 485.207,51.3563 484.224,51.5758 483.288,51.7063 482.374,51.7507 481.46,51.7063 480.524,51.5758 479.541,51.3563 478.079,50.8939 476.596,50.2729 475.647,49.7779 474.79,49.242 474.005,48.6532 473.296,48.0101 472.689,47.3412 472.382,46.9434 472.119,46.5613 471.879,46.1666 471.661,45.7598 471.467,45.3416 471.295,44.9126 471.137,44.4421 470.923,43.6044 470.756,42.7262 470.632,41.819 470.55,40.8789 470.509,39.8984 470.52,38.8794 470.572,38.2873 470.655,37.7299 470.772,37.175 470.921,36.6234 471.101,36.0754 471.328,35.4986 471.828,34.459 472.445,33.4223 473.111,32.4653 473.824,31.5843 474.587,30.7797 475.394,30.0569 476.227,29.4228 477.409,28.6096 478.234,28.0942 479.422,27.426 480.262,27.0085 481.133,26.6351 482.042,26.3045 482.986,26.0171 483.978,25.7697 485.431,25.4886 486.4,25.3444 487.724,25.2105 488.61,25.1682 489.451,25.1791 489.967,25.2446 490.425,25.3597 490.873,25.5415 491.3,25.8042 491.681,26.154 491.986,26.5788 492.195,27.0487 492.31,27.5325 492.344,28.0119 492.321,28.6529 492.252,29.2137 492.183,29.5443 492.1,29.8296 491.992,30.1116 491.853,30.3898 491.675,30.6611 491.465,30.9055 490.977,31.3929 489.97,31.8101 488.963,31.3929 488.546,30.3858 488.963,29.3786 " transform="matrix(1, 0, 0, 1, 0, 0)" fill="#000000" fill-opacity="1.00" fill-rule="winding" ub:uuid="3b00fb71-87c7-40f7-8e60-2cafcd3affed" ub:parent="99baf02d-6a23-4652-9477-5e5df1bdbc4c"/>
    </g>
    <g ub:z-value="-999993" ub:fill-on-dark-background="#ffffff" ub:fill-on-light-background="#000000" ub:uuid="255c08e8-1b94-4254-b547-5e8119a13183" ub:layer="-1000">
        <polygon points="492.062,-13.3929 490.381,-11.1336 489.97,-10.4678 489.61,-9.74793 489.315,-8.99381 489.084,-8.19912 488.908,-7.34083 488.768,-6.43237 488.617,-4.93652 488.564,-3.93013 488.546,-2.27364 488.546,1.13947 488.542,5.92377 486.659,26.066 486.343,27.579 485.836,29.6081 485.137,32.1695 483.294,41.1181 483.294,41.1184 482.805,41.9302 481.899,42.2552 480.892,41.838 480.475,40.8309 480.504,40.5433 480.504,40.5436 482.355,31.5551 483.081,28.8845 483.57,26.9254 483.824,25.7797 485.701,5.70828 485.697,1.13947 485.697,-2.28423 485.717,-4.00815 485.778,-5.16674 485.94,-6.77594 486.104,-7.84255 486.318,-8.88338 486.618,-9.91183 487.007,-10.9049 487.483,-11.8562 488.06,-12.7857 489.777,-15.0937 489.777,-15.0938 490.92,-15.6677 491.927,-15.2505 492.344,-14.2433 492.063,-13.3929 492.062,-13.3929 " transform="matrix(1, 0, 0, 1, 0, 0)" fill="#000000" fill-opacity="1.00" fill-rule="winding" ub:uuid="ab2a9d13-4e01-4f80-a617-b6af7fc4cd4b" ub:parent="255c08e8-1b94-4254-b547-5e8119a13183"/>
    </g>
    <g ub:z-value="-999992" ub:fill-on-dark-background="#ffffff" ub:fill-on-light-background="#000000" ub:uuid="ef315db5-115a-4ae2-b330-70e96a0d0a03" ub:layer="-1000">
        <polygon points="487.131,-30.8606 484.868,-30.8466 484.645,-30.8179 484.332,-30.7626 484.002,-30.6828 483.69,-30.5898 482.912,-30.2865 482.108,-29.8844 480.71,-29.0645 476.986,-27.0408 476.313,-26.6372 475.632,-26.1602 474.94,-25.6067 474.239,-24.9757 473.53,-24.2664 472.824,-23.4899 471.72,-22.1382 471.006,-21.1735 469.897,-19.5388 468.789,-17.7372 467.674,-15.7595 466.558,-13.6112 465.486,-11.3417 464.498,-8.99087 463.592,-6.55085 462.455,-3.15708 460.464,2.81419 459.49,5.96023 458.966,7.99205 458.715,9.17438 458.284,11.6352 457.369,16.4352 456.088,22.8469 455.387,26.6532 455.11,28.6488 454.83,31.0002 454.635,33.4629 454.599,35.0148 454.636,36.5415 454.743,38.0153 455.024,40.1676 455.693,43.4437 456.375,45.67 457.202,47.7192 458.164,49.6101 459.527,51.7464 460.299,52.7475 461.094,53.6208 461.299,53.8096 461.561,54.0258 461.822,54.2194 462.531,54.66 463.312,55.0517 464.847,55.6451 464.847,55.6448 465.757,56.9733 465.339,57.9804 464.332,58.3976 464.067,58.3729 463.818,58.3017 463.818,58.3015 462.19,57.67 461.148,57.1501 460.262,56.6031 459.812,56.2744 459.418,55.9494 459.024,55.578 458.111,54.5712 457.173,53.3504 455.697,51.0332 454.608,48.898 453.688,46.6172 452.927,44.1243 452.218,40.6586 451.911,38.3194 451.79,36.6787 451.751,35.0148 451.791,33.3003 451.995,30.7208 452.285,28.2865 452.578,26.1801 453.291,22.3044 454.574,15.8877 455.483,11.1161 455.915,8.64876 456.196,7.32427 456.754,5.16855 457.755,1.93358 459.753,-4.05954 460.904,-7.49306 461.849,-10.0382 462.884,-12.5016 464.006,-14.8755 465.168,-17.1141 466.333,-19.1815 467.503,-21.0831 468.674,-22.8099 469.479,-23.8962 470.654,-25.3362 471.467,-26.231 472.277,-27.0409 473.095,-27.7772 473.923,-28.4392 474.761,-29.0257 475.607,-29.5337 479.328,-31.5551 480.731,-32.3779 481.75,-32.8874 482.719,-33.2678 483.253,-33.4311 483.749,-33.5508 484.242,-33.6379 484.808,-33.6946 487.113,-33.7092 487.113,-33.7092 487.122,-33.7092 488.129,-33.292 488.546,-32.2849 488.132,-31.2806 487.131,-30.8606 487.131,-30.8606 " transform="matrix(1, 0, 0, 1, 0, 0)" fill="#000000" fill-opacity="1.00" fill-rule="winding" ub:uuid="5a218885-076c-41f6-8318-44b984d0c97c" ub:parent="ef315db5-115a-4ae2-b330-70e96a0d0a03"/>
    </g>
    <g ub:z-value="-999991" ub:fill-on-dark-background="#ffffff" ub:fill-on-light-background="#000000" ub:uuid="68b5f126-f448-40e7-94a9-61d79fb856f8" ub:layer="-1000">
        <polygon points="482.612,25.4739 481.5,27.1561 481.264,27.6043 481.19,27.7812 481.114,27.9875 481.053,28.189 481.007,28.3862 480.975,28.5799 480.951,28.8301 480.633,31.7337 480.435,32.6204 480.147,33.7698 479.776,35.2549 479.144,38.2464 479.089,38.8484 479.055,39.5277 479.05,41.0653 479.05,43.2373 479.007,45.5889 478.923,46.5668 478.799,47.474 478.631,48.354 478.161,50.3348 477.009,55.5717 475.659,59.7826 475.659,59.783 475.15,60.4924 474.303,60.7715 473.296,60.3543 472.878,59.3472 472.946,58.9114 472.947,58.9117 474.255,54.8426 475.382,49.7104 475.852,47.7315 475.988,47.0162 476.092,46.2522 476.16,45.4829 476.202,43.2101 476.202,41.0617 476.207,39.4753 476.248,38.6353 476.345,37.718 476.996,34.6323 477.384,33.0789 477.666,31.9493 477.81,31.3548 478.119,28.523 478.151,28.2034 478.214,27.8275 478.301,27.455 478.411,27.0867 478.545,26.7232 478.717,26.3304 479.089,25.6391 480.236,23.9029 480.236,23.9028 481.424,23.2641 482.431,23.6813 482.849,24.6884 482.613,25.474 482.612,25.4739 " transform="matrix(1, 0, 0, 1, 0, 0)" fill="#000000" fill-opacity="1.00" fill-rule="winding" ub:uuid="f9568990-277c-42b4-a8cc-63bdb285c4e6" ub:parent="68b5f126-f448-40e7-94a9-61d79fb856f8"/>
    </g>
    <g ub:z-value="-999990" ub:fill-on-dark-background="#ffffff" ub:fill-on-light-background="#000000" ub:uuid="ac93526d-1cf9-405a-a556-6e857d4935f5" ub:layer="-1000">
        <polygon points="480.95,35.1233 480.969,32.4614 481.034,31.6338 481.142,30.8789 481.296,30.1543 481.492,29.4785 481.877,28.3211 482.447,26.6119 482.604,26.1419 482.603,26.1415 483.114,25.4425 483.955,25.168 484.962,25.5851 485.379,26.5923 485.306,27.043 485.306,27.0427 485.149,27.5127 484.58,29.2219 484.206,30.3435 484.06,30.8452 483.947,31.3739 483.865,31.9484 483.817,32.5261 483.798,35.1438 483.798,35.1438 483.378,36.1441 482.374,36.5579 481.367,36.1407 480.95,35.1335 480.95,35.1233 480.95,35.1233 " transform="matrix(1, 0, 0, 1, 0, 0)" fill="#000000" fill-opacity="1.00" fill-rule="winding" ub:uuid="c3740936-e991-4533-b9f9-4ccb538f9986" ub:parent="ac93526d-1cf9-405a-a556-6e857d4935f5"/>
        <polygon points="485.306,27.0427 485.268,27.1566 484.85,28.4101 483.578,32.2273 482.591,35.1885 481.651,38.2386 481.385,39.2645 481.155,40.3078 481.054,40.9136 480.986,41.4868 480.954,42.007 480.95,42.8261 480.95,47.9525 480.532,48.9597 479.525,49.3769 478.518,48.9597 478.101,47.9525 478.101,42.8238 478.106,41.9241 478.149,41.2289 478.234,40.5107 478.361,39.7492 478.615,38.599 478.919,37.4314 479.878,34.319 480.875,31.3264 482.148,27.5092 482.566,26.2558 482.604,26.1419 482.603,26.1415 483.114,25.4425 483.955,25.168 484.962,25.5851 485.379,26.5923 485.306,27.043 485.306,27.0427 " transform="matrix(1, 0, 0, 1, 0, 0)" fill="#000000" fill-opacity="1.00" fill-rule="winding" ub:uuid="45e2ec17-f029-4bf5-9024-9da17d473562" ub:parent="ac93526d-1cf9-405a-a556-6e857d4935f5"/>
    </g>
    <g ub:z-value="-999989" ub:fill-on-dark-background="#ffffff" ub:fill-on-light-background="#000000" ub:uuid="751ce5c2-e6bd-4401-a265-1264951a96ee" ub:layer="-1000">
        <polygon points="499.02,28.8899 494.19,27.2987 493.774,27.2056 493.295,27.1258 492.819,27.0782 492.329,27.0622 491.129,27.0623 489.026,27.0623 488.719,27.0699 488.429,27.0925 488.152,27.1294 487.886,27.1803 487.632,27.2449 487.387,27.323 487.151,27.4145 486.923,27.5197 486.702,27.6389 486.49,27.7711 486.301,27.9065 486.147,28.0363 486.023,28.1604 485.925,28.2777 485.85,28.3886 485.794,28.4948 485.752,28.6 485.723,28.7091 485.704,28.8279 485.695,29.0338 485.696,29.0338 485.256,29.9922 484.273,30.3858 483.266,29.9686 482.849,28.9614 482.85,28.8891 482.851,28.8891 482.87,28.5347 482.937,28.1122 483.05,27.6991 483.208,27.301 483.408,26.923 483.646,26.5685 483.919,26.2396 484.222,25.9364 484.552,25.6579 484.905,25.404 485.272,25.1754 485.649,24.9717 486.038,24.792 486.439,24.6367 486.849,24.5058 487.268,24.3995 487.696,24.3175 488.131,24.2595 488.573,24.225 489.015,24.2137 491.129,24.2136 492.359,24.2137 493.009,24.2358 493.672,24.3021 494.333,24.4122 495.056,24.585 499.912,26.1843 499.912,26.184 500.614,26.6943 500.89,27.5371 500.473,28.5442 499.466,28.9614 499.02,28.8902 499.02,28.8899 " transform="matrix(1, 0, 0, 1, 0, 0)" fill="#000000" fill-opacity="1.00" fill-rule="winding" ub:uuid="7ac81bf9-f43d-4b10-9f06-51f5ca57d5ef" ub:parent="751ce5c2-e6bd-4401-a265-1264951a96ee"/>
    </g>
    <g ub:z-value="-999988" ub:fill-on-dark-background="#ffffff" ub:fill-on-light-background="#000000" ub:uuid="e8de9bfd-7ebc-4728-86d4-077edac01454" ub:layer="-1000">
        <polygon points="497.615,46.5954 495.599,48.5721 494.896,49.1391 494.216,49.5917 493.551,49.9481 493.112,50.1375 492.179,50.4519 490.845,50.8442 489.36,51.2351 488.203,51.4904 487.442,51.6177 486.724,51.7022 486.003,51.7459 482.851,51.7507 482.851,51.7507 482.849,51.7507 481.842,51.3336 481.424,50.3264 481.841,49.32 482.846,48.9021 482.847,48.9021 485.971,48.8974 486.466,48.8652 487.039,48.7977 487.645,48.6971 488.682,48.4682 490.083,48.0994 491.332,47.7321 492.146,47.4578 492.277,47.4002 492.751,47.149 493.211,46.8419 493.647,46.4973 495.62,44.5618 495.62,44.5618 496.617,44.1543 497.624,44.5715 498.042,45.5786 497.615,46.5954 497.615,46.5954 " transform="matrix(1, 0, 0, 1, 0, 0)" fill="#000000" fill-opacity="1.00" fill-rule="winding" ub:uuid="37763069-fc36-4528-b484-246206df8e71" ub:parent="e8de9bfd-7ebc-4728-86d4-077edac01454"/>
    </g>
    <g ub:z-value="-999987" ub:fill-on-dark-background="#ffffff" ub:fill-on-light-background="#000000" ub:uuid="cd8b9a3e-92b2-4496-a66e-934f9aeecd05" ub:layer="-1000">
        <polygon points="402.137,35.12 402.156,33.0973 402.225,32.3815 402.335,31.7207 402.478,31.1066 402.868,29.4353 402.849,29.4362 402.842,29.2461 402.823,29.0547 402.791,28.8609 402.737,28.6313 402.243,26.5969 402.159,25.8277 402.137,25.1903 402.136,24.7359 402.554,23.7287 403.561,23.3116 404.568,23.7287 404.985,24.7359 404.985,25.1361 405.001,25.6382 405.03,26.0085 405.506,27.9622 405.584,28.3023 405.647,28.6782 405.685,29.0566 405.697,29.4362 405.659,30.0068 405.252,31.7539 405.128,32.2793 405.049,32.758 405.004,33.1816 404.985,35.1471 404.985,35.1471 404.564,36.1451 403.561,36.5579 402.554,36.1407 402.136,35.1335 402.137,35.12 402.137,35.12 " transform="matrix(1, 0, 0, 1, 0, 0)" fill="#000000" fill-opacity="1.00" fill-rule="winding" ub:uuid="3b576650-daaa-4256-9f9f-7dc43342cd03" ub:parent="cd8b9a3e-92b2-4496-a66e-934f9aeecd05"/>
        <polygon points="404.985,24.7359 404.985,24.9258 404.985,27.0864 404.907,29.4908 404.802,30.551 404.657,31.4269 404.582,31.7359 404.044,35.1751 404.036,36.0931 404.036,37.7068 404.036,39.6059 404.036,41.607 403.958,46.2195 403.707,47.9301 403.297,49.8142 403.125,51.1914 403.041,53.3615 402.948,54.1214 402.814,54.7524 402.709,55.1068 402.595,55.4141 402.485,55.6612 402.485,55.6615 401.187,56.4985 400.18,56.0813 399.763,55.0742 399.795,54.7691 399.889,54.4868 399.889,54.4871 399.959,54.3355 400.007,54.206 400.044,54.0856 400.138,53.6531 400.197,53.1976 400.284,50.9807 400.492,49.3193 400.907,47.4052 401.113,46.0772 401.187,41.574 401.187,39.6059 401.187,37.7068 401.187,36.0731 401.217,34.8261 401.771,31.2766 401.857,30.9019 401.978,30.1825 402.062,29.3436 402.137,27.0382 402.136,24.9258 402.136,24.7359 402.554,23.7287 403.561,23.3116 404.568,23.7287 404.985,24.7359 " transform="matrix(1, 0, 0, 1, 0, 0)" fill="#000000" fill-opacity="1.00" fill-rule="winding" ub:uuid="c062e388-b18f-4dfb-ac6d-51afcc6b5eb3" ub:parent="cd8b9a3e-92b2-4496-a66e-934f9aeecd05"/>
    </g>
    <g ub:z-value="-999986" ub:fill-on-dark-background="#ffffff" ub:fill-on-light-background="#000000" ub:uuid="bbaa7f7e-15f1-4542-be74-2f5f88492bdc" ub:layer="-1000">
        <polygon points="384.636,28.4375 385.786,29.6072 386.097,30.0135 386.308,30.3657 386.487,30.7363 386.633,31.1223 386.749,31.5216 386.836,31.9329 386.897,32.3555 386.934,32.8344 386.944,34.3275 386.944,36.5579 386.944,39.8908 386.944,46.0154 386.944,50.7783 386.962,52.9287 387.008,53.4897 387.15,54.3803 387.279,54.8883 387.339,55.081 387.389,55.2119 387.388,55.2147 387.288,55.1006 387.011,54.9235 386.588,54.8368 386.235,54.899 386.07,54.9835 386.05,54.9976 386.116,54.9213 386.264,54.715 386.264,54.715 387.418,54.1246 388.426,54.5418 388.843,55.549 388.573,56.383 388.573,56.3829 388.35,56.6894 388.065,57.0119 387.713,57.3108 387.235,57.5663 386.588,57.6855 385.889,57.5418 385.356,57.1938 385.018,56.7948 384.799,56.3988 384.649,56.0169 384.529,55.6304 384.354,54.9229 384.182,53.848 384.114,53.0036 384.095,50.7861 384.095,46.0154 384.095,39.8908 384.095,36.5579 384.095,34.3348 384.086,32.8938 384.066,32.6701 384.031,32.4279 383.986,32.2125 383.931,32.0231 383.868,31.8584 383.8,31.7162 383.726,31.5936 383.715,31.5631 382.605,30.4349 382.605,30.4349 382.196,29.4362 382.613,28.429 383.62,28.0119 384.636,28.4375 384.636,28.4375 " transform="matrix(1, 0, 0, 1, 0, 0)" fill="#000000" fill-opacity="1.00" fill-rule="winding" ub:uuid="2280f363-5360-4b0d-8f7b-d5ea57edcb16" ub:parent="bbaa7f7e-15f1-4542-be74-2f5f88492bdc"/>
    </g>
    <g ub:z-value="-999985" ub:fill-on-dark-background="#ffffff" ub:fill-on-light-background="#000000" ub:uuid="1e8428d3-8ff9-40dd-87b3-d9435c824316" ub:layer="-1000">
        <polygon points="377.86,19.9926 376.169,18.283 375.826,17.8441 375.583,17.4014 375.425,16.8125 375.503,16.0481 375.928,15.3632 376.473,14.9834 376.976,14.8115 377.447,14.7382 377.923,14.7181 378.401,14.7375 378.867,14.8027 379.331,14.9305 379.795,15.149 380.236,15.4914 380.592,15.9635 380.804,16.5105 380.866,17.054 380.819,17.5555 380.703,18.003 380.552,18.4032 380.373,18.7738 380.162,19.126 379.918,19.4562 379.642,19.7609 379.338,20.0365 379.007,20.2807 378.655,20.4921 378.247,20.686 377.621,20.9095 376.189,21.3868 375.036,21.7712 374.618,21.8833 374.125,21.9347 373.508,21.8379 372.833,21.4226 372.417,20.7471 372.32,20.1306 372.372,19.6376 372.489,19.2054 372.665,18.7511 373.06,17.9505 373.498,17.2077 373.937,16.59 374.21,16.2668 374.473,15.9976 374.754,15.7519 375.058,15.5322 375.387,15.3432 375.754,15.19 376.189,15.0899 376.709,15.0932 377.268,15.2673 377.743,15.6101 378.058,16.0245 378.239,16.4327 378.337,16.8182 378.384,17.1916 378.397,17.5159 378.397,17.5157 378.398,17.5668 377.98,18.5739 376.973,18.9911 375.983,18.5905 375.55,17.6178 375.55,17.6176 375.544,17.4101 375.534,17.3278 375.537,17.3335 375.585,17.4378 375.729,17.6244 375.994,17.8152 376.307,17.9133 376.542,17.9166 376.655,17.8925 376.661,17.8912 376.61,17.9206 376.534,17.9763 376.435,18.0629 376.318,18.183 376.211,18.3061 375.891,18.752 375.569,19.3005 375.252,19.9433 375.191,20.1062 375.165,20.1962 375.169,20.1306 375.12,19.8463 374.847,19.4083 374.409,19.1354 374.125,19.0861 374.059,19.09 374.163,19.0597 375.288,18.6844 376.705,18.2122 377.2,18.0369 377.305,17.9839 377.427,17.9104 377.534,17.8318 377.628,17.7466 377.713,17.6524 377.792,17.5458 377.865,17.4232 377.934,17.2811 377.991,17.1305 378.018,17.0368 378.018,17.054 378.033,17.1703 378.102,17.3469 378.221,17.5057 378.33,17.5917 378.366,17.6108 378.308,17.5961 378.157,17.5758 377.923,17.5668 377.705,17.5752 377.616,17.5873 377.692,17.5578 377.942,17.3775 378.206,16.9489 378.256,16.4979 378.202,16.2793 378.196,16.2639 378.224,16.3093 379.885,17.9896 379.885,17.9896 380.297,18.9911 379.88,19.9983 378.872,20.4154 377.86,19.9926 377.86,19.9926 " transform="matrix(1, 0, 0, 1, 0, 0)" fill="#000000" fill-opacity="1.00" fill-rule="winding" ub:uuid="f7680165-95df-471e-b90c-7a6bd2332f44" ub:parent="1e8428d3-8ff9-40dd-87b3-d9435c824316"/>
    </g>
    <g ub:z-value="-999984" ub:fill-on-dark-background="#ffffff" ub:fill-on-light-background="#000000" ub:uuid="9ede8d0e-fa2c-420a-ae59-fabaa8005fab" ub:layer="-1000">
        <polygon points="407.347,16.6172 406.708,16.6106 406.251,16.5501 405.811,16.452 405.108,16.2533 404.525,16.0661 404.149,15.9228 403.778,15.7443 403.426,15.5329 403.096,15.2887 402.791,15.0131 402.515,14.7085 402.271,14.3782 402.06,14.026 401.881,13.6554 401.736,13.273 401.625,12.8903 401.555,12.4859 401.56,11.9898 401.789,11.3265 402.112,10.949 402.112,10.949 403.086,10.5638 404.093,10.981 404.51,11.9881 404.06,13.0272 404.06,13.0272 404.231,12.7922 404.384,12.3663 404.389,12.2025 404.395,12.2255 404.436,12.365 404.5,12.5333 404.568,12.6755 404.641,12.7981 404.72,12.9046 404.805,12.9988 404.9,13.084 405.006,13.1627 405.129,13.2361 405.271,13.3045 405.445,13.3701 405.926,13.5248 406.533,13.6963 406.776,13.7502 406.852,13.7656 407.371,13.7686 407.371,13.7686 408.37,14.1896 408.783,15.1929 408.366,16.2 407.359,16.6172 407.347,16.6172 407.347,16.6172 " transform="matrix(1, 0, 0, 1, 0, 0)" fill="#000000" fill-opacity="1.00" fill-rule="winding" ub:uuid="50678ecd-519b-4b2a-8e6b-1f3819059963" ub:parent="9ede8d0e-fa2c-420a-ae59-fabaa8005fab"/>
        <polygon points="402.796,10.5937 403.2,10.5401 403.733,10.6158 404.131,10.7627 404.482,10.9443 404.833,11.164 405.187,11.4219 405.518,11.7169 405.816,12.0593 406.069,12.4669 406.248,12.9483 406.315,13.4837 406.248,14.019 406.069,14.5005 405.816,14.908 405.505,15.2633 405.014,15.7065 404.465,16.1121 403.875,16.466 403.169,16.7992 399.742,17.9672 399.326,18.0836 398.893,18.1506 398.426,18.1491 397.926,18.0444 397.43,17.8023 397.01,17.4302 396.718,16.9883 396.546,16.5362 396.463,16.0968 396.439,15.6803 396.453,15.2918 396.497,14.9207 396.579,14.55 396.714,14.1776 396.916,13.8093 397.198,13.4641 397.559,13.1734 397.971,12.9667 398.398,12.8526 398.701,12.8234 398.7,12.8234 398.813,12.819 399.82,13.2362 400.237,14.2433 399.857,15.2127 398.926,15.6633 398.925,15.6632 398.867,15.6625 398.971,15.6339 399.099,15.5696 399.212,15.4784 399.286,15.3895 399.317,15.3346 399.318,15.3325 399.306,15.3891 399.293,15.5023 399.288,15.6551 399.293,15.7703 399.295,15.7867 399.266,15.7144 399.173,15.5763 399.01,15.4321 398.827,15.3419 398.696,15.3132 398.657,15.3117 398.708,15.3028 398.834,15.2672 402.206,14.1183 402.525,13.9578 402.885,13.7419 403.21,13.5018 403.516,13.2234 403.537,13.1988 403.521,13.2265 403.485,13.3281 403.466,13.4837 403.485,13.6392 403.521,13.7408 403.537,13.7685 403.503,13.7312 403.407,13.6463 403.238,13.5244 403.058,13.4118 402.952,13.356 402.971,13.3605 403.2,13.3887 403.377,13.3825 403.377,13.3827 403.086,13.4125 402.079,12.9953 401.662,11.9881 401.986,11.0836 402.795,10.5936 402.796,10.5937 " transform="matrix(1, 0, 0, 1, 0, 0)" fill="#000000" fill-opacity="1.00" fill-rule="winding" ub:uuid="b65c8cee-3924-4d59-8033-70e2c8128b1f" ub:parent="9ede8d0e-fa2c-420a-ae59-fabaa8005fab"/>
    </g>
    <g ub:z-value="-999983" ub:fill-on-dark-background="#ffffff" ub:fill-on-light-background="#000000" ub:uuid="b42592ab-d244-4fa6-98e0-35fc8160790a" ub:layer="-1000">
        <polygon points="378.815,-19.8831 377.876,-20.8221 377.828,-20.8665 377.856,-20.8507 377.957,-20.814 378.113,-20.7953 378.268,-20.814 378.37,-20.8507 378.398,-20.8665 378.36,-20.8326 378.312,-20.7847 377.735,-19.9505 376.039,-17.5887 374.711,-15.7172 374.289,-15.0411 373.679,-13.9572 373.131,-12.8512 372.58,-11.6524 371.832,-9.89441 370.332,-6.23571 368.724,-2.37665 368.244,-1.02479 367.565,1.22125 366.951,3.70466 364.025,13.9661 362.608,19.0667 362.032,21.5822 361.275,25.0991 360.33,29.7052 359.506,34.2994 359.129,36.9132 358.835,39.441 358.572,42.5891 358.475,44.7245 358.462,46.6928 358.53,48.55 358.682,50.3286 358.825,51.434 359.193,53.6314 360.059,58.0652 360.264,58.7448 360.51,59.4022 360.779,59.9721 361.083,60.4816 361.201,60.6413 361.362,60.8278 361.55,61.0157 361.767,61.2043 362.015,61.3929 362.262,61.5605 362.924,61.9351 364.177,62.4697 365.364,62.8645 366.005,63.024 366.597,63.1217 366.797,63.1387 367.049,63.1461 367.049,63.1461 368.025,63.5779 368.427,64.5697 368.01,65.5769 367.003,65.9941 366.957,65.9933 366.957,65.9933 366.62,65.9818 366.194,65.9418 365.418,65.8116 364.54,65.5913 363.163,65.1315 361.7,64.5077 360.805,64.0087 360.359,63.711 359.971,63.4152 359.609,63.1006 359.274,62.7662 358.969,62.4115 358.68,62.011 358.262,61.305 357.885,60.5076 357.562,59.6457 357.272,58.6541 356.392,54.1526 356.01,51.8681 355.848,50.6186 355.687,48.7224 355.613,46.7339 355.628,44.6476 355.73,42.3961 356,39.1631 356.304,36.5444 356.696,33.8311 357.533,29.1672 358.487,24.5152 359.25,20.9674 359.852,18.3458 361.283,13.1911 364.206,2.94223 364.817,0.468954 365.534,-1.89984 366.079,-3.43462 367.7,-7.32393 369.201,-10.9863 369.972,-12.7987 370.56,-14.0781 371.161,-15.2891 371.833,-16.4841 372.361,-17.3273 373.72,-19.2445 375.414,-21.602 376.014,-22.4675 376.346,-22.8469 376.688,-23.1454 377.096,-23.3986 377.577,-23.5777 378.113,-23.6439 378.648,-23.5777 379.13,-23.3986 379.537,-23.1454 379.869,-22.8575 380.829,-21.8974 381.246,-20.8902 380.829,-19.8831 379.822,-19.4659 378.815,-19.8831 " transform="matrix(1, 0, 0, 1, 0, 0)" fill="#000000" fill-opacity="1.00" fill-rule="winding" ub:uuid="a5fc9cb9-c3ac-4ead-9213-807ff6f6e0f5" ub:parent="b42592ab-d244-4fa6-98e0-35fc8160790a"/>
    </g>
    <g ub:z-value="-999982" ub:fill-on-dark-background="#ffffff" ub:fill-on-light-background="#000000" ub:uuid="1ceb02c4-98e0-4beb-891e-b823c915c16f" ub:layer="-1000">
        <polygon points="398.338,13.2819 398.353,11.5482 398.427,11.0203 398.54,10.6072 398.697,10.2091 398.897,9.83099 399.136,9.47656 399.409,9.14763 399.712,8.84441 400.042,8.56591 400.406,8.30415 400.813,8.06426 401.259,7.86933 401.739,7.73895 402.25,7.69139 402.772,7.74279 403.273,7.89591 403.726,8.13634 404.12,8.44163 404.457,8.79308 404.741,9.1731 404.979,9.56238 405.174,9.96 405.325,10.3776 405.424,10.8172 405.46,11.276 405.422,11.7428 405.305,12.1997 405.115,12.6274 404.865,13.0128 404.575,13.3448 404.261,13.6274 403.914,13.8694 403.52,14.0655 403.081,14.1967 402.611,14.2433 402.142,14.1967 401.702,14.0655 401.309,13.8694 400.922,13.5944 400.408,13.1206 400.508,13.196 400.658,13.2792 400.658,13.2794 399.782,11.9644 400.199,10.9572 401.206,10.5401 401.49,10.5683 401.754,10.6493 401.754,10.6496 402.018,10.7803 402.308,10.9981 402.781,11.4358 402.774,11.4267 402.76,11.4206 402.701,11.4033 402.611,11.3947 402.522,11.4033 402.462,11.4206 402.448,11.4267 402.481,11.4029 402.547,11.3437 402.599,11.2863 402.614,11.2634 402.614,11.2638 402.612,11.2744 402.611,11.276 402.609,11.2504 402.594,11.1868 402.556,11.0821 402.485,10.9385 402.381,10.7676 402.276,10.6253 402.204,10.5495 402.17,10.5224 402.177,10.5255 402.213,10.5361 402.25,10.5401 402.258,10.54 402.217,10.552 402.121,10.5945 401.968,10.6869 401.791,10.8145 401.637,10.9443 401.512,11.0684 401.415,11.1858 401.34,11.2966 401.284,11.4028 401.242,11.508 401.212,11.6171 401.201,11.6304 401.187,13.3057 401.187,13.3057 400.766,14.3048 399.763,14.7181 398.755,14.3009 398.338,13.2938 398.338,13.2819 398.338,13.2819 " transform="matrix(1, 0, 0, 1, 0, 0)" fill="#000000" fill-opacity="1.00" fill-rule="winding" ub:uuid="de80b8fe-d092-4496-9753-6ebae2638fe7" ub:parent="1ceb02c4-98e0-4beb-891e-b823c915c16f"/>
        <polygon points="402.318,12.8542 402.299,12.8779 402.299,12.8779 401.187,13.4125 400.18,12.9953 399.763,11.9881 400.075,11.0983 400.075,11.0984 400.094,11.0746 400.094,11.0746 401.206,10.5401 402.213,10.9572 402.63,11.9644 402.318,12.8542 402.318,12.8542 " transform="matrix(1, 0, 0, 1, 0, 0)" fill="#000000" fill-opacity="1.00" fill-rule="winding" ub:uuid="401e61c4-e72f-475a-838d-90269323184f" ub:parent="1ceb02c4-98e0-4beb-891e-b823c915c16f"/>
        <polygon points="402.563,11.6211 402.528,11.5304 402.484,11.4452 402.871,12.0665 402.871,12.0663 402.962,12.2372 403.03,12.421 403.086,12.819 402.669,13.8261 401.662,14.2433 400.452,13.5717 400.452,13.5715 400.042,12.9109 399.883,12.5883 399.811,12.3551 399.811,12.3558 399.763,11.9881 400.18,10.981 401.187,10.5638 402.062,10.864 402.563,11.6204 402.563,11.6211 " transform="matrix(1, 0, 0, 1, 0, 0)" fill="#000000" fill-opacity="1.00" fill-rule="winding" ub:uuid="70dee666-5a09-4408-bf73-c48fd40526f1" ub:parent="1ceb02c4-98e0-4beb-891e-b823c915c16f"/>
    </g>
    <g ub:z-value="-999981" ub:fill-on-dark-background="#ff4400" ub:fill-on-light-background="#ff0000" ub:uuid="5fed41df-4dd6-4f6d-a1b6-c559dc75a133" ub:layer="-1000">
        <polygon points="623.734,-451.369 621.236,-450.756 619.519,-450.464 618.299,-450.353 617.329,-450.326 616.333,-450.356 615.313,-450.447 614.275,-450.607 613.567,-450.758 612.017,-451.117 612.552,-451.022 611.746,-451.056 607.882,-451.317 605.602,-451.7 604.058,-452.083 602.392,-452.546 600.82,-453.037 599.03,-453.775 597.196,-454.889 596.205,-455.695 596.204,-455.695 593.365,-459.484 592.586,-461.782 592.313,-464.271 592.545,-466.567 593.209,-468.706 595.651,-472.328 599.273,-474.77 601.412,-475.434 603.708,-475.665 607.786,-474.914 611.212,-472.846 611.211,-472.846 610.6,-473.32 609.222,-474.158 607.964,-474.678 608.822,-474.409 609.891,-474.113 610.598,-473.935 609.912,-474.015 613.16,-473.801 614.102,-473.759 616.233,-473.512 618.585,-472.988 618.475,-473.006 618.055,-473.071 617.671,-473.106 617.329,-473.116 617.034,-473.108 616.507,-473.054 616.233,-472.99 618.283,-473.497 618.278,-473.498 621.009,-473.828 623.305,-473.596 625.444,-472.932 629.066,-470.49 631.508,-466.869 632.172,-464.73 632.404,-462.433 631.749,-458.618 629.937,-455.351 627.192,-452.86 623.74,-451.368 623.734,-451.369 " transform="matrix(1, 0, 0, 1, 0, 0)" fill="#ff0000" fill-opacity="0.50" stroke="#ff0000" stroke-width="1" stroke-opacity="0.10" fill-rule="winding" ub:uuid="d28a95b7-e6f7-4220-bd66-953aae5a1eab" ub:parent="5fed41df-4dd6-4f6d-a1b6-c559dc75a133"/>
        <polygon points="594.725,-457.26 593.943,-458.348 592.862,-460.457 592.224,-462.553 591.957,-464.487 591.953,-466.198 592.118,-467.69 592.375,-468.945 592.681,-470.033 593.05,-471.083 593.502,-472.137 594.043,-473.185 594.673,-474.214 595.394,-475.208 596.199,-476.154 597.081,-477.035 598.026,-477.841 599.196,-478.676 600.293,-479.336 601.1,-479.756 601.097,-479.757 603.535,-480.647 606.196,-480.959 608.492,-480.728 610.631,-480.064 614.253,-477.622 616.695,-474 616.892,-473.366 616.233,-473.512 614.102,-473.759 613.16,-473.801 610.41,-473.982 609.891,-474.113 608.822,-474.409 608.406,-474.54 607.786,-474.914 603.708,-475.665 601.412,-475.434 599.273,-474.77 595.651,-472.328 593.209,-468.706 592.545,-466.567 592.313,-464.271 592.586,-461.782 593.365,-459.484 596.04,-455.914 594.725,-457.259 594.725,-457.26 616.953,-473.168 616.974,-473.101 616.507,-473.054 616.233,-472.99 616.953,-473.168 594.725,-457.26 596.556,-455.41 596.495,-455.449 596.448,-455.498 596.556,-455.41 594.725,-457.26 608.406,-474.54 608.638,-474.399 607.964,-474.678 608.406,-474.54 594.725,-457.26 608.638,-474.399 611.21,-472.847 610.6,-473.32 609.222,-474.158 608.638,-474.399 594.725,-457.26 611.21,-472.847 611.212,-472.846 611.211,-472.846 611.21,-472.847 594.725,-457.26 610.41,-473.982 610.598,-473.935 609.912,-474.015 610.41,-473.982 594.725,-457.26 " transform="matrix(1, 0, 0, 1, 0, 0)" fill="#ff0000" fill-opacity="0.50" stroke="#ff0000" stroke-width="1" stroke-opacity="0.10" fill-rule="winding" ub:uuid="bcf5b1dc-44f1-4993-bf57-f1eff06d46d5" ub:parent="5fed41df-4dd6-4f6d-a1b6-c559dc75a133"/>
        <polygon points="601.665,-480.02 602.249,-480.268 603.162,-480.602 604.114,-480.888 605.101,-481.118 606.114,-481.286 607.462,-481.406 608.807,-481.415 610.178,-481.325 611.488,-481.151 612.773,-480.894 614.028,-480.559 615.246,-480.153 616.424,-479.683 617.559,-479.153 618.65,-478.571 619.736,-477.919 620.791,-477.204 621.779,-476.43 622.279,-475.988 622.279,-475.988 624.247,-473.304 623.305,-473.596 621.009,-473.828 618.278,-473.498 618.283,-473.497 617.344,-473.265 616.892,-473.366 616.695,-474 614.253,-477.622 610.631,-480.064 608.492,-480.728 606.196,-480.959 603.535,-480.647 601.433,-479.88 601.661,-480.021 601.665,-480.02 617.344,-473.265 618.585,-472.988 618.475,-473.006 618.055,-473.071 617.671,-473.106 617.329,-473.116 617.034,-473.108 616.974,-473.101 616.953,-473.168 617.344,-473.265 601.665,-480.02 " transform="matrix(1, 0, 0, 1, 0, 0)" fill="#ff0000" fill-opacity="0.50" stroke="#ff0000" stroke-width="1" stroke-opacity="0.10" fill-rule="winding" ub:uuid="d8a1b190-f9d0-4286-a8af-aa4af4b4bd01" ub:parent="5fed41df-4dd6-4f6d-a1b6-c559dc75a133"/>
        <polygon points="622.8,-475.488 623.274,-474.995 623.972,-474.181 624.623,-473.306 624.718,-473.158 624.247,-473.304 622.489,-475.701 622.8,-475.488 622.8,-475.488 623.369,-451.28 622.504,-450.227 620.237,-448.551 617.589,-447.474 614.656,-447.093 612.36,-447.325 610.221,-447.989 606.599,-450.431 605.761,-451.673 607.882,-451.317 611.746,-451.056 612.396,-451.029 613.567,-450.758 614.275,-450.607 615.313,-450.447 616.333,-450.356 617.329,-450.326 618.299,-450.353 619.519,-450.464 621.236,-450.756 623.369,-451.28 622.8,-475.488 612.396,-451.029 612.017,-451.117 612.552,-451.022 612.396,-451.029 622.8,-475.488 " transform="matrix(1, 0, 0, 1, 0, 0)" fill="#ff0000" fill-opacity="0.50" stroke="#ff0000" stroke-width="1" stroke-opacity="0.10" fill-rule="winding" ub:uuid="8482c768-5991-4c99-9322-acbf8e6dc306" ub:parent="5fed41df-4dd6-4f6d-a1b6-c559dc75a133"/>
        <polygon points="623.51,-451.314 622.776,-450.389 621.453,-448.982 619.989,-447.683 618.486,-446.54 616.926,-445.414 615.391,-444.361 613.863,-443.456 612.27,-442.702 610.692,-442.109 609.129,-441.646 607.58,-441.29 605.793,-440.968 604.141,-440.745 602.82,-440.632 601.604,-440.594 600.09,-440.668 598.605,-440.903 597.128,-441.306 596.282,-441.623 596.28,-441.62 593.377,-443.305 591.101,-445.742 589.616,-448.767 589.085,-452.216 589.316,-454.512 589.98,-456.651 592.422,-460.273 592.834,-460.551 592.862,-460.457 593.943,-458.348 594.725,-457.26 594.725,-457.259 596.04,-455.914 596.204,-455.695 596.205,-455.695 596.448,-455.498 596.495,-455.449 596.556,-455.41 597.196,-454.889 599.03,-453.775 600.82,-453.037 602.392,-452.546 604.058,-452.083 605.602,-451.7 605.761,-451.673 606.599,-450.431 610.221,-447.989 612.36,-447.325 614.656,-447.093 617.589,-447.474 620.237,-448.551 622.504,-450.227 623.369,-451.28 623.51,-451.314 " transform="matrix(1, 0, 0, 1, 0, 0)" fill="#ff0000" fill-opacity="0.50" stroke="#ff0000" stroke-width="1" stroke-opacity="0.10" fill-rule="winding" ub:uuid="2d7037a9-e6f5-4b63-b650-ee9728c8a3b7" ub:parent="5fed41df-4dd6-4f6d-a1b6-c559dc75a133"/>
        <polygon points="595.148,-442.146 594.375,-442.573 593.168,-443.385 592.099,-444.271 591.168,-445.2 590.369,-446.146 589.663,-447.129 589.002,-448.223 588.407,-449.434 587.918,-450.706 587.546,-452.018 587.296,-453.344 587.165,-454.661 587.147,-455.947 587.229,-457.188 587.474,-458.758 587.82,-460.219 588.407,-462.567 588.819,-464.138 589.259,-465.438 589.257,-465.44 590.895,-468.507 592.802,-470.378 592.681,-470.033 592.375,-468.945 592.118,-467.69 591.953,-466.198 591.957,-464.487 592.224,-462.553 592.834,-460.551 592.422,-460.273 589.98,-456.651 589.316,-454.512 589.085,-452.216 589.616,-448.767 591.101,-445.742 593.377,-443.305 595.833,-441.88 595.146,-442.144 595.148,-442.146 " transform="matrix(1, 0, 0, 1, 0, 0)" fill="#ff0000" fill-opacity="0.50" stroke="#ff0000" stroke-width="1" stroke-opacity="0.10" fill-rule="winding" ub:uuid="77cd55e8-1323-4e0d-a9ef-aa4bf041b215" ub:parent="5fed41df-4dd6-4f6d-a1b6-c559dc75a133"/>
        <polygon points="589.623,-466.35 590.164,-467.529 591.003,-469.055 591.915,-470.461 592.826,-471.693 593.929,-473.07 594.076,-473.239 594.043,-473.185 593.502,-472.137 593.05,-471.083 592.802,-470.378 590.895,-468.507 589.423,-465.751 589.621,-466.352 589.623,-466.35 599.497,-478.857 600.046,-479.368 600.992,-480.133 602.02,-480.844 603.124,-481.486 604.295,-482.046 605.517,-482.511 606.774,-482.872 608.046,-483.127 609.658,-483.297 610.8,-483.318 610.8,-483.318 610.944,-483.319 613.24,-483.087 615.379,-482.423 619.001,-479.981 620.965,-477.068 620.791,-477.204 619.736,-477.919 618.65,-478.571 617.559,-479.153 616.424,-479.683 615.246,-480.153 614.028,-480.559 612.773,-480.894 611.488,-481.151 610.178,-481.325 608.807,-481.415 607.462,-481.406 606.114,-481.286 605.101,-481.118 604.114,-480.888 603.162,-480.602 602.249,-480.268 601.665,-480.02 601.661,-480.021 601.433,-479.88 601.097,-479.757 601.1,-479.756 600.293,-479.336 599.497,-478.857 589.623,-466.35 " transform="matrix(1, 0, 0, 1, 0, 0)" fill="#ff0000" fill-opacity="0.50" stroke="#ff0000" stroke-width="1" stroke-opacity="0.10" fill-rule="winding" ub:uuid="bb517659-8a93-4a66-8bac-afe33583c351" ub:parent="5fed41df-4dd6-4f6d-a1b6-c559dc75a133"/>
        <polygon points="611.513,-483.304 612.555,-483.249 614.153,-483.079 616.239,-482.713 618.047,-482.254 619.733,-481.663 621.357,-480.934 623.06,-479.987 624.716,-478.875 625.844,-478 626.672,-477.264 627.476,-476.459 628.248,-475.583 628.975,-474.635 629.649,-473.617 630.257,-472.533 630.789,-471.394 631.436,-469.537 631.964,-467.296 632.246,-465.417 632.247,-465.422 632.361,-463.805 632.313,-463.331 632.172,-464.73 631.508,-466.869 629.066,-470.49 625.444,-472.932 624.718,-473.158 624.623,-473.306 623.972,-474.181 623.274,-474.995 622.8,-475.488 622.8,-475.488 622.489,-475.701 622.279,-475.988 622.279,-475.988 621.779,-476.43 620.965,-477.068 619.001,-479.981 615.379,-482.423 613.24,-483.087 610.944,-483.319 611.23,-483.315 611.513,-483.305 611.513,-483.304 " transform="matrix(1, 0, 0, 1, 0, 0)" fill="#ff0000" fill-opacity="0.50" stroke="#ff0000" stroke-width="1" stroke-opacity="0.10" fill-rule="winding" ub:uuid="463d8166-8bc5-4faf-9087-480d8bb933e6" ub:parent="5fed41df-4dd6-4f6d-a1b6-c559dc75a133"/>
        <polygon points="632.348,-464.347 632.399,-463.228 632.385,-462.613 632.313,-463.331 632.361,-463.805 632.312,-464.496 632.348,-464.35 632.348,-464.347 632.378,-462.285 632.369,-461.865 632.266,-460.832 632.097,-459.819 631.867,-458.833 631.581,-457.88 631.247,-456.967 630.735,-455.818 630.011,-454.482 629.049,-453.036 627.874,-451.582 626.371,-450.037 624.621,-448.536 622.815,-447.227 621.183,-446.239 619.608,-445.452 617.936,-444.785 616.176,-444.257 614.887,-443.986 614.893,-443.985 614.73,-443.969 615.391,-444.361 616.926,-445.414 618.486,-446.54 619.989,-447.683 621.453,-448.982 622.776,-450.389 623.51,-451.314 623.734,-451.369 623.74,-451.368 627.192,-452.86 629.937,-455.351 631.749,-458.618 632.378,-462.285 632.348,-464.347 " transform="matrix(1, 0, 0, 1, 0, 0)" fill="#ff0000" fill-opacity="0.50" stroke="#ff0000" stroke-width="1" stroke-opacity="0.10" fill-rule="winding" ub:uuid="9966ddb6-0bb1-482e-bdd0-f4388cba9955" ub:parent="5fed41df-4dd6-4f6d-a1b6-c559dc75a133"/>
        <polygon points="609.867,-483.301 610.705,-483.776 610.703,-483.778 613.342,-484.845 616.261,-485.223 618.558,-484.991 620.696,-484.327 624.318,-481.885 626.76,-478.263 627.25,-476.686 626.672,-477.264 625.844,-478 624.716,-478.875 623.06,-479.987 621.357,-480.934 619.733,-481.663 618.047,-482.254 616.239,-482.713 614.153,-483.079 612.555,-483.249 611.513,-483.304 611.513,-483.305 611.23,-483.315 610.944,-483.319 610.8,-483.318 610.8,-483.318 609.867,-483.301 " transform="matrix(1, 0, 0, 1, 0, 0)" fill="#ff0000" fill-opacity="0.50" stroke="#ff0000" stroke-width="1" stroke-opacity="0.10" fill-rule="winding" ub:uuid="3238756f-b9ed-4eac-81d8-7c27c24ca548" ub:parent="5fed41df-4dd6-4f6d-a1b6-c559dc75a133"/>
    </g>
</svg>
