<?xml version="1.0" encoding="UTF-8"?>
<svg xmlns="http://www.w3.org/2000/svg" xmlns:xlink="http://www.w3.org/1999/xlink" xmlns:ub="http://uniboard.mnemis.com/document" xmlns:xhtml="http://www.w3.org/1999/xhtml" version="1.1" ub:version="4.8.0" ub:uuid="d849c70d-8f2c-491b-b3c2-40f71ec913bc" viewBox="-721 -919 1443 1838" ub:nominal-size="1343x1738" ub:dark-background="false" ub:crossed-background="true" ub:ruled-background="false" ub:grid-size="55" ub:intermediate-lines="0" pageDpi="158">
    <rect fill="white" x="-721" y="-919" width="1443" height="1838"/>
    <g ub:z-value="-999997" ub:fill-on-dark-background="#66c0ff" ub:fill-on-light-background="#004080" ub:uuid="f3f8a8ed-cc79-44af-9d1f-17d0e3b12183" ub:layer="-1000">
        <polygon points="623.346,-820.321 623.855,-819.394 624.587,-817.889 625.283,-816.256 625.897,-814.647 626.429,-813.084 626.868,-811.594 627.176,-810.347 627.418,-809.076 627.593,-807.793 627.705,-806.513 627.76,-805.129 627.743,-803.424 627.657,-802.035 627.514,-800.754 627.305,-799.47 627.07,-798.383 626.567,-796.223 626.107,-794.044 625.746,-792.717 625.748,-792.715 624.34,-789.686 623.617,-788.92 623.718,-789.339 623.976,-790.746 624.147,-792.104 624.237,-793.24 624.26,-793.635 624.263,-793.824 624.265,-793.833 624.276,-794.392 624.445,-795.187 624.741,-796.746 624.94,-798.091 625.079,-799.447 625.08,-799.446 625.104,-799.93 625.12,-799.997 625.163,-800.966 625.163,-802.169 625.098,-803.476 624.94,-805.044 624.737,-806.41 624.415,-808.074 624.065,-809.483 623.666,-810.794 623.619,-810.92 623.837,-811.243 624.652,-815.282 624.238,-818.191 623.182,-820.545 623.347,-820.323 623.346,-820.321 " transform="matrix(1, 0, 0, 1, 0, 0)" fill="#004080" fill-opacity="0.50" stroke="#004080" stroke-width="1" stroke-opacity="0.10" fill-rule="winding" ub:uuid="8b4a5482-f02e-493f-9983-baa48d7fee0f" ub:parent="f3f8a8ed-cc79-44af-9d1f-17d0e3b12183"/>
        <polygon points="596.703,-774.997 596.666,-775.016 596.651,-775.025 596.703,-774.997 595.565,-775.69 595.536,-775.708 595.448,-775.772 595.565,-775.69 596.703,-774.997 595.059,-776.055 594.48,-776.478 593.385,-777.41 592.367,-778.429 591.434,-779.523 590.656,-780.592 589.957,-781.739 589.437,-782.792 589.023,-783.825 588.7,-784.83 588.394,-786.085 588.138,-787.674 588.003,-789.493 587.997,-790.226 588.014,-789.4 588.182,-787.75 588.515,-786.081 588.995,-784.478 589.602,-782.958 590.327,-781.509 591.193,-780.094 592.062,-778.921 592.82,-778.043 593.455,-777.396 594.138,-776.776 594.62,-776.381 594.62,-776.38 594.833,-776.26 595.059,-776.055 596.703,-774.997 587.989,-791.323 587.989,-791.326 587.989,-791.879 587.989,-791.323 596.703,-774.997 587.989,-792.183 587.989,-794.222 588.004,-795.885 588.141,-797.616 588.336,-798.883 588.334,-798.885 588.416,-799.12 588.336,-798.699 588.161,-797.417 588.049,-796.137 587.994,-794.768 587.989,-792.183 596.703,-774.997 " transform="matrix(1, 0, 0, 1, 0, 0)" fill="#004080" fill-opacity="0.50" stroke="#004080" stroke-width="1" stroke-opacity="0.10" fill-rule="winding" ub:uuid="2e5cbcbe-bdfe-4bf3-bc2f-17fa445b6d29" ub:parent="f3f8a8ed-cc79-44af-9d1f-17d0e3b12183"/>
        <polygon points="605.121,-827.111 605.845,-827.378 607.04,-827.717 608.247,-827.944 609.446,-828.063 610.617,-828.079 611.748,-828.005 612.827,-827.851 613.837,-827.635 614.798,-827.364 615.754,-827.028 616.714,-826.616 617.668,-826.124 618.605,-825.549 619.51,-824.893 620.371,-824.16 621.174,-823.357 621.907,-822.496 622.606,-821.526 623.075,-820.781 623.076,-820.782 624.238,-818.191 624.652,-815.282 623.837,-811.243 623.619,-810.92 623.195,-812.088 622.638,-813.384 622.368,-813.92 622.334,-814.024 621.793,-815.467 621.16,-816.862 620.52,-818.026 619.917,-818.948 619.199,-819.884 618.591,-820.55 618.406,-821.465 616.183,-824.763 612.884,-826.987 608.845,-827.802 606.455,-827.526 604.795,-826.929 605.117,-827.112 605.121,-827.111 " transform="matrix(1, 0, 0, 1, 0, 0)" fill="#004080" fill-opacity="0.50" stroke="#004080" stroke-width="1" stroke-opacity="0.10" fill-rule="winding" ub:uuid="8352843c-09ef-4719-8919-a5ef85ba9d9e" ub:parent="f3f8a8ed-cc79-44af-9d1f-17d0e3b12183"/>
        <polygon points="588.492,-799.666 588.797,-800.907 588.803,-800.926 588.59,-800.026 588.44,-799.243 588.49,-799.668 588.492,-799.666 597.207,-820.255 597.227,-820.288 597.938,-821.335 598.806,-822.438 599.783,-823.496 600.841,-824.473 601.805,-825.238 602.654,-825.832 603.584,-826.39 604.264,-826.736 604.262,-826.737 606.455,-827.526 608.845,-827.802 612.884,-826.987 616.183,-824.763 618.406,-821.465 618.591,-820.55 618.344,-820.82 617.332,-821.735 616.151,-822.592 614.805,-823.346 613.336,-823.944 612.193,-824.287 611.036,-824.557 609.854,-824.754 608.654,-824.874 607.502,-824.914 606.153,-824.85 604.891,-824.661 604.15,-824.488 604.145,-824.489 603.7,-824.295 603.234,-824.216 603.239,-824.215 602.553,-823.965 601.507,-823.494 600.55,-822.969 599.678,-822.403 598.887,-821.81 598.169,-821.2 597.411,-820.475 597.207,-820.255 588.492,-799.666 " transform="matrix(1, 0, 0, 1, 0, 0)" fill="#004080" fill-opacity="0.50" stroke="#004080" stroke-width="1" stroke-opacity="0.10" fill-rule="winding" ub:uuid="e3129911-99fa-4df8-b307-396c1f44676d" ub:parent="f3f8a8ed-cc79-44af-9d1f-17d0e3b12183"/>
        <polygon points="625.517,-792 625.077,-790.796 624.417,-789.295 623.629,-787.785 623.138,-786.971 623.397,-788.005 623.617,-788.92 624.34,-789.686 625.582,-792.356 625.519,-791.998 625.517,-792 " transform="matrix(1, 0, 0, 1, 0, 0)" fill="#004080" fill-opacity="0.50" stroke="#004080" stroke-width="1" stroke-opacity="0.10" fill-rule="winding" ub:uuid="344ecd33-4b36-474a-85fe-6f5fd6da5058" ub:parent="f3f8a8ed-cc79-44af-9d1f-17d0e3b12183"/>
        <polygon points="595.773,-818.601 596.087,-819.463 596.793,-821.223 597.51,-822.726 598.321,-824.145 599.269,-825.528 600.325,-826.813 601.872,-828.492 605.265,-830.932 607.301,-831.599 609.498,-831.832 613.537,-831.016 616.835,-828.793 619.059,-825.494 619.124,-825.173 618.605,-825.549 617.668,-826.124 616.714,-826.616 615.754,-827.028 614.798,-827.364 613.837,-827.635 612.827,-827.851 611.748,-828.005 610.617,-828.079 609.446,-828.063 608.247,-827.944 607.04,-827.717 605.845,-827.378 605.121,-827.111 605.117,-827.112 604.795,-826.929 604.262,-826.737 604.264,-826.736 603.584,-826.39 602.654,-825.832 601.805,-825.238 600.841,-824.473 599.783,-823.496 598.806,-822.438 597.938,-821.335 597.227,-820.288 597.207,-820.255 596.54,-819.538 595.773,-818.601 " transform="matrix(1, 0, 0, 1, 0, 0)" fill="#004080" fill-opacity="0.50" stroke="#004080" stroke-width="1" stroke-opacity="0.10" fill-rule="winding" ub:uuid="a635305d-e931-4f2e-a3b1-d0c1a4bb0e14" ub:parent="f3f8a8ed-cc79-44af-9d1f-17d0e3b12183"/>
        <polygon points="592.211,-773.473 591.294,-774.378 590.14,-775.724 589.108,-777.194 588.22,-778.769 587.493,-780.424 586.937,-782.132 586.552,-783.862 586.316,-785.788 586.267,-787.991 586.418,-790.375 586.789,-792.757 587.633,-795.906 588.105,-797.164 588.004,-795.885 587.989,-794.222 587.989,-792.183 587.989,-792.175 587.989,-790.636 587.997,-790.226 588.003,-789.493 588.138,-787.674 588.394,-786.085 588.7,-784.83 589.023,-783.825 589.437,-782.792 589.439,-782.788 589.061,-780.919 589.33,-778.562 590.096,-776.396 592.622,-773.202 592.211,-773.473 " transform="matrix(1, 0, 0, 1, 0, 0)" fill="#004080" fill-opacity="0.50" stroke="#004080" stroke-width="1" stroke-opacity="0.10" fill-rule="winding" ub:uuid="8f773941-0149-4abc-b8a9-5b8469adf30e" ub:parent="f3f8a8ed-cc79-44af-9d1f-17d0e3b12183"/>
    </g>
    <g ub:z-value="-999999" ub:fill-on-dark-background="#ffffff" ub:fill-on-light-background="#000000" ub:uuid="2aed14ba-e1cd-49a3-bd49-7beee5ededb0" ub:layer="-1000">
        <polygon points="604.389,-785.522 604.619,-785.586 609.385,-786.493 611.418,-787.053 612.472,-787.223 613.577,-787.296 620.414,-787.3 620.415,-787.3 621.332,-786.92 621.712,-786.003 621.332,-785.086 620.416,-784.706 613.6,-784.702 612.759,-784.645 612.023,-784.53 609.932,-783.957 605.108,-783.039 605.209,-783.061 605.209,-783.06 605.009,-783.011 604.799,-782.994 603.882,-783.374 603.502,-784.291 604.388,-785.522 604.389,-785.522 " transform="matrix(1, 0, 0, 1, 0, 0)" fill="#000000" fill-opacity="1.00" fill-rule="winding" ub:uuid="4e88d135-001a-4551-9cac-0d811bc98052" ub:parent="2aed14ba-e1cd-49a3-bd49-7beee5ededb0"/>
    </g>
    <g ub:z-value="-999997" ub:fill-on-dark-background="#66c0ff" ub:fill-on-light-background="#004080" ub:uuid="f3f8a8ed-cc79-44af-9d1f-17d0e3b12183" ub:layer="-1000">
        <polygon points="619.451,-775.347 618.296,-774.245 616.645,-772.907 614.933,-771.748 613.382,-770.886 611.904,-770.221 610.051,-769.592 607.779,-769.079 605.496,-768.788 603.748,-768.711 602.432,-768.751 601.323,-768.876 600.238,-769.079 599.188,-769.354 598.181,-769.694 597.22,-770.09 596.309,-770.534 595.209,-771.166 593.903,-772.056 592.879,-772.879 592.878,-772.878 590.096,-776.396 589.33,-778.562 589.061,-780.919 589.439,-782.788 589.957,-781.739 590.656,-780.592 591.434,-779.523 592.367,-778.429 593.385,-777.41 594.48,-776.478 595.059,-776.055 595.119,-776.002 595.448,-775.772 595.536,-775.708 595.565,-775.69 595.636,-775.64 596.445,-775.136 596.651,-775.025 596.666,-775.016 596.703,-774.997 597.288,-774.682 598.157,-774.281 599.045,-773.936 599.946,-773.648 600.853,-773.418 601.759,-773.244 602.658,-773.124 603.812,-773.045 604.482,-773.045 604.944,-772.899 606.171,-772.634 607.446,-772.485 608.742,-772.464 610.027,-772.57 610.814,-772.714 612.235,-772.427 614.514,-772.679 616.617,-773.395 619.724,-775.742 619.451,-775.347 " transform="matrix(1, 0, 0, 1, 0, 0)" fill="#004080" fill-opacity="0.50" stroke="#004080" stroke-width="1" stroke-opacity="0.10" fill-rule="winding" ub:uuid="aee3e5cd-7ccf-4b73-a8b3-bc0677ad9e3b" ub:parent="f3f8a8ed-cc79-44af-9d1f-17d0e3b12183"/>
        <polygon points="601.553,-828.146 601.965,-828.682 602.255,-829.103 602.913,-829.939 603.537,-830.632 604.22,-831.301 604.962,-831.936 605.758,-832.529 606.604,-833.071 607.491,-833.555 608.41,-833.975 609.476,-834.366 610.857,-834.726 612.461,-834.939 614.101,-834.939 615.705,-834.726 617.211,-834.326 618.577,-833.781 619.787,-833.137 620.464,-832.7 620.465,-832.701 622.362,-831.073 623.819,-829.036 624.754,-826.673 625.084,-824.067 624.269,-820.028 623.849,-819.405 623.346,-820.321 623.347,-820.323 623.182,-820.545 623.076,-820.782 623.075,-820.781 622.606,-821.526 621.907,-822.496 621.174,-823.357 620.371,-824.16 619.51,-824.893 619.124,-825.173 619.059,-825.494 616.835,-828.793 613.537,-831.016 609.498,-831.832 607.301,-831.599 605.265,-830.932 601.872,-828.492 601.553,-828.146 " transform="matrix(1, 0, 0, 1, 0, 0)" fill="#004080" fill-opacity="0.50" stroke="#004080" stroke-width="1" stroke-opacity="0.10" fill-rule="winding" ub:uuid="fe6723c5-242a-41c5-85e1-06974939a339" ub:parent="f3f8a8ed-cc79-44af-9d1f-17d0e3b12183"/>
        <polygon points="621.19,-832.169 621.763,-831.7 622.725,-830.789 623.738,-829.66 624.759,-828.3 625.637,-826.897 626.559,-825.085 627.684,-822.226 628.616,-818.987 629.823,-813.007 630.079,-810.956 630.141,-809.055 629.941,-806.176 627.733,-793.012 626.736,-789.361 623.863,-782.113 622.712,-779.763 621.749,-778.162 620.787,-776.841 620.076,-776.008 616.617,-773.395 614.514,-772.679 612.235,-772.427 610.814,-772.714 611.272,-772.798 612.406,-773.116 613.054,-773.349 613.059,-773.348 613.304,-773.485 613.738,-773.63 613.735,-773.631 614.316,-773.903 615.203,-774.387 616.049,-774.93 616.845,-775.523 617.586,-776.158 618.27,-776.826 618.894,-777.519 619.615,-778.443 620.341,-779.532 621.04,-780.771 621.63,-782.024 622.124,-783.294 622.55,-784.65 622.955,-786.237 623.138,-786.971 623.629,-787.785 624.417,-789.295 625.077,-790.796 625.517,-792 625.519,-791.998 625.582,-792.356 625.748,-792.715 625.746,-792.717 626.107,-794.044 626.567,-796.223 627.07,-798.383 627.305,-799.47 627.514,-800.754 627.657,-802.035 627.743,-803.424 627.76,-805.129 627.705,-806.513 627.593,-807.793 627.418,-809.076 627.176,-810.347 626.868,-811.594 626.429,-813.084 625.897,-814.647 625.283,-816.256 624.587,-817.889 623.855,-819.394 623.849,-819.405 624.269,-820.028 625.084,-824.067 624.754,-826.673 623.819,-829.036 622.362,-831.073 620.885,-832.34 621.19,-832.17 621.19,-832.169 " transform="matrix(1, 0, 0, 1, 0, 0)" fill="#004080" fill-opacity="0.50" stroke="#004080" stroke-width="1" stroke-opacity="0.10" fill-rule="winding" ub:uuid="c4033147-ad52-47cf-9a42-68fa54de6173" ub:parent="f3f8a8ed-cc79-44af-9d1f-17d0e3b12183"/>
        <polygon points="604.15,-824.488 604.891,-824.661 606.153,-824.85 607.502,-824.914 608.654,-824.874 609.854,-824.754 611.036,-824.557 612.193,-824.287 613.336,-823.944 614.805,-823.346 616.151,-822.592 617.332,-821.735 618.344,-820.82 619.199,-819.884 619.917,-818.948 620.52,-818.026 621.16,-816.862 621.793,-815.467 622.334,-814.024 622.368,-813.92 622.029,-814.593 621.414,-815.627 620.841,-816.453 620.424,-816.975 620.237,-817.276 619.63,-818.126 618.963,-818.941 618.272,-819.682 617.575,-820.344 617.086,-820.763 616.849,-820.901 616.505,-821.218 616.505,-821.217 615.92,-821.632 614.854,-822.273 613.568,-822.875 612.019,-823.377 611.466,-823.469 610.705,-823.982 606.666,-824.797 603.7,-824.295 604.145,-824.489 604.15,-824.488 " transform="matrix(1, 0, 0, 1, 0, 0)" fill="#004080" fill-opacity="0.50" stroke="#004080" stroke-width="1" stroke-opacity="0.10" fill-rule="winding" ub:uuid="727aaf8e-962f-48a0-bdbc-9ed9bcf7b27c" ub:parent="f3f8a8ed-cc79-44af-9d1f-17d0e3b12183"/>
        <polygon points="595.111,-810.295 595.528,-811.265 596.154,-812.565 597.22,-814.696 598.016,-816.27 598.812,-817.625 599.595,-818.735 600.372,-819.667 601.076,-820.388 601.914,-821.119 602.914,-821.841 604.24,-822.59 606.068,-823.287 608.165,-823.678 610.198,-823.682 612.019,-823.377 613.568,-822.875 614.854,-822.273 615.92,-821.632 616.505,-821.217 616.505,-821.218 618.266,-819.596 619.613,-817.608 620.475,-815.327 620.778,-812.826 619.963,-808.787 617.739,-805.489 614.841,-803.535 615.767,-805.387 616.354,-806.554 616.25,-806.375 616.159,-806.234 615.728,-805.708 615.37,-805.342 614.878,-804.914 614.786,-804.847 615.037,-806.237 614.221,-810.276 611.997,-813.574 608.699,-815.798 604.66,-816.613 601.474,-816.115 598.688,-814.723 596.459,-812.593 595.071,-810.112 595.109,-810.298 595.111,-810.295 614.841,-803.535 614.508,-803.31 614.378,-802.591 614.376,-802.594 614.31,-802.421 614.381,-802.592 614.757,-803.367 614.841,-803.535 595.111,-810.295 " transform="matrix(1, 0, 0, 1, 0, 0)" fill="#004080" fill-opacity="0.50" stroke="#004080" stroke-width="1" stroke-opacity="0.10" fill-rule="winding" ub:uuid="2a25b0b2-14bf-4890-92ca-f0731a9a60c3" ub:parent="f3f8a8ed-cc79-44af-9d1f-17d0e3b12183"/>
        <polygon points="589.019,-801.837 589.628,-804.701 590.06,-806.434 590.483,-807.846 591.078,-809.541 591.739,-811.19 592.551,-813.056 593.393,-814.825 594.072,-816.088 594.816,-817.284 595.64,-818.437 596.54,-819.538 597.411,-820.475 598.169,-821.2 598.887,-821.81 599.678,-822.403 600.55,-822.969 601.507,-823.494 602.553,-823.965 603.239,-824.215 603.234,-824.216 606.666,-824.797 610.705,-823.982 611.466,-823.469 610.198,-823.682 608.165,-823.678 606.068,-823.287 604.24,-822.59 602.914,-821.841 601.914,-821.119 601.076,-820.388 600.372,-819.667 599.595,-818.735 598.812,-817.625 598.016,-816.27 597.22,-814.696 596.154,-812.565 595.528,-811.265 595.111,-810.295 595.109,-810.298 595.071,-810.112 594.943,-809.883 594.945,-809.88 594.607,-808.973 594.52,-808.703 592.663,-807.665 590.392,-805.137 589.046,-801.961 589.048,-801.958 589.019,-801.837 " transform="matrix(1, 0, 0, 1, 0, 0)" fill="#004080" fill-opacity="0.50" stroke="#004080" stroke-width="1" stroke-opacity="0.10" fill-rule="winding" ub:uuid="32c4d69f-1583-4cd6-8e05-dcb6457624bf" ub:parent="f3f8a8ed-cc79-44af-9d1f-17d0e3b12183"/>
        <polygon points="596.815,-784.062 595.408,-786.96 594.811,-788.413 594.416,-789.541 594.072,-790.688 593.781,-791.853 593.544,-793.034 593.365,-794.228 593.245,-795.43 593.183,-796.704 593.177,-798.269 593.177,-800.415 593.203,-801.809 593.298,-803.119 593.448,-804.317 593.655,-805.505 593.919,-806.678 594.237,-807.835 594.607,-808.973 594.945,-809.88 594.943,-809.883 596.459,-812.593 598.688,-814.723 601.474,-816.115 604.66,-816.613 608.699,-815.798 611.997,-813.574 614.221,-810.276 615.037,-806.237 614.378,-802.591 614.376,-802.594 614.195,-802.117 614.115,-801.872 614.052,-801.645 614.005,-801.435 613.971,-801.239 613.948,-801.054 613.939,-800.98 613.93,-800.299 613.93,-798.295 613.932,-797.093 613.94,-796.983 613.958,-796.802 613.986,-796.612 614.027,-796.409 614.082,-796.191 614.152,-795.955 614.242,-795.699 614.198,-795.768 615.48,-793.132 615.482,-793.135 616.253,-790.962 616.524,-788.597 615.708,-784.558 613.485,-781.26 610.187,-779.036 606.148,-778.221 603.195,-778.647 600.573,-779.844 598.405,-781.689 596.814,-784.059 596.815,-784.062 " transform="matrix(1, 0, 0, 1, 0, 0)" fill="#004080" fill-opacity="0.50" stroke="#004080" stroke-width="1" stroke-opacity="0.10" fill-rule="winding" ub:uuid="77704908-2d1b-4a8e-a8ef-25d4b9ff225f" ub:parent="f3f8a8ed-cc79-44af-9d1f-17d0e3b12183"/>
    </g>
    <g ub:z-value="-999998" ub:fill-on-dark-background="#ffffff" ub:fill-on-light-background="#000000" ub:uuid="7f9d2d12-f248-4297-95a5-94c7c1a34558" ub:layer="-1000">
        <polygon points="612.521,-824.522 610.463,-823.998 610.245,-823.922 609.987,-823.819 609.737,-823.702 609.493,-823.572 609.256,-823.427 609.025,-823.269 608.825,-823.117 608.349,-822.688 606.957,-821.295 605.009,-819.343 603.767,-818 602.935,-817.006 602.439,-816.366 601.985,-815.709 601.564,-814.992 601.169,-814.202 600.807,-813.353 600.063,-811.269 597.733,-806.035 595.412,-800.879 594.995,-799.786 594.633,-798.7 594.339,-797.655 594.114,-796.657 593.853,-795.119 593.423,-792.345 593.089,-790.001 592.993,-788.94 592.961,-787.949 592.992,-787.038 593.084,-786.209 593.235,-785.451 593.445,-784.731 593.714,-784.044 594.042,-783.388 594.418,-782.778 595.139,-781.839 595.932,-780.976 596.776,-780.199 598.402,-778.987 600.028,-777.991 601.652,-777.2 602.931,-776.722 603.912,-776.441 604.851,-775.195 604.471,-774.277 603.554,-773.897 603.195,-773.948 602.101,-774.264 600.613,-774.823 598.778,-775.718 596.946,-776.841 595.147,-778.18 594.098,-779.141 593.153,-780.171 592.299,-781.282 591.777,-782.124 591.344,-782.99 590.99,-783.895 590.715,-784.835 590.52,-785.815 590.405,-786.853 590.367,-787.949 590.404,-789.102 590.515,-790.324 590.857,-792.727 591.291,-795.53 591.566,-797.148 591.825,-798.294 592.154,-799.463 592.553,-800.66 593.035,-801.919 595.366,-807.095 597.671,-812.273 598.38,-814.27 598.813,-815.289 599.283,-816.228 599.796,-817.102 600.345,-817.898 600.921,-818.642 601.827,-819.722 603.145,-821.147 605.122,-823.129 606.54,-824.547 607.137,-825.086 607.499,-825.366 607.847,-825.605 608.206,-825.824 608.577,-826.022 608.958,-826.2 609.348,-826.356 609.796,-826.505 611.88,-827.036 612.2,-827.076 613.118,-826.696 613.497,-825.779 613.22,-824.977 612.521,-824.522 " transform="matrix(1, 0, 0, 1, 0, 0)" fill="#000000" fill-opacity="1.00" fill-rule="winding" ub:uuid="f01d942e-01ae-4743-9234-193c9b7447c4" ub:parent="7f9d2d12-f248-4297-95a5-94c7c1a34558"/>
    </g>
    <g ub:z-value="-999999" ub:fill-on-dark-background="#ffffff" ub:fill-on-light-background="#000000" ub:uuid="2aed14ba-e1cd-49a3-bd49-7beee5ededb0" ub:layer="-1000">
        <polygon points="603.564,-784.688 603.568,-784.701 603.568,-784.702 604.799,-785.588 605.716,-785.208 606.096,-784.291 606.029,-783.881 606.025,-783.868 604.794,-782.981 603.877,-783.361 603.497,-784.278 603.564,-784.689 603.564,-784.688 " transform="matrix(1, 0, 0, 1, 0, 0)" fill="#000000" fill-opacity="1.00" fill-rule="winding" ub:uuid="468a0487-a1a5-4ba8-bb39-2cfd53087323" ub:parent="2aed14ba-e1cd-49a3-bd49-7beee5ededb0"/>
        <polygon points="606.58,-805.034 606.593,-807.117 606.652,-807.621 606.748,-808.038 606.892,-808.443 607.089,-808.828 607.34,-809.185 607.642,-809.503 607.988,-809.772 608.424,-810.013 609.21,-810.312 609.663,-810.508 610.12,-810.736 610.591,-811.004 611.65,-811.639 612.1,-811.834 612.472,-811.952 612.852,-812.034 613.238,-812.079 613.627,-812.086 614.015,-812.054 614.397,-811.983 614.778,-811.875 615.363,-811.661 615.948,-811.407 616.529,-811.117 617.105,-810.791 617.669,-810.434 617.985,-810.21 618.278,-809.977 618.554,-809.728 618.812,-809.465 619.05,-809.187 619.268,-808.895 619.464,-808.589 619.638,-808.27 619.806,-807.896 620.087,-807.084 620.609,-805.52 620.877,-804.697 621.04,-804.046 621.159,-803.372 621.237,-802.671 621.275,-801.938 621.269,-801.15 621.189,-800.312 621.033,-799.449 620.802,-798.564 620.497,-797.65 619.968,-796.327 619.261,-794.701 618.551,-793.209 618.148,-792.461 617.707,-791.752 617.226,-791.078 616.705,-790.441 616.154,-789.852 615.106,-788.804 613.542,-787.24 612.951,-786.687 612.314,-786.166 611.64,-785.685 610.931,-785.244 610.19,-784.845 609.149,-784.345 608.155,-783.912 606.503,-783.319 605.649,-783.085 605.271,-783.012 605.053,-782.986 604.851,-782.977 604.695,-782.985 603.845,-783.395 603.497,-784.278 603.877,-785.195 604.794,-785.575 604.894,-785.571 604.851,-785.571 604.838,-785.571 604.845,-785.57 605.02,-785.601 605.688,-785.782 607.218,-786.331 608.066,-786.702 609.023,-787.161 609.631,-787.489 610.201,-787.843 610.738,-788.227 611.243,-788.639 611.723,-789.09 613.272,-790.638 614.3,-791.666 614.752,-792.149 615.165,-792.654 615.548,-793.19 615.903,-793.761 616.227,-794.362 616.9,-795.775 617.576,-797.331 618.067,-798.559 618.316,-799.305 618.5,-800.011 618.62,-800.67 618.679,-801.284 618.682,-801.88 618.651,-802.461 618.591,-803.005 618.502,-803.508 618.388,-803.964 618.146,-804.705 617.63,-806.254 617.375,-806.99 617.318,-807.109 617.233,-807.266 617.135,-807.418 617.024,-807.567 616.899,-807.712 616.759,-807.856 616.603,-807.996 616.429,-808.135 616.244,-808.266 615.77,-808.566 615.308,-808.828 614.851,-809.056 614.399,-809.252 613.946,-809.418 613.808,-809.457 613.672,-809.482 613.541,-809.493 613.411,-809.491 613.278,-809.475 613.14,-809.445 612.993,-809.399 612.924,-809.378 611.907,-808.768 611.341,-808.447 610.76,-808.157 610.175,-807.904 609.431,-807.623 609.427,-807.613 609.383,-807.579 609.348,-807.543 609.313,-807.493 609.277,-807.421 609.239,-807.315 609.206,-807.17 609.187,-807.06 609.174,-805.018 608.791,-804.106 607.877,-803.729 606.96,-804.109 606.58,-805.026 606.58,-805.034 " transform="matrix(1, 0, 0, 1, 0, 0)" fill="#000000" fill-opacity="1.00" fill-rule="winding" ub:uuid="923de0fb-264d-4fdb-87f1-079613ceeb6a" ub:parent="2aed14ba-e1cd-49a3-bd49-7beee5ededb0"/>
    </g>
    <g ub:z-value="-999997" ub:fill-on-dark-background="#66c0ff" ub:fill-on-light-background="#004080" ub:uuid="f3f8a8ed-cc79-44af-9d1f-17d0e3b12183" ub:layer="-1000">
        <polygon points="617.086,-820.763 617.575,-820.344 618.272,-819.682 618.963,-818.941 619.63,-818.126 620.237,-817.276 620.783,-816.399 621.265,-815.503 621.686,-814.596 622.139,-813.418 622.59,-811.913 622.902,-810.475 623.281,-808.468 623.825,-805.294 624.082,-803.414 624.239,-801.724 624.3,-800.374 624.306,-798.733 624.306,-795.939 624.265,-793.833 623.395,-789.865 621.161,-786.632 617.885,-784.457 615.291,-783.939 615.708,-784.558 616.524,-788.597 616.253,-790.962 615.482,-793.135 615.48,-793.132 614.198,-795.768 614.242,-795.699 614.152,-795.955 614.082,-796.191 614.027,-796.409 613.986,-796.612 613.958,-796.802 613.94,-796.983 613.932,-797.093 613.93,-798.295 613.93,-800.299 613.939,-800.98 613.948,-801.054 613.971,-801.239 614.005,-801.435 614.052,-801.645 614.115,-801.872 614.195,-802.117 614.31,-802.421 614.381,-802.592 614.757,-803.367 614.841,-803.535 617.739,-805.489 619.963,-808.787 620.778,-812.826 620.475,-815.327 619.613,-817.608 618.266,-819.596 616.849,-820.901 617.086,-820.763 614.508,-803.31 614.786,-804.847 614.878,-804.914 615.37,-805.342 615.728,-805.708 616.159,-806.234 616.25,-806.375 616.354,-806.554 615.767,-805.387 614.841,-803.535 614.508,-803.31 617.086,-820.763 " transform="matrix(1, 0, 0, 1, 0, 0)" fill="#004080" fill-opacity="0.50" stroke="#004080" stroke-width="1" stroke-opacity="0.10" fill-rule="winding" ub:uuid="c64bf9e5-1c41-4c45-893a-eabe234dc6a9" ub:parent="f3f8a8ed-cc79-44af-9d1f-17d0e3b12183"/>
        <polygon points="594.62,-776.381 594.138,-776.776 593.455,-777.396 592.82,-778.043 592.062,-778.921 591.193,-780.094 590.327,-781.509 589.602,-782.958 588.995,-784.478 588.515,-786.081 588.182,-787.75 588.014,-789.4 587.989,-790.636 587.989,-792.175 587.994,-794.768 588.049,-796.137 588.161,-797.417 588.336,-798.699 588.59,-800.026 589.048,-801.958 589.046,-801.961 590.392,-805.137 592.663,-807.665 594.52,-808.703 594.237,-807.835 593.919,-806.678 593.655,-805.505 593.448,-804.317 593.298,-803.119 593.203,-801.809 593.177,-800.415 593.177,-798.269 593.183,-796.704 593.245,-795.43 593.365,-794.228 593.467,-793.55 593.393,-791.948 593.424,-791.235 591.576,-788.494 590.76,-784.455 591.07,-781.928 591.95,-779.626 593.325,-777.626 594.833,-776.26 594.62,-776.38 594.62,-776.381 " transform="matrix(1, 0, 0, 1, 0, 0)" fill="#004080" fill-opacity="0.50" stroke="#004080" stroke-width="1" stroke-opacity="0.10" fill-rule="winding" ub:uuid="2d7c8473-fd2c-401e-ae7a-941999d1b5bc" ub:parent="f3f8a8ed-cc79-44af-9d1f-17d0e3b12183"/>
        <polygon points="604.482,-773.045 603.812,-773.045 602.658,-773.124 601.759,-773.244 600.853,-773.418 599.946,-773.648 599.045,-773.936 598.157,-774.281 597.288,-774.682 596.445,-775.136 595.636,-775.64 595.119,-776.002 593.325,-777.626 591.95,-779.626 591.07,-781.928 590.76,-784.455 591.576,-788.494 593.424,-791.235 593.465,-790.272 593.688,-788.531 594.097,-786.473 594.578,-784.331 594.95,-782.882 595.269,-781.906 595.267,-781.902 595.461,-781.54 595.519,-781.255 595.521,-781.259 595.799,-780.625 596.291,-779.671 596.866,-778.734 597.522,-777.828 598.255,-776.968 599.058,-776.165 599.919,-775.432 600.807,-774.787 601.724,-774.221 602.711,-773.712 603.786,-773.265 604.482,-773.045 " transform="matrix(1, 0, 0, 1, 0, 0)" fill="#004080" fill-opacity="0.50" stroke="#004080" stroke-width="1" stroke-opacity="0.10" fill-rule="winding" ub:uuid="1e821f9f-be25-4b0d-a48b-0fac088ecbfe" ub:parent="f3f8a8ed-cc79-44af-9d1f-17d0e3b12183"/>
        <polygon points="624.237,-793.24 624.147,-792.104 623.976,-790.746 623.718,-789.339 623.397,-788.005 622.955,-786.237 622.55,-784.65 622.124,-783.294 621.63,-782.024 621.04,-780.771 620.341,-779.532 619.615,-778.443 618.894,-777.519 618.27,-776.826 617.586,-776.158 616.845,-775.523 616.049,-774.93 615.203,-774.387 614.316,-773.903 613.735,-773.631 613.738,-773.63 611.668,-772.938 609.429,-772.696 605.39,-773.511 602.092,-775.735 599.868,-779.033 599.524,-780.736 600.573,-779.844 603.195,-778.647 606.148,-778.221 610.187,-779.036 613.485,-781.26 615.291,-783.939 617.885,-784.457 621.161,-786.632 623.395,-789.865 624.263,-793.824 624.26,-793.635 624.237,-793.24 " transform="matrix(1, 0, 0, 1, 0, 0)" fill="#004080" fill-opacity="0.50" stroke="#004080" stroke-width="1" stroke-opacity="0.10" fill-rule="winding" ub:uuid="b8e7d732-00d5-4115-9357-52c64fd26674" ub:parent="f3f8a8ed-cc79-44af-9d1f-17d0e3b12183"/>
        <polygon points="625.079,-799.447 624.94,-798.091 624.741,-796.746 624.445,-795.187 624.276,-794.392 624.306,-795.939 624.306,-796.67 625.104,-799.93 625.08,-799.446 625.079,-799.447 " transform="matrix(1, 0, 0, 1, 0, 0)" fill="#004080" fill-opacity="0.50" stroke="#004080" stroke-width="1" stroke-opacity="0.10" fill-rule="winding" ub:uuid="18182190-7413-4371-b4f7-55e64f99528a" ub:parent="f3f8a8ed-cc79-44af-9d1f-17d0e3b12183"/>
        <polygon points="595.269,-781.906 594.95,-782.882 594.578,-784.331 594.097,-786.473 593.688,-788.531 593.465,-790.272 593.393,-791.948 593.467,-793.55 593.544,-793.034 593.781,-791.853 594.072,-790.688 594.416,-789.541 594.811,-788.413 595.139,-787.613 594.682,-785.346 595.461,-781.54 595.267,-781.902 595.269,-781.906 " transform="matrix(1, 0, 0, 1, 0, 0)" fill="#004080" fill-opacity="0.50" stroke="#004080" stroke-width="1" stroke-opacity="0.10" fill-rule="winding" ub:uuid="3a047faa-efbe-49a6-a866-18a9f200883f" ub:parent="f3f8a8ed-cc79-44af-9d1f-17d0e3b12183"/>
        <polygon points="613.054,-773.349 612.406,-773.116 611.272,-772.798 610.027,-772.57 608.742,-772.464 607.446,-772.485 606.171,-772.634 604.944,-772.899 603.786,-773.265 602.711,-773.712 601.724,-774.221 600.807,-774.787 599.919,-775.432 599.058,-776.165 598.255,-776.968 597.522,-777.828 596.866,-778.734 596.291,-779.671 595.799,-780.625 595.521,-781.259 595.519,-781.255 594.682,-785.346 595.139,-787.613 595.408,-786.96 596.815,-784.062 596.814,-784.059 598.405,-781.689 599.524,-780.736 599.868,-779.033 602.092,-775.735 605.39,-773.511 609.429,-772.696 611.668,-772.938 613.304,-773.485 613.059,-773.348 613.054,-773.349 " transform="matrix(1, 0, 0, 1, 0, 0)" fill="#004080" fill-opacity="0.50" stroke="#004080" stroke-width="1" stroke-opacity="0.10" fill-rule="winding" ub:uuid="e55b9c79-8c3d-42a0-a94b-5c5f78d5308d" ub:parent="f3f8a8ed-cc79-44af-9d1f-17d0e3b12183"/>
        <polygon points="620.424,-816.975 620.841,-816.453 621.414,-815.627 622.029,-814.593 622.638,-813.384 623.195,-812.088 623.666,-810.794 624.065,-809.483 624.415,-808.074 624.737,-806.41 624.94,-805.044 625.098,-803.476 625.163,-802.169 625.163,-800.966 625.12,-799.997 624.306,-796.67 624.306,-798.733 624.3,-800.374 624.239,-801.724 624.082,-803.414 623.825,-805.294 623.281,-808.468 622.902,-810.475 622.59,-811.913 622.139,-813.418 621.686,-814.596 621.265,-815.503 620.783,-816.399 620.424,-816.975 " transform="matrix(1, 0, 0, 1, 0, 0)" fill="#004080" fill-opacity="0.50" stroke="#004080" stroke-width="1" stroke-opacity="0.10" fill-rule="winding" ub:uuid="f8ec483c-c2d4-473f-8d2e-82970a7fe9ac" ub:parent="f3f8a8ed-cc79-44af-9d1f-17d0e3b12183"/>
    </g>
    <g ub:z-value="-999996" ub:fill-on-dark-background="#ffffff" ub:fill-on-light-background="#000000" ub:uuid="e95f2ea5-be24-4118-bf2d-915d3604005f" ub:layer="-1000">
        <polygon points="564.277,-805.436 564.704,-806.719 564.718,-806.763 564.717,-806.656 564.78,-806.419 564.953,-806.167 565.143,-806.028 565.233,-805.993 565.193,-805.997 565.039,-805.997 564.836,-805.979 563.629,-805.746 561.689,-805.319 560.315,-804.978 559.695,-804.771 559.008,-804.49 558.276,-804.139 557.506,-803.722 555.797,-802.703 552.782,-800.894 550.759,-799.616 549.678,-798.87 548.671,-798.121 548.078,-797.621 547.509,-797.084 546.972,-796.515 546.469,-795.918 545.73,-794.936 544.846,-793.712 544.106,-792.636 543.827,-792.181 543.576,-791.694 543.352,-791.171 543.155,-790.61 542.985,-790.004 542.94,-789.787 542.92,-789.597 542.919,-789.443 542.934,-789.32 542.959,-789.224 542.992,-789.143 543.037,-789.067 543.099,-788.989 543.189,-788.904 543.263,-788.843 545.579,-787.48 546.501,-787.022 547.097,-786.795 547.738,-786.621 548.417,-786.503 549.102,-786.444 550.687,-786.472 552.133,-786.633 553.141,-786.841 553.141,-786.842 553.402,-786.868 554.319,-786.488 554.699,-785.571 554.402,-784.745 553.662,-784.3 552.517,-784.067 550.85,-783.883 549.062,-783.85 548.088,-783.93 547.175,-784.088 546.294,-784.329 545.438,-784.656 544.31,-785.218 541.923,-786.622 541.513,-786.924 541.187,-787.237 540.904,-787.591 540.672,-787.983 540.498,-788.403 540.384,-788.842 540.33,-789.291 540.329,-789.741 540.378,-790.192 540.472,-790.649 540.682,-791.392 540.934,-792.111 541.229,-792.798 541.566,-793.453 541.944,-794.07 542.727,-795.208 543.641,-796.474 544.432,-797.524 545.036,-798.241 545.675,-798.918 546.351,-799.557 547.073,-800.164 548.167,-800.979 549.342,-801.789 551.427,-803.106 554.465,-804.929 556.206,-805.967 557.096,-806.45 557.955,-806.86 558.79,-807.202 559.622,-807.478 561.103,-807.846 563.097,-808.285 564.397,-808.535 564.903,-808.587 565.355,-808.586 565.816,-808.521 566.303,-808.348 566.788,-808.001 567.151,-807.473 567.3,-806.89 567.282,-806.368 567.175,-805.928 566.738,-804.616 565.507,-803.729 564.59,-804.109 564.21,-805.026 564.276,-805.437 564.277,-805.436 " transform="matrix(1, 0, 0, 1, 0, 0)" fill="#000000" fill-opacity="1.00" fill-rule="winding" ub:uuid="4a38b6f0-250e-434e-8cb0-77f81d063d9f" ub:parent="e95f2ea5-be24-4118-bf2d-915d3604005f"/>
    </g>
    <g ub:z-value="-999993" ub:fill-on-dark-background="#66c0ff" ub:fill-on-light-background="#004080" ub:uuid="0bfaa2f6-8ee2-4df5-bd85-319f5dbd09eb" ub:layer="-1000">
        <polygon points="558.896,-823.983 559.163,-822.732 559.384,-821.003 559.453,-819.433 559.454,-817.684 559.281,-817.825 558.474,-818.418 559.143,-821.732 558.717,-824.429 558.897,-823.988 558.896,-823.983 " transform="matrix(1, 0, 0, 1, 0, 0)" fill="#004080" fill-opacity="0.50" stroke="#004080" stroke-width="1" stroke-opacity="0.10" fill-rule="winding" ub:uuid="4fe2f356-ce2a-444f-92f7-31b88dc6dd3a" ub:parent="0bfaa2f6-8ee2-4df5-bd85-319f5dbd09eb"/>
        <polygon points="530.288,-812.797 530.879,-813.727 531.481,-814.579 532.069,-815.307 532.689,-815.989 533.336,-816.625 534.214,-817.382 535.387,-818.251 536.789,-819.111 538.144,-819.796 539.487,-820.36 540.931,-820.84 542.248,-821.158 543.364,-821.341 544.255,-821.425 545.36,-821.454 546.86,-821.341 548.426,-821.011 547.412,-820.825 546.279,-820.507 545.63,-820.274 545.626,-820.276 545.381,-820.139 544.946,-819.994 544.949,-819.992 544.369,-819.72 543.481,-819.236 542.636,-818.694 541.839,-818.101 541.098,-817.466 540.871,-817.244 539.048,-817.612 536.28,-817.239 533.795,-816.186 531.691,-814.553 530.204,-812.616 530.287,-812.798 530.288,-812.797 " transform="matrix(1, 0, 0, 1, 0, 0)" fill="#004080" fill-opacity="0.50" stroke="#004080" stroke-width="1" stroke-opacity="0.10" fill-rule="winding" ub:uuid="7018dabe-ad54-4e8b-9f05-a603c58f72fd" ub:parent="0bfaa2f6-8ee2-4df5-bd85-319f5dbd09eb"/>
        <polygon points="539.877,-838.199 540.585,-838.321 541.741,-838.437 542.955,-838.455 544.209,-838.358 545.479,-838.136 546.641,-837.817 547.571,-837.48 548.617,-837.014 549.834,-836.354 551.15,-835.478 552.329,-834.537 553.389,-833.548 554.362,-832.508 555.263,-831.407 556.086,-830.255 556.83,-829.058 557.54,-827.732 558.221,-826.17 558.633,-824.944 558.635,-824.949 559.143,-821.732 558.474,-818.418 558.266,-818.571 557.22,-819.25 555.974,-819.911 554.898,-820.359 553.74,-820.725 552.513,-820.99 551.238,-821.138 549.943,-821.16 549.395,-821.114 549.916,-821.595 551.537,-824.55 552.122,-827.992 551.306,-832.031 549.083,-835.33 545.784,-837.553 541.746,-838.369 539.586,-838.094 539.872,-838.2 539.877,-838.199 " transform="matrix(1, 0, 0, 1, 0, 0)" fill="#004080" fill-opacity="0.50" stroke="#004080" stroke-width="1" stroke-opacity="0.10" fill-rule="winding" ub:uuid="db10f603-a6b2-4e29-8e58-dc7940922131" ub:parent="0bfaa2f6-8ee2-4df5-bd85-319f5dbd09eb"/>
        <polygon points="537.306,-771.642 536.234,-771.544 535.351,-771.52 534.444,-771.546 533.515,-771.63 532.57,-771.775 531.617,-771.987 530.689,-772.26 529.833,-772.573 528.787,-773.039 527.57,-773.699 526.253,-774.575 525.075,-775.516 524.098,-776.422 523.303,-777.264 522.66,-778.042 522.245,-778.6 520.767,-781.452 520.236,-784.736 521.052,-788.775 523.276,-792.073 523.305,-792.093 523.196,-790.756 523.142,-789.201 523.159,-787.329 523.242,-785.868 523.397,-784.484 523.577,-783.444 523.576,-783.439 523.706,-783.087 523.778,-782.542 523.78,-782.547 524.032,-781.644 524.577,-780.207 525.162,-779.056 525.836,-777.995 526.578,-777.035 527.365,-776.18 528.179,-775.427 529.004,-774.769 529.831,-774.196 530.653,-773.698 531.491,-773.252 532.395,-772.835 533.372,-772.457 534.394,-772.137 535.456,-771.885 536.55,-771.708 537.306,-771.642 " transform="matrix(1, 0, 0, 1, 0, 0)" fill="#004080" fill-opacity="0.50" stroke="#004080" stroke-width="1" stroke-opacity="0.10" fill-rule="winding" ub:uuid="ef79e71b-29d2-4420-83cf-7c627e112562" ub:parent="0bfaa2f6-8ee2-4df5-bd85-319f5dbd09eb"/>
        <polygon points="522.459,-817.646 523.515,-820.814 524.178,-822.688 524.853,-824.282 525.583,-825.74 526.42,-827.165 527.256,-828.385 528.2,-829.666 529.332,-831.291 529.752,-831.873 530.339,-832.601 530.96,-833.283 531.607,-833.919 532.484,-834.676 533.657,-835.545 535.083,-836.417 536.391,-837.074 537.519,-837.539 538.473,-837.856 539.132,-838.034 539.127,-838.035 541.746,-838.369 545.784,-837.553 549.083,-835.33 551.306,-832.031 552.122,-827.992 551.537,-824.55 549.916,-821.595 549.395,-821.114 548.658,-821.053 548.426,-821.011 546.86,-821.341 545.36,-821.454 544.255,-821.425 543.364,-821.341 542.248,-821.158 540.931,-820.84 540.351,-820.647 539.64,-821.702 536.342,-823.926 532.303,-824.741 529.02,-824.211 526.17,-822.735 523.923,-820.484 522.459,-817.646 522.456,-817.639 522.457,-817.649 522.459,-817.646 522.456,-817.639 522.459,-817.646 " transform="matrix(1, 0, 0, 1, 0, 0)" fill="#004080" fill-opacity="0.50" stroke="#004080" stroke-width="1" stroke-opacity="0.10" fill-rule="winding" ub:uuid="b20a8ed5-eaeb-428c-b75b-4019d8dc06f0" ub:parent="0bfaa2f6-8ee2-4df5-bd85-319f5dbd09eb"/>
        <polygon points="518.891,-800.646 518.821,-802.2 518.814,-804.175 518.814,-804.201 519.629,-808.239 520.219,-809.114 519.458,-804.211 518.891,-800.646 " transform="matrix(1, 0, 0, 1, 0, 0)" fill="#004080" fill-opacity="0.50" stroke="#004080" stroke-width="1" stroke-opacity="0.10" fill-rule="winding" ub:uuid="b4f7f236-0ffb-4853-a34b-c9ae0d3b26e4" ub:parent="0bfaa2f6-8ee2-4df5-bd85-319f5dbd09eb"/>
        <polygon points="550.8,-840.216 551.216,-839.989 552.062,-839.446 552.858,-838.853 553.599,-838.218 554.283,-837.55 554.907,-836.857 555.739,-835.775 556.758,-834.168 557.97,-831.8 558.966,-829.404 559.625,-827.345 560.013,-825.629 560.238,-824.013 560.318,-822.154 560.186,-819.722 559.828,-817.379 559.454,-817.684 559.453,-819.433 559.384,-821.003 559.163,-822.732 558.896,-823.983 558.897,-823.988 558.717,-824.429 558.635,-824.949 558.633,-824.944 558.221,-826.17 557.54,-827.732 556.83,-829.058 556.086,-830.255 555.712,-830.778 555.818,-831.304 555.318,-834.496 553.922,-837.285 551.787,-839.515 550.941,-839.986 550.8,-840.216 " transform="matrix(1, 0, 0, 1, 0, 0)" fill="#004080" fill-opacity="0.50" stroke="#004080" stroke-width="1" stroke-opacity="0.10" fill-rule="winding" ub:uuid="defa0997-335f-4d5d-89ff-8ef637cb9882" ub:parent="0bfaa2f6-8ee2-4df5-bd85-319f5dbd09eb"/>
        <polygon points="518.814,-804.201 518.814,-807.187 518.859,-809.537 518.965,-811.162 519.181,-813.14 519.5,-815.163 519.901,-817.17 520.394,-819.249 521.103,-821.842 522.161,-825.545 523.249,-829.267 524.068,-831.731 524.543,-832.978 525.546,-836.11 525.546,-836.244 525.717,-836.98 525.995,-837.952 526.346,-838.946 526.782,-839.957 527.12,-840.622 527.118,-840.624 528.725,-842.896 530.87,-844.66 533.441,-845.801 536.324,-846.207 540.363,-845.392 543.661,-843.168 545.885,-839.87 546.279,-837.916 545.479,-838.136 544.209,-838.358 542.955,-838.455 541.741,-838.437 540.585,-838.321 539.877,-838.199 539.872,-838.2 539.586,-838.094 539.127,-838.035 539.132,-838.034 538.473,-837.856 537.519,-837.539 536.391,-837.074 535.083,-836.417 533.657,-835.545 532.484,-834.676 531.607,-833.919 530.96,-833.283 530.339,-832.601 529.752,-831.873 529.332,-831.291 528.2,-829.666 527.256,-828.385 526.42,-827.165 525.583,-825.74 524.853,-824.282 524.178,-822.688 523.515,-820.814 522.459,-817.646 522.457,-817.649 522.456,-817.639 522.451,-817.63 522.453,-817.628 521.717,-815.401 521.136,-813.407 520.645,-811.374 520.247,-809.297 520.219,-809.114 519.629,-808.239 518.814,-804.201 " transform="matrix(1, 0, 0, 1, 0, 0)" fill="#004080" fill-opacity="0.50" stroke="#004080" stroke-width="1" stroke-opacity="0.10" fill-rule="winding" ub:uuid="e682b8c8-ac36-4b6f-b215-ef6d9fb3ae05" ub:parent="0bfaa2f6-8ee2-4df5-bd85-319f5dbd09eb"/>
        <polygon points="550.941,-839.986 551.787,-839.515 553.922,-837.285 555.318,-834.496 555.818,-831.304 555.712,-830.778 555.263,-831.407 554.362,-832.508 553.389,-833.548 553.387,-833.55 553.344,-833.777 552.761,-835.87 552.29,-837.164 551.739,-838.449 551.058,-839.795 550.941,-839.986 " transform="matrix(1, 0, 0, 1, 0, 0)" fill="#004080" fill-opacity="0.50" stroke="#004080" stroke-width="1" stroke-opacity="0.10" fill-rule="winding" ub:uuid="68a987cf-f8bf-44ec-b792-2580a1efed18" ub:parent="0bfaa2f6-8ee2-4df5-bd85-319f5dbd09eb"/>
        <polygon points="527.532,-841.342 527.955,-841.999 528.711,-843 529.583,-843.959 530.568,-844.852 531.632,-845.642 532.781,-846.331 534.07,-846.931 535.509,-847.409 537.071,-847.72 538.702,-847.828 540.333,-847.72 541.894,-847.409 543.334,-846.931 544.622,-846.331 545.687,-845.698 546.525,-845.105 547.253,-844.518 547.936,-843.897 548.373,-843.458 550.547,-840.183 551.344,-836.19 551.193,-835.444 551.15,-835.478 549.834,-836.354 548.617,-837.014 547.571,-837.48 546.641,-837.817 546.279,-837.916 545.885,-839.87 543.661,-843.168 540.363,-845.392 536.324,-846.207 533.441,-845.801 530.87,-844.66 528.725,-842.896 527.363,-840.97 527.531,-841.343 527.532,-841.342 " transform="matrix(1, 0, 0, 1, 0, 0)" fill="#004080" fill-opacity="0.50" stroke="#004080" stroke-width="1" stroke-opacity="0.10" fill-rule="winding" ub:uuid="78a0554b-df27-4337-a7c0-c24720a327bf" ub:parent="0bfaa2f6-8ee2-4df5-bd85-319f5dbd09eb"/>
        <polygon points="548.76,-843.042 549.329,-842.373 550.197,-841.199 551.058,-839.795 551.739,-838.449 552.29,-837.164 552.761,-835.87 553.344,-833.777 553.387,-833.55 552.329,-834.537 551.193,-835.444 551.344,-836.19 550.547,-840.183 548.54,-843.205 548.76,-843.042 " transform="matrix(1, 0, 0, 1, 0, 0)" fill="#004080" fill-opacity="0.50" stroke="#004080" stroke-width="1" stroke-opacity="0.10" fill-rule="winding" ub:uuid="5d800bd1-fce8-4f6c-ab9e-32405d232b69" ub:parent="0bfaa2f6-8ee2-4df5-bd85-319f5dbd09eb"/>
        <polygon points="521.79,-779.275 521.093,-780.424 520.289,-782.027 519.634,-783.631 519.103,-785.215 518.672,-786.775 518.333,-788.362 518.093,-789.985 517.967,-791.621 517.955,-793.102 518.013,-794.51 518.167,-796.217 518.375,-797.697 518.695,-799.414 519.458,-804.211 520.247,-809.297 520.645,-811.374 521.136,-813.407 521.717,-815.401 522.453,-817.628 522.451,-817.63 523.923,-820.484 526.17,-822.735 529.02,-824.211 532.303,-824.741 536.342,-823.926 539.64,-821.702 540.351,-820.647 539.487,-820.36 538.144,-819.796 536.789,-819.111 535.387,-818.251 534.214,-817.382 533.336,-816.625 532.689,-815.989 532.069,-815.307 531.481,-814.579 530.879,-813.727 530.288,-812.797 530.287,-812.798 530.204,-812.616 530.069,-812.441 530.071,-812.44 529.458,-811.38 528.761,-810.072 528.086,-808.68 527.421,-807.071 526.625,-804.628 526.309,-803.494 526.105,-802.858 525.154,-800.334 524.575,-798.587 524.178,-797.167 523.788,-795.469 523.535,-794.049 523.345,-792.596 523.305,-792.093 523.276,-792.073 521.052,-788.775 520.236,-784.736 520.767,-781.452 522.086,-778.907 521.789,-779.273 521.79,-779.275 " transform="matrix(1, 0, 0, 1, 0, 0)" fill="#004080" fill-opacity="0.50" stroke="#004080" stroke-width="1" stroke-opacity="0.10" fill-rule="winding" ub:uuid="fd283974-d662-4dfe-b10c-6eeb2dbac9b5" ub:parent="0bfaa2f6-8ee2-4df5-bd85-319f5dbd09eb"/>
        <polygon points="545.63,-820.274 546.279,-820.507 547.412,-820.825 548.658,-821.053 549.943,-821.16 551.238,-821.138 552.513,-820.99 553.74,-820.725 554.898,-820.359 555.974,-819.911 557.22,-819.25 558.266,-818.571 559.281,-817.825 560.381,-816.927 561.326,-816.077 562.414,-815.005 563.517,-813.811 564.574,-812.56 565.613,-811.227 566.483,-810.01 566.483,-810.011 567.9,-807.205 568.408,-803.989 567.593,-799.95 565.369,-796.652 562.071,-794.428 558.032,-793.612 555.506,-793.922 553.205,-794.801 552.873,-795.029 552.924,-795.063 555.153,-798.329 555.995,-802.333 555.998,-802.67 556.023,-802.685 557.94,-804.871 559.187,-807.537 559.632,-810.552 558.816,-814.591 556.592,-817.889 553.294,-820.113 549.255,-820.928 547.017,-820.686 545.381,-820.139 545.626,-820.276 545.63,-820.274 555.998,-802.67 554.841,-801.928 555.121,-802.168 555.398,-802.438 555.633,-802.699 555.827,-802.942 555.894,-803.039 555.876,-802.989 555.87,-802.973 555.882,-802.997 555.918,-803.06 556.002,-803.191 555.998,-802.67 545.63,-820.274 554.841,-801.928 553.594,-801.129 553.649,-801.158 554.061,-801.383 554.448,-801.631 554.803,-801.896 554.841,-801.928 545.63,-820.274 553.594,-801.129 553.565,-801.11 553.562,-801.111 553.594,-801.129 545.63,-820.274 555.894,-803.039 556.002,-803.193 556.008,-803.941 555.974,-803.396 555.95,-803.251 555.922,-803.131 555.895,-803.042 555.894,-803.039 545.63,-820.274 556.002,-803.193 556.02,-803.218 556.002,-803.191 556.002,-803.193 545.63,-820.274 " transform="matrix(1, 0, 0, 1, 0, 0)" fill="#004080" fill-opacity="0.50" stroke="#004080" stroke-width="1" stroke-opacity="0.10" fill-rule="winding" ub:uuid="013e5167-8c1c-4396-9f2c-4de117ff13fe" ub:parent="0bfaa2f6-8ee2-4df5-bd85-319f5dbd09eb"/>
        <polygon points="566.732,-809.644 567.33,-808.717 568.135,-807.346 568.803,-806.069 569.462,-804.552 570.018,-802.845 570.404,-801.115 570.625,-799.386 570.694,-797.82 570.695,-796.016 570.695,-793.733 570.652,-792.648 570.516,-791.493 570.285,-790.334 569.955,-789.19 569.532,-788.077 569.023,-787.011 568.438,-786.005 567.79,-785.069 567.333,-784.494 567.334,-784.494 563.809,-781.69 561.635,-780.917 559.268,-780.646 555.23,-781.462 551.931,-783.686 549.708,-786.984 548.892,-791.023 549.197,-792.774 549.637,-792.862 552.873,-795.029 553.205,-794.801 555.506,-793.922 558.032,-793.612 562.071,-794.428 565.369,-796.652 567.593,-799.95 568.408,-803.989 567.9,-807.205 566.57,-809.838 566.733,-809.645 566.732,-809.644 " transform="matrix(1, 0, 0, 1, 0, 0)" fill="#004080" fill-opacity="0.50" stroke="#004080" stroke-width="1" stroke-opacity="0.10" fill-rule="winding" ub:uuid="c7a6a9fd-dfce-42eb-ba6d-b23555ee4580" ub:parent="0bfaa2f6-8ee2-4df5-bd85-319f5dbd09eb"/>
        <polygon points="523.577,-783.444 523.397,-784.484 523.242,-785.868 523.159,-787.329 523.142,-789.201 523.196,-790.756 523.345,-792.596 523.535,-794.049 523.788,-795.469 524.178,-797.167 524.575,-798.587 525.154,-800.334 526.105,-802.858 526.309,-803.494 526.625,-804.628 527.421,-807.071 528.086,-808.68 528.761,-810.072 529.458,-811.38 530.071,-812.44 530.069,-812.441 531.691,-814.553 533.795,-816.186 536.28,-817.239 539.048,-817.612 540.871,-817.244 540.415,-816.797 539.791,-816.104 539.225,-815.394 538.678,-814.617 538.123,-813.737 537.571,-812.763 537.064,-811.749 536.608,-810.696 536.208,-809.605 535.87,-808.478 535.6,-807.321 535.403,-806.138 535.366,-805.708 534.871,-804.785 534.313,-803.611 533.843,-802.469 533.447,-801.304 533.077,-800.006 532.734,-798.601 532.444,-797.242 532.442,-797.244 532.408,-796.918 532.351,-796.756 532.352,-796.754 532.158,-795.522 532.141,-795.32 529.751,-794.838 526.453,-792.614 524.23,-789.316 523.414,-785.277 523.706,-783.087 523.576,-783.439 523.577,-783.444 " transform="matrix(1, 0, 0, 1, 0, 0)" fill="#004080" fill-opacity="0.50" stroke="#004080" stroke-width="1" stroke-opacity="0.10" fill-rule="winding" ub:uuid="c245f0f2-abfc-4bce-871d-b1e0c8b84737" ub:parent="0bfaa2f6-8ee2-4df5-bd85-319f5dbd09eb"/>
    </g>
    <g ub:z-value="-999995" ub:fill-on-dark-background="#ffffff" ub:fill-on-light-background="#000000" ub:uuid="058eb6d1-e3d3-431a-aa21-25d81a6cdd26" ub:layer="-1000">
        <polygon points="543.157,-824.336 543.349,-824.518 543.508,-824.766 543.527,-824.816 543.517,-824.776 543.473,-824.31 543.458,-823.611 543.458,-820.807 543.474,-819.052 543.52,-818.404 543.655,-817.284 543.888,-815.897 544.283,-804.329 544.21,-803.08 544.037,-801.313 543.733,-799.035 543.496,-789.493 543.655,-788.136 543.864,-787.128 543.864,-787.129 543.89,-786.868 543.51,-785.951 542.593,-785.571 541.768,-785.867 541.322,-786.607 541.322,-786.608 541.09,-787.753 540.902,-789.508 541.142,-799.154 541.46,-801.615 541.625,-803.297 541.69,-804.262 541.297,-815.773 541.09,-816.902 540.939,-818.143 540.881,-818.982 540.864,-820.798 540.864,-823.623 540.883,-824.446 540.942,-825.087 541.01,-825.445 541.124,-825.788 541.396,-826.227 541.718,-826.495 541.88,-826.587 542.055,-826.655 542.437,-826.713 543.354,-826.333 543.734,-825.416 543.157,-824.336 " transform="matrix(1, 0, 0, 1, 0, 0)" fill="#000000" fill-opacity="1.00" fill-rule="winding" ub:uuid="a729ba13-1f0c-463d-ad59-9eb028034529" ub:parent="058eb6d1-e3d3-431a-aa21-25d81a6cdd26"/>
        <polygon points="542.108,-823.997 541.696,-824.41 541.984,-824.222 542.286,-824.128 542.286,-824.127 541.471,-824.55 541.14,-825.416 541.52,-826.333 542.437,-826.713 542.589,-826.704 543.038,-826.592 543.49,-826.283 543.942,-825.831 544.322,-824.914 543.942,-823.997 543.025,-823.617 542.108,-823.997 " transform="matrix(1, 0, 0, 1, 0, 0)" fill="#000000" fill-opacity="1.00" fill-rule="winding" ub:uuid="a19c5095-21c9-477e-a483-ef032c059375" ub:parent="058eb6d1-e3d3-431a-aa21-25d81a6cdd26"/>
    </g>
    <g ub:z-value="-999994" ub:fill-on-dark-background="#ffffff" ub:fill-on-light-background="#000000" ub:uuid="3b4b7b68-eb07-4660-a550-d1119aa31208" ub:layer="-1000">
        <polygon points="541.243,-837.832 540.847,-838.23 541.247,-838.002 541.664,-837.964 541.855,-838.012 541.871,-838.018 541.782,-837.953 541.652,-837.842 541.173,-837.348 540.583,-836.647 539.651,-835.425 539.132,-834.679 538.679,-833.967 538.302,-833.307 537.574,-831.864 536.23,-829.176 534.691,-825.992 533.149,-822.497 532.125,-820.004 530.839,-816.682 529.885,-813.957 529.265,-811.931 528.717,-809.892 527.855,-806.442 526.829,-802.31 526.567,-801.029 526.369,-799.775 526.237,-798.56 526.172,-797.396 526.181,-795.655 526.268,-793.993 526.431,-792.401 526.577,-791.413 526.865,-789.909 527.219,-788.441 528.166,-785.448 528.812,-783.899 529.256,-783.066 529.906,-782.132 530.934,-780.921 532.133,-779.743 533.362,-778.74 533.825,-778.419 534.378,-777.356 533.998,-776.439 533.081,-776.059 532.685,-776.121 532.504,-776.195 532.337,-776.294 532.338,-776.294 531.763,-776.698 530.398,-777.814 529.037,-779.152 527.861,-780.536 527.049,-781.703 526.455,-782.815 525.718,-784.587 524.728,-787.716 524.33,-789.36 524.021,-790.969 523.856,-792.092 523.682,-793.794 523.588,-795.582 523.579,-797.447 523.652,-798.773 523.797,-800.118 524.014,-801.493 524.305,-802.909 525.338,-807.069 526.205,-810.537 526.772,-812.648 527.423,-814.773 528.406,-817.582 529.714,-820.962 530.765,-823.518 532.336,-827.079 533.901,-830.319 535.255,-833.027 536.006,-834.516 536.459,-835.309 536.974,-836.118 537.563,-836.963 538.55,-838.258 539.24,-839.078 539.833,-839.691 540.161,-839.978 540.478,-840.207 540.849,-840.403 541.343,-840.538 542.01,-840.482 542.61,-840.133 543.078,-839.666 543.458,-838.749 543.078,-837.832 542.161,-837.452 541.243,-837.832 " transform="matrix(1, 0, 0, 1, 0, 0)" fill="#000000" fill-opacity="1.00" fill-rule="winding" ub:uuid="90be1dbe-3eae-44fe-97e7-b3e321577a05" ub:parent="3b4b7b68-eb07-4660-a550-d1119aa31208"/>
    </g>
    <g ub:z-value="-999993" ub:fill-on-dark-background="#66c0ff" ub:fill-on-light-background="#004080" ub:uuid="0bfaa2f6-8ee2-4df5-bd85-319f5dbd09eb" ub:layer="-1000">
        <polygon points="535.244,-802.531 535.265,-804.555 535.403,-806.138 535.6,-807.321 535.87,-808.478 536.208,-809.605 536.608,-810.696 537.064,-811.749 537.571,-812.763 538.123,-813.737 538.678,-814.617 539.225,-815.394 539.791,-816.104 540.415,-816.797 541.098,-817.466 541.839,-818.101 542.636,-818.694 543.481,-819.236 544.369,-819.72 544.949,-819.992 544.946,-819.994 547.017,-820.686 549.255,-820.928 553.294,-820.113 556.592,-817.889 558.816,-814.591 559.632,-810.552 559.187,-807.537 557.94,-804.871 556.023,-802.685 553.565,-801.11 553.562,-801.111 553.649,-801.158 554.061,-801.383 554.448,-801.631 554.803,-801.896 555.121,-802.168 555.398,-802.438 555.633,-802.699 555.827,-802.942 556.02,-803.218 555.918,-803.06 555.882,-802.997 555.87,-802.973 555.876,-802.989 555.895,-803.042 555.922,-803.131 555.95,-803.251 555.974,-803.396 556.008,-803.941 555.995,-802.333 555.153,-798.329 552.924,-795.063 549.637,-792.862 545.619,-792.056 541.58,-792.871 538.282,-795.095 536.058,-798.393 535.243,-802.432 535.244,-802.531 " transform="matrix(1, 0, 0, 1, 0, 0)" fill="#004080" fill-opacity="0.50" stroke="#004080" stroke-width="1" stroke-opacity="0.10" fill-rule="winding" ub:uuid="8feea75e-b247-40c3-9d1e-88d36b77e6ee" ub:parent="0bfaa2f6-8ee2-4df5-bd85-319f5dbd09eb"/>
        <polygon points="566.85,-783.938 566.195,-783.261 565.065,-782.248 563.705,-781.227 562.302,-780.349 560.87,-779.6 559.4,-778.956 557.861,-778.403 556.255,-777.954 554.609,-777.625 552.932,-777.424 551.382,-777.357 549.58,-777.356 547.314,-777.356 546.476,-777.378 545.588,-777.448 544.689,-777.568 543.783,-777.742 542.877,-777.972 542.277,-778.158 542.275,-778.156 539.379,-779.613 537.093,-781.865 535.592,-784.733 535.053,-788.044 535.868,-792.083 538.091,-795.379 538.282,-795.095 541.58,-792.871 545.619,-792.056 549.197,-792.774 548.892,-791.023 549.708,-786.984 551.931,-783.686 555.23,-781.462 559.268,-780.646 561.635,-780.917 563.809,-781.69 567.071,-784.285 566.85,-783.938 " transform="matrix(1, 0, 0, 1, 0, 0)" fill="#004080" fill-opacity="0.50" stroke="#004080" stroke-width="1" stroke-opacity="0.10" fill-rule="winding" ub:uuid="6ea1602d-db2d-4061-a748-66a93e5db4db" ub:parent="0bfaa2f6-8ee2-4df5-bd85-319f5dbd09eb"/>
        <polygon points="552.545,-777.407 551.54,-776.765 548.938,-775.161 547.404,-774.188 545.904,-773.398 544.642,-772.856 543.366,-772.408 542.163,-772.066 541.009,-771.818 540.288,-771.711 540.293,-771.711 538.875,-771.615 534.836,-772.43 531.538,-774.654 529.314,-777.952 528.498,-781.991 529.187,-785.715 531.081,-788.841 532.299,-789.815 532.466,-788.931 532.793,-787.729 533.13,-786.773 533.541,-785.813 534.033,-784.859 534.608,-783.922 535.264,-783.017 535.997,-782.156 536.8,-781.353 537.661,-780.62 538.533,-779.986 539.376,-779.46 540.218,-779.005 541.087,-778.604 541.675,-778.37 541.673,-778.368 541.958,-778.315 542.275,-778.156 542.277,-778.158 542.877,-777.972 543.783,-777.742 544.689,-777.568 545.588,-777.448 546.476,-777.378 547.314,-777.356 549.58,-777.356 551.382,-777.357 552.545,-777.407 " transform="matrix(1, 0, 0, 1, 0, 0)" fill="#004080" fill-opacity="0.50" stroke="#004080" stroke-width="1" stroke-opacity="0.10" fill-rule="winding" ub:uuid="7fb851b2-85c2-430a-a9de-9d2c0d48a134" ub:parent="0bfaa2f6-8ee2-4df5-bd85-319f5dbd09eb"/>
        <polygon points="539.522,-771.635 538.788,-771.596 537.665,-771.61 536.55,-771.708 535.456,-771.885 534.394,-772.137 533.372,-772.457 532.395,-772.835 531.491,-773.252 530.653,-773.698 529.831,-774.196 529.004,-774.769 528.179,-775.427 527.365,-776.18 526.578,-777.035 525.836,-777.995 525.162,-779.056 524.577,-780.207 524.032,-781.644 523.78,-782.547 523.778,-782.542 523.414,-785.277 524.23,-789.316 526.453,-792.614 529.751,-794.838 532.141,-795.32 532.019,-793.873 532.02,-792.173 532.183,-790.433 532.299,-789.815 531.081,-788.841 529.187,-785.715 528.498,-781.991 529.314,-777.952 531.538,-774.654 534.836,-772.43 538.875,-771.615 539.651,-771.667 539.525,-771.635 539.522,-771.635 " transform="matrix(1, 0, 0, 1, 0, 0)" fill="#004080" fill-opacity="0.50" stroke="#004080" stroke-width="1" stroke-opacity="0.10" fill-rule="winding" ub:uuid="aafec1b9-1bf9-43d1-903c-14e7123e39f8" ub:parent="0bfaa2f6-8ee2-4df5-bd85-319f5dbd09eb"/>
        <polygon points="532.444,-797.242 532.734,-798.601 533.077,-800.006 533.447,-801.304 533.843,-802.469 534.313,-803.611 534.871,-804.785 535.366,-805.708 535.265,-804.555 535.244,-802.531 535.243,-802.432 535.275,-802.275 533.564,-800.198 532.408,-796.918 532.442,-797.244 532.444,-797.242 " transform="matrix(1, 0, 0, 1, 0, 0)" fill="#004080" fill-opacity="0.50" stroke="#004080" stroke-width="1" stroke-opacity="0.10" fill-rule="winding" ub:uuid="b7e7e69b-4b5e-4e60-8692-ab4e1171e5fb" ub:parent="0bfaa2f6-8ee2-4df5-bd85-319f5dbd09eb"/>
        <polygon points="541.675,-778.37 541.087,-778.604 540.218,-779.005 539.376,-779.46 538.533,-779.986 537.661,-780.62 536.8,-781.353 535.997,-782.156 535.264,-783.017 534.608,-783.922 534.033,-784.859 533.541,-785.813 533.13,-786.773 532.793,-787.729 532.466,-788.931 532.183,-790.433 532.02,-792.173 532.019,-793.873 532.158,-795.522 532.352,-796.754 532.351,-796.756 533.564,-800.198 535.275,-802.275 536.058,-798.393 538.091,-795.379 535.868,-792.083 535.053,-788.044 535.592,-784.733 537.093,-781.865 539.379,-779.613 541.958,-778.315 541.673,-778.368 541.675,-778.37 " transform="matrix(1, 0, 0, 1, 0, 0)" fill="#004080" fill-opacity="0.50" stroke="#004080" stroke-width="1" stroke-opacity="0.10" fill-rule="winding" ub:uuid="cae4767b-5d1b-44ea-b537-c26f038e08ca" ub:parent="0bfaa2f6-8ee2-4df5-bd85-319f5dbd09eb"/>
    </g>
</svg>
