<?xml version="1.0" encoding="UTF-8"?>
<svg xmlns="http://www.w3.org/2000/svg" xmlns:xlink="http://www.w3.org/1999/xlink" xmlns:ub="http://uniboard.mnemis.com/document" xmlns:xhtml="http://www.w3.org/1999/xhtml" version="1.1" ub:version="4.8.0" ub:uuid="1dd30fce-114b-417e-9974-1f2d838f9693" viewBox="-721 -919 1443 1838" ub:nominal-size="1343x1738" ub:dark-background="false" ub:crossed-background="true" ub:ruled-background="false" ub:grid-size="55" ub:intermediate-lines="0" pageDpi="158">
    <rect fill="white" x="-721" y="-919" width="1443" height="1838"/>
    <g ub:z-value="-999999" ub:fill-on-dark-background="#ffffff" ub:fill-on-light-background="#000000" ub:uuid="f67e4dcf-778d-4b73-9756-b7f8b7eb9672" ub:layer="-1000">
        <polygon points="618.938,-787.636 620.704,-790.037 621.042,-790.606 621.342,-791.205 621.577,-791.793 621.757,-792.394 622.01,-793.408 622.443,-795.138 623.047,-797.557 623.557,-799.618 623.679,-800.258 623.774,-800.954 623.837,-801.689 623.87,-802.457 623.874,-804.085 623.874,-806.323 623.874,-808.395 623.866,-809.087 623.906,-808.87 624.014,-808.626 624.014,-808.626 623.922,-808.788 623.853,-808.963 623.796,-809.345 624.176,-810.263 625.093,-810.642 626.172,-810.065 626.172,-810.065 626.367,-809.691 626.458,-809.189 626.468,-808.403 626.468,-806.323 626.468,-804.082 626.463,-802.416 626.426,-801.524 626.352,-800.668 626.239,-799.842 626.084,-799.03 625.565,-796.931 624.959,-794.508 624.527,-792.779 624.261,-791.718 624.026,-790.936 623.708,-790.14 623.315,-789.356 622.824,-788.541 621.027,-786.099 621.027,-786.099 619.983,-785.571 619.066,-785.951 618.686,-786.868 618.938,-787.637 618.938,-787.636 " transform="matrix(1, 0, 0, 1, 0, 0)" fill="#000000" fill-opacity="1.00" fill-rule="winding" ub:uuid="0c6af069-5464-484a-972b-08e3b3c59b9f" ub:parent="f67e4dcf-778d-4b73-9756-b7f8b7eb9672"/>
        <polygon points="625.365,-808.077 625.304,-808.064 625.305,-808.064 625.032,-808.035 624.115,-808.415 623.735,-809.332 624.028,-810.153 624.76,-810.601 624.761,-810.601 624.821,-810.614 624.821,-810.614 625.093,-810.642 626.01,-810.263 626.39,-809.345 626.097,-808.524 625.365,-808.077 625.365,-808.077 " transform="matrix(1, 0, 0, 1, 0, 0)" fill="#000000" fill-opacity="1.00" fill-rule="winding" ub:uuid="403c27d3-6648-4149-b56f-8a5a0e3f05d8" ub:parent="f67e4dcf-778d-4b73-9756-b7f8b7eb9672"/>
        <polygon points="626.017,-808.488 626.034,-808.522 626.04,-808.535 625.829,-808.041 625.538,-807.214 625.242,-806.261 625.017,-805.392 624.859,-804.606 624.768,-803.906 624.73,-803.151 624.141,-798.387 623.907,-796.263 623.878,-795.492 623.874,-794.199 623.874,-791.844 623.874,-779.086 623.494,-778.168 622.577,-777.789 621.66,-778.168 621.28,-779.086 621.28,-791.844 621.28,-794.202 621.284,-795.538 621.324,-796.496 621.566,-798.695 622.153,-803.443 622.184,-804.141 622.3,-805.032 622.489,-805.975 622.748,-806.974 623.075,-808.027 623.405,-808.964 623.679,-809.611 623.875,-809.961 624.048,-810.177 624.048,-810.177 625.032,-810.629 625.95,-810.25 626.329,-809.332 626.017,-808.488 626.017,-808.488 " transform="matrix(1, 0, 0, 1, 0, 0)" fill="#000000" fill-opacity="1.00" fill-rule="winding" ub:uuid="e1dc93c9-e3b8-4402-a10d-fae176ff8e63" ub:parent="f67e4dcf-778d-4b73-9756-b7f8b7eb9672"/>
    </g>
    <g ub:z-value="-999998" ub:fill-on-dark-background="#ffffff" ub:fill-on-light-background="#000000" ub:uuid="5a860a2b-0754-4729-ade3-b043257edf54" ub:layer="-1000">
        <polygon points="623.009,-811.932 622.992,-813.74 622.949,-814.196 622.874,-814.726 622.68,-815.694 622.177,-818.562 622.146,-819.235 622.145,-819.314 622.187,-819.182 622.369,-818.921 622.709,-818.702 623.009,-818.645 623.133,-818.658 623.105,-818.646 622.971,-818.578 622.787,-818.467 622.175,-818.013 621.577,-817.509 621.008,-816.971 620.471,-816.403 619.966,-815.803 619.499,-815.177 619.065,-814.495 618.657,-813.742 618.275,-812.914 617.923,-812.018 616.984,-809.294 615.331,-804.77 614.199,-801.354 613.632,-799.334 612.94,-796.583 611.905,-792.445 611.301,-789.761 611.108,-788.534 610.98,-787.366 610.92,-784.418 611.172,-781.149 611.5,-779.205 611.821,-777.945 612.188,-776.89 613.338,-774.629 614.17,-773.28 614.17,-773.28 614.312,-772.96 614.362,-772.6 613.982,-771.683 613.065,-771.303 611.96,-771.92 611.961,-771.921 611.063,-773.382 609.826,-775.816 609.337,-777.2 608.958,-778.69 608.594,-780.862 608.327,-784.337 608.389,-787.485 608.537,-788.877 608.759,-790.278 609.383,-793.051 610.424,-797.214 611.124,-799.997 611.723,-802.127 612.883,-805.628 614.542,-810.167 615.48,-812.89 615.888,-813.931 616.337,-814.902 616.828,-815.808 617.362,-816.648 617.933,-817.414 618.535,-818.129 619.174,-818.806 619.85,-819.445 620.566,-820.047 621.294,-820.588 621.699,-820.839 622.083,-821.031 622.504,-821.175 623.009,-821.239 623.62,-821.131 624.203,-820.756 624.557,-820.236 624.704,-819.74 624.737,-819.352 624.741,-818.953 625.232,-816.158 625.427,-815.18 625.525,-814.499 625.585,-813.814 625.603,-811.956 625.603,-811.956 625.603,-811.944 625.223,-811.027 624.306,-810.647 623.393,-811.023 623.009,-811.932 623.009,-811.932 " transform="matrix(1, 0, 0, 1, 0, 0)" fill="#000000" fill-opacity="1.00" fill-rule="winding" ub:uuid="3d87ae30-d584-44d6-b4fa-aa5b21ce20d5" ub:parent="5a860a2b-0754-4729-ade3-b043257edf54"/>
    </g>
    <g ub:z-value="-999997" ub:fill-on-dark-background="#66c0ff" ub:fill-on-light-background="#004080" ub:uuid="2f6f6dff-a835-4407-8d13-4f2762917ed6" ub:layer="-1000">
        <polygon points="602.689,-788.628 602.728,-801.61 602.86,-803.47 603.036,-804.752 603.278,-806.023 603.585,-807.27 604.025,-808.76 604.574,-810.37 605.664,-813.254 605.861,-813.87 606.097,-814.734 606.317,-815.478 606.704,-816.534 607.208,-817.624 607.847,-818.731 608.638,-819.831 609.585,-820.889 610.68,-821.865 611.899,-822.718 612.661,-823.148 612.659,-823.149 614.997,-824.061 617.57,-824.382 621.609,-823.567 624.907,-821.343 627.131,-818.045 627.946,-814.006 627.55,-811.156 626.434,-808.609 624.708,-806.475 622.482,-804.864 622.479,-804.865 622.775,-805.044 623.561,-805.594 624.259,-806.215 624.843,-806.867 625.304,-807.509 625.649,-808.106 625.894,-808.633 626.057,-809.076 626.086,-809.154 625.726,-807.865 625.17,-806.172 624.055,-803.219 623.8,-802.468 623.591,-801.753 623.553,-801.6 623.518,-801.418 623.486,-801.178 623.48,-801.447 623.441,-788.566 623.441,-788.566 622.617,-784.538 620.392,-781.25 617.097,-779.033 613.065,-778.221 609.026,-779.036 605.728,-781.26 603.504,-784.558 602.689,-788.597 602.689,-788.628 602.689,-788.628 " transform="matrix(1, 0, 0, 1, 0, 0)" fill="#004080" fill-opacity="0.50" stroke="#004080" stroke-width="1" stroke-opacity="0.10" fill-rule="winding" ub:uuid="416af72a-00aa-4047-ae90-03c70370b135" ub:parent="2f6f6dff-a835-4407-8d13-4f2762917ed6"/>
        <polygon points="613.745,-823.652 614.668,-823.991 616.604,-824.438 619.101,-824.52 621.803,-823.975 624.291,-822.79 626.239,-821.227 627.597,-819.597 628.494,-818.08 629.079,-816.724 629.539,-815.23 629.835,-813.834 630.061,-812.417 630.248,-810.712 630.336,-809.249 630.359,-807.672 630.359,-805.459 630.359,-802 630.359,-797.327 630.426,-793.537 630.426,-793.538 630.428,-793.353 629.613,-789.314 627.389,-786.016 624.091,-783.792 621.8,-783.33 622.617,-784.538 623.441,-788.566 623.441,-788.566 623.48,-801.447 623.486,-801.178 623.518,-801.418 623.553,-801.6 623.591,-801.753 623.8,-802.468 624.055,-803.219 625.17,-806.172 625.653,-807.643 626.434,-808.609 627.55,-811.156 627.946,-814.006 627.131,-818.045 624.907,-821.343 621.609,-823.567 617.57,-824.382 614.997,-824.061 613.311,-823.403 613.741,-823.653 613.745,-823.652 625.653,-807.643 624.708,-806.475 623.866,-805.866 624.259,-806.215 624.843,-806.867 625.304,-807.509 625.649,-808.106 625.894,-808.633 626.057,-809.076 626.086,-809.154 625.726,-807.865 625.653,-807.643 613.745,-823.652 623.866,-805.866 622.502,-804.879 622.775,-805.044 623.561,-805.594 623.866,-805.866 613.745,-823.652 622.502,-804.879 622.482,-804.864 622.479,-804.865 622.502,-804.879 613.745,-823.652 " transform="matrix(1, 0, 0, 1, 0, 0)" fill="#004080" fill-opacity="0.50" stroke="#004080" stroke-width="1" stroke-opacity="0.10" fill-rule="winding" ub:uuid="299e2536-8734-454a-b498-4145045d9007" ub:parent="2f6f6dff-a835-4407-8d13-4f2762917ed6"/>
        <polygon points="630.42,-793.916 630.428,-793.826 630.568,-792.895 630.876,-791.175 631.063,-789.749 631.188,-788.186 631.224,-786.868 631.192,-785.648 631.091,-784.408 630.91,-783.145 630.637,-781.861 630.301,-780.691 629.913,-779.523 629.361,-777.867 628.657,-776.222 627.428,-774.333 625.604,-772.52 623.291,-771.109 620.829,-770.316 619.539,-770.139 619.543,-770.138 618.565,-770.093 614.526,-770.908 611.227,-773.132 609.004,-776.43 608.391,-779.465 609.026,-779.036 613.065,-778.221 617.097,-779.033 620.392,-781.25 621.8,-783.33 624.091,-783.792 627.389,-786.016 629.613,-789.314 630.428,-793.353 630.426,-793.538 630.426,-793.537 630.42,-793.916 " transform="matrix(1, 0, 0, 1, 0, 0)" fill="#004080" fill-opacity="0.50" stroke="#004080" stroke-width="1" stroke-opacity="0.10" fill-rule="winding" ub:uuid="637127a0-f9da-437d-8988-88cebacbb4ee" ub:parent="2f6f6dff-a835-4407-8d13-4f2762917ed6"/>
        <polygon points="617.688,-770.13 616.657,-770.247 615.101,-770.601 613.823,-771.048 612.748,-771.534 611.753,-772.078 610.765,-772.718 609.8,-773.461 608.875,-774.308 608.012,-775.253 607.23,-776.285 606.545,-777.387 605.97,-778.538 605.413,-780.008 605.061,-781.295 604.722,-782.752 605.728,-781.26 608.391,-779.465 609.004,-776.43 611.227,-773.132 614.526,-770.908 618.565,-770.093 618.123,-770.102 617.688,-770.129 617.688,-770.13 " transform="matrix(1, 0, 0, 1, 0, 0)" fill="#004080" fill-opacity="0.50" stroke="#004080" stroke-width="1" stroke-opacity="0.10" fill-rule="winding" ub:uuid="90d54d00-52ab-4648-a2c7-a30137cdacdf" ub:parent="2f6f6dff-a835-4407-8d13-4f2762917ed6"/>
        <polygon points="629.596,-814.959 629.758,-814.696 630.519,-813.157 631.155,-811.486 631.625,-809.763 631.927,-808.031 632.067,-806.397 632.142,-804.293 632.157,-804.202 632.324,-803.107 632.324,-803.112 632.439,-801.568 631.623,-797.529 630.388,-795.696 630.359,-797.327 630.359,-802 630.359,-805.459 630.359,-807.672 630.336,-809.249 630.248,-810.712 630.061,-812.417 629.835,-813.834 629.596,-814.959 " transform="matrix(1, 0, 0, 1, 0, 0)" fill="#004080" fill-opacity="0.50" stroke="#004080" stroke-width="1" stroke-opacity="0.10" fill-rule="winding" ub:uuid="15ff7c5b-6d66-44da-92e5-72dccd8f1a18" ub:parent="2f6f6dff-a835-4407-8d13-4f2762917ed6"/>
        <polygon points="632.338,-803.006 632.85,-799.225 633.038,-794.58 633.188,-793.6 633.625,-790.89 633.81,-788.332 633.75,-785.92 633.451,-783.523 632.923,-781.177 632.144,-778.795 631.06,-776.311 629.967,-774.338 628.761,-772.592 627.478,-771.066 626.326,-769.919 625.24,-769.021 624.304,-768.373 623.298,-767.788 622.233,-767.278 621.526,-767 621.531,-766.999 617.838,-766.323 613.799,-767.138 610.501,-769.362 608.277,-772.66 607.66,-775.718 608.012,-775.253 608.875,-774.308 609.8,-773.461 610.765,-772.718 611.753,-772.078 612.748,-771.534 613.823,-771.048 615.101,-770.601 616.657,-770.247 617.688,-770.13 617.688,-770.129 618.123,-770.102 618.565,-770.093 619.543,-770.138 619.539,-770.139 620.829,-770.316 623.291,-771.109 625.604,-772.52 627.428,-774.333 628.657,-776.222 629.361,-777.867 629.913,-779.523 630.301,-780.691 630.637,-781.861 630.91,-783.145 631.091,-784.408 631.192,-785.648 631.224,-786.868 631.188,-788.186 631.063,-789.749 630.876,-791.175 630.568,-792.895 630.428,-793.826 630.42,-793.916 630.388,-795.696 631.623,-797.529 632.439,-801.568 632.33,-803.038 632.339,-803.01 632.338,-803.006 " transform="matrix(1, 0, 0, 1, 0, 0)" fill="#004080" fill-opacity="0.50" stroke="#004080" stroke-width="1" stroke-opacity="0.10" fill-rule="winding" ub:uuid="b5d66450-5ce0-41b8-aa4d-66ccb0dd7b51" ub:parent="2f6f6dff-a835-4407-8d13-4f2762917ed6"/>
        <polygon points="620.707,-766.727 619.975,-766.526 618.817,-766.294 617.661,-766.159 616.307,-766.118 614.8,-766.201 613.105,-766.455 611.467,-766.864 609.903,-767.411 608.535,-768.021 607.254,-768.73 606.122,-769.512 605.056,-770.414 604.08,-771.423 603.216,-772.514 602.477,-773.662 601.865,-774.84 601.377,-776.024 601.002,-777.197 600.807,-777.989 600.806,-777.984 600.527,-780.383 601.343,-784.422 603.027,-786.92 603.504,-784.558 604.722,-782.752 605.061,-781.295 605.413,-780.008 605.97,-778.538 606.545,-777.387 607.23,-776.285 607.66,-775.718 608.277,-772.66 610.501,-769.362 613.799,-767.138 617.838,-766.323 621.137,-766.927 620.712,-766.726 620.707,-766.727 " transform="matrix(1, 0, 0, 1, 0, 0)" fill="#004080" fill-opacity="0.50" stroke="#004080" stroke-width="1" stroke-opacity="0.10" fill-rule="winding" ub:uuid="b4a71a67-73db-458b-a182-5ef7e7d345c3" ub:parent="2f6f6dff-a835-4407-8d13-4f2762917ed6"/>
        <polygon points="600.657,-778.743 600.463,-780.011 600.328,-781.697 600.328,-783.391 600.565,-785.745 602.451,-795.352 602.449,-795.354 602.711,-796.036 602.689,-788.628 602.689,-788.628 602.689,-788.597 603.027,-786.92 601.343,-784.422 600.527,-780.383 600.749,-778.475 600.657,-778.738 600.657,-778.743 " transform="matrix(1, 0, 0, 1, 0, 0)" fill="#004080" fill-opacity="0.50" stroke="#004080" stroke-width="1" stroke-opacity="0.10" fill-rule="winding" ub:uuid="22ddd33b-37f5-4d44-a34b-5578e4c17467" ub:parent="2f6f6dff-a835-4407-8d13-4f2762917ed6"/>
    </g>
</svg>
