<?xml version="1.0" encoding="UTF-8"?>
<svg xmlns="http://www.w3.org/2000/svg" xmlns:xlink="http://www.w3.org/1999/xlink" xmlns:ub="http://uniboard.mnemis.com/document" xmlns:xhtml="http://www.w3.org/1999/xhtml" version="1.1" ub:version="4.8.0" ub:uuid="a600e126-9427-4716-b317-c4a9732dfe93" viewBox="-690 -530 1625 1060" ub:nominal-size="1280x960" ub:dark-background="false" ub:crossed-background="true" ub:ruled-background="false" ub:grid-size="55" ub:intermediate-lines="0" pageDpi="158">
    <rect fill="white" x="-690" y="-530" width="1625" height="1060"/>
    <image xlink:href="images/{d7777d49-e910-45de-b364-956d656bc14f}.png" x="0" y="0" width="912" height="278" transform="matrix(0.949458, 0, 0, 0.949458, -15.6237, -423.963)" ub:z-value="-999999.000000" ub:background="false" ub:uuid="d7777d49-e910-45de-b364-956d656bc14f" ub:source="/Users/khale/AppData/Local/OpenBoard/document/OpenBoard Document 2023-03-12 16-13-09.643/images/{d7777d49-e910-45de-b364-956d656bc14f}.png" ub:layer="-1000"/>
    <g ub:z-value="-999994" ub:fill-on-dark-background="#ffffff" ub:fill-on-light-background="#000000" ub:uuid="757e60c9-19ac-4151-b9ef-f68fcf6fd5ca" ub:layer="-1000">
        <polygon points="831.335,-201.298 831.326,-202.958 831.331,-202.877 831.4,-202.691 831.483,-202.539 831.483,-202.539 831.183,-203.414 831.601,-204.421 832.608,-204.838 833.732,-204.288 833.732,-204.288 833.948,-203.965 834.112,-203.495 834.174,-203.015 834.184,-201.314 834.184,-201.314 834.184,-201.306 833.767,-200.298 832.76,-199.881 831.755,-200.296 831.335,-201.298 831.335,-201.298 " transform="matrix(1, 0, 0, 1, 0, 0)" fill="#000000" fill-opacity="1.00" fill-rule="winding" ub:uuid="e1b68777-41b8-40ed-9654-e77002085f0e" ub:parent="757e60c9-19ac-4151-b9ef-f68fcf6fd5ca"/>
        <polygon points="832.157,-202.062 832.072,-202.091 832.072,-202.091 831.373,-202.601 831.098,-203.442 831.515,-204.449 832.522,-204.866 832.973,-204.794 832.973,-204.793 833.058,-204.765 833.058,-204.765 833.757,-204.255 834.032,-203.414 833.615,-202.406 832.608,-201.989 832.157,-202.062 832.157,-202.062 " transform="matrix(1, 0, 0, 1, 0, 0)" fill="#000000" fill-opacity="1.00" fill-rule="winding" ub:uuid="32810f40-e6ae-44ba-bccf-8d5f38fd367e" ub:parent="757e60c9-19ac-4151-b9ef-f68fcf6fd5ca"/>
        <polygon points="832.897,-202.068 833.055,-202.14 833.221,-202.247 833.216,-202.239 833.155,-202.166 832.852,-201.714 832.6,-201.238 832.525,-201.062 832.449,-200.855 832.389,-200.654 832.343,-200.457 832.31,-200.263 832.274,-199.926 831.616,-196.207 831.392,-195.089 831.352,-194.673 831.329,-193.837 831.286,-193.188 831.197,-192.525 831.065,-191.866 830.912,-191.292 830.402,-189.066 830.389,-188.71 830.364,-187.836 830.297,-187.159 830.187,-186.498 830.039,-185.862 829.646,-184.328 829.674,-184.451 829.674,-184.428 829.669,-184.455 829.644,-184.528 829.586,-184.633 829.455,-184.784 829.193,-184.956 828.91,-185.038 828.751,-185.041 828.72,-185.037 828.789,-185.061 828.932,-185.127 829.103,-185.218 829.753,-185.639 835.073,-188.858 835.921,-189.286 837.078,-189.864 844.988,-193.667 846.008,-194.086 847.425,-194.626 848.774,-195.085 850.043,-195.459 851.252,-195.76 852.952,-196.146 855.699,-196.715 859.398,-197.564 863.627,-198.596 865.488,-198.852 867.903,-198.927 869.814,-198.806 871.18,-198.603 873.398,-198.129 874.169,-198.024 877.872,-197.982 877.913,-197.985 877.871,-197.972 877.757,-197.914 877.627,-197.8 877.539,-197.67 877.507,-197.587 877.506,-197.59 877.505,-197.684 877.484,-197.862 877.419,-198.164 877.419,-198.163 877.389,-198.457 877.806,-199.464 878.813,-199.881 879.717,-199.558 880.207,-198.751 880.207,-198.75 880.294,-198.33 880.349,-197.862 880.348,-197.387 880.271,-196.896 880.087,-196.396 879.771,-195.924 879.337,-195.544 878.844,-195.295 878.346,-195.169 877.855,-195.134 874.066,-195.177 872.871,-195.329 870.646,-195.804 869.533,-195.971 867.874,-196.078 865.702,-196.011 864.222,-195.811 860.056,-194.792 856.311,-193.932 853.55,-193.361 851.907,-192.988 850.79,-192.71 849.638,-192.371 848.394,-191.947 847.048,-191.434 846.207,-191.092 838.317,-187.299 837.195,-186.738 836.524,-186.406 831.236,-183.206 830.596,-182.792 830.206,-182.579 829.846,-182.416 829.469,-182.289 829.049,-182.208 828.557,-182.212 827.999,-182.37 827.518,-182.694 827.216,-183.053 827.026,-183.406 826.905,-183.764 826.843,-184.113 826.825,-184.451 826.871,-184.973 827.276,-186.553 827.394,-187.057 827.474,-187.535 827.52,-187.997 827.543,-188.833 827.607,-189.616 828.14,-191.948 828.291,-192.514 828.387,-192.994 828.451,-193.471 828.483,-193.961 828.508,-194.834 828.582,-195.558 828.814,-196.718 829.466,-200.407 829.487,-200.639 829.549,-201.015 829.636,-201.388 829.747,-201.756 829.88,-202.119 830.052,-202.512 830.407,-203.176 830.826,-203.807 831.087,-204.132 831.367,-204.41 831.781,-204.688 832.147,-204.816 832.147,-204.816 832.522,-204.866 833.529,-204.449 833.947,-203.442 833.649,-202.57 832.898,-202.068 832.897,-202.068 " transform="matrix(1, 0, 0, 1, 0, 0)" fill="#000000" fill-opacity="1.00" fill-rule="winding" ub:uuid="d509816f-c2f6-442f-a12f-129faac63d86" ub:parent="757e60c9-19ac-4151-b9ef-f68fcf6fd5ca"/>
    </g>
    <g ub:z-value="-999993" ub:fill-on-dark-background="#ffffff" ub:fill-on-light-background="#000000" ub:uuid="7fc54ffe-c44c-4038-87e9-6c83a06c3ad6" ub:layer="-1000">
        <polygon points="820.655,-168.856 821.809,-167.107 822.23,-166.315 822.58,-165.485 822.878,-164.591 823.131,-163.622 823.521,-161.706 824.093,-158.845 824.437,-156.951 824.563,-155.989 824.667,-154.69 824.688,-153.828 824.668,-152.997 824.605,-152.167 824.493,-151.289 823.835,-147.999 823.754,-147.186 823.738,-146.66 823.738,-146.66 823.306,-145.684 822.315,-145.282 821.307,-145.699 820.89,-146.706 820.891,-146.752 820.891,-146.752 820.913,-147.404 821.031,-148.5 821.693,-151.809 821.771,-152.45 821.823,-153.139 821.84,-153.828 821.823,-154.523 821.728,-155.702 821.626,-156.487 821.296,-158.306 820.728,-161.143 820.349,-163.006 820.146,-163.784 819.913,-164.485 819.654,-165.099 819.392,-165.598 818.277,-167.286 818.277,-167.286 818.042,-168.071 818.459,-169.078 819.466,-169.496 820.655,-168.856 820.655,-168.856 " transform="matrix(1, 0, 0, 1, 0, 0)" fill="#000000" fill-opacity="1.00" fill-rule="winding" ub:uuid="0ad0d4d9-db02-42aa-a88f-81edd8547896" ub:parent="7fc54ffe-c44c-4038-87e9-6c83a06c3ad6"/>
    </g>
    <g ub:z-value="-999992" ub:fill-on-dark-background="#ffffff" ub:fill-on-light-background="#000000" ub:uuid="a2fc4eef-a7f0-4f29-9f27-4673414a6f73" ub:layer="-1000">
        <polygon points="824.734,-151.336 825.424,-154.001 825.716,-154.838 826.039,-155.593 826.41,-156.311 826.814,-156.972 827.067,-157.332 827.323,-157.654 827.596,-157.956 827.885,-158.239 828.19,-158.501 828.512,-158.74 828.848,-158.956 829.198,-159.147 829.608,-159.331 830.5,-159.64 832.219,-160.213 833.11,-160.5 833.525,-160.599 833.901,-160.662 834.279,-160.7 834.659,-160.712 835.038,-160.7 835.417,-160.662 835.793,-160.599 836.201,-160.502 836.853,-160.29 837.504,-160.03 838.144,-159.731 838.779,-159.392 839.414,-159.012 840.036,-158.59 840.384,-158.315 840.686,-158.042 840.969,-157.753 841.231,-157.448 841.47,-157.126 841.686,-156.79 841.877,-156.44 842.058,-156.039 842.283,-155.383 842.46,-154.721 842.592,-154.062 842.68,-153.4 842.725,-152.73 842.719,-152.067 842.678,-151.651 842.611,-151.283 842.515,-150.921 842.391,-150.569 842.238,-150.228 842.057,-149.902 841.85,-149.591 841.618,-149.297 841.342,-149.002 840.859,-148.566 840.311,-148.161 839.721,-147.807 839.094,-147.505 838.433,-147.254 837.714,-147.047 836.641,-146.839 835.455,-146.726 833.828,-146.727 832.169,-146.893 830.526,-147.221 829.292,-147.589 828.169,-148.047 827.428,-148.427 826.753,-148.84 826.335,-149.16 825.968,-149.536 825.662,-149.973 825.436,-150.462 825.301,-150.982 825.258,-151.511 825.297,-152.032 825.405,-152.538 825.571,-153.031 825.802,-153.541 826.276,-154.38 826.85,-155.196 827.506,-155.963 828.243,-156.678 829.071,-157.352 830.296,-158.179 831.173,-158.663 832.041,-159.053 832.889,-159.351 833.332,-159.474 833.331,-159.474 833.709,-159.525 834.716,-159.108 835.134,-158.101 834.837,-157.23 834.088,-156.727 834.087,-156.728 833.77,-156.642 833.099,-156.408 832.447,-156.115 831.805,-155.763 830.75,-155.051 830.136,-154.548 829.581,-154.01 829.098,-153.447 828.684,-152.858 828.323,-152.216 828.221,-151.985 828.15,-151.775 828.115,-151.617 828.107,-151.511 828.111,-151.451 828.119,-151.42 828.13,-151.397 828.157,-151.359 828.217,-151.298 828.321,-151.219 828.824,-150.91 829.336,-150.645 830.236,-150.277 831.195,-149.99 832.591,-149.71 833.971,-149.572 835.344,-149.573 836.238,-149.659 837.073,-149.822 837.532,-149.957 837.972,-150.123 838.37,-150.315 838.73,-150.531 839.055,-150.771 839.37,-151.058 839.455,-151.151 839.546,-151.266 839.624,-151.383 839.69,-151.502 839.746,-151.627 839.792,-151.759 839.83,-151.901 839.858,-152.054 839.873,-152.18 839.877,-152.647 839.846,-153.116 839.782,-153.594 839.686,-154.074 839.559,-154.551 839.395,-155.026 839.329,-155.166 839.235,-155.338 839.128,-155.505 839.006,-155.668 838.869,-155.828 838.715,-155.985 838.543,-156.14 838.379,-156.273 837.88,-156.611 837.375,-156.914 836.87,-157.183 836.371,-157.416 835.883,-157.612 835.396,-157.77 835.234,-157.806 835.04,-157.838 834.849,-157.857 834.659,-157.864 834.469,-157.857 834.277,-157.838 834.083,-157.806 833.929,-157.772 833.111,-157.508 831.411,-156.941 830.603,-156.662 830.472,-156.599 830.3,-156.505 830.133,-156.398 829.97,-156.277 829.81,-156.139 829.653,-155.985 829.498,-155.813 829.346,-155.623 829.21,-155.432 828.892,-154.915 828.617,-154.38 828.371,-153.805 828.169,-153.237 827.492,-150.622 827.492,-150.622 826.991,-149.858 826.113,-149.555 825.106,-149.972 824.688,-150.979 824.734,-151.337 824.734,-151.336 " transform="matrix(1, 0, 0, 1, 0, 0)" fill="#000000" fill-opacity="1.00" fill-rule="winding" ub:uuid="a40c9098-86f2-45a3-ad68-6f1e5eec7eee" ub:parent="a2fc4eef-a7f0-4f29-9f27-4673414a6f73"/>
    </g>
    <g ub:z-value="-999991" ub:fill-on-dark-background="#ffffff" ub:fill-on-light-background="#000000" ub:uuid="a8e99c7b-74d3-4678-a7d6-b87735afad9f" ub:layer="-1000">
        <polygon points="861.4,-151.697 859.688,-152.85 859.32,-153.139 859.017,-153.412 858.734,-153.701 858.472,-154.006 858.233,-154.328 858.017,-154.664 857.826,-155.014 857.661,-155.377 857.517,-155.765 857.402,-156.193 857.338,-156.651 857.338,-157.119 857.409,-157.586 857.55,-158.036 857.756,-158.458 858.017,-158.841 858.321,-159.184 858.661,-159.489 859.052,-159.774 859.689,-160.157 860.074,-160.351 860.432,-160.506 860.796,-160.639 861.164,-160.75 861.537,-160.836 861.913,-160.899 862.291,-160.937 862.671,-160.95 863.05,-160.937 863.429,-160.899 863.805,-160.836 864.177,-160.75 864.545,-160.639 864.909,-160.506 865.302,-160.334 865.962,-159.981 866.614,-159.554 867.441,-158.953 867.969,-158.53 868.452,-158.11 868.9,-157.684 869.176,-157.379 869.42,-157.049 869.632,-156.697 869.81,-156.326 869.957,-155.94 870.073,-155.541 870.16,-155.129 870.22,-154.707 870.257,-154.235 870.257,-153.42 870.22,-152.949 870.16,-152.526 870.073,-152.115 869.957,-151.716 869.81,-151.33 869.632,-150.959 869.42,-150.607 869.176,-150.277 868.9,-149.972 868.596,-149.696 868.265,-149.452 867.913,-149.241 867.543,-149.062 867.157,-148.916 866.757,-148.8 866.346,-148.712 865.923,-148.652 865.433,-148.615 864.232,-148.626 863.063,-148.738 861.904,-148.968 858.424,-150.102 857.984,-150.28 857.57,-150.516 857.19,-150.811 856.858,-151.16 856.583,-151.552 856.367,-151.975 856.208,-152.419 856.102,-152.878 856.043,-153.347 856.024,-153.819 856.035,-154.273 856.07,-154.707 856.131,-155.129 856.218,-155.541 856.334,-155.94 856.481,-156.326 856.659,-156.697 856.871,-157.049 857.115,-157.379 857.341,-157.632 857.341,-157.632 858.398,-158.101 859.405,-157.684 859.822,-156.677 859.454,-155.721 859.454,-155.721 859.32,-155.575 859.241,-155.469 859.167,-155.346 859.099,-155.204 859.037,-155.039 858.982,-154.85 858.936,-154.634 858.902,-154.392 858.88,-154.123 858.872,-153.837 858.882,-153.577 858.908,-153.373 858.944,-153.214 858.985,-153.098 859.026,-153.018 859.063,-152.964 859.102,-152.923 859.15,-152.886 859.22,-152.847 859.321,-152.806 862.716,-151.699 863.466,-151.558 864.376,-151.471 865.396,-151.463 865.609,-151.483 865.851,-151.518 866.066,-151.563 866.256,-151.618 866.421,-151.681 866.563,-151.749 866.685,-151.823 866.792,-151.901 866.886,-151.986 866.971,-152.081 867.05,-152.187 867.123,-152.31 867.192,-152.452 867.254,-152.617 867.309,-152.806 867.355,-153.021 867.389,-153.264 867.409,-153.495 867.409,-154.161 867.389,-154.392 867.355,-154.634 867.309,-154.85 867.254,-155.039 867.192,-155.204 867.123,-155.346 867.05,-155.469 866.971,-155.575 866.886,-155.669 866.536,-156.002 866.146,-156.342 865.725,-156.679 864.985,-157.217 864.507,-157.532 864.028,-157.786 863.851,-157.861 863.645,-157.937 863.443,-157.997 863.246,-158.043 863.052,-158.075 862.861,-158.095 862.671,-158.101 862.481,-158.095 862.289,-158.075 862.095,-158.043 861.898,-157.997 861.697,-157.937 861.49,-157.861 861.279,-157.769 861.094,-157.678 860.591,-157.377 860.451,-157.273 860.335,-157.17 860.26,-157.085 860.217,-157.022 860.195,-156.978 860.184,-156.945 860.179,-156.908 860.179,-156.854 860.191,-156.77 860.228,-156.638 860.293,-156.466 860.374,-156.288 860.468,-156.116 860.575,-155.949 860.697,-155.786 860.834,-155.626 860.988,-155.469 861.16,-155.314 861.305,-155.195 862.991,-154.06 862.991,-154.06 863.62,-152.878 863.203,-151.871 862.196,-151.454 861.4,-151.697 861.4,-151.697 " transform="matrix(1, 0, 0, 1, 0, 0)" fill="#000000" fill-opacity="1.00" fill-rule="winding" ub:uuid="d6223983-ca1b-4484-902e-ca25465fffa5" ub:parent="a8e99c7b-74d3-4678-a7d6-b87735afad9f"/>
    </g>
    <g ub:z-value="-999990" ub:fill-on-dark-background="#ffffff" ub:fill-on-light-background="#000000" ub:uuid="7e4bd7a0-a46f-4c63-865b-01d3fc623057" ub:layer="-1000">
        <polygon points="819.461,-140.059 854.472,-140.178 856.151,-140.287 858.823,-140.533 876.876,-141.008 876.876,-141.008 876.914,-141.009 877.921,-140.592 878.338,-139.585 877.933,-138.59 876.952,-138.161 876.951,-138.161 858.922,-137.686 856.381,-137.448 854.49,-137.329 819.471,-137.211 819.471,-137.211 819.466,-137.211 818.459,-137.628 818.042,-138.635 818.457,-139.641 819.461,-140.059 819.461,-140.059 " transform="matrix(1, 0, 0, 1, 0, 0)" fill="#000000" fill-opacity="1.00" fill-rule="winding" ub:uuid="0f8993ba-5285-45e2-b48a-678d1964f40e" ub:parent="7e4bd7a0-a46f-4c63-865b-01d3fc623057"/>
    </g>
    <g ub:z-value="-999989" ub:fill-on-dark-background="#ffffff" ub:fill-on-light-background="#000000" ub:uuid="6a1cdf68-ccd9-4816-99e8-3c9e6a5540e3" ub:layer="-1000">
        <polygon points="858.453,-313.293 848.531,-303.414 847.804,-302.77 846.723,-301.882 845.208,-300.735 843.494,-299.505 841.706,-298.284 839.288,-296.529 838.135,-295.721 837.036,-295.07 836.293,-294.709 835.648,-294.458 835.648,-294.458 835.399,-294.387 835.134,-294.362 834.126,-294.779 833.709,-295.786 834.619,-297.115 834.619,-297.115 835.151,-297.319 835.662,-297.566 836.585,-298.111 837.626,-298.842 840.06,-300.61 841.861,-301.839 843.519,-303.03 844.966,-304.124 845.965,-304.945 846.529,-305.44 856.443,-315.312 856.443,-315.312 857.448,-315.727 858.455,-315.31 858.872,-314.303 858.453,-313.293 858.453,-313.293 " transform="matrix(1, 0, 0, 1, 0, 0)" fill="#000000" fill-opacity="1.00" fill-rule="winding" ub:uuid="d26ae082-1c0a-4cca-8e89-924537d2c750" ub:parent="6a1cdf68-ccd9-4816-99e8-3c9e6a5540e3"/>
    </g>
    <g ub:z-value="-999988" ub:fill-on-dark-background="#ffffff" ub:fill-on-light-background="#000000" ub:uuid="e222e103-24b9-4891-ba4c-239649d06323" ub:layer="-1000">
        <polygon points="838.287,-314.545 840.298,-313.229 840.873,-312.911 841.98,-312.371 843.321,-311.8 848.76,-309.277 849.668,-308.738 850.857,-307.95 852.376,-306.849 853.466,-306.127 854.158,-305.711 855.251,-305.124 857.156,-304.171 860.984,-302.138 861.877,-301.561 866.347,-298.37 866.347,-298.37 866.944,-297.211 866.526,-296.204 865.519,-295.786 864.692,-296.051 864.692,-296.051 860.236,-299.232 859.609,-299.643 855.841,-301.645 853.948,-302.591 852.762,-303.229 851.935,-303.725 850.745,-304.513 849.226,-305.614 848.136,-306.336 847.525,-306.709 842.139,-309.209 840.802,-309.778 839.573,-310.377 838.781,-310.818 836.728,-312.161 836.728,-312.161 836.083,-313.353 836.5,-314.36 837.507,-314.777 838.287,-314.545 838.287,-314.545 " transform="matrix(1, 0, 0, 1, 0, 0)" fill="#000000" fill-opacity="1.00" fill-rule="winding" ub:uuid="5c5e1a3f-fa03-4237-ae1e-ffccf8a9c5c4" ub:parent="e222e103-24b9-4891-ba4c-239649d06323"/>
    </g>
    <g ub:z-value="-999987" ub:fill-on-dark-background="#ffffff" ub:fill-on-light-background="#000000" ub:uuid="e0f93109-2b76-4fa6-9af4-85e04a4db6e2" ub:layer="-1000">
        <polygon points="835.064,-251.193 834.426,-249.224 834.327,-248.789 834.247,-248.31 834.2,-247.844 834.138,-246.406 834.046,-245.701 833.914,-245.041 833.738,-244.382 833.447,-243.493 832.973,-242.072 832.62,-240.976 832.612,-240.91 832.602,-240.797 832.604,-240.707 832.613,-240.635 832.63,-240.574 832.653,-240.515 832.689,-240.451 832.741,-240.379 832.798,-240.314 832.812,-240.298 832.776,-240.318 832.734,-240.33 832.722,-240.332 832.763,-240.337 832.867,-240.362 833.03,-240.425 833.245,-240.533 833.503,-240.689 836.546,-242.721 837.423,-243.207 838.628,-243.805 840.343,-244.584 842.624,-245.529 854.828,-251.116 865.944,-256.523 875.827,-261.272 878.436,-262.413 879.661,-263.094 880.919,-263.975 881.753,-264.671 882.104,-265.008 882.104,-265.008 883.086,-265.401 884.093,-264.983 884.51,-263.976 884.068,-262.945 884.068,-262.945 883.622,-262.522 882.633,-261.699 881.175,-260.681 879.665,-259.843 877.042,-258.695 867.184,-253.958 856.042,-248.54 843.795,-242.932 841.471,-241.968 839.843,-241.228 838.732,-240.677 838.089,-240.327 835.074,-238.314 834.629,-238.043 834.18,-237.819 833.716,-237.643 833.231,-237.527 832.722,-237.484 832.196,-237.533 831.68,-237.688 831.207,-237.945 830.823,-238.261 830.527,-238.586 830.286,-238.922 830.084,-239.286 829.927,-239.673 829.82,-240.077 829.763,-240.489 829.755,-240.903 829.792,-241.312 829.889,-241.787 830.267,-242.961 830.743,-244.389 831.012,-245.209 831.14,-245.689 831.236,-246.169 831.296,-246.603 831.357,-248.013 831.424,-248.687 831.534,-249.348 831.701,-250.052 832.354,-252.071 832.354,-252.071 832.864,-252.778 833.709,-253.056 834.716,-252.639 835.134,-251.632 835.065,-251.193 835.064,-251.193 " transform="matrix(1, 0, 0, 1, 0, 0)" fill="#000000" fill-opacity="1.00" fill-rule="winding" ub:uuid="2c1c25d4-85e1-42dc-bc2a-df0533d330c7" ub:parent="e0f93109-2b76-4fa6-9af4-85e04a4db6e2"/>
    </g>
    <g ub:z-value="-999986" ub:fill-on-dark-background="#ffffff" ub:fill-on-light-background="#000000" ub:uuid="a60ea3bd-9dd3-406c-bd10-03512d04e66c" ub:layer="-1000">
        <polygon points="858.6,-269.562 861.098,-266.13 861.639,-265.267 862.311,-264.072 863.089,-262.526 864.042,-260.619 864.797,-259.071 865.152,-258.238 865.458,-257.42 865.729,-256.587 866.244,-254.713 868.085,-249.765 869.908,-245.094 870.222,-244.154 870.579,-242.941 871.367,-240.419 873.922,-235.162 873.922,-235.163 874.028,-234.865 874.065,-234.54 873.648,-233.533 872.641,-233.116 871.36,-233.917 871.36,-233.918 868.749,-239.296 867.857,-242.101 867.501,-243.31 867.246,-244.079 865.423,-248.751 863.551,-253.783 862.993,-255.793 862.77,-256.479 862.507,-257.18 862.216,-257.867 861.489,-259.357 860.543,-261.249 859.792,-262.741 859.183,-263.824 858.774,-264.482 856.296,-267.886 856.296,-267.886 856.024,-268.724 856.441,-269.731 857.448,-270.148 858.6,-269.562 858.6,-269.562 " transform="matrix(1, 0, 0, 1, 0, 0)" fill="#000000" fill-opacity="1.00" fill-rule="winding" ub:uuid="68dc330a-9ebb-4572-8267-1a0e2914d72f" ub:parent="a60ea3bd-9dd3-406c-bd10-03512d04e66c"/>
    </g>
</svg>
