<?xml version="1.0" encoding="UTF-8"?>
<svg xmlns="http://www.w3.org/2000/svg" xmlns:xlink="http://www.w3.org/1999/xlink" xmlns:ub="http://uniboard.mnemis.com/document" xmlns:xhtml="http://www.w3.org/1999/xhtml" version="1.1" ub:version="4.8.0" ub:uuid="4036d141-547f-4c2b-99fc-446e0d4e40b5" viewBox="-721 -919 1443 1838" ub:nominal-size="1343x1738" ub:dark-background="false" ub:crossed-background="true" ub:ruled-background="false" ub:grid-size="55" ub:intermediate-lines="0" pageDpi="158">
    <rect fill="white" x="-721" y="-919" width="1443" height="1838"/>
    <g ub:z-value="-999999" ub:fill-on-dark-background="#ffffff" ub:fill-on-light-background="#000000" ub:uuid="97367035-be8f-4bc6-a336-688b16ac1ed4" ub:layer="-1000">
        <polygon points="600.912,-813.731 602.494,-815.295 602.896,-815.631 603.306,-815.93 604.113,-816.428 605.039,-816.892 606.055,-817.306 607.137,-817.671 608.551,-818.075 609.416,-818.268 610.161,-818.383 610.542,-818.417 612.303,-818.532 612.93,-818.623 614.138,-818.842 615.025,-818.989 615.892,-819.067 616.678,-819.068 617.108,-819.035 617.493,-818.98 617.867,-818.9 618.222,-818.798 618.546,-818.681 618.849,-818.552 619.139,-818.406 619.417,-818.244 619.68,-818.062 619.928,-817.859 620.158,-817.636 620.367,-817.392 620.552,-817.128 620.725,-816.818 620.871,-816.427 620.947,-815.995 620.947,-815.571 620.888,-815.165 620.781,-814.776 620.635,-814.398 620.455,-814.026 620.223,-813.625 619.74,-812.918 618.136,-810.708 617.182,-809.351 616.642,-808.724 616.062,-808.144 615.404,-807.564 614.116,-806.564 611.112,-803.755 610.902,-803.442 610.64,-803.003 610.557,-802.835 610.473,-802.642 610.411,-802.473 610.377,-802.351 610.364,-802.259 610.364,-802.173 610.377,-802.081 610.405,-801.978 610.453,-801.857 610.528,-801.716 610.635,-801.556 610.777,-801.379 610.935,-801.208 611.419,-800.771 611.619,-800.619 611.85,-800.46 612.087,-800.316 612.331,-800.185 612.581,-800.069 612.839,-799.966 613.125,-799.869 615.123,-799.222 615.868,-798.877 616.51,-798.516 617.327,-797.979 618.631,-797.11 619.682,-796.396 620.029,-796.108 620.305,-795.832 620.553,-795.532 620.771,-795.209 620.953,-794.865 621.096,-794.502 621.199,-794.126 621.26,-793.742 621.28,-793.353 621.26,-792.965 621.203,-792.58 621.108,-792.202 620.979,-791.834 620.819,-791.476 620.628,-791.129 620.41,-790.793 620.165,-790.467 619.847,-790.099 615.861,-786.171 613.492,-784.277 612.257,-783.477 610.556,-782.59 601.471,-778.592 600.081,-778.148 599.185,-777.948 598.333,-777.829 597.564,-777.79 597.564,-777.79 597.501,-777.789 596.584,-778.168 596.204,-779.086 596.563,-779.982 597.437,-780.381 597.438,-780.381 598.087,-780.411 598.721,-780.5 599.382,-780.646 600.456,-780.98 609.487,-784.954 610.968,-785.728 611.938,-786.354 614.108,-788.083 618.017,-791.937 618.14,-792.088 618.285,-792.281 618.404,-792.464 618.498,-792.636 618.571,-792.797 618.624,-792.947 618.659,-793.089 618.679,-793.223 618.686,-793.353 618.68,-793.475 618.663,-793.583 618.635,-793.682 618.597,-793.778 618.546,-793.875 618.478,-793.976 618.389,-794.082 618.276,-794.195 618.182,-794.279 617.184,-794.957 615.894,-795.817 615.146,-796.309 614.68,-796.571 614.25,-796.779 612.322,-797.403 611.942,-797.532 611.552,-797.688 611.171,-797.865 610.8,-798.064 610.441,-798.282 610.093,-798.521 609.731,-798.802 609.143,-799.333 608.816,-799.68 608.543,-800.022 608.304,-800.381 608.102,-800.76 607.944,-801.157 607.833,-801.573 607.776,-802 607.776,-802.432 607.833,-802.86 607.938,-803.256 608.065,-803.606 608.206,-803.932 608.383,-804.282 608.743,-804.881 609.294,-805.606 612.394,-808.504 613.77,-809.579 614.288,-810.037 614.746,-810.494 615.105,-810.905 616.028,-812.22 617.631,-814.429 618.047,-815.036 618.162,-815.24 618.258,-815.438 618.32,-815.597 618.351,-815.709 618.361,-815.77 618.362,-815.779 618.368,-815.744 618.376,-815.716 618.359,-815.743 618.319,-815.8 618.269,-815.858 618.204,-815.92 618.124,-815.986 618.024,-816.055 617.904,-816.126 617.762,-816.196 617.597,-816.266 617.42,-816.331 617.238,-816.384 617.042,-816.425 616.822,-816.457 616.612,-816.475 616.015,-816.476 615.36,-816.417 614.586,-816.287 613.356,-816.064 612.53,-815.948 610.72,-815.829 610.504,-815.812 609.901,-815.719 609.21,-815.566 607.9,-815.192 606.958,-814.874 606.106,-814.527 605.372,-814.161 604.726,-813.76 604.488,-813.583 604.293,-813.426 602.736,-811.886 602.736,-811.886 601.824,-811.511 600.907,-811.891 600.527,-812.809 600.912,-813.731 600.912,-813.731 " transform="matrix(1, 0, 0, 1, 0, 0)" fill="#000000" fill-opacity="1.00" fill-rule="winding" ub:uuid="84bb50c6-3e70-4f86-8641-44556793404c" ub:parent="97367035-be8f-4bc6-a336-688b16ac1ed4"/>
    </g>
    <g ub:z-value="-999998" ub:fill-on-dark-background="#ffffff" ub:fill-on-light-background="#000000" ub:uuid="b60dae06-3ba6-4f10-b866-8f3e3bfe9687" ub:layer="-1000">
        <polygon points="613.217,-844.583 611.676,-845.598 611.565,-845.65 611.408,-845.716 611.261,-845.762 611.123,-845.792 610.99,-845.808 610.86,-845.81 610.729,-845.799 610.593,-845.774 610.471,-845.741 610.022,-845.568 609.539,-845.333 609.003,-845.027 608.419,-844.648 607.797,-844.201 607.161,-843.693 606.522,-843.118 605.876,-842.472 605.232,-841.764 604.222,-840.532 602.756,-838.622 600.72,-835.837 598.578,-832.73 596.867,-830.096 594.497,-826.287 592.997,-823.821 592.208,-822.42 591.337,-820.704 590.039,-817.903 589.06,-815.576 588.157,-813.171 587.329,-810.688 586.375,-807.462 585.693,-804.904 585.37,-803.475 585.121,-802.04 584.867,-800.201 584.524,-797.119 584.251,-793.833 584.136,-791.57 584.098,-789.467 584.146,-788.195 584.29,-786.966 584.528,-785.774 584.847,-784.656 585.806,-782.34 587.25,-779.599 588.548,-777.581 589.227,-776.719 589.987,-775.895 590.81,-775.136 591.681,-774.45 593.155,-773.497 594.694,-772.697 596.326,-772.035 597.462,-771.674 597.463,-771.675 598.365,-770.439 597.986,-769.522 597.068,-769.142 596.674,-769.203 596.674,-769.203 595.425,-769.603 593.607,-770.342 591.851,-771.254 590.194,-772.325 589.128,-773.161 588.153,-774.061 587.253,-775.037 586.41,-776.111 585.002,-778.304 583.463,-781.227 582.415,-783.754 582.008,-785.16 581.727,-786.562 581.56,-787.996 581.504,-789.457 581.544,-791.66 581.663,-794.014 581.942,-797.369 582.292,-800.513 582.557,-802.435 582.826,-803.984 583.178,-805.538 583.879,-808.168 584.853,-811.461 585.712,-814.037 586.65,-816.535 587.668,-818.955 588.999,-821.827 589.918,-823.639 590.764,-825.142 592.29,-827.649 594.676,-831.484 596.424,-834.176 598.604,-837.338 600.676,-840.173 602.185,-842.138 603.259,-843.448 603.998,-844.261 604.735,-844.999 605.481,-845.669 606.228,-846.267 606.954,-846.789 607.65,-847.24 608.325,-847.626 608.983,-847.945 609.607,-848.187 610.003,-848.3 610.386,-848.37 610.774,-848.403 611.163,-848.396 611.549,-848.351 611.929,-848.269 612.301,-848.151 612.662,-848.001 613.071,-847.785 614.643,-846.75 614.643,-846.75 615.227,-845.667 614.847,-844.75 613.93,-844.37 613.551,-844.426 613.217,-844.583 613.217,-844.583 " transform="matrix(1, 0, 0, 1, 0, 0)" fill="#000000" fill-opacity="1.00" fill-rule="winding" ub:uuid="1888bde2-074e-4269-a54e-97588de19057" ub:parent="b60dae06-3ba6-4f10-b866-8f3e3bfe9687"/>
    </g>
    <g ub:z-value="-999997" ub:fill-on-dark-background="#66c0ff" ub:fill-on-light-background="#004080" ub:uuid="2d379a3f-f581-40db-aa34-1f426757e1cd" ub:layer="-1000">
        <polygon points="587.808,-777.975 586.273,-781.993 585.736,-783.731 585.313,-785.426 585.011,-786.983 584.814,-788.634 584.747,-790.327 584.814,-792.019 585.007,-793.645 585.36,-795.724 585.369,-795.866 585.394,-796.247 585.531,-798.866 585.762,-800.589 586.012,-801.83 586.393,-803.379 586.838,-805.159 587.177,-806.451 587.605,-807.715 587.868,-808.344 587.866,-808.346 589.425,-810.889 591.627,-812.876 594.334,-814.171 597.406,-814.633 601.445,-813.818 604.743,-811.594 606.966,-808.296 607.782,-804.257 606.945,-800.167 606.943,-800.169 606.947,-800.193 607.15,-800.817 606.953,-800.051 606.533,-798.372 606.231,-797.154 606.204,-797.012 606.228,-797.351 606.114,-795.093 606.036,-793.987 605.872,-792.573 605.515,-790.467 605.501,-790.364 605.499,-790.327 605.501,-790.289 605.511,-790.212 605.546,-790.039 605.772,-789.14 605.754,-789.148 607.193,-785.384 607.195,-785.388 607.877,-781.68 607.062,-777.641 604.838,-774.343 601.54,-772.119 597.501,-771.303 594.329,-771.797 591.554,-773.175 589.329,-775.285 587.807,-777.971 587.808,-777.975 " transform="matrix(1, 0, 0, 1, 0, 0)" fill="#004080" fill-opacity="0.50" stroke="#004080" stroke-width="1" stroke-opacity="0.10" fill-rule="winding" ub:uuid="68273b83-3e19-40f8-93a5-2d2df8c5ce76" ub:parent="2d379a3f-f581-40db-aa34-1f426757e1cd"/>
        <polygon points="588.181,-809.009 588.509,-809.629 589.083,-810.566 589.739,-811.472 590.473,-812.332 591.276,-813.135 592.384,-814.057 593.446,-814.788 594.46,-815.398 595.454,-815.928 596.488,-816.411 597.596,-816.852 598.72,-817.22 599.876,-817.501 600.799,-817.655 601.739,-817.749 602.689,-817.78 603.638,-817.749 604.579,-817.655 605.173,-817.561 605.175,-817.563 608.605,-816.343 611.354,-814.069 613.181,-810.983 613.843,-807.326 613.028,-803.287 610.804,-799.989 607.506,-797.766 606.323,-797.527 606.533,-798.372 606.953,-800.051 607.15,-800.817 606.956,-800.223 607.782,-804.257 606.966,-808.296 604.743,-811.594 601.445,-813.818 597.406,-814.633 594.334,-814.171 591.627,-812.876 589.425,-810.889 588.032,-808.617 588.18,-809.01 588.181,-809.009 606.956,-800.223 606.945,-800.167 606.943,-800.169 606.947,-800.193 606.956,-800.223 588.181,-809.009 " transform="matrix(1, 0, 0, 1, 0, 0)" fill="#004080" fill-opacity="0.50" stroke="#004080" stroke-width="1" stroke-opacity="0.10" fill-rule="winding" ub:uuid="753a1637-c737-4933-9c90-2b23be2be010" ub:parent="2d379a3f-f581-40db-aa34-1f426757e1cd"/>
        <polygon points="605.825,-817.431 606.4,-817.292 607.267,-817.032 608.099,-816.727 609.145,-816.261 610.362,-815.601 611.678,-814.725 612.857,-813.784 613.98,-812.733 614.942,-811.675 615.672,-810.745 616.191,-809.989 616.67,-809.202 617.106,-808.387 617.496,-807.549 617.838,-806.694 618.199,-805.597 618.52,-804.336 618.771,-803.023 618.915,-801.997 618.915,-802.001 619.01,-800.595 618.194,-796.556 615.971,-793.258 612.673,-791.034 608.634,-790.218 605.569,-790.785 605.872,-792.573 606.036,-793.987 606.114,-795.093 606.213,-797.061 606.231,-797.154 606.323,-797.527 607.506,-797.766 610.804,-799.989 613.028,-803.287 613.843,-807.326 613.181,-810.983 611.354,-814.069 608.605,-816.343 605.403,-817.481 605.827,-817.433 605.825,-817.431 606.213,-797.061 606.204,-797.012 606.228,-797.351 606.213,-797.061 605.825,-817.431 " transform="matrix(1, 0, 0, 1, 0, 0)" fill="#004080" fill-opacity="0.50" stroke="#004080" stroke-width="1" stroke-opacity="0.10" fill-rule="winding" ub:uuid="74276fd2-b4e5-459b-9734-1d5bb1dce6d4" ub:parent="2d379a3f-f581-40db-aa34-1f426757e1cd"/>
        <polygon points="618.971,-801.494 619.058,-800.46 619.113,-799.107 619.118,-796.891 619.118,-794.589 619.089,-793.447 618.996,-792.153 618.793,-790.489 618.494,-788.772 618.186,-787.395 617.821,-786.078 617.386,-784.774 616.878,-783.489 616.339,-782.32 615.601,-780.844 614.509,-778.661 613.489,-776.749 612.736,-775.481 612.1,-774.498 611.541,-773.728 611.541,-773.727 609.92,-771.98 607.937,-770.643 605.664,-769.788 603.173,-769.488 599.134,-770.303 597.616,-771.327 601.54,-772.119 604.838,-774.343 607.062,-777.641 607.877,-781.68 607.195,-785.388 607.193,-785.384 605.754,-789.148 605.772,-789.14 605.546,-790.039 605.511,-790.212 605.501,-790.289 605.499,-790.327 605.501,-790.364 605.515,-790.467 605.569,-790.785 608.634,-790.218 612.673,-791.034 615.971,-793.258 618.194,-796.556 619.01,-800.595 618.942,-801.6 618.971,-801.497 618.971,-801.494 " transform="matrix(1, 0, 0, 1, 0, 0)" fill="#004080" fill-opacity="0.50" stroke="#004080" stroke-width="1" stroke-opacity="0.10" fill-rule="winding" ub:uuid="df672cbc-a0eb-4e75-a113-ff087c7c9e5a" ub:parent="2d379a3f-f581-40db-aa34-1f426757e1cd"/>
        <polygon points="611.014,-773.068 610.309,-772.265 609.301,-771.256 608.259,-770.336 607.151,-769.462 605.923,-768.604 604.577,-767.797 603.142,-767.081 601.62,-766.473 600.017,-765.993 598.348,-765.659 596.635,-765.488 594.907,-765.488 593.194,-765.659 591.715,-765.947 590.419,-766.315 589.341,-766.721 588.303,-767.205 587.317,-767.759 586.693,-768.164 586.692,-768.163 584.784,-769.791 583.318,-771.831 582.377,-774.201 582.044,-776.816 582.86,-780.855 585.084,-784.153 585.552,-784.469 585.736,-783.731 586.273,-781.993 587.808,-777.975 587.807,-777.971 589.329,-775.285 591.554,-773.175 594.329,-771.797 597.501,-771.303 597.616,-771.327 599.134,-770.303 603.173,-769.488 605.664,-769.788 607.937,-770.643 609.92,-771.98 611.169,-773.327 611.014,-773.068 611.014,-773.068 " transform="matrix(1, 0, 0, 1, 0, 0)" fill="#004080" fill-opacity="0.50" stroke="#004080" stroke-width="1" stroke-opacity="0.10" fill-rule="winding" ub:uuid="479e5856-9f27-47c1-8851-1841e28995d8" ub:parent="2d379a3f-f581-40db-aa34-1f426757e1cd"/>
        <polygon points="586.1,-768.587 585.526,-769.035 584.728,-769.737 583.996,-770.47 583.156,-771.432 582.201,-772.713 581.255,-774.24 580.453,-775.844 579.801,-777.51 579.309,-779.192 578.99,-780.721 578.765,-782.197 578.581,-784.023 578.498,-785.582 578.483,-787.562 578.565,-789.691 578.74,-791.949 579.076,-794.891 579.61,-798.952 579.975,-801.493 579.974,-801.494 581.148,-805.007 583.42,-807.83 586.537,-809.709 588.815,-810.128 588.509,-809.629 588.181,-809.009 588.18,-809.01 588.032,-808.617 587.866,-808.346 587.868,-808.344 587.605,-807.715 587.177,-806.451 586.838,-805.159 586.393,-803.379 586.012,-801.83 585.762,-800.589 585.531,-798.866 585.394,-796.247 585.369,-795.866 585.36,-795.724 585.007,-793.645 584.814,-792.019 584.747,-790.327 584.814,-788.634 585.011,-786.983 585.313,-785.426 585.552,-784.469 585.084,-784.153 582.86,-780.855 582.044,-776.816 582.377,-774.201 583.318,-771.831 584.784,-769.791 586.361,-768.445 586.1,-768.586 586.1,-768.587 " transform="matrix(1, 0, 0, 1, 0, 0)" fill="#004080" fill-opacity="0.50" stroke="#004080" stroke-width="1" stroke-opacity="0.10" fill-rule="winding" ub:uuid="f48f42cc-4248-46b0-8321-8f5208c31337" ub:parent="2d379a3f-f581-40db-aa34-1f426757e1cd"/>
        <polygon points="580.06,-801.996 580.352,-803.482 580.803,-805.321 581.559,-807.825 582.723,-811.084 584.289,-816.496 585.329,-819.695 586.17,-821.81 587.266,-824.183 588.84,-827.434 590.767,-831.751 592.229,-834.728 593.053,-836.219 594.029,-837.812 594.851,-839.021 595.669,-840.112 596.551,-841.17 597.526,-842.207 598.617,-843.246 599.352,-843.888 599.352,-843.888 602.458,-845.748 606.148,-846.423 610.187,-845.608 613.485,-843.384 615.708,-840.086 616.524,-836.047 616.273,-833.768 615.556,-831.666 612.944,-828.206 612.943,-828.206 612.64,-827.949 612.175,-827.509 612.112,-827.44 611.957,-827.253 611.738,-826.959 611.522,-826.647 610.941,-825.697 610.728,-825.321 609.595,-823.023 607.674,-818.719 606.91,-817.139 606.4,-817.292 605.825,-817.431 605.827,-817.433 605.403,-817.481 605.175,-817.563 605.173,-817.561 604.579,-817.655 603.638,-817.749 602.689,-817.78 601.739,-817.749 600.799,-817.655 599.876,-817.501 598.72,-817.22 597.596,-816.852 596.488,-816.411 595.454,-815.928 594.46,-815.398 593.446,-814.788 592.384,-814.057 591.276,-813.135 590.473,-812.332 589.739,-811.472 589.083,-810.566 588.815,-810.128 586.537,-809.709 583.42,-807.83 581.148,-805.007 580.025,-801.647 580.059,-801.998 580.06,-801.996 " transform="matrix(1, 0, 0, 1, 0, 0)" fill="#004080" fill-opacity="0.50" stroke="#004080" stroke-width="1" stroke-opacity="0.10" fill-rule="winding" ub:uuid="e04b6160-36bf-44c9-84ac-ce2cf4aac3b1" ub:parent="2d379a3f-f581-40db-aa34-1f426757e1cd"/>
        <polygon points="599.749,-844.216 600.7,-844.958 601.711,-845.668 602.949,-846.396 604.337,-847.012 605.817,-847.467 607.339,-847.74 608.85,-847.828 610.303,-847.748 611.665,-847.525 612.921,-847.191 614.068,-846.775 615.088,-846.312 616.007,-845.818 616.884,-845.273 617.734,-844.666 618.549,-843.999 619.321,-843.276 620.044,-842.504 620.499,-841.956 620.499,-841.956 622.222,-838.935 622.845,-835.386 622.029,-831.347 619.806,-828.048 616.507,-825.825 612.469,-825.009 610.674,-825.214 610.728,-825.321 610.941,-825.697 611.522,-826.647 611.738,-826.959 611.957,-827.253 612.112,-827.44 612.175,-827.509 612.64,-827.949 612.709,-828.007 613.152,-828.356 613.178,-828.372 612.982,-828.256 615.556,-831.666 616.273,-833.768 616.524,-836.047 615.708,-840.086 613.485,-843.384 610.187,-845.608 606.148,-846.423 602.458,-845.748 599.606,-844.04 599.749,-844.216 599.749,-844.216 " transform="matrix(1, 0, 0, 1, 0, 0)" fill="#004080" fill-opacity="0.50" stroke="#004080" stroke-width="1" stroke-opacity="0.10" fill-rule="winding" ub:uuid="b5a1a707-d70d-4b5a-ba0a-76df33e4591e" ub:parent="2d379a3f-f581-40db-aa34-1f426757e1cd"/>
        <polygon points="620.912,-841.417 621.318,-840.839 622.02,-839.682 622.676,-838.405 623.745,-836.268 624.373,-834.975 624.95,-833.522 625.414,-831.962 625.776,-830.158 625.975,-828.386 626.014,-827.305 626.27,-823.709 626.329,-823.577 626.543,-822.134 626.669,-820.378 626.67,-818.648 626.553,-816.823 626.279,-814.647 625.824,-811.616 625.21,-807.826 625.212,-807.824 624.001,-804.377 621.728,-801.612 619.075,-800.036 619.058,-800.46 618.971,-801.494 618.971,-801.497 618.942,-801.6 618.915,-802.001 618.915,-801.997 618.771,-803.023 618.52,-804.336 618.199,-805.597 617.838,-806.694 617.496,-807.549 617.106,-808.387 616.67,-809.202 616.191,-809.989 615.672,-810.745 614.942,-811.675 613.98,-812.733 612.857,-813.784 611.678,-814.725 610.362,-815.601 609.145,-816.261 608.099,-816.727 607.267,-817.032 606.91,-817.139 607.674,-818.719 609.595,-823.023 610.674,-825.214 612.469,-825.009 616.507,-825.825 619.806,-828.048 622.029,-831.347 622.845,-835.386 622.222,-838.935 620.628,-841.73 620.912,-841.417 620.912,-841.417 612.709,-828.007 612.943,-828.206 612.944,-828.206 612.982,-828.256 613.178,-828.372 613.152,-828.356 612.709,-828.007 620.912,-841.417 " transform="matrix(1, 0, 0, 1, 0, 0)" fill="#004080" fill-opacity="0.50" stroke="#004080" stroke-width="1" stroke-opacity="0.10" fill-rule="winding" ub:uuid="8a27ae3a-ebbb-4070-aa29-d300a15b22d6" ub:parent="2d379a3f-f581-40db-aa34-1f426757e1cd"/>
        <polygon points="625.22,-807.883 625.211,-807.825 625.21,-807.826 625.22,-807.883 625.21,-807.82 624.517,-803.218 624.116,-801.042 623.731,-799.373 623.172,-797.38 622.451,-795.095 621.734,-792.115 621.254,-790.48 620.602,-788.815 619.8,-787.211 618.844,-785.669 617.952,-784.446 616.715,-782.714 616.129,-781.865 616.081,-781.804 616.339,-782.32 616.878,-783.489 617.386,-784.774 617.821,-786.078 618.186,-787.395 618.494,-788.772 618.793,-790.489 618.996,-792.153 619.089,-793.447 619.118,-794.589 619.118,-796.891 619.113,-799.107 619.075,-800.036 621.728,-801.612 624.001,-804.377 625.21,-807.82 625.22,-807.883 625.23,-807.947 625.229,-807.938 625.229,-807.939 625.23,-807.947 625.22,-807.883 " transform="matrix(1, 0, 0, 1, 0, 0)" fill="#004080" fill-opacity="0.50" stroke="#004080" stroke-width="1" stroke-opacity="0.10" fill-rule="winding" ub:uuid="cfb57961-9864-44de-bf65-2d1c300c71f2" ub:parent="2d379a3f-f581-40db-aa34-1f426757e1cd"/>
        <polygon points="580.404,-803.694 580.338,-804.444 580.228,-806.853 580.212,-809.309 580.288,-811.815 580.457,-814.425 580.805,-817.863 581.307,-821.452 581.923,-824.98 581.922,-824.982 583.159,-828.381 585.433,-831.103 588.507,-832.91 591.611,-833.469 590.767,-831.751 588.84,-827.434 587.266,-824.183 586.17,-821.81 585.329,-819.695 584.289,-816.496 582.723,-811.084 581.559,-807.825 580.803,-805.321 580.404,-803.694 " transform="matrix(1, 0, 0, 1, 0, 0)" fill="#004080" fill-opacity="0.50" stroke="#004080" stroke-width="1" stroke-opacity="0.10" fill-rule="winding" ub:uuid="acc37d6b-8025-4dc5-b51c-7cc67291c3f0" ub:parent="2d379a3f-f581-40db-aa34-1f426757e1cd"/>
        <polygon points="581.967,-825.216 582.759,-829.193 583.454,-832.664 583.9,-834.58 584.508,-836.757 585.495,-839.869 586.632,-843.127 587.78,-846.114 588.699,-848.29 589.63,-850.307 590.602,-852.218 591.507,-853.822 593.055,-856.537 593.745,-857.86 594.436,-858.997 595.043,-859.847 595.71,-860.662 596.433,-861.435 597.205,-862.157 597.752,-862.612 597.752,-862.613 600.774,-864.335 604.323,-864.958 608.362,-864.143 611.66,-861.919 613.884,-858.621 614.699,-854.582 614.431,-852.229 613.668,-850.066 611.94,-847.877 611.996,-847.983 611.913,-847.842 611.663,-847.525 610.303,-847.748 608.85,-847.828 607.339,-847.74 605.817,-847.467 604.337,-847.012 602.949,-846.396 601.711,-845.668 600.7,-844.958 599.749,-844.216 599.749,-844.216 599.606,-844.04 599.352,-843.888 599.352,-843.888 598.617,-843.246 597.526,-842.207 596.551,-841.17 595.669,-840.112 594.851,-839.021 594.029,-837.812 593.053,-836.219 592.229,-834.728 591.611,-833.469 588.507,-832.91 585.433,-831.103 583.159,-828.381 581.951,-825.06 581.966,-825.218 581.967,-825.216 611.718,-847.511 611.913,-847.842 611.94,-847.877 611.745,-847.504 611.718,-847.511 581.967,-825.216 " transform="matrix(1, 0, 0, 1, 0, 0)" fill="#004080" fill-opacity="0.50" stroke="#004080" stroke-width="1" stroke-opacity="0.10" fill-rule="winding" ub:uuid="f3f25cf7-1af0-4f62-8b4a-2264b58339f1" ub:parent="2d379a3f-f581-40db-aa34-1f426757e1cd"/>
        <polygon points="598.292,-863.025 598.87,-863.431 599.747,-863.977 600.666,-864.471 601.686,-864.934 602.833,-865.35 604.089,-865.683 605.451,-865.906 606.904,-865.987 608.415,-865.899 609.937,-865.626 611.417,-865.171 612.805,-864.555 613.982,-863.867 614.882,-863.227 615.84,-862.429 616.917,-861.376 618.01,-860.103 618.958,-858.81 619.65,-857.735 619.651,-857.736 620.852,-855.11 621.28,-852.152 620.464,-848.113 618.241,-844.815 617.863,-844.56 617.734,-844.666 616.884,-845.273 616.007,-845.818 615.088,-846.312 614.068,-846.775 612.921,-847.191 611.745,-847.504 611.94,-847.877 613.668,-850.066 614.431,-852.229 614.699,-854.582 613.884,-858.621 611.66,-861.919 608.362,-864.143 604.323,-864.958 600.774,-864.335 597.979,-862.742 598.291,-863.026 598.292,-863.025 611.718,-847.511 611.665,-847.525 611.663,-847.525 611.913,-847.842 611.718,-847.511 598.292,-863.025 611.94,-847.877 611.996,-847.983 611.913,-847.842 611.94,-847.877 598.292,-863.025 " transform="matrix(1, 0, 0, 1, 0, 0)" fill="#004080" fill-opacity="0.50" stroke="#004080" stroke-width="1" stroke-opacity="0.10" fill-rule="winding" ub:uuid="3d037da8-17c2-430d-9987-82d150ab7c1f" ub:parent="2d379a3f-f581-40db-aa34-1f426757e1cd"/>
        <polygon points="619.923,-857.281 620.541,-856.189 621.221,-854.855 621.842,-853.49 622.434,-852.016 623.067,-850.202 624.132,-847.009 625.241,-843.591 626.196,-840.206 626.802,-837.798 627.34,-835.26 627.785,-832.634 628.132,-829.97 628.384,-827.342 628.549,-824.785 628.624,-822.279 628.609,-819.813 628.501,-817.349 628.299,-814.862 627.952,-811.931 627.953,-811.93 626.834,-808.325 624.917,-805.87 625.21,-807.82 625.212,-807.824 625.211,-807.825 625.22,-807.883 625.229,-807.939 625.229,-807.938 625.23,-807.947 625.824,-811.616 626.279,-814.647 626.553,-816.823 626.67,-818.648 626.669,-820.378 626.543,-822.134 626.329,-823.577 626.27,-823.709 626.014,-827.305 625.975,-828.386 625.776,-830.158 625.414,-831.962 624.95,-833.522 624.373,-834.975 623.745,-836.268 622.676,-838.405 622.02,-839.682 621.318,-840.839 620.912,-841.417 620.912,-841.417 620.628,-841.73 620.499,-841.956 620.499,-841.956 620.044,-842.504 619.321,-843.276 618.549,-843.999 617.863,-844.56 618.241,-844.815 620.464,-848.113 621.28,-852.152 620.852,-855.11 619.756,-857.506 619.924,-857.283 619.923,-857.281 " transform="matrix(1, 0, 0, 1, 0, 0)" fill="#004080" fill-opacity="0.50" stroke="#004080" stroke-width="1" stroke-opacity="0.10" fill-rule="winding" ub:uuid="c5682024-1cbe-4bf3-ad6d-129f0409593a" ub:parent="2d379a3f-f581-40db-aa34-1f426757e1cd"/>
        <polygon points="627.944,-811.867 627.421,-807.686 626.797,-802.921 626.235,-799.336 625.916,-797.733 625.443,-795.781 624.877,-793.836 624.355,-792.28 623.614,-790.388 622.95,-788.921 622.27,-787.586 621.51,-786.251 620.476,-784.611 619.341,-782.967 618.115,-781.332 616.811,-779.738 615.737,-778.553 614.678,-777.495 613.56,-776.489 613.128,-776.141 613.489,-776.749 614.509,-778.661 615.601,-780.844 616.081,-781.804 616.129,-781.865 616.715,-782.714 617.952,-784.446 618.844,-785.669 619.8,-787.211 620.602,-788.815 621.254,-790.48 621.734,-792.115 622.451,-795.095 623.172,-797.38 623.731,-799.373 624.116,-801.042 624.517,-803.218 624.917,-805.87 626.834,-808.325 627.948,-811.915 627.945,-811.866 627.944,-811.867 " transform="matrix(1, 0, 0, 1, 0, 0)" fill="#004080" fill-opacity="0.50" stroke="#004080" stroke-width="1" stroke-opacity="0.10" fill-rule="winding" ub:uuid="81b0cef5-c3a8-4f97-8133-de7676651ce4" ub:parent="2d379a3f-f581-40db-aa34-1f426757e1cd"/>
        <polygon points="579.745,-777.699 579.712,-777.743 578.895,-778.968 578.162,-780.207 577.497,-781.481 576.891,-782.805 576.303,-784.305 575.787,-785.986 575.402,-787.714 575.154,-789.452 575.033,-791.191 575.033,-792.917 575.139,-794.63 575.306,-796.079 575.305,-796.08 576.422,-799.688 578.69,-802.596 580.392,-803.644 580.352,-803.482 580.06,-801.996 580.059,-801.998 580.025,-801.647 579.974,-801.494 579.975,-801.493 579.61,-798.952 579.076,-794.891 578.74,-791.949 578.565,-789.691 578.483,-787.562 578.498,-785.582 578.581,-784.023 578.765,-782.197 578.99,-780.721 579.309,-779.192 579.745,-777.699 " transform="matrix(1, 0, 0, 1, 0, 0)" fill="#004080" fill-opacity="0.50" stroke="#004080" stroke-width="1" stroke-opacity="0.10" fill-rule="winding" ub:uuid="e1fcc592-9c24-441c-afa1-278e1bd42dea" ub:parent="2d379a3f-f581-40db-aa34-1f426757e1cd"/>
        <polygon points="575.376,-796.572 575.644,-798.146 576.182,-800.58 576.845,-803.051 577.585,-805.466 578.411,-807.871 579.323,-810.263 580.342,-812.694 580.345,-812.7 580.288,-811.815 580.212,-809.309 580.228,-806.853 580.338,-804.444 580.404,-803.694 580.392,-803.644 578.69,-802.596 576.422,-799.688 575.345,-796.208 575.375,-796.574 575.376,-796.572 " transform="matrix(1, 0, 0, 1, 0, 0)" fill="#004080" fill-opacity="0.50" stroke="#004080" stroke-width="1" stroke-opacity="0.10" fill-rule="winding" ub:uuid="a5758b48-c023-403a-a69f-a6a73507c176" ub:parent="2d379a3f-f581-40db-aa34-1f426757e1cd"/>
        <polygon points="628.265,-828.582 628.764,-827.44 629.392,-825.748 629.84,-824.345 630.313,-822.588 630.692,-820.809 631.087,-818.594 631.553,-815.564 631.756,-813.781 631.859,-811.981 631.859,-810.178 631.747,-808.275 631.546,-806.685 631.195,-800.75 631.028,-798.562 630.735,-796.612 630.423,-795.183 630.425,-795.181 629.104,-791.951 626.831,-789.376 623.823,-787.674 622.154,-787.383 622.27,-787.586 622.95,-788.921 623.614,-790.388 624.355,-792.28 624.877,-793.836 625.443,-795.781 625.916,-797.733 626.235,-799.336 626.797,-802.921 627.421,-807.686 627.944,-811.867 627.945,-811.866 627.948,-811.915 627.953,-811.93 627.952,-811.931 628.299,-814.862 628.501,-817.349 628.609,-819.813 628.624,-822.279 628.549,-824.785 628.384,-827.342 628.265,-828.582 " transform="matrix(1, 0, 0, 1, 0, 0)" fill="#004080" fill-opacity="0.50" stroke="#004080" stroke-width="1" stroke-opacity="0.10" fill-rule="winding" ub:uuid="eac635ba-70b6-4b00-968e-2d5615558012" ub:parent="2d379a3f-f581-40db-aa34-1f426757e1cd"/>
        <polygon points="630.246,-794.498 629.864,-793.213 629.135,-791.023 628.058,-787.794 627.097,-785.15 626.525,-783.769 625.832,-782.281 625.141,-780.994 624.397,-779.798 623.573,-778.645 622.673,-777.545 621.78,-776.586 620.662,-775.467 619.07,-773.875 618.333,-773.188 617.518,-772.521 616.668,-771.913 615.791,-771.368 614.895,-770.886 614.263,-770.588 614.266,-770.586 612.17,-769.875 609.9,-769.626 607.877,-770.034 608.259,-770.336 609.301,-771.256 610.309,-772.265 611.014,-773.068 611.014,-773.068 611.169,-773.327 611.541,-773.727 611.541,-773.728 612.1,-774.498 612.736,-775.481 613.128,-776.141 613.56,-776.489 614.678,-777.495 615.737,-778.553 616.811,-779.738 618.115,-781.332 619.341,-782.967 620.476,-784.611 621.51,-786.251 622.154,-787.383 623.823,-787.674 626.831,-789.376 629.104,-791.951 630.304,-794.886 630.248,-794.495 630.246,-794.498 " transform="matrix(1, 0, 0, 1, 0, 0)" fill="#004080" fill-opacity="0.50" stroke="#004080" stroke-width="1" stroke-opacity="0.10" fill-rule="winding" ub:uuid="e7166244-ea18-49ae-ba8c-32236be09159" ub:parent="2d379a3f-f581-40db-aa34-1f426757e1cd"/>
        <polygon points="613.715,-770.353 612.81,-770.011 611.262,-769.55 609.524,-769.195 607.84,-768.993 606.397,-768.935 607.151,-769.462 607.877,-770.034 609.9,-769.626 612.17,-769.875 613.925,-770.471 613.719,-770.351 613.715,-770.353 " transform="matrix(1, 0, 0, 1, 0, 0)" fill="#004080" fill-opacity="0.50" stroke="#004080" stroke-width="1" stroke-opacity="0.10" fill-rule="winding" ub:uuid="67fad608-dcec-4b0c-9c08-fc1f10d7a615" ub:parent="2d379a3f-f581-40db-aa34-1f426757e1cd"/>
        <polygon points="623.002,-777.947 622.614,-777.297 621.652,-775.976 620.56,-774.727 619.01,-773.25 615.877,-770.686 614.651,-769.518 612.935,-768.156 611.574,-767.266 611.576,-767.265 608.936,-766.047 605.957,-765.614 601.918,-766.429 601.767,-766.531 603.142,-767.081 604.577,-767.797 605.923,-768.604 606.397,-768.935 607.84,-768.993 609.524,-769.195 611.262,-769.55 612.81,-770.011 613.715,-770.353 613.719,-770.351 613.925,-770.471 614.266,-770.586 614.263,-770.588 614.895,-770.886 615.791,-771.368 616.668,-771.913 617.518,-772.521 618.333,-773.188 619.07,-773.875 620.662,-775.467 621.78,-776.586 622.673,-777.545 623.002,-777.947 " transform="matrix(1, 0, 0, 1, 0, 0)" fill="#004080" fill-opacity="0.50" stroke="#004080" stroke-width="1" stroke-opacity="0.10" fill-rule="winding" ub:uuid="e719a0ed-5a9d-421b-8a06-22850ca479ea" ub:parent="2d379a3f-f581-40db-aa34-1f426757e1cd"/>
        <polygon points="610.645,-766.733 608.871,-765.846 606.635,-764.951 604.42,-764.283 602.281,-763.847 599.855,-763.581 597.399,-763.526 595.358,-763.637 593.535,-763.89 592.154,-764.199 590.948,-764.571 589.451,-765.222 587.782,-766.271 586.307,-767.58 585.113,-769.046 584.669,-769.797 584.728,-769.737 585.526,-769.035 586.1,-768.587 586.1,-768.586 586.361,-768.445 586.692,-768.163 586.693,-768.164 587.317,-767.759 588.303,-767.205 589.341,-766.721 590.419,-766.315 591.715,-765.947 593.194,-765.659 594.907,-765.488 596.635,-765.488 598.348,-765.659 600.017,-765.993 601.62,-766.473 601.767,-766.531 601.918,-766.429 605.957,-765.614 608.936,-766.047 611.102,-767.047 610.647,-766.732 610.645,-766.733 " transform="matrix(1, 0, 0, 1, 0, 0)" fill="#004080" fill-opacity="0.50" stroke="#004080" stroke-width="1" stroke-opacity="0.10" fill-rule="winding" ub:uuid="67815358-9ea9-4918-80f4-80bd9e1e1b24" ub:parent="2d379a3f-f581-40db-aa34-1f426757e1cd"/>
        <polygon points="624.871,-780.56 624.923,-780.035 624.955,-779.086 624.923,-778.136 624.829,-777.195 624.675,-776.272 624.466,-775.374 624.206,-774.507 623.901,-773.676 623.435,-772.629 622.776,-771.412 621.9,-770.096 620.662,-768.59 618.819,-766.763 616.865,-765.157 615.613,-764.285 615.614,-764.284 612.881,-762.958 609.771,-762.484 605.732,-763.299 604.306,-764.26 604.42,-764.283 606.635,-764.951 608.871,-765.846 610.645,-766.733 610.647,-766.732 611.102,-767.047 611.576,-767.265 611.574,-767.266 612.935,-768.156 614.651,-769.518 615.877,-770.686 619.01,-773.25 620.56,-774.727 621.652,-775.976 622.614,-777.297 623.002,-777.947 623.573,-778.645 624.397,-779.798 624.871,-780.56 " transform="matrix(1, 0, 0, 1, 0, 0)" fill="#004080" fill-opacity="0.50" stroke="#004080" stroke-width="1" stroke-opacity="0.10" fill-rule="winding" ub:uuid="bffecab3-bb0a-43ce-9c07-1e52dbd70897" ub:parent="2d379a3f-f581-40db-aa34-1f426757e1cd"/>
        <polygon points="614.81,-763.789 612.986,-762.799 610.018,-761.508 607.992,-760.818 606.435,-760.423 605.142,-760.201 603.773,-760.078 602.401,-760.077 600.547,-760.236 598.258,-760.644 596.335,-761.16 594.921,-761.682 593.941,-762.131 593.183,-762.536 592.419,-763.004 591.655,-763.538 590.9,-764.146 590.028,-764.969 590.025,-764.972 590.948,-764.571 592.154,-764.199 593.535,-763.89 595.358,-763.637 597.399,-763.526 599.855,-763.581 602.281,-763.847 604.306,-764.26 605.732,-763.299 609.771,-762.484 612.881,-762.958 615.226,-764.096 614.812,-763.788 614.81,-763.789 " transform="matrix(1, 0, 0, 1, 0, 0)" fill="#004080" fill-opacity="0.50" stroke="#004080" stroke-width="1" stroke-opacity="0.10" fill-rule="winding" ub:uuid="804c4b4e-2b3c-48f5-a8f8-5ea9e17be65a" ub:parent="2d379a3f-f581-40db-aa34-1f426757e1cd"/>
    </g>
</svg>
