<?xml version="1.0" encoding="UTF-8"?>
<svg xmlns="http://www.w3.org/2000/svg" xmlns:xlink="http://www.w3.org/1999/xlink" xmlns:ub="http://uniboard.mnemis.com/document" xmlns:xhtml="http://www.w3.org/1999/xhtml" version="1.1" ub:version="4.8.0" ub:uuid="81e4ec20-3b4c-4598-b94f-ceaa7573856a" viewBox="-721 -919 1443 1838" ub:nominal-size="1343x1738" ub:dark-background="false" ub:crossed-background="true" ub:ruled-background="false" ub:grid-size="55" ub:intermediate-lines="0" pageDpi="158">
    <rect fill="white" x="-721" y="-919" width="1443" height="1838"/>
    <image xlink:href="images/{d1c88848-f78e-4f9f-abdb-526f7cbc2784}.png" x="0" y="0" width="896" height="37" transform="matrix(1, 0, 0, 1, -322.12, -810.921)" ub:z-value="-999999.000000" ub:background="false" ub:uuid="d1c88848-f78e-4f9f-abdb-526f7cbc2784" ub:source="/Users/khale/AppData/Local/OpenBoard/document/OpenBoard Document 2023-05-07 16-55-23.504/images/{d1c88848-f78e-4f9f-abdb-526f7cbc2784}.png" ub:layer="-1000"/>
    <g ub:z-value="-999998" ub:fill-on-dark-background="#ffffff" ub:fill-on-light-background="#000000" ub:uuid="74969826-93a3-44eb-b397-7209b825e371" ub:layer="-1000">
        <polygon points="634.341,-799.45 637.412,-807.224 637.652,-807.982 637.987,-809.223 638.257,-810.482 638.691,-812.504 639.19,-814.654 639.294,-815.301 639.374,-816.016 639.422,-816.76 639.438,-817.998 639.438,-820.377 639.434,-821.753 639.405,-822.181 639.394,-822.239 639.397,-822.234 639.467,-822.085 639.543,-821.968 639.543,-821.968 639.226,-822.817 639.606,-823.734 640.523,-824.114 641.504,-823.667 641.504,-823.667 641.692,-823.42 641.858,-823.055 641.938,-822.747 641.988,-822.416 642.028,-821.806 642.032,-820.38 642.032,-817.986 642.014,-816.674 641.958,-815.792 641.865,-814.951 641.727,-814.11 641.223,-811.937 640.793,-809.938 640.509,-808.612 640.143,-807.259 639.83,-806.287 636.753,-798.497 636.754,-798.497 635.547,-797.676 634.63,-798.056 634.25,-798.973 634.273,-799.22 634.34,-799.45 634.341,-799.45 " transform="matrix(1, 0, 0, 1, 0, 0)" fill="#000000" fill-opacity="1.00" fill-rule="winding" ub:uuid="172a6103-951e-4080-bdda-27e913436378" ub:parent="74969826-93a3-44eb-b397-7209b825e371"/>
        <polygon points="640.113,-821.587 640.048,-821.608 640.048,-821.608 639.161,-822.839 639.541,-823.756 640.459,-824.136 640.869,-824.07 640.869,-824.069 640.934,-824.048 640.934,-824.048 641.82,-822.817 641.441,-821.9 640.523,-821.52 640.113,-821.587 640.113,-821.587 " transform="matrix(1, 0, 0, 1, 0, 0)" fill="#000000" fill-opacity="1.00" fill-rule="winding" ub:uuid="e84e3fcd-296a-4905-b345-6574f039e712" ub:parent="74969826-93a3-44eb-b397-7209b825e371"/>
        <polygon points="640.825,-821.595 641.015,-821.683 641.231,-821.847 641.281,-821.905 641.251,-821.855 641.194,-821.742 640.983,-821.232 640.575,-820.022 639.928,-817.776 639.383,-815.664 639.07,-814.283 638.833,-813.014 638.723,-812.177 638.61,-810.787 638.578,-809.85 638.573,-807.274 638.573,-803.648 638.582,-790.857 638.6,-790.677 638.632,-790.457 638.673,-790.261 638.723,-790.088 638.78,-789.938 638.842,-789.809 638.909,-789.697 638.981,-789.6 639.103,-789.467 639.103,-789.467 639.438,-788.597 639.058,-787.68 638.141,-787.3 637.179,-787.727 637.179,-787.727 636.973,-787.957 636.751,-788.258 636.558,-788.579 636.396,-788.916 636.262,-789.268 636.157,-789.632 636.077,-790.006 636.022,-790.391 635.988,-790.851 635.979,-803.646 635.979,-807.275 635.984,-809.878 636.021,-810.947 636.142,-812.437 636.273,-813.434 636.53,-814.81 636.864,-816.283 637.426,-818.46 638.094,-820.779 638.542,-822.111 638.815,-822.777 638.974,-823.097 639.143,-823.375 639.374,-823.658 639.755,-823.951 640.093,-824.083 640.092,-824.083 640.459,-824.136 641.376,-823.756 641.756,-822.839 640.825,-821.594 640.825,-821.595 " transform="matrix(1, 0, 0, 1, 0, 0)" fill="#000000" fill-opacity="1.00" fill-rule="winding" ub:uuid="b11ee79a-4d6b-4125-834e-69115a26881d" ub:parent="74969826-93a3-44eb-b397-7209b825e371"/>
    </g>
    <g ub:z-value="-999997" ub:fill-on-dark-background="#ffffff" ub:fill-on-light-background="#000000" ub:uuid="2fdc26a9-b8bf-4b43-92f3-91bdfe1e8651" ub:layer="-1000">
        <polygon points="646.496,-835.567 645.986,-836.574 645.797,-836.851 645.467,-837.27 645.029,-837.772 644.138,-838.7 643.874,-838.942 643.602,-839.148 643.324,-839.317 643.038,-839.454 642.74,-839.561 642.427,-839.637 642.094,-839.684 641.738,-839.7 641.357,-839.684 640.965,-839.634 640.047,-839.445 639.223,-839.201 638.474,-838.902 637.768,-838.532 637.509,-838.369 636.865,-837.895 635.807,-837.024 634.665,-835.995 633.441,-834.808 632.643,-833.962 631.877,-833.049 631.14,-832.067 630.433,-831.014 629.757,-829.893 628.743,-828.043 627.377,-825.311 626.357,-823.092 625.721,-821.571 625.153,-820.017 624.652,-818.429 624.22,-816.818 623.686,-814.313 623.305,-812.088 623.139,-810.845 623.041,-809.782 623.009,-808.903 623.009,-806.842 623.009,-802.443 623.058,-800.818 623.206,-799.28 623.45,-797.815 623.789,-796.424 624.22,-795.114 625.04,-793.163 625.996,-791.31 627.525,-788.916 629.255,-786.722 630.603,-785.288 632.557,-783.562 634.537,-782.11 636.526,-780.918 641.786,-778.064 641.786,-778.064 642.465,-776.924 642.085,-776.007 641.168,-775.627 640.843,-775.668 640.549,-775.784 640.549,-775.784 635.26,-778.654 633.098,-779.952 630.928,-781.544 628.809,-783.415 627.278,-785.043 625.41,-787.414 623.757,-790 622.69,-792.064 621.798,-794.186 621.295,-795.712 620.908,-797.295 620.633,-798.944 620.469,-800.657 620.415,-802.421 620.415,-806.842 620.415,-808.932 620.452,-809.955 620.562,-811.14 620.742,-812.492 621.139,-814.806 621.695,-817.411 622.162,-819.155 622.698,-820.853 623.306,-822.516 623.985,-824.142 625.04,-826.437 626.441,-829.239 627.502,-831.176 628.244,-832.407 629.025,-833.568 629.844,-834.661 630.704,-835.685 631.601,-836.637 632.892,-837.889 634.111,-838.987 635.258,-839.932 636.023,-840.495 636.508,-840.8 637.393,-841.26 638.374,-841.652 639.418,-841.962 640.505,-842.187 641.134,-842.268 641.738,-842.294 642.333,-842.267 642.917,-842.185 643.486,-842.045 644.036,-841.849 644.563,-841.597 645.063,-841.291 645.534,-840.935 645.979,-840.528 646.93,-839.537 647.46,-838.931 647.891,-838.382 648.256,-837.829 648.809,-836.743 648.809,-836.743 648.913,-836.462 648.95,-836.155 648.57,-835.238 647.653,-834.858 646.496,-835.567 646.496,-835.567 " transform="matrix(1, 0, 0, 1, 0, 0)" fill="#000000" fill-opacity="1.00" fill-rule="winding" ub:uuid="57b9918b-474d-482b-ad1b-948775430879" ub:parent="2fdc26a9-b8bf-4b43-92f3-91bdfe1e8651"/>
    </g>
    <g ub:z-value="-999996" ub:fill-on-dark-background="#66c0ff" ub:fill-on-light-background="#004080" ub:uuid="f2a80283-16f0-4704-af41-fde06dec4c1a" ub:layer="-1000">
        <polygon points="645.371,-773.1 639.848,-772.47 637.709,-772.384 635.945,-772.449 634.349,-772.641 632.838,-772.96 631.428,-773.391 629.906,-773.999 628.471,-774.715 627.125,-775.522 625.942,-776.346 624.948,-777.144 624.094,-777.94 623.307,-778.782 622.59,-779.663 621.942,-780.572 621.362,-781.501 620.723,-782.696 620.004,-784.334 619.499,-785.797 619.497,-785.793 618.954,-789.116 619.769,-793.155 621.993,-796.453 625.291,-798.677 629.33,-799.492 632.599,-798.967 635.441,-797.503 637.685,-795.271 639.163,-792.439 639.161,-792.435 639.348,-791.849 639.459,-791.619 639.287,-791.958 639.209,-792.083 639.097,-792.24 638.95,-792.42 638.768,-792.614 638.555,-792.813 638.235,-793.066 638.435,-792.922 638.472,-792.899 638.422,-792.923 638.283,-792.978 638.256,-792.993 637.471,-793.157 637.536,-793.141 637.709,-793.137 637.783,-793.12 643.017,-793.718 643.013,-793.719 644.194,-793.785 648.233,-792.97 651.531,-790.746 653.755,-787.448 654.57,-783.409 653.861,-779.631 651.912,-776.474 648.994,-774.207 645.375,-773.099 645.371,-773.1 " transform="matrix(1, 0, 0, 1, 0, 0)" fill="#004080" fill-opacity="0.50" stroke="#004080" stroke-width="1" stroke-opacity="0.10" fill-rule="winding" ub:uuid="2884c532-8598-4a48-85fa-310f665199f5" ub:parent="f2a80283-16f0-4704-af41-fde06dec4c1a"/>
        <polygon points="619.304,-786.442 618.948,-787.796 618.611,-789.485 618.383,-791.196 618.267,-792.955 618.253,-794.801 618.253,-797.436 618.265,-799.754 618.374,-801.547 618.574,-803.251 618.878,-805.064 619.407,-807.46 620.156,-810.381 621.038,-813.624 622.595,-819.354 623.741,-823.558 624.385,-825.511 625.238,-827.758 626.281,-830.222 627.511,-833.196 627.509,-833.199 629.058,-835.787 631.268,-837.813 633.996,-839.133 637.099,-839.605 641.138,-838.79 644.436,-836.566 646.66,-833.268 647.475,-829.229 646.689,-825.259 646.687,-825.262 645.427,-822.217 644.481,-819.986 643.908,-818.472 643.687,-817.831 642.62,-813.907 641.064,-808.18 640.216,-805.067 639.581,-802.593 639.228,-800.994 639.118,-800.316 639.041,-799.668 639.011,-799.248 639.006,-797.398 639.006,-794.845 639.01,-793.578 639.032,-793.263 638.75,-793.23 637.685,-795.271 635.441,-797.503 632.599,-798.967 629.33,-799.492 625.291,-798.677 621.993,-796.453 619.769,-793.155 618.954,-789.116 619.442,-786.129 619.303,-786.437 619.304,-786.442 639.289,-792.033 639.336,-791.861 639.287,-791.958 639.209,-792.083 639.097,-792.24 638.95,-792.42 638.768,-792.614 638.555,-792.813 638.409,-792.928 638.422,-792.923 638.472,-792.899 638.435,-792.922 638.235,-793.066 638.409,-792.928 638.283,-792.978 638.256,-792.993 637.551,-793.141 637.709,-793.137 637.783,-793.12 638.75,-793.23 639.163,-792.439 639.161,-792.435 639.289,-792.033 619.304,-786.442 637.551,-793.141 637.471,-793.157 637.536,-793.141 637.551,-793.141 619.304,-786.442 " transform="matrix(1, 0, 0, 1, 0, 0)" fill="#004080" fill-opacity="0.50" stroke="#004080" stroke-width="1" stroke-opacity="0.10" fill-rule="winding" ub:uuid="4073a17f-46a5-430c-b2be-31be822151a3" ub:parent="f2a80283-16f0-4704-af41-fde06dec4c1a"/>
        <polygon points="627.576,-833.349 628.411,-835.272 629.179,-836.763 629.911,-838.002 630.732,-839.232 631.74,-840.599 633.108,-842.55 633.476,-843.064 634.042,-843.774 634.666,-844.467 635.349,-845.136 636.091,-845.771 636.887,-846.364 637.732,-846.906 638.62,-847.39 639.539,-847.81 640.581,-848.194 641.914,-848.547 643.524,-848.771 644.501,-848.797 648.54,-847.981 651.838,-845.758 654.062,-842.46 654.877,-838.421 654.062,-834.382 651.838,-831.083 649.135,-829.261 650.092,-830.625 650.078,-830.612 649.884,-830.369 649.649,-830.108 649.372,-829.838 649.055,-829.566 648.699,-829.301 648.312,-829.053 647.901,-828.829 647.516,-828.653 647.355,-828.621 647.475,-829.229 646.66,-833.268 644.436,-836.566 641.138,-838.79 637.099,-839.605 633.996,-839.133 631.268,-837.813 629.058,-835.787 627.56,-833.283 627.574,-833.351 627.576,-833.349 649.135,-829.261 648.54,-828.86 647.516,-828.653 647.474,-828.634 647.349,-828.588 646.691,-825.267 647.257,-826.584 647.32,-826.684 647.486,-826.967 647.634,-827.19 648.615,-828.521 649.135,-829.261 627.576,-833.349 646.688,-825.261 646.659,-825.195 646.687,-825.262 646.688,-825.261 627.576,-833.349 646.624,-825.108 646.625,-825.107 646.62,-825.1 646.624,-825.108 627.576,-833.349 " transform="matrix(1, 0, 0, 1, 0, 0)" fill="#004080" fill-opacity="0.50" stroke="#004080" stroke-width="1" stroke-opacity="0.10" fill-rule="winding" ub:uuid="6259ae12-b2c8-4b6c-8a69-97cc0963aeb7" ub:parent="f2a80283-16f0-4704-af41-fde06dec4c1a"/>
        <polygon points="646.05,-848.681 647.063,-848.497 648.804,-847.951 650.391,-847.176 651.761,-846.246 652.897,-845.239 653.818,-844.214 654.649,-843.068 655.34,-841.921 655.983,-840.668 656.582,-839.316 657.263,-837.523 657.89,-835.619 658.42,-833.805 658.869,-832.025 659.228,-830.311 659.622,-828.106 660.087,-825.081 660.289,-823.336 660.38,-821.884 660.38,-821.886 660.394,-821.576 660.398,-821.265 659.583,-817.226 657.359,-813.928 654.061,-811.704 650.022,-810.889 646.119,-811.648 642.892,-813.726 642.658,-814.048 643.687,-817.831 643.908,-818.472 644.481,-819.986 645.427,-822.217 646.62,-825.1 646.625,-825.107 646.624,-825.108 646.659,-825.195 646.688,-825.261 646.689,-825.259 646.691,-825.267 647.257,-826.584 647.32,-826.684 647.486,-826.967 647.634,-827.19 648.615,-828.521 649.135,-829.261 651.838,-831.083 654.062,-834.382 654.877,-838.421 654.062,-842.46 651.838,-845.758 648.54,-847.981 644.501,-848.797 646.051,-848.682 646.05,-848.681 647.349,-828.588 647.355,-828.621 647.516,-828.653 647.474,-828.634 647.349,-828.588 646.05,-848.681 649.135,-829.261 650.092,-830.625 650.078,-830.612 649.884,-830.369 649.649,-830.108 649.372,-829.838 649.055,-829.566 648.699,-829.301 648.312,-829.053 647.901,-828.829 647.516,-828.653 648.54,-828.86 649.135,-829.261 646.05,-848.681 " transform="matrix(1, 0, 0, 1, 0, 0)" fill="#004080" fill-opacity="0.50" stroke="#004080" stroke-width="1" stroke-opacity="0.10" fill-rule="winding" ub:uuid="d4be2ccd-ae42-4e41-8c32-a17e0b9bb55a" ub:parent="f2a80283-16f0-4704-af41-fde06dec4c1a"/>
        <polygon points="639.065,-793.267 639.032,-793.263 639.01,-793.568 639.065,-793.267 " transform="matrix(1, 0, 0, 1, 0, 0)" fill="#004080" fill-opacity="0.50" stroke="#004080" stroke-width="1" stroke-opacity="0.10" fill-rule="winding" ub:uuid="17cd026d-0774-4907-ab25-db3e133c459f" ub:parent="f2a80283-16f0-4704-af41-fde06dec4c1a"/>
        <polygon points="640.133,-804.744 640.482,-804.642 640.982,-804.442 641.343,-804.261 641.578,-804.12 641.938,-803.853 641.682,-804.056 641.384,-804.358 641.093,-804.688 640.674,-805.252 640.674,-805.252 640.342,-805.529 640.414,-805.792 640.908,-805.856 644.947,-805.041 648.245,-802.817 650.469,-799.519 651.284,-795.48 650.902,-792.679 650.4,-791.509 648.233,-792.97 644.194,-793.785 643.013,-793.719 643.017,-793.718 639.065,-793.267 639.01,-793.568 639.01,-793.578 639.006,-794.845 639.006,-797.398 639.011,-799.248 639.041,-799.668 639.118,-800.316 639.228,-800.994 639.581,-802.593 640.133,-804.744 639.289,-792.033 639.348,-791.849 639.459,-791.619 639.336,-791.861 639.289,-792.033 640.133,-804.744 " transform="matrix(1, 0, 0, 1, 0, 0)" fill="#004080" fill-opacity="0.50" stroke="#004080" stroke-width="1" stroke-opacity="0.10" fill-rule="winding" ub:uuid="af966453-f557-43bd-860e-d6665fecb727" ub:parent="f2a80283-16f0-4704-af41-fde06dec4c1a"/>
        <polygon points="618.89,-805.117 618.394,-806.939 617.641,-810.1 617.237,-812.116 616.926,-814.118 616.703,-816.127 616.565,-818.245 616.529,-821.017 616.605,-823.834 616.834,-827.492 617.192,-831.152 617.572,-834.201 617.89,-836.192 618.121,-837.357 618.12,-837.359 619.406,-840.662 621.68,-843.3 624.717,-845.047 628.292,-845.68 632.331,-844.864 634.009,-843.733 633.476,-843.064 633.108,-842.55 631.74,-840.599 630.732,-839.232 629.911,-838.002 629.179,-836.763 628.411,-835.272 627.576,-833.349 627.574,-833.351 627.56,-833.283 627.509,-833.199 627.511,-833.196 626.281,-830.222 625.238,-827.758 624.385,-825.511 623.741,-823.558 622.595,-819.354 621.038,-813.624 620.156,-810.381 619.407,-807.46 618.89,-805.117 640.469,-805.994 640.54,-805.808 640.414,-805.792 640.469,-805.994 618.89,-805.117 640.889,-804.962 641.152,-804.567 641.153,-804.568 641.279,-804.293 640.982,-804.442 640.482,-804.642 640.133,-804.744 640.216,-805.067 640.342,-805.529 640.674,-805.252 640.674,-805.252 640.889,-804.962 618.89,-805.117 " transform="matrix(1, 0, 0, 1, 0, 0)" fill="#004080" fill-opacity="0.50" stroke="#004080" stroke-width="1" stroke-opacity="0.10" fill-rule="winding" ub:uuid="e92c6722-a657-42c1-a7ea-0ca3983e1dc5" ub:parent="f2a80283-16f0-4704-af41-fde06dec4c1a"/>
        <polygon points="618.252,-837.923 618.717,-839.688 619.396,-841.843 620.198,-844.088 621.431,-847.338 622.464,-849.977 623.091,-851.406 623.84,-852.838 624.718,-854.241 625.739,-855.601 626.753,-856.731 627.699,-857.629 628.56,-858.326 629.496,-858.973 630.502,-859.558 631.568,-860.068 632.681,-860.491 633.825,-860.82 634.984,-861.052 635.73,-861.148 635.726,-861.149 636.935,-861.218 640.974,-860.403 644.272,-858.179 646.496,-854.881 647.311,-850.842 646.878,-848.53 646.05,-848.681 646.051,-848.682 644.501,-848.797 643.524,-848.771 641.914,-848.547 640.581,-848.194 639.539,-847.81 638.62,-847.39 637.732,-846.906 636.887,-846.364 636.091,-845.771 635.349,-845.136 634.666,-844.467 634.042,-843.774 634.009,-843.733 632.331,-844.864 628.292,-845.68 624.717,-845.047 621.68,-843.3 619.406,-840.662 618.206,-837.582 618.25,-837.925 618.252,-837.923 " transform="matrix(1, 0, 0, 1, 0, 0)" fill="#004080" fill-opacity="0.50" stroke="#004080" stroke-width="1" stroke-opacity="0.10" fill-rule="winding" ub:uuid="15608760-2898-4994-87a4-26059d661a41" ub:parent="f2a80283-16f0-4704-af41-fde06dec4c1a"/>
        <polygon points="636.541,-861.211 637.473,-861.229 639.196,-861.085 641.076,-860.646 642.814,-859.952 644.347,-859.073 645.651,-858.085 646.74,-857.046 647.645,-855.994 648.4,-854.95 649.158,-853.705 649.911,-852.23 650.618,-850.662 651.422,-848.627 652.002,-846.941 652.363,-845.713 651.761,-846.246 650.391,-847.176 648.804,-847.951 647.063,-848.497 646.878,-848.53 647.311,-850.842 646.496,-854.881 644.272,-858.179 640.974,-860.403 636.935,-861.218 636.453,-861.19 636.539,-861.211 636.541,-861.211 " transform="matrix(1, 0, 0, 1, 0, 0)" fill="#004080" fill-opacity="0.50" stroke="#004080" stroke-width="1" stroke-opacity="0.10" fill-rule="winding" ub:uuid="e20fabe9-9c23-4b68-b49c-10143dde2269" ub:parent="f2a80283-16f0-4704-af41-fde06dec4c1a"/>
        <polygon points="654.703,-812.137 654.288,-809.229 653.78,-805.885 653.123,-802.96 652.281,-800.351 650.923,-797.269 650.469,-799.519 648.245,-802.817 644.947,-805.041 640.908,-805.856 640.54,-805.808 640.469,-805.994 641.064,-808.18 642.62,-813.907 642.658,-814.048 642.892,-813.726 646.119,-811.648 650.022,-810.889 654.061,-811.704 654.703,-812.137 640.889,-804.962 641.093,-804.688 641.384,-804.358 641.682,-804.056 641.938,-803.853 641.578,-804.12 641.343,-804.261 641.279,-804.293 641.153,-804.568 641.152,-804.567 640.889,-804.962 654.703,-812.137 " transform="matrix(1, 0, 0, 1, 0, 0)" fill="#004080" fill-opacity="0.50" stroke="#004080" stroke-width="1" stroke-opacity="0.10" fill-rule="winding" ub:uuid="ceb4a806-404b-49bd-a25e-36e0cc6445f4" ub:parent="f2a80283-16f0-4704-af41-fde06dec4c1a"/>
        <polygon points="618.476,-802.414 618.699,-805.739 618.708,-805.785 618.89,-805.117 618.878,-805.064 618.574,-803.251 618.476,-802.414 " transform="matrix(1, 0, 0, 1, 0, 0)" fill="#004080" fill-opacity="0.50" stroke="#004080" stroke-width="1" stroke-opacity="0.10" fill-rule="winding" ub:uuid="d07ae955-cfc6-4ecb-88e1-3bde42a32a5d" ub:parent="f2a80283-16f0-4704-af41-fde06dec4c1a"/>
        <polygon points="652.073,-799.88 651.763,-797.501 651.194,-794.815 651.284,-795.48 650.923,-797.269 652.073,-799.88 " transform="matrix(1, 0, 0, 1, 0, 0)" fill="#004080" fill-opacity="0.50" stroke="#004080" stroke-width="1" stroke-opacity="0.10" fill-rule="winding" ub:uuid="9068c018-a323-4e78-840b-bff8e13e76b1" ub:parent="f2a80283-16f0-4704-af41-fde06dec4c1a"/>
    </g>
    <g ub:z-value="-999982" ub:fill-on-dark-background="#ffffff" ub:fill-on-light-background="#000000" ub:uuid="57932741-62b1-423f-9ed0-8d07a899188e" ub:layer="-1000">
        <polygon points="-512.064,-643.25 -510.236,-645.652 -509.643,-646.326 -509.063,-646.906 -508.47,-647.42 -507.902,-647.838 -506.054,-649.173 -503.637,-651.054 -502.81,-651.637 -502.049,-652.113 -501.357,-652.479 -500.947,-652.659 -500.118,-652.951 -498.05,-653.727 -496.37,-654.357 -495.86,-654.501 -495.416,-654.599 -494.98,-654.668 -494.55,-654.707 -494.126,-654.712 -493.707,-654.682 -493.296,-654.614 -492.908,-654.508 -492.555,-654.377 -492.224,-654.226 -491.905,-654.052 -491.599,-653.855 -491.306,-653.638 -491.028,-653.399 -490.765,-653.142 -490.517,-652.866 -490.284,-652.573 -490.046,-652.234 -489.669,-651.597 -489.326,-650.871 -489.031,-650.086 -488.782,-649.243 -488.577,-648.351 -488.489,-647.84 -488.433,-647.345 -488.407,-646.855 -488.413,-646.369 -488.45,-645.888 -488.519,-645.415 -488.621,-644.949 -488.755,-644.493 -488.907,-644.082 -490.357,-640.293 -491.026,-638.231 -491.366,-637.426 -491.883,-636.357 -492.567,-634.989 -493.967,-631.985 -494.074,-631.571 -494.113,-631.376 -494.146,-631.167 -494.164,-630.972 -494.17,-630.802 -494.164,-630.67 -494.147,-630.562 -494.12,-630.462 -494.082,-630.366 -494.031,-630.27 -493.963,-630.169 -493.874,-630.062 -493.761,-629.949 -493.651,-629.853 -493.211,-629.553 -492.753,-629.278 -492.293,-629.033 -491.839,-628.821 -491.393,-628.642 -490.645,-628.389 -489.091,-627.871 -488.549,-627.691 -488.185,-627.545 -487.818,-627.348 -487.477,-627.109 -487.166,-626.832 -486.888,-626.521 -486.646,-626.183 -486.437,-625.822 -486.261,-625.44 -486.114,-625.039 -485.988,-624.594 -485.832,-623.807 -485.75,-622.987 -485.75,-622.166 -485.832,-621.347 -486,-620.513 -486.444,-619.035 -487.033,-617.56 -487.587,-616.428 -488.232,-615.355 -488.968,-614.358 -489.817,-613.423 -491.946,-611.52 -499.458,-605.965 -500.102,-605.573 -500.453,-605.396 -500.779,-605.255 -501.11,-605.133 -501.445,-605.033 -501.785,-604.954 -502.127,-604.897 -502.471,-604.862 -502.774,-604.851 -502.774,-604.851 -502.817,-604.851 -503.734,-605.23 -504.114,-606.148 -503.748,-607.05 -502.861,-607.444 -502.86,-607.444 -502.644,-607.45 -502.47,-607.468 -502.293,-607.497 -502.114,-607.539 -501.93,-607.594 -501.742,-607.663 -501.55,-607.747 -501.381,-607.829 -500.988,-608.06 -493.532,-613.573 -491.606,-615.302 -490.976,-616.001 -490.39,-616.794 -489.867,-617.666 -489.409,-618.601 -488.892,-619.892 -488.506,-621.182 -488.397,-621.732 -488.341,-622.296 -488.341,-622.858 -488.397,-623.422 -488.517,-624.018 -488.582,-624.239 -488.66,-624.452 -488.743,-624.632 -488.828,-624.781 -488.914,-624.901 -489,-624.997 -489.087,-625.075 -489.178,-625.138 -489.278,-625.192 -489.415,-625.245 -489.911,-625.41 -491.47,-625.93 -492.279,-626.204 -492.87,-626.441 -493.453,-626.713 -494.032,-627.021 -494.611,-627.369 -495.183,-627.76 -495.514,-628.037 -495.79,-628.313 -496.038,-628.612 -496.255,-628.935 -496.437,-629.279 -496.581,-629.642 -496.684,-630.018 -496.744,-630.403 -496.764,-630.78 -496.753,-631.139 -496.72,-631.488 -496.666,-631.84 -496.584,-632.225 -496.345,-633.022 -494.909,-636.105 -494.21,-637.504 -493.723,-638.51 -493.475,-639.088 -492.796,-641.177 -491.331,-645.007 -491.216,-645.313 -491.134,-645.592 -491.071,-645.879 -491.028,-646.175 -491.004,-646.481 -491.001,-646.799 -491.018,-647.13 -491.057,-647.474 -491.116,-647.819 -491.292,-648.588 -491.492,-649.266 -491.717,-649.865 -491.962,-650.384 -492.242,-650.853 -492.359,-651.016 -492.497,-651.19 -492.638,-651.347 -492.781,-651.487 -492.927,-651.612 -493.075,-651.723 -493.228,-651.82 -493.384,-651.906 -493.546,-651.98 -493.703,-652.039 -493.851,-652.08 -494.011,-652.106 -494.198,-652.119 -494.413,-652.116 -494.658,-652.094 -494.931,-652.051 -495.231,-651.985 -495.499,-651.913 -497.139,-651.298 -499.221,-650.517 -500.036,-650.23 -500.196,-650.159 -500.749,-649.868 -501.371,-649.479 -502.066,-648.99 -504.492,-647.101 -506.38,-645.738 -506.849,-645.395 -507.293,-645.01 -507.751,-644.552 -508.196,-644.05 -510,-641.679 -509.999,-641.679 -511.032,-641.168 -511.949,-641.547 -512.329,-642.465 -512.064,-643.25 -512.064,-643.25 " transform="matrix(1, 0, 0, 1, 0, 0)" fill="#000000" fill-opacity="1.00" fill-rule="winding" ub:uuid="ce485001-5ce7-4ac0-a91c-2614e8d68b96" ub:parent="57932741-62b1-423f-9ed0-8d07a899188e"/>
    </g>
    <g ub:z-value="-999981" ub:fill-on-dark-background="#ffffff" ub:fill-on-light-background="#000000" ub:uuid="dcf7c80f-494b-4704-9d8c-a768c1cc7145" ub:layer="-1000">
        <polygon points="-450.049,-648.152 -451.334,-648.58 -451.477,-648.619 -451.65,-648.646 -451.864,-648.661 -452.119,-648.657 -452.378,-648.638 -453.114,-648.516 -453.952,-648.299 -454.908,-647.982 -455.859,-647.622 -456.776,-647.229 -457.658,-646.804 -458.505,-646.348 -459.317,-645.861 -460.095,-645.342 -460.84,-644.791 -461.551,-644.21 -462.23,-643.596 -462.876,-642.95 -463.489,-642.271 -464.071,-641.56 -464.622,-640.816 -465.136,-640.044 -465.894,-638.776 -466.913,-636.941 -467.933,-634.97 -468.382,-633.991 -468.767,-632.981 -469.088,-631.937 -469.346,-630.858 -469.54,-629.743 -469.669,-628.591 -469.735,-627.401 -469.735,-626.173 -469.67,-624.92 -469.45,-622.918 -469.108,-620.385 -468.68,-617.602 -468.491,-616.673 -468.24,-615.779 -467.928,-614.921 -467.554,-614.095 -467.107,-613.282 -466.889,-612.943 -466.65,-612.613 -466.399,-612.308 -466.136,-612.028 -465.862,-611.771 -465.576,-611.537 -465.276,-611.325 -464.963,-611.133 -464.634,-610.962 -464.313,-610.82 -463.529,-610.548 -463.217,-610.467 -462.888,-610.4 -462.574,-610.355 -462.274,-610.331 -461.986,-610.328 -461.712,-610.344 -461.484,-610.372 -460.869,-610.517 -459.82,-610.825 -458.688,-611.211 -457.476,-611.673 -456.685,-612.021 -455.893,-612.433 -455.094,-612.912 -454.288,-613.461 -453.474,-614.079 -452.672,-614.75 -451.902,-615.455 -451.164,-616.193 -450.459,-616.963 -449.787,-617.767 -449.147,-618.604 -448.539,-619.474 -447.97,-620.367 -447.158,-621.804 -446.421,-623.299 -445.756,-624.805 -445.168,-626.306 -444.67,-627.786 -444.46,-628.691 -444.338,-629.602 -444.308,-630.51 -444.361,-631.367 -445.59,-638.549 -446.07,-640.3 -446.694,-641.968 -447.022,-642.651 -447.388,-643.29 -447.775,-643.857 -448.204,-644.375 -448.39,-644.57 -448.599,-644.766 -448.818,-644.945 -449.053,-645.112 -449.303,-645.268 -449.57,-645.412 -449.856,-645.544 -450.127,-645.653 -450.827,-645.867 -451.58,-646.016 -451.878,-646.049 -452.184,-646.066 -452.465,-646.063 -452.72,-646.041 -452.951,-646.003 -453.159,-645.95 -453.347,-645.883 -453.518,-645.803 -453.683,-645.703 -453.865,-645.573 -454.037,-645.434 -454.486,-645.002 -454.918,-644.499 -455.622,-643.505 -456.926,-641.204 -457.318,-640.345 -457.504,-639.847 -457.503,-639.847 -458.718,-639.006 -459.635,-639.386 -460.015,-640.303 -459.994,-640.538 -459.933,-640.759 -459.932,-640.758 -459.703,-641.367 -459.213,-642.429 -457.836,-644.857 -456.984,-646.068 -456.378,-646.776 -455.79,-647.346 -455.443,-647.631 -455.106,-647.873 -454.735,-648.093 -454.335,-648.281 -453.918,-648.431 -453.486,-648.541 -453.042,-648.616 -452.589,-648.654 -452.126,-648.66 -451.654,-648.634 -451.139,-648.572 -450.198,-648.384 -449.306,-648.114 -448.834,-647.928 -448.41,-647.732 -448.003,-647.513 -447.614,-647.271 -447.243,-647.006 -446.891,-646.718 -446.564,-646.412 -446.24,-646.071 -445.7,-645.413 -445.188,-644.665 -444.724,-643.852 -444.291,-642.944 -443.6,-641.093 -443.043,-639.039 -441.799,-631.772 -441.714,-630.553 -441.753,-629.387 -441.908,-628.223 -442.182,-627.052 -442.73,-625.419 -443.361,-623.807 -444.071,-622.201 -444.865,-620.592 -445.739,-619.044 -446.381,-618.035 -447.052,-617.073 -447.761,-616.146 -448.507,-615.255 -449.289,-614.4 -450.108,-613.581 -450.964,-612.798 -451.856,-612.051 -452.772,-611.355 -453.695,-610.728 -454.626,-610.17 -455.563,-609.682 -456.501,-609.269 -457.806,-608.771 -459.034,-608.353 -460.19,-608.013 -460.976,-607.829 -461.466,-607.762 -461.926,-607.735 -462.391,-607.74 -462.86,-607.777 -463.333,-607.844 -463.808,-607.941 -464.318,-608.077 -465.229,-608.393 -465.755,-608.623 -466.239,-608.875 -466.704,-609.159 -467.148,-609.474 -467.57,-609.819 -467.971,-610.194 -468.348,-610.597 -468.703,-611.027 -469.034,-611.483 -469.352,-611.984 -469.874,-612.935 -470.33,-613.942 -470.71,-614.986 -471.012,-616.064 -471.238,-617.175 -471.675,-620.013 -472.024,-622.599 -472.254,-624.695 -472.328,-626.105 -472.328,-627.471 -472.255,-628.806 -472.108,-630.11 -471.887,-631.381 -471.591,-632.62 -471.22,-633.824 -470.775,-634.994 -470.256,-636.125 -469.2,-638.166 -468.145,-640.066 -467.337,-641.418 -466.745,-642.306 -466.119,-643.153 -465.456,-643.963 -464.755,-644.738 -464.018,-645.475 -463.243,-646.176 -462.433,-646.839 -461.586,-647.465 -460.704,-648.053 -459.787,-648.603 -458.835,-649.115 -457.85,-649.59 -456.83,-650.027 -455.775,-650.427 -454.69,-650.786 -453.661,-651.052 -452.737,-651.207 -452.243,-651.248 -451.797,-651.254 -451.363,-651.225 -450.939,-651.157 -450.538,-651.049 -449.229,-650.613 -449.228,-650.613 -448.342,-649.382 -448.722,-648.465 -449.639,-648.085 -450.049,-648.151 -450.049,-648.152 " transform="matrix(1, 0, 0, 1, 0, 0)" fill="#000000" fill-opacity="1.00" fill-rule="winding" ub:uuid="5a007187-4392-435e-b0db-670b2ebfc886" ub:parent="dcf7c80f-494b-4704-9d8c-a768c1cc7145"/>
    </g>
    <g ub:z-value="-999980" ub:fill-on-dark-background="#ffffff" ub:fill-on-light-background="#000000" ub:uuid="ffc82f52-c201-4e45-a5e0-4e1b89def03a" ub:layer="-1000">
        <polygon points="-457.853,-622.587 -457.851,-622.115 -457.837,-622.046 -457.788,-621.824 -457.635,-621.283 -457.407,-620.594 -457.23,-620.153 -457.017,-619.698 -456.772,-619.239 -456.495,-618.776 -456.182,-618.309 -455.814,-617.818 -455.103,-616.971 -454.18,-615.981 -450.684,-611.826 -449.601,-610.552 -449.149,-610.086 -448.116,-609.054 -446.827,-607.764 -446.09,-607.057 -445.318,-606.446 -444.476,-605.904 -443.553,-605.428 -442.985,-605.201 -442.407,-605.028 -441.837,-604.914 -441.241,-604.856 -440.959,-604.85 -440.959,-604.85 -440.064,-604.46 -439.695,-603.554 -440.075,-602.636 -440.992,-602.257 -441.024,-602.257 -441.024,-602.257 -441.435,-602.269 -442.222,-602.349 -443.036,-602.511 -443.841,-602.753 -444.656,-603.08 -445.774,-603.658 -446.826,-604.336 -447.792,-605.1 -448.646,-605.915 -449.951,-607.219 -450.993,-608.262 -451.545,-608.834 -452.667,-610.154 -456.148,-614.291 -457.041,-615.247 -457.834,-616.19 -458.297,-616.806 -458.685,-617.385 -459.029,-617.96 -459.338,-618.538 -459.61,-619.121 -459.848,-619.717 -460.113,-620.516 -460.297,-621.167 -460.386,-621.568 -460.441,-621.984 -460.447,-622.566 -460.447,-622.566 -460.447,-622.577 -460.067,-623.494 -459.15,-623.874 -458.237,-623.497 -457.853,-622.587 -457.853,-622.587 " transform="matrix(1, 0, 0, 1, 0, 0)" fill="#000000" fill-opacity="1.00" fill-rule="winding" ub:uuid="d3bef76b-abb4-4560-99fb-50b432b408de" ub:parent="ffc82f52-c201-4e45-a5e0-4e1b89def03a"/>
    </g>
    <g ub:z-value="-999979" ub:fill-on-dark-background="#ffffff" ub:fill-on-light-background="#000000" ub:uuid="f03bc0d8-45bf-4900-aae4-a346c0f49856" ub:layer="-1000">
        <polygon points="-650.903,-617.252 -649.87,-615.728 -649.814,-615.677 -649.7,-615.574 -649.58,-615.488 -649.451,-615.414 -649.307,-615.352 -649.145,-615.3 -648.961,-615.261 -648.805,-615.239 -647.82,-615.227 -646.103,-615.227 -644.404,-615.244 -643.804,-615.29 -643.176,-615.368 -642.546,-615.478 -641.918,-615.62 -641.316,-615.789 -640.756,-615.986 -640.233,-616.21 -639.745,-616.461 -639.293,-616.738 -638.873,-617.042 -638.485,-617.373 -638.126,-617.732 -637.795,-618.121 -637.49,-618.542 -637.002,-619.31 -636.508,-620.163 -636.011,-621.094 -635.532,-622.082 -635.264,-622.713 -635.025,-623.351 -634.818,-623.987 -634.644,-624.621 -634.502,-625.252 -634.391,-625.882 -634.313,-626.51 -634.266,-627.125 -634.25,-628.127 -634.25,-630.151 -634.25,-634.091 -634.267,-637.689 -634.314,-638.457 -634.451,-639.703 -634.579,-640.502 -635.008,-642.736 -635.613,-646.233 -635.816,-647.791 -635.938,-649.259 -635.975,-650.223 -635.979,-651.975 -635.979,-654.582 -635.939,-656.317 -635.863,-657.199 -635.751,-658.026 -635.599,-658.821 -635.41,-659.583 -635.185,-660.332 -634.924,-661.079 -634.621,-661.835 -634.114,-662.93 -633.697,-663.686 -633.249,-664.35 -632.977,-664.696 -632.71,-664.999 -632.43,-665.284 -632.137,-665.551 -631.805,-665.817 -631.231,-666.208 -630.653,-666.555 -630.074,-666.863 -629.491,-667.135 -628.897,-667.373 -628.292,-667.568 -627.9,-667.657 -627.536,-667.713 -627.167,-667.746 -626.792,-667.757 -626.379,-667.744 -625.643,-667.663 -624.852,-667.501 -624.051,-667.26 -623.255,-666.942 -622.47,-666.55 -621.697,-666.086 -620.936,-665.553 -620.202,-664.97 -619.507,-664.35 -618.849,-663.693 -618.23,-662.998 -617.638,-662.252 -615.464,-659.209 -615.221,-658.81 -615.027,-658.417 -614.862,-658.005 -614.723,-657.573 -614.602,-657.087 -614.449,-656.162 -614.372,-655.122 -614.372,-654.015 -614.448,-652.948 -614.604,-651.938 -614.833,-651.016 -614.994,-650.53 -615.196,-650.028 -615.968,-648.544 -617.387,-646.364 -619.456,-643.821 -625.658,-637.619 -627.843,-635.813 -629.672,-634.555 -631.481,-633.537 -632.298,-633.167 -633.099,-632.887 -633.909,-632.684 -634.726,-632.562 -635.482,-632.522 -635.482,-632.522 -635.547,-632.521 -636.464,-632.901 -636.844,-633.818 -636.485,-634.713 -635.612,-635.113 -635.612,-635.113 -634.984,-635.143 -634.418,-635.228 -633.845,-635.371 -633.262,-635.575 -632.696,-635.828 -631.046,-636.755 -629.416,-637.876 -627.451,-639.494 -621.339,-645.605 -619.474,-647.904 -618.195,-649.874 -617.523,-651.175 -617.432,-651.416 -617.333,-651.708 -617.147,-652.447 -617.026,-653.235 -616.964,-654.105 -616.964,-655.03 -617.025,-655.858 -617.149,-656.594 -617.218,-656.86 -617.304,-657.128 -617.398,-657.364 -617.498,-657.568 -617.584,-657.714 -619.734,-660.724 -620.214,-661.327 -620.735,-661.912 -621.288,-662.464 -621.873,-662.986 -622.488,-663.475 -623.111,-663.911 -623.721,-664.277 -624.32,-664.577 -624.908,-664.812 -625.489,-664.986 -626.048,-665.101 -626.591,-665.158 -626.792,-665.163 -627.014,-665.156 -627.224,-665.138 -627.422,-665.107 -627.574,-665.075 -628.016,-664.933 -628.46,-664.755 -628.914,-664.543 -629.374,-664.298 -629.833,-664.023 -630.287,-663.713 -630.449,-663.581 -630.631,-663.416 -630.809,-663.234 -630.984,-663.035 -631.136,-662.845 -631.483,-662.333 -631.792,-661.775 -632.245,-660.795 -632.495,-660.168 -632.718,-659.53 -632.908,-658.897 -633.065,-658.266 -633.19,-657.609 -633.285,-656.913 -633.348,-656.204 -633.385,-654.558 -633.385,-651.977 -633.381,-650.262 -633.349,-649.428 -633.237,-648.068 -633.052,-646.643 -632.455,-643.196 -632.027,-640.969 -631.879,-640.038 -631.73,-638.69 -631.673,-637.729 -631.656,-634.097 -631.656,-630.151 -631.656,-628.112 -631.674,-627.022 -631.732,-626.252 -631.826,-625.497 -631.958,-624.743 -632.127,-623.992 -632.333,-623.242 -632.576,-622.494 -632.856,-621.749 -633.176,-620.996 -633.699,-619.918 -634.24,-618.903 -634.784,-617.966 -635.334,-617.1 -635.755,-616.518 -636.22,-615.973 -636.725,-615.467 -637.271,-615.003 -637.854,-614.58 -638.474,-614.2 -639.128,-613.863 -639.815,-613.568 -640.535,-613.316 -641.282,-613.105 -642.037,-612.935 -642.791,-612.803 -643.546,-612.708 -644.33,-612.651 -646.09,-612.633 -647.832,-612.633 -648.905,-612.647 -649.388,-612.702 -649.809,-612.793 -650.218,-612.923 -650.611,-613.094 -650.983,-613.306 -651.33,-613.556 -651.648,-613.843 -651.99,-614.232 -653.05,-615.796 -653.05,-615.796 -653.144,-615.959 -653.214,-616.137 -653.273,-616.524 -652.893,-617.441 -651.976,-617.821 -650.903,-617.252 -650.903,-617.252 " transform="matrix(1, 0, 0, 1, 0, 0)" fill="#000000" fill-opacity="1.00" fill-rule="winding" ub:uuid="d6a9fc59-8a5b-411b-8050-61c3cd9ed7bc" ub:parent="f03bc0d8-45bf-4900-aae4-a346c0f49856"/>
    </g>
    <g ub:z-value="-999978" ub:fill-on-dark-background="#ffffff" ub:fill-on-light-background="#000000" ub:uuid="c977bf2a-2035-4961-8bc2-2d61f026cd89" ub:layer="-1000">
        <polygon points="-590.381,-634.933 -587.77,-636.483 -587.218,-636.759 -586.699,-636.982 -586.168,-637.175 -585.628,-637.339 -585.079,-637.472 -584.521,-637.576 -583.921,-637.653 -582.909,-637.704 -578.182,-638.134 -575.161,-638.527 -574.177,-638.569 -572.859,-638.573 -571.128,-638.573 -568.551,-638.573 -562.048,-638.573 -561.131,-638.194 -560.751,-637.276 -561.131,-636.359 -562.048,-635.979 -568.551,-635.979 -571.128,-635.979 -572.855,-635.979 -574.131,-635.975 -574.877,-635.948 -577.908,-635.554 -582.693,-635.119 -583.722,-635.067 -584.116,-635.014 -584.535,-634.936 -584.946,-634.836 -585.348,-634.714 -585.743,-634.57 -586.131,-634.404 -586.47,-634.239 -589.056,-632.703 -589.056,-632.702 -589.369,-632.568 -589.719,-632.521 -590.636,-632.901 -591.016,-633.818 -590.381,-634.933 -590.381,-634.933 " transform="matrix(1, 0, 0, 1, 0, 0)" fill="#000000" fill-opacity="1.00" fill-rule="winding" ub:uuid="9e5f3d1b-6c34-4c70-a36a-71b023d417a0" ub:parent="c977bf2a-2035-4961-8bc2-2d61f026cd89"/>
    </g>
    <g ub:z-value="-999977" ub:fill-on-dark-background="#ffffff" ub:fill-on-light-background="#000000" ub:uuid="1f8cd64a-71de-4b0d-9939-26b2c7f92bf0" ub:layer="-1000">
        <polygon points="-581.951,-620.415 -578.55,-620.453 -577.864,-620.515 -577.168,-620.61 -576.521,-620.733 -575.159,-621.068 -573.092,-621.585 -572.094,-621.851 -571.47,-622.054 -570.831,-622.294 -570.165,-622.577 -568.045,-623.477 -567.145,-623.71 -566.328,-623.833 -565.58,-623.872 -563.833,-623.971 -559.735,-624.619 -558.151,-624.732 -557.741,-624.738 -557.741,-624.738 -557.725,-624.738 -556.808,-624.359 -556.428,-623.441 -556.803,-622.53 -557.709,-622.144 -557.709,-622.144 -557.999,-622.142 -559.39,-622.048 -563.506,-621.398 -565.434,-621.282 -566.07,-621.252 -566.636,-621.167 -567.12,-621.054 -569.15,-620.19 -569.868,-619.885 -570.613,-619.606 -571.372,-619.36 -572.449,-619.072 -574.533,-618.551 -575.947,-618.203 -576.752,-618.05 -577.578,-617.937 -578.483,-617.86 -581.922,-617.821 -581.921,-617.821 -581.936,-617.821 -582.853,-618.201 -583.233,-619.118 -582.858,-620.03 -581.951,-620.415 -581.951,-620.415 " transform="matrix(1, 0, 0, 1, 0, 0)" fill="#000000" fill-opacity="1.00" fill-rule="winding" ub:uuid="5e2879dc-11d8-4418-9e9a-57f6d4200e7e" ub:parent="1f8cd64a-71de-4b0d-9939-26b2c7f92bf0"/>
    </g>
    <g ub:z-value="-999976" ub:fill-on-dark-background="#ffffff" ub:fill-on-light-background="#000000" ub:uuid="49aeb81c-b1ae-4e65-a3b7-d386c57220c1" ub:layer="-1000">
        <polygon points="-500.779,-581.498 -474.166,-584.053 -473.028,-584.094 -471.621,-584.098 -469.336,-584.098 -465.718,-584.098 -460.841,-584.098 -455.171,-584.098 -450.85,-584.081 -449.709,-584.026 -447.806,-583.881 -444.83,-583.572 -440.211,-583.057 -426.347,-582.297 -416.344,-581.518 -415.035,-581.504 -415.035,-581.504 -414.129,-581.119 -413.754,-580.207 -414.134,-579.29 -415.051,-578.91 -415.067,-578.91 -415.067,-578.91 -416.525,-578.93 -426.514,-579.708 -440.389,-580.469 -445.109,-580.993 -448.047,-581.298 -449.88,-581.438 -450.883,-581.487 -455.175,-581.504 -460.841,-581.504 -465.718,-581.504 -469.336,-581.504 -471.618,-581.504 -472.986,-581.5 -473.924,-581.471 -500.531,-578.916 -500.531,-578.916 -500.655,-578.91 -501.573,-579.29 -501.952,-580.207 -501.613,-581.082 -500.78,-581.498 -500.779,-581.498 " transform="matrix(1, 0, 0, 1, 0, 0)" fill="#000000" fill-opacity="1.00" fill-rule="winding" ub:uuid="52e0e570-aad3-4945-a838-1f4c1cd1c27a" ub:parent="49aeb81c-b1ae-4e65-a3b7-d386c57220c1"/>
    </g>
    <g ub:z-value="-999975" ub:fill-on-dark-background="#ffffff" ub:fill-on-light-background="#000000" ub:uuid="0e44c447-a047-44dd-9b29-7317b3c02bec" ub:layer="-1000">
        <polygon points="-501.953,-568.107 -501.949,-567.095 -501.924,-566.847 -501.87,-566.518 -501.782,-566.14 -501.651,-565.684 -501.337,-564.566 -501.209,-563.853 -501.131,-563.152 -501.092,-562.415 -501.088,-561.052 -501.088,-559.286 -501.088,-557.469 -501.079,-556.202 -501.066,-556.11 -501.041,-555.97 -501.007,-555.841 -500.964,-555.721 -500.913,-555.607 -500.853,-555.498 -500.782,-555.392 -500.7,-555.288 -500.615,-555.195 -500.545,-555.133 -500.486,-555.093 -500.418,-555.059 -500.334,-555.029 -500.226,-555.005 -500.09,-554.99 -499.924,-554.988 -499.726,-555.002 -499.534,-555.029 -498.946,-555.171 -498.429,-555.344 -497.962,-555.549 -497.806,-555.634 -497.638,-555.737 -497.491,-555.84 -497.396,-555.913 -496.899,-556.398 -496.036,-557.261 -495.307,-557.98 -494.816,-558.383 -494.297,-558.729 -493.743,-559.028 -493.186,-559.268 -492.452,-559.556 -492.363,-559.61 -492.211,-559.708 -492.062,-559.819 -491.917,-559.944 -491.773,-560.084 -491.632,-560.24 -491.499,-560.407 -491.151,-560.896 -490.885,-561.202 -490.54,-561.484 -490.231,-561.635 -490.232,-561.635 -489.988,-561.711 -489.726,-561.737 -488.809,-561.357 -488.429,-560.44 -489.22,-559.245 -489.22,-559.246 -489.137,-559.302 -489.051,-559.367 -489.079,-559.335 -489.414,-558.865 -489.652,-558.565 -489.9,-558.289 -490.164,-558.031 -490.442,-557.793 -490.734,-557.575 -491.04,-557.379 -491.427,-557.174 -492.206,-556.865 -492.618,-556.69 -492.963,-556.505 -493.274,-556.297 -493.543,-556.078 -494.207,-555.422 -495.073,-554.555 -495.631,-554.012 -495.934,-553.765 -496.219,-553.565 -496.519,-553.382 -496.863,-553.199 -497.503,-552.921 -498.231,-552.678 -498.993,-552.492 -499.44,-552.424 -499.848,-552.395 -500.252,-552.401 -500.653,-552.446 -501.046,-552.535 -501.429,-552.67 -501.793,-552.852 -502.132,-553.08 -502.426,-553.338 -502.669,-553.599 -502.88,-553.867 -503.069,-554.15 -503.234,-554.447 -503.373,-554.757 -503.486,-555.078 -503.573,-555.407 -503.634,-555.743 -503.673,-556.144 -503.682,-557.462 -503.682,-559.286 -503.682,-561.048 -503.686,-562.365 -503.717,-562.942 -503.777,-563.486 -503.857,-563.949 -504.147,-564.976 -504.293,-565.489 -504.413,-566.009 -504.497,-566.511 -504.542,-567.024 -504.547,-568.096 -504.547,-568.096 -504.547,-568.101 -504.167,-569.018 -503.25,-569.398 -502.334,-569.02 -501.953,-568.107 -501.953,-568.107 " transform="matrix(1, 0, 0, 1, 0, 0)" fill="#000000" fill-opacity="1.00" fill-rule="winding" ub:uuid="e70b34ff-fe88-49f1-a8e3-4de2de2fdd5f" ub:parent="0e44c447-a047-44dd-9b29-7317b3c02bec"/>
        <polygon points="-489.551,-561.725 -489.455,-561.712 -489.455,-561.712 -488.657,-561.284 -488.334,-560.427 -488.714,-559.51 -489.631,-559.13 -489.806,-559.142 -489.806,-559.142 -489.901,-559.155 -489.901,-559.155 -490.7,-559.583 -491.023,-560.44 -490.643,-561.357 -489.726,-561.737 -489.55,-561.725 -489.551,-561.725 " transform="matrix(1, 0, 0, 1, 0, 0)" fill="#000000" fill-opacity="1.00" fill-rule="winding" ub:uuid="df638a49-3b09-4405-96e7-cb3047add593" ub:parent="0e44c447-a047-44dd-9b29-7317b3c02bec"/>
        <polygon points="-488.74,-561.37 -488.474,-561.073 -488.255,-560.61 -488.167,-560.222 -488.128,-559.839 -488.054,-558.19 -487.873,-556.975 -486.676,-552.186 -486.252,-550.976 -485.157,-548.69 -483.983,-546.726 -483.876,-546.579 -483.738,-546.405 -483.597,-546.249 -483.454,-546.109 -483.308,-545.984 -483.159,-545.873 -483.007,-545.775 -482.851,-545.69 -482.688,-545.616 -482.528,-545.556 -482.38,-545.514 -482.232,-545.488 -482.073,-545.476 -481.899,-545.479 -481.708,-545.498 -481.499,-545.537 -481.271,-545.596 -481.026,-545.678 -480.763,-545.784 -480.453,-545.929 -480.453,-545.929 -480.189,-546.02 -479.903,-546.052 -478.986,-545.672 -478.606,-544.755 -479.352,-543.58 -479.353,-543.58 -479.726,-543.406 -480.129,-543.244 -480.532,-543.109 -480.936,-543.004 -481.341,-542.93 -481.746,-542.889 -482.151,-542.883 -482.554,-542.914 -482.951,-542.984 -483.33,-543.089 -483.68,-543.219 -484.011,-543.37 -484.33,-543.544 -484.636,-543.74 -484.929,-543.958 -485.207,-544.196 -485.47,-544.454 -485.718,-544.73 -485.951,-545.023 -486.199,-545.377 -487.446,-547.469 -488.634,-549.948 -489.179,-551.504 -490.402,-556.399 -490.637,-557.951 -490.718,-559.701 -490.731,-559.828 -490.729,-559.829 -490.632,-559.634 -490.521,-559.484 -490.521,-559.484 -490.928,-560.427 -490.548,-561.344 -489.631,-561.724 -488.74,-561.37 -488.74,-561.37 " transform="matrix(1, 0, 0, 1, 0, 0)" fill="#000000" fill-opacity="1.00" fill-rule="winding" ub:uuid="2452a9b4-07e8-466e-a7a3-b1c544b60b33" ub:parent="0e44c447-a047-44dd-9b29-7317b3c02bec"/>
    </g>
    <g ub:z-value="-999974" ub:fill-on-dark-background="#ffffff" ub:fill-on-light-background="#000000" ub:uuid="5c90b7bb-8389-4e4e-b7d7-b6835906552c" ub:layer="-1000">
        <polygon points="-457.026,-565.817 -456.51,-563.721 -456.386,-562.951 -456.351,-562.535 -456.34,-562.157 -456.351,-561.782 -456.384,-561.412 -456.44,-561.048 -456.52,-560.691 -456.73,-559.913 -456.747,-559.778 -456.766,-559.568 -456.772,-559.346 -456.768,-559.146 -456.71,-558.602 -456.577,-557.958 -456.196,-555.736 -456.124,-551.26 -456.124,-551.26 -456.124,-551.24 -456.504,-550.323 -457.421,-549.943 -458.331,-550.316 -458.718,-551.219 -458.718,-551.219 -458.784,-555.563 -459.129,-557.492 -459.273,-558.197 -459.354,-558.933 -459.367,-559.346 -459.356,-559.721 -459.323,-560.09 -459.253,-560.518 -459.031,-561.339 -458.99,-561.527 -458.959,-561.725 -458.941,-561.934 -458.934,-562.157 -458.941,-562.392 -458.957,-562.608 -459.041,-563.152 -459.545,-565.197 -459.545,-565.196 -459.583,-565.507 -459.203,-566.424 -458.286,-566.804 -457.48,-566.523 -457.026,-565.818 -457.026,-565.817 " transform="matrix(1, 0, 0, 1, 0, 0)" fill="#000000" fill-opacity="1.00" fill-rule="winding" ub:uuid="f7204589-2efa-4b31-a1bc-398b0e55c561" ub:parent="5c90b7bb-8389-4e4e-b7d7-b6835906552c"/>
    </g>
    <g ub:z-value="-999973" ub:fill-on-dark-background="#ffffff" ub:fill-on-light-background="#000000" ub:uuid="a9a96181-21c4-43c6-af12-b86954a40cfd" ub:layer="-1000">
        <polygon points="-462.212,-560.882 -462.861,-558.17 -462.946,-557.65 -463.008,-557.128 -463.044,-556.563 -463.329,-553.905 -463.504,-553.125 -463.628,-552.525 -463.686,-551.981 -463.69,-551.78 -463.684,-551.558 -463.665,-551.348 -463.634,-551.15 -463.593,-550.963 -463.527,-550.742 -463.527,-550.743 -463.474,-550.375 -463.854,-549.458 -464.771,-549.078 -466.015,-550.007 -466.015,-550.008 -466.105,-550.315 -466.184,-550.672 -466.24,-551.036 -466.273,-551.406 -466.284,-551.78 -466.271,-552.193 -466.19,-552.929 -466.038,-553.678 -465.901,-554.247 -465.625,-556.82 -465.591,-557.363 -465.514,-558.017 -465.392,-558.741 -464.735,-561.486 -464.735,-561.486 -464.283,-562.197 -463.474,-562.481 -462.557,-562.101 -462.177,-561.184 -462.212,-560.882 -462.212,-560.882 " transform="matrix(1, 0, 0, 1, 0, 0)" fill="#000000" fill-opacity="1.00" fill-rule="winding" ub:uuid="e28f8804-4cff-4811-8e91-407f8725a0ab" ub:parent="a9a96181-21c4-43c6-af12-b86954a40cfd"/>
    </g>
    <g ub:z-value="-999972" ub:fill-on-dark-background="#ffffff" ub:fill-on-light-background="#000000" ub:uuid="3cdca1ea-19e0-4ed2-9c8b-23a27cd2468b" ub:layer="-1000">
        <polygon points="-475.875,-563.493 -475.436,-564.371 -475.253,-564.679 -475.027,-564.968 -474.771,-565.224 -474.492,-565.449 -474.193,-565.647 -473.877,-565.82 -473.543,-565.973 -473.16,-566.119 -472.443,-566.331 -470.952,-566.686 -468.958,-567.115 -464.814,-568.146 -464.162,-568.298 -463.418,-568.416 -462.62,-568.492 -461.756,-568.529 -460.094,-568.534 -454.827,-568.534 -453.91,-568.154 -453.53,-567.237 -453.91,-566.319 -454.827,-565.94 -460.092,-565.94 -461.715,-565.935 -462.443,-565.904 -463.097,-565.841 -463.667,-565.752 -464.192,-565.627 -468.358,-564.591 -470.384,-564.155 -471.799,-563.818 -472.361,-563.651 -472.54,-563.58 -472.717,-563.5 -472.858,-563.422 -472.966,-563.351 -473.041,-563.291 -473.088,-563.245 -473.113,-563.214 -473.129,-563.184 -473.555,-562.333 -473.554,-562.333 -474.715,-561.616 -475.632,-561.996 -476.012,-562.913 -475.976,-563.216 -475.875,-563.493 -475.875,-563.493 " transform="matrix(1, 0, 0, 1, 0, 0)" fill="#000000" fill-opacity="1.00" fill-rule="winding" ub:uuid="e59ff291-bda0-4bf2-83e4-f898f5e13210" ub:parent="3cdca1ea-19e0-4ed2-9c8b-23a27cd2468b"/>
    </g>
    <g ub:z-value="-999969" ub:fill-on-dark-background="#ffffff" ub:fill-on-light-background="#000000" ub:uuid="0d3089f6-47da-412b-a1c8-539dc362258a" ub:layer="-1000">
        <polygon points="-519.246,-580.207 -519.246,-580.683 -519.117,-581.248 -518.797,-581.712 -518.447,-581.98 -518.128,-582.13 -517.831,-582.222 -517.5,-582.288 -516.94,-582.348 -513.703,-582.575 -512.993,-582.697 -511.717,-582.949 -509.965,-583.299 -506.043,-583.975 -505.044,-584.058 -503.698,-584.098 -501.814,-584.098 -499.09,-584.098 -486.388,-584.098 -485.471,-583.718 -485.091,-582.801 -485.471,-581.884 -486.388,-581.504 -499.09,-581.504 -501.814,-581.504 -503.666,-581.504 -504.914,-581.467 -505.644,-581.411 -509.504,-580.746 -511.211,-580.405 -512.52,-580.147 -513.471,-579.992 -516.745,-579.761 -517.154,-579.717 -517.202,-579.705 -517.217,-579.702 -517.14,-579.739 -516.963,-579.878 -516.747,-580.195 -516.653,-580.596 -516.652,-580.207 -517.032,-579.29 -517.949,-578.91 -518.866,-579.29 -519.246,-580.207 " transform="matrix(1, 0, 0, 1, 0, 0)" fill="#000000" fill-opacity="1.00" fill-rule="winding" ub:uuid="de8cab4f-5cd9-45b1-87d5-55b54d650894" ub:parent="0d3089f6-47da-412b-a1c8-539dc362258a"/>
    </g>
    <g ub:z-value="-999967" ub:fill-on-dark-background="#ffffff" ub:fill-on-light-background="#000000" ub:uuid="a550413e-908c-4e21-bebc-9eba02cd03d0" ub:layer="-1000">
        <polygon points="-433.573,-560.737 -432.982,-562.474 -432.867,-562.748 -432.748,-562.975 -432.505,-563.29 -432.179,-563.528 -432.18,-563.528 -431.88,-563.649 -431.549,-563.691 -430.632,-563.311 -430.252,-562.394 -430.919,-561.26 -430.92,-561.261 -430.671,-561.456 -430.524,-561.641 -430.517,-561.651 -430.532,-561.623 -431.117,-559.902 -431.117,-559.901 -432.345,-559.022 -433.262,-559.402 -433.642,-560.319 -433.573,-560.737 -433.573,-560.737 " transform="matrix(1, 0, 0, 1, 0, 0)" fill="#000000" fill-opacity="1.00" fill-rule="winding" ub:uuid="5b827a10-9624-48af-b308-dd967dcc27a7" ub:parent="a550413e-908c-4e21-bebc-9eba02cd03d0"/>
        <polygon points="-430.796,-563.45 -430.765,-563.428 -430.765,-563.428 -430.222,-562.373 -430.602,-561.456 -431.519,-561.076 -431.922,-561.139 -432.105,-561.215 -432.273,-561.317 -432.273,-561.317 -432.303,-561.339 -432.303,-561.339 -432.846,-562.394 -432.467,-563.311 -431.549,-563.691 -431.147,-563.628 -430.963,-563.552 -430.795,-563.45 -430.796,-563.45 " transform="matrix(1, 0, 0, 1, 0, 0)" fill="#000000" fill-opacity="1.00" fill-rule="winding" ub:uuid="5b8401ff-a15e-47df-96f3-fb0a165a5454" ub:parent="a550413e-908c-4e21-bebc-9eba02cd03d0"/>
        <polygon points="-430.289,-562.783 -430.226,-562.562 -430.188,-562.234 -430.183,-561.653 -430.183,-559.441 -430.183,-555.131 -430.183,-550.929 -430.183,-544.214 -430.183,-530.487 -430.563,-529.57 -431.48,-529.19 -432.397,-529.57 -432.777,-530.487 -432.777,-544.214 -432.777,-550.929 -432.777,-555.131 -432.777,-559.441 -432.777,-561.649 -432.781,-562.166 -432.769,-562.053 -432.75,-561.963 -432.75,-561.962 -432.799,-562.162 -432.816,-562.373 -432.436,-563.29 -431.519,-563.67 -430.289,-562.783 -430.289,-562.783 " transform="matrix(1, 0, 0, 1, 0, 0)" fill="#000000" fill-opacity="1.00" fill-rule="winding" ub:uuid="6be3bc1e-f28c-43d6-9c9d-57d4fe78e19a" ub:parent="a550413e-908c-4e21-bebc-9eba02cd03d0"/>
    </g>
    <g ub:z-value="-999966" ub:fill-on-dark-background="#ffffff" ub:fill-on-light-background="#000000" ub:uuid="21f8e6ca-6885-407b-b0fb-a739e36355f5" ub:layer="-1000">
        <polygon points="-432.65,-560.879 -431.879,-562.489 -431.743,-562.835 -431.478,-563.563 -430.832,-565.161 -430.495,-565.801 -430.148,-566.378 -429.764,-566.945 -429.513,-567.262 -429.265,-567.537 -429.002,-567.795 -428.724,-568.033 -428.431,-568.251 -428.125,-568.448 -427.806,-568.622 -427.441,-568.786 -426.844,-568.992 -426.241,-569.153 -425.641,-569.273 -425.038,-569.353 -424.428,-569.393 -423.821,-569.389 -423.44,-569.352 -423.098,-569.295 -422.759,-569.216 -422.423,-569.116 -422.092,-568.994 -421.735,-568.838 -421.156,-568.529 -420.808,-568.31 -420.484,-568.075 -420.172,-567.809 -419.883,-567.52 -419.617,-567.208 -419.376,-566.875 -419.161,-566.524 -418.971,-566.155 -418.806,-565.77 -418.654,-565.332 -418.3,-564 -417.699,-561.986 -417.606,-561.663 -417.527,-561.288 -417.472,-560.903 -417.438,-560.473 -417.439,-559.687 -417.518,-558.82 -417.669,-557.908 -417.874,-556.995 -418.116,-556.119 -418.398,-555.276 -418.719,-554.464 -419.077,-553.69 -419.617,-552.651 -420.159,-551.689 -420.704,-550.803 -421.265,-549.966 -422.113,-548.764 -423.361,-547.086 -423.936,-546.395 -424.51,-545.783 -425.097,-545.236 -425.695,-544.757 -426.287,-544.357 -426.863,-544.011 -427.441,-543.703 -428.025,-543.431 -428.595,-543.202 -428.924,-543.087 -429.269,-542.988 -429.637,-542.917 -430.01,-542.883 -430.386,-542.891 -430.762,-542.942 -431.129,-543.04 -431.482,-543.182 -431.813,-543.366 -432.119,-543.587 -432.397,-543.838 -432.649,-544.117 -432.869,-544.433 -433.048,-544.792 -433.167,-545.192 -433.21,-545.619 -433.167,-546.047 -433.048,-546.447 -432.869,-546.805 -432.649,-547.121 -432.391,-547.407 -432.092,-547.67 -431.753,-547.898 -431.389,-548.081 -431.006,-548.215 -430.613,-548.304 -430.212,-548.349 -429.808,-548.356 -429.4,-548.327 -428.953,-548.258 -428.192,-548.072 -427.463,-547.83 -426.823,-547.551 -426.479,-547.368 -426.179,-547.185 -425.894,-546.986 -425.559,-546.708 -422.686,-543.813 -421.886,-542.806 -421.207,-541.751 -419.462,-538.589 -417.902,-536.019 -416.167,-532.802 -415.686,-532.047 -415.685,-532.047 -415.537,-531.72 -415.484,-531.352 -415.863,-530.435 -416.781,-530.055 -417.876,-530.657 -417.876,-530.657 -418.432,-531.537 -420.156,-534.735 -421.709,-537.293 -423.457,-540.461 -423.997,-541.299 -424.571,-542.03 -427.388,-544.868 -427.451,-544.91 -427.599,-545.014 -427.766,-545.116 -427.923,-545.201 -428.39,-545.407 -428.906,-545.579 -429.494,-545.721 -429.687,-545.748 -429.884,-545.763 -430.05,-545.76 -430.186,-545.745 -430.294,-545.721 -430.378,-545.692 -430.446,-545.658 -430.506,-545.618 -430.569,-545.561 -430.623,-545.501 -430.645,-545.471 -430.639,-545.484 -430.623,-545.538 -430.616,-545.619 -430.623,-545.701 -430.639,-545.755 -430.645,-545.768 -430.623,-545.738 -430.563,-545.672 -430.487,-545.603 -430.421,-545.555 -430.363,-545.523 -430.309,-545.501 -430.253,-545.486 -430.188,-545.477 -430.106,-545.476 -430.003,-545.485 -429.878,-545.51 -429.713,-545.558 -429.523,-545.624 -429.056,-545.811 -428.602,-546.023 -428.142,-546.268 -427.681,-546.544 -427.235,-546.845 -426.796,-547.196 -426.345,-547.617 -425.881,-548.112 -425.418,-548.666 -424.211,-550.291 -423.399,-551.441 -422.887,-552.204 -422.395,-553.004 -421.899,-553.884 -421.401,-554.843 -421.103,-555.486 -420.836,-556.162 -420.598,-556.875 -420.391,-557.625 -420.215,-558.407 -420.09,-559.155 -420.03,-559.81 -420.031,-560.407 -420.05,-560.617 -420.081,-560.837 -420.123,-561.033 -420.185,-561.246 -420.795,-563.288 -421.15,-564.628 -421.223,-564.83 -421.318,-565.05 -421.422,-565.252 -421.535,-565.436 -421.657,-565.605 -421.789,-565.76 -421.932,-565.903 -422.087,-566.035 -422.264,-566.163 -422.435,-566.272 -422.895,-566.517 -423.056,-566.586 -423.244,-566.655 -423.427,-566.71 -423.607,-566.752 -423.783,-566.781 -423.921,-566.797 -424.352,-566.8 -424.78,-566.772 -425.214,-566.714 -425.652,-566.626 -426.086,-566.511 -426.518,-566.362 -426.646,-566.301 -426.803,-566.216 -426.955,-566.118 -427.103,-566.008 -427.249,-565.883 -427.392,-565.743 -427.533,-565.586 -427.654,-565.436 -427.962,-564.982 -428.238,-564.522 -428.454,-564.124 -429.062,-562.618 -429.316,-561.919 -429.525,-561.401 -430.31,-559.759 -430.31,-559.759 -431.48,-559.022 -432.397,-559.402 -432.777,-560.319 -432.744,-560.611 -432.65,-560.879 -432.65,-560.879 " transform="matrix(1, 0, 0, 1, 0, 0)" fill="#000000" fill-opacity="1.00" fill-rule="winding" ub:uuid="0f5a648b-4968-4321-baec-d3fc825f81d8" ub:parent="21f8e6ca-6885-407b-b0fb-a739e36355f5"/>
    </g>
    <g ub:z-value="-999965" ub:fill-on-dark-background="#ffffff" ub:fill-on-light-background="#000000" ub:uuid="8bf74b95-58c1-40c7-9fbb-cdc686ad9af8" ub:layer="-1000">
        <polygon points="-411.023,-576.168 -411.464,-577.05 -411.615,-577.451 -411.679,-577.941 -411.605,-578.459 -411.395,-578.923 -411.104,-579.287 -410.78,-579.557 -410.44,-579.762 -410.085,-579.924 -409.681,-580.066 -408.954,-580.255 -408.241,-580.405 -407.56,-580.518 -406.906,-580.595 -406.272,-580.634 -405.666,-580.63 -405.287,-580.592 -404.951,-580.531 -404.622,-580.444 -404.301,-580.33 -403.991,-580.191 -403.694,-580.026 -403.41,-579.838 -403.143,-579.627 -402.874,-579.375 -402.478,-578.936 -402.108,-578.436 -401.786,-577.899 -401.511,-577.328 -401.288,-576.741 -401.177,-576.351 -401.106,-575.968 -401.074,-575.581 -401.081,-575.192 -401.126,-574.806 -401.208,-574.425 -401.326,-574.053 -401.476,-573.692 -401.682,-573.3 -402.209,-572.488 -403.254,-570.92 -404.136,-569.638 -404.535,-569.119 -405.089,-568.467 -405.574,-567.949 -405.486,-568.075 -405.406,-568.342 -405.45,-568.823 -405.703,-569.235 -405.928,-569.4 -406.002,-569.43 -405.944,-569.42 -405.712,-569.398 -402.607,-569.037 -402.094,-568.896 -401.762,-568.772 -401.432,-568.622 -401.113,-568.448 -400.806,-568.251 -400.514,-568.033 -400.236,-567.795 -399.973,-567.537 -399.724,-567.262 -399.491,-566.969 -399.269,-566.655 -399.063,-566.32 -398.882,-565.969 -398.732,-565.608 -398.614,-565.236 -398.532,-564.856 -398.487,-564.469 -398.48,-564.08 -398.512,-563.693 -398.582,-563.31 -398.687,-562.942 -398.816,-562.594 -398.967,-562.264 -399.14,-561.945 -399.337,-561.639 -399.555,-561.346 -399.793,-561.068 -400.051,-560.805 -400.326,-560.557 -400.63,-560.315 -402.042,-559.294 -402.768,-558.661 -403.125,-558.321 -403.412,-558.088 -403.697,-557.889 -403.997,-557.706 -404.342,-557.523 -404.981,-557.244 -405.71,-557.001 -406.471,-556.815 -406.918,-556.747 -407.326,-556.718 -407.73,-556.724 -408.131,-556.77 -408.525,-556.858 -408.907,-556.993 -409.271,-557.175 -409.61,-557.403 -409.927,-557.684 -410.331,-558.132 -410.7,-558.631 -411.022,-559.168 -411.297,-559.739 -411.508,-560.291 -411.508,-560.291 -411.571,-560.514 -411.592,-560.751 -411.213,-561.669 -410.295,-562.048 -409.082,-561.212 -409.083,-561.211 -408.913,-560.761 -408.738,-560.398 -408.542,-560.07 -408.323,-559.774 -408.07,-559.495 -408.024,-559.456 -407.964,-559.416 -407.896,-559.382 -407.812,-559.353 -407.704,-559.329 -407.569,-559.313 -407.402,-559.311 -407.205,-559.325 -407.012,-559.352 -406.424,-559.495 -405.908,-559.667 -405.441,-559.873 -405.284,-559.958 -405.117,-560.06 -404.969,-560.163 -404.859,-560.25 -404.498,-560.594 -403.632,-561.344 -402.165,-562.407 -402.002,-562.537 -401.845,-562.678 -401.705,-562.821 -401.58,-562.967 -401.47,-563.115 -401.372,-563.267 -401.287,-563.424 -401.213,-563.586 -401.152,-563.749 -401.109,-563.9 -401.084,-564.036 -401.073,-564.167 -401.075,-564.297 -401.09,-564.429 -401.12,-564.568 -401.167,-564.715 -401.233,-564.872 -401.32,-565.041 -401.433,-565.224 -401.566,-565.412 -401.705,-565.586 -401.846,-565.743 -401.989,-565.883 -402.134,-566.008 -402.283,-566.118 -402.435,-566.216 -402.592,-566.301 -402.754,-566.375 -402.933,-566.442 -402.946,-566.465 -406.007,-566.821 -406.311,-566.852 -406.685,-566.928 -407.088,-567.08 -407.538,-567.4 -407.911,-568.002 -407.974,-568.708 -407.806,-569.235 -407.529,-569.654 -407.027,-570.191 -406.544,-570.759 -406.252,-571.138 -405.404,-572.373 -404.373,-573.918 -403.89,-574.662 -403.827,-574.789 -403.761,-574.946 -403.715,-575.094 -403.684,-575.232 -403.669,-575.364 -403.667,-575.494 -403.678,-575.626 -403.703,-575.762 -403.739,-575.891 -403.896,-576.306 -404.07,-576.669 -404.267,-576.997 -404.485,-577.293 -404.746,-577.58 -404.832,-577.657 -404.936,-577.74 -405.042,-577.811 -405.151,-577.871 -405.265,-577.922 -405.385,-577.964 -405.514,-577.998 -405.654,-578.024 -405.768,-578.038 -406.199,-578.041 -406.672,-578.012 -407.194,-577.95 -407.759,-577.856 -408.36,-577.729 -408.964,-577.573 -409.122,-577.515 -409.243,-577.461 -409.292,-577.432 -409.27,-577.452 -409.195,-577.548 -409.116,-577.727 -409.085,-577.941 -409.106,-578.112 -409.127,-578.175 -408.703,-577.328 -408.703,-577.329 -408.602,-577.051 -408.566,-576.748 -408.946,-575.831 -409.863,-575.451 -411.023,-576.168 -411.023,-576.168 " transform="matrix(1, 0, 0, 1, 0, 0)" fill="#000000" fill-opacity="1.00" fill-rule="winding" ub:uuid="9f22da11-58ab-407c-8e1a-19cb16562510" ub:parent="8bf74b95-58c1-40c7-9fbb-cdc686ad9af8"/>
    </g>
    <g ub:z-value="-999964" ub:fill-on-dark-background="#ffffff" ub:fill-on-light-background="#000000" ub:uuid="94ba847c-25b8-4f59-a5a4-d9b839e29284" ub:layer="-1000">
        <polygon points="-391.699,-581.504 -395.837,-581.487 -396.418,-581.441 -397.046,-581.363 -397.673,-581.253 -399.457,-580.874 -400.316,-580.755 -401.172,-580.681 -402.005,-580.646 -405.212,-580.433 -405.784,-580.317 -406.833,-580.078 -407.595,-579.945 -408.35,-579.85 -409.12,-579.793 -410.206,-579.775 -412.094,-579.775 -415.005,-579.775 -423.809,-579.706 -424.759,-579.579 -425.277,-579.462 -425.485,-579.397 -425.485,-579.397 -425.86,-579.342 -426.777,-579.722 -427.157,-580.639 -426.235,-581.881 -426.234,-581.881 -425.898,-581.981 -425.17,-582.14 -423.864,-582.299 -415.02,-582.369 -412.094,-582.369 -410.221,-582.369 -409.223,-582.385 -408.609,-582.431 -407.98,-582.51 -407.359,-582.618 -406.324,-582.855 -405.443,-583.016 -402.165,-583.235 -401.338,-583.27 -400.603,-583.333 -399.94,-583.422 -398.187,-583.796 -397.431,-583.928 -396.676,-584.022 -395.874,-584.081 -391.71,-584.098 -391.71,-584.098 -391.705,-584.098 -390.787,-583.718 -390.407,-582.801 -390.786,-581.886 -391.699,-581.504 -391.699,-581.504 " transform="matrix(1, 0, 0, 1, 0, 0)" fill="#000000" fill-opacity="1.00" fill-rule="winding" ub:uuid="8d2ef731-bdf6-4f36-a5b7-7fdfa9f8b24b" ub:parent="94ba847c-25b8-4f59-a5a4-d9b839e29284"/>
    </g>
</svg>
