<?xml version="1.0" encoding="UTF-8"?>
<svg xmlns="http://www.w3.org/2000/svg" xmlns:xlink="http://www.w3.org/1999/xlink" xmlns:ub="http://uniboard.mnemis.com/document" xmlns:xhtml="http://www.w3.org/1999/xhtml" version="1.1" ub:version="4.8.0" ub:uuid="0a6645fb-2dbe-4ddd-aef3-d00f2be33934" viewBox="-721 -935 1443 1854" ub:nominal-size="1343x1738" ub:dark-background="false" ub:crossed-background="true" ub:ruled-background="false" ub:grid-size="55" ub:intermediate-lines="0" pageDpi="158">
    <rect fill="white" x="-721" y="-935" width="1443" height="1854"/>
    <image xlink:href="images/{07e06bc6-5104-4edc-8206-604f09495553}.png" x="0" y="0" width="1026" height="75" transform="matrix(1, 0, 0, 1, -444.189, -839.432)" ub:z-value="-999999.000000" ub:background="false" ub:uuid="07e06bc6-5104-4edc-8206-604f09495553" ub:source="/Users/khale/AppData/Local/OpenBoard/document/OpenBoard Document 2023-05-07 16-55-23.504/images/{07e06bc6-5104-4edc-8206-604f09495553}.png" ub:layer="-1000"/>
    <g ub:z-value="-999998" ub:fill-on-dark-background="#ffffff" ub:fill-on-light-background="#000000" ub:uuid="cdb4e8a8-5d27-4401-a500-49f349e7b863" ub:layer="-1000">
        <polygon points="636.844,-799.856 636.884,-802.683 636.962,-803.561 637.139,-804.829 637.474,-806.573 637.907,-808.739 638.422,-811.315 639.386,-816.754 639.422,-817.337 639.438,-818.352 639.438,-819.726 639.438,-821.446 639.423,-822.062 639.377,-822.627 639.302,-823.15 639.2,-823.631 639.066,-824.093 639.019,-824.216 638.996,-824.267 639.047,-824.196 639.29,-823.992 639.498,-823.888 639.498,-823.888 638.573,-825.13 638.953,-826.047 639.871,-826.427 640.244,-826.373 640.243,-826.373 640.624,-826.217 641.04,-825.857 641.264,-825.527 641.414,-825.214 641.54,-824.871 641.717,-824.26 641.857,-823.6 641.955,-822.913 642.013,-822.198 642.032,-821.465 642.032,-819.726 642.032,-818.333 642.014,-817.238 641.946,-816.334 640.973,-810.844 640.451,-808.231 640.019,-806.073 639.696,-804.393 639.537,-803.249 639.477,-802.605 639.438,-799.82 639.438,-799.82 639.052,-798.915 638.141,-798.541 637.224,-798.921 636.844,-799.838 636.844,-799.856 636.844,-799.856 " transform="matrix(1, 0, 0, 1, 0, 0)" fill="#000000" fill-opacity="1.00" fill-rule="winding" ub:uuid="b84b0551-0800-4e3f-bbe8-d07fed0ae0b3" ub:parent="cdb4e8a8-5d27-4401-a500-49f349e7b863"/>
        <polygon points="640.243,-823.888 640.451,-823.992 640.694,-824.196 640.745,-824.267 640.722,-824.216 640.678,-824.1 640.545,-823.631 640.443,-823.104 640.366,-822.491 640.319,-821.809 640.303,-820.589 640.303,-818.209 640.303,-815.294 640.303,-809.789 640.341,-807.667 640.399,-806.933 641.053,-802.563 641.272,-798.31 641.418,-797.347 641.736,-796.058 642.182,-794.786 642.783,-793.453 642.783,-793.453 642.867,-793.197 642.897,-792.921 642.517,-792.004 641.6,-791.624 640.417,-792.388 640.417,-792.388 639.773,-793.822 639.25,-795.317 638.876,-796.83 638.685,-798.124 638.472,-802.302 637.829,-806.578 637.749,-807.574 637.709,-809.776 637.709,-815.294 637.709,-818.209 637.709,-820.601 637.727,-821.898 637.784,-822.737 637.88,-823.508 638.02,-824.225 638.199,-824.863 638.327,-825.214 638.477,-825.527 638.701,-825.857 639.117,-826.217 639.498,-826.373 639.497,-826.373 639.871,-826.427 640.788,-826.047 641.168,-825.13 640.244,-823.888 640.243,-823.888 " transform="matrix(1, 0, 0, 1, 0, 0)" fill="#000000" fill-opacity="1.00" fill-rule="winding" ub:uuid="548200d8-0674-4556-be40-67c5843f86a5" ub:parent="cdb4e8a8-5d27-4401-a500-49f349e7b863"/>
    </g>
    <g ub:z-value="-999997" ub:fill-on-dark-background="#ffffff" ub:fill-on-light-background="#000000" ub:uuid="0adc8702-8969-4e46-9657-baf8ef3fcfea" ub:layer="-1000">
        <polygon points="645.853,-850.694 642.512,-848.108 642,-847.654 641.22,-846.911 640.442,-846.096 639.58,-845.121 638.29,-843.56 637.663,-842.724 637.064,-841.818 636.494,-840.841 635.961,-839.808 634.89,-837.407 632.389,-832.127 628.931,-825.211 625.829,-818.659 624.849,-816.381 624.287,-814.894 623.551,-812.609 623.156,-811.129 622.674,-808.863 622.443,-807.424 622.277,-806.01 622.177,-804.635 622.144,-803.299 622.182,-801.311 622.296,-799.407 622.485,-797.576 622.652,-796.443 622.875,-795.388 623.159,-794.412 623.501,-793.509 623.882,-792.712 624.889,-791.109 626.02,-789.655 627.287,-788.324 628.229,-787.5 629.182,-786.81 629.795,-786.444 630.097,-786.287 630.097,-786.287 630.791,-785.138 630.411,-784.221 629.494,-783.841 629.179,-783.88 628.891,-783.99 628.891,-783.99 628.502,-784.196 627.731,-784.66 626.609,-785.475 625.476,-786.466 624.054,-787.963 622.764,-789.622 621.635,-791.417 621.117,-792.488 620.698,-793.591 620.359,-794.759 620.098,-795.987 619.91,-797.266 619.71,-799.197 619.59,-801.21 619.55,-803.295 619.586,-804.761 619.695,-806.256 619.874,-807.782 620.127,-809.353 620.631,-811.721 621.066,-813.354 621.835,-815.739 622.449,-817.364 623.475,-819.747 626.599,-826.347 630.058,-833.266 632.538,-838.501 633.611,-840.907 634.22,-842.088 634.86,-843.186 635.541,-844.217 636.263,-845.179 637.602,-846.8 638.53,-847.849 639.386,-848.746 640.24,-849.56 640.904,-850.143 644.265,-852.745 644.265,-852.745 645.059,-853.017 645.976,-852.637 646.356,-851.72 645.853,-850.694 645.853,-850.694 " transform="matrix(1, 0, 0, 1, 0, 0)" fill="#000000" fill-opacity="1.00" fill-rule="winding" ub:uuid="d0b39810-78eb-496d-9a0e-dbf1f1c568aa" ub:parent="0adc8702-8969-4e46-9657-baf8ef3fcfea"/>
    </g>
    <g ub:z-value="-999996" ub:fill-on-dark-background="#66c0ff" ub:fill-on-light-background="#004080" ub:uuid="e4acecea-7b11-43e9-84c6-78db522f1ae7" ub:layer="-1000">
        <polygon points="629.375,-775.628 625.84,-775.669 624.1,-775.815 622.749,-776.029 621.554,-776.305 620.568,-776.6 619.761,-776.896 618.715,-777.362 617.498,-778.022 616.181,-778.898 615.003,-779.839 613.88,-780.891 612.917,-781.948 612.188,-782.879 611.669,-783.635 611.19,-784.422 610.754,-785.237 610.364,-786.074 610.021,-786.93 609.814,-787.53 609.813,-787.526 609.269,-790.85 610.085,-794.889 612.308,-798.187 615.607,-800.411 619.645,-801.226 622.915,-800.701 625.756,-799.237 628,-797.005 629.478,-794.174 629.476,-794.169 629.494,-794.104 629.411,-794.311 629.315,-794.517 629.208,-794.718 629.092,-794.909 628.971,-795.085 628.674,-795.454 628.679,-795.439 628.594,-795.522 628.453,-795.633 628.175,-795.817 627.995,-795.924 627.468,-796.165 627.179,-796.271 626.73,-796.402 626.71,-796.4 626.674,-796.407 626.386,-796.415 629.614,-796.379 629.614,-796.379 633.611,-795.531 636.871,-793.301 639.066,-790.016 639.871,-786.003 639.055,-781.964 636.831,-778.666 633.533,-776.442 629.494,-775.627 629.375,-775.628 629.375,-775.628 " transform="matrix(1, 0, 0, 1, 0, 0)" fill="#004080" fill-opacity="0.50" stroke="#004080" stroke-width="1" stroke-opacity="0.10" fill-rule="winding" ub:uuid="b8d6b612-5b20-4266-8d19-51cbe8548e1e" ub:parent="e4acecea-7b11-43e9-84c6-78db522f1ae7"/>
        <polygon points="609.65,-788.066 609.421,-788.94 609.14,-790.433 608.977,-792.173 608.976,-793.873 609.116,-795.522 609.364,-797.057 609.674,-798.446 610.039,-799.764 610.473,-801.067 610.981,-802.352 611.552,-803.586 612.238,-804.906 612.941,-806.154 613.639,-807.29 614.979,-809.38 616.696,-812.165 617.484,-813.327 618.213,-814.297 618.802,-815.002 618.802,-815.002 622.285,-817.681 624.413,-818.417 626.723,-818.675 630.762,-817.86 634.06,-815.636 636.284,-812.338 637.099,-808.299 636.446,-804.668 634.644,-801.597 634.644,-801.597 634.472,-801.402 634.371,-801.265 634.26,-801.113 632.561,-798.356 631.168,-796.182 631.096,-796.064 629.614,-796.379 629.614,-796.379 628.319,-796.393 628,-797.005 625.756,-799.237 622.915,-800.701 619.645,-801.226 615.607,-800.411 612.308,-798.187 610.085,-794.889 609.269,-790.85 609.768,-787.804 609.648,-788.061 609.65,-788.066 628.319,-796.393 629.108,-794.882 629.092,-794.909 628.971,-795.085 628.674,-795.454 628.679,-795.439 628.594,-795.522 628.453,-795.633 628.175,-795.817 627.995,-795.924 627.468,-796.165 627.179,-796.271 626.73,-796.402 626.71,-796.4 626.674,-796.407 626.386,-796.415 628.319,-796.393 609.65,-788.066 629.108,-794.882 629.429,-794.268 629.411,-794.311 629.315,-794.517 629.208,-794.718 629.108,-794.882 609.65,-788.066 629.429,-794.268 629.478,-794.174 629.476,-794.169 629.494,-794.104 629.429,-794.268 609.65,-788.066 " transform="matrix(1, 0, 0, 1, 0, 0)" fill="#004080" fill-opacity="0.50" stroke="#004080" stroke-width="1" stroke-opacity="0.10" fill-rule="winding" ub:uuid="538c7877-d896-4915-a262-b428fba6732a" ub:parent="e4acecea-7b11-43e9-84c6-78db522f1ae7"/>
        <polygon points="619.386,-815.636 620.096,-816.33 621.17,-817.228 622.225,-817.983 623.273,-818.639 624.371,-819.248 625.552,-819.823 626.758,-820.302 627.781,-820.621 628.843,-820.873 629.937,-821.051 631.051,-821.148 632.175,-821.163 633.294,-821.093 634.396,-820.941 635.666,-820.662 637.073,-820.233 638.595,-819.625 640.029,-818.909 641.059,-818.299 641.06,-818.3 643.12,-816.675 644.71,-814.587 645.734,-812.13 646.096,-809.402 645.281,-805.363 643.057,-802.064 639.759,-799.841 635.72,-799.025 633.188,-799.373 634.26,-801.113 634.371,-801.265 634.472,-801.402 634.644,-801.597 634.644,-801.597 636.446,-804.668 637.099,-808.299 636.284,-812.338 634.06,-815.636 630.762,-817.86 626.723,-818.675 624.413,-818.417 622.285,-817.681 619.126,-815.252 619.386,-815.636 " transform="matrix(1, 0, 0, 1, 0, 0)" fill="#004080" fill-opacity="0.50" stroke="#004080" stroke-width="1" stroke-opacity="0.10" fill-rule="winding" ub:uuid="d5747a29-da23-45c5-b67b-db5dd576eff7" ub:parent="e4acecea-7b11-43e9-84c6-78db522f1ae7"/>
        <polygon points="641.67,-817.902 642.621,-817.231 643.945,-816.199 645.197,-815.141 646.343,-814.085 647.285,-813.133 648.208,-812.077 649.071,-810.949 649.855,-809.774 650.552,-808.57 651.136,-807.414 651.629,-806.318 652.072,-805.211 652.467,-804.083 652.819,-802.906 653.156,-801.497 653.403,-799.833 653.489,-798.109 653.403,-796.385 653.236,-795.186 653.237,-795.185 652.051,-791.694 649.779,-788.891 646.67,-787.026 642.975,-786.349 639.667,-787.017 639.066,-790.016 636.871,-793.301 633.611,-795.531 632.805,-795.702 632.598,-796.725 632.679,-797.816 632.73,-797.669 632.793,-797.462 632.794,-797.488 632.754,-797.768 632.737,-798.109 632.754,-798.45 632.713,-798.265 632.712,-798.266 632.679,-797.816 632.641,-797.924 632.53,-798.201 632.502,-798.263 632.561,-798.356 633.188,-799.373 635.72,-799.025 639.759,-799.841 643.057,-802.064 645.281,-805.363 646.096,-809.402 645.734,-812.13 644.71,-814.587 643.12,-816.675 641.381,-818.047 641.671,-817.903 641.67,-817.902 " transform="matrix(1, 0, 0, 1, 0, 0)" fill="#004080" fill-opacity="0.50" stroke="#004080" stroke-width="1" stroke-opacity="0.10" fill-rule="winding" ub:uuid="4abdab92-1a6b-4ef5-a437-f440d7226845" ub:parent="e4acecea-7b11-43e9-84c6-78db522f1ae7"/>
        <polygon points="653.14,-794.641 652.829,-793.137 652.859,-793.272 652.841,-793.008 652.758,-791.427 652.471,-789.605 652.196,-788.556 651.856,-787.548 651.46,-786.587 651.016,-785.676 650.384,-784.576 649.532,-783.321 648.568,-782.104 647.604,-781.023 646.58,-779.999 645.499,-779.035 644.35,-778.122 643.104,-777.251 641.758,-776.444 640.706,-775.909 640.709,-775.908 638.489,-775.099 636.066,-774.814 632.027,-775.629 631.446,-776.021 633.533,-776.442 636.831,-778.666 639.055,-781.964 639.871,-786.003 639.667,-787.017 642.975,-786.349 646.67,-787.026 649.779,-788.891 652.051,-791.694 653.179,-795.012 653.141,-794.639 653.14,-794.641 632.805,-795.702 632.273,-795.815 632.412,-796.855 632.633,-797.943 632.641,-797.924 632.679,-797.816 632.598,-796.725 632.805,-795.702 653.14,-794.641 632.679,-797.816 632.73,-797.669 632.793,-797.462 632.794,-797.488 632.754,-797.768 632.737,-798.109 632.754,-798.45 632.713,-798.265 632.712,-798.266 632.679,-797.816 653.14,-794.641 " transform="matrix(1, 0, 0, 1, 0, 0)" fill="#004080" fill-opacity="0.50" stroke="#004080" stroke-width="1" stroke-opacity="0.10" fill-rule="winding" ub:uuid="7eb58ad6-cc76-4690-9939-3310dc2d10d5" ub:parent="e4acecea-7b11-43e9-84c6-78db522f1ae7"/>
        <polygon points="639.92,-775.556 638.802,-775.12 637.317,-774.67 636.026,-774.376 634.838,-774.168 633.64,-774.018 632.434,-773.928 631.267,-773.898 630.102,-773.94 628.993,-774.064 627.908,-774.267 626.859,-774.543 625.851,-774.882 624.89,-775.278 623.979,-775.722 623.71,-775.877 624.1,-775.815 625.84,-775.669 629.375,-775.628 629.375,-775.628 629.494,-775.627 631.446,-776.021 632.027,-775.629 636.066,-774.814 638.489,-775.099 640.228,-775.733 639.923,-775.555 639.92,-775.556 " transform="matrix(1, 0, 0, 1, 0, 0)" fill="#004080" fill-opacity="0.50" stroke="#004080" stroke-width="1" stroke-opacity="0.10" fill-rule="winding" ub:uuid="660796d0-9081-4369-9a9f-ea451e58ec41" ub:parent="e4acecea-7b11-43e9-84c6-78db522f1ae7"/>
        <polygon points="616.165,-811.304 616.459,-812.428 616.985,-814.136 616.982,-814.139 618.428,-817.07 620.682,-819.387 623.566,-820.908 626.9,-821.455 629.364,-820.958 628.843,-820.873 627.781,-820.621 626.758,-820.302 625.552,-819.823 624.371,-819.248 623.273,-818.639 622.225,-817.983 621.17,-817.228 620.096,-816.33 619.386,-815.636 619.126,-815.252 618.802,-815.002 618.802,-815.002 618.213,-814.297 617.484,-813.327 616.696,-812.165 616.165,-811.304 632.273,-795.815 631.096,-796.064 631.168,-796.182 632.502,-798.263 632.53,-798.201 632.633,-797.943 632.412,-796.855 632.273,-795.815 616.165,-811.304 " transform="matrix(1, 0, 0, 1, 0, 0)" fill="#004080" fill-opacity="0.50" stroke="#004080" stroke-width="1" stroke-opacity="0.10" fill-rule="winding" ub:uuid="54afc7bb-687e-46f0-ac24-9c030dec40a4" ub:parent="e4acecea-7b11-43e9-84c6-78db522f1ae7"/>
        <polygon points="617.056,-814.36 617.748,-816.436 618.811,-819.624 619.916,-822.771 620.737,-824.907 621.49,-826.656 622.346,-828.404 623.256,-830.062 624.421,-832.049 625.738,-834.525 626.428,-835.714 627.212,-836.89 628.074,-838.018 628.996,-839.073 629.944,-840.03 631.012,-841.009 631.919,-841.767 632.783,-842.43 633.639,-843.03 634.215,-843.397 634.214,-843.398 636.8,-844.555 639.702,-844.966 643.741,-844.151 647.039,-841.927 649.263,-838.629 650.078,-834.59 649.727,-831.904 648.735,-829.48 647.192,-827.409 645.19,-825.782 645.188,-825.783 645.238,-825.822 645.056,-825.695 644.883,-825.562 644.751,-825.456 644.263,-825.008 644.182,-824.928 644.136,-824.876 644.099,-824.828 644.053,-824.758 643.982,-824.634 642.558,-821.964 641.275,-819.766 640.758,-818.83 640.624,-818.556 640.029,-818.909 638.595,-819.625 637.073,-820.233 635.666,-820.662 634.396,-820.941 633.294,-821.093 632.175,-821.163 631.051,-821.148 629.937,-821.051 629.364,-820.958 626.9,-821.455 623.566,-820.908 620.682,-819.387 618.428,-817.07 617.035,-814.246 617.054,-814.363 617.056,-814.36 " transform="matrix(1, 0, 0, 1, 0, 0)" fill="#004080" fill-opacity="0.50" stroke="#004080" stroke-width="1" stroke-opacity="0.10" fill-rule="winding" ub:uuid="6145922a-acd2-4abb-b2cb-475ca2a0df00" ub:parent="e4acecea-7b11-43e9-84c6-78db522f1ae7"/>
        <polygon points="634.774,-843.721 635.334,-844.018 636.203,-844.419 637.092,-844.764 637.993,-845.051 638.899,-845.281 639.805,-845.455 640.704,-845.575 641.859,-845.655 643.33,-845.645 645.041,-845.474 646.711,-845.141 648.314,-844.66 649.636,-844.14 650.633,-843.671 651.536,-843.178 652.457,-842.592 653.323,-841.957 654.131,-841.282 654.666,-840.783 654.666,-840.783 657.045,-837.416 657.694,-835.404 657.921,-833.237 657.106,-829.198 654.882,-825.9 651.584,-823.676 647.545,-822.861 643.647,-823.618 643.492,-823.717 643.982,-824.634 644.053,-824.758 644.099,-824.828 644.136,-824.876 644.182,-824.928 644.263,-825.008 644.751,-825.456 644.883,-825.562 645.056,-825.695 645.238,-825.822 645.188,-825.783 645.19,-825.782 647.192,-827.409 648.735,-829.48 649.727,-831.904 650.078,-834.59 649.263,-838.629 647.039,-841.927 643.741,-844.151 639.702,-844.966 636.8,-844.555 634.503,-843.527 634.772,-843.722 634.774,-843.721 " transform="matrix(1, 0, 0, 1, 0, 0)" fill="#004080" fill-opacity="0.50" stroke="#004080" stroke-width="1" stroke-opacity="0.10" fill-rule="winding" ub:uuid="e562dab5-644e-4d5f-8728-e2c0332403f4" ub:parent="e4acecea-7b11-43e9-84c6-78db522f1ae7"/>
        <polygon points="655.085,-840.364 655.756,-839.633 656.805,-838.315 657.785,-836.841 658.704,-835.279 659.683,-833.517 660.423,-832.086 661.044,-830.711 661.578,-829.268 662.013,-827.819 662.364,-826.362 662.654,-824.829 662.935,-822.831 663.125,-820.762 663.211,-818.715 663.217,-816.488 663.217,-813.653 663.199,-812.349 663.073,-810.738 662.889,-809.45 662.89,-809.449 661.708,-805.952 659.435,-803.143 656.324,-801.274 653.272,-800.714 653.156,-801.497 652.819,-802.906 652.467,-804.083 652.072,-805.211 651.629,-806.318 651.136,-807.414 650.552,-808.57 649.855,-809.774 649.071,-810.949 648.208,-812.077 647.285,-813.133 646.343,-814.085 645.197,-815.141 643.945,-816.199 642.621,-817.231 642.463,-817.342 642.462,-818.316 642.418,-819.382 642.323,-820.426 642.192,-821.338 642.558,-821.964 643.492,-823.717 643.647,-823.618 647.545,-822.861 651.584,-823.676 654.882,-825.9 657.106,-829.198 657.921,-833.237 657.694,-835.404 657.045,-837.416 654.84,-840.538 655.085,-840.364 655.085,-840.364 " transform="matrix(1, 0, 0, 1, 0, 0)" fill="#004080" fill-opacity="0.50" stroke="#004080" stroke-width="1" stroke-opacity="0.10" fill-rule="winding" ub:uuid="0c5ae14a-6d1d-4ff8-89bf-2f5a3a850bb7" ub:parent="e4acecea-7b11-43e9-84c6-78db522f1ae7"/>
        <polygon points="662.771,-808.797 662.494,-807.528 662.051,-805.927 661.436,-804.07 660.669,-801.924 659.877,-799.866 659.21,-798.296 658.663,-797.143 658.107,-796.087 657.493,-795.045 656.847,-794.07 656.128,-793.094 655.23,-791.994 654.443,-791.115 653.693,-790.339 652.92,-789.617 652.352,-789.152 652.471,-789.605 652.758,-791.427 652.841,-793.008 652.859,-793.272 652.829,-793.137 653.14,-794.641 653.141,-794.639 653.179,-795.012 653.237,-795.185 653.236,-795.186 653.403,-796.385 653.489,-798.109 653.403,-799.833 653.272,-800.714 656.324,-801.274 659.435,-803.143 661.708,-805.952 662.819,-809.239 662.772,-808.795 662.771,-808.797 " transform="matrix(1, 0, 0, 1, 0, 0)" fill="#004080" fill-opacity="0.50" stroke="#004080" stroke-width="1" stroke-opacity="0.10" fill-rule="winding" ub:uuid="f731f45b-48f0-4fc4-bc6a-743979709934" ub:parent="e4acecea-7b11-43e9-84c6-78db522f1ae7"/>
        <polygon points="620.293,-823.752 620.306,-823.928 620.736,-827.946 621.343,-833.41 621.342,-833.411 622.444,-837.044 624.711,-839.973 627.871,-841.928 631.656,-842.64 632.765,-842.416 631.919,-841.767 631.012,-841.009 629.944,-840.03 628.996,-839.073 628.074,-838.018 627.212,-836.89 626.428,-835.714 625.738,-834.525 624.421,-832.049 623.256,-830.062 622.346,-828.404 621.49,-826.656 620.737,-824.907 620.293,-823.752 640.774,-818.858 640.758,-818.477 640.624,-818.556 640.758,-818.83 640.774,-818.858 620.293,-823.752 " transform="matrix(1, 0, 0, 1, 0, 0)" fill="#004080" fill-opacity="0.50" stroke="#004080" stroke-width="1" stroke-opacity="0.10" fill-rule="winding" ub:uuid="b30935da-66ea-49c1-9c62-63eef6f5f973" ub:parent="e4acecea-7b11-43e9-84c6-78db522f1ae7"/>
        <polygon points="621.378,-833.691 621.943,-837.75 622.45,-840.525 623.025,-843.182 623.702,-845.885 624.7,-849.337 625.813,-852.718 627.173,-856.595 628.768,-860.888 630.881,-866.507 631.814,-868.768 632.519,-870.299 633.273,-871.777 634.133,-873.276 635.403,-875.52 636.483,-877.563 637.29,-878.876 638.045,-879.931 638.785,-880.829 639.274,-881.358 639.274,-881.358 642.631,-883.712 646.788,-884.578 650.827,-883.762 654.125,-881.539 656.349,-878.24 657.164,-874.201 656.398,-870.281 654.302,-867.046 654.302,-867.045 654.302,-867.045 654.302,-867.046 654.445,-867.211 654.494,-867.278 654.557,-867.365 654.672,-867.572 653.599,-865.542 652.171,-863.013 651.483,-861.823 651.2,-861.26 650.867,-860.543 650.244,-859.042 648.206,-853.619 646.688,-849.534 645.454,-846.017 645.26,-845.43 645.041,-845.474 643.33,-845.645 641.859,-845.655 640.704,-845.575 639.805,-845.455 638.899,-845.281 637.993,-845.051 637.092,-844.764 636.203,-844.419 635.334,-844.018 634.774,-843.721 634.772,-843.722 634.503,-843.527 634.214,-843.398 634.215,-843.397 633.639,-843.03 632.783,-842.43 632.765,-842.416 631.656,-842.64 627.871,-841.928 624.711,-839.973 622.444,-837.044 621.363,-833.478 621.377,-833.693 621.378,-833.691 " transform="matrix(1, 0, 0, 1, 0, 0)" fill="#004080" fill-opacity="0.50" stroke="#004080" stroke-width="1" stroke-opacity="0.10" fill-rule="winding" ub:uuid="c0557c4c-4500-4447-b8ae-7f79db5f4006" ub:parent="e4acecea-7b11-43e9-84c6-78db522f1ae7"/>
        <polygon points="640.086,-882.123 641.097,-882.908 642.432,-883.572 639.758,-881.697 640.085,-882.123 640.086,-882.123 642.772,-883.741 643.835,-884.27 647.877,-884.806 652.051,-883.69 654.882,-881.647 656.424,-879.72 657.255,-878.174 657.739,-876.929 658.101,-875.656 658.383,-874.297 658.638,-872.681 658.782,-871.405 658.869,-870.119 658.894,-868.717 658.894,-866.591 658.874,-863.382 658.759,-861.14 658.607,-859.527 658.021,-844.401 658.021,-844.4 657.099,-840.502 656.141,-839.149 655.756,-839.633 655.085,-840.364 655.085,-840.364 654.84,-840.538 654.666,-840.783 654.666,-840.783 654.131,-841.282 653.323,-841.957 652.457,-842.592 651.536,-843.178 650.633,-843.671 649.636,-844.14 648.314,-844.66 646.711,-845.141 645.26,-845.43 645.454,-846.017 646.688,-849.534 648.206,-853.619 650.244,-859.042 650.867,-860.543 651.2,-861.26 651.483,-861.823 652.171,-863.013 653.599,-865.542 654.672,-867.572 654.557,-867.365 654.494,-867.278 654.445,-867.211 654.302,-867.046 656.398,-870.281 657.164,-874.201 656.349,-878.24 654.125,-881.539 650.827,-883.762 646.788,-884.578 642.772,-883.741 640.086,-882.123 654.302,-867.046 654.302,-867.045 654.302,-867.045 654.302,-867.046 640.086,-882.123 " transform="matrix(1, 0, 0, 1, 0, 0)" fill="#004080" fill-opacity="0.50" stroke="#004080" stroke-width="1" stroke-opacity="0.10" fill-rule="winding" ub:uuid="a10445fd-22fe-4385-a839-f074ba6ad5be" ub:parent="e4acecea-7b11-43e9-84c6-78db522f1ae7"/>
        <polygon points="658.019,-844.349 657.801,-839.377 657.656,-837.89 657.608,-837.108 656.805,-838.315 656.141,-839.149 657.099,-840.502 658.02,-844.396 658.019,-844.348 658.019,-844.349 642.463,-817.342 641.67,-817.902 641.671,-817.903 641.381,-818.047 641.06,-818.3 641.059,-818.299 640.758,-818.477 640.774,-818.858 641.275,-819.766 642.192,-821.338 642.323,-820.426 642.418,-819.382 642.462,-818.316 642.463,-817.342 658.019,-844.349 " transform="matrix(1, 0, 0, 1, 0, 0)" fill="#004080" fill-opacity="0.50" stroke="#004080" stroke-width="1" stroke-opacity="0.10" fill-rule="winding" ub:uuid="6da9a080-847b-46b9-9616-2cb7353aae31" ub:parent="e4acecea-7b11-43e9-84c6-78db522f1ae7"/>
        <polygon points="619.401,-821.305 619.384,-821.364 618.695,-824.934 618.332,-828.922 618.332,-828.919 618.302,-829.375 618.292,-829.834 619.108,-833.873 621.331,-837.171 621.918,-837.567 621.378,-833.691 621.377,-833.693 621.363,-833.478 621.342,-833.411 621.343,-833.41 620.736,-827.946 620.306,-823.928 620.293,-823.752 619.916,-822.771 619.401,-821.305 " transform="matrix(1, 0, 0, 1, 0, 0)" fill="#004080" fill-opacity="0.50" stroke="#004080" stroke-width="1" stroke-opacity="0.10" fill-rule="winding" ub:uuid="af4c8f18-230c-484d-89c4-8ce68920f12d" ub:parent="e4acecea-7b11-43e9-84c6-78db522f1ae7"/>
        <polygon points="618.292,-829.821 618.292,-829.834 618.293,-829.819 618.292,-829.821 618.292,-829.821 618.292,-829.834 618.294,-833.542 618.56,-836.554 619.148,-839.73 620.809,-845.137 624.845,-854.373 626.843,-857.954 628.636,-860.533 627.173,-856.595 625.813,-852.718 624.7,-849.337 623.702,-845.885 623.025,-843.182 622.45,-840.525 621.943,-837.75 621.918,-837.567 621.331,-837.171 619.108,-833.873 618.292,-829.834 618.292,-829.821 " transform="matrix(1, 0, 0, 1, 0, 0)" fill="#004080" fill-opacity="0.50" stroke="#004080" stroke-width="1" stroke-opacity="0.10" fill-rule="winding" ub:uuid="dd63fa8e-5d3c-4f9c-ad7a-7f9852f9c017" ub:parent="e4acecea-7b11-43e9-84c6-78db522f1ae7"/>
        <polygon points="658.891,-866.092 659.048,-865.939 660.201,-864.592 661.233,-863.123 662.154,-861.484 662.97,-859.646 663.874,-856.827 666.168,-845.223 666.586,-841.338 666.586,-841.342 666.637,-840.306 665.822,-836.267 663.598,-832.969 660.858,-831.122 660.423,-832.086 659.683,-833.517 658.704,-835.279 657.785,-836.841 657.608,-837.108 657.656,-837.89 657.801,-839.377 658.019,-844.349 658.019,-844.348 658.02,-844.396 658.021,-844.4 658.021,-844.401 658.607,-859.527 658.759,-861.14 658.874,-863.382 658.891,-866.092 " transform="matrix(1, 0, 0, 1, 0, 0)" fill="#004080" fill-opacity="0.50" stroke="#004080" stroke-width="1" stroke-opacity="0.10" fill-rule="winding" ub:uuid="9acf6252-1dea-4cb2-8893-5c6c99ed76c1" ub:parent="e4acecea-7b11-43e9-84c6-78db522f1ae7"/>
        <polygon points="666.637,-840.306 666.584,-836.108 665.164,-825.387 664.188,-821.117 663.213,-818.125 663.211,-818.715 663.125,-820.762 662.935,-822.831 662.654,-824.829 662.364,-826.362 662.013,-827.819 661.578,-829.268 661.044,-830.711 660.858,-831.122 663.598,-832.969 665.822,-836.267 666.637,-840.306 " transform="matrix(1, 0, 0, 1, 0, 0)" fill="#004080" fill-opacity="0.50" stroke="#004080" stroke-width="1" stroke-opacity="0.10" fill-rule="winding" ub:uuid="1fd31337-a1d0-4846-a1f4-7cd126be050e" ub:parent="e4acecea-7b11-43e9-84c6-78db522f1ae7"/>
    </g>
</svg>
