<?xml version="1.0" encoding="UTF-8"?>
<svg xmlns="http://www.w3.org/2000/svg" xmlns:xlink="http://www.w3.org/1999/xlink" xmlns:ub="http://uniboard.mnemis.com/document" xmlns:xhtml="http://www.w3.org/1999/xhtml" version="1.1" ub:version="4.8.0" ub:uuid="5ca17111-cbbd-4567-abf9-3502d751917d" viewBox="-721 -919 1443 1838" ub:nominal-size="1343x1738" ub:dark-background="false" ub:crossed-background="true" ub:ruled-background="false" ub:grid-size="55" ub:intermediate-lines="0" pageDpi="158">
    <rect fill="white" x="-721" y="-919" width="1443" height="1838"/>
    <image xlink:href="images/{50274548-54f5-461d-885d-db9f12fd933d}.png" x="0" y="0" width="683" height="123" transform="matrix(1, 0, 0, 1, -174.98, -854.785)" ub:z-value="-999999.000000" ub:background="false" ub:uuid="50274548-54f5-461d-885d-db9f12fd933d" ub:source="/Users/khale/AppData/Local/OpenBoard/document/OpenBoard Document 2023-05-07 16-55-23.504/images/{50274548-54f5-461d-885d-db9f12fd933d}.png" ub:layer="-1000"/>
    <g ub:z-value="-999998" ub:fill-on-dark-background="#ffffff" ub:fill-on-light-background="#000000" ub:uuid="6c8d7b82-df8f-4a96-943d-7af4e053481d" ub:layer="-1000">
        <polygon points="596.738,-811.263 599.863,-813.538 600.648,-814.031 601.731,-814.64 602.506,-815.022 603.298,-815.338 604.104,-815.58 604.918,-815.743 605.737,-815.825 606.522,-815.826 606.958,-815.793 607.354,-815.74 607.743,-815.666 608.125,-815.569 608.499,-815.45 608.863,-815.308 609.218,-815.145 609.562,-814.959 609.891,-814.754 610.203,-814.534 610.496,-814.3 610.772,-814.052 611.029,-813.789 611.268,-813.511 611.486,-813.218 611.682,-812.912 611.856,-812.593 612.007,-812.262 612.142,-811.896 612.322,-811.255 612.461,-810.538 612.558,-809.767 612.614,-808.939 612.633,-808.053 612.614,-807.151 612.559,-806.28 612.465,-805.439 612.333,-804.628 612.164,-803.858 612.04,-803.419 611.878,-802.959 611.51,-802.129 611.026,-801.256 610.44,-800.368 609.758,-799.464 609.029,-798.589 608.297,-797.785 607.56,-797.047 606.815,-796.377 606.135,-795.834 602.341,-792.475 600.257,-790.6 599.503,-789.995 598.459,-789.212 597.21,-788.31 595.168,-786.813 594.891,-786.524 594.56,-786.136 594.25,-785.706 594.178,-785.585 594.139,-785.498 594.128,-785.46 594.128,-785.467 594.125,-785.501 594.115,-785.534 594.112,-785.54 594.137,-785.509 594.206,-785.444 594.331,-785.352 594.503,-785.248 594.707,-785.148 594.943,-785.054 595.211,-784.967 595.477,-784.899 596.213,-784.775 596.998,-784.715 599.367,-784.773 600.492,-784.9 602.998,-785.398 604.51,-785.551 606.225,-785.606 607.496,-785.766 608.436,-785.967 608.989,-786.127 609.496,-786.322 609.675,-786.407 609.862,-786.507 610.029,-786.609 610.177,-786.712 610.306,-786.816 610.453,-786.954 610.453,-786.954 611.336,-787.3 612.253,-786.92 612.633,-786.003 612.218,-785.053 612.218,-785.053 612.002,-784.853 611.734,-784.637 611.449,-784.438 611.149,-784.254 610.835,-784.086 610.478,-783.921 609.809,-783.666 609.047,-783.446 607.912,-783.205 606.416,-783.019 604.672,-782.962 603.417,-782.838 600.926,-782.342 599.508,-782.183 596.992,-782.121 595.909,-782.199 594.984,-782.352 594.498,-782.473 594.066,-782.612 593.654,-782.777 593.261,-782.971 592.888,-783.196 592.538,-783.458 592.218,-783.764 591.94,-784.123 591.721,-784.536 591.581,-784.992 591.534,-785.467 591.578,-785.932 591.696,-786.37 591.874,-786.776 592.105,-787.165 592.521,-787.738 592.985,-788.284 593.573,-788.859 595.682,-790.406 596.923,-791.303 597.92,-792.05 598.549,-792.552 600.616,-794.412 604.43,-797.789 605.135,-798.353 605.773,-798.928 606.419,-799.574 607.071,-800.291 607.726,-801.077 608.323,-801.868 608.81,-802.605 609.19,-803.289 609.479,-803.946 609.568,-804.203 609.642,-804.465 609.785,-805.113 609.895,-805.79 609.974,-806.505 610.023,-807.259 610.039,-808.053 610.023,-808.826 609.975,-809.521 609.899,-810.133 609.797,-810.661 609.665,-811.127 609.61,-811.271 609.536,-811.433 609.45,-811.59 609.353,-811.742 609.242,-811.89 609.117,-812.036 608.977,-812.179 608.82,-812.32 608.647,-812.458 608.457,-812.593 608.259,-812.716 608.058,-812.824 607.85,-812.92 607.636,-813.004 607.413,-813.075 607.181,-813.133 606.939,-813.18 606.686,-813.213 606.456,-813.233 605.867,-813.234 605.302,-813.177 604.733,-813.063 604.155,-812.89 603.564,-812.653 602.955,-812.352 601.962,-811.794 601.364,-811.422 598.264,-809.166 598.264,-809.166 597.501,-808.917 596.584,-809.297 596.204,-810.214 596.737,-811.263 596.738,-811.263 " transform="matrix(1, 0, 0, 1, 0, 0)" fill="#000000" fill-opacity="1.00" fill-rule="winding" ub:uuid="862a8a41-fa13-469b-b2d8-aabb445360a7" ub:parent="6c8d7b82-df8f-4a96-943d-7af4e053481d"/>
    </g>
    <g ub:z-value="-999997" ub:fill-on-dark-background="#ffffff" ub:fill-on-light-background="#000000" ub:uuid="1714a9c2-686d-43d2-a79a-3a2ca6bbe874" ub:layer="-1000">
        <polygon points="608.757,-840.046 602.053,-839.969 600.807,-839.841 599.698,-839.652 598.786,-839.409 598.018,-839.107 597.234,-838.731 596.439,-838.286 595.636,-837.772 594.827,-837.189 594.012,-836.537 593.201,-835.824 591.942,-834.59 591.125,-833.708 589.858,-832.217 588.153,-830.068 586.446,-827.782 585.197,-825.979 584.426,-824.734 583.297,-822.678 582.601,-821.252 581.301,-818.326 580.055,-815.404 579.516,-814.061 578.953,-812.433 578.064,-809.493 576.592,-804.23 575.052,-799.194 574.726,-797.922 574.218,-795.557 573.541,-791.701 573.158,-789.024 572.93,-786.817 572.865,-785.649 572.857,-784.018 572.896,-775.192 573.064,-772.52 573.265,-771.12 574.935,-762.995 575.593,-760.818 576.408,-758.832 577.034,-757.635 577.034,-757.635 577.142,-757.349 577.181,-757.036 576.801,-756.119 575.883,-755.739 574.733,-756.437 574.733,-756.437 574.044,-757.765 573.147,-759.955 572.405,-762.421 570.72,-770.622 570.48,-772.283 570.302,-775.145 570.263,-784.011 570.272,-785.718 570.346,-787.04 570.584,-789.346 570.98,-792.116 571.669,-796.043 572.198,-798.503 572.564,-799.929 574.102,-804.958 575.571,-810.21 576.481,-813.219 577.084,-814.963 577.661,-816.404 578.923,-819.362 580.243,-822.334 580.999,-823.882 582.179,-826.028 583.034,-827.411 584.344,-829.301 586.096,-831.65 587.849,-833.858 589.177,-835.42 590.089,-836.406 591.424,-837.714 592.343,-838.523 593.257,-839.254 594.177,-839.917 595.104,-840.51 596.038,-841.033 596.984,-841.487 597.988,-841.877 599.152,-842.188 600.464,-842.413 601.984,-842.562 608.727,-842.64 608.727,-842.64 608.742,-842.64 609.659,-842.26 610.039,-841.343 609.664,-840.431 608.757,-840.046 608.757,-840.046 " transform="matrix(1, 0, 0, 1, 0, 0)" fill="#000000" fill-opacity="1.00" fill-rule="winding" ub:uuid="a7511f4d-e718-4f44-891d-ab581b552ae0" ub:parent="1714a9c2-686d-43d2-a79a-3a2ca6bbe874"/>
    </g>
    <g ub:z-value="-999996" ub:fill-on-dark-background="#66c0ff" ub:fill-on-light-background="#004080" ub:uuid="726554b8-879b-436d-89fb-d60ce0ef276a" ub:layer="-1000">
        <polygon points="591.37,-761.792 582.04,-761.862 580.039,-761.999 578.481,-762.199 576.854,-762.527 575.223,-763.014 573.701,-763.622 572.266,-764.339 570.92,-765.146 569.703,-765.995 568.543,-766.953 567.506,-768.007 566.573,-769.173 565.768,-770.427 565.104,-771.737 564.587,-773.072 564.209,-774.405 563.959,-775.715 563.804,-777.297 563.787,-778.647 563.787,-778.647 563.786,-778.735 564.602,-782.774 566.826,-786.073 570.124,-788.296 574.163,-789.112 578.183,-788.304 581.471,-786.101 583.699,-782.832 584.539,-778.824 584.539,-778.823 584.539,-778.133 584.488,-778.756 584.41,-779.158 584.275,-779.634 584.068,-780.165 583.786,-780.723 583.43,-781.276 583.016,-781.794 582.566,-782.251 582.064,-782.665 582.23,-782.546 582.268,-782.522 582.217,-782.547 582.078,-782.602 581.831,-782.674 581.76,-782.691 582.104,-782.649 582.351,-782.612 591.525,-782.544 591.525,-782.544 595.537,-781.707 598.811,-779.48 601.016,-776.19 601.824,-772.168 601.009,-768.129 598.785,-764.831 595.487,-762.607 591.448,-761.792 591.37,-761.792 591.37,-761.792 " transform="matrix(1, 0, 0, 1, 0, 0)" fill="#004080" fill-opacity="0.50" stroke="#004080" stroke-width="1" stroke-opacity="0.10" fill-rule="winding" ub:uuid="b5b767a2-a0ed-4194-bcb6-27d94f621178" ub:parent="726554b8-879b-436d-89fb-d60ce0ef276a"/>
        <polygon points="563.811,-779.449 563.913,-780.825 564.161,-782.563 564.546,-784.291 565.075,-786.009 565.636,-787.468 566.646,-790.245 567.656,-793.041 568.45,-794.874 569.532,-797.048 571.007,-799.681 572.767,-802.761 574.926,-806.496 576.812,-809.539 578.059,-811.419 579.115,-812.874 580.525,-814.633 581.742,-816.006 583.296,-817.597 584.734,-818.965 584.734,-818.965 587.966,-821.055 591.88,-821.819 595.919,-821.003 599.217,-818.779 601.441,-815.481 602.257,-811.442 601.388,-807.279 599.027,-803.919 599.027,-803.92 597.871,-802.824 596.865,-801.794 596.456,-801.334 595.558,-800.214 595.161,-799.663 594.324,-798.403 592.751,-795.869 590.759,-792.419 589.061,-789.446 587.838,-787.272 587.208,-785.996 587.034,-785.614 586.159,-783.18 585.943,-782.586 583.747,-782.602 583.699,-782.832 581.471,-786.101 578.183,-788.304 574.163,-789.112 570.124,-788.296 566.826,-786.073 564.602,-782.774 563.786,-778.735 563.793,-779.095 563.811,-779.45 563.811,-779.449 584.539,-778.443 584.528,-778.263 584.488,-778.756 584.41,-779.158 584.275,-779.634 584.068,-780.165 583.786,-780.723 583.43,-781.276 583.016,-781.794 582.566,-782.251 582.198,-782.555 582.217,-782.547 582.268,-782.522 582.23,-782.546 582.083,-782.651 582.104,-782.649 582.351,-782.612 583.747,-782.602 584.539,-778.824 584.539,-778.823 584.539,-778.443 563.811,-779.449 582.198,-782.555 582.08,-782.651 581.76,-782.691 581.831,-782.674 582.078,-782.602 582.198,-782.555 563.811,-779.449 582.08,-782.651 582.064,-782.665 582.083,-782.651 582.08,-782.651 563.811,-779.449 " transform="matrix(1, 0, 0, 1, 0, 0)" fill="#004080" fill-opacity="0.50" stroke="#004080" stroke-width="1" stroke-opacity="0.10" fill-rule="winding" ub:uuid="8279ae14-30e9-47cb-af7e-e6a8fd9533c1" ub:parent="726554b8-879b-436d-89fb-d60ce0ef276a"/>
        <polygon points="584.982,-819.193 586.412,-820.464 587.967,-821.755 590.158,-823.485 592.14,-825.001 593.933,-826.316 595.27,-827.249 596.265,-827.896 597.457,-828.565 598.71,-829.155 599.98,-829.65 601.107,-830.01 602.038,-830.258 603.137,-830.477 604.5,-830.622 605.987,-830.621 607.576,-830.426 609.213,-830.002 610.823,-829.335 611.706,-828.843 611.707,-828.844 613.786,-827.22 615.391,-825.126 616.426,-822.659 616.792,-819.916 615.977,-815.877 613.753,-812.579 610.455,-810.355 606.416,-809.54 606.196,-809.57 606.957,-810.099 607.046,-810.125 606.962,-810.103 606.986,-810.119 607.046,-810.164 606.961,-810.117 606.89,-810.083 606.798,-810.059 606.374,-809.978 605.651,-809.902 604.769,-809.904 603.751,-810.029 602.78,-810.281 602.077,-810.581 602.257,-811.442 601.441,-815.481 599.217,-818.779 595.919,-821.003 591.88,-821.819 587.966,-821.055 584.885,-819.063 584.982,-819.193 584.982,-819.193 606.196,-809.57 603.626,-809.919 602.78,-810.281 602.65,-810.315 602.071,-810.554 601.388,-807.279 599.027,-803.919 599.027,-803.92 598.904,-803.803 599.943,-804.73 600.982,-805.591 602.898,-807.104 604.591,-808.399 606.04,-809.461 606.196,-809.57 584.982,-819.193 606.89,-810.083 606.962,-810.103 606.957,-810.099 606.859,-810.07 606.884,-810.081 606.89,-810.083 584.982,-819.193 " transform="matrix(1, 0, 0, 1, 0, 0)" fill="#004080" fill-opacity="0.50" stroke="#004080" stroke-width="1" stroke-opacity="0.10" fill-rule="winding" ub:uuid="b900c310-6aa9-4134-aa7d-ba2895410fb9" ub:parent="726554b8-879b-436d-89fb-d60ce0ef276a"/>
        <polygon points="612.898,-828.019 613.643,-827.392 614.752,-826.238 615.624,-825.083 616.286,-823.99 616.806,-822.937 617.219,-821.905 617.543,-820.899 617.848,-819.644 618.104,-818.055 618.237,-816.298 618.246,-814.641 618.161,-812.637 617.972,-810.568 617.701,-808.643 617.181,-805.362 616.628,-801.696 616.185,-799.393 615.661,-797.168 615.101,-795.151 615.103,-795.149 613.697,-792.116 611.434,-789.712 608.506,-788.13 605.106,-787.56 601.067,-788.375 597.769,-790.599 595.545,-793.897 594.729,-797.936 594.913,-799.291 595.161,-799.663 595.558,-800.214 596.456,-801.334 596.865,-801.794 597.871,-802.824 598.904,-803.803 599.943,-804.73 600.982,-805.591 602.898,-807.104 604.591,-808.399 606.04,-809.461 606.196,-809.57 606.416,-809.54 610.455,-810.355 613.753,-812.579 615.977,-815.877 616.792,-819.916 616.426,-822.659 615.391,-825.126 613.786,-827.22 612.423,-828.285 612.898,-828.019 612.898,-828.019 602.071,-810.554 602.077,-810.581 602.78,-810.281 602.65,-810.315 602.071,-810.554 612.898,-828.019 606.196,-809.57 606.957,-810.099 606.859,-810.07 606.884,-810.081 606.89,-810.083 606.798,-810.059 606.374,-809.978 605.651,-809.902 604.769,-809.904 603.751,-810.029 602.78,-810.281 603.626,-809.919 606.196,-809.57 612.898,-828.019 606.957,-810.099 607.046,-810.125 606.962,-810.103 606.957,-810.099 612.898,-828.019 606.962,-810.103 606.986,-810.119 607.046,-810.164 606.961,-810.117 606.89,-810.083 606.962,-810.103 612.898,-828.019 " transform="matrix(1, 0, 0, 1, 0, 0)" fill="#004080" fill-opacity="0.50" stroke="#004080" stroke-width="1" stroke-opacity="0.10" fill-rule="winding" ub:uuid="218f3829-7f04-49cb-be9c-49b3960fdc4d" ub:parent="726554b8-879b-436d-89fb-d60ce0ef276a"/>
        <polygon points="614.984,-794.761 614.337,-792.755 613.542,-790.57 612.683,-788.459 611.09,-784.742 609.456,-780.99 608.601,-779.248 607.495,-777.239 606.573,-775.731 604.94,-773.238 602.986,-770.094 602.149,-768.839 601.26,-767.635 600.312,-766.477 599.256,-765.313 598.815,-764.876 601.009,-768.129 601.824,-772.168 601.016,-776.19 598.811,-779.48 595.537,-781.707 591.525,-782.544 591.525,-782.544 586.315,-782.583 587.432,-784.38 589.112,-786.945 589.503,-787.581 590.24,-788.919 590.526,-789.495 592.039,-792.971 593.559,-796.518 594.179,-798.038 594.296,-798.359 594.324,-798.403 594.913,-799.291 594.729,-797.936 595.545,-793.897 597.769,-790.599 601.067,-788.375 605.106,-787.56 608.506,-788.13 611.434,-789.712 613.697,-792.116 615.019,-794.967 614.986,-794.758 614.984,-794.761 598.738,-764.799 597.917,-763.986 596.652,-762.839 595.66,-762.02 594.665,-761.276 593.86,-760.739 593.861,-760.739 591.184,-759.479 588.153,-759.029 584.115,-759.845 581.018,-761.932 582.04,-761.862 591.37,-761.792 591.37,-761.792 591.448,-761.792 595.487,-762.607 598.738,-764.799 614.984,-794.761 584.539,-778.443 584.539,-778.133 584.528,-778.263 584.539,-778.443 614.984,-794.761 " transform="matrix(1, 0, 0, 1, 0, 0)" fill="#004080" fill-opacity="0.50" stroke="#004080" stroke-width="1" stroke-opacity="0.10" fill-rule="winding" ub:uuid="c0a2e6ce-4267-42e2-806f-5d34a09ab1ae" ub:parent="726554b8-879b-436d-89fb-d60ce0ef276a"/>
        <polygon points="593.008,-760.235 591.996,-759.711 590.552,-759.102 589.122,-758.624 587.702,-758.253 586.236,-757.963 584.683,-757.762 583.27,-757.688 582.135,-757.708 581.214,-757.783 580.254,-757.92 579.255,-758.133 578.126,-758.466 576.857,-758.978 575.647,-759.622 574.59,-760.325 573.671,-761.058 572.87,-761.805 571.976,-762.776 571.285,-763.646 571.284,-763.646 570.163,-765.674 570.92,-765.146 572.266,-764.339 573.701,-763.622 575.223,-763.014 576.854,-762.527 578.481,-762.199 580.039,-761.999 581.018,-761.932 584.115,-759.845 588.153,-759.029 591.184,-759.479 593.437,-760.539 593.011,-760.234 593.008,-760.235 " transform="matrix(1, 0, 0, 1, 0, 0)" fill="#004080" fill-opacity="0.50" stroke="#004080" stroke-width="1" stroke-opacity="0.10" fill-rule="winding" ub:uuid="1e95a6ec-321f-43bf-91b2-5f91e885494b" ub:parent="726554b8-879b-436d-89fb-d60ce0ef276a"/>
        <polygon points="570.737,-764.407 570.029,-765.505 569.787,-765.936 570.163,-765.674 571.106,-763.968 570.737,-764.406 570.737,-764.407 570.514,-798.8 570.781,-799.892 571.393,-801.99 572.096,-804.054 572.801,-805.863 572.799,-805.865 574.329,-808.524 576.551,-810.61 577.995,-811.321 576.812,-809.539 574.926,-806.496 572.767,-802.761 571.007,-799.681 570.514,-798.8 570.737,-764.407 590.084,-791.237 589.191,-787.074 589.112,-786.945 587.432,-784.38 586.315,-782.583 585.943,-782.586 586.159,-783.18 587.034,-785.614 587.208,-785.996 587.838,-787.272 589.061,-789.446 590.084,-791.237 570.737,-764.407 " transform="matrix(1, 0, 0, 1, 0, 0)" fill="#004080" fill-opacity="0.50" stroke="#004080" stroke-width="1" stroke-opacity="0.10" fill-rule="winding" ub:uuid="f62b0978-40d6-4cde-88dc-d00293338f32" ub:parent="726554b8-879b-436d-89fb-d60ce0ef276a"/>
        <polygon points="572.928,-806.173 574.827,-810.597 576.772,-815.514 577.676,-817.528 578.927,-819.969 579.978,-821.8 582.054,-825.176 584.274,-828.946 585.569,-831.034 586.714,-832.653 587.862,-834.101 589.108,-835.501 590.564,-836.975 592.563,-838.974 594.405,-840.798 595.449,-841.757 596.657,-842.773 597.749,-843.593 598.806,-844.289 599.594,-844.733 599.592,-844.734 601.938,-845.654 604.522,-845.978 608.561,-845.163 611.859,-842.939 614.083,-839.641 614.898,-835.602 614.503,-832.757 613.391,-830.213 612.062,-828.566 611.707,-828.844 611.706,-828.843 610.823,-829.335 609.213,-830.002 607.576,-830.426 605.987,-830.621 604.5,-830.622 603.137,-830.477 602.038,-830.258 601.107,-830.01 599.98,-829.65 598.71,-829.155 597.457,-828.565 596.265,-827.896 595.27,-827.249 593.933,-826.316 592.14,-825.001 590.158,-823.485 587.967,-821.755 586.412,-820.464 584.982,-819.193 584.982,-819.193 584.885,-819.063 584.734,-818.965 584.734,-818.965 583.296,-817.597 581.742,-816.006 580.525,-814.633 579.115,-812.874 578.059,-811.419 577.995,-811.321 576.551,-810.61 574.329,-808.524 572.898,-806.037 572.926,-806.175 572.928,-806.173 " transform="matrix(1, 0, 0, 1, 0, 0)" fill="#004080" fill-opacity="0.50" stroke="#004080" stroke-width="1" stroke-opacity="0.10" fill-rule="winding" ub:uuid="729320a3-cd27-4496-b16e-3868d1bc046f" ub:parent="726554b8-879b-436d-89fb-d60ce0ef276a"/>
        <polygon points="600.174,-845.023 600.751,-845.284 601.639,-845.629 602.54,-845.916 603.447,-846.146 604.353,-846.32 605.252,-846.44 606.139,-846.509 607.078,-846.531 608.15,-846.488 609.305,-846.353 610.463,-846.121 611.608,-845.791 612.721,-845.368 613.787,-844.859 614.792,-844.274 615.728,-843.626 616.59,-842.929 617.54,-842.028 618.223,-841.277 618.223,-841.277 620.185,-838.113 620.899,-834.322 620.084,-830.283 617.86,-826.985 615.426,-825.344 614.752,-826.238 613.643,-827.392 612.898,-828.019 612.898,-828.019 612.423,-828.285 612.062,-828.566 613.391,-830.213 614.503,-832.757 614.898,-835.602 614.083,-839.641 611.859,-842.939 608.561,-845.163 604.522,-845.978 601.938,-845.654 599.922,-844.864 600.171,-845.024 600.174,-845.023 " transform="matrix(1, 0, 0, 1, 0, 0)" fill="#004080" fill-opacity="0.50" stroke="#004080" stroke-width="1" stroke-opacity="0.10" fill-rule="winding" ub:uuid="7aea3a8c-67e0-45d7-87c3-aea35d489bd3" ub:parent="726554b8-879b-436d-89fb-d60ce0ef276a"/>
        <polygon points="618.747,-840.649 619.131,-840.144 619.65,-839.388 620.129,-838.601 620.565,-837.786 620.955,-836.949 621.297,-836.093 621.661,-834.985 621.991,-833.674 622.247,-832.277 622.417,-830.919 622.527,-829.458 622.576,-827.605 622.577,-824.792 622.567,-821.109 622.464,-819.183 622.27,-817.382 621.986,-815.583 621.603,-813.726 621.033,-811.461 621.035,-811.458 619.666,-808.335 617.397,-805.854 617.245,-805.77 617.701,-808.643 617.972,-810.568 618.161,-812.637 618.246,-814.641 618.237,-816.298 618.104,-818.055 617.848,-819.644 617.543,-820.899 617.219,-821.905 616.806,-822.937 616.286,-823.99 615.624,-825.083 615.426,-825.344 617.86,-826.985 620.084,-830.283 620.899,-834.322 620.185,-838.113 618.471,-840.878 618.748,-840.649 618.747,-840.649 " transform="matrix(1, 0, 0, 1, 0, 0)" fill="#004080" fill-opacity="0.50" stroke="#004080" stroke-width="1" stroke-opacity="0.10" fill-rule="winding" ub:uuid="dbcdfebf-5f19-4864-8696-a863f091e0cc" ub:parent="726554b8-879b-436d-89fb-d60ce0ef276a"/>
        <polygon points="620.95,-811.151 620.065,-808.061 618.773,-804.037 616.926,-798.496 615.502,-794.395 614.405,-791.669 613.244,-789.115 611.981,-786.635 611.66,-786.072 612.683,-788.459 613.542,-790.57 614.337,-792.755 614.984,-794.761 614.986,-794.758 615.019,-794.967 615.103,-795.149 615.101,-795.151 615.661,-797.168 616.185,-799.393 616.628,-801.696 617.181,-805.362 617.245,-805.77 617.397,-805.854 619.666,-808.335 620.976,-811.324 620.952,-811.149 620.95,-811.151 589.984,-790.772 590.807,-791.893 591.87,-793.41 592.819,-794.909 593.026,-795.273 592.039,-792.971 590.526,-789.495 590.24,-788.919 589.503,-787.581 589.191,-787.074 589.984,-790.772 620.95,-811.151 " transform="matrix(1, 0, 0, 1, 0, 0)" fill="#004080" fill-opacity="0.50" stroke="#004080" stroke-width="1" stroke-opacity="0.10" fill-rule="winding" ub:uuid="69afd2ea-953f-4267-9b89-eeb4f50de8de" ub:parent="726554b8-879b-436d-89fb-d60ce0ef276a"/>
        <polygon points="563.798,-777.782 563.713,-778.176 563.442,-779.832 563.243,-781.613 563.142,-783.457 563.142,-785.308 563.246,-787.262 563.501,-789.622 564.025,-794.024 564.514,-798.052 564.855,-800.011 564.853,-800.013 566.095,-803.403 568.369,-806.117 571.44,-807.919 573.864,-808.355 572.928,-806.173 572.926,-806.175 572.898,-806.037 572.799,-805.865 572.801,-805.863 572.096,-804.054 571.393,-801.99 570.781,-799.892 570.514,-798.8 569.532,-797.048 568.45,-794.874 567.656,-793.041 566.646,-790.245 565.636,-787.468 565.075,-786.009 564.546,-784.291 564.161,-782.563 563.913,-780.825 563.811,-779.449 563.811,-779.45 563.793,-779.095 563.786,-778.735 563.787,-778.647 563.787,-778.647 563.798,-777.782 " transform="matrix(1, 0, 0, 1, 0, 0)" fill="#004080" fill-opacity="0.50" stroke="#004080" stroke-width="1" stroke-opacity="0.10" fill-rule="winding" ub:uuid="fb92579e-a512-4c98-a5ed-13bce0bbce52" ub:parent="726554b8-879b-436d-89fb-d60ce0ef276a"/>
        <polygon points="564.941,-800.446 565.363,-802.321 566.139,-805.109 567,-807.712 567.973,-810.479 569.21,-813.745 571.339,-820.402 572.681,-824.04 573.572,-826.119 574.746,-828.543 576.253,-831.444 578.102,-834.794 579.363,-836.907 580.658,-838.881 581.955,-840.668 582.958,-841.925 583.943,-843.057 584.975,-844.141 586.063,-845.173 586.976,-845.955 586.976,-845.955 590.054,-847.768 593.696,-848.425 597.735,-847.61 601.026,-845.391 600.751,-845.284 600.174,-845.023 600.171,-845.024 599.922,-844.864 599.592,-844.734 599.594,-844.733 598.806,-844.289 597.749,-843.593 596.657,-842.773 595.449,-841.757 594.405,-840.798 592.563,-838.974 590.564,-836.975 589.108,-835.501 587.862,-834.101 586.714,-832.653 585.569,-831.034 584.274,-828.946 582.054,-825.176 579.978,-821.8 578.927,-819.969 577.676,-817.528 576.772,-815.514 574.827,-810.597 573.864,-808.355 571.44,-807.919 568.369,-806.117 566.095,-803.403 564.909,-800.166 564.94,-800.448 564.941,-800.446 " transform="matrix(1, 0, 0, 1, 0, 0)" fill="#004080" fill-opacity="0.50" stroke="#004080" stroke-width="1" stroke-opacity="0.10" fill-rule="winding" ub:uuid="452a4b39-a010-4970-bb6b-847e8d737edc" ub:parent="726554b8-879b-436d-89fb-d60ce0ef276a"/>
        <polygon points="587.47,-846.35 588.437,-847.068 589.741,-847.915 591.131,-848.679 592.609,-849.343 594.173,-849.89 595.812,-850.299 597.506,-850.553 599.23,-850.639 600.954,-850.553 602.402,-850.345 603.535,-850.098 604.513,-849.815 605.505,-849.456 606.449,-849.043 607.344,-848.585 608.42,-847.94 609.737,-847.007 610.944,-845.982 610.463,-846.121 609.305,-846.353 608.15,-846.488 607.078,-846.531 606.139,-846.509 605.252,-846.44 604.353,-846.32 603.447,-846.146 602.54,-845.916 601.639,-845.629 601.026,-845.391 597.735,-847.61 593.696,-848.425 590.054,-847.768 587.178,-846.074 587.47,-846.35 587.47,-846.35 " transform="matrix(1, 0, 0, 1, 0, 0)" fill="#004080" fill-opacity="0.50" stroke="#004080" stroke-width="1" stroke-opacity="0.10" fill-rule="winding" ub:uuid="651f4910-2f46-41a3-b817-b4a218ed3051" ub:parent="726554b8-879b-436d-89fb-d60ce0ef276a"/>
        <polygon points="615.863,-795.434 615.746,-794.978 614.521,-790.779 612.909,-785.622 611.5,-781.428 610.446,-778.702 609.323,-776.131 608.143,-773.714 606.643,-770.827 604.816,-767.515 602.694,-763.801 600.196,-759.471 598.299,-756.41 597.012,-754.478 595.894,-752.985 594.729,-751.608 593.479,-750.304 592.111,-749.052 590.631,-747.853 590.631,-747.853 587.631,-746.164 584.115,-745.553 580.076,-746.368 576.778,-748.592 574.554,-751.89 573.739,-755.929 574.011,-758.3 574.705,-760.248 575.647,-759.622 576.857,-758.978 578.126,-758.466 579.255,-758.133 580.254,-757.92 581.214,-757.783 582.135,-757.708 583.27,-757.688 584.683,-757.762 586.236,-757.963 587.702,-758.253 589.122,-758.624 590.552,-759.102 591.996,-759.711 593.008,-760.235 593.011,-760.234 593.437,-760.539 593.861,-760.739 593.86,-760.739 594.665,-761.276 595.66,-762.02 596.652,-762.839 597.917,-763.986 598.738,-764.799 598.785,-764.831 598.815,-764.876 599.256,-765.313 600.312,-766.477 601.26,-767.635 602.149,-768.839 602.986,-770.094 604.94,-773.238 606.573,-775.731 607.495,-777.239 608.601,-779.248 609.456,-780.99 611.09,-784.742 611.66,-786.072 611.981,-786.635 613.244,-789.115 614.405,-791.669 615.502,-794.395 615.863,-795.434 " transform="matrix(1, 0, 0, 1, 0, 0)" fill="#004080" fill-opacity="0.50" stroke="#004080" stroke-width="1" stroke-opacity="0.10" fill-rule="winding" ub:uuid="61d7f075-1dd2-46f2-bb45-cfb96bde4305" ub:parent="726554b8-879b-436d-89fb-d60ce0ef276a"/>
        <polygon points="590.51,-747.758 588.869,-746.473 587.222,-745.22 585.824,-744.27 584.259,-743.397 582.622,-742.669 580.933,-742.094 579.276,-741.685 577.692,-741.42 576.083,-741.276 574.632,-741.267 573.432,-741.353 572.472,-741.491 571.473,-741.704 570.464,-741.996 569.28,-742.448 568.022,-743.047 566.709,-743.805 565.407,-744.677 564.009,-745.73 564.009,-745.729 562.308,-747.347 561.009,-749.312 560.179,-751.555 559.887,-754.01 560.702,-758.049 562.926,-761.347 566.224,-763.57 570.263,-764.386 570.833,-764.292 571.106,-763.968 571.284,-763.646 571.285,-763.646 571.976,-762.776 572.87,-761.805 573.671,-761.058 574.59,-760.325 574.705,-760.248 574.011,-758.3 573.739,-755.929 574.554,-751.89 576.778,-748.592 580.076,-746.368 584.115,-745.553 587.631,-746.164 590.553,-747.809 590.511,-747.758 590.51,-747.758 " transform="matrix(1, 0, 0, 1, 0, 0)" fill="#004080" fill-opacity="0.50" stroke="#004080" stroke-width="1" stroke-opacity="0.10" fill-rule="winding" ub:uuid="50210e46-8c78-482e-b1c2-74994163e0c5" ub:parent="726554b8-879b-436d-89fb-d60ce0ef276a"/>
        <polygon points="563.572,-746.079 562.944,-746.614 562.13,-747.382 561.346,-748.215 560.6,-749.118 559.9,-750.091 559.258,-751.135 558.686,-752.244 558.195,-753.41 557.796,-754.622 557.432,-756.204 557.052,-758.907 556.861,-762.933 556.985,-765.927 557.59,-770.04 561.866,-786.039 562.303,-787.836 563.681,-791.768 563.784,-792.001 563.501,-789.622 563.246,-787.262 563.142,-785.308 563.142,-783.457 563.243,-781.613 563.442,-779.832 563.713,-778.176 563.798,-777.782 563.804,-777.297 563.959,-775.715 564.209,-774.405 564.587,-773.072 565.104,-771.737 565.768,-770.427 566.573,-769.173 567.506,-768.007 568.543,-766.953 569.703,-765.995 569.787,-765.936 570.029,-765.505 570.737,-764.407 570.737,-764.406 570.833,-764.292 570.263,-764.386 566.224,-763.57 562.926,-761.347 560.702,-758.049 559.887,-754.01 560.179,-751.555 561.009,-749.312 562.308,-747.347 563.753,-745.973 563.571,-746.079 563.572,-746.079 " transform="matrix(1, 0, 0, 1, 0, 0)" fill="#004080" fill-opacity="0.50" stroke="#004080" stroke-width="1" stroke-opacity="0.10" fill-rule="winding" ub:uuid="5bd87c9d-3a54-4847-81fd-c1c40632ed61" ub:parent="726554b8-879b-436d-89fb-d60ce0ef276a"/>
        <polygon points="590.084,-791.237 590.759,-792.419 592.751,-795.869 594.296,-798.359 594.179,-798.038 593.559,-796.518 593.026,-795.273 592.819,-794.909 591.87,-793.41 590.807,-791.893 589.984,-790.772 590.084,-791.237 " transform="matrix(1, 0, 0, 1, 0, 0)" fill="#004080" fill-opacity="0.50" stroke="#004080" stroke-width="1" stroke-opacity="0.10" fill-rule="winding" ub:uuid="3163ee06-aaaa-4aeb-9e37-fdc7c4325cb8" ub:parent="726554b8-879b-436d-89fb-d60ce0ef276a"/>
    </g>
</svg>
