<?xml version="1.0" encoding="UTF-8"?>
<svg xmlns="http://www.w3.org/2000/svg" xmlns:xlink="http://www.w3.org/1999/xlink" xmlns:ub="http://uniboard.mnemis.com/document" xmlns:xhtml="http://www.w3.org/1999/xhtml" version="1.1" ub:version="4.8.0" ub:uuid="7e33a3a4-f203-41d0-90a3-ac745a94f28b" viewBox="-721 -919 1443 1838" ub:nominal-size="1343x1738" ub:dark-background="false" ub:crossed-background="true" ub:ruled-background="false" ub:grid-size="55" ub:intermediate-lines="0" pageDpi="158">
    <rect fill="white" x="-721" y="-919" width="1443" height="1838"/>
    <image xlink:href="images/{030dca5c-52a3-437d-938f-3d4c6c184caf}.png" x="0" y="0" width="1036" height="77" transform="matrix(1, 0, 0, 1, -469.942, -838.703)" ub:z-value="-999999.000000" ub:background="false" ub:uuid="030dca5c-52a3-437d-938f-3d4c6c184caf" ub:source="/Users/khale/AppData/Local/OpenBoard/document/OpenBoard Document 2023-05-07 16-55-23.504/images/{030dca5c-52a3-437d-938f-3d4c6c184caf}.png" ub:layer="-1000"/>
    <g ub:z-value="-999998" ub:fill-on-dark-background="#ffffff" ub:fill-on-light-background="#000000" ub:uuid="9bddde4c-2729-48d5-ab85-f43c8c4284e2" ub:layer="-1000">
        <polygon points="621.316,-796.073 620.724,-798.512 620.585,-799.3 620.491,-800.055 620.434,-800.811 620.415,-801.568 620.434,-802.338 620.491,-803.151 620.641,-804.392 620.858,-805.622 621.306,-809.621 621.569,-811.729 622.139,-815.458 622.144,-815.849 622.14,-815.969 622.135,-816.013 622.159,-815.937 622.29,-815.716 622.645,-815.431 623.13,-815.316 623.454,-815.37 623.575,-815.427 623.571,-815.422 623.5,-815.356 623.408,-815.255 623.315,-815.131 623.216,-814.976 623.114,-814.788 623.026,-814.599 622.814,-814.029 622.633,-813.362 622.475,-812.587 622.288,-811.401 622.208,-810.685 622.154,-809.922 621.549,-804.451 621.318,-802.407 621.28,-790.322 621.28,-790.322 620.898,-789.408 619.983,-789.03 619.066,-789.409 618.686,-790.327 618.686,-790.331 618.686,-790.331 618.725,-802.457 618.97,-804.736 619.575,-810.195 619.625,-810.92 619.718,-811.76 619.92,-813.039 620.108,-813.959 620.342,-814.813 620.615,-815.557 620.794,-815.948 620.978,-816.288 621.182,-816.608 621.408,-816.907 621.654,-817.178 621.911,-817.415 622.201,-817.627 622.581,-817.813 623.13,-817.91 623.805,-817.752 624.316,-817.337 624.568,-816.9 624.679,-816.522 624.726,-816.176 624.738,-815.821 624.709,-815.105 624.137,-811.363 623.882,-809.321 623.431,-805.295 623.207,-804.009 623.072,-802.89 623.025,-802.215 623.009,-801.568 623.025,-800.941 623.072,-800.313 623.15,-799.685 623.253,-799.089 623.837,-796.686 623.837,-796.686 623.874,-796.379 623.494,-795.462 622.577,-795.082 621.769,-795.364 621.316,-796.073 621.316,-796.073 " transform="matrix(1, 0, 0, 1, 0, 0)" fill="#000000" fill-opacity="1.00" fill-rule="winding" ub:uuid="441bb446-0ea9-426d-b232-88750b46fae5" ub:parent="9bddde4c-2729-48d5-ab85-f43c8c4284e2"/>
    </g>
    <g ub:z-value="-999997" ub:fill-on-dark-background="#ffffff" ub:fill-on-light-background="#000000" ub:uuid="069693eb-df65-4a8d-9336-38a4d05ef46f" ub:layer="-1000">
        <polygon points="625.991,-830.907 624.963,-831.918 624.936,-831.928 624.824,-831.995 624.694,-832.058 624.544,-832.114 624.372,-832.164 624.176,-832.206 623.955,-832.237 623.745,-832.256 623.161,-832.257 622.596,-832.201 622.027,-832.087 621.449,-831.913 620.861,-831.678 620.262,-831.378 619.652,-831.012 619.032,-830.578 618.402,-830.074 617.77,-829.506 616.77,-828.498 615.764,-827.403 614.758,-826.233 613.401,-824.538 612.045,-822.708 610.686,-820.737 609.678,-819.149 608.665,-817.401 607.65,-815.498 606.65,-813.44 606.038,-812.017 605.162,-809.707 604.362,-807.242 603.473,-804.164 602.859,-801.776 602.666,-800.892 602.415,-799.454 602.075,-796.9 601.748,-793.701 601.686,-791.287 601.845,-788.961 602.23,-786.696 602.599,-785.289 603.067,-783.932 603.63,-782.645 604.265,-781.463 605.889,-779.124 608.649,-775.859 614.297,-770.525 614.765,-770.134 614.765,-770.134 615.227,-769.142 614.847,-768.225 613.93,-767.845 613.095,-768.149 613.095,-768.149 612.525,-768.631 606.794,-774.046 603.847,-777.525 602.081,-780.064 601.298,-781.509 600.65,-782.989 600.116,-784.538 599.689,-786.175 599.269,-788.657 599.092,-791.233 599.16,-793.879 599.498,-797.199 599.849,-799.834 600.118,-801.379 600.34,-802.396 600.971,-804.851 601.881,-807.999 602.715,-810.566 603.629,-812.978 604.296,-814.529 605.337,-816.674 606.397,-818.661 607.46,-820.493 608.526,-822.174 609.934,-824.215 611.345,-826.12 612.756,-827.884 613.825,-829.127 614.894,-830.289 615.969,-831.373 616.722,-832.05 617.475,-832.653 618.238,-833.187 619.012,-833.651 619.796,-834.043 620.592,-834.362 621.397,-834.603 622.211,-834.766 623.03,-834.848 623.812,-834.849 624.242,-834.816 624.627,-834.761 625.001,-834.681 625.365,-834.575 625.716,-834.442 626.054,-834.279 626.374,-834.087 626.744,-833.804 627.81,-832.756 627.81,-832.756 628.197,-831.832 627.817,-830.915 626.9,-830.535 625.991,-830.907 625.991,-830.907 " transform="matrix(1, 0, 0, 1, 0, 0)" fill="#000000" fill-opacity="1.00" fill-rule="winding" ub:uuid="3c50fb6c-a120-46c6-8dd9-72a1ecf5e56e" ub:parent="069693eb-df65-4a8d-9336-38a4d05ef46f"/>
    </g>
    <g ub:z-value="-999996" ub:fill-on-dark-background="#66c0ff" ub:fill-on-light-background="#004080" ub:uuid="3ead5dd7-3110-44e4-a160-c518d509d81c" ub:layer="-1000">
        <polygon points="598.78,-769.185 597.575,-770.404 596.54,-771.626 595.785,-772.681 595.129,-773.73 594.538,-774.792 593.965,-775.95 593.424,-777.212 592.953,-778.506 592.554,-779.817 592.218,-781.165 591.924,-782.695 591.728,-784.396 591.664,-786.111 591.724,-787.806 591.894,-789.458 592.154,-791.056 592.567,-793.03 593.09,-795.057 593.638,-796.843 593.636,-796.845 595.081,-799.776 597.336,-802.093 600.22,-803.614 603.554,-804.162 607.592,-803.346 610.891,-801.122 613.114,-797.824 613.93,-793.785 613.471,-790.726 613.469,-790.728 613.057,-789.4 612.776,-788.315 612.541,-787.176 612.463,-786.707 612.426,-786.353 612.417,-786.111 612.422,-785.958 612.433,-785.862 612.477,-785.662 612.556,-785.349 612.641,-785.069 612.723,-784.842 612.805,-784.651 612.915,-784.435 613.016,-784.251 613.052,-784.193 612.989,-784.279 612.645,-784.672 613.515,-783.798 613.515,-783.798 615.717,-780.51 616.524,-776.492 615.708,-772.453 613.485,-769.154 610.187,-766.931 606.148,-766.115 602.089,-766.939 598.78,-769.185 598.78,-769.185 " transform="matrix(1, 0, 0, 1, 0, 0)" fill="#004080" fill-opacity="0.50" stroke="#004080" stroke-width="1" stroke-opacity="0.10" fill-rule="winding" ub:uuid="5644c311-2b32-4c84-afbc-35cdb8171ca0" ub:parent="3ead5dd7-3110-44e4-a160-c518d509d81c"/>
        <polygon points="593.741,-797.158 594.536,-799.471 595.745,-802.8 597.378,-807.042 599.013,-810.972 601.106,-815.857 604.133,-822.92 606.749,-829.814 607.503,-831.508 608.238,-832.942 609.221,-834.649 609.785,-835.728 609.836,-835.87 610.723,-837.881 612.013,-839.957 612.954,-841.135 613.859,-842.11 614.743,-842.941 615.662,-843.675 616.302,-844.114 616.301,-844.115 618.999,-845.399 622.058,-845.857 626.097,-845.042 629.395,-842.818 631.619,-839.52 632.434,-835.481 632.104,-832.874 631.169,-830.511 629.711,-828.474 628.971,-827.839 629.346,-828.722 628.748,-827.684 628.657,-827.569 627.831,-826.86 627.814,-826.847 627.815,-826.846 627.831,-826.86 627.935,-826.94 628.335,-827.259 628.642,-827.55 628.637,-827.544 628.701,-827.606 628.642,-827.55 628.657,-827.569 628.971,-827.839 628.849,-827.552 628.347,-826.448 627.39,-824.622 626.401,-822.904 626.202,-822.505 626.092,-822.297 623.372,-815.14 620.182,-807.685 618.125,-802.885 616.647,-799.336 615.175,-795.51 614.093,-792.527 613.417,-790.56 613.469,-790.728 613.471,-790.726 613.93,-793.785 613.114,-797.824 610.891,-801.122 607.592,-803.346 603.554,-804.162 600.22,-803.614 597.336,-802.093 595.081,-799.776 593.712,-796.999 593.739,-797.161 593.741,-797.158 " transform="matrix(1, 0, 0, 1, 0, 0)" fill="#004080" fill-opacity="0.50" stroke="#004080" stroke-width="1" stroke-opacity="0.10" fill-rule="winding" ub:uuid="c252cac2-8b1a-4be8-871b-e0276164e2e5" ub:parent="3ead5dd7-3110-44e4-a160-c518d509d81c"/>
        <polygon points="617.175,-844.636 617.929,-845.022 619.295,-845.567 620.801,-845.967 622.405,-846.18 624.045,-846.18 625.649,-845.967 627.081,-845.591 628.259,-845.144 629.276,-844.654 630.204,-844.113 631.048,-843.537 631.814,-842.937 632.705,-842.136 633.73,-841.066 634.743,-839.821 635.603,-838.608 636.37,-837.387 637.068,-836.13 637.587,-835.078 637.588,-835.081 638.369,-832.896 638.643,-830.517 637.827,-826.478 635.604,-823.18 632.305,-820.957 628.266,-820.141 625.428,-820.55 626.092,-822.297 626.202,-822.505 626.401,-822.904 627.39,-824.622 628.347,-826.448 628.849,-827.552 628.971,-827.839 629.711,-828.474 631.169,-830.511 632.104,-832.874 632.434,-835.481 631.619,-839.52 629.395,-842.818 626.097,-845.042 622.058,-845.857 618.999,-845.399 616.731,-844.32 617.173,-844.637 617.175,-844.636 628.971,-827.839 629.346,-828.722 628.748,-827.684 628.657,-827.569 628.971,-827.839 617.175,-844.636 628.657,-827.569 627.831,-826.86 627.935,-826.94 628.335,-827.259 628.642,-827.55 628.657,-827.569 617.175,-844.636 627.831,-826.86 627.814,-826.847 627.815,-826.846 627.831,-826.86 617.175,-844.636 628.642,-827.55 628.637,-827.544 628.701,-827.606 628.642,-827.55 617.175,-844.636 " transform="matrix(1, 0, 0, 1, 0, 0)" fill="#004080" fill-opacity="0.50" stroke="#004080" stroke-width="1" stroke-opacity="0.10" fill-rule="winding" ub:uuid="fedf2a86-ed68-494d-bb3d-920230aa0856" ub:parent="3ead5dd7-3110-44e4-a160-c518d509d81c"/>
        <polygon points="637.804,-834.605 638.264,-833.524 638.764,-832.182 639.201,-830.819 639.604,-829.332 640.017,-827.43 640.287,-825.812 640.534,-823.738 640.686,-821.535 640.735,-819.376 640.735,-816.153 640.73,-811.952 640.611,-808.767 640.404,-806.215 640.053,-803.249 639.614,-799.733 639.137,-796.094 638.696,-793.588 638.162,-791.208 637.597,-789.141 637.599,-789.139 636.198,-786.093 633.934,-783.679 631.001,-782.088 627.592,-781.515 623.553,-782.331 620.255,-784.555 618.031,-787.853 617.216,-791.892 617.585,-794.644 617.587,-794.642 618.025,-796.225 618.347,-797.658 618.606,-799.12 619.029,-802.364 619.454,-805.766 619.49,-806.071 620.182,-807.685 623.372,-815.14 625.428,-820.55 628.266,-820.141 632.305,-820.957 635.604,-823.18 637.827,-826.478 638.643,-830.517 638.369,-832.896 637.689,-834.797 637.805,-834.608 637.804,-834.605 " transform="matrix(1, 0, 0, 1, 0, 0)" fill="#004080" fill-opacity="0.50" stroke="#004080" stroke-width="1" stroke-opacity="0.10" fill-rule="winding" ub:uuid="17adccd3-4f65-40e0-9850-d8985e3f21b3" ub:parent="3ead5dd7-3110-44e4-a160-c518d509d81c"/>
        <polygon points="637.509,-788.84 636.948,-787.02 636.326,-785.185 635.68,-783.472 635.105,-782.129 634.474,-780.84 633.775,-779.583 632.933,-778.25 631.662,-776.46 631.533,-776.26 631.085,-775.496 630.248,-774.004 629.066,-772.361 628.219,-771.437 627.274,-770.574 626.242,-769.791 625.14,-769.107 623.989,-768.531 622.814,-768.07 622.053,-767.836 622.058,-767.835 619.118,-767.412 615.079,-768.228 613.553,-769.256 615.708,-772.453 616.524,-776.492 615.717,-780.51 613.515,-783.798 613.515,-783.798 612.956,-784.359 612.915,-784.435 612.805,-784.651 612.723,-784.842 612.671,-784.986 613.165,-785.697 613.545,-786.111 613.988,-786.516 614.485,-786.892 614.751,-787.058 616.13,-787.719 616.183,-787.741 616.178,-787.743 616.13,-787.719 616.097,-787.706 615.561,-787.495 615.016,-787.223 614.751,-787.058 613.443,-786.43 613.836,-787.099 614.607,-788.283 615.818,-789.986 615.909,-790.14 616.075,-790.44 616.24,-790.776 616.391,-791.128 616.783,-792.165 617.198,-793.391 617.631,-794.8 617.587,-794.642 617.585,-794.644 617.216,-791.892 618.031,-787.853 620.255,-784.555 623.553,-782.331 627.592,-781.515 631.001,-782.088 633.934,-783.679 636.198,-786.093 637.536,-789.002 637.511,-788.838 637.509,-788.84 612.486,-785.627 613.203,-786.316 613.443,-786.43 613.065,-785.788 612.651,-785.042 612.641,-785.069 612.556,-785.349 612.486,-785.627 637.509,-788.84 612.956,-784.359 613.016,-784.251 613.052,-784.193 612.989,-784.279 612.645,-784.672 612.956,-784.359 637.509,-788.84 " transform="matrix(1, 0, 0, 1, 0, 0)" fill="#004080" fill-opacity="0.50" stroke="#004080" stroke-width="1" stroke-opacity="0.10" fill-rule="winding" ub:uuid="bab54094-fb19-45d5-bbb8-448e131e972a" ub:parent="3ead5dd7-3110-44e4-a160-c518d509d81c"/>
        <polygon points="621.396,-767.665 620.461,-767.458 619.274,-767.25 618.075,-767.101 616.869,-767.01 615.616,-766.98 614.053,-767.078 612.547,-767.349 611.334,-767.704 613.485,-769.154 613.553,-769.256 615.079,-768.228 619.118,-767.412 621.685,-767.781 621.401,-767.664 621.396,-767.665 612.671,-784.986 612.651,-785.042 613.065,-785.788 613.443,-786.43 614.751,-787.058 614.485,-786.892 613.988,-786.516 613.545,-786.111 613.165,-785.697 612.671,-784.986 621.396,-767.665 612.486,-785.627 612.477,-785.662 612.433,-785.862 612.422,-785.958 612.417,-786.111 612.426,-786.353 612.463,-786.707 612.541,-787.176 612.776,-788.315 613.057,-789.4 613.417,-790.56 613.873,-791.886 615.185,-791.284 616.103,-790.498 616.075,-790.44 615.909,-790.14 615.818,-789.986 614.607,-788.283 613.836,-787.099 613.443,-786.43 613.203,-786.316 612.486,-785.627 621.396,-767.665 616.1,-787.707 616.104,-787.707 614.751,-787.058 615.016,-787.223 615.561,-787.495 616.097,-787.706 616.1,-787.707 621.396,-767.665 " transform="matrix(1, 0, 0, 1, 0, 0)" fill="#004080" fill-opacity="0.50" stroke="#004080" stroke-width="1" stroke-opacity="0.10" fill-rule="winding" ub:uuid="48adf10e-0dcc-4e71-8851-c23b9c8d7582" ub:parent="3ead5dd7-3110-44e4-a160-c518d509d81c"/>
        <polygon points="600.858,-815.277 601.293,-816.828 602.077,-819.284 603.115,-822.168 605.016,-827.521 605.014,-827.524 606.511,-830.299 607.314,-831.083 606.749,-829.814 604.133,-822.92 601.106,-815.857 600.858,-815.277 618.965,-801.873 618.63,-800.267 618.474,-799.245 618.351,-798.141 618.304,-797.468 618.025,-796.225 617.631,-794.8 617.198,-793.391 616.783,-792.165 616.391,-791.128 616.24,-790.776 616.103,-790.498 615.185,-791.284 613.873,-791.886 614.093,-792.527 615.175,-795.51 616.647,-799.336 618.125,-802.885 619.49,-806.071 619.454,-805.766 619.029,-802.364 618.965,-801.873 600.858,-815.277 616.104,-787.707 616.13,-787.719 616.1,-787.707 616.104,-787.707 600.858,-815.277 616.13,-787.719 616.183,-787.741 616.178,-787.743 616.13,-787.719 600.858,-815.277 " transform="matrix(1, 0, 0, 1, 0, 0)" fill="#004080" fill-opacity="0.50" stroke="#004080" stroke-width="1" stroke-opacity="0.10" fill-rule="winding" ub:uuid="24395ec4-20cf-4906-b9da-0ae687842466" ub:parent="3ead5dd7-3110-44e4-a160-c518d509d81c"/>
        <polygon points="605.093,-827.729 605.933,-829.938 606.639,-831.508 607.319,-832.843 608.065,-834.155 608.984,-835.623 609.702,-836.674 610.43,-837.644 610.989,-838.308 610.723,-837.881 609.836,-835.87 609.785,-835.728 609.221,-834.649 608.238,-832.942 607.503,-831.508 607.314,-831.083 606.511,-830.299 605.072,-827.632 605.091,-827.732 605.093,-827.729 " transform="matrix(1, 0, 0, 1, 0, 0)" fill="#004080" fill-opacity="0.50" stroke="#004080" stroke-width="1" stroke-opacity="0.10" fill-rule="winding" ub:uuid="702f637a-065c-4b93-be5f-1643186e5d67" ub:parent="3ead5dd7-3110-44e4-a160-c518d509d81c"/>
        <polygon points="637.704,-789.532 637.533,-787.997 636.862,-784.755 635.788,-781.37 634.187,-777.667 632.708,-774.94 631.346,-772.908 629.936,-771.18 628.422,-769.622 626.713,-768.146 624.743,-766.728 623.069,-765.725 621.651,-765.031 620.332,-764.518 619.281,-764.214 619.286,-764.212 616.688,-763.884 612.649,-764.7 609.535,-766.799 610.187,-766.931 611.334,-767.704 612.547,-767.349 614.053,-767.078 615.616,-766.98 616.869,-767.01 618.075,-767.101 619.274,-767.25 620.461,-767.458 621.396,-767.665 621.401,-767.664 621.685,-767.781 622.058,-767.835 622.053,-767.836 622.814,-768.07 623.989,-768.531 625.14,-769.107 626.242,-769.791 627.274,-770.574 628.219,-771.437 629.066,-772.361 630.248,-774.004 631.085,-775.496 631.533,-776.26 631.662,-776.46 632.933,-778.25 633.775,-779.583 634.474,-780.84 635.105,-782.129 635.68,-783.472 636.326,-785.185 636.948,-787.02 637.509,-788.84 637.511,-788.838 637.536,-789.002 637.599,-789.139 637.597,-789.141 637.704,-789.532 618.965,-801.873 618.606,-799.12 618.347,-797.658 618.304,-797.468 618.351,-798.141 618.474,-799.245 618.63,-800.267 618.965,-801.873 637.704,-789.532 " transform="matrix(1, 0, 0, 1, 0, 0)" fill="#004080" fill-opacity="0.50" stroke="#004080" stroke-width="1" stroke-opacity="0.10" fill-rule="winding" ub:uuid="8fbda619-84e2-4ba7-a35b-eaac5d26859c" ub:parent="3ead5dd7-3110-44e4-a160-c518d509d81c"/>
        <polygon points="617.937,-763.96 617.012,-763.868 615.525,-763.866 614.162,-764.011 612.926,-764.263 611.807,-764.59 610.788,-764.968 609.609,-765.504 608.329,-766.197 607.899,-766.469 609.535,-766.799 612.649,-764.7 616.688,-763.884 618.388,-764.099 617.941,-763.959 617.937,-763.96 " transform="matrix(1, 0, 0, 1, 0, 0)" fill="#004080" fill-opacity="0.50" stroke="#004080" stroke-width="1" stroke-opacity="0.10" fill-rule="winding" ub:uuid="0baff794-b550-46e0-b783-d2810daecf8c" ub:parent="3ead5dd7-3110-44e4-a160-c518d509d81c"/>
    </g>
    <g ub:z-value="-999991" ub:fill-on-dark-background="#ffffff" ub:fill-on-light-background="#000000" ub:uuid="ec5052a6-e4fc-4491-ab81-d6c23b421913" ub:layer="-1000">
        <polygon points="-569.327,-653.375 -577.965,-649.732 -578.275,-649.573 -578.622,-649.372 -578.936,-649.168 -579.636,-648.625 -580.289,-648.002 -580.928,-647.269 -581.892,-646.017 -582.783,-644.762 -583.598,-643.508 -584.629,-641.797 -586.442,-638.775 -586.657,-638.395 -586.846,-638.013 -587.012,-637.624 -587.156,-637.229 -587.278,-636.827 -587.378,-636.417 -587.456,-635.998 -587.509,-635.603 -587.557,-634.661 -587.541,-633.699 -587.453,-632.196 -587.292,-630.704 -587.054,-629.214 -586.862,-628.319 -586.639,-627.489 -586.388,-626.736 -586.111,-626.06 -585.806,-625.45 -585.44,-624.84 -585.006,-624.22 -584.502,-623.59 -583.927,-622.951 -583.286,-622.31 -582.608,-621.696 -581.897,-621.115 -581.152,-620.564 -580.377,-620.047 -579.594,-619.582 -578.81,-619.207 -578.471,-619.076 -578.105,-618.955 -577.743,-618.857 -577.383,-618.782 -577.026,-618.728 -576.709,-618.698 -575.447,-618.686 -572.86,-618.686 -571.612,-618.693 -570.898,-618.753 -570.22,-618.871 -569.579,-619.046 -568.972,-619.277 -568.379,-619.572 -567.771,-619.937 -567.15,-620.372 -566.52,-620.876 -565.888,-621.445 -564.521,-622.803 -562.449,-624.875 -561.802,-625.533 -561.241,-626.187 -560.75,-626.863 -560.321,-627.567 -559.952,-628.305 -559.626,-629.103 -558.945,-630.907 -558.092,-633.359 -557.629,-634.898 -557.37,-635.936 -557.037,-637.567 -556.533,-641.693 -556.445,-645.783 -556.631,-648.293 -556.92,-649.961 -557.339,-651.474 -557.724,-652.486 -558.18,-653.432 -558.7,-654.3 -559.287,-655.094 -559.966,-655.842 -560.138,-656 -560.336,-656.161 -560.536,-656.299 -560.736,-656.416 -560.938,-656.513 -561.144,-656.591 -561.356,-656.652 -561.576,-656.696 -561.806,-656.723 -562.048,-656.732 -562.297,-656.723 -562.548,-656.694 -562.801,-656.647 -563.059,-656.579 -563.322,-656.49 -563.591,-656.379 -563.867,-656.245 -564.118,-656.105 -564.705,-655.713 -566.872,-653.931 -567.639,-653.199 -567.639,-653.199 -568.534,-652.841 -569.451,-653.221 -569.831,-654.138 -569.428,-655.077 -569.428,-655.077 -568.561,-655.901 -566.309,-657.751 -565.513,-658.293 -565.072,-658.542 -564.656,-658.745 -564.233,-658.919 -563.805,-659.064 -563.371,-659.178 -562.933,-659.26 -562.491,-659.309 -562.048,-659.326 -561.607,-659.309 -561.172,-659.258 -560.743,-659.173 -560.324,-659.052 -559.916,-658.897 -559.522,-658.708 -559.143,-658.488 -558.78,-658.237 -558.434,-657.956 -558.078,-657.622 -557.279,-656.736 -556.542,-655.739 -555.896,-654.662 -555.34,-653.507 -554.868,-652.262 -554.388,-650.524 -554.054,-648.586 -553.851,-645.822 -553.945,-641.507 -554.47,-637.194 -554.837,-635.375 -555.131,-634.199 -555.628,-632.547 -556.505,-630.027 -557.207,-628.165 -557.59,-627.233 -558.051,-626.311 -558.591,-625.424 -559.207,-624.578 -559.891,-623.779 -560.61,-623.045 -562.689,-620.967 -564.089,-619.576 -564.84,-618.899 -565.594,-618.297 -566.357,-617.762 -567.132,-617.298 -567.931,-616.901 -568.776,-616.579 -569.657,-616.339 -570.57,-616.18 -571.517,-616.101 -572.854,-616.092 -575.455,-616.092 -576.787,-616.105 -577.335,-616.153 -577.843,-616.229 -578.348,-616.335 -578.85,-616.471 -579.349,-616.635 -579.874,-616.841 -580.82,-617.296 -581.758,-617.852 -582.643,-618.441 -583.489,-619.067 -584.3,-619.73 -585.074,-620.431 -585.808,-621.165 -586.478,-621.91 -587.081,-622.663 -587.615,-623.426 -588.079,-624.2 -588.475,-624.99 -588.821,-625.837 -589.123,-626.744 -589.384,-627.712 -589.607,-628.754 -589.863,-630.36 -590.038,-631.981 -590.132,-633.591 -590.151,-634.704 -590.095,-635.802 -590.018,-636.402 -589.915,-636.96 -589.781,-637.51 -589.617,-638.05 -589.424,-638.58 -589.201,-639.1 -588.95,-639.608 -588.671,-640.102 -586.853,-643.133 -585.8,-644.88 -584.928,-646.22 -583.978,-647.56 -582.944,-648.901 -582.165,-649.793 -581.331,-650.589 -580.474,-651.257 -579.984,-651.58 -579.51,-651.854 -578.981,-652.119 -570.335,-655.765 -570.335,-655.766 -570.092,-655.841 -569.831,-655.867 -568.914,-655.487 -568.534,-654.57 -569.326,-653.375 -569.327,-653.375 " transform="matrix(1, 0, 0, 1, 0, 0)" fill="#000000" fill-opacity="1.00" fill-rule="winding" ub:uuid="b9047544-2969-4bcb-ba39-35d7779acf5c" ub:parent="ec5052a6-e4fc-4491-ab81-d6c23b421913"/>
    </g>
    <g ub:z-value="-999990" ub:fill-on-dark-background="#ffffff" ub:fill-on-light-background="#000000" ub:uuid="7b8f6625-f9a8-46bc-967c-16096eefabee" ub:layer="-1000">
        <polygon points="-569.655,-667.631 -571.186,-665.574 -571.56,-664.967 -571.888,-664.312 -572.157,-663.625 -572.368,-662.901 -572.527,-662.12 -572.655,-661.292 -572.792,-659.93 -572.84,-659.014 -572.857,-657.501 -572.857,-654.185 -572.857,-648.466 -572.857,-639.831 -572.861,-629.807 -572.967,-627.154 -573.137,-624.727 -574.677,-604.624 -575.028,-601.671 -575.028,-601.671 -575.451,-600.857 -576.316,-600.527 -577.233,-600.907 -577.613,-601.824 -577.604,-601.978 -577.604,-601.978 -577.263,-604.835 -575.724,-624.923 -575.557,-627.295 -575.455,-629.83 -575.451,-639.832 -575.451,-648.466 -575.451,-654.185 -575.451,-657.51 -575.433,-659.085 -575.378,-660.14 -575.23,-661.605 -575.081,-662.577 -574.886,-663.524 -574.612,-664.461 -574.258,-665.365 -573.825,-666.232 -573.3,-667.078 -571.736,-669.18 -571.736,-669.18 -570.695,-669.702 -569.778,-669.322 -569.398,-668.405 -569.655,-667.631 -569.655,-667.631 " transform="matrix(1, 0, 0, 1, 0, 0)" fill="#000000" fill-opacity="1.00" fill-rule="winding" ub:uuid="6c11f204-e963-44e9-afb5-6c3a56ed4d7a" ub:parent="7b8f6625-f9a8-46bc-967c-16096eefabee"/>
    </g>
    <g ub:z-value="-999989" ub:fill-on-dark-background="#ffffff" ub:fill-on-light-background="#000000" ub:uuid="c566aeef-f5a9-478b-9d31-f9a87a62d6d5" ub:layer="-1000">
        <polygon points="-587.753,-607.423 -583.946,-606.717 -583.272,-606.644 -582.584,-606.596 -581.936,-606.58 -581.289,-606.596 -580.614,-606.643 -579.494,-606.778 -578.279,-606.991 -574.95,-607.61 -565.109,-608.459 -558.243,-609.171 -554.266,-609.174 -553.349,-608.794 -552.969,-607.877 -553.349,-606.96 -554.266,-606.58 -558.072,-606.583 -564.868,-605.877 -574.664,-605.031 -577.811,-604.44 -579.112,-604.212 -580.353,-604.062 -581.166,-604.005 -581.936,-603.986 -582.707,-604.005 -583.506,-604.06 -584.388,-604.161 -588.226,-604.872 -588.226,-604.872 -588.982,-605.313 -589.286,-606.148 -588.906,-607.065 -587.989,-607.445 -587.752,-607.423 -587.753,-607.423 " transform="matrix(1, 0, 0, 1, 0, 0)" fill="#000000" fill-opacity="1.00" fill-rule="winding" ub:uuid="2c20677e-f9ca-43c5-ad8b-486eaa7946bb" ub:parent="c566aeef-f5a9-478b-9d31-f9a87a62d6d5"/>
    </g>
    <g ub:z-value="-999988" ub:fill-on-dark-background="#ffffff" ub:fill-on-light-background="#000000" ub:uuid="5b3c82e4-2f25-455b-b4fc-0486211825b7" ub:layer="-1000">
        <polygon points="-597.505,-675.755 -594.936,-675.763 -594.197,-675.824 -593.432,-675.946 -592.662,-676.131 -591.85,-676.392 -589.01,-677.322 -587.81,-677.595 -586.099,-677.888 -581.699,-678.906 -580.46,-679.322 -578.305,-680.101 -565.405,-683.495 -565.405,-683.495 -565.075,-683.537 -564.158,-683.157 -563.778,-682.24 -564.053,-681.442 -564.744,-680.986 -564.745,-680.986 -577.613,-677.601 -579.6,-676.875 -581.058,-676.392 -585.555,-675.352 -587.32,-675.048 -588.265,-674.837 -591.046,-673.925 -591.963,-673.633 -592.923,-673.402 -593.887,-673.248 -594.877,-673.17 -597.496,-673.161 -597.496,-673.161 -597.501,-673.161 -598.418,-673.541 -598.798,-674.458 -598.419,-675.374 -597.505,-675.755 -597.505,-675.755 " transform="matrix(1, 0, 0, 1, 0, 0)" fill="#000000" fill-opacity="1.00" fill-rule="winding" ub:uuid="372ac2cd-55e1-4e4d-9bf8-b0623874b9a9" ub:parent="5b3c82e4-2f25-455b-b4fc-0486211825b7"/>
    </g>
    <g ub:z-value="-999981" ub:fill-on-dark-background="#ffffff" ub:fill-on-light-background="#000000" ub:uuid="0bd0e2f8-ef4b-44cb-8764-57c1648b3508" ub:layer="-1000">
        <polygon points="-550.811,-681.808 -557.823,-681.825 -558.502,-681.889 -559.103,-681.989 -559.71,-682.131 -560.996,-682.504 -561.397,-682.582 -561.832,-682.64 -562.26,-682.669 -563.002,-682.673 -564.297,-682.673 -566.112,-682.673 -568.185,-682.673 -570.501,-682.664 -570.581,-682.651 -570.721,-682.626 -570.85,-682.592 -570.97,-682.549 -571.084,-682.498 -571.193,-682.438 -571.299,-682.367 -571.403,-682.285 -571.543,-682.154 -571.543,-682.154 -572.425,-681.808 -573.342,-682.188 -573.722,-683.105 -573.306,-684.056 -573.306,-684.056 -573.092,-684.254 -572.824,-684.465 -572.541,-684.654 -572.244,-684.819 -571.934,-684.958 -571.613,-685.071 -571.284,-685.158 -570.948,-685.219 -570.535,-685.258 -568.19,-685.267 -566.112,-685.267 -564.297,-685.267 -562.997,-685.267 -562.182,-685.262 -561.574,-685.221 -560.971,-685.141 -560.334,-685.012 -559.025,-684.633 -558.595,-684.533 -558.159,-684.46 -557.8,-684.419 -550.804,-684.402 -550.804,-684.402 -549.889,-684.021 -549.51,-683.105 -549.89,-682.188 -550.807,-681.808 -550.811,-681.808 -550.811,-681.808 " transform="matrix(1, 0, 0, 1, 0, 0)" fill="#000000" fill-opacity="1.00" fill-rule="winding" ub:uuid="07cf5b08-7111-4940-9a90-671be19811ac" ub:parent="0bd0e2f8-ef4b-44cb-8764-57c1648b3508"/>
    </g>
    <g ub:z-value="-999980" ub:fill-on-dark-background="#ffffff" ub:fill-on-light-background="#000000" ub:uuid="c4b4d70b-cb8f-495d-abc0-8f39a2be1579" ub:layer="-1000">
        <polygon points="-569.441,-683.641 -570.222,-680.654 -570.425,-680.04 -570.614,-679.548 -570.985,-678.632 -571.037,-678.352 -571.094,-677.898 -571.129,-677.271 -571.415,-674.395 -571.61,-673.669 -571.819,-672.933 -571.902,-672.516 -571.96,-672.081 -571.989,-671.652 -571.992,-670.91 -571.992,-669.607 -572.011,-668.269 -572.073,-667.629 -572.173,-667.027 -572.315,-666.42 -572.688,-665.134 -572.767,-664.733 -572.819,-664.391 -572.875,-660.496 -572.983,-659.545 -573.172,-658.666 -573.344,-658.089 -573.344,-658.088 -574.586,-657.164 -575.504,-657.544 -575.883,-658.461 -575.829,-658.834 -575.829,-658.834 -575.689,-659.295 -575.542,-659.972 -575.468,-660.577 -575.412,-664.465 -575.325,-665.16 -575.196,-665.797 -574.817,-667.105 -574.717,-667.536 -574.644,-667.971 -574.603,-668.368 -574.586,-669.625 -574.586,-670.916 -574.582,-671.73 -574.541,-672.339 -574.461,-672.942 -574.336,-673.562 -574.104,-674.383 -573.988,-674.729 -573.712,-677.508 -573.678,-678.126 -573.596,-678.779 -573.441,-679.467 -573.025,-680.505 -572.868,-680.913 -572.725,-681.336 -571.95,-684.298 -571.95,-684.298 -571.494,-684.992 -570.695,-685.267 -569.778,-684.887 -569.398,-683.97 -569.44,-683.641 -569.441,-683.641 " transform="matrix(1, 0, 0, 1, 0, 0)" fill="#000000" fill-opacity="1.00" fill-rule="winding" ub:uuid="679957f8-b1ff-41dc-a2e8-0e62a520e77a" ub:parent="c4b4d70b-cb8f-495d-abc0-8f39a2be1579"/>
    </g>
</svg>
