<?xml version="1.0" encoding="UTF-8"?>
<svg xmlns="http://www.w3.org/2000/svg" xmlns:xlink="http://www.w3.org/1999/xlink" xmlns:ub="http://uniboard.mnemis.com/document" xmlns:xhtml="http://www.w3.org/1999/xhtml" version="1.1" ub:version="4.8.0" ub:uuid="c046fb71-6853-42bc-b7c9-5f3947e8cbe3" viewBox="-690 -563 1380 1093" ub:nominal-size="1280x960" ub:dark-background="false" ub:crossed-background="true" ub:ruled-background="false" ub:grid-size="55" ub:intermediate-lines="0" pageDpi="158">
    <rect fill="white" x="-690" y="-563" width="1380" height="1093"/>
    <g ub:z-value="-999999" ub:fill-on-dark-background="#ffffff" ub:fill-on-light-background="#000000" ub:uuid="201a1f8e-20cd-4d1d-a3e4-55d0d83ec830" ub:layer="-1000">
        <polygon points="-472.447,-432.62 -475.729,-433.903 -476.485,-434.126 -477.235,-434.292 -477.932,-434.39 -478.603,-434.422 -479.758,-434.421 -481.905,-434.421 -484.311,-434.379 -485.332,-434.308 -487.083,-434.128 -488.987,-433.864 -490.925,-433.518 -492.863,-433.089 -494.822,-432.571 -499.709,-431.242 -504.171,-430.062 -505.533,-429.632 -507.572,-428.897 -509.524,-428.08 -510.747,-427.504 -512.567,-426.546 -513.695,-425.883 -515.361,-424.797 -516.877,-423.694 -517.773,-422.977 -518.6,-422.258 -519.349,-421.545 -520.041,-420.818 -520.697,-420.055 -521.319,-419.255 -521.906,-418.419 -522.455,-417.551 -523.238,-416.178 -523.934,-414.814 -524.549,-413.446 -524.889,-412.582 -525.161,-411.7 -525.364,-410.784 -525.501,-409.826 -525.57,-408.822 -525.574,-407.778 -525.505,-406.194 -525.416,-405.218 -525.291,-404.271 -525.13,-403.358 -525.042,-402.981 -524.93,-402.606 -524.795,-402.238 -524.636,-401.877 -524.452,-401.523 -524.244,-401.173 -524.01,-400.828 -523.75,-400.488 -523.485,-400.177 -522.794,-399.48 -522.037,-398.826 -521.201,-398.199 -520.288,-397.602 -519.296,-397.036 -518.239,-396.509 -517.148,-396.051 -516.02,-395.664 -514.961,-395.367 -504.397,-393.815 -498.724,-393.595 -492.813,-393.963 -479.336,-396.133 -476.859,-396.772 -476.639,-396.845 -476.64,-396.845 -476.426,-396.896 -476.202,-396.914 -475.195,-396.497 -474.777,-395.49 -475.056,-394.643 -475.764,-394.134 -475.765,-394.134 -476.134,-394.017 -478.841,-393.327 -492.445,-391.138 -498.688,-390.747 -504.705,-390.983 -515.411,-392.554 -516.858,-392.941 -518.162,-393.389 -519.425,-393.919 -520.637,-394.523 -521.773,-395.172 -522.835,-395.866 -523.822,-396.606 -524.736,-397.396 -525.554,-398.219 -525.964,-398.696 -526.321,-399.162 -526.647,-399.644 -526.942,-400.139 -527.205,-400.648 -527.436,-401.171 -527.633,-401.705 -527.796,-402.251 -527.926,-402.814 -528.107,-403.838 -528.248,-404.904 -528.349,-406.018 -528.422,-407.709 -528.417,-408.925 -528.334,-410.124 -528.167,-411.293 -527.915,-412.428 -527.578,-413.522 -527.169,-414.565 -526.502,-416.047 -525.745,-417.531 -524.904,-419.007 -524.276,-420 -523.61,-420.949 -522.902,-421.859 -522.153,-422.729 -521.363,-423.559 -520.517,-424.365 -519.597,-425.165 -518.593,-425.968 -516.976,-427.144 -515.205,-428.298 -513.94,-429.041 -512.028,-430.048 -510.669,-430.688 -508.604,-431.552 -506.455,-432.327 -504.931,-432.808 -500.448,-433.993 -495.564,-435.322 -493.535,-435.858 -491.484,-436.312 -489.434,-436.678 -487.426,-436.956 -485.588,-437.146 -484.406,-437.227 -481.931,-437.27 -479.758,-437.27 -478.548,-437.27 -477.662,-437.226 -476.726,-437.095 -475.766,-436.882 -474.738,-436.573 -471.41,-435.273 -471.41,-435.273 -470.504,-433.947 -470.922,-432.939 -471.929,-432.522 -472.197,-432.547 -472.448,-432.62 -472.447,-432.62 " transform="matrix(1, 0, 0, 1, 0, 0)" fill="#000000" fill-opacity="1.00" fill-rule="winding" ub:uuid="05a486cc-b48c-45ab-8c73-fb8b06687ed2" ub:parent="201a1f8e-20cd-4d1d-a3e4-55d0d83ec830"/>
    </g>
    <g ub:z-value="-999998" ub:fill-on-dark-background="#ffffff" ub:fill-on-light-background="#000000" ub:uuid="43b16c4a-f245-4af9-913e-bb74c550035b" ub:layer="-1000">
        <polygon points="-428.265,-420.178 -424.487,-420.22 -423.657,-420.288 -422.3,-420.464 -420.412,-420.804 -419.384,-420.948 -417.904,-421.081 -416.937,-421.12 -413.173,-421.355 -412.307,-421.498 -408.476,-422.025 -407.385,-422.072 -405.937,-422.077 -404.036,-422.077 -401.663,-422.077 -397.035,-422.057 -394.788,-421.833 -393.345,-421.581 -393.344,-421.581 -392.504,-421.099 -392.166,-420.178 -392.583,-419.171 -393.591,-418.754 -393.837,-418.775 -393.836,-418.775 -395.156,-419.008 -397.134,-419.21 -401.67,-419.228 -404.036,-419.228 -405.933,-419.228 -407.333,-419.224 -408.142,-419.196 -411.907,-418.678 -412.94,-418.516 -416.772,-418.277 -417.705,-418.24 -419.073,-418.117 -419.944,-417.994 -421.854,-417.651 -423.346,-417.457 -424.415,-417.373 -428.233,-417.329 -428.233,-417.329 -428.249,-417.329 -429.256,-417.747 -429.674,-418.754 -429.262,-419.756 -428.265,-420.178 -428.265,-420.178 " transform="matrix(1, 0, 0, 1, 0, 0)" fill="#000000" fill-opacity="1.00" fill-rule="winding" ub:uuid="06fd72bb-8679-40c8-a394-0508d91058b7" ub:parent="43b16c4a-f245-4af9-913e-bb74c550035b"/>
    </g>
    <g ub:z-value="-999997" ub:fill-on-dark-background="#ffffff" ub:fill-on-light-background="#000000" ub:uuid="60ee4be3-1a80-42e1-a682-e111ccd24725" ub:layer="-1000">
        <polygon points="-416.223,-404.837 -413.97,-403.722 -413.332,-403.481 -412.629,-403.29 -411.884,-403.16 -411.09,-403.094 -410.238,-403.091 -409.392,-403.126 -408.585,-403.196 -407.821,-403.3 -406.997,-403.456 -402.772,-404.026 -401.833,-404.036 -400.593,-404.036 -394.54,-404.036 -393.533,-403.618 -393.116,-402.611 -393.533,-401.604 -394.54,-401.187 -400.593,-401.187 -401.833,-401.187 -402.45,-401.196 -406.591,-400.636 -407.363,-400.489 -408.27,-400.365 -409.21,-400.283 -410.187,-400.242 -411.215,-400.248 -412.244,-400.334 -413.247,-400.509 -414.214,-400.773 -415.172,-401.139 -417.486,-402.284 -417.487,-402.284 -418.279,-403.561 -417.862,-404.568 -416.855,-404.985 -416.525,-404.947 -416.223,-404.838 -416.223,-404.837 " transform="matrix(1, 0, 0, 1, 0, 0)" fill="#000000" fill-opacity="1.00" fill-rule="winding" ub:uuid="2ea18034-188c-44a2-b1f4-25c803627080" ub:parent="60ee4be3-1a80-42e1-a682-e111ccd24725"/>
    </g>
    <g ub:z-value="-999996" ub:fill-on-dark-background="#ffffff" ub:fill-on-light-background="#000000" ub:uuid="5743daaf-e123-445e-981d-b022b12fb6b2" ub:layer="-1000">
        <polygon points="-278.645,-502.893 -279.972,-507.816 -280.128,-508.256 -280.196,-508.4 -280.29,-508.572 -280.397,-508.739 -280.519,-508.903 -280.656,-509.062 -280.81,-509.22 -280.982,-509.374 -281.173,-509.526 -281.37,-509.666 -281.556,-509.778 -281.744,-509.866 -281.95,-509.94 -282.178,-509.999 -282.432,-510.041 -282.712,-510.065 -283.02,-510.068 -283.357,-510.049 -283.681,-510.013 -285.03,-509.751 -287.161,-509.283 -288.669,-508.909 -289.35,-508.681 -290.104,-508.372 -290.908,-507.987 -291.751,-507.531 -293.12,-506.698 -294.495,-505.777 -295.873,-504.771 -297.249,-503.68 -298.106,-502.93 -298.933,-502.138 -299.725,-501.31 -300.476,-500.453 -301.586,-499.057 -303.078,-497.043 -304.574,-494.874 -305.257,-493.795 -305.867,-492.718 -306.403,-491.647 -306.865,-490.581 -307.254,-489.52 -307.571,-488.464 -307.816,-487.412 -307.991,-486.364 -308.096,-485.318 -308.131,-484.273 -308.096,-483.273 -307.995,-482.363 -307.831,-481.542 -307.596,-480.773 -307.492,-480.509 -307.156,-479.829 -306.756,-479.162 -306.279,-478.481 -305.725,-477.789 -305.096,-477.089 -304.406,-476.403 -303.691,-475.79 -302.949,-475.25 -302.176,-474.78 -301.369,-474.377 -300.525,-474.038 -299.675,-473.766 -298.83,-473.563 -297.991,-473.428 -297.16,-473.362 -295.764,-473.353 -293.183,-473.353 -290.985,-473.362 -289.996,-473.431 -289.038,-473.568 -288.122,-473.771 -287.24,-474.042 -286.376,-474.383 -285.008,-474.998 -283.644,-475.694 -282.268,-476.478 -281.41,-477.015 -280.624,-477.551 -279.919,-478.079 -279.344,-478.554 -275.634,-482.24 -275.224,-482.744 -274.798,-483.366 -274.409,-484.046 -273.843,-485.28 -273.396,-486.558 -273.201,-487.312 -273.069,-488.035 -273.005,-488.705 -273.005,-489.336 -273.069,-490.006 -273.195,-490.704 -273.522,-491.885 -274.395,-494.058 -275.105,-495.475 -275.613,-496.312 -275.951,-496.772 -276.357,-497.242 -277.087,-497.959 -281.957,-501.552 -282.302,-501.853 -282.564,-502.121 -282.801,-502.409 -283.011,-502.721 -283.188,-503.059 -283.325,-503.425 -283.412,-503.812 -283.438,-504.107 -283.438,-504.107 -283.442,-504.214 -283.025,-505.221 -282.018,-505.638 -281.047,-505.255 -280.597,-504.321 -280.597,-504.32 -280.595,-504.235 -280.597,-504.243 -280.591,-504.228 -280.569,-504.187 -280.522,-504.119 -280.446,-504.027 -280.338,-503.916 -280.256,-503.837 -275.345,-500.213 -274.309,-499.221 -273.727,-498.551 -273.229,-497.872 -272.599,-496.829 -271.789,-495.207 -270.839,-492.842 -270.426,-491.373 -270.247,-490.4 -270.16,-489.474 -270.16,-488.567 -270.247,-487.642 -270.42,-486.694 -270.68,-485.7 -271.201,-484.215 -271.861,-482.772 -272.383,-481.856 -272.945,-481.035 -273.598,-480.247 -277.361,-476.508 -278.154,-475.843 -278.968,-475.233 -279.853,-474.629 -280.818,-474.026 -282.291,-473.187 -283.775,-472.43 -285.257,-471.763 -286.3,-471.353 -287.394,-471.017 -288.529,-470.765 -289.698,-470.598 -290.912,-470.514 -293.177,-470.504 -295.771,-470.504 -297.262,-470.515 -298.33,-470.6 -299.389,-470.769 -300.443,-471.022 -301.492,-471.358 -302.538,-471.779 -303.555,-472.287 -304.529,-472.88 -305.458,-473.556 -306.338,-474.31 -307.158,-475.124 -307.896,-475.944 -308.558,-476.772 -309.144,-477.61 -309.656,-478.462 -310.08,-479.32 -310.298,-479.872 -310.595,-480.851 -310.811,-481.929 -310.938,-483.07 -310.979,-484.273 -310.938,-485.507 -310.815,-486.74 -310.61,-487.971 -310.323,-489.198 -309.957,-490.421 -309.51,-491.639 -308.984,-492.852 -308.381,-494.059 -307.7,-495.261 -306.94,-496.461 -305.396,-498.698 -303.85,-500.786 -302.672,-502.267 -301.827,-503.233 -300.948,-504.153 -300.029,-505.032 -299.062,-505.877 -297.599,-507.037 -296.128,-508.11 -294.655,-509.098 -293.185,-509.993 -292.204,-510.524 -291.261,-510.975 -290.344,-511.35 -289.43,-511.654 -287.804,-512.058 -285.614,-512.539 -284.172,-512.819 -283.604,-512.887 -283.085,-512.916 -282.577,-512.91 -282.079,-512.867 -281.591,-512.786 -281.117,-512.664 -280.659,-512.5 -280.22,-512.294 -279.817,-512.055 -279.464,-511.805 -279.142,-511.549 -278.839,-511.276 -278.556,-510.987 -278.294,-510.682 -278.055,-510.361 -277.839,-510.025 -277.648,-509.674 -277.469,-509.278 -277.227,-508.578 -275.895,-503.635 -275.895,-503.635 -275.846,-503.264 -276.263,-502.257 -277.27,-501.84 -278.143,-502.139 -278.645,-502.893 -278.645,-502.893 " transform="matrix(1, 0, 0, 1, 0, 0)" fill="#000000" fill-opacity="1.00" fill-rule="winding" ub:uuid="c61a1040-eb4d-4a1d-837d-4569090c2cba" ub:parent="5743daaf-e123-445e-981d-b022b12fb6b2"/>
    </g>
    <g ub:z-value="-999995" ub:fill-on-dark-background="#ffffff" ub:fill-on-light-background="#000000" ub:uuid="52e65ed1-48ce-4e22-8cb1-9d3d96f26189" ub:layer="-1000">
        <polygon points="-288.19,-489.03 -288.176,-486.772 -288.149,-486.573 -288.096,-486.295 -288.022,-486.012 -287.925,-485.723 -287.803,-485.427 -287.655,-485.125 -287.502,-484.849 -287.039,-484.162 -285.627,-482.28 -283.93,-480.022 -282.829,-478.664 -282.022,-477.763 -281.196,-476.92 -279.75,-475.473 -276.773,-472.252 -273.737,-468.009 -273.737,-468.009 -273.472,-467.181 -273.889,-466.174 -274.896,-465.757 -276.055,-466.353 -276.055,-466.353 -278.992,-470.466 -281.817,-473.512 -283.219,-474.914 -284.103,-475.818 -285.005,-476.825 -286.183,-478.278 -287.905,-480.569 -289.341,-482.485 -289.904,-483.317 -290.177,-483.801 -290.4,-484.258 -290.592,-484.722 -290.751,-485.193 -290.876,-485.67 -290.966,-486.151 -291.024,-486.711 -291.039,-489.012 -291.039,-489.012 -291.039,-489.021 -290.621,-490.028 -289.614,-490.445 -288.61,-490.031 -288.19,-489.03 -288.19,-489.03 " transform="matrix(1, 0, 0, 1, 0, 0)" fill="#000000" fill-opacity="1.00" fill-rule="winding" ub:uuid="877a63c2-61e9-4eec-90d7-47f7c6cc469d" ub:parent="52e65ed1-48ce-4e22-8cb1-9d3d96f26189"/>
    </g>
    <g ub:z-value="-999994" ub:fill-on-dark-background="#ffffff" ub:fill-on-light-background="#000000" ub:uuid="4c2f52ee-8aa4-482f-ad59-c8e0a2ce5bf7" ub:layer="-1000">
        <polygon points="-349.601,-457.925 -347.913,-456.809 -347.413,-456.547 -346.8,-456.289 -346.098,-456.056 -345.311,-455.85 -344.436,-455.676 -343.459,-455.536 -341.718,-455.385 -339.719,-455.316 -335.724,-455.312 -327.976,-455.312 -320.147,-455.312 -311.72,-455.311 -297.073,-455.007 -295.691,-454.834 -282.797,-454.055 -281.444,-453.884 -270.147,-453.177 -268.808,-453.024 -258.452,-452.307 -255.598,-451.985 -252.401,-451.502 -244.485,-450.565 -243.396,-450.553 -242.075,-450.473 -240.598,-450.307 -222.432,-447.22 -222.432,-447.22 -221.587,-446.74 -221.246,-445.816 -221.663,-444.809 -222.671,-444.392 -222.909,-444.412 -222.909,-444.412 -241.064,-447.497 -242.322,-447.635 -243.507,-447.707 -244.783,-447.732 -252.762,-448.676 -255.975,-449.161 -258.675,-449.467 -269.02,-450.183 -270.34,-450.334 -281.642,-451.042 -282.986,-451.213 -295.881,-451.991 -297.158,-452.16 -311.758,-452.463 -320.147,-452.463 -327.976,-452.463 -335.725,-452.463 -339.754,-452.468 -341.885,-452.541 -343.763,-452.704 -344.912,-452.867 -345.946,-453.073 -346.906,-453.324 -347.8,-453.622 -348.63,-453.971 -349.422,-454.393 -351.171,-455.547 -351.171,-455.547 -351.81,-456.736 -351.393,-457.743 -350.386,-458.16 -349.601,-457.925 -349.601,-457.925 " transform="matrix(1, 0, 0, 1, 0, 0)" fill="#000000" fill-opacity="1.00" fill-rule="winding" ub:uuid="ca42e7c5-fbbf-4eb4-8c92-3f149861f707" ub:parent="4c2f52ee-8aa4-482f-ad59-c8e0a2ce5bf7"/>
    </g>
    <g ub:z-value="-999983" ub:fill-on-dark-background="#ffffff" ub:fill-on-light-background="#000000" ub:uuid="1a617ec6-7610-4a9a-af7a-c8fe56126dff" ub:layer="-1000">
        <polygon points="-321.424,-432.058 -321.406,-429.44 -321.357,-428.862 -321.275,-428.288 -321.163,-427.759 -321.02,-427.266 -320.708,-426.373 -320.15,-424.885 -319.255,-422.663 -318.91,-421.904 -318.367,-420.846 -318.028,-420.271 -317.001,-418.618 -312.976,-409.518 -312.665,-408.52 -312.353,-407.332 -311.971,-405.805 -311.5,-403.92 -310.938,-401.839 -310.664,-400.952 -310.561,-400.635 -310.455,-400.188 -310.434,-399.615 -310.599,-398.975 -310.998,-398.395 -311.529,-398.014 -312.064,-397.824 -312.571,-397.752 -313.067,-397.752 -313.604,-397.805 -316.181,-398.236 -316.804,-398.3 -317.376,-398.334 -317.87,-398.334 -318.394,-398.301 -318.968,-398.234 -319.573,-398.133 -320.694,-397.887 -323.483,-397.422 -324.141,-397.395 -326.983,-397.096 -327.794,-396.941 -329.153,-396.661 -330.865,-396.281 -333.982,-395.632 -334.896,-395.536 -335.735,-395.495 -337.237,-395.49 -338.887,-395.49 -340.098,-395.51 -340.794,-395.578 -341.454,-395.688 -342.112,-395.842 -342.751,-396.033 -343.123,-396.169 -343.464,-396.324 -343.791,-396.505 -344.101,-396.72 -344.39,-396.975 -344.65,-397.275 -344.869,-397.62 -345.033,-398.002 -345.132,-398.406 -345.163,-398.831 -345.119,-399.274 -345.001,-399.699 -344.831,-400.084 -344.62,-400.439 -344.376,-400.771 -344.102,-401.09 -343.771,-401.425 -343.133,-401.984 -339.401,-405.208 -338.644,-406.193 -337.394,-408.158 -333.404,-415.847 -331.301,-419.314 -329.405,-422.833 -328.296,-424.605 -327.919,-425.338 -327.594,-426.119 -327.516,-426.346 -327.517,-426.346 -327.005,-427.031 -326.172,-427.3 -325.165,-426.883 -324.748,-425.875 -324.768,-425.633 -324.827,-425.405 -324.828,-425.405 -324.949,-425.062 -325.337,-424.134 -325.843,-423.157 -326.928,-421.426 -328.829,-417.899 -330.904,-414.482 -334.891,-406.797 -336.299,-404.575 -337.442,-403.139 -341.268,-399.83 -341.846,-399.325 -342.009,-399.157 -342.152,-398.992 -342.25,-398.859 -342.305,-398.767 -342.324,-398.725 -342.321,-398.741 -342.315,-398.795 -342.318,-398.85 -342.331,-398.903 -342.352,-398.952 -342.372,-398.984 -342.376,-398.989 -342.352,-398.969 -342.291,-398.927 -342.19,-398.872 -342.048,-398.807 -341.878,-398.744 -341.378,-398.594 -340.896,-398.482 -340.417,-398.402 -339.973,-398.356 -338.867,-398.338 -337.241,-398.338 -335.79,-398.343 -335.109,-398.377 -334.505,-398.433 -331.459,-399.067 -329.752,-399.446 -328.349,-399.735 -327.336,-399.923 -324.405,-400.231 -323.886,-400.242 -321.205,-400.689 -320.132,-400.927 -319.371,-401.054 -318.652,-401.138 -317.961,-401.181 -317.288,-401.182 -316.568,-401.139 -315.748,-401.052 -313.159,-400.619 -312.917,-400.596 -312.749,-400.595 -312.705,-400.6 -312.803,-400.562 -313.012,-400.409 -313.202,-400.132 -313.271,-399.873 -313.27,-399.755 -313.297,-399.84 -313.383,-400.102 -313.68,-401.067 -314.257,-403.202 -314.735,-405.114 -315.113,-406.627 -315.409,-407.755 -315.592,-408.391 -319.58,-417.408 -320.453,-418.775 -320.873,-419.491 -321.47,-420.655 -321.884,-421.567 -322.803,-423.846 -323.384,-425.397 -323.728,-426.383 -323.927,-427.068 -324.08,-427.793 -324.188,-428.548 -324.254,-429.375 -324.273,-432.037 -324.273,-432.037 -324.273,-432.047 -323.856,-433.055 -322.849,-433.472 -321.845,-433.058 -321.424,-432.058 -321.424,-432.058 " transform="matrix(1, 0, 0, 1, 0, 0)" fill="#000000" fill-opacity="1.00" fill-rule="winding" ub:uuid="01992041-c936-4010-81cb-5cd455a62ff0" ub:parent="1a617ec6-7610-4a9a-af7a-c8fe56126dff"/>
    </g>
    <g ub:z-value="-999982" ub:fill-on-dark-background="#ffffff" ub:fill-on-light-background="#000000" ub:uuid="f9898c33-9ea6-4f14-8687-5f5a62240273" ub:layer="-1000">
        <polygon points="-303.383,-431.098 -303.383,-431.597 -303.361,-431.832 -303.361,-431.832 -302.891,-432.712 -301.949,-433.068 -300.942,-432.651 -300.525,-431.644 -300.537,-431.455 -300.537,-431.456 -300.534,-431.548 -300.534,-431.098 -300.951,-430.091 -301.958,-429.674 -302.966,-430.091 -303.383,-431.098 " transform="matrix(1, 0, 0, 1, 0, 0)" fill="#000000" fill-opacity="1.00" fill-rule="winding" ub:uuid="dd983af6-a6ac-4ca0-9baf-afdf929e747c" ub:parent="f9898c33-9ea6-4f14-8687-5f5a62240273"/>
        <polygon points="-302.861,-432.738 -302.832,-432.762 -302.832,-432.762 -301.92,-433.092 -300.913,-432.675 -300.496,-431.668 -301.009,-430.573 -301.009,-430.573 -301.037,-430.55 -301.037,-430.55 -301.949,-430.22 -302.956,-430.637 -303.373,-431.644 -302.861,-432.738 -302.861,-432.738 " transform="matrix(1, 0, 0, 1, 0, 0)" fill="#000000" fill-opacity="1.00" fill-rule="winding" ub:uuid="ad64786a-918a-42b6-9a9a-0ce47e367446" ub:parent="f9898c33-9ea6-4f14-8687-5f5a62240273"/>
        <polygon points="-301.283,-432.942 -300.961,-432.738 -300.694,-432.462 -300.515,-432.212 -300.232,-431.736 -299.167,-429.649 -297.642,-426.585 -297.258,-425.692 -296.928,-424.783 -296.64,-423.838 -296.396,-422.864 -295.822,-420.259 -295.651,-419.61 -295.36,-418.647 -294.872,-416.695 -294.666,-415.588 -294.39,-413.812 -292.502,-404.842 -289.568,-393.684 -289.439,-393.369 -289.29,-393.041 -289.146,-392.784 -289.12,-392.747 -289.09,-392.708 -289.149,-392.762 -289.503,-392.964 -290.114,-393.02 -290.508,-392.876 -290.64,-392.775 -290.635,-392.783 -290.561,-392.894 -290.466,-393.06 -290.163,-393.696 -289.467,-395.441 -288.78,-397.288 -288.021,-399.233 -287.585,-400.112 -286.852,-401.431 -285.535,-403.68 -281.016,-412.375 -278.767,-416.451 -278.5,-417.119 -278.28,-417.771 -276.041,-426.822 -275.886,-427.917 -275.845,-430.175 -275.845,-430.175 -275.42,-431.164 -274.421,-431.573 -273.414,-431.156 -272.997,-430.148 -272.997,-430.122 -272.997,-430.122 -273.043,-427.736 -273.267,-426.173 -275.519,-417.069 -275.831,-416.125 -276.248,-415.122 -278.499,-411.041 -283.021,-402.34 -284.382,-400.012 -285.073,-398.768 -285.396,-398.127 -286.118,-396.274 -286.809,-394.417 -287.537,-392.592 -287.918,-391.786 -288.135,-391.401 -288.356,-391.074 -288.626,-390.76 -289.015,-390.45 -289.646,-390.21 -290.476,-390.286 -291.029,-390.621 -291.278,-390.884 -291.438,-391.091 -291.602,-391.34 -291.838,-391.767 -292.068,-392.274 -292.319,-392.946 -295.272,-404.179 -297.183,-413.25 -297.476,-415.12 -297.65,-416.064 -298.112,-417.911 -298.39,-418.828 -298.599,-419.622 -299.174,-422.23 -299.386,-423.079 -299.63,-423.882 -299.907,-424.644 -300.207,-425.346 -301.712,-428.369 -302.755,-430.413 -302.927,-430.696 -302.919,-430.683 -302.785,-430.55 -302.557,-430.394 -302.558,-430.393 -303.345,-431.668 -302.928,-432.675 -301.92,-433.092 -301.588,-433.053 -301.283,-432.942 -301.283,-432.942 " transform="matrix(1, 0, 0, 1, 0, 0)" fill="#000000" fill-opacity="1.00" fill-rule="winding" ub:uuid="2bb7a161-2f90-4658-9155-e5d699e69638" ub:parent="f9898c33-9ea6-4f14-8687-5f5a62240273"/>
    </g>
</svg>
